<svg xmlns="http://www.w3.org/2000/svg" width="47.25" height="54" viewBox="0 0 47.25 54"><path d="M47.25,37.969V2.531A2.525,2.525,0,0,0,44.719,0H10.125A10.128,10.128,0,0,0,0,10.125v33.75A10.128,10.128,0,0,0,10.125,54H44.719a2.525,2.525,0,0,0,2.531-2.531V49.781a2.551,2.551,0,0,0-.939-1.972,23.52,23.52,0,0,1,0-7.879A2.513,2.513,0,0,0,47.25,37.969ZM13.5,14.133a.635.635,0,0,1,.633-.633H36.492a.635.635,0,0,1,.633.633v2.109a.635.635,0,0,1-.633.633H14.133a.635.635,0,0,1-.633-.633Zm0,6.75a.635.635,0,0,1,.633-.633H36.492a.635.635,0,0,1,.633.633v2.109a.635.635,0,0,1-.633.633H14.133a.635.635,0,0,1-.633-.633ZM40.226,47.25h-30.1a3.375,3.375,0,0,1,0-6.75h30.1A37.969,37.969,0,0,0,40.226,47.25Z" fill="#1f6d4c"/></svg>