<svg xmlns="http://www.w3.org/2000/svg" width="61.48" height="65.495" viewBox="0 0 61.48 65.495"><g transform="translate(-300.35 -166.19)"><path d="M331.07,179.31c5.67-5.21,8.82-7.22,15.11-11.23l.61-.39.41.65-.61.39c-6.24,3.98-9.37,5.98-15,11.15l-.52-.57Z" fill="#36979c" fill-rule="evenodd"/><path d="M347.57,166.19a1.45,1.45,0,1,1-1.45,1.45A1.451,1.451,0,0,1,347.57,166.19Z" fill="#de412c" fill-rule="evenodd"/><path d="M330.39,179.87c-5.63-5.17-8.76-7.17-15-11.15l-.61-.39.41-.65.61.39c6.28,4.01,9.44,6.02,15.11,11.23l-.52.57Z" fill="#3daab0" fill-rule="evenodd"/><path d="M314.62,166.19a1.45,1.45,0,1,1-1.45,1.45A1.451,1.451,0,0,1,314.62,166.19Z" fill="#f9462f" fill-rule="evenodd"/><path d="M341.46,221.31h0a1.206,1.206,0,0,1,1.65.36l5.23,8.18a1.206,1.206,0,0,1-.36,1.65h0a1.206,1.206,0,0,1-1.65-.36l-5.23-8.17a1.206,1.206,0,0,1,.36-1.65Z" fill="#11434a" fill-rule="evenodd"/><path d="M320.73,221.31h0a1.206,1.206,0,0,0-1.65.36l-5.23,8.18a1.206,1.206,0,0,0,.36,1.65h0a1.192,1.192,0,0,0,1.64-.36l5.23-8.17a1.206,1.206,0,0,0-.36-1.65Z" fill="#165861" fill-rule="evenodd"/><path d="M302.66,222.86l56.91-.05a2.367,2.367,0,0,0,2.26-2.47l-.03-39.01a2.372,2.372,0,0,0-2.27-2.46l-56.91.05a2.381,2.381,0,0,0-2.27,2.47l.03,39a2.379,2.379,0,0,0,2.27,2.46Z" fill="#1b6b76" fill-rule="evenodd"/><path d="M331.1,222.83l28.47-.02a2.367,2.367,0,0,0,2.26-2.47l-.03-39.01a2.372,2.372,0,0,0-2.27-2.46l-28.44.02v43.93Z" fill="#11434a" fill-rule="evenodd"/><rect width="46.87" height="32.81" transform="translate(304.77 184.46)" fill="#47c6cc"/><path d="M331.1,217.27l20.55-.02-.03-32.81-20.52.02Z" fill="#3daab0" fill-rule="evenodd"/><path d="M357.06,207.7a2.71,2.71,0,1,1-2.71,2.71A2.706,2.706,0,0,1,357.06,207.7Z" fill="#de412c" fill-rule="evenodd"/><rect width="2.15" height="2.28" transform="translate(354.31 190.23)" fill="#de412c"/><rect width="2.15" height="2.28" transform="translate(357.73 190.23)" fill="#de412c"/><rect width="2.15" height="2.28" transform="translate(354.31 195.05)" fill="#de412c"/><rect width="2.15" height="2.28" transform="translate(357.73 195.05)" fill="#de412c"/><rect width="2.15" height="2.28" transform="translate(354.31 200.17)" fill="#de412c"/><rect width="2.15" height="2.28" transform="translate(357.73 200.17)" fill="#de412c"/></g></svg>