<svg xmlns="http://www.w3.org/2000/svg" xmlns:xlink="http://www.w3.org/1999/xlink" width="64.699" height="64.699" viewBox="0 0 64.699 64.699"><defs><clipPath id="a"><rect width="64.699" height="64.699" fill="#1f6d4c"/></clipPath></defs><g clip-path="url(#a)"><path d="M1.348,0A1.348,1.348,0,0,0,0,1.348v62A1.348,1.348,0,0,0,1.348,64.7H51.22a1.348,1.348,0,0,0,1.348-1.348V43.133a1.348,1.348,0,0,0-2.7-.038V62H2.7V2.7H37.741V16.225a1.323,1.323,0,0,0,1.346,1.3H49.872V29.654a1.348,1.348,0,0,0,2.7.038V16.175a1.351,1.351,0,0,0-.305-.853L40.131.5A1.346,1.346,0,0,0,39.089,0ZM40.437,5.126l8.021,9.8H40.437Z" fill="#1f6d4c" fill-rule="evenodd"/><path d="M120.875,67.954a1.346,1.346,0,0,0-.934.392L99.961,88.325a1.344,1.344,0,0,0-.308.479L96.01,98.479a1.348,1.348,0,0,0,1.735,1.738l9.678-3.644a1.345,1.345,0,0,0,.477-.311l19.979-19.979a1.348,1.348,0,0,0,0-1.906l-6.031-6.031a1.346,1.346,0,0,0-.972-.392m.019,3.254,4.125,4.123L107.025,93.324,102.9,89.2Zm-19.41,20.387,3.148,3.146-5.049,1.9Z" transform="translate(-63.574 -45.037)" fill="#1f6d4c" fill-rule="evenodd"/><path d="M25.346,67.942a1.348,1.348,0,0,0-.038,2.7H54.963a1.348,1.348,0,0,0,.038-2.7H25.346Z" transform="translate(-15.892 -45.029)" fill="#1f6d4c" fill-rule="evenodd"/><path d="M25.346,115.9a1.348,1.348,0,0,0-.038,2.7H40.136a1.348,1.348,0,0,0,.038-2.7H25.346Z" transform="translate(-15.892 -76.816)" fill="#1f6d4c" fill-rule="evenodd"/><path d="M25.346,139.885a1.348,1.348,0,0,0-.038,2.7H40.136a1.348,1.348,0,0,0,.038-2.7H25.346Z" transform="translate(-15.892 -92.71)" fill="#1f6d4c" fill-rule="evenodd"/><path d="M25.346,91.923a1.348,1.348,0,0,0-.038,2.7H54.963a1.348,1.348,0,0,0,.038-2.7H25.346Z" transform="translate(-15.892 -60.922)" fill="#1f6d4c" fill-rule="evenodd"/></g></svg>