<svg xmlns="http://www.w3.org/2000/svg" width="65.028" height="48.062" viewBox="0 0 65.028 48.062"><g transform="translate(-63.232 -87.911)"><path d="M63.27,135.96l59.41-.03,5.58-26.05-59.41.03Z" fill="#e8d5bc" fill-rule="evenodd"/><rect width="59.4" height="47.99" transform="translate(63.232 87.984) rotate(-0.06)" fill="#fff6ea"/><rect width="29.72" height="47.99" transform="translate(92.912 87.942) rotate(-0.06)" fill="#f5e7d5"/><path d="M74.18,102.86h2.63V97.95l2.84,4.91h2.62V92.99H79.65v5.05l-2.82-5.05H74.18v9.87h0Zm9.08-2.16c0,2.07,1.77,2.24,2.65,2.22,0,0,2.89-.04,4.28-.23V100.5H86.72c-.39,0-.84.01-.84-.7v-.59l3.63-.12V96.92l-3.63-.15v-.59c0-.36,0-.76.7-.76h3.61v-2.2A42.917,42.917,0,0,0,85.77,93c-.95,0-2.51.26-2.51,2.3v5.42h0Zm7.46-7.71,2.8,9.87h3.16l.8-3.22.9,3.22h3.16l2.42-9.87H101.2l-1.23,6.66-1.38-4.61.5-2.05H96.33L95.1,99.65l-1.64-6.66H90.7Zm13.78,3.42a2.559,2.559,0,0,0,2.68,2.86h1.22c.59,0,.72.2.72.59v.22c0,.41-.22.55-.8.55-1.26,0-2.96-.09-3.5-.15v2.04c1.35.46,1.65.46,4.17.46,1.34,0,2.74-.51,2.74-3.03V99.5a2.558,2.558,0,0,0-2.53-2.86h-1.27c-.73,0-.81-.23-.81-.65v-.15c0-.57.27-.59,1-.59.89,0,2.38.04,3.24.14V93.35a9.834,9.834,0,0,0-4.19-.44,2.548,2.548,0,0,0-2.68,2.67v.82Z" fill="#1b6b76" fill-rule="evenodd"/><rect width="24.06" height="1.86" transform="translate(66.02 106.8)" fill="#1b6b76"/><rect width="24.06" height="1.86" transform="translate(66.02 112.84)" fill="#1b6b76"/><rect width="24.06" height="1.86" transform="translate(66.02 118.87)" fill="#1b6b76"/><rect width="24.06" height="1.86" transform="translate(66.02 124.91)" fill="#1b6b76"/><rect width="24.06" height="1.86" transform="translate(66.02 130.94)" fill="#1b6b76"/><path d="M95.95,106.8h23.94v13.93H95.95Z" fill="#165861" fill-rule="evenodd"/><rect width="23.94" height="1.86" transform="translate(95.95 124.91)" fill="#165861"/><rect width="23.94" height="1.86" transform="translate(95.95 130.94)" fill="#165861"/></g></svg>