<?xml version="1.0" encoding="UTF-8"?><svg id="Camada_1" xmlns="http://www.w3.org/2000/svg" viewBox="0 0 161.65 134.37"><defs><style>.cls-1{fill:#0071bc;}.cls-2{fill:#fff;}.cls-3{fill:#ffaaa8;}.cls-4{fill:#ff9090;}.cls-5{fill:#c76668;}.cls-6{fill:#1f6d4c;}.cls-7{fill:#375a64;}.cls-8{fill:#1a2e35;}.cls-9{fill:#2b454e;}</style></defs><g id="Character"><g><circle class="cls-2" cx="55.34" cy="79.03" r="53.94"/><path class="cls-6" d="M55.34,26.49C26.33,26.49,2.81,50.01,2.81,79.03s23.52,52.54,52.54,52.54,52.54-23.52,52.54-52.54S84.36,26.49,55.34,26.49m0-2.81c30.52,0,55.35,24.83,55.35,55.34s-24.83,55.35-55.35,55.35S0,109.55,0,79.03,24.83,23.68,55.34,23.68h0Z"/></g><g id="Character-2"><g><g><path class="cls-3" d="M96.02,79.87c4.76,4.22,24.2,20,24.2,20,2.66-5.4,5.75-12,8.35-17.7,3.44-7.48,4.88-16.26,5.26-19.59,.3-2.58,1.17-5.8,1.67-7.49,.93-3.15,.82-6.26,.68-7.77-.19-1.27,3.06-1.73,4.67,2.08,1.2,2.84,1.05,6.17,1.31,8.03,1.41-.79,3.47-2.35,6.56-4.01,3.09-1.66,7.82-5.29,10.25-1.88,.95,1.33-.07,2.75,.01,3.19,.08,.44,.57,.68,.87,1.02,1.13,1.25,1.49,3.14,.89,4.72-.14,.36-.32,.72-.3,1.1,.04,.77,.71,1.36,.96,2.05,.28,.8,.27,1.69,.1,2.51-.25,1.23-.8,2.38-1.06,3.6-.17,.81-.28,1.5-.57,2.27-.42,1.1-.9,2.54-3.07,3.8-2,1.16-4.07,2.4-6.98,4.05-2.29,1.3-3.37,5-4.77,11.08-3.86,14.23-4.15,23.43-7.64,31.16-4.53,10.03-11.35,8.61-24,1.52-15.54-8.72-26.76-14.72-26.76-14.72l-12.55-40.19c7.99,.54,17.14,6.96,21.9,11.18Z"/><path class="cls-9" d="M67.99,66.56c10.74,.44,12.96,2.38,19.21,6.4,6.25,4.01,24.38,19.96,24.38,19.96,0,0-2.5,13.66-13.68,22.99l-20.35-11.74-9.55-37.61Z"/><path class="cls-4" d="M146.12,57.67c-2.35,1.01-2.86,2.68-2.45,6.17,.25,2.07,.01,5.95-2.08,7.7,0,0,1.85-.36,2.81-1.56,.96-1.2,1.24-1.35,1.89-.79,.65,.56,1.64,.74,1.64,.74,0,0-1.19,1.54,.07,3.23,1.26,1.68,6.73,.34,10.5-2.11,0,0-6.87,3.55-8.57,1.65-1.7-1.9,2.07-5.71,4.55-6.66,0,0-6.7,3.01-7.85,1.06-1.16-1.95,1.87-4.65,5.45-5.95,0,0-5.67,2.35-6.73,.69-1.29-2.02,.15-3.4,.76-4.17Z"/></g><path class="cls-4" d="M120.22,99.86c-3.89,6.7-4.31,15.98-3.55,19.19,0,0-3.93-8.57,.81-21.41l2.74,2.22Z"/></g><path class="cls-1" d="M17.03,114.97c3.88,4.14,8.43,7.66,13.47,10.37,7.39,3.98,15.84,6.24,24.83,6.24,11.87,0,22.83-3.95,31.62-10.58-.28-12.32,.07-22.19-.41-27.1-1.99-20.76-7.71-26.38-18.33-27.38l-17.6-1.29c-5.13,1.29-23.84,7.53-28.82,10.56-3.5,2.12-4.68,10.03-4.9,22.9-.1,5.55-.07,10.61,.14,16.28Z"/><g><g><g><path class="cls-7" d="M82.99,17.7c-.49,.58-1.08,1.07-1.75,1.44,1.27-.02,2.39,1.03,2.75,2.25,.37,1.22,.12,2.54-.33,3.73-.61,1.62-1.64,3.1-2.96,4.21-1.44,1.21-3.2,1.64-4.84,2.48-1.17,.59-2.03,1.79-3.08,2.59-1.48,1.13-2.93,2.28-4.44,3.37-3,2.18-6.11,4.22-9.35,6.04-3.1,1.74-6.32,3.26-9.66,4.48-3.54,1.29-5.25,1.39-8.97,1.7l-.78,8.97s-1.24-2.37-2.66-5.19c-1.22-2.43-6.29-14.78-6.3-14.78-2-4.86-3.94-9.94-3.6-15.34,.28-4.36,1.61-7.61,4.95-9.43-.7-4.1,.43-8.08,3.98-10.76,2.38-1.8,5.81-2.83,8.74-3.23,3.52-.49,7.11-.14,10.59,.44,9.84,1.64,19.91,4.47,29.34-.31,.27,1.5-.14,3.03-.7,4.44-1.22,3.08-3.18,5.86-5.67,8.05l5.51-.67c.21-.03,.45-.05,.62,.09,.17,.13,.21,.37,.23,.58,.14,1.75-.49,3.52-1.63,4.85Z"/><path class="cls-3" d="M48.5,14.54c-.02,3.19-3.11,8.82-7.66,12.73,.47,3.58,.94,7.25,.19,10.78-.16,.76-.39,1.52-.83,2.16-.44,.64-1.13,1.14-1.9,1.19-1.04,.07-1.46-.57-1.78-1.38-.41-1.05-1.02-2.04-1.56-3.04-.26-.48-.57-.79-.92-1.17-1.57-1.47-6.25-3.29-8.46,1.69-2.28,5.15,1.82,12.02,5.59,13.09,6.5,1.85,7.94-2.56,7.94-2.56l-.25,21.51c1.79,5.48,11.85,10.84,20,9.84,8.14-1,5.59-5.94,2.3-9.28l.47-7.47s4.34,.55,8.67-.26c3.38-.63,6.83-3.4,8.26-8.54,2.73-9.79,1.73-24.08,.52-30.24-1.19-6.08-4.45-10.14-6.28-11.07,.06,1.32-1.04,4.49-7.61,5.36-6.97,.92-11.69-1.23-16.68-3.33Z"/></g><path class="cls-4" d="M61.62,62.61c-6.01-.58-11.79-2.04-14.27-3.29-4.94-2.49-5.39-7.79-5.94-9.33,0,0,0,8.09,4.17,11.2,5.17,3.85,15.84,4.48,15.84,4.48l.19-3.06Z"/></g><g><path class="cls-7" d="M55.52,26.58l-5.25,2.55c-.68-1.51-.05-3.3,1.4-4,1.45-.71,3.17-.06,3.85,1.45Z"/><g><path class="cls-5" d="M55.9,47.68l8.42,3.03c-.8,2.41-3.33,3.69-5.65,2.86-2.33-.84-3.57-3.47-2.77-5.88Z"/><path class="cls-4" d="M60.93,53.72c-.13-2.16-1.97-3.82-4.14-3.72-.35,.02-.69,.09-1.01,.19,.33,1.51,1.37,2.83,2.89,3.37,.76,.27,1.53,.3,2.26,.16Z"/></g><path class="cls-7" d="M76.6,28.37l-5.03-2.72c.71-1.38,2.41-1.89,3.8-1.14,1.39,.75,1.94,2.48,1.23,3.86Z"/><polygon class="cls-4" points="63.42 45.29 71.24 42.65 62.25 28.31 63.42 45.29"/><path class="cls-8" d="M70.98,33.52c.01,1.27,1.05,2.29,2.32,2.28,1.27-.01,2.29-1.05,2.28-2.32-.01-1.27-1.05-2.29-2.32-2.28-1.27,.01-2.29,1.05-2.28,2.32Z"/><path class="cls-8" d="M52.58,33.68c.01,1.27,1.05,2.29,2.32,2.28s2.29-1.05,2.28-2.32c-.01-1.27-1.05-2.29-2.32-2.28-1.27,.01-2.29,1.05-2.28,2.32Z"/></g></g><path class="cls-9" d="M6.2,97.63c2.46,6.49,6.17,12.36,10.83,17.33,3.88,4.14,8.43,7.66,13.47,10.37,1.18-5.35,3.36-15.35,4.03-19.09,.96-5.21,2.54-26.3-12.74-30.45-2.95,1.35-8.03,4.35-9.4,5.79-1.36,1.42-3.71,2.53-5.25,10.48-.27,1.42-.59,3.36-.94,5.58Z"/></g></g></svg>