<?xml version="1.0" encoding="UTF-8"?><svg id="Camada_1" xmlns="http://www.w3.org/2000/svg" xmlns:xlink="http://www.w3.org/1999/xlink" viewBox="0 0 82.17 113.38"><defs><style>.cls-1{fill:url(#linear-gradient);}.cls-1,.cls-2{opacity:.6;}.cls-3{fill:#ffc431;}.cls-4{fill:#684229;}.cls-5{fill:#a0a0a0;}.cls-6{fill:#916747;}.cls-7{fill:#bcbcbc;}.cls-8{fill:#bc9773;}.cls-9{fill:#dbd9d9;}.cls-10{fill:#afafaf;}.cls-11{fill:#966d59;}.cls-12{fill:#724d3f;}.cls-13,.cls-2{fill:#724a2d;}.cls-14{fill:#56362c;}.cls-15{fill:#5e3c25;}.cls-16{fill:url(#linear-gradient-3);}.cls-17{fill:url(#linear-gradient-4);}.cls-18{fill:url(#linear-gradient-2);}</style><linearGradient id="linear-gradient" x1="42.99" y1="92.44" x2="46.91" y2="134.43" gradientUnits="userSpaceOnUse"><stop offset=".03" stop-color="#c69e7f"/><stop offset=".14" stop-color="#b99f8c"/><stop offset=".31" stop-color="#aca199"/><stop offset=".54" stop-color="#a5a2a0"/><stop offset="1" stop-color="#a3a3a3"/></linearGradient><linearGradient id="linear-gradient-2" x1="35.42" y1="22.32" x2="34.25" y2="2.97" gradientTransform="translate(-2.65 5.83) rotate(1.14)" gradientUnits="userSpaceOnUse"><stop offset="0" stop-color="#875f3c"/><stop offset=".25" stop-color="#8b6340"/><stop offset=".52" stop-color="#97704c"/><stop offset=".79" stop-color="#ab8561"/><stop offset=".97" stop-color="#bc9773"/></linearGradient><linearGradient id="linear-gradient-3" x1="48.91" y1="17.93" x2="43.08" y2="3.09" gradientTransform="translate(-2.65 5.83) rotate(1.14)" gradientUnits="userSpaceOnUse"><stop offset="0" stop-color="#875f3c"/><stop offset=".47" stop-color="#88603d"/><stop offset=".65" stop-color="#8f6744"/><stop offset=".78" stop-color="#9a7450"/><stop offset=".89" stop-color="#ab8561"/><stop offset=".97" stop-color="#bc9773"/></linearGradient><linearGradient id="linear-gradient-4" x1="51.17" y1="70.57" x2="40.99" y2="35.21" gradientUnits="userSpaceOnUse"><stop offset="0" stop-color="#875f3c"/><stop offset=".29" stop-color="#8a623f"/><stop offset=".53" stop-color="#936c49"/><stop offset=".75" stop-color="#a47d5a"/><stop offset=".96" stop-color="#ba9571"/><stop offset=".97" stop-color="#bc9773"/></linearGradient></defs><g id="Shadow"><path id="Shadow-2" class="cls-1" d="M4.92,91.89s5.87,5.98,35.52,15.4c57.69,18.34,42.56-9.19,30.48-23.54-9.88-1.57-29.89-8.55-37.37-5.92-8.2,2.88-28.63,14.07-28.63,14.07Z"/></g><g id="Church"><path class="cls-18" d="M24.32,22.29l13.9-12.68s.49,3.71,1.06,8.95c.56,5.11,.68,8.07,.68,8.07,0,0-3.82-.94-7.93-2.1-4.75-1.33-7.71-2.24-7.71-2.24Z"/><polygon class="cls-16" points="38.22 9.61 51.54 22.04 39.96 26.63 38.22 9.61"/><polygon class="cls-13" points="41.18 3.03 39.45 3.03 39.45 0 36.87 0 36.87 3.03 35.07 3.03 35.07 5.58 36.87 5.58 36.87 10.84 38.34 11.29 39.45 10.79 39.45 5.58 41.18 5.58 41.18 3.03"/><polygon class="cls-6" points="5.79 69.22 1.31 69.13 17.49 44.51 20.27 46.87 5.79 69.22"/><polygon class="cls-9" points="4.92 91.89 4.92 69.3 19.67 45.79 36.88 76.68 38.26 76.7 38.26 102.03 4.92 91.89"/><path class="cls-10" d="M19.67,45.79l-14.75,23.51c1.01-.54,14.77-16.61,14.77-16.61l17.2,23.98-17.21-30.89Z"/><polygon class="cls-7" points="38.26 102.03 70.92 83.75 70.92 59.01 38.26 76.7 38.26 102.03"/><polygon class="cls-17" points="17.48 41.55 51.18 31.01 73.08 58.65 39.35 76.91 17.48 41.55"/><polygon class="cls-13" points="1.31 69.13 0 68.2 17.49 41.55 39.37 76.91 38.26 79.29 17.49 44.92 1.31 69.13"/><polygon class="cls-7" points="39.39 45.84 49.43 40.62 49.43 24.97 39.39 29.09 39.39 45.84"/><polygon class="cls-5" points="49.43 25.23 49.43 24.97 39.39 29.09 39.39 30.71 49.43 25.23"/><g><path class="cls-3" d="M17.04,71.73v-5.91c0-5.84,6.45-5.12,6.45,.41v7.27l-6.45-1.77Z"/><path class="cls-13" d="M19.8,61.76c-1.47,.09-2.75,1.38-2.75,4.06v5.91l1.15,.32,.52,.14v-7.19c.08-3.03,1.08-3.24,1.08-3.24Z"/><polygon class="cls-6" points="17.04 71.73 18.72 71.09 23.5 72.37 23.5 73.66 17.04 71.73"/></g><g><path class="cls-8" d="M15.36,94.2s.1-9.69,.05-11.23c-.27-5.39,8.78-4.05,9.06,1.72,.08,1.64-.03,12.21-.03,12.21l-9.08-2.7Z"/><path class="cls-13" d="M17.11,94.7v-11.63c-.01-1.95,1.06-3.08,2.43-3.45-2.19-.29-4.26,.73-4.14,3.35l-.08,11.23,2.83,.83-1.05-.33Z"/><polygon class="cls-12" points="20.7 94.27 20.32 94.15 20.32 79.77 20.7 79.89 20.7 94.27"/><path class="cls-14" d="M19.94,87.52c0,.19-.14,.35-.33,.36-.19,0-.35-.14-.36-.33,0-.19,.14-.35,.33-.36,.19,0,.35,.14,.36,.33Z"/><path class="cls-14" d="M22.09,87.88c0,.19-.14,.35-.33,.36-.19,0-.35-.14-.36-.33,0-.19,.14-.35,.33-.36,.19,0,.35,.14,.36,.33Z"/><path class="cls-12" d="M21.96,87.88c0,.19-.14,.35-.33,.36-.19,0-.35-.14-.36-.33,0-.19,.14-.35,.33-.36,.19,0,.35,.14,.36,.33Z"/><path class="cls-12" d="M19.78,87.53c0,.19-.14,.35-.33,.36-.19,0-.35-.14-.36-.33,0-.19,.14-.35,.33-.36,.19,0,.35,.14,.36,.33Z"/><polygon class="cls-6" points="15.33 94.2 17.11 93.23 24.44 95.14 24.44 96.9 15.33 94.2"/></g><g><path class="cls-3" d="M52.63,86.75v-6.44c0-4.12-5.11-2.22-5.07,1.65l.03,7.49,5.03-2.7Z"/><path class="cls-13" d="M50,78.17c.68,.3,1.19,1.07,1.19,2.24l-.02,6.61,1.46-.28v-6.44c0-2.1-1.33-2.63-2.63-2.14Z"/><polygon class="cls-6" points="52.63 86.75 51.18 86.16 47.59 88.07 47.6 89.45 52.63 86.75"/></g><g><path class="cls-3" d="M64.93,80.61v-5.68c0-3.63-4.51-1.95-4.47,1.45l.03,6.6,4.44-2.38Z"/><path class="cls-13" d="M62.62,73.05c.6,.27,1.05,.94,1.17,1.98v5.83s1.15-.25,1.15-.25v-5.68c0-1.85-1.17-2.32-2.32-1.88Z"/><polygon class="cls-6" points="64.93 80.61 63.77 80.09 60.49 81.78 60.49 82.99 64.93 80.61"/></g><polygon class="cls-9" points="26.17 24.93 26.17 38.83 31.15 37.28 39.39 45.84 39.39 29.09 26.17 24.93"/><path class="cls-13" d="M26.17,24.93l-1.85-2.64,15.64,4.34s-.21,1.19-.26,1.4c-.12,.44-.31,1.06-.31,1.06l-13.22-4.16Z"/><g><path class="cls-3" d="M30.7,35.09v-3.18c0-3.45,3.81-3.02,3.81,.24v4.29l-3.81-1.35Z"/><path class="cls-13" d="M32.32,29.51c-.87,.05-1.63,.82-1.63,2.4v3.18l.68,.19,.31,.08v-3.94c.05-1.79,.64-1.91,.64-1.91Z"/><polygon class="cls-11" points="30.7 35.09 31.68 34.71 34.51 35.64 34.51 36.44 30.7 35.09"/></g><polygon class="cls-15" points="38.26 79.29 39.37 76.91 73.09 58.65 71.97 61 38.26 79.29"/><polygon class="cls-4" points="49.43 24.97 39.39 29.09 39.96 26.63 51.54 22.04 49.43 24.97"/><polygon class="cls-10" points="39.39 29.09 39.39 29.09 26.17 24.93 26.17 25.18 39.39 30.71 39.39 29.09"/><polygon class="cls-2" points="31.15 37.28 31.15 37.28 31.11 37.29 39.27 47.49 39.39 45.84 31.15 37.28"/><polygon class="cls-2" points="39.27 47.49 39.39 45.84 49.43 40.62 49.43 40.62 39.27 47.49"/></g></svg>