<?xml version="1.0" encoding="UTF-8"?><svg id="Camada_1" xmlns="http://www.w3.org/2000/svg" viewBox="0 0 110.69 127.83"><defs><style>.cls-1{fill:#fff;}.cls-2{fill:#ff9090;}.cls-3{fill:#b0494c;}.cls-4{fill:#c76668;}.cls-5{fill:#1f6d4c;}.cls-6{fill:#1a2e35;}.cls-7{fill:#2b454e;}</style></defs><g id="Character"><g><circle class="cls-1" cx="55.35" cy="72.48" r="53.94"/><path class="cls-5" d="M55.34,19.95c29.01,0,52.54,23.52,52.54,52.54s-23.52,52.54-52.54,52.54S2.81,101.5,2.81,72.49,26.33,19.95,55.34,19.95m0-2.81C24.83,17.14,0,41.97,0,72.49s24.83,55.34,55.34,55.34,55.35-24.83,55.35-55.34S85.86,17.14,55.34,17.14h0Z"/></g><g id="Character-2"><g id="Top"><path class="cls-6" d="M103.36,93.84c-3.53,7.94-8.96,14.82-15.73,20.09-.74,.59-1.5,1.15-2.28,1.69-.83-1.04-1.29-1.64-1.29-1.64l-6.39-41.55c6.53,1.38,9.71,2.09,13.89,6.08,2.54,2.42,7.05,8.51,11.8,15.34Z"/><g id="Top-2"><path class="cls-7" d="M87.62,113.92c-.74,.59-1.5,1.15-2.28,1.69-8.51,5.93-18.85,9.41-30,9.41-12.09,0-23.23-4.09-32.11-10.96-.56-.44-1.11-.87-1.66-1.33-2.28-1.91-4.4-4.02-6.31-6.29,.11-5.45,.45-9.86,1.01-14.05,.97-7.25,1.14-11.48,1.15-13.3,0-.74-.01-1.1-.01-1.1l25.94-9.79,21.15,1.52,13.15,2.7c4.45,3.81,7.61,10.9,8.95,23.58,.49,4.55,.79,10.91,1.01,17.92Z"/><g id="Head"><g><g><g><path class="cls-7" d="M35.13,11.9s-4.5,.54-6.56,6.09c-1.51,4.08-.05,11.55,1.84,20.52,1.89,8.98,3.13,12.84,4.34,15.34,1.21,2.51,3.83,3.29,3.83,3.29l.1-10.57-.13-7.37s4.95-6.29,5.65-11.56c.9-6.78-.44-9.62-.44-9.62l-8.64-6.12Z"/><path class="cls-7" d="M35.13,11.9C36.38,6,44.81-1.05,56.68,.13c11.87,1.18,17.74,4.68,21.64,11.77,3.9,7.09,.87,12.17,.87,12.17l-35.76-1.42-8.3-10.75Z"/><path class="cls-4" d="M29.5,49.18c3.83,2.65,7.45-1.24,7.45-1.24l.83,21.84s-.51,4.19,6.05,8.11c9.31,5.57,14.62,4.04,18.5,9.78,4.38-8.02,6.01-13.72-1.01-19l.02-4.98s4.74,.58,7.67,.22c4.87-.59,8.05-4.33,9.68-9.53,2.62-8.36,2.67-23.11-1.19-38.24-6.24-5.09-22.09-4.96-33.74,1.88,.22,9.66-2.6,13.86-2.7,17.37-.78,1.36-1.57,2.15-2.18,2.64-1.83,1.48-3.14-2.55-4.57-4.16-1.45-1.6-6.24-3.88-8.83,1.15-2.62,5.13,.72,11.88,4.03,14.16Z"/></g><g><path class="cls-6" d="M55.68,28.42l-5.06,2.9c-.78-1.45-.28-3.28,1.12-4.09,1.4-.8,3.16-.27,3.94,1.18Z"/><path class="cls-6" d="M76.38,28.76l-5.59-1.84c.45-1.57,2.07-2.44,3.61-1.93,1.54,.51,2.43,2.19,1.97,3.77Z"/><path class="cls-6" d="M52.97,34.32c0,1.31,1.06,2.38,2.38,2.38s2.38-1.06,2.38-2.38-1.06-2.38-2.38-2.38-2.38,1.06-2.38,2.38Z"/><circle class="cls-6" cx="72.89" cy="33.23" r="2.38"/><path class="cls-3" d="M62.34,28.24l1.63,14.43,8.52-1.9c-2.54-5.88-6.35-10.06-10.15-12.53Z"/></g></g><path class="cls-7" d="M40.96,34.13c.66,10.36,4.05,11.72,7.74,12.26,4.89,.72,9.42-1.61,16.17-2.16,5.28-.43,7.22,1.64,10.24,2.83,2.24,.88,4.01,.84,4.55-1.69,.6-2.82,.86-10.43,.49-13.99,.53,3.31,1.08,13.95,.43,18.82-.64,4.89-1.86,9.47-4.52,11.79-3.68,3.22-11.54,3.82-21.33,1.82-9.65-1.97-13.45-5.18-14.68-8.61-3.99-11.12-2.57-16.43-3.89-18.53-1.31-2.09,4.79-2.57,4.79-2.57Z"/><path class="cls-3" d="M59.14,47.85l6.48,1.67c-.42,1.85-2.22,2.98-4.01,2.52-1.79-.46-2.89-2.33-2.47-4.19Z"/><path class="cls-2" d="M59.89,48.95c-.28-.04-.55-.04-.81-.02,.11,1.45,1.1,2.74,2.53,3.11,.36,.09,.72,.11,1.07,.08,.16-1.5-1.06-2.9-2.79-3.16Z"/></g><g><path class="cls-6" d="M62.34,87.67c-1.98-2.39-8.51-5.84-11.51-2.62-2.99,3.22-2.09,5.82-4.16,5.63-2.83-.26-8.58-5.44-11.48-8.59-2.9-3.15-5.43-8.75-5.43-8.75,0,0,2.6-1.65,4.23-3.96,1.58-2.25,1.86-4.45,3.6-4.59l.19,4.99s1.13,2.48,6.08,5.82c4.95,3.34,14.87,4.33,18.47,12.07Z"/><path class="cls-6" d="M62.34,87.67c1.62-1.5,3.85-5.27,6.53-4.52,2.67,.75,4.09,5.5,4.16,4.07,.07-1.43-2.48-9.77-4.52-12.78-2.04-3.02-5.38-8.21-7.17-8.5v3.97s4.34,6.77,3.98,9.19c-.35,2.42-2.66,6.24-2.98,8.59Z"/></g></g></g></g><g id="Arm"><path class="cls-4" d="M21.58,112.73c-2.28-1.91-4.4-4.02-6.31-6.29-5.24-6.17-9.07-13.55-11-21.66,2.8-2.11,6.85-3.85,13.04-5.87,0,0,.04,.06,.13,.18,.69,1.07,4.2,6.87,5.32,16.39,.79,6.64-.28,13.26-1.18,17.25Z"/><path class="cls-6" d="M23.78,111.37l-.55,2.7c-2.92-2.25-5.59-4.8-7.96-7.63-5.34-6.28-9.21-13.82-11.11-22.11,4.23-3.13,9.85-5.06,13.26-6.33,9.64,9.78,6.36,33.37,6.36,33.37Z"/></g></g></g></svg>