<?xml version="1.0" encoding="UTF-8"?><svg id="Camada_1" xmlns="http://www.w3.org/2000/svg" viewBox="0 0 103.12 100.64"><defs><style>.cls-1{fill:#fff;}.cls-2{fill:#bababa;}.cls-3{fill:#1a2e35;}.cls-4{fill:#5ae4a7;}.cls-5{opacity:.4;}.cls-6{opacity:.8;}</style></defs><g><path class="cls-4" d="M89.6,36.88c-.58-1.85-1.31-3.66-2.24-5.41-4.73-8.79-13.02-15.41-22.08-19.33-7.2-3.11-16.1-4.73-23.74-1.93-3.86,1.42-7.5,4.13-9.57,7.74-2.7,4.72-2.44,10.57-4.59,15.52-1.74,4.02-6.06,6.43-9.44,8.9-5.28,3.85-10.48,8.4-12.31,14.91-2.44,8.69-1.72,19.02,3.23,26.74,3.69,5.76,10.01,7.49,16.54,7.61,6.16,.11,13.68-1.44,19.43,1.36,9.79,4.78,22.7,10.15,33.66,6.36,11.29-3.9,16.83-11.49,18.47-21.34,1.64-9.85-2.87-18.06-4.31-25.86-.91-4.92-1.5-10.37-3.04-15.27Z"/><g class="cls-6"><path class="cls-1" d="M89.6,36.88c-.58-1.85-1.31-3.66-2.24-5.41-4.73-8.79-13.02-15.41-22.08-19.33-7.2-3.11-16.1-4.73-23.74-1.93-3.86,1.42-7.5,4.13-9.57,7.74-2.7,4.72-2.44,10.57-4.59,15.52-1.74,4.02-6.06,6.43-9.44,8.9-5.28,3.85-10.48,8.4-12.31,14.91-2.44,8.69-1.72,19.02,3.23,26.74,3.69,5.76,10.01,7.49,16.54,7.61,6.16,.11,13.68-1.44,19.43,1.36,9.79,4.78,22.7,10.15,33.66,6.36,11.29-3.9,16.83-11.49,18.47-21.34,1.64-9.85-2.87-18.06-4.31-25.86-.91-4.92-1.5-10.37-3.04-15.27Z"/></g></g><g><path class="cls-2" d="M7.25,66.46c-.06-.63-.07-1.21-.08-1.72,0-.29,0-.55,0-.8,.22-.18,1.12-.93,1.37-1.44,.24-.49,.42-1.19,.15-1.72-.26-.52-.9-.77-1.4-.45-.7,.44-.76,1.94-.57,2.66,.02,.06,.38,1.01,.39,1,0,0,.01,0,.01-.01-.01,.24-.02,.49-.02,.77,0,.51,0,1.09,.04,1.72,0,.11,.02,.21,.02,.32,.08,.12,.12,.19,.12,.19-.02-.17-.04-.35-.06-.52Z"/><path class="cls-2" d="M4.99,64.87c-.94,.15-1.06,1.04-.19,1.6,.75,.48,2.02,.51,2.39,.51,0-.07-.01-.13-.02-.19-.36-.54-1.42-2.05-2.19-1.92Z"/><path class="cls-2" d="M23.75,60.72c-.83-.03-1.71,1.18-1.95,1.88-.02,.06-.24,1.05-.22,1.04,0,0,.01,0,.02,0-.14,.19-.29,.39-.44,.62-.29,.42-.61,.9-.92,1.44-.04,.06-.07,.13-.11,.19-.02,.15-.03,.24-.03,.24,0,0-.03-.02-.07-.06-.25,.44-.49,.92-.71,1.43-.29,.66-.55,1.38-.73,2.15,0,0,0,.02,0,.03-.02-.24-.09-.92-.1-.97-.16-.73-.9-2.05-1.73-2.14-.6-.06-1.05,.43-1.05,1.01,0,.59,.48,1.14,.93,1.48,.5,.38,1.83,.69,1.94,.71-.16,.74-.27,1.51-.34,2.3-.04,.45-.06,.9-.08,1.36-.02-.21-.04-.4-.05-.42-.16-.73-.9-2.05-1.73-2.14-.6-.06-1.05,.43-1.05,1.01,0,.59,.48,1.14,.93,1.48,.45,.34,1.58,.63,1.88,.7,0,.18-.01,.35-.02,.53-.02,.84-.04,1.68-.09,2.5-.02,.29-.04,.57-.07,.86-.02-.19-.04-.34-.04-.37-.16-.73-.9-2.05-1.73-2.14-.6-.06-1.05,.43-1.05,1.01,0,.59,.48,1.14,.93,1.48,.43,.33,1.47,.6,1.82,.68-.02,.2-.05,.4-.08,.6,.13,.04,.25,.07,.39,.09,.05-.38,.09-.76,.12-1.15,.31,.09,1.41,.38,1.96,.3,.55-.08,1.22-.33,1.5-.85,.27-.5,.1-1.17-.46-1.4-.77-.33-2.03,.48-2.51,1.04-.03,.04-.33,.48-.48,.72,.02-.28,.04-.57,.05-.85,.03-.83,.03-1.67,.03-2.51,0-.26,0-.51,0-.77,.11,.03,1.41,.41,2.03,.32,.55-.08,1.22-.33,1.5-.85,.27-.5,.1-1.17-.46-1.4-.77-.33-2.03,.48-2.51,1.04-.04,.04-.46,.68-.56,.85,0-.57,.02-1.13,.06-1.68,.05-.76,.14-1.51,.28-2.23,.05,.02,1.41,.41,2.04,.32,.55-.08,1.22-.33,1.5-.85,.27-.5,.1-1.17-.46-1.4-.77-.33-2.03,.48-2.51,1.04-.04,.04-.49,.73-.57,.86,0-.04,.01-.09,.02-.13,.16-.76,.41-1.48,.68-2.14,.15-.38,.32-.74,.5-1.09,.25,.1,1.38,.54,1.95,.52,.55-.02,1.25-.2,1.58-.68,.32-.47,.22-1.15-.3-1.44-.73-.41-2.07,.25-2.61,.75-.03,.03-.29,.34-.48,.57,.08-.15,.16-.31,.24-.46,.3-.55,.61-1.03,.88-1.46,.16-.24,.31-.46,.45-.66,.29-.03,1.46-.15,1.95-.43,.48-.27,1.01-.75,1.08-1.34,.07-.57-.33-1.13-.93-1.15Z"/><path class="cls-2" d="M12.32,78.65c.06,.11,.11,.22,.17,.34,.13-.04,.25-.08,.37-.12-.14-.28-.29-.56-.44-.84,.3-.1,1.37-.46,1.78-.83,.41-.37,.82-.96,.77-1.54-.06-.57-.56-1.04-1.15-.93-.82,.15-1.41,1.52-1.49,2.26,0,.05,0,.58,0,.88-.14-.25-.28-.5-.43-.75-.44-.72-.9-1.43-1.36-2.14-.14-.22-.28-.44-.42-.65,.11-.03,1.39-.44,1.85-.85,.41-.37,.82-.96,.77-1.54-.06-.57-.56-1.04-1.15-.93-.82,.15-1.41,1.52-1.49,2.26,0,.06,0,.83,0,1.02-.31-.48-.6-.96-.88-1.45-.38-.67-.72-1.35-1-2.03,.05-.02,1.39-.43,1.86-.86,.41-.37,.82-.96,.77-1.54-.06-.57-.56-1.04-1.15-.93-.82,.15-1.41,1.52-1.49,2.26,0,.06,0,.89,0,1.04-.02-.04-.04-.08-.05-.12-.29-.73-.48-1.47-.62-2.18-.08-.41-.14-.8-.19-1.19,.26-.05,1.44-.3,1.9-.64,.45-.32,.92-.86,.93-1.45,0-.58-.45-1.09-1.04-1.05-.83,.06-1.57,1.35-1.74,2.08,0,.04-.06,.45-.08,.75,0,0-.04,0-.11,0,.04,.48,.1,.99,.19,1.51,.13,.72,.3,1.47,.58,2.22,0,0,0,.02,.01,.03-.15-.2-.58-.73-.62-.77-.54-.52-1.87-1.23-2.61-.85-.53,.28-.63,.95-.31,1.43,.33,.49,1.03,.7,1.58,.73,.63,.04,1.89-.43,1.99-.47,.27,.71,.61,1.42,.99,2.12,.22,.4,.45,.8,.68,1.19-.13-.16-.26-.31-.27-.33-.54-.52-1.87-1.23-2.61-.85-.53,.28-.63,.95-.31,1.43,.33,.49,1.03,.7,1.58,.73,.56,.04,1.65-.34,1.93-.45,.09,.15,.18,.3,.27,.45,.44,.72,.89,1.44,1.31,2.16,.15,.25,.28,.51,.42,.76-.12-.15-.22-.27-.24-.29-.54-.52-1.87-1.23-2.61-.85-.53,.28-.63,.95-.31,1.43,.33,.49,1.03,.7,1.58,.73,.54,.04,1.54-.31,1.88-.43Z"/><path class="cls-2" d="M19.64,63.04c-.83-.48-1.48,.13-1.16,1.13,.28,.85,1.26,1.69,1.54,1.91,.03-.06,.07-.12,.1-.18,.07-.66,.19-2.47-.49-2.86Z"/></g><g><path class="cls-2" d="M69.74,97.5c-.92,.02-1.8,1.41-2.02,2.2-.01,.04-.08,.47-.13,.8,.43,.04,.86,.07,1.3,.09,.33-.09,.65-.2,.85-.34,.51-.33,1.06-.9,1.1-1.55,.04-.64-.43-1.23-1.09-1.21Z"/><path class="cls-2" d="M61.83,85.21c-1.06,0-1.34,.95-.48,1.72,.73,.65,2.11,.91,2.52,.97,0-.07,.01-.14,.02-.21-.29-.66-1.19-2.48-2.05-2.48Z"/><path class="cls-2" d="M78.83,97.35c.38-.5,.31-1.25-.26-1.61-.78-.49-2.3,.16-2.91,.7-.05,.04-.62,.66-.76,.83,.11-.62,.22-1.23,.36-1.83,.19-.83,.41-1.63,.69-2.38,.05,.03,1.47,.7,2.17,.71,.61,0,1.39-.15,1.78-.67,.38-.5,.31-1.25-.26-1.61-.78-.49-2.3,.16-2.91,.7-.05,.04-.67,.71-.77,.84,.02-.04,.03-.09,.05-.14,.31-.8,.71-1.54,1.11-2.22,.24-.39,.48-.75,.73-1.1,.25,.15,1.41,.83,2.04,.91,.61,.08,1.4,0,1.84-.46,.43-.46,.44-1.21-.08-1.62-.73-.57-2.3-.09-2.98,.37-.04,.02-.38,.32-.63,.54,.11-.15,.23-.32,.34-.46,.42-.55,.84-1.02,1.22-1.44,.22-.24,.42-.44,.6-.64,.32,.02,1.62,.09,2.2-.13,.57-.21,1.23-.65,1.41-1.27,.17-.61-.16-1.29-.81-1.41-.9-.17-2.07,.99-2.45,1.71-.03,.06-.44,1.1-.42,1.1,0,0,.02,0,.02,0-.19,.18-.38,.38-.59,.6-.39,.41-.82,.88-1.25,1.41-.05,.06-.1,.13-.15,.19-.04,.16-.07,.26-.07,.26,0,0-.03-.03-.07-.08-.35,.44-.7,.92-1.03,1.44-.43,.67-.84,1.41-1.18,2.22,0,0,0,.02-.01,.03,.02-.27,.06-1.02,.06-1.08-.05-.82-.63-2.39-1.51-2.63-.64-.17-1.22,.29-1.32,.92-.1,.64,.33,1.33,.75,1.77,.48,.5,1.88,1.07,1.99,1.11-.31,.78-.56,1.6-.77,2.45-.12,.48-.23,.98-.33,1.47,.01-.23,.02-.44,.02-.47-.05-.82-.63-2.39-1.51-2.63-.64-.17-1.22,.29-1.32,.92-.1,.64,.33,1.33,.75,1.77,.43,.45,1.61,.96,1.93,1.09-.04,.19-.08,.38-.11,.57-.15,.78-.29,1.56-.45,2.32,.13-.02,.26-.03,.39-.05,.13-.73,.26-1.47,.38-2.21,.05-.28,.1-.56,.14-.84,.11,.05,1.47,.69,2.16,.7,.61,0,1.39-.15,1.78-.67Z"/><path class="cls-2" d="M78.13,85.76c-.82-.66-1.64-.11-1.46,1.03,.16,.98,1.08,2.06,1.35,2.36,.05-.06,.1-.12,.14-.18,.19-.71,.64-2.66-.03-3.2Z"/><path class="cls-2" d="M64.02,87.34c.05-.69,.14-1.33,.22-1.89,.05-.32,.1-.6,.15-.87,.28-.16,1.39-.82,1.75-1.33,.35-.5,.66-1.23,.47-1.85-.19-.61-.84-.99-1.45-.74-.84,.35-1.17,1.98-1.09,2.8,0,.07,.24,1.17,.26,1.16,0,0,.01,0,.02,0-.05,.26-.11,.53-.16,.83-.09,.56-.19,1.19-.26,1.89-.01,.12-.02,.24-.03,.36,.06,.14,.1,.23,.1,.23,.01-.19,.02-.39,.03-.58Z"/><path class="cls-2" d="M64.29,99.08c-.4,.13-.63,.47-.68,.85,1.12,.22,2.25,.4,3.37,.52-.5-.67-1.82-1.65-2.68-1.36Z"/><path class="cls-2" d="M72.18,98.69c-.64-.17-1.22,.29-1.32,.92-.05,.34,.05,.7,.22,1.03,.82-.02,1.64-.07,2.45-.16-.24-.77-.71-1.61-1.34-1.78Z"/><path class="cls-2" d="M67.23,99.77c-.35-.86-.73-1.71-1.11-2.57-.12-.26-.23-.52-.34-.79,.12-.02,1.59-.23,2.17-.61,.51-.33,1.06-.9,1.1-1.55,.04-.64-.43-1.23-1.09-1.21-.92,.02-1.8,1.41-2.02,2.2-.02,.06-.15,.9-.17,1.12-.25-.58-.49-1.16-.71-1.74-.3-.8-.55-1.6-.74-2.39,.06,0,1.59-.23,2.18-.61,.51-.33,1.06-.9,1.1-1.55,.04-.64-.43-1.23-1.09-1.21-.92,.02-1.8,1.41-2.02,2.2-.02,.06-.16,.97-.18,1.14-.01-.05-.03-.09-.04-.14-.19-.85-.26-1.69-.3-2.48-.02-.46-.01-.9,0-1.33,.29-.01,1.62-.08,2.19-.36,.54-.27,1.16-.78,1.27-1.42,.11-.63-.3-1.27-.96-1.32-.91-.08-1.95,1.2-2.26,1.96-.02,.04-.14,.48-.22,.8,0,0-.05,0-.12-.02-.04,.53-.06,1.1-.05,1.69,.02,.81,.07,1.65,.25,2.52,0,0,0,.02,0,.03-.13-.24-.51-.9-.54-.94-.49-.67-1.83-1.67-2.7-1.38-.62,.21-.85,.92-.58,1.5,.27,.59,1,.94,1.6,1.08,.67,.16,2.14-.14,2.25-.16,.17,.82,.41,1.66,.71,2.49,.17,.47,.35,.95,.54,1.42-.12-.2-.22-.38-.24-.41-.49-.67-1.83-1.67-2.7-1.38-.62,.21-.85,.92-.58,1.5,.27,.59,1,.94,1.6,1.08,.61,.14,1.86-.09,2.19-.15,.07,.18,.15,.36,.22,.54,.36,.86,.72,1.73,1.05,2.58,.07,.18,.14,.36,.2,.55,.15,.02,.29,.03,.44,.04-.09-.24-.18-.48-.28-.73Z"/></g><g><path d="M67.84,32.54l-1.12-.1-.16-.94,.21-.04,.13,.78,.79,.07,.28-.8h.07c.3-.03,.61-.1,.89-.2l.07-.02,.59,.6,.68-.39-.22-.81,.05-.04c.23-.2,.44-.43,.62-.68l.04-.06,.83,.15,.33-.72-.65-.54,.02-.07c.08-.29,.11-.6,.12-.91v-.07s.77-.35,.77-.35l-.14-.78-.85-.07-.02-.06c-.11-.28-.25-.55-.42-.8l-.04-.06,.44-.74-.56-.56-.75,.44-.06-.04c-.43-.29-.9-.48-1.41-.58h-.07s-.22-.87-.22-.87h-.79l-.22,.86h-.07c-.29,.07-.57,.16-.84,.28l-.06,.03-.67-.58-.65,.45,.32,.83-.05,.05c-.21,.21-.39,.44-.53,.69l-.04,.06-.89-.09-.27,.74,.73,.5v.07c-.05,.21-.06,.41-.06,.62,0,.09,0,.18,.01,.26v.07s-.77,.43-.77,.43l.2,.76h.88s.03,.05,.03,.05c.13,.27,.29,.52,.47,.75l.04,.05-.38,.78,.61,.51,.64-.46,.13,.18-.78,.56-.86-.72,.39-.81c-.17-.21-.31-.44-.43-.68h-.9s-.29-1.08-.29-1.08l.8-.45c0-.07,0-.14,0-.21,0-.19,.01-.39,.04-.59l-.76-.52,.39-1.06,.92,.09c.14-.22,.3-.43,.48-.62l-.33-.86,.92-.65,.7,.6c.24-.11,.5-.19,.75-.24l.22-.89h1.13l.22,.88c.49,.1,.95,.29,1.37,.56l.77-.46,.8,.8-.45,.77c.15,.23,.28,.47,.38,.72l.88,.07,.2,1.11-.8,.36c0,.28-.04,.55-.1,.82l.67,.56-.48,1.02-.86-.16c-.17,.22-.35,.43-.56,.61l.23,.84-.98,.56-.61-.62c-.26,.09-.53,.15-.81,.18l-.29,.83Zm-.13-2.22c-1.38,0-2.5-1.12-2.5-2.5s1.12-2.5,2.5-2.5c.12,0,.24,0,.36,.03l-.03,.22c-.11-.02-.22-.02-.33-.02-1.26,0-2.28,1.02-2.28,2.28s1.02,2.28,2.28,2.28,2.28-1.02,2.28-2.28c0-.39-.1-.78-.29-1.12l.19-.11c.21,.37,.32,.8,.32,1.23,0,1.38-1.12,2.5-2.5,2.5Zm1.58-4.15c-.14-.14-.31-.26-.48-.36l.1-.19c.19,.11,.37,.24,.53,.39l-.15,.16Z"/><path d="M70.1,81.46l-1.12-.1-.16-.94,.21-.04,.13,.78,.79,.07,.28-.8h.07c.31-.03,.61-.1,.89-.2l.07-.02,.59,.6,.68-.4-.22-.81,.05-.04c.23-.2,.44-.43,.62-.68l.04-.06,.83,.15,.33-.72-.65-.54,.02-.07c.08-.29,.11-.6,.12-.91v-.07s.77-.35,.77-.35l-.14-.78-.85-.07-.02-.06c-.11-.28-.25-.55-.42-.8l-.04-.06,.44-.74-.56-.56-.75,.44-.06-.04c-.43-.29-.9-.48-1.41-.58h-.07s-.22-.87-.22-.87h-.79l-.22,.86h-.07c-.29,.07-.57,.16-.84,.28l-.06,.03-.67-.58-.65,.45,.32,.83-.05,.05c-.21,.21-.39,.44-.53,.69l-.04,.06-.89-.09-.27,.74,.73,.5v.07c-.05,.21-.06,.41-.06,.62,0,.09,0,.18,.01,.26v.07s-.77,.43-.77,.43l.2,.76h.88s.03,.05,.03,.05c.13,.27,.29,.52,.47,.75l.04,.05-.38,.78,.61,.51,.64-.46,.13,.18-.78,.56-.86-.72,.39-.81c-.17-.21-.31-.44-.43-.68h-.91s-.29-1.08-.29-1.08l.8-.45c0-.07,0-.14,0-.21,0-.19,.01-.39,.04-.59l-.76-.52,.39-1.06,.92,.09c.14-.22,.3-.43,.48-.62l-.33-.86,.92-.65,.7,.6c.24-.11,.5-.19,.75-.24l.22-.89h1.13l.22,.88c.49,.1,.95,.29,1.37,.56l.77-.46,.8,.8-.45,.77c.15,.23,.28,.47,.38,.72l.88,.07,.2,1.11-.8,.36c0,.28-.04,.55-.1,.82l.67,.56-.48,1.02-.86-.16c-.17,.22-.35,.43-.56,.61l.23,.84-.98,.56-.61-.62c-.26,.09-.53,.15-.81,.18l-.29,.83Zm-.13-2.22c-1.38,0-2.5-1.12-2.5-2.5s1.12-2.5,2.5-2.5c.12,0,.24,0,.36,.03l-.03,.22c-.11-.02-.22-.02-.33-.02-1.26,0-2.28,1.02-2.28,2.28s1.02,2.28,2.28,2.28,2.28-1.02,2.28-2.28c0-.39-.1-.78-.29-1.12l.19-.11c.21,.37,.32,.8,.32,1.23,0,1.38-1.12,2.5-2.5,2.5Zm1.58-4.15c-.14-.14-.31-.26-.48-.36l.1-.19c.19,.11,.37,.24,.53,.39l-.15,.16Z"/><path d="M76.56,28.9l-1.12-.1-.15-.87c-.26-.08-.51-.19-.75-.32l-.72,.52-.86-.72,.39-.81c-.17-.21-.31-.44-.43-.68h-.91s-.29-1.08-.29-1.08l.8-.45c0-.07,0-.14,0-.21,0-.19,.01-.39,.04-.59l-.76-.52,.39-1.06,.92,.09s0-.02,.01-.02l.05,.03h0s.13,.09,.13,.09c-.02,.03-.03,.05-.05,.08l-.04,.06-.89-.09-.27,.74,.73,.5v.07c-.05,.21-.06,.41-.06,.62,0,.09,0,.18,.01,.26v.07s-.77,.43-.77,.43l.2,.76h.88s.03,.05,.03,.05c.13,.27,.29,.52,.47,.75l.04,.05-.38,.78,.61,.51,.7-.5,.06,.03c.26,.15,.54,.27,.83,.35l.07,.02,.14,.84,.79,.07,.28-.8h.07c.3-.03,.61-.1,.89-.2l.07-.02,.59,.6,.68-.39-.22-.81,.05-.04c.23-.2,.44-.43,.62-.68l.04-.06,.83,.15,.33-.72-.65-.54,.02-.07c.08-.29,.11-.6,.12-.91v-.07s.77-.35,.77-.35l-.14-.78-.85-.07-.02-.06c-.11-.28-.25-.55-.42-.8l-.04-.06,.44-.74-.56-.56-.75,.44-.06-.04c-.43-.29-.9-.48-1.41-.58h-.07s-.22-.87-.22-.87h-.79l-.22,.86h-.07c-.29,.07-.57,.16-.84,.28l-.06,.03-.67-.58-.65,.45,.07,.18-.2,.08-.13-.34,.92-.65,.7,.6c.24-.11,.5-.19,.75-.24l.22-.89h1.13l.22,.88c.49,.1,.95,.29,1.37,.56l.77-.46,.8,.8-.45,.77c.15,.23,.28,.47,.38,.72l.88,.07,.2,1.11-.8,.36c0,.28-.04,.55-.1,.82l.67,.56-.48,1.02-.86-.16c-.17,.22-.35,.43-.56,.61l.23,.84-.98,.56-.61-.62c-.26,.09-.53,.15-.81,.18l-.29,.83Zm-.13-2.22c-1.38,0-2.5-1.12-2.5-2.5s1.12-2.5,2.5-2.5,2.5,1.12,2.5,2.5c0,.06,0,.12,0,.18l-.22-.02c0-.05,0-.11,0-.17,0-1.26-1.02-2.28-2.28-2.28s-2.28,1.02-2.28,2.28,1.02,2.28,2.28,2.28c.78,0,1.5-.39,1.93-1.06l.18,.12c-.46,.72-1.25,1.16-2.11,1.16Zm2.3-1.51l-.2-.09c.06-.14,.11-.29,.14-.44l.21,.04c-.03,.16-.09,.33-.15,.48Zm-5.12-3.39l-.17-.14c.04-.05,.09-.1,.14-.15l-.1-.26,.2-.08,.15,.39-.05,.05c-.06,.06-.12,.13-.18,.19Z"/><path d="M22,54.98l-1.95-.17-.27-1.62c-.52-.15-1.03-.37-1.5-.63l-1.34,.96-1.5-1.26,.75-1.57,.2,.09-.68,1.42,1.24,1.04,1.32-.94,.06,.03c.5,.29,1.03,.51,1.58,.67l.07,.02,.26,1.59,1.62,.14,.53-1.51h.07c.58-.06,1.15-.18,1.69-.37l.07-.02,1.12,1.13,1.41-.81-.42-1.53,.05-.04c.44-.38,.84-.81,1.17-1.28l.04-.06,1.56,.29,.69-1.47-1.22-1.01,.02-.07c.14-.56,.22-1.13,.22-1.72v-.07s1.46-.66,1.46-.66l-.28-1.6-1.61-.12-.02-.06c-.2-.53-.47-1.04-.8-1.51l-.04-.06,.83-1.4-1.15-1.15-1.41,.84-.06-.04c-.81-.55-1.71-.92-2.67-1.09h-.07s-.41-1.62-.41-1.62h-1.62l-.41,1.62h-.07c-.55,.12-1.08,.29-1.59,.52l-.06,.03-1.27-1.1-1.33,.93,.6,1.57-.05,.05c-.39,.4-.73,.84-1.01,1.31l-.04,.06-1.67-.17-.55,1.52,1.38,.94v.07c-.08,.39-.11,.79-.11,1.17,0,.15,0,.31,.02,.5v.07s-1.45,.81-1.45,.81l.42,1.57,1.65-.02,.03,.06c.18,.39,.4,.76,.65,1.1l-.18,.13c-.24-.34-.46-.7-.64-1.07l-1.68,.02-.51-1.89,1.48-.83c-.01-.16-.02-.31-.02-.44,0-.38,.03-.76,.09-1.14l-1.41-.96,.67-1.84,1.7,.18c.27-.45,.6-.87,.96-1.25l-.61-1.6,1.61-1.12,1.29,1.12c.48-.21,.99-.37,1.5-.48l.42-1.65h1.96l.41,1.64c.95,.18,1.83,.54,2.63,1.07l1.44-.85,1.39,1.39-.84,1.42c.31,.45,.56,.93,.76,1.44l1.64,.13,.34,1.93-1.48,.68c0,.55-.08,1.1-.21,1.63l1.25,1.03-.83,1.78-1.59-.29c-.32,.45-.7,.86-1.12,1.22l.43,1.56-1.7,.98-1.14-1.15c-.52,.18-1.06,.29-1.61,.35l-.54,1.53Zm-.18-4.15c-2.53,0-4.58-2.05-4.58-4.58,0-1.81,1.07-3.45,2.72-4.19l.09,.2c-1.57,.7-2.59,2.27-2.59,3.99,0,2.41,1.96,4.36,4.36,4.36s4.36-1.96,4.36-4.36-1.83-4.25-4.17-4.36v-.22c2.46,.11,4.38,2.12,4.38,4.58s-2.05,4.58-4.58,4.58Zm-1.46-8.69l-.07-.2c.2-.07,.4-.13,.61-.17l.04,.21c-.2,.04-.39,.09-.58,.16Z"/></g><g><g><path class="cls-3" d="M39.24,46.24c-.06,0-.12-.02-.18-.05l-1.77-1.15c-.15-.1-.19-.3-.1-.45,.1-.15,.3-.19,.45-.1l1.77,1.15c.15,.1,.19,.3,.1,.45-.06,.1-.17,.15-.27,.15Z"/><path class="cls-3" d="M42.33,42.79c-.07,0-.15-.02-.21-.08l-.46-.38c-.14-.11-.16-.32-.04-.46,.12-.14,.32-.16,.46-.04l.46,.38c.14,.11,.16,.32,.04,.46-.06,.08-.16,.12-.25,.12Z"/><path class="cls-3" d="M37.14,52.91s-.05,0-.08,0l-3.68-.92c-.17-.04-.28-.22-.24-.4,.04-.17,.22-.28,.4-.24l3.68,.92c.17,.04,.28,.22,.24,.4-.04,.15-.17,.25-.32,.25Z"/><path class="cls-4" d="M57.01,75.19s-.05,0-.08-.01c-.08-.02-.16-.08-.2-.15-.11-.2-.17-.3,.74-1.35-1.98,1.21-2.19,1.16-2.3,1.13-.09-.02-.18-.09-.22-.17-.18-.32-.22-.38,3.44-3.37-.59,.38-1.2,.79-1.74,1.15-3.22,2.15-4.22,2.76-4.66,2.65-.11-.03-.2-.09-.26-.19q-.2-.34,4.12-3.46c.28-.2,.56-.41,.85-.62-.5,.33-1,.67-1.45,.98-3.4,2.31-4.95,3.31-5.53,3.18-.12-.03-.23-.1-.29-.21-.21-.37-.26-.45,6.03-4.72l-8.27,4.77c-.16,.09-.35,.04-.45-.12-.15-.25-.03-.56,.57-1.09-.95,.55-1.5,.77-1.78,.7-.12-.03-.22-.1-.27-.2-.18-.31-.11-.6,2.19-2.15-2.37,1.48-3.25,1.92-3.59,1.84-.11-.03-.19-.09-.24-.18-.16-.27-.01-.37,.53-.73,.28-.19,.69-.45,1.2-.78,.52-.34,1.14-.74,1.84-1.19-2.03,1.05-2.33,.98-2.5,.94-.12-.03-.22-.1-.28-.2-.09-.15-.04-.35,.12-.44,6.38-3.78,16.22-9.84,18.59-11.85-2.37,1.08-9.44,5.47-13.48,7.98-5.19,3.22-5.21,3.22-5.43,3.16-.09-.02-.16-.08-.21-.16-.18-.31-.17-.5,1.91-1.79-.95,.45-1.59,.65-1.86,.59-.13-.03-.23-.11-.29-.21-.09-.15-.04-.34,.11-.44,6.43-4.1,15.49-9.9,19.18-12.36-1.03,.52-2.41,1.31-3.94,2.22-1.24,.8-2.71,1.73-4.45,2.81-2.3,1.43-4.62,2.85-6.56,4.02-4.68,2.95-4.73,2.94-4.96,2.88-.09-.02-.17-.08-.21-.16-.09-.15-.04-.35,.12-.44,1.41-.84,2.96-1.77,4.57-2.75,.28-.18,.56-.35,.85-.53-3.38,1.93-5.24,2.78-5.79,2.64-.17-.04-.26-.14-.31-.22-.2-.35,.09-.79,2.47-2.35-1.54,.94-2.14,1.22-2.4,1.15-.1-.02-.19-.09-.24-.17-.14-.24-.25-.43,1.34-1.59-.86,.43-1.4,.61-1.66,.55-.12-.03-.22-.1-.28-.21-.04-.08-.06-.16-.03-.25,.02-.08,.08-.16,.15-.2,7.05-4.01,17.72-10.35,20.97-12.92-3.57,1.97-13.39,7.74-20.25,11.8-.07,.04-.16,.06-.25,.03-.08-.02-.16-.08-.2-.15-.05-.08-.09-.21-.04-.39,.05-.18,.23-.42,.54-.71-.51,.21-.85,.28-1.04,.23-.13-.03-.23-.11-.29-.21-.19-.34,.18-.6,.74-.99,.42-.29,1.05-.7,1.91-1.24,1.6-1,3.81-2.33,6.14-3.74,2.62-1.58,5.74-3.46,8.21-5.02-5.29,3.05-13.63,7.91-17.63,10.25-.07,.04-.16,.06-.25,.03-.08-.02-.16-.08-.2-.15-.17-.29-.22-.38,2.66-2.19-1.13,.62-1.84,.89-2.2,.8-.18-.04-.28-.15-.33-.24q-.22-.37,5.01-3.41c2.42-1.4,5.3-3.08,7.96-4.69,2.23-1.48,3.97-2.61,5.3-3.39,1.09-.76,1.67-1.24,1.97-1.53-2.71,1.22-13.43,7.7-20.21,11.91-.15,.09-.35,.05-.45-.1-.1-.15-.05-.35,.1-.45,.67-.43,1.38-.88,2.1-1.34-1.75,.89-2.38,1.04-2.66,.97-.13-.03-.23-.11-.29-.21-.09-.15-.04-.34,.11-.44,1.2-.77,2.82-1.81,4.63-2.97-3.78,2.14-4.09,2.06-4.28,2.01-.1-.03-.19-.09-.24-.18-.09-.15-.04-.35,.11-.44,4.88-3.02,11.81-7.39,15.86-10.12-3.27,1.88-8.03,4.68-11.39,6.65-1.49,.87-2.79,1.64-3.72,2.18-.83,.48-1.23,.72-1.45,.83-.04,.02-.05,.03-.06,.04h0c-.15,.06-.19,.05-.25,.04-.13-.03-.22-.14-.24-.27-.02-.13,.04-.26,.15-.33,5.17-3.2,12.82-8.02,16.24-10.39-1.82,1.05-4.54,2.79-6.74,4.19-6.14,3.91-8,5.03-8.54,4.9-.11-.03-.2-.09-.25-.18-.14-.24-.23-.4,1.81-1.87-.56,.25-.93,.34-1.15,.29-.13-.03-.24-.11-.3-.22-.09-.15-.04-.35,.11-.44,4.01-2.52,10.1-6.48,12.19-8.11-1.83,.9-5.83,3.47-8.19,4.98-3.83,2.46-3.98,2.52-4.22,2.47-.09-.02-.17-.08-.21-.16-.17-.3-.32-.56,3.44-3.15-.46,.3-.94,.6-1.43,.92-.07,.04-.16,.1-.29,.07-.09-.02-.16-.08-.21-.15-.23-.4,.1-.75,2.75-2.77-.1-.02-.18-.08-.23-.17-.09-.16-.04-.36,.12-.45,.06-.04,.13-.05,.2-.04,.19-.09,.67-.43,1-.66,1.06-.74,1.36-.92,1.62-.87,.1,.02,.19,.09,.24,.18,.19,.32,.04,.52-1.74,1.9,.49-.31,1-.62,1.52-.94,5.02-3.07,5.41-2.98,5.64-2.93,.11,.03,.2,.09,.25,.18,.09,.15,.04,.35-.11,.44-2.45,1.53-5,3.17-7.13,4.59,4.96-3.17,7.34-4.55,8.01-4.39,.12,.03,.22,.1,.28,.2,.21,.36,.36,.62-6.5,5.13-.33,.22-.66,.43-.99,.65,1.38-.87,2.78-1.78,3.92-2.52,4.4-2.86,5.11-3.27,5.44-3.2,.1,.02,.18,.08,.22,.17,.09,.15,.04,.34-.11,.44-4.25,2.71-10.47,6.76-13.54,8.93,1.65-.97,3.99-2.47,6.03-3.77,6.46-4.12,8.57-5.38,9.16-5.23,.11,.03,.2,.09,.26,.19,.16,.28,.27,.47-3.5,2.99,5.29-3.07,5.4-3.05,5.56-3,.08,.02,.16,.08,.2,.15,.22,.38,.37,.65-9.62,7.03-.73,.46-1.45,.93-2.17,1.38,3.95-2.34,8.66-5.22,12.24-7.44,.08-.05,.17-.06,.25-.04,.09,.02,.16,.08,.2,.15,.16,.27-.07,.43-.31,.6-.15,.1-.37,.25-.65,.44-.53,.35-1.3,.86-2.31,1.52-1.69,1.1-4.05,2.63-7.02,4.54-2.86,1.84-5.74,3.69-7.71,4.96,2.59-1.37,7.67-4.36,17.45-10.6q1.41-.9,1.55-.86c.09,.02,.16,.08,.21,.15,.08,.14,.13,.22-.13,.45h0s0,0-.01,0c-.35,.3-1.21,.87-3.18,2.15,2.79-1.53,3.05-1.47,3.22-1.43,.1,.03,.19,.09,.24,.18,.12,.2,.15,.45-.29,.94,.22-.06,.4-.07,.53-.04,.19,.04,.29,.16,.34,.24,.22,.37,.33,.57-6.13,4.64,6.83-3.96,6.9-3.94,7.06-3.9,.08,.02,.16,.08,.2,.15,.21,.36-.17,.72-1.11,1.41-.6,.44-1.45,1.01-2.59,1.74,3.8-2.37,4.75-2.86,5.09-2.78,.1,.02,.18,.08,.23,.17,.04,.08,.06,.16,.03,.25-.02,.08-.08,.16-.15,.2-2.22,1.26-4.47,2.56-6.65,3.84-.75,.47-1.51,.96-2.26,1.43-4.43,2.81-7.67,4.82-9.94,6.15-.72,.49-1.33,.93-1.83,1.31,2.02-1.19,5.46-3.23,8.89-5.23,10.86-6.36,11.03-6.31,11.23-6.26,.08,.02,.16,.08,.2,.16,.04,.08,.09,.2,.04,.37-.03,.1-.06,.24-.35,.54,.75-.37,1.21-.52,1.44-.47,.12,.03,.21,.1,.27,.2,.17,.3-.07,.46-.61,.82-.32,.22-.8,.52-1.46,.93-.04,.03-.09,.05-.13,.08,1.01-.48,1.72-.71,2.08-.63,.2,.05,.3,.16,.35,.25,.3,.52,0,.85-10.6,7.12-4.44,2.63-10.32,6.11-11.92,7.4,.88-.31,3.09-1.37,8.56-4.69,4.46-2.7,9.38-5.85,11.74-7.37q1.64-1.05,1.78-1.01c.09,.02,.16,.08,.2,.15,.13,.23,.27,.46-1.51,1.79,.38-.13,.64-.18,.8-.14,.13,.03,.23,.11,.29,.21q.19,.33-3.32,2.63c-1.73,1.13-4.15,2.7-7.19,4.66-2.93,1.89-5.89,3.78-7.91,5.07,4.1-2.2,11.79-7.07,15.2-9.24q3.03-1.92,3.21-1.88c.09,.02,.16,.08,.21,.15,.23,.4-.14,.98-1.57,2.04,.05,0,.09,0,.13,0,.11,.03,.2,.1,.26,.19,.23,.4,.49,.84-9.15,6.88,2.77-1.71,5.64-3.52,7.97-5.03,.08-.05,.17-.06,.25-.04,.09,.02,.16,.08,.21,.15,.16,.28-.06,.43-.43,.69-.22,.16-.55,.38-.98,.67-.43,.29-.97,.64-1.61,1.07,.9-.46,1.45-.64,1.73-.57,.13,.03,.23,.11,.29,.21,.18,.32,.14,.45-2.06,1.86,.46-.2,.79-.27,1-.22,.14,.03,.25,.11,.32,.23,.26,.44,.06,.64-5.82,4.2-1.69,1.02-3.81,2.31-5.53,3.41l11.56-6.67c.07-.04,.16-.06,.25-.03,.08,.02,.15,.08,.2,.15,.16,.28-.07,.45-.45,.72-.23,.17-.56,.4-1.02,.72-.86,.59-2.05,1.4-3.31,2.26-1.47,1-3.32,2.25-4.84,3.3,.7-.46,1.42-.95,2.07-1.39,3.36-2.29,4.79-3.2,5.33-3.08,.12,.03,.22,.1,.28,.2,.19,.33,.2,.34-3.66,3.14,2.8-1.86,3.71-2.39,4.13-2.3,.11,.03,.2,.09,.26,.19q.15,.27-1.79,1.85c-.59,.48-1.4,1.14-2.14,1.76,.6-.37,1.25-.78,1.88-1.19,.08-.05,.17-.06,.25-.04,.09,.02,.16,.08,.21,.15,.12,.21,.08,.26-.37,.74-.36,.39-.67,.73-.94,1.02,1.97-1.17,2.04-1.16,2.18-1.12,.08,.02,.16,.08,.2,.15,.09,.16,.04,.36-.12,.45-.03,.02-.07,.03-.1,.04-.29,.13-1.89,1.08-3.31,1.93-.05,.03-.11,.05-.17,.05Zm3.14-2.14c.04,.07,.09,.11,.15,.13-.06-.03-.11-.07-.15-.13Zm-8.02-3.32c-1.88,1.17-3.72,2.34-4.93,3.18,1.31-.78,3.21-2.04,4.93-3.18Zm8.08-5.78c-2.13,1.18-5.58,3.4-8.2,5.09,.97-.6,2.06-1.28,3.31-2.05,1.72-1.06,3.57-2.2,4.89-3.04Zm-.14,1.52c-1.16,.62-2.92,1.73-4.63,2.86,.06-.04,.12-.07,.18-.11,1.6-.97,3.34-2.02,4.45-2.75Zm-10.68-4.87c-1.42,.9-2.75,1.74-3.83,2.46,1.13-.71,2.46-1.57,3.83-2.46Zm15.46-8.55c-.63,.21-1.97,.83-4.79,2.52-2.8,1.68-6.25,3.92-9.29,5.9-1.33,.86-2.44,1.59-3.39,2.19,1.83-1.12,4.29-2.6,7.57-4.54,4.01-2.37,8.47-5.01,9.9-6.08Zm-2.04,6.38c-.15,.1-.3,.19-.46,.29-1.52,.96-2.96,1.88-4.32,2.73,1.81-1.09,3.53-2.16,4.78-3.02Zm-14.41-1.45c-1.99,1.2-3.93,2.38-5.2,3.2,.64-.33,1.43-.78,2.32-1.3,.86-.59,1.84-1.24,2.88-1.9Zm5.1-5.74c-.83,.55-1.66,1.11-2.43,1.62-1.53,1.02-2.87,1.92-4.04,2.69,.38-.23,.78-.48,1.2-.74,4.4-2.71,10.75-6.63,12.62-8.05-.48,.19-1.17,.57-2,1.06-.74,.52-1.69,1.14-2.88,1.9-.78,.49-1.61,1-2.46,1.52Zm-9.89-7.83h0s0,0,0,0Z"/><g class="cls-5"><path class="cls-1" d="M57.01,75.19s-.05,0-.08-.01c-.08-.02-.16-.08-.2-.15-.11-.2-.17-.3,.74-1.35-1.98,1.21-2.19,1.16-2.3,1.13-.09-.02-.18-.09-.22-.17-.18-.32-.22-.38,3.44-3.37-.59,.38-1.2,.79-1.74,1.15-3.22,2.15-4.22,2.76-4.66,2.65-.11-.03-.2-.09-.26-.19q-.2-.34,4.12-3.46c.28-.2,.56-.41,.85-.62-.5,.33-1,.67-1.45,.98-3.4,2.31-4.95,3.31-5.53,3.18-.12-.03-.23-.1-.29-.21-.21-.37-.26-.45,6.03-4.72l-8.27,4.77c-.16,.09-.35,.04-.45-.12-.15-.25-.03-.56,.57-1.09-.95,.55-1.5,.77-1.78,.7-.12-.03-.22-.1-.27-.2-.18-.31-.11-.6,2.19-2.15-2.37,1.48-3.25,1.92-3.59,1.84-.11-.03-.19-.09-.24-.18-.16-.27-.01-.37,.53-.73,.28-.19,.69-.45,1.2-.78,.52-.34,1.14-.74,1.84-1.19-2.03,1.05-2.33,.98-2.5,.94-.12-.03-.22-.1-.28-.2-.09-.15-.04-.35,.12-.44,6.38-3.78,16.22-9.84,18.59-11.85-2.37,1.08-9.44,5.47-13.48,7.98-5.19,3.22-5.21,3.22-5.43,3.16-.09-.02-.16-.08-.21-.16-.18-.31-.17-.5,1.91-1.79-.95,.45-1.59,.65-1.86,.59-.13-.03-.23-.11-.29-.21-.09-.15-.04-.34,.11-.44,6.43-4.1,15.49-9.9,19.18-12.36-1.03,.52-2.41,1.31-3.94,2.22-1.24,.8-2.71,1.73-4.45,2.81-2.3,1.43-4.62,2.85-6.56,4.02-4.68,2.95-4.73,2.94-4.96,2.88-.09-.02-.17-.08-.21-.16-.09-.15-.04-.35,.12-.44,1.41-.84,2.96-1.77,4.57-2.75,.28-.18,.56-.35,.85-.53-3.38,1.93-5.24,2.78-5.79,2.64-.17-.04-.26-.14-.31-.22-.2-.35,.09-.79,2.47-2.35-1.54,.94-2.14,1.22-2.4,1.15-.1-.02-.19-.09-.24-.17-.14-.24-.25-.43,1.34-1.59-.86,.43-1.4,.61-1.66,.55-.12-.03-.22-.1-.28-.21-.04-.08-.06-.16-.03-.25,.02-.08,.08-.16,.15-.2,7.05-4.01,17.72-10.35,20.97-12.92-3.57,1.97-13.39,7.74-20.25,11.8-.07,.04-.16,.06-.25,.03-.08-.02-.16-.08-.2-.15-.05-.08-.09-.21-.04-.39,.05-.18,.23-.42,.54-.71-.51,.21-.85,.28-1.04,.23-.13-.03-.23-.11-.29-.21-.19-.34,.18-.6,.74-.99,.42-.29,1.05-.7,1.91-1.24,1.6-1,3.81-2.33,6.14-3.74,2.62-1.58,5.74-3.46,8.21-5.02-5.29,3.05-13.63,7.91-17.63,10.25-.07,.04-.16,.06-.25,.03-.08-.02-.16-.08-.2-.15-.17-.29-.22-.38,2.66-2.19-1.13,.62-1.84,.89-2.2,.8-.18-.04-.28-.15-.33-.24q-.22-.37,5.01-3.41c2.42-1.4,5.3-3.08,7.96-4.69,2.23-1.48,3.97-2.61,5.3-3.39,1.09-.76,1.67-1.24,1.97-1.53-2.71,1.22-13.43,7.7-20.21,11.91-.15,.09-.35,.05-.45-.1-.1-.15-.05-.35,.1-.45,.67-.43,1.38-.88,2.1-1.34-1.75,.89-2.38,1.04-2.66,.97-.13-.03-.23-.11-.29-.21-.09-.15-.04-.34,.11-.44,1.2-.77,2.82-1.81,4.63-2.97-3.78,2.14-4.09,2.06-4.28,2.01-.1-.03-.19-.09-.24-.18-.09-.15-.04-.35,.11-.44,4.88-3.02,11.81-7.39,15.86-10.12-3.27,1.88-8.03,4.68-11.39,6.65-1.49,.87-2.79,1.64-3.72,2.18-.83,.48-1.23,.72-1.45,.83-.04,.02-.05,.03-.06,.04h0c-.15,.06-.19,.05-.25,.04-.13-.03-.22-.14-.24-.27-.02-.13,.04-.26,.15-.33,5.17-3.2,12.82-8.02,16.24-10.39-1.82,1.05-4.54,2.79-6.74,4.19-6.14,3.91-8,5.03-8.54,4.9-.11-.03-.2-.09-.25-.18-.14-.24-.23-.4,1.81-1.87-.56,.25-.93,.34-1.15,.29-.13-.03-.24-.11-.3-.22-.09-.15-.04-.35,.11-.44,4.01-2.52,10.1-6.48,12.19-8.11-1.83,.9-5.83,3.47-8.19,4.98-3.83,2.46-3.98,2.52-4.22,2.47-.09-.02-.17-.08-.21-.16-.17-.3-.32-.56,3.44-3.15-.46,.3-.94,.6-1.43,.92-.07,.04-.16,.1-.29,.07-.09-.02-.16-.08-.21-.15-.23-.4,.1-.75,2.75-2.77-.1-.02-.18-.08-.23-.17-.09-.16-.04-.36,.12-.45,.06-.04,.13-.05,.2-.04,.19-.09,.67-.43,1-.66,1.06-.74,1.36-.92,1.62-.87,.1,.02,.19,.09,.24,.18,.19,.32,.04,.52-1.74,1.9,.49-.31,1-.62,1.52-.94,5.02-3.07,5.41-2.98,5.64-2.93,.11,.03,.2,.09,.25,.18,.09,.15,.04,.35-.11,.44-2.45,1.53-5,3.17-7.13,4.59,4.96-3.17,7.34-4.55,8.01-4.39,.12,.03,.22,.1,.28,.2,.21,.36,.36,.62-6.5,5.13-.33,.22-.66,.43-.99,.65,1.38-.87,2.78-1.78,3.92-2.52,4.4-2.86,5.11-3.27,5.44-3.2,.1,.02,.18,.08,.22,.17,.09,.15,.04,.34-.11,.44-4.25,2.71-10.47,6.76-13.54,8.93,1.65-.97,3.99-2.47,6.03-3.77,6.46-4.12,8.57-5.38,9.16-5.23,.11,.03,.2,.09,.26,.19,.16,.28,.27,.47-3.5,2.99,5.29-3.07,5.4-3.05,5.56-3,.08,.02,.16,.08,.2,.15,.22,.38,.37,.65-9.62,7.03-.73,.46-1.45,.93-2.17,1.38,3.95-2.34,8.66-5.22,12.24-7.44,.08-.05,.17-.06,.25-.04,.09,.02,.16,.08,.2,.15,.16,.27-.07,.43-.31,.6-.15,.1-.37,.25-.65,.44-.53,.35-1.3,.86-2.31,1.52-1.69,1.1-4.05,2.63-7.02,4.54-2.86,1.84-5.74,3.69-7.71,4.96,2.59-1.37,7.67-4.36,17.45-10.6q1.41-.9,1.55-.86c.09,.02,.16,.08,.21,.15,.08,.14,.13,.22-.13,.45h0s0,0-.01,0c-.35,.3-1.21,.87-3.18,2.15,2.79-1.53,3.05-1.47,3.22-1.43,.1,.03,.19,.09,.24,.18,.12,.2,.15,.45-.29,.94,.22-.06,.4-.07,.53-.04,.19,.04,.29,.16,.34,.24,.22,.37,.33,.57-6.13,4.64,6.83-3.96,6.9-3.94,7.06-3.9,.08,.02,.16,.08,.2,.15,.21,.36-.17,.72-1.11,1.41-.6,.44-1.45,1.01-2.59,1.74,3.8-2.37,4.75-2.86,5.09-2.78,.1,.02,.18,.08,.23,.17,.04,.08,.06,.16,.03,.25-.02,.08-.08,.16-.15,.2-2.22,1.26-4.47,2.56-6.65,3.84-.75,.47-1.51,.96-2.26,1.43-4.43,2.81-7.67,4.82-9.94,6.15-.72,.49-1.33,.93-1.83,1.31,2.02-1.19,5.46-3.23,8.89-5.23,10.86-6.36,11.03-6.31,11.23-6.26,.08,.02,.16,.08,.2,.16,.04,.08,.09,.2,.04,.37-.03,.1-.06,.24-.35,.54,.75-.37,1.21-.52,1.44-.47,.12,.03,.21,.1,.27,.2,.17,.3-.07,.46-.61,.82-.32,.22-.8,.52-1.46,.93-.04,.03-.09,.05-.13,.08,1.01-.48,1.72-.71,2.08-.63,.2,.05,.3,.16,.35,.25,.3,.52,0,.85-10.6,7.12-4.44,2.63-10.32,6.11-11.92,7.4,.88-.31,3.09-1.37,8.56-4.69,4.46-2.7,9.38-5.85,11.74-7.37q1.64-1.05,1.78-1.01c.09,.02,.16,.08,.2,.15,.13,.23,.27,.46-1.51,1.79,.38-.13,.64-.18,.8-.14,.13,.03,.23,.11,.29,.21q.19,.33-3.32,2.63c-1.73,1.13-4.15,2.7-7.19,4.66-2.93,1.89-5.89,3.78-7.91,5.07,4.1-2.2,11.79-7.07,15.2-9.24q3.03-1.92,3.21-1.88c.09,.02,.16,.08,.21,.15,.23,.4-.14,.98-1.57,2.04,.05,0,.09,0,.13,0,.11,.03,.2,.1,.26,.19,.23,.4,.49,.84-9.15,6.88,2.77-1.71,5.64-3.52,7.97-5.03,.08-.05,.17-.06,.25-.04,.09,.02,.16,.08,.21,.15,.16,.28-.06,.43-.43,.69-.22,.16-.55,.38-.98,.67-.43,.29-.97,.64-1.61,1.07,.9-.46,1.45-.64,1.73-.57,.13,.03,.23,.11,.29,.21,.18,.32,.14,.45-2.06,1.86,.46-.2,.79-.27,1-.22,.14,.03,.25,.11,.32,.23,.26,.44,.06,.64-5.82,4.2-1.69,1.02-3.81,2.31-5.53,3.41l11.56-6.67c.07-.04,.16-.06,.25-.03,.08,.02,.15,.08,.2,.15,.16,.28-.07,.45-.45,.72-.23,.17-.56,.4-1.02,.72-.86,.59-2.05,1.4-3.31,2.26-1.47,1-3.32,2.25-4.84,3.3,.7-.46,1.42-.95,2.07-1.39,3.36-2.29,4.79-3.2,5.33-3.08,.12,.03,.22,.1,.28,.2,.19,.33,.2,.34-3.66,3.14,2.8-1.86,3.71-2.39,4.13-2.3,.11,.03,.2,.09,.26,.19q.15,.27-1.79,1.85c-.59,.48-1.4,1.14-2.14,1.76,.6-.37,1.25-.78,1.88-1.19,.08-.05,.17-.06,.25-.04,.09,.02,.16,.08,.21,.15,.12,.21,.08,.26-.37,.74-.36,.39-.67,.73-.94,1.02,1.97-1.17,2.04-1.16,2.18-1.12,.08,.02,.16,.08,.2,.15,.09,.16,.04,.36-.12,.45-.03,.02-.07,.03-.1,.04-.29,.13-1.89,1.08-3.31,1.93-.05,.03-.11,.05-.17,.05Zm3.14-2.14c.04,.07,.09,.11,.15,.13-.06-.03-.11-.07-.15-.13Zm-8.02-3.32c-1.88,1.17-3.72,2.34-4.93,3.18,1.31-.78,3.21-2.04,4.93-3.18Zm8.08-5.78c-2.13,1.18-5.58,3.4-8.2,5.09,.97-.6,2.06-1.28,3.31-2.05,1.72-1.06,3.57-2.2,4.89-3.04Zm-.14,1.52c-1.16,.62-2.92,1.73-4.63,2.86,.06-.04,.12-.07,.18-.11,1.6-.97,3.34-2.02,4.45-2.75Zm-10.68-4.87c-1.42,.9-2.75,1.74-3.83,2.46,1.13-.71,2.46-1.57,3.83-2.46Zm15.46-8.55c-.63,.21-1.97,.83-4.79,2.52-2.8,1.68-6.25,3.92-9.29,5.9-1.33,.86-2.44,1.59-3.39,2.19,1.83-1.12,4.29-2.6,7.57-4.54,4.01-2.37,8.47-5.01,9.9-6.08Zm-2.04,6.38c-.15,.1-.3,.19-.46,.29-1.52,.96-2.96,1.88-4.32,2.73,1.81-1.09,3.53-2.16,4.78-3.02Zm-14.41-1.45c-1.99,1.2-3.93,2.38-5.2,3.2,.64-.33,1.43-.78,2.32-1.3,.86-.59,1.84-1.24,2.88-1.9Zm5.1-5.74c-.83,.55-1.66,1.11-2.43,1.62-1.53,1.02-2.87,1.92-4.04,2.69,.38-.23,.78-.48,1.2-.74,4.4-2.71,10.75-6.63,12.62-8.05-.48,.19-1.17,.57-2,1.06-.74,.52-1.69,1.14-2.88,1.9-.78,.49-1.61,1-2.46,1.52Zm-9.89-7.83h0s0,0,0,0Z"/></g><path class="cls-3" d="M59.13,75.05h-14.11c-.34,0-.65-.13-.88-.37-.24-.24-.36-.56-.35-.9,0-.05,0-.09,0-.13,0-.47-.52-3.5-1.46-6.44-1.05-3.3-2.11-5.86-2.52-6.81-1.04-1.96-1.59-4.19-1.59-6.44,0-7.58,6.14-13.64,13.99-13.8,.01,0,.02,0,.04,0h.07s.07,0,.07,0c.01,0,.03,0,.04,0,3.61,.08,7,1.55,9.53,4.13,2.55,2.6,3.95,6.03,3.95,9.67,0,2.25-.55,4.48-1.6,6.45-.4,.93-1.46,3.49-2.51,6.79-.94,2.94-1.46,5.97-1.46,6.44,0,.04,0,.09,0,.13,.01,.34-.11,.66-.35,.9-.23,.24-.55,.37-.88,.37Zm-6.84-34.46s-.02,0-.03,0c-7.63,.14-13.6,6.01-13.6,13.37,0,2.18,.54,4.34,1.55,6.25,.42,.97,1.48,3.55,2.54,6.86,.97,3.04,1.48,6.07,1.48,6.57,0,.05,0,.1,0,.15,0,.22,.07,.43,.23,.59,.15,.16,.35,.24,.57,.24h14.11c.22,0,.42-.09,.57-.24,.15-.16,.23-.37,.23-.59,0-.05,0-.1,0-.15,0-.5,.51-3.54,1.48-6.57,1.06-3.31,2.12-5.89,2.53-6.84,1.02-1.93,1.56-4.09,1.56-6.27,0-3.52-1.36-6.85-3.83-9.36-2.46-2.51-5.76-3.93-9.27-4,0,0-.02,0-.03,0h-.04s-.04,0-.04,0Z"/><g><path class="cls-3" d="M57.16,42.88s-.09,0-.13-.03c-.39-.18-.79-.33-1.17-.45-.17-.05-.27-.24-.21-.41,.05-.17,.24-.27,.41-.21,.41,.13,.83,.29,1.24,.48,.16,.07,.24,.27,.16,.43-.05,.12-.17,.19-.3,.19Z"/><path class="cls-3" d="M61.69,46.33c-.11,0-.21-.05-.28-.15h0s-1.1-1.7-3.41-2.84c-.16-.08-.23-.27-.15-.44,.08-.16,.27-.23,.44-.15,2.49,1.22,3.63,3,3.67,3.07,.1,.15,.05,.35-.1,.45-.05,.03-.11,.05-.17,.05Z"/></g><path class="cls-3" d="M54.57,75.08c-.17,0-.32-.14-.33-.31,0-.03-.17-3.51-.26-7.09-.05-2.12-.06-3.68-.04-4.83-.12,.05-.25,.09-.38,.13-.73,.21-1.43,.21-2.07,.03v5.68c0,.18-.15,.33-.33,.33s-.33-.15-.33-.33v-5.95c-.26-.14-.5-.31-.72-.52-1.38-1.28-1.99-2.57-1.65-3.43,.12-.3,.47-.8,1.47-.8,.43,0,.8,.17,1.07,.48,.8,.94,.54,2.93,.49,3.27v.58c.74,.27,1.45,.16,1.89,.03,.2-.06,.39-.13,.57-.21,.06-2.17,.24-2.48,.32-2.62,.44-.79,1.03-.89,1.4-.74,.47,.19,.85,.88,.56,1.93-.19,.68-.82,1.36-1.64,1.83-.06,3.21,.11,8.52,.29,12.2,0,.18-.13,.33-.31,.34,0,0-.01,0-.02,0Zm-4.62-16.44c-.32,0-.73,.07-.86,.39-.19,.48,.2,1.51,1.49,2.72,.09,.08,.18,.16,.27,.23v-.26s0-.03,0-.05c.09-.56,.2-2.14-.34-2.77-.15-.17-.33-.25-.57-.25Zm5.42,.73c-.14,0-.33,.13-.52,.46-.12,.21-.19,.91-.22,1.92,.52-.38,.88-.84,.98-1.21,.18-.67,0-1.08-.18-1.16-.02,0-.04-.01-.07-.01Z"/></g><g><path class="cls-3" d="M48.15,39.53c-.14,0-.27-.09-.31-.23l-.75-2.37c-.05-.17,.04-.35,.21-.41,.17-.05,.35,.04,.41,.21l.75,2.37c.05,.17-.04,.35-.21,.41-.03,.01-.07,.02-.1,.02Z"/><g><path class="cls-3" d="M63.34,44.26c-.1,0-.19-.04-.26-.12-.11-.14-.09-.35,.06-.46l2.47-1.93c.14-.11,.35-.09,.46,.06,.11,.14,.09,.35-.06,.46l-2.47,1.93c-.06,.05-.13,.07-.2,.07Z"/><path class="cls-3" d="M55.71,39.53s-.05,0-.07,0c-.18-.04-.29-.21-.25-.39l.93-4.09c.04-.18,.21-.29,.39-.25,.18,.04,.29,.21,.25,.39l-.93,4.09c-.03,.15-.17,.25-.32,.25Z"/></g><g><g><rect class="cls-3" x="44.28" y="75.86" width="15.59" height=".86" rx=".42" ry=".42"/><path class="cls-3" d="M59.53,76.83h-14.9c-.25,0-.45-.2-.45-.45v-.17c0-.25,.2-.45,.45-.45h14.9c.25,0,.45,.2,.45,.45v.17c0,.25-.2,.45-.45,.45Zm-14.9-.86c-.13,0-.24,.11-.24,.24v.17c0,.13,.11,.24,.24,.24h14.9c.13,0,.24-.11,.24-.24v-.17c0-.13-.11-.24-.24-.24h-14.9Z"/></g><g><rect class="cls-3" x="44.28" y="77.8" width="15.59" height=".86" rx=".42" ry=".42"/><path class="cls-3" d="M59.53,78.77h-14.9c-.25,0-.45-.2-.45-.45v-.17c0-.25,.2-.45,.45-.45h14.9c.25,0,.45,.2,.45,.45v.17c0,.25-.2,.45-.45,.45Zm-14.9-.86c-.13,0-.24,.11-.24,.24v.17c0,.13,.11,.24,.24,.24h14.9c.13,0,.24-.11,.24-.24v-.17c0-.13-.11-.24-.24-.24h-14.9Z"/></g><g><rect class="cls-3" x="44.28" y="79.74" width="15.59" height=".86" rx=".42" ry=".42"/><path class="cls-3" d="M59.53,80.71h-14.9c-.25,0-.45-.2-.45-.45v-.17c0-.25,.2-.45,.45-.45h14.9c.25,0,.45,.2,.45,.45v.17c0,.25-.2,.45-.45,.45Zm-14.9-.86c-.13,0-.24,.11-.24,.24v.17c0,.13,.11,.24,.24,.24h14.9c.13,0,.24-.11,.24-.24v-.17c0-.13-.11-.24-.24-.24h-14.9Z"/></g><g><path class="cls-3" d="M52.53,81.64h-7.65l2.2,3.03c.38,.53,1,.84,1.65,.84h6.73c.66,0,1.27-.31,1.65-.85l2.19-3.03h-6.77Z"/><path class="cls-3" d="M55.46,85.62h-6.73c-.69,0-1.34-.33-1.74-.89l-2.2-3.03s-.03-.08,0-.11c.02-.04,.06-.06,.1-.06h14.42s.08,.02,.1,.06c.02,.04,.02,.08,0,.11l-2.19,3.03c-.4,.56-1.05,.89-1.74,.89Zm-10.37-3.87l2.08,2.86c.36,.5,.95,.8,1.56,.8h6.73c.62,0,1.2-.3,1.57-.8l2.06-2.85h-14Z"/></g></g></g></g><g><g><g><path class="cls-1" d="M68.96,49.15s-1.39,1.52-2.53,2.28-1.93,1.76-.89,2.28c.63,.31,1.52-.13,1.52-.13,0,0-1.39,.38-1.64,1.64-.25,1.26,2.53,.76,2.53,.76,0,0-2.02,1.39-1.39,1.9,.63,.51,1.9,.13,2.53,.13s3.79-2.02,4.55-2.02,2.28,1.64,2.28,2.91,2.02,1.14,2.28-2.78c.25-3.92-.76-7.21-2.4-8.22-1.64-1.01-6.83,1.26-6.83,1.26Z"/><path class="cls-3" d="M76.49,59.71s-.02,0-.03,0c-.4-.01-.66-.34-.66-.82,0-1.2-1.49-2.8-2.17-2.8-.37,0-1.45,.57-2.4,1.07-.98,.51-1.82,.96-2.15,.96-.16,0-.38,.03-.61,.06-.66,.08-1.49,.19-1.98-.21-.11-.09-.17-.21-.16-.35,.02-.47,.75-1.11,1.21-1.46-.6,.06-1.65,.11-2.06-.31-.16-.16-.22-.38-.16-.63,.12-.6,.48-1.01,.84-1.28-.22,0-.45-.02-.65-.12-.34-.17-.53-.4-.55-.69-.05-.72,.98-1.48,1.42-1.78,1.11-.74,2.5-2.24,2.51-2.26l.04-.03c.21-.09,5.26-2.29,6.93-1.26,1.72,1.06,2.71,4.4,2.45,8.32-.16,2.48-1.04,3.6-1.8,3.6Zm-2.86-3.84c.86,0,2.39,1.74,2.39,3.02,0,.36,.18,.6,.45,.6,0,0,.01,0,.02,0,.56,0,1.43-.9,1.59-3.39,.24-3.78-.72-7.12-2.35-8.12-1.53-.94-6.35,1.11-6.71,1.26-.16,.17-1.46,1.56-2.53,2.28-.86,.57-1.35,1.16-1.32,1.58,.01,.2,.16,.37,.43,.51,.35,.17,.8,.09,1.1,0,.19-.09,.33-.13,.35-.13l.08,.2s-.14,.07-.33,.13c-.41,.19-1.09,.62-1.25,1.44-.04,.18,0,.33,.11,.44,.42,.42,1.8,.28,2.3,.19l.5-.09-.42,.29c-.4,.28-1.45,1.09-1.47,1.55,0,.07,.02,.13,.08,.17,.43,.34,1.2,.24,1.82,.16,.24-.03,.46-.06,.64-.06,.27,0,1.18-.47,2.05-.93,1.07-.56,2.08-1.09,2.51-1.09Z"/></g><path class="cls-3" d="M77.05,53.81s-.07-.02-.09-.05c-.8-1.32-1.76-1.82-2.42-2-.72-.2-1.26-.09-1.27-.09l-5.03,1.88c-.06,.02-.12,0-.14-.06-.02-.06,0-.12,.06-.14l5.05-1.89s2.32-.47,3.94,2.18c.03,.05,.01,.12-.04,.15-.02,.01-.04,.02-.06,.02Z"/><path class="cls-3" d="M76.92,56.6s-.08-.02-.1-.06c-1.21-2.31-3.17-2.22-3.19-2.22l-4.54,.76c-.06,0-.12-.03-.12-.09,0-.06,.03-.12,.09-.12l4.55-.76s2.12-.1,3.4,2.33c.03,.05,0,.12-.05,.15-.02,0-.03,.01-.05,.01Z"/></g><g><path class="cls-1" d="M74.65,58.01l-3.41,.76,2.02,8.09s1.77,3.54,2.28,5.06c.51,1.52,5.69,6.58,5.69,6.58l6.07-5.82s-2.78-3.29-2.91-4.05c-.13-.76-.63-9.61-.63-10.88s-2.53-4.3-2.53-4.3c0,0-1.04-1.49-1.54-4.02-.51-2.53-2.83-3.57-4.09-3.44-1.26,.13-4.73,.5-6.12,1.52-1.39,1.01-2.66,2.28-1.39,2.66,2.1,.63,5.54-2.17,7.2-.24,.76,.89,1.66,4.79,1.78,5.29,0,0-.63,2.4-2.4,2.78s0,0,0,0"/><path class="cls-3" d="M81.22,78.64l-.08-.07c-.21-.21-5.21-5.09-5.72-6.62-.5-1.49-2.25-5.01-2.27-5.04v-.02s-2.06-8.2-2.06-8.2l2.74-.61h0s.79-.17,.79-.17c1.59-.34,2.24-2.42,2.31-2.68l-.04-.15c-.85-3.53-1.4-4.7-1.72-5.07-.92-1.07-2.4-.62-3.97-.15-1.11,.34-2.27,.69-3.18,.41-.35-.1-.55-.28-.59-.53-.11-.66,1-1.62,1.95-2.32,.97-.71,3.05-1.22,6.18-1.54,1.41-.14,3.71,1.04,4.21,3.53,.5,2.48,1.52,3.96,1.53,3.98,.1,.12,2.55,3.07,2.55,4.36s.51,10.15,.63,10.86c.1,.6,2.12,3.09,2.88,3.99l.07,.08-6.22,5.96Zm-7.86-11.82c.11,.22,1.79,3.6,2.28,5.06,.46,1.38,4.95,5.83,5.59,6.46l5.92-5.67c-.43-.52-2.75-3.3-2.87-4.02-.12-.71-.63-9.57-.63-10.89,0-1.21-2.48-4.2-2.5-4.23-.02-.02-1.06-1.54-1.57-4.07-.47-2.37-2.65-3.49-3.98-3.36-3.09,.31-5.13,.81-6.07,1.5-1.26,.91-1.93,1.68-1.86,2.1,.03,.16,.17,.28,.44,.36,.85,.25,1.97-.09,3.05-.41,1.57-.47,3.19-.97,4.2,.21,.47,.55,1.07,2.29,1.76,5.16l.05,.21v.03c-.03,.1-.68,2.47-2.49,2.86l-3.31,.73,1.99,7.97Z"/></g><g><g><path class="cls-3" d="M61.91,46.25c.08-.08,.21-.1,.3-.03l.52,.36c.11,.07,.13,.22,.06,.33-.07,.11-.22,.13-.33,.06l-.52-.36c-.11-.07-.13-.22-.06-.33,0,0,.01-.02,.02-.03Z"/><path class="cls-3" d="M62.6,47.11c-.07,0-.14-.02-.2-.06l-.52-.36c-.08-.05-.13-.13-.14-.22-.02-.09,0-.18,.06-.26,0-.01,.02-.03,.03-.04h0c.12-.12,.31-.14,.45-.05l.52,.36c.16,.11,.19,.32,.09,.48-.05,.07-.13,.13-.22,.14-.02,0-.04,0-.06,0Zm-.61-.79s0,0-.01,.01c-.02,.03-.03,.06-.02,.09s.02,.06,.05,.08l.52,.36s.06,.03,.1,.02c.03,0,.06-.02,.08-.05,.04-.06,.03-.14-.03-.18l-.52-.36c-.05-.04-.12-.03-.16,.02Z"/></g><g><path class="cls-4" d="M62.51,46.67c.18-.19,.48-.23,.7-.07l1.62,.84,15.91,10.47c.57,.4,.71,1.18,.31,1.75-.4,.57-1.18,.71-1.75,.31l-15.44-11.39-1.26-1.1c-.24-.17-.3-.5-.13-.75,.02-.02,.03-.04,.05-.06Z"/><path class="cls-3" d="M80.01,60.3c-.28,0-.55-.08-.78-.25l-15.44-11.39-1.27-1.1c-.13-.09-.23-.24-.26-.41-.03-.17,0-.34,.11-.48,.02-.03,.04-.05,.06-.07,.22-.23,.58-.27,.84-.09l1.61,.83,15.92,10.47c.3,.21,.5,.52,.57,.88,.06,.36-.01,.72-.22,1.02-.21,.3-.52,.5-.88,.57-.08,.01-.16,.02-.25,.02Zm-17.12-13.69c-.12,0-.23,.05-.31,.13h0s-.03,.03-.04,.05c-.07,.09-.09,.21-.07,.32s.08,.21,.18,.28l1.27,1.1,15.43,11.39c.25,.17,.55,.24,.86,.19,.3-.05,.56-.22,.74-.48,.18-.25,.24-.56,.19-.86-.05-.3-.22-.57-.47-.74l-15.91-10.46-1.61-.83c-.08-.06-.17-.08-.26-.08Zm-.39,.06h0Z"/></g><g><path class="cls-3" d="M80.73,57.9l-4.59-3.02c-.73,.24-1.25,.88-1.25,1.63,0,.07,0,.15,.02,.22l4.39,3.24c.57,.4,1.35,.26,1.75-.31,.4-.57,.26-1.35-.31-1.75Z"/><path class="cls-3" d="M80.01,60.3c-.28,0-.55-.08-.78-.25l-4.43-3.27v-.05c-.02-.09-.02-.16-.02-.23,0-.78,.53-1.47,1.33-1.73l.05-.02,4.64,3.05c.3,.21,.5,.52,.56,.88,.06,.36-.01,.72-.22,1.02-.21,.3-.52,.5-.88,.57-.08,.01-.16,.02-.25,.02Zm-5.01-3.63l4.35,3.21c.25,.17,.55,.24,.86,.19,.3-.05,.56-.22,.74-.48,.18-.25,.24-.56,.19-.86-.05-.3-.22-.56-.47-.74l-4.55-2.99c-.68,.24-1.13,.84-1.13,1.51,0,.05,0,.1,0,.16Z"/></g></g><g><g><path class="cls-1" d="M75.53,71.92c-1.39-2.02-3.16-7.21-3.92-8.22s-2.79-3.25-3.55-5.53-1.25-4.09-1.25-5.98,1.63-2.22,2.89-.2c1.26,2.02,2.8,5.13,2.8,5.13,0,0,1.01,1.26,3.04,.89"/><path class="cls-3" d="M75.53,72.02s-.07-.02-.09-.05c-.78-1.14-1.67-3.25-2.46-5.1-.61-1.44-1.13-2.68-1.46-3.11-.14-.18-.32-.41-.53-.67-.96-1.2-2.42-3.01-3.04-4.89-.8-2.39-1.26-4.14-1.26-6.02,0-.87,.34-1.48,.9-1.65,.69-.2,1.53,.33,2.19,1.39,1.21,1.94,2.69,4.92,2.8,5.13,.1,.12,1.06,1.19,2.92,.84,.06-.01,.12,.03,.13,.09,.01,.06-.03,.12-.09,.13-2.06,.39-3.1-.87-3.14-.92v-.02s-1.56-3.13-2.8-5.12c-.72-1.16-1.48-1.43-1.95-1.29-.47,.13-.75,.67-.75,1.44,0,1.84,.46,3.58,1.25,5.95,.61,1.84,2.05,3.64,3.01,4.82,.21,.26,.39,.49,.53,.67,.34,.46,.87,1.71,1.48,3.16,.78,1.85,1.67,3.94,2.44,5.06,.03,.05,.02,.12-.03,.15-.02,.01-.04,.02-.06,.02Z"/></g><g><path class="cls-1" d="M68.39,51.4l.42,.85s-.1,0-.77,.39c-.67,.39-.98,.95-.98,.95,0,0-.65-1.82-.07-2.4,.17-.17,.36-.25,.53-.28,.36-.05,.72,.16,.88,.49Z"/><path class="cls-3" d="M67.04,53.84l-.08-.23c-.03-.08-.67-1.89-.05-2.51,.17-.17,.37-.28,.59-.31,.4-.06,.8,.16,.99,.55l.5,1h-.18s-.12,.03-.72,.37c-.64,.37-.94,.91-.94,.91l-.12,.21Zm.58-2.84s-.06,0-.09,0c-.17,.02-.33,.11-.46,.24-.38,.38-.15,1.48,.03,2.07,.15-.21,.45-.54,.9-.8,.23-.13,.5-.28,.67-.35l-.37-.74c-.13-.27-.4-.44-.68-.44Z"/></g></g><g><path class="cls-1" d="M85.98,70.09s-3.35,.99-5.09,2.73-3.23,3.72-3.23,3.72l3.1,3.6s2.6-2.98,4.34-4.34c1.74-1.36,3.72-2.48,3.72-2.48l-2.85-3.23Z"/><path class="cls-3" d="M80.77,80.3l-3.24-3.76,.05-.07s1.51-2.01,3.24-3.73c1.74-1.74,4.99-2.72,5.13-2.76l.07-.02,2.99,3.38-.12,.07s-2,1.13-3.71,2.47c-1.71,1.34-4.3,4.3-4.33,4.33l-.08,.09Zm-2.96-3.77l2.96,3.44c.46-.52,2.72-3.04,4.27-4.26,1.48-1.17,3.17-2.16,3.62-2.42l-2.72-3.07c-.48,.15-3.41,1.12-4.97,2.68-1.53,1.53-2.88,3.27-3.16,3.64Z"/></g><g><path class="cls-3" d="M89.08,96.26l-9.8-15.75s2.48-3.72,4.59-5.58,4.84-2.36,4.84-2.36l12.25,11.76"/><path class="cls-3" d="M89.08,96.37s-.07-.02-.09-.05l-9.84-15.81,.04-.06s2.51-3.75,4.61-5.6c2.11-1.86,4.86-2.38,4.89-2.38h.05s.04,.03,.04,.03l12.25,11.76s.04,.11,0,.15c-.04,.04-.11,.04-.15,0l-12.21-11.72c-.39,.08-2.83,.64-4.73,2.32-1.93,1.7-4.21,5.02-4.53,5.5l9.76,15.69c.03,.05,.02,.12-.04,.15-.02,.01-.04,.02-.06,.02Z"/></g><g><path class="cls-3" d="M70.2,56.11c-.05,0-.1-.04-.11-.09,0-.06,.03-.11,.09-.12,.07,0,.14-.02,.21-.02,.06,0,.11,.04,.12,.1,0,.06-.04,.11-.1,.12-.07,0-.14,.01-.2,.02,0,0,0,0-.01,0Z"/><path class="cls-3" d="M68.31,57.16s-.01,0-.02,0c-.06-.01-.1-.07-.09-.12,0-.03,.14-.77,1.59-1.07,.06-.01,.12,.03,.13,.08s-.03,.12-.08,.13c-1.29,.27-1.42,.89-1.42,.9,0,.05-.06,.09-.11,.09Z"/><path class="cls-3" d="M68.74,57.35s-.08-.03-.1-.07c-.02-.06,0-.12,.06-.14,.89-.35,1.01-.62,1.01-.62,.02-.05,.09-.08,.14-.06,.05,.02,.08,.08,.06,.13-.02,.06-.16,.36-1.14,.75-.01,0-.03,0-.04,0Z"/><path class="cls-3" d="M68.42,56.29s-.06-.01-.08-.04c-.04-.05-.03-.11,.01-.15,.53-.44,1.37-.57,1.41-.57,.06,0,.11,.03,.12,.09,0,.06-.03,.11-.09,.12,0,0-.82,.13-1.3,.53-.02,.02-.04,.03-.07,.03Z"/></g></g><g><g><g><path class="cls-1" d="M39.21,34.03s2.05,.17,3.35,.6c1.3,.43,2.58,.44,2.34-.7-.14-.68-1.03-1.12-1.03-1.12,0,0,1.15,.87,2.31,.29,1.15-.58-.95-2.46-.95-2.46,0,0,2.34,.74,2.35-.07,.01-.81-1.06-1.58-1.45-2.07-.39-.5-3.93-1.75-4.39-2.35s-.1-2.81,.9-3.58c1-.78-.34-2.3-3.59-.09-3.25,2.21-5.22,5.02-5.01,6.94,.21,1.92,5.19,4.61,5.19,4.61Z"/><path class="cls-3" d="M43.97,35c-.53,0-1.13-.17-1.44-.28-1.27-.42-3.3-.59-3.32-.59h-.04c-.21-.12-5.03-2.76-5.25-4.71-.22-2.01,1.81-4.84,5.06-7.04,2.08-1.41,3.51-1.39,3.96-.76,.23,.32,.14,.74-.24,1.03-.95,.74-1.3,2.89-.88,3.43,.23,.29,1.34,.8,2.32,1.24,1,.46,1.87,.85,2.07,1.11,.1,.13,.26,.28,.42,.45,.47,.47,1.06,1.06,1.05,1.69,0,.14-.06,.26-.18,.34-.38,.27-1.34,.09-1.9-.06,.42,.43,1.1,1.23,1.02,1.82-.03,.23-.16,.4-.4,.52-.55,.27-1.09,.24-1.52,.12,.14,.17,.26,.36,.3,.59,.08,.38,0,.66-.21,.85-.2,.18-.51,.24-.83,.24Zm-4.73-1.08c.23,.02,2.13,.2,3.35,.6,.98,.33,1.75,.35,2.06,.07,.15-.14,.2-.35,.14-.65-.08-.38-.42-.68-.67-.86-.19-.1-.3-.18-.32-.19l.11-.18s.14,.07,.31,.18c.4,.21,1.16,.48,1.9,.11,.17-.08,.26-.2,.28-.35,.08-.59-.88-1.59-1.26-1.93l-.38-.34,.48,.15c.47,.15,1.75,.47,2.12,.21,.06-.04,.09-.1,.09-.17,0-.54-.55-1.09-.99-1.54-.17-.17-.33-.33-.44-.47-.17-.22-1.1-.64-1.99-1.04-1.1-.5-2.14-.97-2.4-1.31-.53-.68-.09-2.95,.92-3.73,.28-.22,.36-.51,.2-.73-.33-.45-1.57-.6-3.66,.82-3.13,2.13-5.18,4.94-4.97,6.84,.2,1.78,4.77,4.33,5.11,4.52Z"/></g><path class="cls-3" d="M43.07,32.1s-.04,0-.06-.02l-4.59-2.83s-1.8-1.55-.69-4.45c.02-.06,.08-.08,.14-.06,.06,.02,.08,.08,.06,.14-1.05,2.76,.6,4.18,.62,4.19l4.57,2.82c.05,.03,.07,.1,.04,.15-.02,.03-.06,.05-.09,.05Z"/><path class="cls-3" d="M43.73,30.46s-.05,0-.07-.03l-3.39-3.13s-1.38-1.61-.25-4.12c.02-.05,.09-.08,.14-.05,.05,.02,.08,.09,.05,.14-1.08,2.38,.19,3.86,.2,3.88l3.39,3.12s.05,.11,0,.15c-.02,.02-.05,.04-.08,.04Z"/></g><g><path class="cls-1" d="M42.71,24.1l2.69,2.23,5.15-6.57s3.32-1.49,4.2-2.83c.88-1.34,1.62-8.54,1.62-8.54l-8.33-1.15s-.85,4.22-1.37,4.79c-.52,.57-8.76,4.26-9.76,5.03-1,.78-1.84,4.64-1.84,4.64,0,0-.6,2.24-1.74,4.55-1.9,3.85-1.56,3.55-.69,4.47,.88,.92,3.01,2.79,4.66,3.27,1.65,.48,3.71,2.18,3.25,.1-.47-2.14-5.11-3.04-4.6-5.54,.23-1.14,2.76-4.25,3.08-4.66,0,0,2.28-.98,3.67,.19,1.39,1.16,0,0,0,0"/><path class="cls-3" d="M40.21,35.23c-.37,0-.89-.24-1.5-.53-.47-.22-.96-.45-1.43-.59-1.58-.46-3.68-2.23-4.71-3.3-.09-.09-.17-.17-.24-.24-.76-.74-.79-.93,.91-4.36,1.12-2.28,1.73-4.51,1.73-4.53,.03-.15,.86-3.9,1.88-4.69,.5-.39,2.65-1.43,4.93-2.53,2.14-1.04,4.57-2.21,4.82-2.49,.41-.45,1.11-3.57,1.34-4.74l.02-.1,8.53,1.17v.1c-.04,.3-.77,7.25-1.65,8.59-.85,1.3-3.89,2.71-4.22,2.86l-5.2,6.63-2.16-1.79h0s-.62-.51-.62-.51c-1.24-1.04-3.29-.28-3.53-.18l-.1,.12c-2.26,2.84-2.85,4-2.95,4.46-.27,1.32,.97,2.16,2.28,3.06,1.04,.71,2.11,1.44,2.32,2.43,.12,.55,.08,.88-.12,1.04-.09,.07-.2,.1-.33,.1Zm7.92-27.86c-.14,.66-.88,4.2-1.37,4.74-.26,.29-2.1,1.19-4.88,2.54-2.17,1.05-4.41,2.14-4.89,2.51-.96,.74-1.79,4.54-1.8,4.57,0,.03-.62,2.28-1.75,4.58-1.68,3.4-1.58,3.49-.95,4.11,.08,.07,.16,.15,.25,.25,1.01,1.06,3.07,2.8,4.61,3.24,.48,.14,.98,.37,1.46,.6,.67,.32,1.37,.64,1.61,.45,.13-.1,.14-.39,.04-.83-.2-.91-1.24-1.62-2.24-2.3-1.31-.9-2.67-1.82-2.37-3.28,.15-.71,1.15-2.25,2.99-4.56l.13-.17h.03c.1-.05,2.36-1,3.78,.19l2.61,2.16,5.09-6.5h.02s3.31-1.51,4.15-2.8c.79-1.21,1.5-7.5,1.59-8.39l-8.12-1.12Z"/></g><g><g><path class="cls-3" d="M41.25,41.37c-.11-.01-.21-.1-.21-.22l-.03-.63c0-.13,.09-.24,.22-.25,.13,0,.24,.09,.25,.22l.03,.63c0,.13-.09,.24-.22,.25-.01,0-.02,0-.03,0Z"/><path class="cls-3" d="M41.27,41.48s-.02,0-.03,0c-.17-.02-.3-.15-.31-.32l-.03-.63c0-.09,.03-.18,.09-.25,.06-.07,.15-.11,.24-.11,.09,0,.18,.03,.25,.09,.07,.06,.11,.15,.11,.24l.03,.63c.01,.19-.14,.35-.32,.36,0,0-.01,0-.02,0Zm-.03-1.1s0,0,0,0c-.03,0-.06,.02-.09,.04s-.03,.06-.03,.09l.03,.63c0,.06,.05,.11,.11,.12h0s.01,0,.02,0c.07,0,.12-.06,.12-.13l-.03-.63s-.02-.06-.04-.09c-.02-.02-.05-.03-.08-.03Z"/></g><g><path class="cls-4" d="M41.21,40.64c-.26-.02-.47-.24-.49-.51l-.33-1.79-1.5-18.98c-.04-.69,.5-1.29,1.19-1.32,.69-.04,1.29,.5,1.32,1.19l.49,19.18-.09,1.67c.02,.3-.21,.55-.51,.56-.03,0-.05,0-.08,0Z"/><path class="cls-3" d="M41.26,40.75s-.04,0-.06,0h0c-.32-.03-.57-.29-.58-.61l-.33-1.78-1.51-18.99c-.02-.37,.1-.72,.35-.99,.24-.27,.58-.43,.94-.45,.36-.02,.71,.1,.99,.35,.27,.24,.43,.58,.45,.94l.49,19.18-.09,1.68c0,.16-.05,.33-.16,.45-.12,.13-.27,.2-.45,.21-.01,0-.02,0-.04,0Zm-.04-.22s.04,0,.06,0c.11,0,.22-.06,.29-.14s.11-.19,.11-.31l.09-1.68-.49-19.17c-.02-.3-.15-.59-.38-.79-.23-.2-.52-.31-.83-.29-.31,.02-.59,.15-.79,.38s-.31,.52-.29,.83l1.5,18.98,.33,1.78c.01,.22,.18,.4,.39,.42h0Z"/></g><g><path class="cls-3" d="M38.89,19.36l.43,5.48c.64,.43,1.46,.45,2.05,0,.06-.05,.11-.1,.16-.15l-.14-5.46c-.04-.69-.63-1.23-1.32-1.19-.69,.04-1.23,.63-1.19,1.32Z"/><path class="cls-3" d="M40.37,25.28c-.38,0-.77-.12-1.11-.35l-.04-.03v-.05s-.44-5.48-.44-5.48c-.04-.75,.54-1.4,1.29-1.44,.36-.02,.71,.1,.99,.35,.27,.24,.43,.58,.45,.94l.14,5.5-.03,.03c-.06,.06-.12,.11-.17,.16-.31,.24-.68,.36-1.07,.36Zm-.95-.5c.61,.39,1.36,.38,1.88-.03,.04-.03,.08-.06,.12-.11l-.14-5.41c-.02-.3-.15-.59-.38-.79-.23-.2-.52-.31-.83-.29-.31,.02-.59,.15-.79,.38-.2,.23-.31,.52-.29,.83l.43,5.42Z"/></g></g><g><g><path class="cls-1" d="M54.75,16.93c-.72,2.35-3.86,5.58-4.41,6.71-1.71,3.51-2.92,5.43-4.25,7.43-.54,.81-1.13,.93-1.48,1.22-.52,.43-.79,.88-1.68,1.57-1.5,1.16-2.76,.08-1.94-2.16,.82-2.24,2.34-5.36,2.34-5.36,0,0,.38-1.57-1.16-2.94"/><path class="cls-3" d="M41.77,34.44c-.23,0-.45-.07-.63-.2-.58-.43-.68-1.41-.25-2.58,.79-2.15,2.23-5.15,2.33-5.36,.03-.15,.29-1.56-1.13-2.82-.04-.04-.05-.11,0-.15,.04-.05,.11-.05,.15,0,1.57,1.39,1.21,2.98,1.2,3.05v.02s-1.53,3.14-2.34,5.35c-.47,1.28-.22,2.04,.18,2.33,.39,.29,.99,.18,1.59-.29,.52-.4,.82-.72,1.09-1,.19-.2,.37-.39,.59-.57,.11-.09,.25-.17,.39-.25,.33-.19,.71-.4,1.07-.95,1.23-1.85,2.49-3.81,4.24-7.41,.2-.41,.71-1.06,1.35-1.88,1.16-1.48,2.59-3.32,3.05-4.81,.02-.06,.08-.09,.14-.07,.06,.02,.09,.08,.07,.14-.47,1.53-1.92,3.39-3.09,4.88-.61,.78-1.14,1.45-1.33,1.85-1.76,3.62-3.02,5.58-4.26,7.44-.39,.59-.81,.83-1.15,1.01-.14,.08-.26,.15-.36,.23-.21,.17-.38,.35-.57,.55-.27,.29-.58,.61-1.11,1.03-.42,.33-.85,.5-1.22,.5Z"/></g><g><path class="cls-1" d="M41.33,33.1l.41-.85s.06,.08,.78,.37c.72,.3,1.36,.19,1.36,.19,0,0-1.04,1.63-1.85,1.53-.24-.03-.42-.13-.54-.25-.27-.26-.31-.66-.15-1Z"/><path class="cls-3" d="M42.1,34.45s-.06,0-.09,0c-.24-.03-.44-.12-.6-.28-.29-.28-.36-.73-.18-1.12l.48-1.01,.11,.14s.08,.07,.73,.34c.68,.28,1.29,.19,1.3,.19l.24-.04-.13,.2c-.04,.07-1.02,1.59-1.87,1.59Zm-.31-2.05l-.35,.74c-.14,.3-.09,.66,.13,.87,.12,.12,.28,.19,.48,.22,.54,.07,1.26-.79,1.62-1.3-.26,0-.7-.02-1.18-.22-.24-.1-.53-.22-.69-.31Zm-.45,.69h0Z"/></g></g><g><g><path class="cls-3" d="M47.34,.43l-1.73,11.21s2.08,1.83,4.85,2.33c2.77,.5,7.81,1.24,7.81,1.24L62.7,.43"/><path class="cls-3" d="M58.35,15.33h-.09c-.05-.02-5.08-.76-7.82-1.25-2.77-.5-4.88-2.34-4.9-2.35l-.04-.04v-.06S47.23,.41,47.23,.41c0-.06,.07-.1,.12-.09,.06,0,.1,.06,.09,.12l-1.72,11.15c.32,.26,2.27,1.82,4.75,2.27,2.53,.45,7.02,1.12,7.72,1.23L62.59,.4c.02-.06,.08-.09,.14-.07,.06,.02,.09,.08,.07,.14l-4.45,14.87Z"/></g><g><path class="cls-1" d="M57.39,12.7c0,.47-.38,.85-.85,.85s-.85-.38-.85-.85,.38-.85,.85-.85,.85,.38,.85,.85Z"/><path class="cls-3" d="M56.54,13.77c-.59,0-1.07-.48-1.07-1.07s.48-1.07,1.07-1.07,1.07,.48,1.07,1.07-.48,1.07-1.07,1.07Zm0-1.71c-.35,0-.64,.29-.64,.64s.29,.64,.64,.64,.64-.29,.64-.64-.29-.64-.64-.64Z"/></g></g><g><path class="cls-3" d="M43.22,30.43s-.05-.01-.08-.03c-.05-.05-.1-.1-.15-.15-.04-.04-.04-.11,0-.15,.04-.04,.11-.04,.15,0,.05,.05,.1,.1,.14,.14,.04,.04,.04,.11,0,.15-.02,.02-.05,.03-.08,.03Z"/><path class="cls-3" d="M44.89,31.34c-.31,0-.81-.12-1.46-.67-.05-.04-.05-.11-.01-.15,.04-.05,.11-.05,.15-.01,1,.85,1.58,.57,1.58,.57,.05-.03,.12,0,.15,.05,.03,.05,0,.12-.04,.15-.01,0-.14,.07-.37,.07Z"/><path class="cls-3" d="M45.1,30.82s-.04,0-.05-.01c-.82-.48-1.11-.42-1.11-.42-.06,.01-.12-.02-.13-.07-.02-.06,.01-.11,.07-.13,.06-.02,.38-.09,1.29,.44,.05,.03,.07,.1,.04,.15-.02,.03-.06,.05-.09,.05Z"/><path class="cls-3" d="M44.46,31.72s-.02,0-.02,0c-.67-.15-1.29-.73-1.32-.76-.04-.04-.05-.11,0-.15,.04-.04,.11-.04,.15,0,0,0,.61,.57,1.21,.7,.06,.01,.1,.07,.08,.13-.01,.05-.06,.09-.11,.09Z"/></g></g><g><g><g><path class="cls-1" d="M43.81,67.44s.2,2.05,.65,3.34c.45,1.29,.48,2.57-.66,2.35-.69-.13-1.14-1.01-1.14-1.01,0,0,.88,1.14,.32,2.3-.56,1.16-2.48-.92-2.48-.92,0,0,.78,2.33-.03,2.35-.81,.02-1.59-1.04-2.1-1.42-.5-.38-1.81-3.9-2.42-4.36-.61-.46-2.81-.06-3.57,.95s-2.3-.31-.14-3.59c2.16-3.28,4.95-5.3,6.87-5.12,1.92,.18,4.69,5.12,4.69,5.12Z"/><path class="cls-3" d="M40.45,75.96c-.63,0-1.21-.57-1.68-1.03-.17-.16-.32-.32-.46-.42-.26-.2-.67-1.06-1.14-2.06-.46-.97-.98-2.08-1.28-2.3-.27-.2-.92-.22-1.64-.06-.79,.18-1.45,.55-1.78,.99-.29,.38-.7,.49-1.03,.26-.63-.44-.67-1.87,.71-3.97,2.16-3.28,4.96-5.36,6.97-5.17,1.96,.19,4.66,4.97,4.78,5.18v.04s.21,2.05,.66,3.31c.18,.5,.53,1.73,.06,2.27-.19,.22-.48,.29-.85,.22-.22-.04-.42-.16-.59-.3,.12,.43,.16,.97-.1,1.52-.11,.24-.29,.37-.51,.41-.58,.09-1.4-.58-1.83-.99,.15,.56,.35,1.51,.09,1.9-.08,.11-.2,.18-.34,.18,0,0-.02,0-.03,0Zm-5.3-6.18c.38,0,.7,.07,.88,.21,.34,.25,.83,1.29,1.34,2.38,.42,.89,.85,1.81,1.07,1.97,.14,.11,.3,.27,.48,.43,.45,.44,1.02,.99,1.55,.97,.07,0,.13-.03,.17-.09,.26-.37-.08-1.66-.24-2.12l-.16-.48,.34,.37c.34,.37,1.36,1.32,1.95,1.23,.15-.02,.27-.12,.35-.29,.36-.75,.08-1.51-.13-1.9-.12-.16-.18-.29-.19-.3l.18-.12s.1,.13,.2,.31c.18,.25,.49,.59,.87,.66,.3,.06,.51,0,.65-.15,.27-.32,.23-1.09-.11-2.06-.43-1.21-.63-3.11-.65-3.34-.19-.34-2.81-4.88-4.6-5.05-1.9-.18-4.69,1.9-6.77,5.07-1.39,2.11-1.22,3.36-.76,3.68,.23,.16,.51,.08,.73-.21,.36-.48,1.06-.87,1.9-1.07,.33-.08,.65-.12,.93-.12Z"/></g><path class="cls-3" d="M41.83,71.44s-.07-.02-.09-.05l-2.89-4.54h0s-.37-.41-1.05-.68c-.64-.25-1.71-.43-3.14,.14-.06,.02-.12,0-.14-.06-.02-.06,0-.12,.06-.14,2.89-1.15,4.43,.6,4.45,.61l2.9,4.56c.03,.05,.02,.12-.03,.15-.02,.01-.04,.02-.06,.02Z"/><path class="cls-3" d="M40.21,72.12s-.06-.01-.08-.03l-3.18-3.35s-1.51-1.25-3.87-.14c-.05,.03-.12,0-.14-.05-.03-.05,0-.12,.05-.14,1.3-.61,2.34-.53,2.99-.36,.71,.19,1.1,.52,1.12,.54l3.19,3.35s.04,.11,0,.15c-.02,.02-.05,.03-.07,.03Z"/></g><g><path class="cls-1" d="M33.94,71.08l2.27,2.66-6.49,5.24s-3.55,1.76-4.86,2.67c-1.32,.91-8.5,1.82-8.5,1.82l-1.34-8.3s4.2-.95,4.76-1.48,6.29-7.29,7.05-8.3c.76-1.01,4.61-1.91,4.61-1.91,0,0,1.72-.56,3.65-2.28s4.41-1.15,5.34-.28c.93,.86,3.47,3.25,3.98,4.9,.5,1.65,.75,3.42-.49,2.96-2.06-.76-3.11-5.07-5.6-4.52-1.14,.25-4.2,2.83-4.61,3.15,0,0-.94,2.3,.24,3.67,1.19,1.37,0,0,0,0"/><path class="cls-3" d="M16.27,83.6l-1.38-8.5,.1-.02c1.16-.26,4.27-1.04,4.71-1.45,.52-.49,6.25-7.23,7.04-8.29,.78-1.03,4.51-1.91,4.67-1.95,0,0,1.72-.58,3.6-2.25,1.9-1.69,4.45-1.24,5.49-.28,2.31,2.13,3.66,3.8,4.01,4.95,.34,1.12,.65,2.56,.16,3.02-.18,.17-.45,.2-.79,.07-.89-.33-1.6-1.3-2.29-2.24-.97-1.32-1.88-2.57-3.26-2.27-.47,.1-1.61,.71-4.42,3.01l-.12,.1c-.09,.25-.83,2.3,.23,3.53l.53,.61h0s1.82,2.14,1.82,2.14l-6.6,5.33s-3.55,1.77-4.85,2.66c-1.32,.91-8.26,1.8-8.55,1.84h-.1Zm-1.13-8.32l1.31,8.09c.89-.12,7.16-.97,8.35-1.79,1.27-.88,4.65-2.56,4.87-2.67l6.39-5.17-2.2-2.58c-1.21-1.4-.3-3.68-.26-3.78v-.03s.18-.14,.18-.14c2.28-1.87,3.8-2.9,4.51-3.06,1.52-.33,2.51,1.03,3.48,2.36,.67,.91,1.36,1.86,2.19,2.17,.26,.1,.45,.09,.57-.02,.31-.3,.23-1.32-.22-2.8-.34-1.11-1.67-2.74-3.95-4.85-.98-.9-3.39-1.32-5.2,.29-1.92,1.71-3.67,2.29-3.69,2.3-.05,.01-3.83,.91-4.56,1.87-.8,1.06-6.54,7.82-7.06,8.32-.53,.5-4.05,1.33-4.71,1.48Z"/></g><g><g><path class="cls-3" d="M51.18,69.36c-.01-.11-.11-.2-.22-.21l-.63-.02c-.13,0-.24,.1-.24,.23,0,.13,.1,.24,.23,.24l.63,.02c.13,0,.24-.1,.24-.23,0-.01,0-.02,0-.03Z"/><path class="cls-3" d="M50.95,69.73s0,0-.01,0l-.63-.02c-.09,0-.18-.04-.24-.11-.06-.07-.09-.15-.09-.25,0-.09,.04-.18,.11-.24s.15-.09,.25-.09l.63,.02c.17,0,.31,.14,.33,.31h0s0,.03,0,.05c0,.09-.04,.18-.11,.24-.06,.06-.15,.09-.23,.09Zm-.63-.49s-.06,.01-.09,.03c-.02,.02-.04,.05-.04,.09,0,.03,.01,.07,.03,.09,.02,.02,.05,.04,.09,.04l.63,.02s.07-.01,.09-.03c.02-.02,.04-.05,.04-.09l.11-.03h-.11c0-.05-.06-.1-.12-.1l-.63-.02s0,0,0,0Z"/></g><g><path class="cls-4" d="M50.46,69.34c-.03-.26-.24-.47-.51-.48l-1.8-.31-19-1.22c-.69-.03-1.28,.51-1.31,1.21-.03,.69,.51,1.28,1.21,1.31l19.19,.2,1.67-.11c.3,.01,.54-.22,.56-.51,0-.03,0-.05,0-.08Z"/><path class="cls-3" d="M48.24,70.15l-19.19-.2c-.37-.01-.71-.17-.95-.44-.25-.27-.38-.62-.36-.98,.01-.36,.17-.7,.44-.95,.27-.25,.61-.38,.98-.36l19.01,1.22,1.81,.31c.3,.01,.57,.26,.6,.57,0,.03,0,.06,0,.09,0,.17-.08,.33-.21,.45-.13,.12-.29,.18-.46,.17l-1.66,.11Zm-19.15-2.72c-.29,0-.56,.11-.78,.31-.23,.21-.36,.49-.37,.8-.01,.31,.1,.6,.3,.82,.21,.23,.49,.36,.8,.37l19.18,.2,1.66-.11c.25,.01,.45-.18,.46-.41,0-.02,0-.04,0-.06h0c-.02-.21-.2-.37-.41-.38l-1.81-.31-18.99-1.22s-.03,0-.04,0Z"/></g><g><path class="cls-3" d="M29.15,67.33l5.48,.35c.44,.63,.47,1.45,.02,2.05-.04,.06-.09,.11-.15,.16l-5.46-.06c-.69-.03-1.24-.61-1.21-1.31,.03-.69,.61-1.24,1.31-1.21Z"/><path class="cls-3" d="M34.55,70.01l-5.5-.06c-.37-.01-.71-.17-.95-.44-.25-.27-.38-.62-.36-.98,.03-.75,.66-1.34,1.42-1.31h0s5.54,.36,5.54,.36l.03,.04c.48,.69,.49,1.56,.02,2.18-.04,.06-.09,.11-.16,.18l-.03,.03Zm-5.45-2.57c-.61,0-1.12,.49-1.15,1.1-.01,.31,.1,.6,.3,.82,.21,.23,.49,.36,.8,.37l5.41,.06s.07-.08,.1-.12c.4-.53,.4-1.28,0-1.88l-5.43-.35s-.03,0-.04,0Z"/></g></g><g><g><path class="cls-1" d="M24.86,81.66c2.33-.78,6.86-3.85,8.08-4.2s4.19-.91,6.16-2.27c1.98-1.36,3.46-2.51,4.6-4.02,1.14-1.51,.04-2.76-2.19-1.9-2.23,.85-5.32,2.42-5.32,2.42,0,0-1.57,.4-2.96-1.12"/><path class="cls-3" d="M24.86,81.76s-.09-.03-.1-.07c-.02-.06,.01-.12,.07-.14,1.29-.43,3.26-1.57,5-2.58,1.36-.79,2.54-1.47,3.09-1.63,.22-.06,.5-.14,.83-.22,1.48-.37,3.7-.94,5.3-2.04,2.06-1.42,3.47-2.53,4.58-4,.46-.61,.56-1.21,.27-1.6s-1.06-.63-2.33-.14c-2.2,.84-5.28,2.4-5.31,2.41h-.02c-.07,.03-1.65,.41-3.06-1.14-.04-.04-.04-.11,0-.15,.04-.04,.11-.04,.15,0,1.27,1.39,2.7,1.12,2.84,1.09,.21-.11,3.18-1.59,5.32-2.41,1.16-.44,2.15-.36,2.58,.21,.35,.47,.25,1.16-.27,1.86-1.13,1.5-2.55,2.62-4.63,4.05-1.63,1.12-3.88,1.69-5.37,2.07-.32,.08-.6,.15-.82,.22-.52,.15-1.69,.83-3.04,1.61-1.74,1.01-3.72,2.16-5.04,2.59-.01,0-.02,0-.03,0Z"/></g><g><path class="cls-1" d="M42.91,69.57l-.85,.42s.08,.06,.38,.77c.31,.71,.21,1.35,.21,1.35,0,0,1.62-1.06,1.5-1.87-.03-.24-.13-.41-.25-.54-.26-.26-.67-.3-1-.14Z"/><path class="cls-3" d="M42.52,72.34l.03-.24s.08-.62-.2-1.3c-.27-.63-.36-.73-.36-.74l-.14-.11,.17-.07,.85-.42c.39-.19,.84-.13,1.12,.16,.15,.16,.25,.36,.28,.6,.12,.87-1.48,1.93-1.55,1.98l-.2,.13Zm-.3-2.31c.09,.16,.22,.44,.32,.69,.21,.48,.24,.92,.24,1.18,.5-.36,1.35-1.1,1.27-1.64-.03-.19-.1-.35-.22-.47-.22-.22-.58-.27-.87-.12l-.74,.37Zm.69-.46h0Z"/></g></g><g><path class="cls-1" d="M19.32,73.39s2.08,2.81,2.42,5.24c.34,2.43,.33,4.91,.33,4.91l-6.34,1.52s-.29-3.95-.85-6.08c-.57-2.13-1.48-4.22-1.48-4.22l5.92-1.37Z"/><path class="cls-3" d="M15.63,85.2v-.13s-.3-3.96-.86-6.06c-.56-2.1-1.46-4.18-1.47-4.21l-.05-.12,6.11-1.42,.04,.06c.09,.12,2.1,2.86,2.44,5.29,.34,2.41,.34,4.9,.34,4.93v.09s-6.55,1.57-6.55,1.57Zm-2.08-10.36c.2,.48,.95,2.29,1.43,4.12,.5,1.9,.79,5.28,.85,5.97l6.13-1.47c0-.46-.03-2.67-.33-4.81-.31-2.19-2.06-4.72-2.36-5.13l-5.72,1.33Z"/></g><g><g><path class="cls-3" d="M19.61,78.29c-.56-2.76-2.44-4.79-2.44-4.79l-15,2.39v16.95l17.75-7.32s.26-4.46-.3-7.22Z"/><path class="cls-3" d="M2.05,93v-17.21l15.15-2.41,.04,.04s1.91,2.09,2.47,4.85c.56,2.74,.31,7.2,.31,7.25v.07s-.07,.03-.07,.03l-17.9,7.39Zm.22-17.02v16.7l17.54-7.24c.03-.57,.21-4.6-.31-7.12h0c-.51-2.48-2.11-4.39-2.38-4.7l-14.85,2.36Zm17.64,9.53h0Z"/></g><path class="cls-1" d="M15.59,85.66c0,.37-.3,.66-.66,.66s-.66-.3-.66-.66,.3-.66,.66-.66,.66,.3,.66,.66Z"/><path class="cls-1" d="M17.45,84.86c0,.37-.3,.66-.66,.66s-.66-.3-.66-.66,.3-.66,.66-.66,.66,.3,.66,.66Z"/></g><g><path class="cls-3" d="M38.7,72.27s-.06-.01-.08-.03c-.05-.05-.1-.09-.15-.14-.04-.04-.05-.11,0-.15,.04-.04,.11-.05,.15,0,.05,.05,.1,.1,.15,.15,.04,.04,.04,.11,0,.15-.02,.02-.05,.03-.08,.03Z"/><path class="cls-3" d="M39.58,74.25s-.03,0-.05-.01c-.05-.03-.07-.09-.05-.15,0-.01,.26-.59-.6-1.57-.04-.05-.03-.11,.01-.15,.04-.04,.11-.04,.15,.01,.97,1.11,.64,1.79,.63,1.82-.02,.04-.06,.06-.1,.06Z"/><path class="cls-3" d="M39.11,74.14s-.07-.02-.09-.05c-.54-.9-.47-1.23-.46-1.28,.02-.06,.08-.09,.14-.07,.06,.02,.09,.08,.07,.13,0,.01-.05,.31,.43,1.11,.03,.05,.01,.12-.04,.15-.02,.01-.04,.02-.06,.02Z"/><path class="cls-3" d="M40.01,73.48s-.09-.03-.11-.08c-.14-.61-.72-1.2-.72-1.2-.04-.04-.04-.11,0-.15,.04-.04,.11-.04,.15,0,.03,.03,.62,.64,.78,1.31,.01,.06-.02,.12-.08,.13,0,0-.02,0-.02,0Z"/></g></g></svg>