<?xml version="1.0" encoding="UTF-8"?><svg xmlns="http://www.w3.org/2000/svg" xmlns:xlink="http://www.w3.org/1999/xlink" viewBox="0 0 157.12 108.79"><defs><style>.cls-1,.cls-2,.cls-3,.cls-4,.cls-5,.cls-6,.cls-7,.cls-8,.cls-9,.cls-10,.cls-11,.cls-12,.cls-13,.cls-14,.cls-15,.cls-16,.cls-17,.cls-18,.cls-19,.cls-20,.cls-21,.cls-22,.cls-23,.cls-24,.cls-25,.cls-26,.cls-27,.cls-28{fill:none;}.cls-1,.cls-2,.cls-3,.cls-4,.cls-5,.cls-6,.cls-7,.cls-8,.cls-10,.cls-11,.cls-12,.cls-13,.cls-14,.cls-15,.cls-16,.cls-17,.cls-18,.cls-19,.cls-20,.cls-23,.cls-24,.cls-25,.cls-26,.cls-27,.cls-28{stroke-linecap:round;stroke-linejoin:round;}.cls-1,.cls-6{stroke:#75597c;}.cls-1,.cls-26{stroke-width:.54px;}.cls-2{stroke-width:.55px;}.cls-2,.cls-4,.cls-5,.cls-8,.cls-9,.cls-11,.cls-12,.cls-13,.cls-14,.cls-15,.cls-16,.cls-17,.cls-18,.cls-19,.cls-21,.cls-22,.cls-23,.cls-24,.cls-25,.cls-28{stroke:#3a2049;}.cls-3{stroke:#d05d6a;}.cls-3,.cls-4,.cls-27{stroke-width:.28px;}.cls-5,.cls-6{stroke-width:.56px;}.cls-7{stroke-width:.37px;}.cls-7,.cls-20,.cls-26{stroke:#854b61;}.cls-8{stroke-width:.38px;}.cls-29{fill:#f5cec3;}.cls-30{fill:#ef8d9c;}.cls-31{fill:#fed1a9;}.cls-32{fill:#feae8b;}.cls-33{fill:#664e6f;}.cls-34{fill:#854b61;}.cls-35{fill:#d05d6a;}.cls-36{fill:#cc6577;}.cls-37{fill:#86c2ba;}.cls-38{fill:#3a2049;}.cls-39{fill:#75597c;}.cls-40{fill:#783f56;}.cls-9,.cls-21,.cls-22{stroke-miterlimit:10;}.cls-9,.cls-25{stroke-width:2.25px;}.cls-10{stroke:#f5cec3;}.cls-10,.cls-11{stroke-width:.27px;}.cls-12{stroke-width:.31px;}.cls-41{fill:url(#linear-gradient);}.cls-41,.cls-42,.cls-43,.cls-44,.cls-45,.cls-46,.cls-47,.cls-48,.cls-49,.cls-50,.cls-51{mix-blend-mode:multiply;}.cls-41,.cls-42,.cls-43,.cls-49,.cls-50,.cls-51{opacity:.76;}.cls-13{stroke-width:.31px;}.cls-14{stroke-width:.3px;}.cls-42{fill:url(#linear-gradient-10);}.cls-43{fill:url(#linear-gradient-11);}.cls-15{stroke-width:.27px;}.cls-44{fill:url(#linear-gradient-6);}.cls-44,.cls-45,.cls-46,.cls-47,.cls-48{opacity:.57;}.cls-45{fill:url(#linear-gradient-7);}.cls-46{fill:url(#linear-gradient-5);}.cls-47{fill:url(#linear-gradient-3);}.cls-48{fill:url(#linear-gradient-2);}.cls-49{fill:url(#linear-gradient-9);}.cls-50{fill:url(#linear-gradient-8);}.cls-51{fill:url(#linear-gradient-4);}.cls-16{stroke-width:.26px;}.cls-17{stroke-width:.52px;}.cls-18{stroke-width:.26px;}.cls-19{stroke-width:.53px;}.cls-20{stroke-width:.47px;}.cls-21,.cls-24{stroke-width:2.14px;}.cls-22{stroke-width:2.1px;}.cls-23{stroke-width:.22px;}.cls-52{isolation:isolate;}.cls-27{stroke:#feae8b;}.cls-28{stroke-width:2.24px;}</style><linearGradient id="linear-gradient" x1="437.2" y1="28.08" x2="437.31" y2="24.74" gradientTransform="translate(490.77 4.95) rotate(-178.64) scale(1 -1)" gradientUnits="userSpaceOnUse"><stop offset="0" stop-color="#ef8d9c" stop-opacity="0"/><stop offset="1" stop-color="#cc6577" stop-opacity=".4"/></linearGradient><linearGradient id="linear-gradient-2" x1="48.78" y1="12.35" x2="54.12" y2="7.6" gradientTransform="translate(.79 8.6) rotate(-2.19)" xlink:href="#linear-gradient"/><linearGradient id="linear-gradient-3" x1="54.43" y1="11.61" x2="58.47" y2="8.03" gradientTransform="translate(.79 8.6) rotate(-2.19)" xlink:href="#linear-gradient"/><linearGradient id="linear-gradient-4" x1="76.3" y1="35.24" x2="76.39" y2="32.52" gradientTransform="matrix(1, 0, 0, 1, 0, 0)" xlink:href="#linear-gradient"/><linearGradient id="linear-gradient-5" x1="101.63" y1="85.4" x2="97.87" y2="81.64" gradientTransform="translate(-2.76 -73.96) rotate(12.58)" xlink:href="#linear-gradient"/><linearGradient id="linear-gradient-6" x1="97.14" y1="78.77" x2="94" y2="75.63" gradientTransform="translate(-6.98 -65.75) rotate(11.07)" xlink:href="#linear-gradient"/><linearGradient id="linear-gradient-7" x1="128.31" y1="42.39" x2="124.4" y2="38.47" gradientTransform="translate(2.58 -8.14) rotate(1.51)" xlink:href="#linear-gradient"/><linearGradient id="linear-gradient-8" x1="129.66" y1="39.83" x2="128.17" y2="38.34" gradientTransform="matrix(1, 0, 0, 1, 0, 0)" xlink:href="#linear-gradient"/><linearGradient id="linear-gradient-9" x1="99.12" y1="43.49" x2="99.12" y2="42.53" gradientTransform="matrix(1, 0, 0, 1, 0, 0)" xlink:href="#linear-gradient"/><linearGradient id="linear-gradient-10" x1="91.84" y1="66.45" x2="93.76" y2="57.49" gradientUnits="userSpaceOnUse"><stop offset="0" stop-color="#ef8d9c" stop-opacity="0"/><stop offset=".21" stop-color="#ed8a99" stop-opacity=".02"/><stop offset=".44" stop-color="#e78493" stop-opacity=".09"/><stop offset=".68" stop-color="#dd7989" stop-opacity=".2"/><stop offset=".93" stop-color="#d0697b" stop-opacity=".35"/><stop offset="1" stop-color="#cc6577" stop-opacity=".4"/></linearGradient><linearGradient id="linear-gradient-11" x1="91.5" y1="58.94" x2="96.12" y2="34.24" xlink:href="#linear-gradient-10"/></defs><g class="cls-52"><g id="Camada_1"><g><ellipse class="cls-29" cx="79.6" cy="91.64" rx="64.89" ry="9.27"/><g><g><g><polygon class="cls-36" points="52.56 81.55 52.62 83.09 55.17 82.9 55.2 81.3 52.56 81.55"/><path class="cls-39" d="M52.43,82.91l.64,.13s1.15-.77,1.79-.61c.64,.16,.62,.37,.97,.9,.35,.53,3.94,3.01,4.19,3.82,.24,.8-.29,1.04-.92,1.12-.63,.08-5.01-.89-5.46-.88s-2.02,.11-2.1-.61c-.09-.72,.91-3.86,.91-3.86Z"/></g><g><polygon class="cls-36" points="43.33 80.5 43.39 82.03 40.83 82.04 40.67 80.45 43.33 80.5"/><path class="cls-39" d="M43.56,81.85l-.63,.17s-1.2-.68-1.83-.47c-.63,.2-.59,.41-.9,.97-.31,.55-3.7,3.31-3.88,4.13-.18,.82,.37,1.01,1,1.05s4.92-1.27,5.38-1.29c.45-.02,2.02-.05,2.05-.77,.03-.72-1.2-3.78-1.2-3.78Z"/></g><g><path class="cls-34" d="M44.15,44.61s-3.51,17.5-3.63,20.71c-.12,3.22-.54,15.37-.54,15.37h4.02s2.16-12.94,2.59-14.32c.43-1.38,3.93-12.77,3.93-12.77,0,0,1.72,13.36,1.67,14.32-.04,.97-.11,13.83-.11,13.83l3.85-.23s1.85-16.87,1.8-20.24,.12-15.68,.12-15.68l-13.7-1Z"/><g><path class="cls-2" d="M53.01,49.2s-2.21,3.58-2.43,4.19l-.22,.61s-3.97,12.75-4.12,13.72c-.14,.97-2.24,12.99-2.24,12.99"/><path class="cls-2" d="M52.5,44.53c-.05,1.02-.04,2.03,.01,3.05,0,.15,.02,.31,.09,.45s.21,.25,.36,.24c.14,0,.26-.12,.32-.24,.06-.13,.07-.27,.08-.41,.08-1,.09-2,.04-3.01"/><path class="cls-11" d="M51.3,51.92c2.09,9.73,2.63,19.88,1.6,29.77"/><path class="cls-11" d="M55.38,45.3c.31,2.12,1.14,4.15,2.4,5.88"/><path class="cls-11" d="M43.18,50.34c2.13-1.15,3.72-3.26,4.24-5.63"/></g></g></g><g><g><g><g><path class="cls-36" d="M62.7,34.83c.43-.31,.73-.76,1-1.21,.28-.45,.54-.75,.95-1.09,.42-.34,1.41-.64,1.5-.46,.5,1.01,2.21-.18,3.31-.45,.2-.05,.44-.1,.59,.04,.13,.12,.13,.33,.08,.5-.09,.36-.32,.67-.63,.87-.87,.55-1.93,.72-2.89,1.09-1.16,.44-1.92,1.61-2.8,2.48-.56-.43-.82-1.13-1.11-1.78Z"/><path class="cls-36" d="M66.81,30.19c.03-.08,.09-.18,.18-.17,.08,0,.18,.1,.2,.18,.14,.56-.01,1.12-.04,1.69-.02,.31-.12,.69-.25,.97-.13,.28-.22,.48-.53,.51-.23,.02-.57-.13-.62-.37-.05-.23,.2-.61,.28-.83,.26-.66,.52-1.31,.78-1.97Z"/><path class="cls-36" d="M68.56,29.79c.29-.5,.8-.83,1.28-1.15,.11-.07,.24-.15,.37-.11,.16,.05,.22,.24,.24,.4,.12,.86-.08,1.72-.21,2.58-.07,.5-.14,1.06-.52,1.39-.24,.21-.56,.29-.88,.36-.48,.1-1.49,.03-1.32-.73,.05-.24,.25-.46,.36-.68,.15-.3,.23-.64,.3-.97,.09-.37,.17-.76,.37-1.09Z"/></g><path class="cls-12" d="M69.21,29.08s.05,1.94-.22,2.76-.47,1.04-.47,1.04"/><path class="cls-12" d="M69.87,28.66s.02,2.24-.13,2.95-.33,1.05-.33,1.05"/></g><path class="cls-12" d="M66.09,32.05s-.18,.63-.29,.83"/></g><path class="cls-37" d="M60.57,25.3l1.68,8.13,1.29-.85,2,3.9s-4.79,4.04-5.44,3.83c-.65-.22-2.53-3.12-2.53-3.12l3-11.89Z"/><g><line class="cls-11" x1="63.54" y1="32.58" x2="59.68" y2="35.32"/><line class="cls-11" x1="62.91" y1="33.02" x2="64.93" y2="36.98"/><path class="cls-11" d="M58.61,38.7c.52-.29,1.15-.37,1.72-.22,.57,.15,1.08,.53,1.39,1.04"/></g></g><g><g><path class="cls-36" d="M50.7,18.89c.01,.45-.31,1.23-.37,1.58,0,0,.9,4.36,3.07,4.37,1.5,.01,2.24-2.13,2.24-2.13l-.22-1.68-.22-1.7-4.21-2.05-.44-.21s.02,.12,.04,.31c.04,.34,.1,.92,.11,1.51Z"/><path class="cls-41" d="M50.59,17.37c.04,.34,.1,.92,.11,1.51,.47,.79,1.1,1.47,1.82,1.98,.43,.3,.91,.54,1.42,.61,.51,.07,1.06-.06,1.45-.42,.01-.01,.02-.02,.03-.03l-.22-1.7-4.21-2.05c-.14,.01-.28,.03-.4,.1Z"/></g><g><path class="cls-39" d="M57.85,16.32c.08-.19,.06-.4,.08-.6,.03-.31,.16-.61,.26-.91,.1-.3,.17-.62,.08-.93s-.37-.57-.68-.53c-.32,.04-.53,.35-.64,.65-.2,.55-.2,1.16-.01,1.71,.1,.3,.58,1.37,.91,.6Z"/><path class="cls-39" d="M49.26,10.31c-.2,.38-.09,.84-.14,1.27-.06,.48-.33,.9-.55,1.34-.21,.44-.37,.94-.2,1.39,.16,.42,.58,.72,.68,1.15,.06,.27,0,.55,0,.82,.02,.44,.24,.85,.57,1.15,.33,.3,.75,.49,1.19,.6,.32,.08,.68,.11,.96-.06,.35-.2,.46-.63,.53-1.01,.23-1.2,.36-2.42,.23-3.63-.1-.93-.37-1.83-.83-2.65-.3-.54-.53-1.06-1.26-1.01-.46,.03-.98,.22-1.19,.65Z"/></g><path class="cls-36" d="M57.72,14.92c0,.14,0,.27,0,.41-.02,.88-.22,2.05-.57,2.87,0,.02-.02,.05-.03,.07-.4,.87-.76,1.48-1.64,1.89-.81,.37-1.86,.2-2.68-.12-1.77-.68-2.65-2.64-2.82-4.38-.02-.24-.03-.49-.03-.74,.01-1.47,.51-2.96,1.69-3.89,.94-.74,2.22-.97,3.37-.62,.94,.28,1.7,1.05,2.14,1.91,.19,.37,.32,.76,.41,1.17,.03,.13,.06,.26,.08,.4,.02,.14,.04,.29,.06,.43,.02,.2,.03,.4,.03,.6Z"/><g><g><path class="cls-36" d="M50.9,15.53s-.99-1.54-1.92-1.25c-.92,.29-.15,2.71,.74,2.8,.9,.09,1.25-.51,1.25-.51l-.08-1.04Z"/><g><path class="cls-13" d="M49.2,14.95c.37,.39,.62,.88,.72,1.41"/><path class="cls-13" d="M49.57,15.47c-.16,.18-.23,.4-.25,.64"/></g></g><g><g><g><path class="cls-38" d="M56.13,14.35c-.36,.69,.21,1.27,.4,1.91,.24,.65-.5,1.22-1.04,1.15-.17,0-.25-.22-.12-.33,.22-.18,.43-.37,.47-.49,.09-.3-.4-1.09-.29-1.49-.03-.24,.31-1.03,.58-.84,.02,.03,.01,.06,0,.09h0Z"/><path class="cls-38" d="M54.79,16.8s-.13,.23-.06,.23c0-.02-.02-.02,.02-.04,.11-.1,.3-.28,.44-.11,.05,.07,.07,.23,.1,.31,.08,.3-.38,.42-.46,.12-.01-.04-.01-.2-.01-.24,0,0,.32,.15,.32,.15-.16,.09-.46,.26-.65,.02-.21-.2,.14-.75,.3-.61,.05,.05,.04,.12,0,.17h0Z"/></g><path class="cls-38" d="M54.4,15.2c-.02,.19-.19,.32-.38,.3-.19-.02-.32-.19-.3-.38,.02-.19,.19-.32,.38-.3,.19,.02,.32,.19,.3,.38Z"/><path class="cls-38" d="M56.99,15.16c-.02,.18-.18,.3-.36,.28-.18-.02-.3-.18-.28-.36,.02-.18,.18-.3,.36-.28,.18,.02,.3,.18,.28,.36Z"/></g><g><path class="cls-38" d="M52.8,14.07c-.06,.12-.09,.27,.03,.37,.11,.09,.3,.08,.46,.05,.41-.05,.82-.11,1.23-.16,.08-.01,.18-.03,.23-.08,.08-.08,.04-.19-.02-.28-.18-.26-.61-.47-1-.47-.38,0-.79,.3-.93,.57Z"/><path class="cls-38" d="M57.68,14.32c-.36-.02-.71-.04-1.07-.06-.08,0-.16-.01-.22-.06-.08-.06-.05-.17,0-.25,.15-.25,.52-.47,.87-.49,.09,0,.19,0,.28,.03,.03,.13,.06,.26,.08,.4,.02,.14,.04,.29,.06,.43Z"/></g><g><path class="cls-19" d="M53.41,17.62s1.28,.9,2.48,.31"/><path class="cls-18" d="M54.22,18.58s.52,.21,.97,.12"/></g><path class="cls-48" d="M54.07,16.84c.04,1-.74,1.84-1.74,1.88-1,.04-1.84-.74-1.88-1.74-.04-1,.74-1.84,1.74-1.88,1-.04,1.84,.74,1.88,1.74Z"/><path class="cls-47" d="M57.72,14.92c0,.14,0,.27,0,.41-.02,.88-.22,2.05-.57,2.87-.48-.31-.8-.84-.82-1.45-.03-.88,.57-1.64,1.4-1.83Z"/></g></g><path class="cls-39" d="M59.04,11.01c-.33-.43-.89-.67-1.14-1.15-.16-.31-.17-.68-.29-1.01-.28-.77-1.09-1.2-1.87-1.45-.5-.17-1.08-.29-1.55-.04-.2,.11-.37,.27-.58,.35-.42,.15-.87-.1-1.32-.12-.65-.02-1.25,.48-1.47,1.1-.18,.51-.18,1.25,.02,1.8-.35,.09-.67,.34-.8,.68-.15,.38-.07,.82-.19,1.22-.11,.37-.37,.69-.42,1.07-.04,.32,.08,.64,.27,.91,.12,.16,.3,.4,.51,.52,.05,.31,.16,.64,.31,.86,.06,.09,.15,.18,.26,.18,.16,0,.25-.18,.3-.33,.12-.34,.24-.69,.3-1.05,.04-.25,.04-.51-.01-.75,.01-.11,.03-.22,.07-.32,.12-.31,.42-.52,.62-.79,.26-.34,.37-.79,.28-1.2,.02,0,.04,0,.06,0,.4-.09,.72-.39,1.08-.57,.37-.18,.91-.18,1.09,.18,.16,.32-.05,.76,.14,1.06,.14,.22,.43,.28,.69,.25,.26-.03,.5-.13,.76-.15s.55,.06,.67,.29c.18,.34-.15,.77-.03,1.14,.11,.37,.58,.47,.96,.52,.35,.04,.79,.04,.96-.27,.11-.19,.06-.44,.1-.65,.05-.31,.27-.56,.39-.85,.19-.46,.12-1.01-.18-1.41Z"/></g><g><path class="cls-37" d="M50.54,19.42s1.02,1.47,1.51,2.38c.41,.77,1.35,2.15,1.35,2.15l2.03-2.93,1.09,1.82-3.31,8.11-4.94-9.4,1.16-1.07,1.1-1.07Z"/><polyline class="cls-11" points="51.36 25.73 53.4 23.95 54.96 25.69"/></g><path class="cls-38" d="M49.43,20.49l3.76,10.01,3.06-8.26,4.32,3.05s-2.34,10.8-2.41,12.07c-.07,1.27-.15,8.57-.15,8.57l-14.57-1.13s1.87-7.91,1.77-8.87c-.1-.96-.08-3.55-.08-3.55,0,0-.84-7.74-1.11-8.52l5.42-3.37Z"/><g><path class="cls-10" d="M44.45,23.57c1.69,4.05,1.55,8.6,1.2,12.97-.21,2.7-.49,5.4-.84,8.09"/><path class="cls-10" d="M58.72,34.03c.45-3.11,.89-6.13,1.34-9.24"/><path class="cls-10" d="M48.93,20.79c.77,2.29,1.53,4.58,2.3,6.87,.48,1.43,.97,2.89,1.86,4.11,1.49-2.93,2.69-6.01,3.57-9.18"/></g><g><g><path class="cls-36" d="M46.67,36.45s1.12,.11,1.39,.07,3.02-1.35,3.42-1.16c.4,.2-1.38,1.65-1.38,1.65,0,0,.7,.06,1.12,.02,.42-.05,2.99-.45,3.09-.21,0,0,.19,.25-.09,.5,0,0,.24,.21,.14,.79-.08,.49-.67,.63-.67,.63,0,0,.13,.09,.06,.25-.07,.16-1.16,.77-2.43,.73-1.34-.04-3.05-.56-3.05-.56l-2.19-.49,.59-2.28"/><g><path class="cls-11" d="M51.3,37.72s2.41-.1,2.96-.39"/><path class="cls-11" d="M51.38,38.41s2.49-.21,2.98-.47"/><path class="cls-11" d="M53.68,38.74s-1.48,.4-2.14,.32"/></g></g><g><path class="cls-37" d="M44.02,23.86s-5.24,7.33-5.34,11.2c0,0-.48,2.07,3.33,3.05,3.82,.98,4.01,.81,4.01,.81l.77-3-2.76-1.74,1.3-1.82s.06-6.75-1.31-8.49Z"/><g><line class="cls-11" x1="42.14" y1="33" x2="46.79" y2="35.91"/><line class="cls-11" x1="46.25" y1="35.59" x2="45.14" y2="38.86"/><path class="cls-11" d="M38.79,34.1c1.2,.66,1.87,2.12,1.75,3.48"/></g></g></g></g><g><g><path class="cls-38" d="M86.15,59.36c-.03-.06-.09-.11-.14-.16-.05-.06-.11-.11-.16-.17-.14-.15-.29-.3-.43-.45-.16-.16-.31-.33-.47-.49-.13-.13-.25-.26-.38-.39-.05-.06-.11-.11-.16-.17,0,0-14.03-.19-13.97-.14l-3.22,1.72c-.29,.16-.47,.42-.47,.7v.54c0,.42,.42,.76,.93,.76h17.58c.51,0,.93-.34,.93-.76,0-.22-.01-.44-.02-.66,0-.1,0-.2-.01-.29,0-.01,0-.03-.01-.04Z"/><path class="cls-38" d="M76.89,33.04h0c4.57,0,8.28,3.71,8.28,8.28v12.59c0,1.28-1.04,2.32-2.32,2.32h-11.93c-1.28,0-2.32-1.04-2.32-2.32v-12.59c0-4.57,3.71-8.28,8.28-8.28Z"/><g><line class="cls-24" x1="69" y1="60.7" x2="67.17" y2="81.17"/><line class="cls-24" x1="84.68" y1="60.7" x2="86.52" y2="81.17"/></g></g><g><g><path class="cls-39" d="M88.17,47.09s0-.05-.01-.07c-.22-1.36-.7-3.07-1.28-5.26-.66-2.49-1.62-4.01-2.23-4.77,0,0,0,0,0,0-.03-.04-.06-.08-.09-.12-.28-.34-.46-.5-.46-.5,0,0-2.37-1.66-3.91-2.25l-1.54-.59-4.5,.59s-2.99,1.13-4.38,2.59c-.03,.03-.07,.07-.1,.1-.13,.15-.25,.31-.35,.46-.46,.7-1.73,2.85-2.22,5.94-.28,1.81-.51,3.2-.61,4.28,0,.04,0,.08-.01,.13h0c-.1,1.11-.06,1.89,.19,2.46,.51,1.14,5.48,2.96,5.48,2.96l.36-.6c1.18,.78,3.15,1.48,5.36,1.33,2.1-.14,3.56-.91,4.39-1.49,.02-.01,.03-.02,.05-.03l1.17,1.11s.02,0,.05-.03c.33-.17,2.19-1.13,3.46-2.23,.03-.03,.06-.05,.09-.08,.52-.47,.93-.95,1.06-1.41,.2-.69,.19-1.51,.03-2.52Zm-17.29,.95l-.05-.04-.41-.36,.03-.07,.25-.64c.03,.19,.06,.37,.09,.55h0c.02,.16,.05,.3,.07,.44h0s.01,.09,.02,.13Zm12.76-1.92l.03,.11,.46,1.68,.02,.08-.68,.67-.1,.1s0-.07,.01-.11c.08-.78,.17-1.66,.26-2.54Z"/><g><path class="cls-38" d="M70.9,48.09s-.06-.02-.06-.05l-.62-7.52s.02-.06,.05-.06c.03,0,.06,.02,.06,.05l.62,7.52s-.02,.06-.05,.06c0,0,0,0,0,0Z"/><path class="cls-38" d="M70.48,43.42s-.05-.02-.06-.04l-.53-1.8s0-.06,.04-.07c.03,0,.06,0,.07,.04l.53,1.8s0,.06-.04,.07c0,0-.01,0-.02,0Z"/><path class="cls-38" d="M74.59,51.29s-.03,0-.04-.01c-1.27-1.11-4.58-3.99-4.72-4.08-.03-.01-.04-.04-.03-.07,.01-.03,.05-.05,.08-.03,.09,.03,3.35,2.87,4.75,4.09,.02,.02,.03,.06,0,.08-.01,.01-.03,.02-.04,.02Z"/><path class="cls-38" d="M83.41,48.8s0,0,0,0c-.03,0-.06-.03-.05-.06l.65-7.96s.03-.06,.06-.05c.03,0,.06,.03,.05,.06l-.65,7.96s-.03,.05-.06,.05Z"/><path class="cls-38" d="M83.48,53.42s-.03,0-.04-.02l-2.41-2.29s-.02-.03-.02-.04c0-.02,0-.03,.02-.04l3.67-3.69s.06-.02,.08,0c.02,.02,.02,.06,0,.08l-3.63,3.65,2.36,2.25s.02,.06,0,.08c-.01,.01-.03,.02-.04,.02Z"/><path class="cls-38" d="M87.01,51.11s-.06-.02-.06-.06c-.05-1.41,.34-2.84,1.11-4.03,.02-.03,.05-.03,.08-.02,.03,.02,.03,.05,.02,.08-.76,1.17-1.15,2.57-1.09,3.96,0,.03-.02,.06-.06,.06h0Z"/><path class="cls-38" d="M68.09,50.05s-.05-.02-.06-.04c-.26-.94-.83-1.79-1.58-2.41-.02-.02-.03-.06,0-.08,.02-.03,.06-.03,.08,0,.77,.63,1.35,1.51,1.62,2.47,0,.03,0,.06-.04,.07,0,0-.01,0-.02,0Z"/><path class="cls-38" d="M83.88,43.27s-.02,0-.03,0c-.03-.02-.04-.05-.02-.08l.65-1.21s.05-.04,.08-.02c.03,.02,.04,.05,.02,.08l-.65,1.21s-.03,.03-.05,.03Z"/><path class="cls-38" d="M70.15,38.85s-.01,.06-.05,.07h0s-.05-.02-.06-.05l-.37-2.05s.06-.07,.1-.1l.38,2.13Z"/><path class="cls-38" d="M84.64,36.99s0,0,0,0c-.16,.73-.3,1.47-.42,2.2,0,.03-.03,.05-.06,.05h0s-.05-.03-.05-.07c.12-.77,.26-1.54,.44-2.3,.03,.04,.06,.07,.09,.12Z"/></g><path class="cls-35" d="M81.39,51.45s-.3,.42-.57,.57c-.27,.15-1.54,.56-2.04,1.57-.5,1.01-1.66,2.37-1.36,2.75s1.54,1.07,1.92,.83c.38-.24,.8-1.12,1.01-1.33,.21-.21,.92-.89,1.18-1.6s.68-1.04,.68-1.04l.45-.54-1.27-1.21Z"/></g><g><path class="cls-38" d="M80.1,30.89c.63-.56,.84-1.45,1.02-2.27,.07-.3,.13-.62,.02-.91-.1-.26-.33-.45-.59-.55-.52-.22-1.14-.12-1.61,.18s-.82,.78-1.02,1.3c-.3,.78-.47,1.87-.21,2.68,.2,.63,.84,1.28,1.39,.57,.15-.19,.27-.4,.45-.56,.17-.15,.37-.28,.55-.43Z"/><path class="cls-38" d="M80.9,24.98c.03,.48-.21,1,0,1.43,.1,.22,.3,.36,.42,.57,.16,.27,.16,.62,.08,.93-.08,.31-.24,.58-.4,.86-.39,.67-.85,1.4-1.58,1.59-.17,.05-.39,.04-.48-.12-.04-.07-.05-.16-.06-.24-.06-.86-.12-1.72-.18-2.58-.04-.64-.09-1.29,.04-1.92,.11-.53,.45-1.4,1.01-1.57,.55-.18,1.12,.55,1.16,1.06Z"/></g><g><g><path class="cls-35" d="M78.44,32.22c-.02,.36,.25,1.01,.29,1.29,0,0-.89,3.52-2.81,3.49-1.33-.02-1.94-1.77-1.94-1.77l.23-1.36,.23-1.37,3.77-1.58,.4-.17s-.02,.1-.04,.25c-.04,.28-.11,.75-.13,1.23Z"/><path class="cls-51" d="M78.57,30.99c-.04,.28-.11,.75-.13,1.23-.43,.63-1,1.17-1.65,1.57-.39,.24-.82,.42-1.27,.47-.45,.05-.93-.07-1.27-.37,0,0-.02-.02-.03-.03l.23-1.37,3.77-1.58c.12,.01,.25,.03,.35,.09Z"/></g><g><path class="cls-35" d="M79.45,28.83c-.14,.54-.37,1.07-.64,1.57-.09,.16-.18,.32-.28,.47-.02,.02-.03,.05-.05,.07,0,0,0,0,0,0-.24,.37-.5,.7-.77,1-.17,.18-.34,.33-.53,.46-.7,.48-1.6,.73-2.54,.54-.91-.18-1.47-.73-1.89-1.33-.13-.19-.24-.4-.33-.61-.11-.27-.2-.56-.26-.86-.06-.31-.09-.64-.1-.97,0-.06,0-.13,0-.19,0-.06,0-.11,0-.16,0,0,0-.02,0-.03,0-.27,.02-.53,.05-.79,.03-.26,.07-.52,.12-.76,0-.06,.02-.11,.03-.17,.04-.22,.1-.43,.17-.64,.44-1.34,1.37-2.53,2.73-2.93,.25-.07,.51-.12,.78-.12,1.15-.04,2.27,.5,2.95,1.43,.86,1.16,.95,2.63,.58,4.02Z"/><g><path class="cls-35" d="M78.41,29.15s1.31-1.17,2.09-.67c.78,.5-.55,2.54-1.4,2.39-.85-.14-1.03-.79-1.03-.79l.33-.94Z"/><g><path class="cls-14" d="M80.12,29.04c-.44,.27-.8,.66-1.02,1.12"/><path class="cls-14" d="M79.65,29.44c.1,.21,.11,.42,.07,.66"/></g></g><g><g><g><path class="cls-46" d="M78.26,30.23c-.18,.8-.98,1.31-1.78,1.13-.8-.18-1.31-.98-1.13-1.78,.18-.8,.98-1.31,1.78-1.13,.8,.18,1.31,.98,1.13,1.78Z"/><path class="cls-44" d="M73.28,29.25c-.13,.59-.6,1.02-1.16,1.14-.06-.31-.09-.64-.1-.97,0-.06,0-.13,0-.19,0-.06,0-.11,0-.16,0,0,0-.02,0-.03,0-.27,.02-.53,.05-.79,.03-.26,.07-.52,.12-.76,.78,.19,1.27,.98,1.1,1.77Z"/></g><g><g><path class="cls-38" d="M74.5,26.95c-.24,.82-.93,1.85-.58,2.65,.04,.07,.01,.17-.06,.21-.8,.04-.91-1.15-.66-1.68,.17-.56,.48-1.08,.92-1.45,.1-.08,.25-.07,.34,.03,.06,.07,.07,.17,.04,.25h0Z"/><path class="cls-38" d="M74.69,29.25c.18,.12,.23,.31,.13,.51-.14,.18-.34,.07-.37,.08l-.19-.03s.3-.27,.3-.27c.06,.4-.2,.45-.33,.29-.09-.12-.22-.33-.03-.44,.14-.09,.29,.05,.4,.11,.08,.05,.03,.02-.01,.08,.03,.03,.04-.13,.03-.18-.03-.07-.03-.18,.07-.15h0Z"/></g><g><path class="cls-38" d="M75.86,28.1c-.03,.16-.19,.27-.35,.24-.16-.03-.27-.19-.24-.35,.03-.16,.19-.27,.35-.24,.16,.03,.27,.19,.24,.35Z"/><path class="cls-38" d="M73.42,27.54c-.03,.16-.19,.27-.36,.24-.16-.03-.27-.19-.24-.36,.03-.16,.19-.27,.36-.24,.16,.03,.27,.19,.24,.36Z"/></g><g><path class="cls-38" d="M75.34,26.88c-.05,.07-.08,.17-.02,.25,.06,.08,.17,.09,.27,.11,.29,.05,.56,.15,.8,.31,.08,.05,.16,.11,.25,.15s.2,.06,.29,.02c.09-.04,.15-.13,.16-.22,0-.09-.02-.18-.06-.27-.26-.52-1.28-.95-1.68-.36Z"/><path class="cls-38" d="M73.99,26.57c0,.08-.02,.18-.09,.22-.07,.04-.16,0-.23-.02-.21-.08-.45-.11-.68-.07-.08,.01-.16,.03-.24,.02-.08,0-.16-.03-.2-.1-.05-.07-.04-.17-.01-.25,.03-.08,.09-.15,.16-.2,.4-.33,1.28-.27,1.29,.4Z"/></g></g></g><g><path class="cls-8" d="M73.13,30.34s1.28,.52,2.38-.06"/><path class="cls-23" d="M73.89,31.03s.46,.17,.87-.07"/></g></g></g></g><g><path class="cls-38" d="M73.38,22.2c-.6,.18-1.12,.61-1.41,1.17-.12,.23-.2,.49-.14,.74,.06,.25,.32,.46,.57,.39-.17,.24-.34,.48-.4,.77-.06,.29,.04,.62,.3,.75,.26,.13,.56,.02,.83-.09,.48-.2,.96-.39,1.44-.59-.05,.33-.08,.69,.12,.95,.2,.26,.57,.32,.88,.24s.58-.28,.84-.47c.19-.14,.45-.28,.63-.13,.1,.08,.13,.23,.14,.36,.02,.21,.03,.43,.09,.64,.06,.21,.17,.41,.35,.52,.3,.19,.7,.09,.97-.13,.27-.22,.43-.55,.59-.86,.19-.37,.31-.8,.45-1.2,.14-.39,.24-.81,.19-1.22-.06-.41-.3-.82-.68-.98-.18-.07-.37-.09-.54-.17-.33-.16-.5-.51-.71-.81-.21-.3-.47-.57-.79-.74-.32-.17-.7-.24-1.06-.15-.37,.1-.68,.37-1.01,.56-.47,.27-1.13,.28-1.64,.44Z"/><path class="cls-38" d="M78.96,27.5c-.03,.27-.19,.51-.29,.76-.11,.27-.16,.57-.15,.86,0,.12,.05,.28,.18,.29,.08,0,.15-.05,.2-.11,.49-.49,.99-.98,1.29-1.6,.3-.62,.37-1.4,0-1.98-.27-.43-1.13-.84-1.41-.2-.3,.67,.25,1.32,.18,1.98Z"/></g><g><g><path class="cls-38" d="M79,79.49s-.3,.24-.36,.92-.53,1.72-.3,2.22c.24,.5,1.21,.8,1.89,1.48,.68,.68,2.04,2.13,2.69,2.22,.65,.09,2.16,0,2.16-.77s-1.66-3.2-1.86-3.76c-.21-.56-.95-2.19-.95-2.19l-.77-.77-2.51,.65Z"/><path class="cls-35" d="M79.06,77.74l-.06,1.75s.56,.47,1.07,.38c.5-.09,.66-.52,1.34-.55s.88,.29,.88,.29l-.12-1.39-3.11-.47Z"/></g><g><path class="cls-38" d="M86.56,55.1s.31-.18,.92,0c.62,.18,1.68,.11,2.04,.48,.36,.38,.29,1.33,.66,2.15,.37,.82,1.18,2.5,1.04,3.1-.14,.6-.72,1.89-1.4,1.63-.67-.26-2.24-2.52-2.67-2.89-.42-.37-1.6-1.56-1.6-1.56l-.42-.93,1.41-1.98Z"/><path class="cls-35" d="M84.84,54.81l1.72,.3s.23,.65-.02,1.06c-.25,.41-.68,.4-.93,.99-.25,.59-.04,.86-.04,.86l-1.18-.57,.45-2.64Z"/></g><g><path class="cls-32" d="M85.77,54.82l-.74,2.64v.05s-.07,.22-.07,.22l-.02,.05-1.71-.22s.01,.04,.04,.11c.17,.54,.89,2.94,.92,4.64,.04,1.93-1.81,16.37-1.81,16.37-1.38,.63-3.59-.16-3.59-.16-.59-4.26-.12-12.39-.04-13.45,.07-.99-.84-4.07-.97-4.52-.01-.04-.02-.06-.02-.06,0,0-.02,0-.06-.01-.29-.06-1.59-.35-2.19-.42-.67-.08-1.85,.32-3.12,.2-.81-.08-3.04-1.49-4.76-3.22-.04-.04-.08-.09-.13-.13-.9-.93-1.64-1.94-1.94-2.89-.87-2.76,1.38-3.91,1.38-3.91,0,0,1.5-.59,7.97,1.26,5.12,1.47,10.85,3.43,10.85,3.43Z"/><g><path class="cls-34" d="M76.01,56.88s0,.08-.01,.12c-.03,.23-.06,.46-.1,.69-.05,.27-.18,.43-.35,.43h0c-.11,0-.21-.07-.27-.18-.05-.09-.06-.19-.07-.29-.02-.24-.03-.48-.03-.72,0-.04,0-.08,0-.12,.04,0,.08,0,.12,.01,0,.04,0,.08,0,.12,0,.24,.01,.47,.03,.7,0,.09,.02,.18,.06,.25,.03,.06,.1,.12,.17,.12h0c.16,0,.22-.26,.23-.34,.04-.23,.08-.45,.1-.68,0-.04,0-.08,.01-.12,.04,0,.08,0,.12,.01Z"/><path class="cls-34" d="M85,57.78s-.03,.05-.06,.05h0c-1.4-.14-5.35-.51-8.93-.84-.04,0-.08,0-.12-.01-.2-.02-.4-.03-.59-.05-.04,0-.08,0-.12,0-3.19-.29-5.91-.54-5.97-.55-.03,0-.05-.03-.05-.06,0-.03,.03-.06,.06-.05,.06,0,2.77,.25,5.96,.54,.04,0,.08,0,.12,.01,.2,.02,.4,.03,.6,.05,.04,0,.08,0,.12,.01,3.59,.33,7.53,.7,8.93,.84,.03,0,.06,.03,.05,.06Z"/><path class="cls-34" d="M70.04,57.03s-.05-.02-.06-.04c-.01-.03,0-.06,.04-.07,.28-.09,.55-.25,.77-.44,.02-.02,.06-.02,.08,0,.02,.02,.02,.06,0,.08-.24,.21-.52,.37-.81,.46,0,0-.01,0-.02,0Z"/><path class="cls-34" d="M77.76,60.56s-.05-.02-.06-.05c-.24-1.95,.4-2.74,.43-2.78,.02-.02,.06-.03,.08,0,.02,.02,.03,.06,0,.08,0,0-.63,.8-.4,2.69,0,.03-.02,.06-.05,.06,0,0,0,0,0,0Z"/><path class="cls-34" d="M85.04,57.48s0,.02-.02,.02c0,0,0,0-.01,0-6.39-.99-11.34-1.61-16.07-2.01-.49-.04-.98-.03-1.27,.28-.25,.27-.25,.66-.17,.94,.03,.12,.08,.23,.14,.34-.04-.04-.08-.09-.13-.13-.03-.06-.05-.13-.07-.19-.11-.38-.04-.76,.18-.99,.31-.33,.82-.34,1.32-.3,4.73,.4,9.69,1.02,16.08,2.01,0,0,.01,0,.02,0,0,0,0,.01,0,.02Z"/><path class="cls-34" d="M79.15,78.54s-.03-.01-.03-.03c-.17-2.02,.03-4.1,.23-6.1,.26-2.74,.54-5.57-.14-8.26-.16-.65-.38-1.29-.59-1.92-.37-1.1-.76-2.25-.84-3.43,0-.02,.01-.03,.03-.03,.02,0,.03,.01,.03,.03,.08,1.17,.47,2.31,.84,3.41,.21,.63,.43,1.27,.59,1.92,.67,2.7,.4,5.54,.14,8.28-.19,2-.39,4.08-.23,6.09,0,.02-.01,.03-.03,.03h0Z"/></g></g></g></g></g><g><g><path class="cls-39" d="M34.3,60.87l-1.76,5.36s-5.26-5.61-4.97-11.45c0-.05,0-.1,0-.15,0-.04,0-.08,0-.12,.46-5.94,2.62-11.99,2.62-11.99l4.1,18.34Z"/><g><g><g><polygon class="cls-35" points="48.37 89.84 48.81 93.24 51.71 93.14 51.94 89.82 48.37 89.84"/><g><path class="cls-40" d="M58.52,96.53c-.02,.08-.04,.15-.06,.23-.01,.05-.03,.09-.05,.13-.17,.42-.55,.73-1.75,.82-1.51,.11-2.11,.26-3.28,.42-.96,.14-4.64,.77-4.87-.13,0,0,0,0,0-.02,0-.03-.02-.07-.02-.12-.1-.62-.09-2.05-.06-3.2,0-.04,0-.09,0-.13,.03-.86,.06-1.53,.06-1.53,0,0,.05-.26,.23-.43,.15-.15,.4-.23,.8-.03,.68,.34,1.22,.58,1.53,.63t0,0h0c.08,.01,.14,.01,.18,0,0,0,0,0,0,0,.23-.09,.13-.58,.47-.57,0,0,.01,0,.02,0,.19,.03,.63,.34,1.26,.71,.08,.05,.17,.1,.26,.15h0c.31,.17,.65,.35,1.02,.52,.04,.02,.09,.04,.13,.06,.29,.13,.6,.24,.92,.34,.09,.03,.19,.06,.29,.08,.02,0,.03,0,.05,.01,2.1,.55,2.98,1.47,2.85,2.07Z"/><path class="cls-29" d="M58.46,96.76s-.03,.09-.05,.13c-2.93,.82-5.95,1.2-8.99,1.12-.3,0-.61-.02-.91-.04,0-.03-.02-.07-.02-.12,2.71,.15,5.4-.06,8.05-.62h0s.04,0,.06-.01c.62-.13,1.24-.29,1.86-.46Z"/><path class="cls-29" d="M50.82,97.88h-.11c.01-.73-.12-1.47-.38-2.15-.13-.36-.27-.6-.44-.8-.22-.25-.48-.4-.76-.44-.23-.03-.48,.03-.7,.16,0-.04,0-.09,0-.13,.22-.12,.47-.18,.71-.15,.3,.04,.6,.21,.83,.48,.18,.21,.32,.46,.46,.83,.26,.69,.4,1.45,.38,2.19Z"/><path class="cls-29" d="M56.6,97.22s0,.02,0,.02h-.06s0-.01,0-.01h-.05c.2-1.07-.26-2.23-1.14-2.87,.09,.03,.19,.06,.29,.08,.76,.68,1.15,1.77,.97,2.77Z"/><path class="cls-29" d="M53.54,94.31s-.02,.06-.05,.06t0,0s-.05-.02-.06-.05c-.02-.37-.17-.73-.42-1.01,.08,.05,.17,.1,.26,.15h0c.16,.26,.26,.56,.27,.86Z"/><path class="cls-29" d="M54.47,94.34s-.02,.06-.06,.06h0s-.05-.02-.06-.05c0-.13-.03-.25-.06-.37,.04,.02,.09,.04,.13,.06,.03,.1,.04,.21,.05,.31Z"/></g></g><path class="cls-32" d="M45.85,73.43s-.12,11.75,2.08,18.68l4.61-.26,1.79-19.34-8.48,.92Z"/></g><g><polygon class="cls-35" points="54.75 90.07 55.19 93.47 58.08 93.37 58.31 90.04 54.75 90.07"/><g><path class="cls-34" d="M64.89,96.75c-.02,.08-.04,.15-.06,.23-.01,.05-.03,.09-.05,.13-.17,.42-.55,.73-1.75,.82-1.51,.11-2.11,.26-3.28,.42-.96,.14-4.64,.77-4.87-.13,0,0,0,0,0-.02,0-.03-.02-.07-.02-.12-.1-.62-.09-2.05-.06-3.2,0-.04,0-.09,0-.13,.03-.86,.06-1.53,.06-1.53,0,0,.05-.26,.23-.43,.15-.15,.4-.23,.8-.03,.68,.34,1.22,.58,1.53,.63t0,0h0c.08,.01,.14,.01,.18,0,0,0,0,0,0,0,.23-.09,.13-.58,.47-.57,0,0,.01,0,.02,0,.19,.03,.63,.34,1.26,.71,.08,.05,.17,.1,.26,.15h0c.31,.17,.65,.35,1.02,.52,.04,.02,.09,.04,.13,.06,.29,.13,.6,.24,.92,.34,.09,.03,.19,.06,.29,.08,.02,0,.03,0,.05,.01,2.1,.55,2.98,1.47,2.85,2.07Z"/><path class="cls-29" d="M64.83,96.98s-.03,.09-.05,.13c-2.93,.82-5.95,1.2-8.99,1.12-.3,0-.61-.02-.91-.04,0-.03-.02-.07-.02-.12,2.71,.15,5.4-.06,8.05-.62h0s.04,0,.06-.01c.62-.13,1.24-.29,1.86-.46Z"/><path class="cls-29" d="M57.2,98.1h-.11c.01-.73-.12-1.47-.38-2.15-.13-.36-.27-.6-.44-.8-.22-.25-.48-.4-.76-.44-.23-.03-.48,.03-.7,.16,0-.04,0-.09,0-.13,.22-.12,.47-.18,.71-.15,.3,.04,.6,.21,.83,.48,.18,.21,.32,.46,.46,.83,.26,.69,.4,1.45,.38,2.19Z"/><path class="cls-29" d="M62.97,97.44s0,.02,0,.02h-.06s0-.01,0-.01h-.05c.2-1.07-.26-2.23-1.14-2.87,.09,.03,.19,.06,.29,.08,.76,.68,1.15,1.77,.97,2.77Z"/><path class="cls-29" d="M59.91,94.54s-.02,.06-.05,.06t0,0s-.05-.02-.06-.05c-.02-.37-.17-.73-.42-1.01,.08,.05,.17,.1,.26,.15h0c.16,.26,.26,.56,.27,.86Z"/><path class="cls-29" d="M60.84,94.56s-.02,.06-.06,.06h0s-.05-.02-.06-.05c0-.13-.03-.25-.06-.37,.04,.02,.09,.04,.13,.06,.03,.1,.04,.21,.05,.31Z"/></g></g><path class="cls-32" d="M58.72,91.23l-4.41,.27c-2.82-10.66-1.18-17.51-1.18-17.51,0,0-.38-.07-3.5,.78-3.11,.85-9.36,.61-11.45,.71-.04,0-.09,0-.13,0-.05,0-.1,0-.14,0-1.52,.07-3.25,.04-4.79-1.5-.03-.03-.06-.05-.08-.08-.49-.52-.97-1.19-1.41-2.07-.8-1.61-.78-3.7-.47-5.59,0-.04,.01-.07,.02-.11,.42-2.56,1.34-4.71,1.34-4.71l10.9-.42,3.3,3.02s8.83,1.95,11.51,2.9c2.64,.94,3.22,1.64,3.37,5.13,.14,3.48-2.88,19.17-2.88,19.17Z"/><g><path class="cls-17" d="M31.83,63.05c4.36,1.31,9.18,1.06,13.38-.7"/><path class="cls-38" d="M38.05,75.49s-.1,0-.14,0c-2.35-2.74-3.42-6.58-2.81-10.14,0-.03,.04-.05,.06-.05,.03,0,.05,.04,.05,.07-.61,3.55,.48,7.39,2.85,10.11Z"/><path class="cls-38" d="M34.14,66.53s-.02-.05-.05-.05l-2.91-.33s-.01,.07-.02,.11l2.87,.33,.32,5.47-1.31,1.86s.06,.06,.08,.08l1.33-1.9s0-.02,0-.04l-.33-5.53Z"/><path class="cls-38" d="M43.33,71.32l-.75-5.31s-.03-.05-.06-.05l-6.01,.78s-.03,0-.04,.02c0,.01-.01,.03-.01,.04l.94,5.78s.02,.03,.03,.04l3.4,1.71s.02,0,.02,0c.02,0,.03,0,.05-.02l2.43-2.95s.02-.03,.01-.04Zm-2.5,2.89l-3.33-1.67-.92-5.69,5.89-.76,.74,5.23-2.39,2.9Z"/><g><path class="cls-17" d="M49.18,75.11c-.46,5.58-.37,11.21,.27,16.77"/><g><path class="cls-17" d="M45.84,75.33l7-.52s-.56,6.94,.16,10.7c.72,3.77,1.32,5.98,1.32,5.98"/><path class="cls-17" d="M53.4,73.17l-.59,1.64c.57-.05,1.08-.08,1.65-.13"/><path class="cls-16" d="M45.75,63.03c.39,1.18,.32,2.44,.45,3.68,.13,1.23,.53,2.54,1.56,3.24,.68,.47,1.54,.58,2.36,.69,1.33,.17,2.66,.34,3.99,.52,.75,.1,1.53,.21,2.14,.65,1.11,.81,1.24,2.39,1.2,3.77-.16,5.26-1.42,10.52-.71,15.73"/></g></g></g></g><g><path class="cls-39" d="M45.66,42.57l-1.93,18.3s-7.72,2.9-11.22,.88c0,0-3.82-17.02-2.3-19.22,1.52-2.2,8.35-3.95,15.45,.04Z"/><path class="cls-39" d="M48.47,65.18c-1.5,.27-3.91-.02-5.04-4.11,0-.02-.01-.04-.01-.05-.03-.1-.05-.2-.08-.31-.35-1.52-.44-3.72-.38-6.1,0-.39,.02-.78,.04-1.18,.14-3.4,.53-6.99,.83-9.41,0-.08,.02-.15,.03-.23,.21-1.64,.36-2.68,.36-2.68l1.5,1.05,.05,.04s.01,.01,.04,.04c.25,.27,1.61,2.06,2.6,8.71,.34,2.29,.61,4.68,.81,6.82,0,.04,0,.08,.01,.12,.23,2.41,.38,4.49,.46,5.71,.05,.77-.48,1.45-1.23,1.58Z"/><path class="cls-36" d="M35.38,26.69c-.99,1.21-1.5,2.76-1.74,4.31-.15,1.02-.23,2.12-.88,2.91-.7,.86-1.97,1.21-2.47,2.2-.5,1-.02,2.23-.26,3.32-.14,.64-.52,1.2-.88,1.75-.36,.55-.73,1.12-.84,1.76-.11,.65,.11,1.39,.68,1.72,.71,.4,1.6,0,2.42,.05,1,.06,1.87,.78,2.87,.81,.75,.03,1.46-.34,2.2-.41,1.04-.1,2.03,.36,3.04,.61,.81,.2,1.68,.27,2.46-.01,.78-.28,1.46-.96,1.56-1.79,.05-.42-.05-.87,.07-1.28,.19-.67,.87-1.05,1.35-1.55,.73-.75,1.04-1.88,.8-2.89-.25-1.06-1.04-2.07-.77-3.12,.19-.74,.86-1.25,1.3-1.88,.68-.99,.76-2.36,.19-3.42-.45-.84-1.25-1.45-1.72-2.29-.34-.61-.49-1.32-.94-1.85-.47-.56-1.22-.83-1.95-.88-.63-.04-1.24,.12-1.87,.1-.47-.02-.9-.12-1.38-.06-1.28,.15-2.47,.9-3.28,1.89Z"/><g><path class="cls-38" d="M43.41,61.07s-.05-.02-.06-.05l-.82-13.27s.02-.06,.05-.06c.03,0,.06,.02,.06,.05l.82,13.27s-.02,.06-.05,.06c0,0,0,0,0,0Z"/><path class="cls-38" d="M42.84,51.63s-.05-.02-.05-.04l-.71-2.34s0-.06,.04-.07c.03,0,.06,0,.07,.04l.71,2.34s0,.06-.04,.07c0,0-.01,0-.02,0Z"/><path class="cls-38" d="M46.69,65.13s-.04-.01-.05-.03c-.97-1.99-.75-4.54,.55-6.33,.29-.4,.57-.67,.87-.84,.39-.22,.84-.27,1.2-.14,.03,.01,.04,.04,.03,.07-.01,.03-.04,.04-.07,.03-.33-.13-.74-.08-1.1,.13-.29,.16-.56,.42-.84,.81-1.28,1.76-1.5,4.26-.54,6.22,.01,.03,0,.06-.03,.08,0,0-.02,0-.03,0Z"/><path class="cls-38" d="M45.82,42.23c-.79,.44-1.47,1.05-1.99,1.78-.29,.41-.53,.86-.71,1.33,0,.02-.03,.04-.06,.04,0,0-.01,0-.02,0-.03,0-.04-.04-.03-.07,.21-.54,.49-1.05,.84-1.52,.5-.66,1.14-1.23,1.87-1.64l.05,.04s.01,.01,.04,.04Z"/></g><g><path class="cls-38" d="M32.51,61.69s-.05-.02-.05-.04c-1.52-4.86-2.19-9.89-1.99-14.98,0-.03,.03-.06,.06-.05,0,0,0,0,0,0,.03,0,.06,.03,.05,.06-.2,5.07,.47,10.1,1.99,14.94,0,.03,0,.06-.04,.07,0,0-.01,0-.02,0Z"/><path class="cls-38" d="M30.6,51.56s-.05-.02-.05-.04c-.35-1.1-.58-2.24-.67-3.39,0-.03,.02-.06,.05-.06,.03,0,.06,.02,.06,.05,.09,1.14,.31,2.27,.66,3.36,0,.03,0,.06-.04,.07,0,0-.01,0-.02,0Z"/><path class="cls-38" d="M29.15,60.9s-.03,.04-.06,.04c0,0-.01,0-.02,0-.03,0-.04-.04-.03-.07,.42-1.13,.46-2.38,.12-3.54-.29-.97-.85-1.86-1.59-2.54,0-.05,0-.1,0-.15,.79,.71,1.39,1.63,1.69,2.66,.35,1.18,.31,2.45-.12,3.61Z"/></g></g></g><line class="cls-28" x1="36.51" y1="75.83" x2="35.24" y2="94.11"/><g><g><g><line class="cls-22" x1="29.31" y1="69.89" x2="29.56" y2="74.98"/><line class="cls-22" x1="42.36" y1="69.84" x2="42.61" y2="74.94"/></g><g><path class="cls-38" d="M45.27,69.09c.02,.89-.59,1.65-1.42,1.85-.04,0-.07,.02-.11,.02-.08,.02-.17,.03-.25,.03l-16.01,.69c-1,.04-1.86-.71-1.94-1.71-.26-3.18-.71-10.09-.45-16.36,.36-8.5,3.28-11.75,8.68-12.54,2.54-.37,4.74,.32,6.47,1.6,0,0,0,0,0,0,.2,.15,.4,.31,.59,.48,1.62,1.43,2.75,3.4,3.23,5.45,.82,3.48,1.12,15.81,1.21,20.49Z"/><path class="cls-39" d="M43.85,70.94s-.07,.02-.11,.02c.36-6.74,.7-13.69-.3-20.47-.33-2.26-.88-4.85-2.37-6.88-.25-.34-.52-.66-.82-.95,.2,.15,.4,.31,.59,.48,.11,.13,.22,.26,.32,.4,1.51,2.05,2.06,4.65,2.39,6.93,1,6.79,.67,13.73,.3,20.47Z"/></g></g><g><line class="cls-28" x1="28.87" y1="77.28" x2="25.26" y2="101.04"/><line class="cls-28" x1="43.63" y1="76.86" x2="44.34" y2="101.06"/><line class="cls-28" x1="53.55" y1="75.68" x2="57.46" y2="99.88"/><g><path class="cls-38" d="M55.13,75.47s-.05,.08-.07,.12c-.22,.34-.58,.58-1.01,.62l-10.9,1.2-15.01-.11c-.56,0-1.05-.25-1.39-.64-.04-.03-.07-.07-.09-.11-.24-.31-.37-.7-.38-1.11v-.06c.03-1.03,.88-1.84,1.91-1.83l15.46,.28,10.11-.8c.77-.06,1.44,.52,1.5,1.29l.03,.4c.02,.26-.04,.52-.15,.74Z"/><path class="cls-39" d="M55.13,75.47s-.05,.08-.07,.12l-11.66,1.11-16.66-.03s-.07-.07-.09-.11l16.75,.03,11.74-1.12Z"/></g></g></g></g><g><line class="cls-25" x1="114.3" y1="73.41" x2="111.4" y2="87.82"/><g><path class="cls-30" d="M134.89,36.2c-.26,.63-.58,1.36-.97,1.91-.08,.11-.79,.58-.78,.72l.34,1.38s-4.73,1.52-4.73,1.52l-.11-1.15v-.03s-.14-1.47-.14-1.47v-.02c-.73,.24-2.18,.64-2.43-.38-.09-.38-.13-.78-.15-1.17,0-.03,0-.06,0-.09v-.06c0-.14,0-.31,0-.47v-.06c0-.22,0-.42-.01-.52,0-.07-.6-.32-.75-.81-.14-.5,.64-.66,1-1.19,.56-.84,.62-2.05,.93-2.98,.24-.7,.64-1.05,1.24-1.47,1.33-.93,2.95-1.01,4.33-.2,.09,.06,.18,.11,.27,.17,2.12,1.45,2.9,4.08,1.97,6.38Z"/><path class="cls-38" d="M126.41,29.26c-.31,.47-.46,1.06-.31,1.6,.15,.54,.63,1,1.19,1.03,.17,0,.35-.02,.51,.05,.27,.11,.37,.45,.4,.75,.03,.3,.06,.63,.29,.82,.21,.19,.55,.19,.74,.4,.2,.23,.14,.58,.12,.88-.02,.31,.07,.7,.38,.75,.25,.04,.46-.2,.56-.43,.09-.24,.13-.51,.3-.7,.28-.33,.85-.29,1.16,.02,.3,.31,.36,.81,.23,1.22-.13,.42-.4,.77-.7,1.09-.14,.15-.28,.3-.37,.48-.09,.18-.12,.41-.02,.59,.13,.22,.4,.29,.61,.44,.4,.28,.54,.84,.97,1.06,.46,.24,1,0,1.46-.25,.49-.26,1.02-.56,1.24-1.07,.12-.28,.15-.6,.33-.83,.18-.23,.48-.34,.7-.53,.44-.39,.49-1.06,.42-1.65-.07-.59-.23-1.18-.09-1.76,.12-.48,.44-.99,.21-1.43-.17-.33-.61-.49-.69-.85-.06-.27,.11-.59-.04-.82-.13-.2-.41-.2-.62-.3-.66-.29-.67-1.34-1.32-1.65-.57-.27-1.29,.19-1.85-.09-.36-.18-.56-.63-.95-.74-.45-.13-.89,.26-1.36,.27-.33,0-.63-.17-.95-.22-.6-.09-.98,.26-1.31,.7-.16,.21-.4,.32-.6,.49-.24,.2-.46,.42-.63,.68Z"/><g><g><path class="cls-30" d="M129.91,35.5s.46-1.93,1.59-1.51c1.14,.41,.99,2.63-.02,3.02-1.01,.39-1.86-.5-1.86-.5l.29-1.01Z"/><path class="cls-38" d="M129.25,35.84c0,.09,0,.18,.03,.26,.03,.08,.12,.15,.21,.13,.1-.02,.15-.12,.19-.21,.25-.58,.5-1.17,.75-1.75,.04-.1,.09-.21,.08-.32-.01-.18-.17-.33-.34-.37-1.12-.24-.89,1.68-.92,2.24Z"/></g><g><path class="cls-5" d="M130.93,34.75c.18,0,.33,.15,.43,.31,.2,.35,.23,.79,.07,1.17"/><path class="cls-5" d="M131.38,35.17c-.27,.21-.48,.49-.64,.79"/></g></g><g><g><path class="cls-38" d="M126.99,33.09c.09,.19,.33,.25,.49,.39,.08,.07,.15,.17,.24,.24,.09,.07,.21,.11,.31,.06,.09-.05,.13-.15,.14-.25,.05-.39-.17-.83-.52-1.01-.33-.17-.83,.21-.66,.58Z"/><path class="cls-38" d="M126.76,34.22c-.02,.2,.09,.38,.24,.39,.15,.02,.3-.13,.32-.33,.02-.2-.09-.38-.24-.39-.15-.02-.3,.13-.32,.33Z"/><g><path class="cls-38" d="M126.03,35.86l.22,.23c.09,0,.14-.14,.16-.25,0-.01,.01-.02,.02-.02,.01,0,.02,.01,.02,.02,0,.06-.01,.13-.04,.19-.02,.06-.07,.13-.16,.15h0s0,0,0,0c0,0,0,0,0,0-.02,0-.03,0-.05,0l-.18-.19-.02,.1s-.03,.04-.06,.03c-.02,0-.03-.02-.04-.04,0,0,0-.01,0-.02l.04-.19s.02-.03,.03-.03c.02,0,.04,0,.05,.01Z"/><path class="cls-38" d="M127.06,36.55c-.35,.3-.79,.35-1.05,.35-.03,0-.06,0-.09,0v-.06c.22,0,.71,0,1.1-.33,.01,0,.03,0,.04,0,0,.01,0,.03,0,.04Z"/><path class="cls-38" d="M126.41,37.39c-.07,.04-.17,.05-.26,.05-.1,0-.19-.01-.23-.02v-.06c.07,0,.33,.05,.46-.02,.01,0,.03,0,.04,0,0,.01,0,.03,0,.04Z"/></g></g><path class="cls-45" d="M129.91,36.21c-.02,.86-.74,1.53-1.59,1.51s-1.53-.74-1.51-1.59c.02-.86,.74-1.53,1.59-1.51,.86,.02,1.53,.74,1.51,1.59Z"/></g><path class="cls-50" d="M129.94,38.36s-.63,1.81-1.3,2.19l-.14-1.47v-.02c.18-.08,1.08-.46,1.44-.71Z"/><g><path class="cls-31" d="M128.28,41.6s4.95-2.15,5.64-2.56c0,0,.76,.98,.86,1.75,.1,.77,1.93,2.75,1.78,5.22-.14,2.46-1.47,7.25-2.94,10-1.47,2.75-4.33,7.5-4.33,7.5,0,0-2.67-.12-4.78-1.45-2.11-1.33-3.91-3.91-3.91-3.91,0,0,4.33-4.72,4.82-5.92,.5-1.2,1.8-5.76,2.11-6.58,.31-.83,.37-1.22,.37-1.22,0,0-.34-2.34-.3-2.4,.04-.06,.67-.41,.67-.41Z"/><g><g><g><path class="cls-33" d="M113.55,86.78s0,.05,0,.07c0,.04,0,.09,0,.13-.02,.49-1.66,1.55-2.46,1.8-.8,.25-3.64,1.69-4.57,2.17-.86,.45-2.84,.95-3.39,.44-.02-.02-.04-.03-.05-.05-.02-.03-.04-.05-.05-.08-.35-.73,.83-1.93,1.6-2.66,.08-.07,.18-.17,.3-.29,.01-.01,.03-.03,.04-.04,.29-.29,.68-.69,1.1-1.11,.02-.02,.03-.03,.04-.05,.21-.22,.43-.44,.64-.66,.01-.01,.03-.03,.04-.04,.18-.19,.36-.37,.53-.55,.01-.01,.03-.03,.04-.04,.64-.66,1.12-1.17,1.12-1.17l2.94-1.17s1.94,2.19,2.12,3.33Z"/><path class="cls-29" d="M113.55,86.78s0,.05,0,.07c-.85,.73-1.87,1.2-2.85,1.66-1.09,.51-2.18,1.02-3.27,1.52-.12,.06-.24,.11-.36,.17h0s-.03,.01-.04,.02c-.41,.19-.84,.38-1.28,.55-.83,.32-1.71,.57-2.62,.61-.02-.02-.04-.03-.05-.05,1.39-.05,2.71-.6,3.91-1.15,.02,0,.04-.02,.05-.02,.12-.06,.24-.11,.36-.17,1.09-.5,2.18-1.01,3.27-1.52,.41-.19,.82-.38,1.23-.6,.01,0,.03-.01,.04-.02,.57-.3,1.11-.63,1.6-1.05Z"/><path class="cls-29" d="M111.94,87.86s0,0,0,0c-.02,0-.03,0-.03-.02-.17-1.13-.07-2.3,.29-3.39,0-.01,.02-.02,.04-.02,.01,0,.02,.02,.02,.04-.35,1.08-.45,2.24-.29,3.36,0,.01,0,.03-.02,.03Z"/><path class="cls-29" d="M107.08,90.17s0,.01,0,.02h0s0,.01,0,.02c0,0,0,0,0,0-.01,0-.02,0-.03,0,0,0,0,0,0,0,0-.01-.02-.03-.03-.04-.53-.79-1.23-1.43-2.06-1.88,.01-.01,.03-.03,.04-.04,.83,.45,1.55,1.11,2.08,1.9,0,0,.02,.02,.02,.03Z"/><path class="cls-29" d="M107.24,87.82s0,0,0,0c-.01,0-.02,0-.03,0-.3-.33-.7-.57-1.12-.69,.02-.02,.03-.03,.04-.05,.43,.13,.82,.37,1.12,.7,.01,.01,.01,.03,0,.04Z"/><path class="cls-29" d="M107.91,87.18s0,0,0,0c-.01,0-.02,0-.03,0-.32-.32-.7-.58-1.12-.76,.01-.01,.03-.03,.04-.04,.41,.18,.79,.44,1.11,.77,.01,.01,.01,.03,0,.04Z"/><path class="cls-29" d="M108.58,86.56s0,0-.01,0c0,0-.02,0-.03,0-.38-.3-.78-.54-1.22-.73,.01-.01,.03-.03,.04-.04,.43,.19,.84,.44,1.21,.73,.01,.01,.01,.03,0,.04Z"/></g><path class="cls-30" d="M107.16,81.91l1.33,2.7s1,.49,2.13-.09c.77-.39,.9-.92,.9-.92l-1.75-2.91-2.61,1.22Z"/></g><g><g><path class="cls-39" d="M107.65,91.66s0,.05-.02,.07c-.01,.05-.03,.09-.04,.13-.21,.48-2.27,.91-3.17,.85-.9-.06-4.32,.28-5.44,.4-1.04,.11-3.23-.15-3.58-.88-.01-.02-.02-.05-.03-.08,0-.03-.02-.07-.02-.1-.06-.87,1.58-1.62,2.64-2.05,.11-.04,.25-.1,.42-.18,.02,0,.04-.02,.06-.03,.41-.18,.95-.43,1.53-.69,.02,0,.04-.02,.06-.03,.29-.14,.6-.27,.9-.41,.02,0,.04-.02,.06-.03,.26-.12,.5-.24,.74-.35,.02,0,.04-.02,.06-.03,.9-.42,1.59-.74,1.59-.74l3.41-.03s1.1,2.95,.84,4.17Z"/><path class="cls-29" d="M107.65,91.66s0,.05-.02,.07c-1.13,.4-2.34,.48-3.51,.56-1.29,.09-2.58,.18-3.88,.26-.14,0-.28,.02-.43,.03h0s-.03,0-.05,0c-.49,.03-.99,.05-1.5,.05-.96,0-1.94-.09-2.87-.4-.01-.02-.02-.05-.03-.08,1.41,.49,2.96,.45,4.38,.36,.02,0,.04,0,.06,0,.14,0,.29-.02,.43-.03,1.29-.09,2.58-.17,3.87-.26,.49-.03,.98-.07,1.47-.12,.02,0,.03,0,.05,0,.69-.08,1.36-.2,2.01-.44Z"/><path class="cls-29" d="M105.61,92.12s0,0,0,0c-.02,0-.03-.02-.02-.04,.27-1.2,.83-2.34,1.61-3.29,.01-.01,.03-.02,.04,0,.01,.01,.01,.03,0,.04-.77,.95-1.32,2.08-1.59,3.27,0,.01-.02,.02-.03,.02Z"/><path class="cls-29" d="M99.83,92.56s0,.02,0,.02h0s0,.01-.02,.01c0,0,0,0,0,0-.01,0-.02,0-.02-.01,0,0,0,0,0,0,0-.02,0-.03-.01-.05-.22-1-.68-1.92-1.34-2.69,.02,0,.04-.02,.06-.03,.66,.78,1.13,1.71,1.35,2.72,0,.01,0,.03,0,.04Z"/><path class="cls-29" d="M100.9,90.25s0,0,0,0c-.01,0-.02,0-.03-.02-.18-.45-.48-.84-.86-1.13,.02,0,.04-.02,.06-.03,.38,.3,.67,.69,.85,1.14,0,.01,0,.03-.02,.04Z"/><path class="cls-29" d="M101.83,89.88s0,0-.01,0c-.01,0-.02,0-.03-.02-.2-.45-.48-.86-.82-1.2,.02,0,.04-.02,.06-.03,.34,.34,.63,.75,.82,1.2,0,.01,0,.03-.02,.04Z"/><path class="cls-29" d="M102.74,89.51s0,0-.01,0c0,0-.02,0-.03-.02-.26-.44-.58-.85-.94-1.21,.02,0,.04-.02,.06-.03,.36,.36,.67,.77,.93,1.21,0,.01,0,.03-.01,.04Z"/></g><path class="cls-30" d="M103.12,84.29l.29,3.23s.81,.88,2.18,.74c.93-.1,1.26-.58,1.26-.58l-.63-3.6-3.1,.22Z"/></g><path class="cls-34" d="M129.33,63.47s-1.12,6.44-3.73,7.62-7.08,.19-11.06,.12c-3.98-.06-8.32,.06-8.32,.06,0,0,.87,7.76,.43,13.04l-4.22,.37s-.93-5.53-1.37-7.95c-.43-2.42-2.36-8.2-.12-9.88,2.24-1.68,14.97-3.85,14.97-3.85l6.03-2.73,7.39,3.19Z"/><path class="cls-34" d="M116.25,62.93s-7.3,.95-7.98,1.07c-1.34,.23-2.67,.49-3.99,.82-1.14,.28-2.49,.54-3.23,1.55-.75,1.02-.69,2.44-.37,3.6,.54,1.95,6.81,13.54,6.81,13.54l3.5-2.19s-1.95-7.5-2.32-8.57c-.37-1.08-.66-2.11-.66-2.11l7.95-.08s.29-7.62,.29-7.62Z"/><path class="cls-4" d="M106.48,71.19c1.43,3.44,2.72,6.94,3.87,10.48"/><g><path class="cls-5" d="M106.66,84.32s.34-3.94,.37-5.62-.59-7.58-.59-7.58c0,0,1.68,.16,5.25,.06"/><g><path class="cls-5" d="M105.3,70.22c.45,.19,.84,.5,1.12,.89"/><path class="cls-5" d="M106.49,71.12c.1-.42,.09-.86-.01-1.27"/></g><path class="cls-5" d="M100.67,67.11s1.02-1.3,4.26-1.83c3.23-.53,11.33-2.35,11.33-2.35l4.08-1.87"/><path class="cls-4" d="M106.01,84.47c.13-3.76-.12-7.53-.75-11.24-.16-.93-.32-1.96,.18-2.76,.38-.6,1.09-.94,1.8-1.05,.71-.11,1.42-.02,2.14,.05,3.97,.4,8,.25,11.93-.44,1.01-.18,2.05-.4,2.9-.97,1.76-1.17,2.34-3.45,2.77-5.51"/><path class="cls-4" d="M124.64,61.5c-.39,1.79-.1,3.73,.81,5.32"/></g></g><g><path class="cls-30" d="M120.89,58.96l-6.05,3.6s-3.56,.08-4.43,.41c-.87,.33-4.06,.87-4.1,1.24-.04,.37,.08,.5,.08,.5,0,0-.06,.46,.23,.91,.29,.46,1.51,.04,1.51,.04,0,0-.17,.37,.21,.46,.37,.08,2.28-.37,2.73-.41s3.23,.17,3.93-.41c.7-.58,7.83-3.64,7.83-3.64l-1.95-2.69Z"/><path class="cls-4" d="M106.39,64.71s2.42-.71,3.73-.99"/><line class="cls-4" x1="106.46" y1="65.31" x2="110.29" y2="64.46"/><line class="cls-4" x1="108.13" y1="65.66" x2="110.41" y2="65.05"/></g><path class="cls-31" d="M127.93,46.99s-1.95,4.72-2.94,6c-.99,1.28-5.18,5.96-5.18,5.96l3.23,3.56s2.73-1.08,4.85-3.6c2.11-2.53,6.13-7.33,6.5-8.94,.37-1.62,1.41-4.97-.95-6.34s-5.51,3.35-5.51,3.35Z"/><g><path class="cls-27" d="M132.68,52.97c-1.35,3.43-3.15,6.69-5.33,9.65"/><g><path class="cls-3" d="M123.04,62.52s1.14-.34,3.31-2.17c2.17-1.83,6.83-7.95,7.11-8.63"/><path class="cls-3" d="M131.86,54.03c.51-.27,.98-.61,1.41-.99"/></g><path class="cls-3" d="M127.61,42.02s1.27,.79,1.71,2.22l5.49-3.29"/><path class="cls-3" d="M128.96,43.45s-.87,.66-1.08,1.22"/><path class="cls-3" d="M132.07,42.6c1.01,.54,1.82,1.42,2.28,2.46,.46,1.04,.56,2.24,.27,3.34"/><path class="cls-3" d="M119.81,58.96s2.9-3.19,4.43-5.03c1.53-1.84,2.69-4.02,3.06-5.07,.37-1.06,1.3-3.31,1.3-3.31"/><path class="cls-3" d="M121.22,57.43c1.59,.93,2.87,2.37,3.61,4.06"/></g></g></g><g><g><line class="cls-25" x1="111.65" y1="73.57" x2="107.01" y2="93.87"/><line class="cls-25" x1="127.22" y1="74.15" x2="130.7" y2="93.04"/><line class="cls-25" x1="129.38" y1="74.15" x2="133.1" y2="90.64"/></g><g><path class="cls-38" d="M138.57,48.85c-.33,4.23-5.41,18.39-6.42,19.01-.27,.16-.84,.18-1.46,.09-.04,0-.08-.01-.12-.02-1.08-.19-2.26-.73-2.18-1.47,.11-1.06,6.35-17.3,7.84-21.17,.16-.41,.59-.61,.98-.52,.04,.01,.08,.02,.12,.04,.08,.03,.15,.08,.22,.14,.6,.53,1.2,1.62,1.02,3.9Z"/><rect class="cls-38" x="108.34" y="71.18" width="22.56" height="3.44" rx="1.72" ry="1.72" transform="translate(1.5 -2.41) rotate(1.16)"/><line class="cls-9" x1="130.11" y1="66.99" x2="128.71" y2="72.08"/><g><line class="cls-6" x1="108.42" y1="73.41" x2="130.74" y2="73.95"/><path class="cls-39" d="M137.32,44.81c0,2.84-.78,5.65-1.65,8.51-1.53,4.99-3.21,9.92-4.98,14.63-.04,0-.08-.01-.12-.02,1.78-4.72,3.45-9.64,4.99-14.64,.88-2.86,1.66-5.68,1.65-8.52,.04,.01,.08,.02,.12,.04Z"/></g></g></g></g><g><g><g><path class="cls-30" d="M104.12,40.46c-.08,.14-.44,.79-.41,.95l.44,2.01s-5,1.36-5,1.36l-.66-1.55-.37-.89s0-.03,0-.03h0c-.08,.04-1.55,.73-2.33,.48-.34-.11-.46-.5-.56-.8-.11-.29-.17-.66-.23-.99,0-.02,0-.05-.01-.07-.01-.08-.03-.16-.04-.23,0-.04-.01-.08-.02-.13,0-.02,0-.03,0-.05,0-.02-.01-.05-.01-.07,0-.02,0-.04,0-.06-.04-.27-.07-.57-.15-.72-.04-.07-.69-.37-.92-.91-.23-.54,.4-.86,.73-1.51,.51-1.03,.15-2.16,.37-3.27,.16-.83,.59-1.59,1.22-2.16,1.37-1.25,3.67-1.49,5.34-.77,.11,.05,.22,.1,.33,.15,2.61,1.34,3.87,4.21,3.15,6.95-.2,.76-.46,1.62-.83,2.31Z"/><g><path class="cls-38" d="M95.01,37.33c-.02,.19,.08,.36,.23,.37,.15,.02,.28-.12,.3-.31,.02-.19-.08-.36-.23-.37-.15-.02-.28,.12-.3,.31Z"/><path class="cls-38" d="M94.87,39.21l.21,.22c.08,0,.14-.14,.15-.24,0-.01,.01-.02,.02-.02,.01,0,.02,0,.02,.02,0,.06-.01,.12-.03,.18-.02,.06-.07,.13-.15,.14h0s0,0,0,0c0,0,0,0,0,0-.02,0-.03,0-.04,0l-.17-.18-.02,.1s-.03,.04-.05,.03c-.02,0-.03-.02-.03-.03,0,0,0-.01,0-.02l.04-.18s.02-.03,.03-.03c.02,0,.03,0,.04,.01Z"/><path class="cls-34" d="M95.34,36.73c.15,.04,.31,.06,.46,.1,.13,.04,.29,.08,.38-.02,.07-.08,.04-.22-.02-.31-.17-.3-.6-.57-.95-.5-.49,.1-.22,.63,.13,.73Z"/></g><g><path class="cls-34" d="M95.31,30.87s-1.48,.95-1.27,2.4c.21,1.45,1.48,2.66,2.96,2.96,0,0,1.75,1.95,2.25,2.87,.5,.92,1.78,2.54,3.85,2.31,2.07-.24,3-2.36,3.04-5.23,.04-2.77-1.44-3.71-1.88-4.77-.44-1.07-2.93-2.78-5.06-2.25-2.13,.53-3.88,1.72-3.88,1.72Z"/><path class="cls-34" d="M102.42,31.16c-.25,.68-.16,1.47,.23,2.08,.21,.33,.51,.61,.72,.94,.29,.46,.42,1.04,.8,1.43,.31,.32,.76,.47,1.2,.46,.61-.01,1.17-.32,1.65-.69,.44-.33,.86-.73,1.09-1.24,.22-.48,.28-1.02,.26-1.55-.01-.64-.13-1.29-.48-1.82-.39-.57-1.03-.93-1.7-1.07-.46-.09-.92-.09-1.38-.04-.29,.03-.59,0-.88,.06-.68,.13-1.28,.8-1.51,1.43Z"/></g><path class="cls-49" d="M100.13,41.03c-.05,.1-.8,1.61-1.63,2.2l-.37-.89s0-.03,0-.03c0,0,1.67-.9,2-1.29Z"/><g><path class="cls-30" d="M97.41,37.85s.4-2.21,1.45-1.87c1.05,.34,1.16,2.07,.97,2.61-.19,.54-1.01,1.43-1.57,1.21-.56-.22-.85-1.96-.85-1.96Z"/><g><path class="cls-26" d="M98.44,36.97c.41,.33,.66,.85,.68,1.37"/><path class="cls-26" d="M98.79,37.39c-.23,.32-.37,.7-.39,1.1"/></g></g><path class="cls-34" d="M96.94,38.4c.05,.16,.15,.35,.29,.3,.09-.03,.13-.15,.15-.25,.14-.55,.27-1.1,.41-1.64,.07-.29,.15-.61,.07-.9-.08-.32-.35-.57-.65-.61-.21-.02-.52,.07-.62,.3-.07,.17,0,.44,.02,.62,.04,.75,.12,1.46,.32,2.18Z"/></g><g><path class="cls-35" d="M98.62,43.48s1.8-1.51,5.09-1.6c0,0,.83,.62,1.01,1.24,.18,.62,2.57,1.89,3.58,5.86,1.01,3.96,.36,6.07-.53,10.36l-1.72,5.39-10.95-.83s.24-5.39,.15-5.95c-.09-.56-2.28-3.08-.62-6.18,1.66-3.11,3.31-5.44,3.31-5.44,0,0,1.07-1.48,1.07-1.75s-.53-.83-.38-1.09Z"/><g><path class="cls-26" d="M98.99,44.58c.9-.52,1.91-.86,2.94-.99"/><path class="cls-26" d="M103.3,43.31c.45-.11,.92-.17,1.39-.18"/></g></g><g><g><g><path class="cls-30" d="M85.95,90.18l.22,2.19s.77,.39,1.97,.19c1.08-.19,1.11-.67,1.11-.67l-.33-2.19-2.97,.48Z"/><g><path class="cls-33" d="M90.66,96.01c0,.22-.02,.39-.08,.48-.22,.29-.76,.3-1.08,.32-1.7,.12-3.41-.02-5.09-.24-1.09-.14-2.16-.27-3.2-.61-.47-.15-1.7-.51-1.74-1.17,0-.02,0-.05,0-.07,0,0,0-.01,0-.02,.11-1.04,1.92-1.38,2.56-1.43,.18-.02,.41-.05,.68-.11,.03,0,.06-.01,.09-.02,.36-.08,.76-.19,1.16-.3,.02,0,.04-.01,.06-.02,.32-.09,.65-.19,.94-.28,.02,0,.04-.01,.06-.02h0c.69-.21,1.2-.39,1.2-.39,0,0,1.45,.34,1.56,.34s.93-.67,1.52-.78,.7,.93,.78,1.34c.02,.12,.11,.46,.21,.87,0,.02,.01,.04,.02,.06,.15,.64,.34,1.45,.36,2,0,.02,0,.04,0,.05Z"/><path class="cls-29" d="M90.66,96.01c-1.11,.24-2.29,.36-3.6,.36-1.22,0-2.54-.1-3.99-.31-1.31-.18-2.64-.47-3.61-1.27,0-.02,0-.05,0-.07,.67,.56,1.51,.87,2.4,1.07,.02,0,.04,0,.06,.01,.38,.09,.77,.15,1.16,.2,2.06,.29,3.85,.38,5.46,.25,.02,0,.04,0,.05,0,.72-.05,1.41-.15,2.07-.3,0,.02,0,.04,0,.05Z"/><path class="cls-29" d="M90.3,93.96c-.21-.05-.43-.04-.63,.04-.38,.15-.69,.5-.87,.96-.16,.41-.19,.86-.21,1.29,0,.01,0,.02,0,.03h-.05s0-.02,0-.03c.02-.43,.05-.89,.22-1.32,.18-.48,.51-.84,.9-.99,.21-.08,.43-.1,.64-.05,0,.02,.01,.04,.02,.06Z"/><path class="cls-29" d="M81.91,95.81h0s-.05,.02-.05,.02c0,0,0-.02,0-.03-.06-.94,.26-1.89,.85-2.63,.03,0,.06-.01,.09-.02-.61,.74-.94,1.7-.87,2.66Z"/><path class="cls-29" d="M83.92,93.96v.05s-.05,0-.05,0c-.07-.39-.05-.79,.07-1.17,.02,0,.04-.01,.06-.02-.12,.36-.15,.75-.09,1.13h0Z"/><path class="cls-29" d="M84.93,93.65v.05s-.05,0-.05,0c-.07-.38-.05-.79,.07-1.16,.02,0,.04-.01,.06-.02-.12,.36-.15,.75-.09,1.12h0Z"/></g></g><polygon class="cls-37" points="78.59 74.72 85.51 90.31 89.45 89.69 86.64 75.85 78.59 74.72"/><path class="cls-1" d="M81.9,75.64c1.94,4.79,3.7,9.53,5.64,14.32"/></g><g><path class="cls-30" d="M77.6,91.8l.24,2.33s.82,.42,2.09,.2c1.14-.2,1.18-.71,1.18-.71l-.36-2.33-3.16,.51Z"/><g><path class="cls-39" d="M82.6,98.01c0,.23-.02,.41-.09,.51-.23,.31-.81,.32-1.15,.34-1.8,.13-3.62-.03-5.41-.25-1.16-.15-2.29-.29-3.4-.65-.5-.16-1.81-.54-1.85-1.24,0-.03,0-.05,0-.08,0,0,0-.01,0-.02,.12-1.11,2.04-1.46,2.72-1.52,.19-.02,.44-.06,.72-.12,.03,0,.06-.01,.09-.02,.38-.08,.81-.2,1.24-.32,.02,0,.04-.01,.06-.02,.34-.1,.69-.2,1-.3,.02,0,.04-.01,.06-.02h0c.73-.22,1.28-.41,1.28-.41,0,0,1.54,.36,1.66,.36s.99-.71,1.62-.83c.63-.12,.75,.99,.83,1.42,.02,.13,.12,.48,.22,.92,0,.02,.01,.04,.02,.06,.16,.68,.36,1.54,.38,2.12,0,.02,0,.04,0,.06Z"/><path class="cls-29" d="M82.6,98.01c-1.18,.25-2.44,.38-3.82,.38-1.29,0-2.7-.11-4.24-.33-1.39-.19-2.8-.5-3.84-1.35,0-.03,0-.05,0-.08,.71,.6,1.6,.92,2.54,1.14,.02,0,.04,0,.06,.01,.41,.09,.82,.16,1.24,.22,2.19,.31,4.09,.4,5.8,.27,.02,0,.04,0,.06,0,.77-.06,1.5-.16,2.2-.32,0,.02,0,.04,0,.06Z"/><path class="cls-29" d="M82.22,95.83c-.22-.05-.46-.04-.67,.05-.4,.16-.73,.53-.92,1.02-.17,.44-.2,.92-.23,1.37,0,.01,0,.02,0,.03h-.06s0-.02,0-.03c.02-.46,.06-.95,.23-1.4,.19-.51,.54-.89,.95-1.05,.22-.09,.46-.1,.68-.06,0,.02,.01,.04,.02,.06Z"/><path class="cls-29" d="M73.3,97.79h0s-.06,.02-.06,.02c0,0,0-.02,0-.03-.06-1,.27-2.01,.9-2.79,.03,0,.06-.01,.09-.02-.65,.78-1,1.81-.93,2.83Z"/><path class="cls-29" d="M75.44,95.82v.05s-.05,0-.05,0c-.08-.41-.05-.84,.08-1.24,.02,0,.04-.01,.06-.02-.13,.38-.16,.8-.09,1.2h0Z"/><path class="cls-29" d="M76.51,95.49v.06s-.05,0-.05,0c-.08-.41-.05-.83,.07-1.23,.02,0,.04-.01,.06-.02-.12,.38-.16,.79-.09,1.19h0Z"/></g></g><path class="cls-37" d="M106.05,64.72s.3,9.05-2.13,11.36c-2.43,2.31-11.72,1.66-12.25,.53-.53-1.12,3.43-12.72,3.43-12.72l10.95,.83Z"/><path class="cls-37" d="M95.28,65.73s-11.6,1.89-14.44,2.54c-2.84,.65-6.98,.53-7.69,4.38s4.14,19.59,4.14,19.59l3.96-.71-1.93-16.51s11.72,3.1,18.56,2.56c5.15-.4,6.39-1.85,6.39-1.85l.47-7.63-9.47-2.37Z"/><g><path class="cls-1" d="M81.27,91.51l-1.97-16.63s7.26,2.33,15.27,2.6"/><path class="cls-1" d="M94.43,65.87c.63-.12,1.26-.24,1.89-.35"/><path class="cls-1" d="M78.15,74.17c.41,.18,.79,.41,1.14,.69-.04-.36-.12-.71-.24-1.05"/><path class="cls-1" d="M94.79,64.86c3.75,.41,7.52,.62,11.3,.6"/><path class="cls-1" d="M79.59,91.78c-1.18-5.29-2.01-10.45-2.65-15.84-.1-.87-.18-1.83,.32-2.55,.46-.67,1.32-.96,2.13-.96,.81,0,1.6,.26,2.37,.49,3.17,.94,6.46,1.47,9.77,1.57,1.64,.05,3.37-.03,4.74-.93,1.27-.83,2.04-2.28,2.38-3.76,.34-1.48,.3-3.02,.25-4.54"/><path class="cls-1" d="M96.72,65.1c-.23,.9-.16,1.88,.19,2.75,.35,.86,.92,1.58,1.72,2.06"/></g></g><g><g><path class="cls-30" d="M95.8,59.08l-.48-.6-2.46,.8-2.49,3.08s-.38,1.39-.38,1.92,.47,3.05,.89,3.11,2.04,0,2.19-.59c.11-.42,.29-1.95,.38-2.79,.02,.29,.07,.56,.14,.8,.02,.06,.04,.12,.08,.15,.08,.06,.2,.04,.27-.03,.07-.07,.11-.16,.14-.26,.2-.57,.31-1.17,.37-1.77,.04-.36,.11-.83,.12-1.25,.48-.91,1.22-2.56,1.22-2.56Z"/><path class="cls-42" d="M95.8,59.08l-.48-.6-2.46,.8-2.49,3.08s-.38,1.39-.38,1.92,.47,3.05,.89,3.11,2.04,0,2.19-.59c.11-.42,.29-1.95,.38-2.79,.02,.29,.07,.56,.14,.8,.02,.06,.04,.12,.08,.15,.08,.06,.2,.04,.27-.03,.07-.07,.11-.16,.14-.26,.2-.57,.31-1.17,.37-1.77,.04-.36,.11-.83,.12-1.25,.48-.91,1.22-2.56,1.22-2.56Z"/><g><path class="cls-15" d="M92.59,63.08s-.33,1.29-.31,1.86c.02,.57,.07,2.29,.07,2.29"/><path class="cls-15" d="M91.62,63.17s-.25,1.6-.24,1.97c.01,.37,.27,2.26,.27,2.26"/><path class="cls-15" d="M90.6,63.61s-.09,1.32,0,1.89c.09,.58,.47,1.88,.47,1.88"/></g></g><g><path class="cls-30" d="M97.24,38.69c-.41-.17-.63,.23-.63,.23,0,0,.06-.56-.27-.56s-.5,.41-.5,.41c0,0,.06-.59-.36-.53-.41,.06-.95,2.22-.95,2.22,0,0,.06-.95-.21-1.01-.27-.06-.86,1.83-.92,2.37-.06,.53-.62,1.69-.8,2.9-.18,1.21-.1,3.1-.1,3.1,0,0-2.17,5.44-3.2,8.72-1.03,3.27-.71,5.64-.71,5.64,0,0,2.17,1.14,4.14-.28s1.93-13.41,1.93-13.41c0,0,.95-.99,1.63-1.93,.68-.95,.44-1.69,.44-2.16s.3-2.81,.33-3.28c.03-.47,.56-2.25,.16-2.42Z"/><g><path class="cls-30" d="M92.87,54.6s-4.34,5.17-4.3,7.06c.04,1.89,1.38,2.64,2.76,2.01,1.38-.63,5.52-5.21,5.52-5.21l-3.98-3.87Z"/><path class="cls-43" d="M97.24,38.69c-.41-.17-.63,.23-.63,.23,0,0,.06-.56-.27-.56s-.5,.41-.5,.41c0,0,.06-.59-.36-.53-.41,.06-.95,2.22-.95,2.22,0,0,.06-.95-.21-1.01-.27-.06-.86,1.83-.92,2.37-.06,.53-.62,1.69-.8,2.9-.18,1.21-.1,3.1-.1,3.1,0,0-2.17,5.44-3.2,8.72-1.03,3.27-.71,5.64-.71,5.64,0,0,2.17,1.14,4.14-.28s1.93-13.41,1.93-13.41c0,0,.95-.99,1.63-1.93,.68-.95,.44-1.69,.44-2.16s.3-2.81,.33-3.28c.03-.47,.56-2.25,.16-2.42Z"/><line class="cls-15" x1="92.67" y1="54.56" x2="89.8" y2="59.1"/><g><path class="cls-35" d="M92.67,54.56s3.51-8.05,5.27-8.25c1.76-.2,3.02,3.95,2.39,6.35s-3.31,6.47-3.31,6.47l-4.34-4.58Z"/><g><g><path class="cls-26" d="M97.94,46.32s1.98,.03,2.31,3.31"/><line class="cls-26" x1="93.03" y1="53.92" x2="96.99" y2="57.68"/></g><line class="cls-26" x1="96.67" y1="58.77" x2="99.68" y2="54.99"/><line class="cls-26" x1="98.29" y1="56.82" x2="99.8" y2="55.9"/><path class="cls-26" d="M99.51,56.08c.08,2.66,.08,5.33,0,7.99"/></g></g><g><path class="cls-15" d="M94.52,40.43s-.53,1.86-.67,2.87"/><path class="cls-15" d="M95.84,38.77s-.86,2.87-1.14,4.59"/><path class="cls-15" d="M96.62,38.86s-.86,3.61-1.04,4.54"/></g></g></g></g></g><g><g><path class="cls-38" d="M111.73,52.65c.08,6.94-2,13.5-4.4,19.94-.2,.54-.7,.92-1.28,.95l-1.47,.09-8.6,.52-.81,.05c-.4,.02-.77-.11-1.04-.35-.03-.03-.07-.06-.1-.09-.32-.33-.48-.81-.38-1.31,.61-2.94,1.25-5.87,1.94-8.79,1.15-4.84,2.27-10.3,5.63-14.13,.17-.2,.35-.39,.54-.58,.5-.51,1.05-.99,1.65-1.42,1.3-.94,2.92-1.54,4.51-1.29,3.02,.48,3.77,3.83,3.81,6.42Z"/><line class="cls-21" x1="96.28" y1="72.83" x2="95.16" y2="77.68"/><line class="cls-21" x1="104.98" y1="71.88" x2="103.86" y2="76.73"/><path class="cls-38" d="M105.02,77.28l-.31,1.41c-.01,.05-.03,.1-.05,.16-.01,.04-.03,.08-.05,.12-.2,.42-.61,.71-1.09,.74l-.48,.03-11.52,.75-.71,.05-13.49-3.21s-.08-.02-.12-.03c-.58-.18-.99-.66-1.11-1.22,0-.04-.02-.08-.02-.12-.02-.12-.02-.25,0-.37l.02-.16c.1-.96,1.04-1.62,2-1.41l13.33,2.87,3.96-.15,8.55-.33h.29c.51-.03,.9,.42,.79,.91Z"/><g><path class="cls-24" d="M77.64,76.38s-5.68,11.24-6.98,21.72"/><line class="cls-24" x1="91.61" y1="79.69" x2="89.48" y2="101.35"/><line class="cls-24" x1="102.97" y1="79.34" x2="106.99" y2="98.81"/></g></g><path class="cls-39" d="M101.76,48.93c-1.32,1.85-2.81,4.58-3.83,8.35-1.92,7.14-3.43,14.62-3.81,16.56-.03-.03-.07-.06-.1-.09,.4-2.04,1.9-9.44,3.8-16.5,.91-3.37,2.19-5.91,3.39-7.73,.17-.2,.35-.39,.54-.58Z"/><path class="cls-39" d="M104.67,78.84s-.03,.08-.05,.12l-13.36,.67h0s0,0-.01,0l-13.62-3.21-1.52-.36s-.02-.08-.02-.12l15.18,3.59,13.41-.67Z"/></g></g><g><g><ellipse class="cls-29" cx="145.21" cy="100" rx="9.6" ry="1.57"/><g><g><g><path class="cls-37" d="M146.73,78.52s1.25-4.66,2.44-9.05c1.18-4.39,4.25-11.97,5.64-11.76,1.39,.21,.28,6.4-.9,9.88-1.18,3.48-7.03,11.21-7.03,11.21"/><path class="cls-20" d="M143.98,91.37c.05-.16,.78-6.94,3.5-14.36,2.71-7.41,6.16-16.29,6.16-16.29"/></g><g><path class="cls-37" d="M152.94,77.3c.4-.16,.83-.3,1.26-.31,.44,0,.89,.13,1.18,.46,.45,.51,.37,1.32,0,1.89-.37,.57-.96,.94-1.53,1.3-.79,.5-7.85,5.27-8.14,4.91-.19-.24,.46-1.48,.58-1.73,.25-.55,.53-1.08,.85-1.58,.65-1.04,1.45-1.98,2.37-2.79,.98-.87,2.19-1.72,3.44-2.14Z"/><path class="cls-20" d="M144.14,91.42s.57-4.49,2.35-7.31c0,0,2.94-4.79,7.47-6.18"/></g><g><g><path class="cls-37" d="M142.65,76.94c.04,.24-.28,.35-.4,.14-1.05-1.77-3.3-5.59-4.44-7.67-1.53-2.78-6.96-12.88-4.59-14.69,2.37-1.81,6.54,8.28,7.52,11.9,.75,2.78,1.58,8.04,1.93,10.32Z"/><path class="cls-20" d="M134.53,56.02s3.92,5.27,5.9,12.58c1.98,7.31,2.35,10.08,2.35,10.08l1.25,12.27"/></g><g><path class="cls-34" d="M125.51,79.34c-.63,2.18,.1,3.82,1.94,3.12,1.84-.7,1.39-4.32,6.37-5.46,0,0-4.63-.7-8.18,2.3l-.13,.05Z"/><path class="cls-37" d="M142.99,80.25s-.04-.03-.06-.04c0,0,0,0,0,0-2.54-1.78-5.58-2.85-8.68-2.95-.47-.01-.95,0-1.42,.02-2.6,.16-5.16,.95-7.39,2.31-.04,.02-.07,.04-.11,.07,.27-1.28,.96-2.15,1.98-2.97,1.64-1.33,3.69-2.11,5.79-2.25,.33-.02,.65-.03,.98-.02,.65,.02,1.3,.1,1.94,.24,1.78,.41,3.44,1.32,4.77,2.58,0,0,0,0,0,0,.9,.85,1.65,1.86,2.18,2.99,0,.01,.01,.02,.02,.03Z"/><path class="cls-34" d="M142.98,80.22s0,0,0,0c0,0,0,0-.01,0-.01,0-.02,0-.03,0,0,0,0,0,0,0,0,0-.01-.01-.02-.02-.9-2.13-3.22-4.1-5.92-5.03-1.18-.41-2.46-.65-3.9-.73,.33-.02,.65-.03,.98-.02,1.06,.12,2.03,.34,2.95,.65,1.4,.48,2.71,1.25,3.76,2.17,0,0,0,0,0,0,1,.87,1.77,1.87,2.21,2.92,.01,.03,0,.06-.03,.07Z"/></g></g></g><path class="cls-35" d="M137.27,88.27h15.34l-2.13,10.05c-.14,.67-.73,1.15-1.42,1.15h-7.7c-.66,0-1.23-.44-1.4-1.08l-2.69-10.13Z"/></g></g><g><ellipse class="cls-29" cx="15.73" cy="99.63" rx="9.6" ry="1.57"/><g><g><path class="cls-32" d="M1.62,54.73c-.27-1.18-.38-2.6,.7-3.32,.4-.26,.88-.36,1.35-.32,1.05,.09,1.89,.74,2.63,1.42,4.06,3.75,6.22,9.16,7.35,14.58,.81,3.87,1.24,7.83,1.67,11.77,.06,.5-.66,.67-.83,.19-.28-.8-.55-1.6-.9-2.32-.91-1.83-1.97-3.58-3.07-5.3-2.22-3.45-4.66-6.78-6.54-10.45-1.02-1.99-1.86-4.07-2.37-6.25Z"/><path class="cls-20" d="M4.12,52.89s5.44,4.71,7.8,12.51c2.35,7.8,3.4,13.46,3.4,13.46"/></g><g><path class="cls-32" d="M15.61,65.1c.43-4.54,1.44-9.08,3.48-13.16,.45-.91,.97-1.81,1.75-2.46,.78-.65,1.88-1,2.84-.66,1.36,.48,1.94,2.08,2.11,3.51,.46,3.67-.57,7.35-1.84,10.83-1.08,2.96-2.36,5.84-3.81,8.64-.73,1.41-1.51,2.8-2.33,4.16-.59,.97-1.4,2.95-2.36,3.53-.25-.64-.06-1.65-.07-2.34-.03-1.34-.06-2.68-.07-4.02-.02-2.68,.04-5.36,.3-8.02Z"/><path class="cls-20" d="M15.68,79.45c.4-9.84,2.76-19.6,6.9-28.54"/></g><g><path class="cls-32" d="M21.68,69.36c2.09-3.18,4.54-6.16,7.49-8.44,.66-.51,1.36-.99,2.12-1.19,.77-.2,1.62-.07,2.11,.52,.7,.83,.44,2.21-.01,3.33-1.16,2.86-3.29,5.2-5.5,7.31-1.88,1.79-3.86,3.46-5.92,5.01-1.04,.78-2.1,1.52-3.17,2.23-.77,.51-2.09,1.67-2.94,1.76,.09-.56,.62-1.23,.88-1.75,.51-1,1.02-1.99,1.55-2.98,1.05-1.97,2.16-3.92,3.38-5.79Z"/><path class="cls-7" d="M16.04,79.93c4.17-7.09,9.59-13.43,15.84-18.54"/></g><path class="cls-35" d="M8.09,78.67h15.34l-2.13,18.97c-.14,1.26-.73,2.17-1.42,2.17h-7.7c-.66,0-1.23-.83-1.4-2.03l-2.69-19.1Z"/></g></g></g></g></g></g></svg>