<?xml version="1.0" encoding="UTF-8"?><svg id="Camada_1" xmlns="http://www.w3.org/2000/svg" viewBox="0 0 416 366"><defs><style>.cls-1,.cls-2{fill:#f5e7d5;}.cls-3,.cls-4{fill:#fff6ea;}.cls-5,.cls-6{fill:#ffc258;}.cls-7,.cls-8{fill:#f0af3e;}.cls-9,.cls-10{fill:#de412c;}.cls-11,.cls-12{fill:#11434a;}.cls-13,.cls-14{fill:#165861;}.cls-15{fill:#14b0bf;}.cls-16,.cls-17{fill:#1b6b76;}.cls-18,.cls-19{fill:#3daab0;}.cls-20,.cls-21{fill:#36979c;}.cls-22,.cls-23{fill:#47c6cc;}.cls-24{fill:#f9462f;}.cls-24,.cls-21,.cls-23,.cls-19,.cls-17,.cls-12,.cls-14,.cls-10,.cls-8,.cls-4,.cls-25,.cls-2,.cls-26,.cls-6{fill-rule:evenodd;}.cls-25{fill:#fff;}.cls-26{fill:#e8d5bc;}</style></defs><path class="cls-25" d="M210,53.88l-.64-.03-.86-.04-.86-.03-.86-.02-.86-.02h-.86s-.87-.02-.87-.02h-.87s0,3.3,0,3.3h-.84s-.84,.01-.84,.01h-.84s-.84,.03-.84,.03l-.84,.02-.84,.03-.84,.03h-.09s-.17-3.29-.17-3.29h.11s.86-.04,.86-.04l.86-.03,.86-.02,.86-.02h.86s.86-.02,.86-.02h.87s6.67,.16,6.67,.16h0Zm-6.67,3.14h.85s.84,.01,.84,.01h.84s.84,.03,.84,.03l.84,.02,.84,.03,.84,.03,.64,.03,.15-3.3-6.67,3.14h0Zm-16.13-2.34h-.09s-.84,.12-.84,.12l-.84,.11-.84,.11-.83,.12-.83,.12-.83,.13-.83,.13-.69,.12,.56,3.25,.67-.11,.81-.13,.81-.13,.81-.12,.81-.12,.82-.11,.82-.11,.82-.1h.09s-.4-3.29-.4-3.29h0Zm-16.43,3.02l-.12,.03-.8,.2-.8,.21-.8,.21-.8,.22-.8,.22-.79,.23-.79,.23-.74,.22,.96,3.16,.72-.22,.77-.23,.77-.22,.77-.22,.78-.21,.78-.21,.78-.2,.78-.2,.12-.03-.8-3.2h0Zm-15.93,5.06l-.64,.25-.76,.3-.76,.31-.75,.31-.75,.32-.75,.32-.75,.32-.75,.33-.26,.12,1.36,3.01,.25-.11,.73-.32,.73-.32,.73-.31,.73-.31,.74-.3,.74-.3,.74-.3,.63-.25-1.21-3.07h0Zm-15.16,7.01l-.21,.11-.71,.39-.71,.39-.7,.4-.7,.4-.7,.4-.7,.41-.69,.41-.67,.4,1.72,2.82,.65-.39,.68-.4,.68-.4,.68-.4,.69-.39,.69-.39,.69-.38,.69-.38,.21-.11-1.58-2.9h0Zm-14.17,8.85l-.39,.28-.65,.47-.65,.48-.65,.48-.64,.48-.64,.49-.64,.49-.63,.49-.44,.35,2.06,2.58,.43-.34,.62-.48,.62-.48,.62-.48,.63-.47,.63-.47,.63-.46,.64-.46,.39-.28-1.93-2.68h0Zm-12.96,10.54l-.48,.45-.59,.55-.58,.55-.58,.56-.58,.56-.57,.56-.57,.57-.57,.57-.28,.28,2.36,2.31,.26-.27,.55-.55,.56-.55,.56-.55,.56-.55,.57-.54,.57-.54,.57-.54,.48-.45-2.25-2.42h0Zm-11.55,12.05l-.02,.02-.52,.62-.51,.62-.51,.62-.51,.63-.5,.63-.5,.63-.5,.63-.49,.64-.14,.18,2.63,1.99,.13-.17,.48-.62,.48-.62,.49-.62,.49-.61,.49-.61,.5-.61,.5-.6,.5-.6,.02-.02-2.52-2.13h0Zm-9.98,13.4l-.12,.18-.44,.68-.43,.68-.43,.68-.42,.69-.42,.69-.42,.69-.41,.69-.41,.7,2.85,1.66,.4-.68,.4-.68,.41-.67,.41-.67,.41-.67,.42-.67,.42-.66,.43-.66,.12-.19-2.77-1.8h0Zm-8.23,14.54l-.22,.45-.35,.73-.35,.74-.34,.74-.34,.74-.33,.74-.33,.74-.32,.75-.19,.44,3.04,1.29,.18-.43,.32-.73,.32-.73,.33-.72,.33-.72,.33-.72,.34-.72,.34-.71,.22-.45-2.97-1.43h0Zm-6.35,15.45l-.04,.12-.26,.78-.26,.78-.25,.78-.25,.79-.24,.79-.24,.79-.23,.79-.22,.76,3.18,.9,.21-.74,.23-.77,.23-.77,.24-.77,.24-.77,.25-.76,.25-.76,.25-.76,.04-.12-3.13-1.06h0Zm-4.37,16.13l-.16,.78-.16,.82-.16,.82-.15,.82-.15,.83-.14,.83-.13,.83-.13,.83v.03s3.26,.48,3.26,.48h0s.13-.81,.13-.81l.13-.81,.14-.81,.14-.81,.15-.8,.15-.8,.16-.8,.16-.78-3.24-.64h0Zm-2.31,16.53v.12s-.07,.85-.07,.85l-.06,.85-.05,.85-.05,.86-.04,.86-.03,.86-.03,.86-.02,.57,3.3,.08,.02-.55,.03-.84,.03-.84,.04-.84,.05-.83,.05-.83,.06-.83,.06-.83v-.12s-3.28-.25-3.28-.25h0Zm-.25,16.7l.03,.61,.05,.86,.05,.85,.06,.85,.06,.85,.07,.85,.07,.85,.08,.85v.1s3.29-.33,3.29-.33v-.08s-.08-.83-.08-.83l-.07-.83-.07-.83-.06-.83-.06-.83-.05-.83-.05-.83-.03-.61-3.3,.17h0Zm1.8,16.6h0s.15,.83,.15,.83l.15,.82,.16,.82,.16,.82,.16,.82,.17,.82,.18,.82,.18,.81,3.22-.72-.18-.79-.17-.79-.16-.8-.16-.8-.16-.8-.15-.8-.15-.8-.14-.81h0s-3.25,.55-3.25,.55h0Zm3.86,16.26l.21,.7,.25,.78,.25,.78,.26,.78,.26,.78,.27,.78,.27,.77,.28,.77,.07,.19,3.1-1.14-.06-.17-.27-.75-.26-.76-.26-.76-.25-.76-.25-.76-.25-.76-.24-.77-.21-.7-3.15,.98h0Zm5.87,15.64l.16,.36,.34,.74,.34,.74,.35,.74,.35,.73,.35,.73,.36,.73,.36,.73,.27,.54,2.94-1.51-.26-.52-.36-.71-.35-.71-.35-.71-.34-.72-.34-.72-.33-.72-.33-.72-.16-.36-3.01,1.36h0Zm7.78,14.79l.36,.59,.42,.69,.43,.68,.43,.68,.44,.68,.44,.67,.44,.67,.45,.67,.19,.28,2.73-1.86-.18-.26-.44-.65-.43-.66-.43-.66-.43-.66-.42-.66-.42-.67-.41-.67-.36-.59-2.81,1.73h0Zm9.55,13.69l.07,.08,.5,.63,.51,.63,.51,.62,.51,.62,.52,.62,.52,.61,.52,.61,.53,.61,.1,.11,2.47-2.19-.09-.1-.52-.59-.51-.59-.51-.6-.5-.6-.5-.6-.5-.61-.49-.61-.49-.61-.07-.08-2.58,2.06h0Zm11.18,12.41l.19,.19,.58,.56,.58,.56,.58,.55,.59,.55,.59,.55,.59,.54,.6,.54,.59,.52,2.19-2.47-.57-.51-.58-.53-.58-.53-.58-.53-.57-.54-.57-.54-.57-.54-.56-.55-.19-.19-2.31,2.36h0Zm12.63,10.93l.35,.27,.64,.48,.65,.48,.65,.48,.65,.47,.65,.47,.66,.47,.66,.46,.5,.34,1.86-2.73-.48-.33-.64-.45-.64-.45-.64-.46-.64-.46-.63-.46-.63-.47-.63-.47-.35-.27-1.99,2.63h0Zm13.89,9.28l.58,.33,.7,.4,.7,.4,.71,.39,.71,.39,.71,.38,.72,.38,.72,.38,.31,.16,1.5-2.94-.29-.15-.7-.37-.7-.37-.7-.38-.69-.38-.69-.38-.69-.39-.69-.39-.58-.33-1.65,2.86h0Zm14.93,7.48l.18,.08,.75,.31,.75,.31,.76,.31,.76,.3,.76,.3,.76,.29,.77,.29,.72,.26,1.14-3.1-.7-.26-.75-.28-.74-.29-.74-.29-.74-.29-.74-.3-.74-.3-.73-.31-.18-.08-1.29,3.04h0Zm15.76,5.56l.69,.19,.8,.22,.8,.21,.8,.21,.8,.2,.81,.2,.81,.2,.81,.19,.16,.04,.72-3.22-.14-.03-.79-.18-.79-.19-.79-.2-.78-.2-.78-.2-.78-.21-.78-.21-.69-.19-.88,3.18h0Zm16.33,3.53l.67,.1,.83,.12,.84,.11,.84,.11,.84,.1,.84,.1,.84,.09,.84,.09h.09s.31-3.28,.31-3.28h-.07s-.82-.09-.82-.09l-.82-.09-.82-.1-.82-.1-.82-.11-.82-.11-.81-.12-.67-.1-.48,3.27h0Zm16.63,1.47h.15s.86,.02,.86,.02h.86s.86,.02,.86,.02h.87s.87,0,.87,0h.87s.86-.02,.86-.02h.48s-.08-3.31-.08-3.31h-.46s-.84,.02-.84,.02h-.84s-.85,.01-.85,.01h-.84s-.84-.01-.84-.01h-.84s-.84-.03-.84-.03h-.15s-.08,3.3-.08,3.3h0Zm16.7-.58l.61-.06,.84-.09,.84-.09,.84-.1,.84-.1,.84-.11,.84-.11,.83-.12,.15-.02-.5-3.26-.13,.02-.81,.12-.82,.11-.82,.11-.82,.1-.82,.1-.82,.09-.82,.08-.61,.06,.33,3.28h0Zm16.49-2.65l.67-.15,.81-.19,.81-.2,.81-.2,.8-.2,.8-.21,.8-.21,.8-.22,.18-.05-.9-3.18-.16,.05-.78,.21-.78,.21-.78,.2-.78,.2-.79,.2-.79,.19-.79,.18-.67,.15,.74,3.22h0Zm16.03-4.69l.45-.16,.77-.28,.77-.29,.76-.29,.76-.3,.76-.3,.76-.31,.75-.31,.44-.18-1.29-3.04-.42,.18-.74,.3-.74,.3-.74,.29-.74,.29-.75,.29-.75,.28-.75,.28-.45,.16,1.14,3.1h0Zm15.31-6.66l.06-.03,.72-.37,.72-.38,.72-.38,.71-.38,.71-.39,.71-.39,.71-.4,.7-.4,.12-.07-1.66-2.85-.1,.06-.68,.39-.69,.39-.69,.38-.69,.38-.7,.38-.7,.37-.7,.37-.7,.36-.07,.03,1.51,2.94h0Zm14.37-8.52l.28-.19,.66-.46,.66-.46,.66-.47,.65-.47,.65-.47,.65-.48,.65-.48,.57-.43-1.99-2.63-.55,.41-.63,.47-.63,.46-.64,.46-.64,.46-.64,.45-.65,.45-.65,.45-.28,.19,1.86,2.73h0Zm13.2-10.24l.39-.34,.6-.54,.6-.54,.59-.54,.59-.55,.59-.55,.58-.55,.58-.56,.39-.38-2.31-2.36-.37,.36-.57,.54-.57,.54-.57,.54-.58,.53-.58,.53-.58,.53-.59,.52-.39,.34,2.19,2.47h0Zm11.83-11.79l.45-.51,.53-.61,.52-.61,.52-.61,.52-.62,.51-.62,.51-.62,.51-.63,.23-.29-2.58-2.05-.22,.28-.49,.61-.5,.61-.5,.6-.5,.6-.51,.6-.51,.59-.52,.59-.45,.51,2.48,2.18h0Zm10.27-13.16l.04-.06,.45-.67,.45-.67,.45-.67,.44-.67,.44-.68,.43-.68,.43-.68,.43-.69,.09-.14-2.82-1.72-.08,.13-.42,.67-.42,.67-.42,.66-.43,.66-.43,.66-.43,.66-.44,.65-.44,.65-.04,.06,2.72,1.86h0Zm8.57-14.34l.15-.29,.37-.72,.36-.73,.36-.73,.35-.73,.35-.73,.35-.74,.34-.74,.28-.61-3.01-1.36-.27,.59-.33,.72-.34,.72-.34,.72-.35,.71-.35,.71-.35,.71-.36,.7-.15,.29,2.94,1.51h0Zm6.71-15.3l.25-.69,.28-.77,.27-.77,.26-.78,.26-.78,.26-.78,.25-.78,.25-.78,.06-.19-3.16-.96-.05,.17-.24,.77-.25,.76-.25,.76-.25,.76-.26,.76-.26,.76-.27,.75-.25,.69,3.11,1.12h0Zm4.73-16.02l.12-.52,.18-.81,.18-.82,.17-.82,.16-.82,.16-.82,.15-.82,.15-.82,.05-.3-3.25-.56-.05,.28-.14,.8-.15,.8-.16,.8-.16,.8-.17,.8-.17,.79-.18,.79-.12,.52,3.22,.72h0Zm2.69-16.49l.06-.62,.08-.85,.07-.85,.07-.85,.06-.85,.06-.85,.05-.85,.05-.86v-.08s-3.29-.15-3.29-.15v.06s-.05,.83-.05,.83l-.05,.83-.05,.83-.06,.83-.07,.83-.07,.83-.08,.83-.06,.62,3.29,.31h0Zm.63-16.68v-.25s-.03-.86-.03-.86l-.03-.86-.04-.86-.04-.86-.05-.86-.05-.85-.06-.85-.03-.43-3.29,.25,.03,.41,.05,.83,.05,.83,.04,.83,.04,.84,.03,.84,.03,.84,.02,.84v.25s3.31-.08,3.31-.08h0Zm-1.42-16.64l-.08-.55-.13-.83-.13-.83-.14-.83-.14-.83-.15-.82-.15-.82-.16-.82-.05-.26-3.23,.66,.05,.24,.16,.8,.15,.8,.14,.8,.14,.81,.14,.81,.13,.81,.13,.81,.08,.54,3.26-.5h0Zm-3.48-16.34l-.14-.48-.23-.79-.23-.79-.24-.79-.24-.79-.25-.79-.25-.78-.26-.78-.13-.39-3.13,1.06,.13,.37,.25,.76,.25,.76,.24,.77,.24,.77,.23,.77,.23,.77,.22,.77,.14,.48,3.18-.9h0Zm-5.5-15.77l-.08-.19-.32-.75-.32-.75-.33-.74-.33-.74-.34-.74-.34-.74-.35-.74-.34-.7-2.97,1.43,.33,.68,.34,.72,.33,.72,.33,.72,.32,.72,.32,.73,.32,.73,.31,.73,.08,.19,3.04-1.29h0Zm-7.44-14.96l-.27-.46-.41-.7-.41-.69-.42-.69-.42-.69-.43-.69-.43-.68-.43-.68-.27-.41-2.77,1.8,.25,.4,.42,.66,.42,.67,.42,.67,.41,.67,.41,.67,.4,.68,.4,.68,.27,.46,2.85-1.66h0Zm-9.24-13.92l-.46-.6-.49-.64-.5-.63-.5-.63-.5-.63-.51-.63-.51-.62-.51-.62-.19-.23-2.52,2.13,.18,.21,.5,.6,.5,.61,.49,.61,.49,.61,.49,.62,.48,.62,.48,.62,.46,.6,2.62-2.01h0Zm-10.89-12.66l-.09-.09-.56-.57-.57-.57-.57-.57-.57-.56-.58-.56-.58-.56-.58-.55-.59-.55-.1-.09-2.24,2.43,.08,.08,.57,.54,.57,.54,.57,.54,.56,.55,.56,.55,.56,.55,.55,.55,.55,.56,.09,.09,2.36-2.31h0Zm-12.38-11.22l-.23-.18-.63-.5-.63-.49-.64-.49-.64-.49-.64-.48-.65-.48-.65-.48-.61-.44-1.93,2.68,.59,.43,.63,.46,.63,.47,.63,.47,.63,.48,.62,.48,.62,.48,.62,.49,.23,.18,2.05-2.58h0Zm-13.67-9.6l-.43-.26-.69-.42-.69-.41-.7-.41-.7-.4-.7-.4-.71-.4-.71-.39-.45-.25-1.58,2.9,.44,.24,.69,.38,.69,.39,.68,.39,.68,.4,.68,.4,.68,.4,.67,.41,.43,.26,1.72-2.82h0Zm-14.75-7.82h-.01s-.74-.34-.74-.34l-.75-.33-.75-.32-.75-.32-.75-.32-.75-.31-.76-.31-.76-.3-.14-.06-1.19,3.08,.13,.05,.74,.3,.74,.3,.74,.3,.73,.31,.73,.31,.73,.32,.73,.32,.72,.32h.01s1.36-3,1.36-3h0Zm-15.63-5.92l-.47-.14-.79-.24-.79-.23-.79-.23-.8-.22-.8-.22-.8-.21-.8-.21-.4-.1-.8,3.2,.38,.1,.78,.2,.78,.21,.78,.21,.78,.22,.77,.22,.77,.23,.77,.23,.47,.14,.96-3.16h0Zm-16.24-3.91l-.39-.07-.83-.14-.83-.13-.83-.13-.83-.12-.83-.12-.84-.11-.84-.11-.4-.05-.4,3.28,.38,.05,.82,.11,.82,.11,.81,.12,.81,.12,.81,.13,.81,.13,.81,.14,.39,.07,.56-3.26Z"/><g><g><path class="cls-8" d="M346.07,58.44c-2.46-2.46-6.46-2.46-8.92,0-2.46,2.46-2.46,6.46,0,8.92,2.46,2.46,6.46,2.46,8.92,0s2.46-6.46,0-8.92Z"/><path class="cls-12" d="M299.42,105.1c11.5,11.5,21.97,19.68,23.39,18.26,1.42-1.42-6.76-11.89-18.26-23.39-11.5-11.5-21.97-19.68-23.39-18.26-1.42,1.42,6.76,11.89,18.26,23.39Z"/><path class="cls-14" d="M308.59,78.7l17.22,17.22,23.54-23.54h0s.02-.02,.02-.02c.92-.92-2.19-5.52-6.95-10.27s-9.35-7.87-10.27-6.95l-.02,.02h0s-23.54,23.53-23.54,23.53Z"/><path class="cls-14" d="M294.81,109.71c1.69,1.69,4.44,1.69,6.13,0,1.2-1.2,1.55-2.94,1.05-4.45l7.74-2.47-8-8-2.47,7.74c-1.51-.51-3.24-.16-4.45,1.05-1.69,1.69-1.69,4.44,0,6.13Z"/><path class="cls-10" d="M322.96,122.97c7.54-11.6,6.22-27.28-3.96-37.45-10.17-10.18-25.85-11.49-37.45-3.96,2.4-.17,12.25,7.67,22.99,18.41,10.75,10.75,18.59,20.59,18.41,22.99Z"/><g><path class="cls-19" d="M289.73,97.41c-.19,.17-.37,.34-.55,.52-2.25,2.25-3.64,5.36-3.64,8.79s1.39,6.54,3.64,8.79c2.25,2.25,5.36,3.64,8.79,3.64s6.54-1.39,8.79-3.64c.18-.18,.36-.37,.53-.56-.9-.81-1.83-1.66-2.77-2.53-.13,.15-.27,.3-.41,.44-1.57,1.57-3.74,2.54-6.13,2.54s-4.56-.97-6.13-2.54c-1.57-1.57-2.54-3.74-2.54-6.13s.97-4.56,2.54-6.13c.14-.14,.29-.28,.44-.41-.88-.94-1.72-1.86-2.54-2.77Z"/><path class="cls-19" d="M283.84,90.52c-.37,.32-.73,.66-1.08,1-3.89,3.89-6.29,9.26-6.29,15.19s2.4,11.31,6.29,15.19c3.89,3.89,9.26,6.29,15.19,6.29s11.31-2.41,15.19-6.29c.35-.35,.69-.72,1.02-1.09-.92-.73-1.89-1.53-2.9-2.38-.25,.28-.51,.56-.77,.83-3.21,3.21-7.64,5.19-12.54,5.19s-9.33-1.98-12.54-5.19c-3.21-3.21-5.19-7.64-5.19-12.54s1.98-9.33,5.19-12.54c.26-.26,.53-.51,.81-.76-.85-1.01-1.65-1.98-2.39-2.9Z"/><path class="cls-19" d="M279.04,83.61c-.76,.63-1.5,1.29-2.2,1.99-5.4,5.4-8.75,12.87-8.75,21.12s3.34,15.71,8.75,21.12c5.4,5.4,12.87,8.75,21.12,8.75s15.71-3.34,21.12-8.75c.72-.72,1.4-1.47,2.04-2.26-.88-.43-1.97-1.1-3.23-1.98-.46,.55-.95,1.08-1.46,1.58-4.72,4.72-11.25,7.65-18.46,7.65s-13.74-2.92-18.46-7.65c-4.72-4.72-7.65-11.25-7.65-18.46s2.92-13.74,7.65-18.46c.5-.5,1.02-.98,1.55-1.43-.88-1.25-1.55-2.33-2.01-3.21Z"/></g><rect class="cls-15" x="286.02" y="21.36" width="28.58" height="52.87" transform="translate(54.17 226.35) rotate(-45)"/><rect class="cls-13" x="343.8" y="76.33" width="28.58" height="52.87" transform="translate(32.21 283.3) rotate(-45)"/></g><g><path class="cls-6" d="M346.07,58.44c-2.46-2.46-6.46-2.46-8.92,0-2.46,2.46-2.46,6.46,0,8.92l8.92-8.92Z"/><path class="cls-14" d="M304.54,99.97c-11.5-11.5-21.97-19.67-23.39-18.26-1.42,1.42,6.76,11.88,18.26,23.38l5.13-5.13Z"/><path class="cls-17" d="M308.59,78.7l8.61,8.61,25.21-25.21c-4.75-4.76-9.35-7.87-10.27-6.95l-.02,.02h0s-23.54,23.53-23.54,23.53Z"/><path class="cls-17" d="M305.73,98.79l-4-4-2.47,7.74c-1.51-.51-3.24-.16-4.45,1.05-1.69,1.69-1.69,4.44,0,6.13l10.92-10.92Z"/><path class="cls-24" d="M319,85.51c-10.18-10.17-25.85-11.49-37.45-3.96,2.4-.17,12.25,7.67,22.99,18.41l14.46-14.46Z"/><g><path class="cls-23" d="M289.73,97.41c-.19,.17-.37,.34-.55,.52-2.25,2.25-3.64,5.36-3.64,8.79s1.36,6.47,3.56,8.71l2.65-2.65c-1.52-1.56-2.46-3.7-2.46-6.05,0-2.4,.97-4.56,2.54-6.13,.14-.14,.29-.28,.44-.41-.88-.94-1.72-1.86-2.54-2.77Z"/><path class="cls-23" d="M283.84,90.52c-.37,.32-.73,.66-1.08,1-3.89,3.89-6.29,9.26-6.29,15.19s2.37,11.23,6.21,15.11l2.65-2.65c-3.16-3.2-5.12-7.6-5.12-12.46s1.98-9.33,5.19-12.54c.26-.26,.53-.51,.81-.76-.85-1.01-1.65-1.98-2.39-2.9Z"/><path class="cls-23" d="M279.04,83.61c-.76,.63-1.5,1.29-2.2,1.99-5.4,5.4-8.75,12.87-8.75,21.12,0,8.21,3.31,15.64,8.67,21.04l2.65-2.65c-4.68-4.72-7.57-11.21-7.57-18.38,0-7.21,2.92-13.74,7.65-18.46,.5-.5,1.02-.98,1.55-1.43-.88-1.25-1.55-2.33-2.01-3.21Z"/></g><rect class="cls-16" x="286.02" y="21.36" width="28.58" height="52.87" transform="translate(54.17 226.35) rotate(-45)"/></g></g><g><path class="cls-17" d="M203.33,151.3c20.65,0,37.39,16.74,37.39,37.39s-16.74,37.39-37.39,37.39-37.39-16.74-37.39-37.39,16.74-37.39,37.39-37.39Z"/><path class="cls-14" d="M203.33,151.3c20.65,0,37.38,16.74,37.38,37.39s-16.74,37.38-37.38,37.39v-74.77Z"/><g><path class="cls-23" d="M203.33,171.69c11.51,0,21.94,1.82,29.51,4.75,2.64,1.02,4.94,2.19,6.84,3.48,.23,.96,.43,1.94,.58,2.94-1.97-1.68-4.74-3.22-8.15-4.54-7.35-2.85-17.52-4.61-28.78-4.61s-21.44,1.76-28.78,4.61c-3.4,1.32-6.18,2.86-8.15,4.54,.15-.99,.35-1.97,.58-2.94,1.89-1.29,4.19-2.45,6.84-3.48,7.57-2.94,18.01-4.75,29.51-4.75h0Zm36.35,25.76c-1.89,1.28-4.2,2.45-6.84,3.48-7.57,2.94-18.01,4.75-29.51,4.75s-21.94-1.82-29.51-4.75c-2.64-1.02-4.94-2.19-6.84-3.48-.23-.97-.43-1.95-.58-2.94,1.96,1.68,4.74,3.22,8.15,4.54,7.35,2.85,17.53,4.61,28.78,4.62,11.26,0,21.44-1.76,28.78-4.62,3.41-1.32,6.18-2.86,8.15-4.54-.16,.99-.35,1.97-.58,2.94Z"/><path class="cls-23" d="M186.33,188.69c0-11.51,1.82-21.94,4.75-29.51,1.02-2.64,2.19-4.94,3.48-6.84,.97-.23,1.94-.43,2.94-.58-1.68,1.96-3.22,4.74-4.54,8.15-2.85,7.35-4.61,17.52-4.61,28.78s1.76,21.44,4.61,28.78c1.32,3.41,2.86,6.18,4.54,8.15-.99-.16-1.97-.35-2.94-.58-1.29-1.89-2.45-4.19-3.48-6.84-2.94-7.57-4.75-18.01-4.75-29.51h0Zm25.76-36.35c1.29,1.89,2.45,4.2,3.48,6.84,2.94,7.57,4.75,18.01,4.75,29.51s-1.82,21.94-4.75,29.51c-1.02,2.64-2.19,4.94-3.48,6.84-.96,.23-1.95,.43-2.94,.58,1.68-1.96,3.22-4.74,4.54-8.15,2.85-7.35,4.61-17.53,4.61-28.78s-1.76-21.43-4.61-28.78c-1.32-3.4-2.86-6.18-4.54-8.15,.99,.16,1.97,.35,2.94,.58Z"/></g><g><path class="cls-21" d="M203.33,171.69c11.51,0,21.94,1.82,29.51,4.75,2.64,1.03,4.94,2.19,6.84,3.48,.23,.96,.43,1.94,.58,2.94-1.97-1.68-4.74-3.22-8.15-4.54-7.35-2.85-17.52-4.61-28.78-4.61v-2.01h0Zm36.35,25.76c-1.89,1.29-4.2,2.45-6.84,3.48-7.57,2.94-18.01,4.75-29.51,4.75v-2.01c11.26,0,21.43-1.76,28.78-4.62,3.4-1.32,6.18-2.86,8.15-4.54-.16,.99-.35,1.97-.58,2.94Z"/><path class="cls-21" d="M212.1,152.34c1.29,1.89,2.45,4.19,3.48,6.84,2.94,7.57,4.75,18.01,4.75,29.51s-1.82,21.94-4.75,29.51c-1.02,2.64-2.19,4.94-3.48,6.84-.96,.23-1.95,.43-2.94,.58,1.68-1.96,3.22-4.74,4.54-8.15,2.85-7.35,4.61-17.52,4.61-28.78s-1.76-21.44-4.61-28.78c-1.32-3.4-2.86-6.18-4.54-8.15,.99,.16,1.97,.35,2.94,.58Z"/></g><path class="cls-23" d="M188.29,169.45c2.32,0,4.19,1.88,4.19,4.19s-1.88,4.19-4.19,4.19-4.19-1.88-4.19-4.19,1.88-4.19,4.19-4.19Z"/><g><path class="cls-21" d="M218.55,169.27c2.32,0,4.19,1.88,4.19,4.19s-1.88,4.19-4.19,4.19-4.19-1.88-4.19-4.19,1.88-4.19,4.19-4.19Z"/><path class="cls-21" d="M218.46,199.62c2.32,0,4.19,1.88,4.19,4.19s-1.88,4.19-4.19,4.19-4.19-1.88-4.19-4.19,1.88-4.19,4.19-4.19Z"/></g><path class="cls-23" d="M188.38,199.44c2.31,0,4.19,1.88,4.19,4.19s-1.88,4.19-4.19,4.19-4.19-1.88-4.19-4.19,1.88-4.19,4.19-4.19Z"/><path class="cls-23" d="M181.43,229.97c-4.12-2.19-7.87-4.98-11.14-8.25-8.45-8.45-13.68-20.14-13.68-33.04h0c0-12.9,5.23-24.59,13.69-33.04,4.3-4.3,9.45-7.77,15.16-10.14l.96,1.58c-5.59,2.28-10.63,5.65-14.83,9.86-8.13,8.13-13.15,19.35-13.15,31.75h0c0,12.4,5.03,23.62,13.16,31.75,3.17,3.17,6.81,5.87,10.81,7.98l-.96,1.56h0Zm-9.69,15.81l.96-1.56c-5.23-2.89-10.02-6.5-14.21-10.7-11.48-11.48-18.58-27.33-18.58-44.84h0c0-17.51,7.1-33.37,18.57-44.85,5.23-5.23,11.37-9.55,18.16-12.71l-.96-1.57c-6.91,3.24-13.16,7.65-18.49,12.98-11.81,11.81-19.11,28.12-19.11,46.14h0c0,18.02,7.3,34.33,19.11,46.14,4.3,4.3,9.19,8,14.55,10.97h0Zm4.74-7.74l.96-1.56c-4.63-2.51-8.85-5.68-12.54-9.37-9.84-9.84-15.92-23.43-15.92-38.43h0c0-15.01,6.09-28.6,15.92-38.44,4.73-4.73,10.32-8.59,16.52-11.32l-.96-1.57c-6.32,2.82-12.03,6.77-16.85,11.6-10.17,10.17-16.46,24.21-16.46,39.73h0c0,15.52,6.29,29.56,16.45,39.73,3.79,3.79,8.13,7.05,12.88,9.64Z"/><path class="cls-19" d="M225.23,229.97c4.12-2.19,7.87-4.98,11.14-8.25,8.45-8.45,13.68-20.14,13.68-33.04h0c0-12.9-5.23-24.59-13.69-33.04-4.3-4.3-9.45-7.77-15.16-10.14l-.96,1.58c5.59,2.28,10.63,5.65,14.83,9.86,8.13,8.13,13.15,19.35,13.15,31.75h0c0,12.4-5.03,23.62-13.16,31.75-3.17,3.17-6.81,5.87-10.81,7.98l.96,1.56h0Zm9.69,15.81l-.96-1.56c5.23-2.89,10.02-6.5,14.21-10.7,11.48-11.48,18.58-27.33,18.58-44.84h0c0-17.51-7.1-33.37-18.57-44.85-5.23-5.23-11.37-9.55-18.16-12.71l.96-1.57c6.91,3.24,13.16,7.65,18.49,12.98,11.81,11.81,19.11,28.12,19.11,46.14h0c0,18.02-7.3,34.33-19.11,46.14-4.3,4.3-9.19,8-14.55,10.97h0Zm-4.74-7.74l-.96-1.56c4.63-2.51,8.85-5.68,12.54-9.37,9.84-9.84,15.92-23.43,15.92-38.43h0c0-15.01-6.08-28.6-15.92-38.44-4.73-4.73-10.32-8.59-16.52-11.32l.96-1.57c6.32,2.82,12.03,6.77,16.85,11.6,10.17,10.17,16.46,24.21,16.46,39.73h0c0,15.52-6.29,29.56-16.45,39.73-3.79,3.79-8.13,7.05-12.88,9.64Z"/></g><g><g><rect class="cls-18" x="72.9" y="312.78" width="15.36" height="32.08"/><rect class="cls-20" x="80.58" y="312.78" width="7.68" height="32.08"/><rect class="cls-22" x="65.6" y="296.52" width="29.95" height="19.92"/><rect class="cls-18" x="80.58" y="296.52" width="14.97" height="19.92"/><rect class="cls-22" x="54.8" y="335.73" width="51.55" height="9.13"/><rect class="cls-18" x="80.58" y="335.73" width="25.77" height="9.13"/></g><g><polygon class="cls-23" points="68.01 246.25 139.64 245.88 140.97 247.21 140.6 318.85 138.43 318.84 138.78 251.99 118.14 296.94 116.17 296.03 137.68 249.18 90.83 270.69 89.91 268.71 134.86 248.08 68.01 248.42 68.01 246.25"/><polygon class="cls-19" points="140.31 246.55 140.97 247.21 140.6 318.85 138.43 318.84 138.78 251.99 118.14 296.94 116.17 296.03 137.68 249.18 140.31 246.55"/><polygon class="cls-23" points="117.25 267.93 118.92 269.6 108.95 282.64 108.96 282.65 108.92 282.68 99.01 292.59 94.26 287.84 104.17 277.93 104.21 277.9 104.21 277.9 117.25 267.93"/><polygon class="cls-19" points="118.09 268.77 118.92 269.6 108.95 282.64 108.96 282.65 108.92 282.68 99.01 292.59 96.64 290.22 118.09 268.77"/><path class="cls-4" d="M68.27,245.72c-12.48,12.48-6.3,38.91,13.82,59.03,20.12,20.12,46.55,26.31,59.03,13.82l-72.86-72.86Z"/><path class="cls-2" d="M82.09,304.76c20.12,20.12,46.55,26.31,59.03,13.82l-36.43-36.43-22.6,22.61Z"/><path class="cls-2" d="M140.84,252.97l-6.96-6.96c4.98-4.98,11.94,1.98,6.96,6.96Z"/><path class="cls-26" d="M140.84,252.97l-3.48-3.48,3.73-3.73c1.74,1.74,2.23,4.72-.25,7.21Z"/></g></g><g><path class="cls-23" d="M53.88,180.94c4.09-13.21,28-10.34,28.53,7.54,2.83-1.99,13.64-1.55,15.38,8.92,.51,3.06,1.35,14.79-9.1,14.79H37.68c-9.75,0-11.15-5.37-11.15-10.42,0-6.4,6.79-10.03,12.57-8.9-5.28-8.67,6.4-16.79,14.77-11.93Z"/><path class="cls-19" d="M62.29,173.22c8.42-2.18,19.75,3.02,20.12,15.26,2.83-1.99,13.64-1.55,15.38,8.92,.51,3.06,1.35,14.79-9.1,14.79h-26.4v-38.98Z"/><path class="cls-4" d="M83.91,176.3c3.48-11.22,23.79-8.79,24.25,6.41,2.41-1.7,11.59-1.32,13.07,7.58,.43,2.6,1.15,12.57-7.73,12.57h-43.35c-8.28,0-9.47-4.56-9.47-8.85,0-5.44,5.77-8.53,10.69-7.56-4.49-7.37,5.44-14.27,12.55-10.14Z"/><path class="cls-2" d="M91.06,169.74c7.15-1.85,16.78,2.57,17.09,12.97,2.41-1.7,11.59-1.32,13.07,7.58,.43,2.6,1.15,12.57-7.73,12.57h-22.43v-33.12Z"/></g><g><path class="cls-19" d="M164.66,51.76l27.3-18.45,26.81,18.06c.83,.56,2.26,1.57,3.26,2.29,.66,.47,.91,1.03,.91,1.75v38.01c0,1.29-1.06,2.35-2.35,2.35h-57.18c-1.3,0-2.35-1.06-2.35-2.35V55.41c0-.53,.18-1.02,.47-1.41,.45-.6,2.43-1.76,3.14-2.24Z"/><path class="cls-21" d="M192.03,33.35l26.75,18.02c.83,.56,2.26,1.57,3.26,2.29,.66,.47,.91,1.03,.91,1.75v38.01c0,1.29-1.06,2.35-2.35,2.35h-28.56V33.35Z"/><polygon class="cls-4" points="163.83 36.67 208.53 36.67 220.17 46.26 220.17 90.83 163.83 90.83 163.83 36.67"/><polygon class="cls-2" points="192.03 36.67 208.53 36.67 220.17 46.26 220.17 90.83 192.03 90.83 192.03 36.67"/><path class="cls-19" d="M222.53,54.08c.26,.38,.41,.84,.41,1.33v38.01c0,.49-.16,.97-.42,1.35l-30.53-20.35,30.53-20.33Z"/><path class="cls-23" d="M161.53,94.83c-.33-.39-.48-.92-.48-1.41V55.41c0-.49,.15-.95,.41-1.33l30.53,20.33-30.47,20.42Z"/><path class="cls-19" d="M222.52,94.76c-.57,.85-1.6,1.01-1.94,1.01h-57.18c-.34,0-1.28-.09-1.88-.95l30.47-20.41,30.53,20.35Z"/><path class="cls-21" d="M222.52,94.76c-.57,.85-1.6,1.01-1.94,1.01h-28.56v-21.34l30.5,20.33Z"/><polygon class="cls-26" points="220.13 46.28 208.51 46.32 208.51 36.72 220.13 46.28"/><g><rect class="cls-5" x="169.12" y="50.26" width="45.75" height="2.56"/><rect class="cls-5" x="169.12" y="55.62" width="45.75" height="2.43"/></g><g><rect class="cls-7" x="192.03" y="50.26" width="22.85" height="2.56"/><rect class="cls-7" x="192.03" y="55.62" width="22.85" height="2.44"/></g></g><g><polygon class="cls-26" points="63.27 135.96 122.68 135.93 128.26 109.88 68.85 109.91 63.27 135.96"/><rect class="cls-3" x="63.25" y="87.95" width="59.4" height="47.99" transform="translate(-.11 .1) rotate(-.06)"/><rect class="cls-1" x="92.93" y="87.93" width="29.72" height="47.99" transform="translate(-.11 .11) rotate(-.06)"/><path class="cls-17" d="M74.18,102.86h2.63v-4.91l2.84,4.91h2.62v-9.87h-2.62v5.05l-2.82-5.05h-2.65v9.87h0Zm9.08-2.16c0,2.07,1.77,2.24,2.65,2.22,0,0,2.89-.04,4.28-.23v-2.19h-3.47c-.39,0-.84,.01-.84-.7v-.59l3.63-.12v-2.17l-3.63-.15v-.59c0-.36,0-.76,.7-.76h3.61v-2.2c-1.58-.22-4.42-.22-4.42-.22-.95,0-2.51,.26-2.51,2.3v5.42h0Zm7.46-7.71l2.8,9.87h3.16l.8-3.22,.9,3.22h3.16l2.42-9.87h-2.76l-1.23,6.66-1.38-4.61,.5-2.05h-2.76l-1.23,6.66-1.64-6.66h-2.76Zm13.78,3.42c0,.64,.11,2.86,2.68,2.86h1.22c.59,0,.72,.2,.72,.59v.22c0,.41-.22,.55-.8,.55-1.26,0-2.96-.09-3.5-.15v2.04c1.35,.46,1.65,.46,4.17,.46,1.34,0,2.74-.51,2.74-3.03v-.45c0-1.08-.47-2.86-2.53-2.86h-1.27c-.73,0-.81-.23-.81-.65v-.15c0-.57,.27-.59,1-.59,.89,0,2.38,.04,3.24,.14v-2.04c-1-.36-2.19-.57-4.19-.44-1.51,.1-2.68,.91-2.68,2.67v.82Z"/><g><rect class="cls-16" x="66.02" y="106.8" width="24.06" height="1.86"/><rect class="cls-16" x="66.02" y="112.84" width="24.06" height="1.86"/><rect class="cls-16" x="66.02" y="118.87" width="24.06" height="1.86"/><rect class="cls-16" x="66.02" y="124.91" width="24.06" height="1.86"/><rect class="cls-16" x="66.02" y="130.94" width="24.06" height="1.86"/><path class="cls-14" d="M95.95,106.8h23.94v13.93h-23.94v-13.93Z"/><rect class="cls-13" x="95.95" y="124.91" width="23.94" height="1.86"/><rect class="cls-13" x="95.95" y="130.94" width="23.94" height="1.86"/></g></g><g><g><path class="cls-21" d="M331.07,179.31c5.67-5.21,8.82-7.22,15.11-11.23l.61-.39,.41,.65-.61,.39c-6.24,3.98-9.37,5.98-15,11.15l-.52-.57Z"/><path class="cls-10" d="M347.57,166.19c.8,0,1.45,.65,1.45,1.45s-.65,1.45-1.45,1.45-1.45-.65-1.45-1.45,.65-1.45,1.45-1.45Z"/></g><g><path class="cls-19" d="M330.39,179.87c-5.63-5.17-8.76-7.17-15-11.15l-.61-.39,.41-.65,.61,.39c6.28,4.01,9.44,6.02,15.11,11.23l-.52,.57Z"/><path class="cls-24" d="M314.62,166.19c.8,0,1.45,.65,1.45,1.45s-.65,1.45-1.45,1.45-1.45-.65-1.45-1.45,.65-1.45,1.45-1.45Z"/></g><g><path class="cls-12" d="M341.46,221.31h0c.55-.35,1.29-.19,1.65,.36l5.23,8.18c.35,.55,.19,1.29-.36,1.65h0c-.55,.35-1.29,.19-1.65-.36l-5.23-8.17c-.35-.55-.19-1.29,.36-1.65Z"/><path class="cls-14" d="M320.73,221.31h0c-.55-.35-1.29-.19-1.65,.36l-5.23,8.18c-.35,.55-.19,1.29,.36,1.65h0c.55,.35,1.29,.19,1.64-.36l5.23-8.17c.35-.55,.19-1.29-.36-1.65Z"/></g><path class="cls-17" d="M302.66,222.86l56.91-.05c1.25,0,2.27-1.11,2.26-2.47l-.03-39.01c0-1.36-1.02-2.46-2.27-2.46l-56.91,.05c-1.25,0-2.27,1.11-2.27,2.47l.03,39c0,1.35,1.02,2.46,2.27,2.46Z"/><path class="cls-12" d="M331.1,222.83l28.47-.02c1.25,0,2.27-1.11,2.26-2.47l-.03-39.01c0-1.36-1.02-2.46-2.27-2.46l-28.44,.02v43.93Z"/><rect class="cls-22" x="304.77" y="184.46" width="46.87" height="32.81"/><polygon class="cls-19" points="331.1 217.27 351.65 217.25 351.62 184.44 331.1 184.46 331.1 217.27"/><g><path class="cls-10" d="M357.06,207.7c1.5,0,2.71,1.21,2.71,2.71s-1.21,2.71-2.71,2.71-2.71-1.21-2.71-2.71,1.21-2.71,2.71-2.71Z"/><g><rect class="cls-9" x="354.31" y="190.23" width="2.15" height="2.28"/><rect class="cls-9" x="357.73" y="190.23" width="2.15" height="2.28"/></g><g><rect class="cls-9" x="354.31" y="195.05" width="2.15" height="2.28"/><rect class="cls-9" x="357.73" y="195.05" width="2.15" height="2.28"/></g><g><rect class="cls-9" x="354.31" y="200.17" width="2.15" height="2.28"/><rect class="cls-9" x="357.73" y="200.17" width="2.15" height="2.28"/></g></g></g><g><path class="cls-16" d="M268.56,266.25h61.49c1.43,0,2.59,1.16,2.59,2.59v41.99c0,1.43-1.16,2.59-2.59,2.59h-61.49c-1.43,0-2.59-1.16-2.59-2.59v-41.99c0-1.43,1.16-2.59,2.59-2.59Z"/><path class="cls-14" d="M299.31,266.25h30.75c1.42,0,2.59,1.16,2.59,2.59v41.99c0,1.42-1.16,2.59-2.59,2.59h-30.75v-47.16Z"/><rect class="cls-22" x="271.37" y="270.27" width="55.87" height="39.11"/><polygon class="cls-19" points="299.31 309.39 327.26 309.36 327.23 270.25 299.31 270.27 299.31 309.39"/><g><rect class="cls-13" x="302.04" y="274.02" width="22.91" height="2.26"/><rect class="cls-13" x="302.04" y="281.36" width="22.91" height="2.26"/><rect class="cls-13" x="302.04" y="288.7" width="22.91" height="2.26"/><rect class="cls-13" x="302.04" y="296.03" width="22.91" height="2.27"/><rect class="cls-13" x="302.04" y="303.37" width="22.91" height="2.27"/></g><g><path class="cls-17" d="M296.46,274.02h-22.79v16.94h22.79v-16.94Z"/><rect class="cls-16" x="273.67" y="296.03" width="22.79" height="2.27"/><rect class="cls-16" x="273.67" y="303.37" width="22.79" height="2.27"/></g><g><path class="cls-24" d="M310.3,279.75c1.34,0,2.43,1.09,2.43,2.45s-1.09,2.45-2.43,2.45-2.43-1.1-2.43-2.45,1.09-2.45,2.43-2.45Z"/><path class="cls-24" d="M310.3,278.55c1,0,1.9,.41,2.56,1.07h0c.65,.66,1.06,1.57,1.06,2.57s-.4,1.91-1.06,2.57h0c-.65,.66-1.56,1.07-2.56,1.07s-1.9-.41-2.56-1.07h0c-.65-.66-1.06-1.57-1.06-2.57s.4-1.91,1.06-2.57h0c.65-.66,1.56-1.07,2.56-1.07h0Zm2.27,1.36c-.58-.58-1.38-.94-2.27-.94s-1.69,.36-2.27,.94c-.58,.58-.94,1.39-.94,2.28s.36,1.7,.94,2.28c.58,.58,1.38,.94,2.27,.94s1.69-.36,2.27-.94c.58-.58,.94-1.39,.94-2.28s-.36-1.7-.94-2.28Z"/></g><g><path class="cls-4" d="M311.99,290.19h.1c.1-.69,.78-1.22,1.59-1.22h.13c.83,0,1.52,.56,1.6,1.28h.11c.06-.73,.75-1.31,1.6-1.31h.13c.87,0,1.58,.62,1.6,1.37l.13,.02v-.03c0-.56,.53-1.02,1.17-1.02h.09c.64,0,1.17,.46,1.17,1.02v4.99s.1,5.82,.1,5.82c.02,1.47-.99,2.98-2.18,3.97l-.81,.68-1.33,7.6h-8.2l1.36-7.76c-1.14-.35-1.87-1.38-2.1-2.56l-1.02-5.17c-.35-.59-.22-1.34,.35-1.79l1.13-.9-.04-2.27c0-.09,0-.18,0-.27v-10.41c0-.88,.72-1.6,1.6-1.6h.13c.88,0,1.6,.72,1.6,1.6v7.97Z"/><path class="cls-6" d="M319.21,306.77l-10.39-.04c-.11,2.28-.23,4.48-.38,6.63h10.73c.03-2.44,.05-4.7,.04-6.59Z"/></g></g><g><rect class="cls-3" x="192.15" y="278.29" width="30.41" height="56.8" rx="2.11" ry="2.11"/><path class="cls-2" d="M207.35,278.29h13.1c1.16,0,2.11,.95,2.11,2.11v52.58c0,1.16-.95,2.11-2.11,2.11h-13.1v-56.8Z"/><rect class="cls-13" x="193.84" y="284" width="27.01" height="43.53"/><rect class="cls-11" x="207.35" y="284" width="13.51" height="43.53"/><path class="cls-17" d="M207.35,279.68c.87,0,1.58,.71,1.58,1.58s-.71,1.58-1.58,1.58-1.58-.71-1.58-1.58,.71-1.58,1.58-1.58Z"/><path class="cls-14" d="M207.35,279.68c.87,0,1.58,.71,1.58,1.58s-.71,1.58-1.58,1.58v-3.16Z"/><path class="cls-1" d="M205.08,328.95h4.53c.34,0,.61,.27,.61,.61v3.37c0,.34-.27,.61-.61,.61h-4.53c-.34,0-.61-.27-.61-.61v-3.37c0-.34,.27-.61,.61-.61Z"/><path class="cls-26" d="M207.35,328.95h2.26c.33,0,.61,.27,.61,.61v3.37c0,.34-.27,.61-.61,.61h-2.26v-4.59Z"/></g></svg>