<?xml version="1.0" encoding="UTF-8"?><svg id="Camada_1" xmlns="http://www.w3.org/2000/svg" viewBox="0 0 117.83 112.41"><defs><style>.cls-1{fill:#020202;}.cls-2{fill:#6a5a84;}.cls-3{fill:#eadaf7;}.cls-4{fill:#f42a2a;}.cls-5{fill:#ff1515;}.cls-6{fill:#fa0;}.cls-7{fill:#ffd400;}.cls-8{fill:red;}.cls-9{fill:#ff621d;}.cls-10{fill:#ff6112;}.cls-11{fill:#ff7610;}.cls-12{fill:#6bb5ed;}.cls-13{fill:#a8c8e5;}.cls-14{fill:#af0e29;}.cls-15{fill:#a8070f;}.cls-16{fill:#d0bfe2;}.cls-17{fill:#c5ddff;}.cls-18{fill:#c94618;}.cls-19{fill:#403059;}.cls-20{fill:#362444;}.cls-21{fill:#634e7a;}.cls-22{fill:#256ad8;}.cls-23{fill:#5787aa;}.cls-24{fill:#3c2f42;}.cls-25{fill:#2e363f;}.cls-26{fill:#523f6b;}</style></defs><g><path class="cls-12" d="M47.56,17.1c-.48,0-.88,.39-.88,.88,0,.13,.03,.25,.08,.36l-24.34,23.52,1.07,1.07,23.68-24.16c.12,.06,.25,.09,.39,.09,.48,0,.88-.39,.88-.88s-.39-.88-.88-.88Z"/><path class="cls-20" d="M24.34,42.6s0-.03,0-.05c0-.46-.62-.83-1.39-.83s-1.39,.37-1.39,.83c0,.02,0,.03,0,.05-1.73,.34-2.98,1.31-2.98,2.46,0,1.43,1.95,2.6,4.36,2.6s4.36-1.16,4.36-2.6c0-1.14-1.25-2.11-2.98-2.46Z"/></g><polygon class="cls-20" points="12.74 49.04 12.74 33.63 103.89 33.63 104.09 48 101.14 48 98.81 36.98 17.08 36.98 14.54 48 12.74 49.04"/><polygon class="cls-20" points="44.35 44.34 37.57 44.34 38.41 41.49 43.72 41.49 44.35 44.34"/><polygon class="cls-20" points="51.82 44.34 45.04 44.34 45.88 41.49 51.2 41.49 51.82 44.34"/><g><polygon class="cls-4" points="59.3 44.34 52.51 44.34 53.35 42.24 58.67 42.24 59.3 44.34"/><path class="cls-14" d="M59.08,44.34s-.84-2.06-.8-1.96c-.1,0-4.39,.08-4.34,.08l4.11,.08,.48,1.8h.56Z"/></g><polygon class="cls-20" points="67.52 44.34 60.74 44.34 61.58 41.49 66.89 41.49 67.52 44.34"/><polygon class="cls-20" points="75.81 44.34 69.03 44.34 69.87 41.49 75.18 41.49 75.81 44.34"/><polygon class="cls-26" points="99.86 52.41 11.64 51.74 17.96 43.6 96.92 43.6 99.86 52.41"/><rect class="cls-9" x="2.09" y="45.61" width="112.59" height="48.98"/><rect class="cls-11" x="4.67" y="48.37" width="107.44" height="43.45"/><path class="cls-18" d="M3.66,47.36v45.46H113.11V47.36H3.66Zm107.44,43.45H5.67l-1.79-43.23,107.97,.66-.75,42.57Z"/><g><polygon class="cls-21" points="36.34 89.9 7.2 89.9 5.86 63.52 36.34 63.52 36.34 89.9"/><path class="cls-26" d="M32.23,76.25c0,6.15-4.99,11.14-11.14,11.14s-11.14-4.99-11.14-11.14,4.99-11.14,11.14-11.14,11.14,4.99,11.14,11.14Z"/><circle class="cls-2" cx="21.1" cy="76.25" r="3.14"/><polygon class="cls-19" points="5.86 63.52 36.34 63.52 36.34 89.9 35.67 64.44 5.86 63.52"/></g><g><polygon class="cls-21" points="79.54 89.44 108.67 89.44 110.01 63.06 79.54 63.06 79.54 89.44"/><path class="cls-26" d="M83.64,75.79c0,6.15,4.99,11.14,11.14,11.14s11.14-4.99,11.14-11.14-4.99-11.14-11.14-11.14-11.14,4.99-11.14,11.14Z"/><circle class="cls-2" cx="94.78" cy="75.79" r="3.14"/><polygon class="cls-19" points="110.01 63.06 79.54 63.06 79.54 89.44 80.21 63.98 110.01 63.06"/></g><polygon class="cls-7" points="108.59 60.8 8.12 60.8 6.74 50.5 110.11 50.5 108.59 60.8"/><polygon class="cls-7" points="108.59 60.8 8.12 60.8 6.74 50.5 110.11 50.5 108.59 60.8"/><polygon class="cls-6" points="6.74 50.5 6.9 51.67 108.95 51.67 107.6 60.8 108.59 60.8 110.11 50.5 6.74 50.5"/><rect class="cls-24" x="41.86" y="63.06" width="30.14" height="26.37"/><rect class="cls-22" x="47.3" y="72.15" width="19.59" height="10.05"/><rect class="cls-10" x="44.69" y="67.58" width="1.55" height="2.51"/><rect class="cls-10" x="46.82" y="67.58" width="2.26" height="2.51"/><rect class="cls-10" x="50" y="67.58" width="6.95" height="2.51"/><rect class="cls-10" x="58.54" y="67.58" width="3.68" height="2.51"/><rect class="cls-10" x="65.43" y="67.58" width="1.8" height="2.51"/><rect class="cls-6" x="47.56" y="63.52" width="17.27" height="3.06"/><rect class="cls-17" x="47.3" y="78.93" width="19.59" height=".67"/><rect class="cls-17" x="47.3" y="80.35" width="19.59" height=".71"/><path class="cls-25" d="M65.87,75.58c0-1.53-1.24-2.76-2.76-2.76s-2.76,1.24-2.76,2.76c0,1.01,.54,1.89,1.35,2.37h-8.49c.81-.48,1.35-1.36,1.35-2.37,0-1.53-1.24-2.76-2.76-2.76s-2.76,1.24-2.76,2.76,1.24,2.76,2.76,2.76c.04,0,11.48,0,11.48,0,1.45-.08,2.61-1.28,2.61-2.75Z"/><path class="cls-17" d="M53.11,76.42s0,0,0,0l.03,.02c.11,.07,.18,.35,.21,.5,0,0,0,.02,0,.02l-.51,.42s-.02,0-.02,0c-.14-.05-.39-.18-.44-.3v-.03s-.01,0-.02,0l-.63,.1s0,0,0,0v.03c0,.13-.21,.33-.33,.43,0,0-.02,0-.02,0l-.62-.23s-.01,0-.01-.02c-.03-.15-.04-.43,.04-.53l.02-.03s0,0,0,0l-.4-.49s0,0,0,0l-.03,.02c-.12,.06-.39-.01-.53-.07,0,0-.01,0-.01-.02l-.11-.65s0-.02,0-.02c.11-.1,.35-.25,.48-.23h.03s0,0,0,0l.23-.59s0,0,0,0l-.03-.02c-.11-.07-.18-.35-.21-.5,0,0,0-.02,0-.02l.51-.42s.01,0,.02,0c.14,.05,.39,.18,.44,.3v.03s.01,0,.02,0l.63-.1s0,0,0,0v-.03c0-.13,.21-.33,.33-.43,0,0,.02,0,.02,0l.62,.23s.01,0,.01,.02c.03,.15,.04,.43-.04,.53l-.02,.03s0,0,0,0l.4,.49s0,0,0,0l.03-.02c.12-.06,.39,.01,.53,.07,0,0,.01,0,.01,.02l.11,.65s0,.02,0,.02c-.11,.1-.35,.25-.48,.23h-.03s0,0,0,0l-.23,.59Z"/><circle class="cls-25" cx="51.78" cy="75.58" r=".82"/><path class="cls-17" d="M64.43,76.42s0,0,0,0l.03,.02c.11,.07,.18,.35,.21,.5,0,0,0,.02,0,.02l-.51,.42s-.02,0-.02,0c-.14-.05-.39-.18-.44-.3v-.03s-.01,0-.02,0l-.63,.1s0,0,0,0v.03c0,.13-.21,.33-.33,.43,0,0-.02,0-.02,0l-.62-.23s-.01,0-.01-.02c-.03-.15-.04-.43,.04-.53l.02-.03s0,0,0,0l-.4-.49s0,0,0,0l-.03,.02c-.12,.06-.39-.01-.53-.07,0,0-.01,0-.01-.02l-.11-.65s0-.02,0-.02c.11-.1,.35-.25,.48-.23h.03s0,0,0,0l.23-.59s0,0,0,0l-.03-.02c-.11-.07-.18-.35-.21-.5,0,0,0-.02,0-.02l.51-.42s.02,0,.02,0c.14,.05,.39,.18,.44,.3v.03s.01,0,.02,0l.63-.1s0,0,0,0v-.03c0-.13,.21-.33,.33-.43,0,0,.02,0,.02,0l.62,.23s.01,0,.01,.02c.03,.15,.04,.43-.04,.53l-.02,.03s0,0,0,0l.4,.49s0,0,0,0l.03-.02c.12-.06,.39,.01,.53,.07,0,0,.01,0,.01,.02l.11,.65s0,.02,0,.02c-.11,.1-.35,.25-.48,.23h-.03s0,0,0,0l-.23,.59Z"/><circle class="cls-25" cx="63.11" cy="75.58" r=".82"/><g><rect class="cls-13" x="46.93" y="85.71" width="3.8" height="3.1"/><path class="cls-12" d="M50.57,88.6c0-.07-.09-2.64-.08-2.52-.08,0-3.13,0-3.08,0l2.89,.19-.08,2.33h.35Z"/></g><g><rect class="cls-13" x="51.08" y="85.71" width="3.8" height="3.1"/><path class="cls-12" d="M54.72,88.6c0-.07-.09-2.64-.08-2.52-.08,0-3.13,0-3.08,0l2.89,.19-.08,2.33h.35Z"/></g><g><rect class="cls-5" x="55.31" y="85.71" width="3.8" height="3.1"/><path class="cls-15" d="M58.95,88.6c0-.07-.09-2.64-.08-2.52-.08,0-3.13,0-3.08,0l2.89,.19-.08,2.33h.35Z"/></g><g><rect class="cls-13" x="59.73" y="85.71" width="3.8" height="3.1"/><path class="cls-12" d="M63.37,88.6c0-.07-.09-2.64-.08-2.52-.08,0-3.13,0-3.08,0l2.89,.19-.08,2.33h.35Z"/></g><g><rect class="cls-13" x="64.15" y="85.71" width="3.8" height="3.1"/><path class="cls-12" d="M67.79,88.6c0-.07-.09-2.64-.08-2.52-.08,0-3.13,0-3.08,0l2.89,.19-.08,2.33h.35Z"/></g><rect class="cls-23" x="42.51" y="52.39" width="29.49" height="6.28"/><rect class="cls-1" x="65.46" y="53.93" width=".24" height="2.83"/><rect class="cls-1" x="51.43" y="53.93" width=".24" height="2.83"/><rect class="cls-1" x="48.84" y="53.93" width=".24" height="2.83"/><rect class="cls-1" x="62.46" y="54.23" width=".24" height="2.24"/><rect class="cls-1" x="61.04" y="54.37" width=".24" height="1.96"/><rect class="cls-1" x="58.86" y="54.37" width=".24" height="1.96"/><rect class="cls-1" x="53.36" y="54.37" width=".24" height="1.96"/><rect class="cls-1" x="50.42" y="54.37" width=".24" height="1.96"/><rect class="cls-1" x="47.31" y="54.55" width=".24" height="1.96"/><rect class="cls-1" x="55.29" y="54.37" width=".24" height="1.96"/><rect class="cls-1" x="59.92" y="53.18" width=".24" height="4.35"/><rect class="cls-1" x="67.68" y="53.93" width=".24" height="2.83"/><rect class="cls-1" x="70.02" y="53.93" width=".24" height="2.83"/><rect class="cls-1" x="64.57" y="53.42" width=".24" height="3.87"/><rect class="cls-1" x="56.69" y="53.42" width=".24" height="3.87"/><rect class="cls-1" x="52.59" y="53.59" width=".24" height="3.87"/><rect class="cls-1" x="66.43" y="53.42" width=".24" height="3.87"/><rect class="cls-1" x="68.88" y="53.42" width=".24" height="3.87"/><g><circle class="cls-3" cx="87.49" cy="55.65" r="3.14"/><path class="cls-16" d="M85.91,53.29l.75,1.26,.23-.1-.34-1.4c-.02-.07-.09-.12-.16-.1-.18,.04-.48,.13-.48,.34Z"/><path class="cls-16" d="M87.02,52.86l.15,1.46h.25s.28-1.4,.28-1.4c.01-.07-.03-.15-.11-.16-.18-.04-.49-.08-.58,.11Z"/><path class="cls-16" d="M88.32,52.99l-.53,1.37,.22,.12,.89-1.13c.05-.06,.04-.14-.02-.19-.14-.12-.4-.29-.57-.16Z"/><path class="cls-16" d="M89.41,53.68l-1.08,.99,.15,.21,1.3-.62c.07-.03,.1-.11,.07-.18-.07-.17-.23-.44-.43-.4Z"/><path class="cls-16" d="M90.05,54.67l-1.39,.47,.05,.25,1.44-.04c.08,0,.13-.06,.13-.14,0-.18-.03-.5-.24-.54Z"/></g><g><circle class="cls-3" cx="24.95" cy="55.65" r="3.14"/><path class="cls-16" d="M23.37,53.29l.75,1.26,.23-.1-.34-1.4c-.02-.07-.09-.12-.16-.1-.18,.04-.48,.13-.48,.34Z"/><path class="cls-16" d="M24.48,52.86l.15,1.46h.25s.28-1.4,.28-1.4c.01-.07-.03-.15-.11-.16-.18-.04-.49-.08-.58,.11Z"/><path class="cls-16" d="M25.78,52.99l-.53,1.37,.22,.12,.89-1.13c.05-.06,.04-.14-.02-.19-.14-.12-.4-.29-.57-.16Z"/><path class="cls-16" d="M26.87,53.68l-1.08,.99,.15,.21,1.3-.62c.07-.03,.1-.11,.07-.18-.07-.17-.23-.44-.43-.4Z"/><path class="cls-16" d="M27.51,54.67l-1.39,.47,.05,.25,1.44-.04c.08,0,.13-.06,.13-.14,0-.18-.03-.5-.24-.54Z"/></g><g><circle class="cls-3" cx="96.45" cy="55.65" r="3.14"/><path class="cls-16" d="M94.86,53.29l.75,1.26,.23-.1-.34-1.4c-.02-.07-.09-.12-.16-.1-.18,.04-.48,.13-.48,.34Z"/><path class="cls-16" d="M95.97,52.86l.15,1.46h.25s.28-1.4,.28-1.4c.01-.07-.03-.15-.11-.16-.18-.04-.49-.08-.58,.11Z"/><path class="cls-16" d="M97.28,52.99l-.53,1.37,.22,.12,.89-1.13c.05-.06,.04-.14-.02-.19-.14-.12-.4-.29-.57-.16Z"/><path class="cls-16" d="M98.37,53.68l-1.08,.99,.15,.21,1.3-.62c.07-.03,.1-.11,.07-.18-.08-.17-.23-.44-.43-.4Z"/><path class="cls-16" d="M99,54.67l-1.39,.47,.05,.25,1.44-.04c.08,0,.13-.06,.13-.14,0-.18-.03-.5-.23-.54Z"/></g><g><circle class="cls-3" cx="104.98" cy="55.65" r="3.14"/><path class="cls-16" d="M103.4,53.29l.75,1.26,.23-.1-.34-1.4c-.02-.07-.09-.12-.16-.1-.18,.04-.48,.13-.48,.34Z"/><path class="cls-16" d="M104.51,52.86l.15,1.46h.25s.28-1.4,.28-1.4c.01-.07-.03-.15-.11-.16-.18-.04-.49-.08-.58,.11Z"/><path class="cls-16" d="M105.81,52.99l-.53,1.37,.22,.12,.89-1.13c.05-.06,.04-.14-.02-.19-.14-.12-.4-.29-.57-.16Z"/><path class="cls-16" d="M106.91,53.68l-1.08,.99,.15,.21,1.3-.62c.07-.03,.1-.11,.07-.18-.07-.17-.23-.44-.43-.4Z"/><path class="cls-16" d="M107.54,54.67l-1.39,.47,.05,.25,1.44-.04c.08,0,.13-.06,.13-.14,0-.18-.03-.5-.24-.54Z"/></g><rect class="cls-8" x="9.44" y="53.18" width="6.59" height="2.48"/></svg>