<?xml version="1.0" encoding="UTF-8"?><svg id="Camada_1" xmlns="http://www.w3.org/2000/svg" viewBox="0 0 85.85 98.69"><defs><style>.cls-1,.cls-2,.cls-3{fill:#fff;}.cls-4,.cls-5{fill:#d268cc;}.cls-6{fill:#e1e1e1;}.cls-7{fill:#375a64;}.cls-8{fill:#1a2e35;}.cls-9{fill:#2b454e;}.cls-10{opacity:.15;}.cls-11{opacity:.25;}.cls-2{opacity:.6;}.cls-5{opacity:.5;}.cls-3{opacity:.4;}</style></defs><path id="Shadow" class="cls-6" d="M25.9,74.13c-9.73,5.62-9.73,14.72,0,20.34,9.73,5.62,25.5,5.62,35.23,0,9.73-5.62,9.73-14.72,0-20.34-9.73-5.62-25.5-5.62-35.23,0Z"/><g id="Scales"><g><g><g><path class="cls-4" d="M0,79.98c-.11,7.63,6.39,11.65,14.27,11.65s14.27-4.02,14.27-11.65H0Z"/><path class="cls-4" d="M4.18,85.81c-5.57-3.22-5.57-8.43,0-11.65,5.57-3.22,14.61-3.22,20.18,0,5.57,3.22,5.57,8.43,0,11.65-5.57,3.22-14.61,3.22-20.18,0Z"/><path class="cls-3" d="M4.18,85.81c-5.57-3.22-5.57-8.43,0-11.65,5.57-3.22,14.61-3.22,20.18,0,5.57,3.22,5.57,8.43,0,11.65-5.57,3.22-14.61,3.22-20.18,0Z"/><path class="cls-5" d="M4.91,86.18c5.36,2.7,13.37,2.7,18.73,0,1.9-2.25,1.25-5.03-1.99-6.9-4.07-2.35-10.68-2.35-14.75,0-3.23,1.87-3.89,4.66-1.99,6.9Z"/></g><path class="cls-9" d="M10.59,88.19s-.01,0-.02,0c-.14-.01-.24-.13-.23-.27l3.68-40.03c.01-.14,.15-.24,.27-.22,.14,.01,.24,.13,.23,.27l-3.68,40.03c-.01,.13-.12,.23-.25,.23Z"/><path class="cls-9" d="M28.05,78.09c-.09,0-.18-.05-.23-.14l-13.78-29.93c-.06-.12,0-.27,.12-.33,.12-.06,.27,0,.33,.12l13.78,29.93c.06,.12,0,.27-.12,.33-.03,.02-.07,.02-.1,.02Z"/><path class="cls-9" d="M4.18,74.4s-.06,0-.09-.02c-.13-.05-.19-.19-.14-.32l10.09-26.24c.05-.13,.19-.19,.32-.14,.13,.05,.19,.19,.14,.32l-10.09,26.24c-.04,.1-.13,.16-.23,.16Z"/></g><g><g><path class="cls-4" d="M57.31,46.83c-.11,7.63,6.39,11.65,14.27,11.65s14.27-4.02,14.27-11.65h-28.54Z"/><path class="cls-4" d="M61.49,52.65c-5.57-3.22-5.57-8.43,0-11.65,5.57-3.22,14.61-3.22,20.18,0,5.57,3.22,5.57,8.43,0,11.65-5.57,3.22-14.61,3.22-20.18,0Z"/><path class="cls-3" d="M61.49,52.65c-5.57-3.22-5.57-8.43,0-11.65,5.57-3.22,14.61-3.22,20.18,0,5.57,3.22,5.57,8.43,0,11.65-5.57,3.22-14.61,3.22-20.18,0Z"/><path class="cls-5" d="M62.21,53.03c5.36,2.7,13.37,2.7,18.73,0,1.9-2.25,1.25-5.03-1.99-6.9-4.07-2.35-10.68-2.35-14.75,0-3.24,1.87-3.89,4.66-1.99,6.9Z"/></g><path class="cls-9" d="M67.9,55.04s-.01,0-.02,0c-.14-.01-.24-.13-.23-.27l3.68-40.03c.01-.14,.14-.24,.27-.22,.14,.01,.24,.13,.23,.27l-3.68,40.03c-.01,.13-.12,.23-.25,.23Z"/><path class="cls-9" d="M85.36,44.93c-.09,0-.18-.05-.23-.14l-13.78-29.93c-.06-.12,0-.27,.12-.33,.12-.06,.27,0,.33,.12l13.78,29.93c.06,.12,0,.27-.12,.33-.03,.02-.07,.02-.1,.02Z"/><path class="cls-9" d="M61.49,41.25s-.06,0-.09-.02c-.13-.05-.19-.19-.14-.32l10.09-26.24c.05-.13,.19-.19,.32-.14,.13,.05,.19,.19,.14,.32l-10.09,26.24c-.04,.1-.13,.16-.23,.16Z"/></g></g><path class="cls-7" d="M73.27,10.7c-.03,1.24-.79,2.7-1.69,3.22-.22,.13-.53,.24-.77,.1-.26-.15-.42-.58-.42-1.14,0-.72,.26-1.52,.66-2.18h-1.13c-.33,.69-.52,1.45-.52,2.18,0,.94,.34,1.67,.92,2,.23,.13,.48,.2,.75,.2,.33,0,.68-.1,1.02-.3,1.21-.7,2.17-2.48,2.19-4.08h-1Z"/><g id="Base"><g><path class="cls-8" d="M53.08,82.98c-5.39-3.11-14.12-3.11-19.51,0-2.69,1.56-4.03,3.59-4.03,5.63,0,.63,0,1.48,0,2.11,0,2.04,1.33,4.08,4.03,5.63,5.39,3.11,14.12,3.11,19.51,0,2.69-1.56,4.03-3.59,4.03-5.63,0-.63,0-1.48,0-2.11,0-2.04-1.33-4.08-4.03-5.63Z"/><path class="cls-7" d="M33.58,82.98c-5.39,3.11-5.39,8.15,0,11.26,5.39,3.11,14.12,3.11,19.51,0,5.39-3.11,5.39-8.15,0-11.26-5.39-3.11-14.12-3.11-19.51,0Z"/></g><g><path class="cls-9" d="M51.39,80.37c-4.45-2.57-11.67-2.57-16.12,0-2.23,1.29-3.33,2.97-3.33,4.65,0,.52,0,2.58,0,3.1,0,1.68,1.1,3.37,3.33,4.65,4.45,2.57,11.67,2.57,16.12,0,2.23-1.29,3.33-2.97,3.33-4.65,0-.52,0-2.58,0-3.1,0-1.68-1.1-3.37-3.33-4.65Z"/><path class="cls-7" d="M35.27,80.37c-4.45,2.57-4.45,6.74,0,9.31,4.45,2.57,11.67,2.57,16.12,0,4.45-2.57,4.45-6.74,0-9.31-4.45-2.57-11.67-2.57-16.12,0Z"/></g></g><path class="cls-7" d="M16.7,43.64h-1c.01,.1,.02,.21,.02,.33,0,1.25-.78,2.75-1.7,3.29-.22,.12-.53,.24-.78,.1-.26-.15-.42-.58-.42-1.14,0-.44,.1-.91,.26-1.36h-1.05c-.13,.45-.21,.91-.21,1.36,0,.94,.34,1.67,.92,2,.23,.13,.48,.2,.75,.2,.33,0,.68-.1,1.02-.3,1.23-.71,2.19-2.53,2.19-4.15,0-.11,0-.22-.01-.33Z"/><g><path class="cls-9" d="M52.37,83c0-1.34-.88-2.67-2.65-3.69-3.53-2.04-9.25-2.04-12.78,0-1.77,1.02-2.65,2.35-2.65,3.69v1.07c0,1.34,.88,2.67,2.65,3.69,3.53,2.04,9.25,2.04,12.78,0,1.77-1.02,2.65-2.35,2.65-3.69v-1.07Z"/><g><path class="cls-7" d="M49.72,79.31c-.62-.39-1.57-1.96-2.01-4.07-1.02-4.91-1-12.8-.18-15.78h-8.41c.83,2.99,.84,10.87-.18,15.78-.44,2.11-1.39,3.67-2.01,4.07t0,0c-1.77,1.02-2.65,2.35-2.65,3.69,0,1.34,.88,2.67,2.65,3.69,3.53,2.04,9.25,2.04,12.78,0,1.77-1.02,2.65-2.35,2.65-3.69s-.88-2.67-2.65-3.69Z"/><g class="cls-10"><path class="cls-1" d="M40.88,61.25c0,1.91-.11,15.62-1.35,17.35-1.24,1.74-2.64,1.88-3.58,3.37-.94,1.49,.55,3.57,2.79,4.25-.61-.66-.69-1.43-.69-1.43,0,0,1.48,1.76,4.82,1.43-2.94-.5-4.11-2.72-3.48-3.81,.67-1.15,1.74-1.52,2.35-3.53,.47-1.56,.46-17.38,.46-17.38-.48-.05-.92-.14-1.32-.26Z"/></g><g class="cls-10"><path d="M44.77,61.46c.11,3.26,.18,16.24,1.12,17.81,.74,1.22,1.2,1.91,1.35,3.27,.15,1.36-1.06,2.53-1.96,2.83,1.33-.1,2.25-.83,2.25-.83,0,0-.75,1.53-3.71,2.23,1.99,.13,5.18-.43,6.94-2.66,1.5-1.88-.06-2.78-1.33-3.51s-1.92-1.38-2.53-3.11c-1.33-3.78-.75-16.36-.75-16.36-.46,.15-.92,.26-1.39,.33Z"/></g><g class="cls-11"><path d="M47.17,61.28c.07-.57,.19-1.18,.36-1.82h-8.41c.18,.64,.29,1.24,.36,1.82,2.17,1.16,5.51,1.16,7.68,0Z"/></g></g></g><g><path class="cls-9" d="M39.33,60.61c-1.11-.64-1.66-1.47-1.66-2.31s.55-1.67,1.66-2.31c2.21-1.28,5.79-1.28,8,0,1.11,.64,1.66,1.47,1.66,2.31,0,.84-.55,1.67-1.66,2.31-2.21,1.28-5.79,1.28-8,0Z"/><g class="cls-11"><path d="M48.61,57.12c-.28-.41-.7-.8-1.27-1.13-2.21-1.28-5.79-1.28-8,0-.58,.33-1,.72-1.27,1.13,.14,.65,.64,1.28,1.51,1.78,2.08,1.2,5.45,1.2,7.53,0,.87-.5,1.37-1.13,1.51-1.78Z"/></g><path class="cls-9" d="M39.56,58.15c-1.04-.6-1.56-1.39-1.56-2.17s.52-1.57,1.56-2.17c2.08-1.2,5.45-1.2,7.53,0,1.04,.6,1.56,1.39,1.56,2.17s-.52,1.57-1.56,2.17c-2.08,1.2-5.45,1.2-7.53,0Z"/><g class="cls-11"><path d="M48.28,54.84c-.26-.38-.65-.73-1.18-1.04-2.08-1.2-5.45-1.2-7.53,0-.53,.31-.92,.66-1.18,1.04,.13,.62,.6,1.21,1.42,1.69,1.95,1.12,5.11,1.12,7.06,0,.82-.47,1.29-1.07,1.42-1.69Z"/></g><path class="cls-9" d="M39.8,55.69c-.97-.56-1.46-1.3-1.46-2.04s.49-1.47,1.46-2.04c1.95-1.12,5.11-1.12,7.06,0,.97,.56,1.46,1.3,1.46,2.04s-.49,1.47-1.46,2.04c-1.95,1.12-5.11,1.12-7.06,0Z"/><g class="cls-11"><path d="M47.92,52.53c-.24-.33-.59-.64-1.06-.91-1.95-1.12-5.11-1.12-7.06,0-.46,.27-.81,.58-1.06,.91,.15,.53,.58,1.04,1.29,1.45,1.82,1.05,4.76,1.05,6.58,0,.71-.41,1.14-.92,1.29-1.45Z"/></g><g class="cls-10"><path d="M47.46,57.92c.76-.59,.25-1.98-.35-2.38,.65-.74,.3-1.79-.5-2.3-.48,.28-1.01,.46-1.56,.59,.79,.51,1.18,1.65,.53,2.4,.59,.4,1.1,1.84,.34,2.43,.54,.45,1.11,1.72,.23,2.47,.53-.18,1.05-.41,1.52-.74,.88-.75,.32-2.02-.21-2.47Z"/></g><g class="cls-10"><path class="cls-1" d="M39.19,57.92c-.76-.59-.25-1.98,.35-2.38-.65-.74-.3-1.79,.5-2.3,.48,.28,1.01,.46,1.56,.59-.79,.51-1.18,1.65-.53,2.4-.59,.4-1.1,1.84-.34,2.43-.54,.45-1.11,1.72-.23,2.47-.53-.18-1.05-.41-1.52-.74-.88-.75-.32-2.02,.21-2.47Z"/></g></g><g><path class="cls-7" d="M47.2,49.85c-.21-.19-.82-1.67-1-3.95-.62-7.77-.61-17.76-.61-25.36h-4.51c0,7.59,0,17.56-.61,25.34-.18,2.3-.79,3.78-1,3.98-.52,.45-.78,.97-.78,1.49,0,.69,.45,1.38,1.36,1.9,1.82,1.05,4.76,1.05,6.58,0,.91-.52,1.36-1.21,1.36-1.9,0-.52-.26-1.04-.78-1.49Z"/><g class="cls-10"><path d="M46.62,50.19c-.65-1.05-1.13-1.75-1.33-4.32-.19-2.38-.03-24.6,0-25.33h-.31l-.41,.13c0,3.58-.24,26.09,.3,28.05,.53,1.96,1.76,3.92,.2,5.12,.57-.13,1.1-.33,1.56-.59,.87-1.06,.65-2,0-3.05Z"/></g><g class="cls-10"><path class="cls-1" d="M40.04,50.19c.65-1.05,1.13-1.75,1.33-4.32,.19-2.38,.03-24.6,0-25.33h.31l.41,.13c0,3.58,.24,26.09-.3,28.05-.53,1.96-1.76,3.92-.2,5.12-.57-.13-1.1-.33-1.56-.59-.87-1.06-.65-2,0-3.05Z"/></g><g class="cls-11"><path d="M41.07,21.78c.64,.45,1.42,.72,2.26,.72s1.62-.27,2.26-.72c0-.4,0-.81,0-1.25h-4.51c0,.43,0,.85,0,1.25Z"/></g></g><g><path class="cls-9" d="M47.26,17.6c0,2.17-1.76,3.93-3.93,3.93s-3.93-1.76-3.93-3.93,1.76-3.93,3.93-3.93,3.93,1.76,3.93,3.93Z"/><g class="cls-10"><path d="M42.42,19.64c-.83-.36-1.51-1.05-1.75-1.94-.16-.59-.18-1.22-.09-1.82,.05-.3,.13-.59,.24-.87,.05-.14,.11-.28,.19-.41,.03-.06,.11-.25,.17-.29-1.07,.7-1.79,1.91-1.79,3.29,0,2.17,1.76,3.93,3.93,3.93s3.93-1.76,3.93-3.93c-.43,1.25-2.54,3.05-4.84,2.04Z"/></g><g class="cls-10"><path class="cls-1" d="M46.51,17.5c-.38,1.05-.51-.47-2.27-1.59-1.43-.91-3.13-.72-2.21-1.36,.74-.51,1.94-.52,3.07,.09,1.13,.62,1.69,2.07,1.4,2.86Z"/></g></g><path class="cls-7" d="M43.05,12.49h0c-.52,.27-1.02,.57-1.52,.87-5.42,3.07-11.22,6.21-13.22,9.7-.9,1.58-1.34,3.05-1.55,4.23-1.46,1.85-2.86,3.73-4.24,5.6-1.05,1.43-2.09,2.86-3.16,4.24-.02,.02-.05,.04-.07,.05-.07,.04-.11,.08-.1,.1,0,.03,0,.08-.08,.04-.14-.07-.32-.39-.4-.74-.1-.35-.14-.75-.14-1.15,0-.4,.04-.81,.18-1.19h0c.02-.06,0-.11-.03-.15-.05-.06-.14-.06-.19-.01-.35,.32-.6,.73-.79,1.16-.19,.43-.32,.9-.38,1.4-.04,.5-.05,1.06,.28,1.71,.09,.16,.22,.32,.38,.46-.73,.89-1.48,1.75-2.27,2.54-.82,.83-1.68,1.61-2.6,2.23-.92,.69-1.6,.77-2.02,.45-.19-.13-.39-.5-.48-.96-.09-.46-.1-.99-.04-1.51,.06-.53,.19-1.06,.37-1.58,.19-.52,.42-1.02,.71-1.46,.29-.44,.64-.83,1.03-1.08,.19-.12,.39-.21,.55-.24,.17-.03,.29-.02,.41,.04,.12,.06,.21,.15,.3,.34,.09,.18,.13,.42,.15,.67,.04,.51-.06,1.05-.22,1.58-.17,.53-.42,1.03-.77,1.41-.17,.19-.37,.34-.57,.43-.2,.08-.36,.08-.51,0l-.03-.02c-.17-.1-.38-.06-.5,.09-.13,.17-.11,.41,.06,.54,.17,.14,.39,.24,.62,.26,.23,.03,.44,0,.63-.05,.39-.12,.69-.33,.96-.56,.54-.48,.9-1.08,1.17-1.69,.27-.62,.45-1.29,.46-2.02,0-.37-.03-.74-.16-1.14-.07-.2-.16-.4-.3-.59-.13-.19-.33-.38-.52-.5-.4-.27-.92-.37-1.36-.32-.45,.04-.83,.19-1.18,.38-.68,.38-1.19,.89-1.62,1.44-.43,.56-.76,1.16-1.03,1.78-.27,.62-.48,1.28-.61,1.96-.13,.69-.18,1.4-.09,2.16,.06,.38,.15,.77,.32,1.16,.17,.39,.42,.79,.79,1.13,.7,.66,1.76,.92,2.62,.78,.43-.06,.84-.18,1.2-.34,.18-.08,.36-.17,.52-.26l.44-.26c2.31-1.4,4.1-3.27,5.78-5.14,.6-.68,1.18-1.37,1.76-2.06,.22-.17,.42-.36,.59-.58,.15-.2,.29-.41,.4-.62,2.24-2.75,4.35-5.54,6.58-8.2,3.12-3.7,6.4-7.24,10.16-10.1,1.07-.82,2.19-1.59,3.34-2.3v-4.16h0s0,0,0,0Zm-15.06,13.25c.08-.53,.39-1.5,1.49-2.9,1.69-2.16,4.26-3.9,5.88-4.87-2.7,2.39-5.13,5.03-7.37,7.77Z"/><path class="cls-7" d="M77.09,1.44c-.21-.37-.5-.74-.9-1.03-.43-.31-1.01-.45-1.5-.41-.49,.04-.91,.21-1.26,.41-.36,.2-.65,.45-.92,.7-.53,.52-.92,1.1-1.24,1.72-.32,.62-.55,1.3-.65,2.01-.09,.71-.1,1.46,.28,2.26,.2,.39,.51,.8,1.1,.98,.28,.08,.55,.08,.79,.02,.24-.06,.44-.15,.61-.27,.35-.22,.6-.51,.79-.81,.19-.3,.33-.62,.41-.96,.02-.11,0-.23-.09-.32-.13-.13-.35-.13-.48,0h-.01c-.41,.43-.84,.8-1.23,.95-.09,.04-.18,.05-.25,.06-.06,0-.1-.01-.12-.02,0-.02-.13-.11-.19-.27-.14-.34-.14-.87-.04-1.36,.11-.5,.3-1,.58-1.45,.27-.46,.61-.88,.98-1.2,.36-.32,.8-.53,1.05-.52,.12,0,.17,.04,.24,.09,.09,.08,.19,.21,.27,.37,.15,.34,.23,.82,.21,1.32-.03,1.01-.37,2.07-.88,3-.53,.95-1.22,1.83-2,2.41-.2,.15-.38,.26-.6,.37-.24,.13-.49,.24-.73,.34-.49,.2-1,.37-1.51,.47-.49,.1-.98,.16-1.48,.19,.1-.24,.19-.49,.25-.74,.11-.48,.17-.96,.16-1.43-.02-.47-.08-.94-.23-1.39-.08-.22-.18-.45-.32-.65-.14-.19-.35-.42-.65-.44-.04,0-.09,.02-.12,.05-.04,.06-.03,.14,.03,.19l.04,.03c.11,.08,.16,.24,.18,.41,.02,.17,.02,.35,0,.54-.04,.37-.13,.73-.27,1.07-.13,.34-.29,.66-.49,.95-.18,.29-.4,.55-.64,.76-.23,.22-.53,.35-.81,.45-.05,.02-.08,.04-.13,.06-1.84-.24-3.77-.67-5.8-.93-.1-1.18-.49-2.66-1.7-3.38-2.17-1.29-8.85,3.04-14.64,6.39-.04,.02-.07,.04-.11,.06v4.17c2.84-1.75,5.89-3.09,9.05-3.68,2.23-.43,4.51-.45,6.85-.23,2.34,.21,4.76,.71,7.43,.79,1.33,.04,2.73-.09,4.08-.47,.67-.19,1.33-.45,1.95-.75,.31-.15,.62-.32,.91-.5,.32-.19,.64-.42,.92-.66,1.13-.97,1.9-2.14,2.49-3.37,.59-1.26,.95-2.63,.91-4.08-.03-.73-.15-1.5-.56-2.26Zm-18.97,7.37c-1.92-.29-6.26,0-8.71,1.1-.03,0-.06,.02-.09,.03,.62-.4,4.87-3.07,7.3-2.76,1.74,.21,1.5,1.63,1.5,1.63Z"/><g><path class="cls-7" d="M43.05,.51c-2.32,1.34-4.19,4.92-4.19,8.02s1.88,5.6,4.19,4.27c2.32-1.34,4.2-6.02,4.2-9.11s-1.88-4.52-4.2-3.18Zm0,1.56c1.67-.97,3.03,.06,3.03,2.29,0,.46-.05,.98-.16,1.52-.2-1.76-1.41-2.49-2.86-1.65s-2.65,2.96-2.86,4.94c-.1-.42-.16-.86-.16-1.32,0-2.23,1.35-4.82,3.02-5.78Z"/><polygon class="cls-4" points="43.06 6.17 44.39 7.47 43.05 10.46 41.73 8.99 43.06 6.17"/><path class="cls-2" d="M43.6,8.55l-.42,.88-.06-2.41,.49,.51c.18,.19,.18,.62-.01,1.02Z"/></g></g></svg>