<?xml version="1.0" encoding="UTF-8"?><svg id="Camada_1" xmlns="http://www.w3.org/2000/svg" viewBox="0 0 367.55 264.38"><defs><style>.cls-1{fill:#e9505b;}.cls-2{fill:#f5f4f5;}.cls-3,.cls-4{fill:#fff;}.cls-5{fill:#fbfbfb;}.cls-6{fill:#995137;}.cls-7{fill:#b77153;}.cls-8{fill:#e0e0e0;}.cls-9{fill:#455a64;}.cls-10{fill:#263239;}.cls-11{opacity:.2;}.cls-12,.cls-4{opacity:.3;}</style></defs><g><path class="cls-2" d="M238.51,99.41v27.53c0,4.79,4.04,8.83,9.02,8.83h98.71c4.98,0,9.02-4.04,9.02-9.02v-23.26l12.29-12.91-120-.37c-4.99-.02-9.05,4.03-9.05,9.21Z"/><polygon class="cls-8" points="340.71 106.87 251.13 106.46 251.14 103.71 340.72 104.12 340.71 106.87"/><polygon class="cls-8" points="340.71 115.93 251.13 115.52 251.14 112.77 340.72 113.18 340.71 115.93"/><rect class="cls-8" x="321.62" y="105.58" width="2.75" height="35.44" transform="translate(198.11 445.68) rotate(-89.72)"/></g><g><path class="cls-2" d="M70.27,239.73c13.8-9.64,16.94-27.54,16.39-43.63-.09-2.69,.2-5.52-1.07-7.87-1.28-2.36-4.26-3.97-6.66-2.83-1.99,.94-2.86,3.26-3.98,5.18-1.48,2.55-3.7,4.67-6.3,6.02-1.71,.89-3.83,1.43-5.51,.5-2.32-1.28-2.59-4.48-2.57-7.15,.03-4.98,.06-9.96,.09-14.94,.02-2.67,.02-5.4-.81-7.93-.83-2.54-2.67-4.89-5.21-5.6-2.54-.71-5.68,.75-6.22,3.37-.22,1.09,0,2.22-.08,3.33-.07,1.11-.59,2.34-1.64,2.64-1.07,.31-2.14-.44-2.93-1.23-2.76-2.7-4.63-6.17-6.38-9.63s-3.45-6.99-5.95-9.93c-2.5-2.94-5.96-5.27-9.79-5.49-3.83-.22-7.9,2.14-8.87,5.9-.97,3.77,1.23,7.59,3.62,10.64,3.55,4.52,7.74,8.52,12.42,11.83,.84,.6,1.75,1.24,2.08,2.23,.58,1.78-1.11,3.55-2.87,4.14-1.99,.66-4.15,.46-6.23,.7-2.08,.25-4.34,1.16-5.13,3.13-1.09,2.73,1.19,5.59,3.44,7.47,4.5,3.75,9.64,6.72,15.12,8.73,1.97,.72,4.03,1.35,5.62,2.73,1.58,1.38,2.54,3.78,1.58,5.66-.96,1.88-3.42,2.49-5.47,2.1-2.06-.38-3.9-1.5-5.86-2.24-3.67-1.39-8.41-1.13-10.76,2.04-1.55,2.09-1.68,4.99-.9,7.48,.78,2.49,2.37,4.63,4.05,6.6,5.88,6.9,13.42,12.46,21.93,15.41,8.52,2.95,16.41,3.75,24.87,.66"/><path class="cls-8" d="M70.48,251.66c-.58-6.37-1.98-13.9-4.36-22.02-2.37-8.12-5.7-16.81-9.5-25.77-.96-2.24-1.9-4.45-2.84-6.63-.94-2.17-1.86-4.33-2.9-6.38-2.06-4.11-4.35-7.91-6.64-11.45-2.29-3.54-4.59-6.81-6.76-9.86-2.18-3.04-4.27-5.84-6.28-8.31-4.01-4.96-7.71-8.56-10.34-10.93-1.32-1.19-2.37-2.08-3.09-2.67-.35-.28-.62-.5-.82-.67-.19-.15-.29-.22-.29-.21,0,0,.08,.09,.26,.25,.2,.18,.46,.41,.79,.71,.7,.62,1.73,1.53,3.03,2.74,2.6,2.41,6.24,6.04,10.2,11.01,1.99,2.48,4.05,5.28,6.22,8.33,2.16,3.05,4.44,6.33,6.72,9.87,2.27,3.53,4.55,7.32,6.59,11.42,1.03,2.04,1.95,4.18,2.88,6.36,.93,2.18,1.88,4.39,2.83,6.62,3.8,8.96,7.13,17.62,9.52,25.71,2.4,8.08,3.83,15.57,4.45,21.92"/><path class="cls-8" d="M50.74,190.85s.12-.4,.26-1.14c.14-.74,.31-1.81,.5-3.14,.38-2.66,.77-6.35,1.2-10.42,.42-4.07,.87-7.75,1.29-10.39,.21-1.32,.38-2.39,.51-3.13,.13-.74,.18-1.15,.15-1.16-.03,0-.15,.39-.34,1.12-.19,.73-.42,1.79-.67,3.11-.51,2.64-1.01,6.32-1.43,10.4-.41,4.02-.77,7.65-1.05,10.43-.13,1.25-.25,2.31-.34,3.16-.08,.75-.11,1.16-.07,1.17Z"/><path class="cls-8" d="M16.39,184.43s.49,.09,1.37,.16c.88,.08,2.16,.19,3.73,.37,3.15,.34,7.47,.96,12.22,1.86,4.75,.9,9.01,1.9,12.07,2.72,1.53,.4,2.77,.75,3.62,.99,.85,.24,1.33,.36,1.34,.33,.01-.03-.45-.21-1.28-.51-.84-.3-2.06-.7-3.58-1.14-3.05-.9-7.31-1.96-12.07-2.87-4.76-.9-9.11-1.47-12.28-1.72-1.58-.14-2.86-.19-3.75-.21-.89-.01-1.38,0-1.38,.03Z"/><path class="cls-8" d="M65.7,229.01s.1-.14,.24-.42c.16-.34,.35-.75,.59-1.24,.51-1.08,1.2-2.66,2.02-4.63,1.66-3.93,3.77-9.44,6.03-15.55,2.26-6.11,4.32-11.63,5.89-15.59,.77-1.93,1.4-3.51,1.88-4.69,.2-.51,.37-.93,.5-1.28,.11-.29,.16-.45,.14-.46-.02,0-.1,.14-.24,.42-.16,.34-.35,.75-.59,1.24-.51,1.08-1.2,2.66-2.02,4.63-1.66,3.93-3.77,9.44-6.03,15.55-2.26,6.11-4.32,11.63-5.89,15.59-.77,1.93-1.4,3.51-1.88,4.69-.2,.51-.37,.93-.5,1.28-.11,.29-.16,.45-.14,.46Z"/><path class="cls-8" d="M20.06,214.3s.15,.08,.45,.19c.36,.12,.79,.27,1.33,.44,1.22,.4,2.88,.93,4.89,1.58,4.13,1.34,9.8,3.25,16.08,5.38,6.27,2.12,11.97,3.99,16.13,5.24,2.08,.63,3.76,1.12,4.94,1.43,.54,.14,.99,.26,1.35,.36,.31,.08,.48,.11,.48,.09,0-.02-.15-.08-.45-.19-.36-.12-.79-.27-1.33-.44-1.22-.4-2.88-.93-4.89-1.58-4.13-1.34-9.81-3.25-16.08-5.38-6.27-2.12-11.97-3.99-16.13-5.24-2.08-.63-3.76-1.12-4.94-1.43-.54-.14-.99-.26-1.35-.36-.31-.08-.48-.11-.48-.09Z"/></g><g><path class="cls-8" d="M102.12,70.93v21.33c0,3.86-3.13,6.99-6.99,6.99H18.65c-3.86,0-6.99-3.13-6.99-6.99v-18.02l-9.52-10,92.98-.29c3.87-.01,7.01,3.12,7.01,6.99Z"/><polygon class="cls-5" points="22.93 76.86 92.34 76.54 92.33 74.41 22.93 74.73 22.93 76.86"/><polygon class="cls-5" points="22.93 83.88 92.34 83.56 92.33 81.43 22.93 81.75 22.93 83.88"/><rect class="cls-5" x="22.93" y="88.52" width="27.46" height="2.13" transform="translate(-.44 .18) rotate(-.28)"/></g><path class="cls-10" d="M359.77,264.21c0,.09-80.54,.16-179.88,.16s-179.89-.07-179.89-.16,80.53-.16,179.89-.16,179.88,.07,179.88,.16Z"/><g><g><path class="cls-10" d="M111.25,68.03H249.28c6.37,0,11.55,5.17,11.55,11.55v208.14c0,6.37-5.17,11.55-11.55,11.55H111.25c-6.37,0-11.55-5.18-11.55-11.55V79.58c0-6.37,5.18-11.55,11.55-11.55Z" transform="translate(-3.38 363.91) rotate(-90)"/><rect class="cls-3" x="101.53" y="87.09" width="150.97" height="193.11" transform="translate(-6.63 360.67) rotate(-90)"/><circle class="cls-9" cx="284.26" cy="183.65" r="6.18" transform="translate(40.45 418.35) rotate(-76.77)"/><rect class="cls-9" x="48.31" y="182.37" width="48.53" height="2.55" rx="1.22" ry="1.22" transform="translate(-111.07 256.23) rotate(-90)"/></g><g><path class="cls-1" d="M137.81,187.86c.18,8.61-6.66,15.74-15.28,15.92-8.61,.18-15.74-6.66-15.92-15.28-.18-8.61,6.66-15.74,15.28-15.92,8.61-.18,15.74,6.66,15.92,15.28Z"/><path class="cls-4" d="M137.81,187.86c.18,8.61-6.66,15.74-15.28,15.92-8.61,.18-15.74-6.66-15.92-15.28-.18-8.61,6.66-15.74,15.28-15.92,8.61-.18,15.74,6.66,15.92,15.28Z"/><path class="cls-10" d="M116.83,184.25c.59-.05,1.13,.6,1.2,1.46,.07,.85-.35,1.58-.94,1.63-.59,.05-1.13-.6-1.2-1.46-.07-.85,.35-1.58,.94-1.63Z"/><path class="cls-10" d="M126.75,184.05c-.59-.02-1.1,.65-1.14,1.5-.04,.86,.42,1.57,1.01,1.59,.59,.02,1.1-.65,1.14-1.51,.04-.86-.42-1.57-1.01-1.59Z"/><path class="cls-10" d="M128.45,191.27c0,.18-2.91,.33-6.49,.33s-6.5-.15-6.5-.33,2.91-.33,6.5-.33,6.49,.15,6.49,.33Z"/><path class="cls-10" d="M118.02,182.46c-.04,.19-.78,.18-1.65,.32-.87,.13-1.57,.36-1.67,.2-.1-.15,.56-.7,1.56-.85,1-.16,1.79,.16,1.75,.34Z"/><path class="cls-10" d="M129.56,183.22c-.12,.15-.79-.2-1.66-.46-.86-.27-1.62-.36-1.63-.55-.02-.18,.83-.4,1.83-.09,1,.3,1.58,.97,1.46,1.1Z"/></g><g><path class="cls-1" d="M251.32,186.56c.18,8.93-6.91,16.32-15.83,16.5-8.93,.18-16.32-6.91-16.5-15.83-.18-8.93,6.91-16.32,15.83-16.5,8.93-.18,16.32,6.91,16.5,15.83Z"/><path class="cls-12" d="M251.32,186.56c.18,8.93-6.91,16.32-15.83,16.5-8.93,.18-16.32-6.91-16.5-15.83-.18-8.93,6.91-16.32,15.83-16.5,8.93-.18,16.32,6.91,16.5,15.83Z"/><path class="cls-10" d="M229.57,182.81c.61-.05,1.17,.63,1.24,1.51,.07,.88-.36,1.64-.98,1.69-.61,.05-1.17-.63-1.24-1.51-.07-.88,.36-1.64,.98-1.69Z"/><path class="cls-10" d="M239.85,182.6c-.61-.03-1.14,.67-1.18,1.56-.04,.89,.43,1.63,1.05,1.65,.61,.03,1.14-.67,1.18-1.56,.04-.89-.43-1.63-1.05-1.65Z"/><path class="cls-10" d="M241.62,190.09c-.07,.09-.74-.39-1.89-.98-1.15-.58-2.86-1.22-4.81-1.19-1.96,.04-3.66,.7-4.83,1.25-1.17,.57-1.87,1.01-1.93,.92-.05-.06,.56-.64,1.71-1.33,1.15-.67,2.92-1.46,5.04-1.5,2.11-.03,3.92,.74,5.05,1.44,1.14,.72,1.71,1.34,1.66,1.39Z"/><path class="cls-10" d="M230.81,180.96c.06,.07-.05,.27-.32,.51-.27,.23-.71,.49-1.27,.59-.56,.1-1.08,0-1.4-.16-.33-.15-.48-.33-.44-.41,.08-.18,.85,.08,1.73-.09,.89-.16,1.58-.6,1.7-.44Z"/><path class="cls-10" d="M242.77,181.74c.03,.08-.15,.24-.51,.35-.35,.11-.9,.14-1.45-.05-.55-.19-.95-.52-1.19-.79-.24-.27-.32-.49-.26-.55,.14-.15,.79,.41,1.67,.72,.87,.32,1.68,.14,1.74,.33Z"/></g><g><polygon class="cls-8" points="204.16 231.78 207.91 229.92 211.56 231.95 210.95 227.81 214.02 224.97 209.89 224.27 208.13 220.48 206.19 224.18 202.04 224.68 204.97 227.67 204.16 231.78"/><polygon class="cls-1" points="188.88 231.78 192.63 229.92 196.28 231.95 195.67 227.81 198.73 224.97 194.61 224.27 192.85 220.48 190.91 224.18 186.76 224.68 189.68 227.67 188.88 231.78"/><polygon class="cls-1" points="173.6 231.78 177.34 229.92 181 231.95 180.39 227.81 183.45 224.97 179.33 224.27 177.57 220.48 175.63 224.18 171.48 224.68 174.4 227.67 173.6 231.78"/><polygon class="cls-1" points="158.31 231.78 162.06 229.92 165.71 231.95 165.11 227.81 168.17 224.97 164.05 224.27 162.28 220.48 160.35 224.18 156.19 224.68 159.12 227.67 158.31 231.78"/><polygon class="cls-1" points="143.03 231.78 146.78 229.92 150.43 231.95 149.82 227.81 152.89 224.97 148.76 224.27 147 220.48 145.06 224.18 140.91 224.68 143.84 227.67 143.03 231.78"/></g><path class="cls-10" d="M214.19,139.79c0,.09-16.77,.17-37.44,.17s-37.45-.07-37.45-.17,16.76-.17,37.45-.17,37.44,.07,37.44,.17Z"/><path class="cls-10" d="M195.78,135.29c0,.09-8.28,.17-18.49,.17s-18.5-.07-18.5-.17,8.28-.17,18.5-.17,18.49,.07,18.49,.17Z"/><g><g><g><path class="cls-1" d="M201.24,182.73c.24,11.76-9.1,21.49-20.86,21.74-11.76,.24-21.49-9.1-21.74-20.86-.24-11.76,9.1-21.49,20.86-21.74,11.76-.24,21.49,9.1,21.74,20.86Z"/><path class="cls-10" d="M172.59,177.8c.81-.07,1.54,.82,1.64,1.99,.1,1.17-.48,2.16-1.29,2.23-.81,.07-1.54-.82-1.64-1.99-.1-1.17,.48-2.16,1.29-2.23Z"/><path class="cls-10" d="M186.13,177.52c-.81-.03-1.5,.89-1.55,2.05-.05,1.17,.57,2.14,1.38,2.18,.81,.03,1.5-.89,1.55-2.06,.05-1.17-.57-2.14-1.38-2.17Z"/><path class="cls-10" d="M188.46,184.51s-.14,.25-.48,.62c-.33,.39-.88,.87-1.6,1.44-.75,.52-1.66,1.14-2.82,1.54-1.14,.42-2.49,.68-3.91,.61-1.42-.05-2.72-.44-3.84-.89-1.13-.44-2.06-1-2.83-1.48-1.51-1.01-2.31-1.79-2.26-1.85,.07-.09,.97,.56,2.51,1.45,.78,.42,1.71,.92,2.81,1.31,1.09,.4,2.33,.74,3.65,.79,1.32,.06,2.58-.16,3.67-.53,1.1-.34,2-.9,2.75-1.35,.73-.5,1.31-.92,1.69-1.24,.39-.31,.63-.47,.66-.43Z"/><path class="cls-10" d="M173.55,173.01c-.04,.19-1.06,.12-2.27,.32-1.21,.18-2.16,.56-2.26,.39-.1-.15,.8-.84,2.15-1.05,1.35-.21,2.42,.17,2.37,.34Z"/><path class="cls-10" d="M190.7,174c-.12,.15-1.02-.39-2.23-.75-1.2-.38-2.25-.44-2.26-.63-.03-.17,1.12-.42,2.46,0,1.34,.41,2.15,1.26,2.03,1.38Z"/></g><path class="cls-10" d="M171.07,182.98c.08-.01,.22,.21,.24,.61,.02,.4-.11,.97-.46,1.47-.36,.5-.85,.81-1.24,.92-.39,.11-.64,.06-.65-.03-.03-.18,.79-.46,1.35-1.28,.59-.8,.58-1.66,.77-1.69Z"/><path class="cls-10" d="M190.26,184.94c.02,.08-.16,.21-.49,.24-.33,.03-.8-.08-1.21-.38-.41-.3-.65-.73-.71-1.05-.07-.33,0-.53,.09-.54,.19-.02,.4,.61,1.02,1.06,.6,.47,1.27,.49,1.31,.67Z"/></g><path class="cls-1" d="M205.99,182.98s-.02-.15-.04-.43c-.02-.29-.05-.71-.08-1.26-.02-.28-.03-.59-.05-.93-.04-.34-.11-.71-.17-1.11-.06-.4-.13-.83-.2-1.29-.06-.46-.23-.93-.35-1.44-.47-2.04-1.42-4.46-2.93-7.02-1.52-2.55-3.71-5.21-6.7-7.48-.38-.28-.76-.56-1.14-.85-.4-.26-.82-.5-1.24-.76-.43-.24-.83-.54-1.28-.74-.45-.22-.91-.43-1.37-.66-.23-.11-.46-.22-.7-.33-.24-.09-.49-.18-.73-.27-.49-.18-.98-.36-1.48-.54-.5-.17-1.03-.27-1.55-.42-.53-.12-1.04-.3-1.59-.36-1.09-.15-2.19-.38-3.33-.38-.57-.02-1.14-.07-1.72-.07-.58,.03-1.16,.06-1.74,.09-.29,.02-.59,.02-.88,.06l-.88,.13c-.59,.1-1.18,.17-1.77,.29-1.16,.32-2.36,.55-3.51,1.03-1.18,.38-2.29,.96-3.43,1.51-.56,.3-1.09,.65-1.64,.98-.27,.17-.56,.32-.81,.51l-.77,.58c-1.07,.73-2,1.65-2.98,2.54-.44,.49-.89,.98-1.34,1.47l-.34,.37-.3,.4-.6,.81-.6,.81-.53,.87-.53,.87-.27,.44-.22,.46c-.3,.62-.59,1.23-.89,1.85-.24,.65-.47,1.3-.71,1.95-.86,2.64-1.32,5.44-1.36,8.3,.04,2.85,.5,5.66,1.36,8.3,.24,.65,.48,1.3,.71,1.95,.3,.62,.6,1.24,.89,1.86l.22,.46,.27,.44,.53,.87,.53,.87,.61,.81,.6,.81,.3,.4,.34,.37c.45,.49,.89,.98,1.34,1.47,.98,.88,1.91,1.8,2.98,2.54l.77,.58c.26,.19,.54,.34,.81,.51,.55,.33,1.08,.68,1.64,.98,1.14,.55,2.25,1.13,3.43,1.51,1.14,.48,2.35,.71,3.51,1.03,.59,.12,1.18,.19,1.77,.29l.88,.14c.29,.04,.59,.04,.88,.06,.58,.03,1.17,.06,1.74,.09,.58,0,1.15-.05,1.72-.07,1.14,0,2.24-.23,3.33-.39,.55-.06,1.07-.24,1.59-.36,.52-.14,1.05-.25,1.55-.42,.5-.18,.99-.36,1.48-.54,.24-.09,.49-.18,.73-.27,.23-.11,.46-.22,.7-.33,.46-.22,.92-.44,1.37-.66,.46-.21,.86-.5,1.28-.74,.42-.26,.84-.5,1.24-.76,.38-.29,.76-.57,1.14-.85,2.99-2.26,5.18-4.93,6.7-7.48,1.51-2.56,2.46-4.98,2.93-7.02,.12-.51,.29-.98,.35-1.44,.07-.46,.14-.89,.2-1.29,.06-.4,.13-.77,.17-1.11,.02-.34,.04-.65,.05-.92,.03-.54,.06-.96,.08-1.26,.02-.28,.04-.43,.04-.43,0,0,0,.15,0,.43-.01,.3-.03,.71-.05,1.26-.01,.28-.02,.59-.04,.93-.03,.34-.1,.71-.15,1.11-.06,.4-.12,.83-.19,1.3-.05,.47-.22,.94-.33,1.45-.45,2.06-1.39,4.5-2.9,7.08-1.52,2.58-3.71,5.27-6.72,7.57-.38,.28-.76,.57-1.15,.86-.4,.27-.83,.51-1.25,.77-.43,.25-.83,.54-1.29,.75-.45,.22-.91,.44-1.38,.67-.23,.11-.47,.22-.7,.34-.24,.09-.49,.18-.74,.27-.49,.18-.99,.36-1.5,.55-.51,.17-1.04,.28-1.57,.42-.53,.12-1.05,.31-1.61,.37-1.1,.16-2.21,.39-3.36,.4-.57,.02-1.15,.08-1.73,.07-.58-.03-1.17-.06-1.76-.09-.3-.02-.59-.02-.89-.06l-.89-.13c-.59-.1-1.2-.17-1.79-.29-1.18-.32-2.39-.55-3.55-1.03-1.19-.38-2.32-.97-3.47-1.52-.56-.3-1.1-.66-1.66-.99-.27-.17-.56-.32-.82-.52l-.78-.59c-1.08-.74-2.03-1.67-3.02-2.56-.45-.49-.9-.99-1.36-1.49l-.34-.37-.31-.4-.61-.82-.61-.82-.54-.88-.54-.88-.27-.44-.23-.47c-.3-.62-.6-1.25-.91-1.88-.24-.66-.48-1.31-.72-1.97-.87-2.67-1.34-5.51-1.37-8.4,.04-2.89,.51-5.73,1.38-8.4,.24-.66,.48-1.32,.72-1.97,.3-.63,.6-1.25,.91-1.88l.23-.47,.27-.44,.54-.88,.54-.88,.61-.82,.61-.82,.31-.4,.34-.37c.45-.5,.91-1,1.35-1.49,.99-.89,1.94-1.82,3.02-2.56l.78-.59c.26-.2,.55-.34,.82-.52,.56-.33,1.1-.68,1.66-.99,1.15-.55,2.28-1.14,3.47-1.52,1.16-.48,2.38-.72,3.55-1.03,.6-.12,1.2-.19,1.79-.29l.89-.13c.3-.04,.59-.04,.89-.06,.59-.03,1.18-.06,1.76-.09,.58,0,1.16,.05,1.73,.07,1.15,0,2.26,.24,3.36,.4,.55,.06,1.08,.25,1.61,.37,.53,.14,1.06,.25,1.57,.42,.5,.18,1,.37,1.5,.55,.25,.09,.49,.18,.74,.27,.23,.11,.47,.22,.7,.33,.46,.22,.92,.45,1.38,.67,.46,.21,.87,.51,1.29,.75,.42,.26,.84,.5,1.25,.77,.39,.29,.77,.58,1.15,.86,3.01,2.29,5.2,4.99,6.72,7.57,1.5,2.59,2.45,5.03,2.9,7.08,.11,.51,.28,.99,.33,1.45,.07,.46,.13,.89,.19,1.3,.05,.4,.12,.77,.15,1.11,.01,.34,.03,.65,.04,.93,.02,.55,.04,.96,.05,1.26,0,.28,0,.43,0,.43Z"/></g><rect class="cls-8" x="80.46" y="108.16" width="193.11" height="9.63"/><path class="cls-3" d="M86.69,112.71c0,.72-.58,1.3-1.3,1.3s-1.3-.58-1.3-1.3,.58-1.3,1.3-1.3,1.3,.58,1.3,1.3Z"/><path class="cls-3" d="M91.03,112.71c0,.72-.58,1.3-1.3,1.3s-1.3-.58-1.3-1.3,.58-1.3,1.3-1.3,1.3,.58,1.3,1.3Z"/><path class="cls-3" d="M95.36,112.71c0,.72-.58,1.3-1.3,1.3s-1.3-.58-1.3-1.3,.58-1.3,1.3-1.3,1.3,.58,1.3,1.3Z"/><path class="cls-8" d="M252.3,147.38c0,.09-33.51,.17-74.83,.17s-74.84-.07-74.84-.17,33.5-.17,74.84-.17,74.83,.07,74.83,.17Z"/><path class="cls-8" d="M252.3,151.09c0,.09-33.51,.17-74.83,.17s-74.84-.07-74.84-.17,33.5-.17,74.84-.17,74.83,.07,74.83,.17Z"/></g><g><g><g><g><path class="cls-9" d="M154.08,104.1s-1.32-2.99-1.57-3.65c-.67-1.79-4.99-13.8-3.96-15.62,4.79-8.41,8.5-14.38,17.95-14.38l16.68-.11s15.81-3.22,26.95,32.74l-56.07,1.02Z"/><path class="cls-9" d="M118.87,107.11l21.85-4.71,25.69-13.51,.1-18.43c-3.85-1.06-11.23,1.61-24.51,8.37l-19.72,10.18c-6.75,3.49-8.43,12.4-3.4,18.1h0Z"/></g><g><g><path class="cls-7" d="M168.05,142.79c-.32-1.04-.1-1.7,1.41-1.2,3.33,1.12,6.31,.75,7.04,.11,.73-.65,.06-1.89-1.02-1.78-.88,.09-2.39-.21-3.51-.49-.93-.22-1.82-.59-2.62-1.11-.7-.44-1.3-.86-1.83-1.24,0,0-3.07-2.22-4.04-4.01l-10.54,4.52,1.7,5.28s.55,3.11,3.57,4.09c3.01,.98,7.81,.61,7.81,.61,.88-.58,4.27,4.33,5.3,6.06,1.01,1.71,2.25,1.95,2.65,.89,.27-.72-2.74-6.1-3.8-7.79-.58-.92-1.73-2.71-2.11-3.96"/><path class="cls-6" d="M160.9,147.61s-.26,.03-.62-.15c-.36-.17-.8-.54-1.1-1.08-.3-.54-.38-1.11-.34-1.5,.04-.4,.16-.62,.2-.61,.09,.01-.13,.97,.44,1.95,.54,.99,1.47,1.3,1.43,1.39Z"/><path class="cls-6" d="M164.24,147.73s-.25,.01-.59-.17c-.34-.18-.75-.54-1.03-1.06-.28-.52-.36-1.06-.32-1.44,.03-.38,.14-.59,.18-.58,.1,.01-.09,.93,.43,1.86,.5,.95,1.37,1.3,1.32,1.38Z"/></g><g><path class="cls-9" d="M118.25,106.39s33.47,38.47,33.43,37.83c-.04-.63,15-11.88,15-11.88l-32.82-39.09-15.62,13.14Z"/><path class="cls-10" d="M138.55,98.83s.09,.07,.23,.23c.17,.19,.37,.42,.62,.7,.56,.65,1.32,1.53,2.25,2.6,1.89,2.2,4.48,5.26,7.32,8.65,2.85,3.39,5.41,6.47,7.25,8.71,.89,1.1,1.62,2,2.17,2.67,.23,.29,.42,.54,.58,.74,.13,.17,.19,.26,.18,.27,0,0-.09-.07-.23-.23-.17-.19-.37-.42-.62-.69-.56-.65-1.32-1.53-2.25-2.6-1.89-2.2-4.48-5.26-7.33-8.65-2.85-3.39-5.41-6.47-7.25-8.71-.89-1.1-1.62-2-2.17-2.67-.23-.29-.42-.54-.58-.74-.13-.17-.19-.26-.18-.27Z"/></g></g><path class="cls-10" d="M197.77,103.27c-.07-.02,.37-.92,.4-2.46,.01-.77-.09-1.69-.43-2.64-.33-.96-.93-1.91-1.76-2.75-.81-.85-1.68-1.59-2.39-2.36-.71-.77-1.22-1.59-1.5-2.34-.28-.75-.32-1.41-.27-1.85,.05-.44,.16-.67,.17-.66,.07,0-.3,1,.32,2.43,.29,.71,.8,1.48,1.51,2.22,.7,.75,1.57,1.47,2.41,2.34,.84,.86,1.47,1.88,1.8,2.88,.34,1,.42,1.96,.38,2.75-.04,.79-.21,1.42-.35,1.83-.14,.42-.27,.63-.28,.62Z"/><path class="cls-10" d="M152.62,73.67s.16-.09,.49-.23c.32-.14,.81-.33,1.45-.53,.64-.19,1.44-.39,2.4-.49,.95-.08,2.07-.07,3.23,.3,1.16,.35,2.34,1.07,3.3,2.12,.97,1.06,1.64,2.49,1.98,4.05,.34,1.56,.51,3.24,.32,4.98-.2,1.72-.77,3.5-1.85,5.02-1.08,1.52-2.55,2.64-4,3.55-1.46,.92-2.94,1.68-4.34,2.42-2.79,1.47-5.31,2.79-7.43,3.9-2.1,1.09-3.81,1.97-5.02,2.6-.58,.29-1.03,.52-1.37,.69-.32,.16-.48,.23-.49,.22s.15-.11,.46-.28c.33-.19,.78-.44,1.34-.75,1.2-.65,2.89-1.57,4.97-2.7,2.11-1.13,4.62-2.47,7.4-3.96,1.39-.74,2.87-1.51,4.31-2.42,1.44-.91,2.86-2,3.91-3.47,1.04-1.46,1.6-3.18,1.8-4.86,.2-1.68,.03-3.35-.29-4.87-.33-1.52-.96-2.9-1.89-3.93-.92-1.02-2.05-1.74-3.17-2.09-1.12-.37-2.21-.4-3.14-.34-.94,.08-1.74,.26-2.38,.43-.64,.18-1.13,.35-1.46,.47-.33,.12-.51,.18-.51,.17Z"/><path class="cls-10" d="M142.24,102.36c-.11,.03-.38-2.21-1.87-4.46-1.45-2.28-3.38-3.44-3.31-3.53,.02-.03,.52,.21,1.23,.76,.71,.55,1.6,1.43,2.35,2.59,.75,1.16,1.19,2.33,1.4,3.21,.21,.87,.23,1.43,.19,1.44Z"/><path class="cls-5" d="M191.43,98.18s-.24,.1-.71,.19c-.47,.09-1.19,.18-2.11,.09-.91-.09-2.04-.37-3.17-1.04-1.13-.66-2.25-1.77-2.93-3.29-.68-1.5-.96-3.42-.4-5.31,.29-.94,.85-1.87,1.77-2.45,.45-.29,1.03-.44,1.59-.33,.57,.1,1.05,.48,1.39,.92,1.27,1.86,1.48,4.38,.75,6.66-.38,1.14-1.01,2.22-1.89,3.1-.88,.88-2.02,1.52-3.25,1.84-2.46,.65-5.2,.06-6.95-1.62-1.75-1.68-2.44-4.17-2.09-6.34,.16-1.09,.62-2.11,1.27-2.94,.34-.41,.75-.76,1.25-.95,.49-.2,1.06-.19,1.53,.02,.95,.42,1.52,1.35,1.63,2.27,.11,.93-.16,1.8-.51,2.55-.73,1.49-1.7,2.65-2.66,3.54-.96,.89-1.91,1.51-2.73,1.93-.82,.42-1.49,.67-1.95,.81-.23,.08-.41,.11-.53,.15-.12,.03-.18,.04-.18,.04,0,0,.06-.03,.17-.07,.12-.04,.29-.09,.52-.18,.45-.16,1.11-.43,1.91-.86,.8-.44,1.73-1.07,2.66-1.95,.93-.89,1.87-2.05,2.57-3.51,.33-.73,.57-1.56,.46-2.42-.1-.84-.65-1.69-1.48-2.04-.41-.17-.89-.19-1.32,0-.43,.17-.81,.49-1.12,.88-.61,.78-1.04,1.75-1.2,2.8-.33,2.08,.34,4.46,2.01,6.06,1.67,1.59,4.29,2.16,6.65,1.53,1.18-.31,2.26-.91,3.1-1.75,.84-.84,1.45-1.88,1.82-2.97,.35-1.1,.49-2.25,.37-3.35-.05-.55-.17-1.09-.34-1.6-.16-.52-.39-1.01-.7-1.42-.31-.41-.73-.73-1.21-.82-.47-.1-.97,.02-1.38,.28-.83,.52-1.38,1.4-1.65,2.28-.55,1.82-.29,3.67,.35,5.14,.65,1.48,1.72,2.57,2.81,3.23,1.1,.67,2.19,.97,3.09,1.07,1.82,.2,2.8-.22,2.81-.15Z"/><g><g><path class="cls-6" d="M193.95,60.72c-.71-.86-1.22-1.88-1.49-2.97-.09-.36-.15-.73-.04-1.08,.11-.35,.44-.65,.81-.62,.37,.04,.63,.38,.83,.7,.59,.93,1.16,1.89,1.54,2.92,.11,.28,.2,.58,.18,.89s-.16,.62-.43,.76c-.29,.15-.67,.07-.94-.13-.27-.19-.46-.48-.64-.76"/><path class="cls-6" d="M195.56,60.03c-.55-1.15-1.1-2.3-1.65-3.46-.16-.34-.33-.7-.34-1.08-.01-.38,.18-.79,.53-.92,.31-.11,.67,.01,.91,.23,.25,.22,.4,.52,.55,.82,.26,.5,.52,1.01,.78,1.51,.21,.41,.43,.83,.51,1.29,.09,.46,.03,.96-.26,1.32-.29,.36-.84,.53-1.24,.29"/><path class="cls-7" d="M188.22,70.73s-2.3-2.98-2.5-4.55c-.21-1.57,1.72-4.36,5.85-4.98,2.22-.34,3.51-.95,4.24-1.45,.52-.36,.72-1.02,.48-1.61-.54-1.32-1.52-3.76-1.44-4.08,.19-.84,.74-.83,2.17,1.26,1.43,2.09,3.07,4.21,2.76,5.17-.32,.96-5.35,3.94-5.35,3.94l1.38,2.22-7.57,4.1Z"/></g><path class="cls-9" d="M201.87,101.34l-15.84-31.03,10.2-5.72,21.43,33.97s1.13,2.17,2.71,4.71h-17.96"/></g></g><path class="cls-10" d="M196.07,64.59s-.06,.05-.18,.12c-.14,.09-.32,.19-.53,.32-.5,.29-1.19,.69-2.05,1.19-1.81,1.03-4.34,2.47-7.37,4.2l.06-.19c1.54,3.14,3.54,6.77,5.56,10.72,3,5.84,5.6,11.19,7.43,15.08,.92,1.95,1.64,3.53,2.13,4.63,.23,.53,.42,.95,.56,1.27,.12,.29,.18,.45,.17,.45-.01,0-.09-.14-.23-.42-.15-.31-.36-.73-.61-1.24-.54-1.11-1.3-2.67-2.22-4.58-1.88-3.87-4.51-9.2-7.51-15.03-2.02-3.94-4-7.59-5.52-10.75l-.06-.12,.12-.06c3.05-1.68,5.6-3.09,7.42-4.09,.88-.47,1.58-.85,2.09-1.13,.22-.12,.41-.21,.56-.29,.13-.06,.19-.09,.2-.09Z"/><path class="cls-10" d="M154.08,104.1c-.08,.04-.96-1.48-1.7-3.51-.74-2.03-1.03-3.77-.95-3.78,.1-.02,.53,1.66,1.26,3.67,.72,2.01,1.47,3.58,1.38,3.62Z"/></g><g><path class="cls-10" d="M188.96,58.35c2.49,.98,5.58,.13,7.23-1.98,1.65-2.11,1.71-5.32,.16-7.49,3.58-.91,5.81-5.03,5.08-8.65-.72-3.62-3.96-6.44-7.56-7.22-1.38-.3-2.84-.33-4.18,.11-1.34,.44-2.55,1.39-3.12,2.68"/><path class="cls-1" d="M188.46,50.26s-.47,.12-1.22,.52c-.74,.39-1.77,1.19-2.39,2.57-.3,.69-.5,1.51-.45,2.39,.05,.88,.3,1.82,.85,2.64,.26,.42,.6,.8,1,1.13,.39,.34,.84,.62,1.34,.83,.98,.44,2.14,.55,3.25,.3,1.11-.26,2.1-.86,2.8-1.68,.36-.4,.64-.85,.84-1.33,.21-.47,.35-.96,.41-1.45,.14-.98-.05-1.94-.38-2.75-.34-.82-.88-1.47-1.44-1.96-1.16-.98-2.43-1.25-3.27-1.28-.85-.03-1.32,.1-1.32,.06,0-.01,.11-.04,.33-.09,.22-.05,.56-.1,.99-.1,.86,0,2.19,.23,3.42,1.23,.6,.5,1.18,1.17,1.55,2.03,.36,.85,.57,1.86,.43,2.9-.05,.52-.2,1.04-.42,1.54-.21,.5-.51,.99-.89,1.41-.73,.87-1.79,1.52-2.97,1.8-1.18,.26-2.41,.14-3.45-.33-.52-.22-1-.53-1.41-.89-.42-.36-.77-.76-1.05-1.21-.58-.88-.83-1.87-.87-2.8-.04-.93,.19-1.79,.51-2.5,.67-1.44,1.77-2.23,2.54-2.59,.39-.19,.72-.29,.94-.34,.22-.05,.34-.07,.34-.06Z"/><path class="cls-10" d="M191.16,40.42c2.58-.15,4.96-2.1,5.6-4.61,.64-2.51-.51-5.37-2.71-6.73,1.06-2.99,.02-6.6-2.48-8.56s-6.25-2.11-8.9-.37c-2.02-3.55-6.36-5.62-10.39-4.98-4.03,.65-7.5,3.97-8.31,7.97-3.63-1.5-8.14-.53-10.84,2.32-2.7,2.85-3.41,7.41-1.71,10.95-3.95,.34-7.23,4.24-6.89,8.19s4.23,7.24,8.18,6.91c-.81,2.62,.21,5.7,2.41,7.33,2.2,1.63,5.44,1.7,7.72,.17,1.45,2.34,4.31,3.73,7.05,3.42s5.21-2.31,6.09-4.93"/><g><path class="cls-7" d="M183.65,69.71c.13-3.04,.29-5.79,.29-5.79,0,0,6.79-.86,7.09-7.79,.29-6.94-.4-22.91-.4-22.91l-12.51-6.01-13.46,10.84,2.11,31.85c.3,4.59,4.22,8.09,8.82,7.88h0c4.37-.2,7.86-3.71,8.05-8.08Z"/><path class="cls-10" d="M190.3,45.1c-.11,.12-.76-.43-1.69-.46-.93-.05-1.62,.44-1.72,.31-.05-.06,.06-.27,.37-.49,.3-.22,.8-.42,1.38-.4,.58,.03,1.06,.28,1.34,.52,.28,.25,.38,.47,.32,.52Z"/><path class="cls-10" d="M179.99,45.1c-.11,.12-.76-.43-1.69-.46-.93-.05-1.62,.44-1.72,.31-.05-.06,.06-.27,.37-.49,.3-.22,.8-.42,1.38-.4,.58,.03,1.06,.28,1.34,.52,.28,.25,.38,.47,.32,.52Z"/><path class="cls-10" d="M183.48,52.09c0-.06,.58-.14,1.52-.23,.24-.02,.46-.06,.51-.23,.06-.18-.04-.46-.15-.76-.21-.63-.44-1.28-.67-1.97-.93-2.8-1.6-5.1-1.5-5.14,.1-.04,.95,2.2,1.88,5,.22,.69,.44,1.35,.64,1.98,.09,.29,.24,.63,.11,1-.07,.19-.24,.32-.4,.36-.15,.04-.29,.04-.4,.04-.94,.02-1.53,0-1.53-.06Z"/><path class="cls-6" d="M183.94,63.92s-4.55,.13-9-2.95c0,0,2.11,5.05,8.88,4.65l.12-1.7Z"/></g><path class="cls-10" d="M174.29,27.6c-2.22,3.07-2.16,7.59,.13,10.6,1.01,1.33,2.53,2.41,4.2,2.35,1.67-.06,3.28-1.64,2.92-3.27-.65,2.04,1.08,4.46,3.22,4.5s3.96-2.32,3.38-4.38c.17,.74,.35,1.5,.78,2.13,.43,.63,1.16,1.11,1.91,1.01,1.05-.14,1.65-1.26,1.89-2.29,.72-3.07-.42-6.44-2.67-8.65s-5.52-3.25-8.66-3.04c-3.15,.21-6.15,1.63-8.51,3.72"/><path class="cls-10" d="M175.17,30.05c.81,1.98,1.42,4.08,1.4,6.22-.02,2.14-.73,4.33-2.25,5.84-1.52,1.51-3.91,2.2-5.9,1.42,.48,1.87,.31,3.99-.86,5.54-1.16,1.54-3.45,2.28-5.14,1.35-1.53-.84-2.19-2.7-2.41-4.43-.51-4.2,.97-8.59,3.92-11.62s7.3-4.62,11.51-4.22"/><g><path class="cls-7" d="M166.59,46.57c-.92-.57-2.19-.1-2.92,.7-1.15,1.26-1.36,3.3-.47,4.76,.89,1.46,2.78,2.23,4.44,1.78"/><path class="cls-6" d="M166.38,51.74s-.31,.08-.79-.05c-.46-.13-1.16-.5-1.43-1.27-.13-.38-.11-.79,.04-1.11,.14-.32,.37-.54,.58-.68,.43-.28,.76-.27,.76-.24,.02,.05-.28,.13-.61,.42-.34,.28-.67,.86-.44,1.5,.21,.63,.78,.99,1.19,1.16,.42,.18,.71,.22,.71,.27Z"/></g><path class="cls-10" d="M180.56,42.2c-.09,.27-1.1,.17-2.31,.22-1.21,.04-2.21,.21-2.32-.05-.11-.24,.87-.9,2.28-.95,1.41-.06,2.44,.52,2.34,.77Z"/><path class="cls-10" d="M190.28,42.01c-.11,.1-.31,.03-.56-.03-.25-.06-.48-.09-.85-.05-.36,.04-.76,.1-1.07,.09-.31,0-.52-.07-.56-.2-.04-.13,.1-.3,.36-.48,.26-.17,.64-.36,1.18-.41,.54-.08,1.12,.18,1.34,.47,.24,.28,.25,.52,.15,.61Z"/><path class="cls-6" d="M181.87,53.87c.52-.31,1.18-.46,1.75-.25,.57,.21,1.01,.84,.87,1.43-.07,.32-.3,.6-.56,.8-.41,.31-.94,.46-1.45,.35-.5-.11-.95-.49-1.07-.98-.13-.5,.1-1.08,.56-1.3"/><path class="cls-10" d="M185.27,54.61s-.22,.2-.67,.29c-.44,.1-1.1,.1-1.76-.17-.66-.27-1.12-.75-1.36-1.13-.25-.39-.3-.67-.26-.68,.05-.02,.18,.22,.45,.54,.27,.32,.71,.72,1.3,.96,.59,.24,1.18,.28,1.6,.25,.42-.03,.68-.11,.7-.06Z"/><path class="cls-1" d="M171.2,57.92s-.01-.48-.23-1.31c-.21-.81-.76-1.99-1.98-2.9-.6-.45-1.36-.82-2.23-.97-.86-.14-1.84-.11-2.76,.24-.47,.16-.92,.41-1.33,.72-.42,.3-.8,.68-1.11,1.12-.65,.86-1.01,1.96-1.02,3.1,.01,1.14,.37,2.24,1.02,3.1,.31,.44,.69,.81,1.11,1.12,.41,.31,.86,.56,1.33,.72,.93,.36,1.9,.39,2.76,.24,.87-.15,1.63-.53,2.23-.97,1.22-.91,1.76-2.1,1.98-2.9,.22-.82,.19-1.31,.23-1.31,.01,0,.02,.12,.02,.35,0,.23-.03,.57-.12,.99-.18,.84-.71,2.08-1.96,3.06-.62,.48-1.41,.89-2.32,1.06-.91,.16-1.94,.14-2.92-.22-.49-.17-.97-.43-1.41-.75-.44-.32-.85-.72-1.18-1.18-.69-.91-1.08-2.09-1.09-3.3,.01-1.21,.4-2.38,1.09-3.29,.33-.46,.74-.86,1.18-1.18,.44-.33,.92-.58,1.41-.75,.98-.37,2.01-.39,2.92-.22,.91,.17,1.7,.58,2.32,1.06,1.25,.98,1.78,2.22,1.96,3.06,.1,.42,.13,.76,.12,.99,0,.23,0,.35-.02,.35Z"/><path class="cls-9" d="M190.27,26.88s.06,0,.17,.04c.11,.05,.27,.12,.44,.28,.33,.3,.7,.96,.56,1.82-.14,.87-1.01,1.7-2.16,1.91-1.17,.24-2.48-.19-3.66-.87l-1.29-.74,1.41,.46c.48,.16,.83,.61,.95,1.09,.13,.49,.07,1.03-.2,1.49-.28,.46-.76,.76-1.27,.9-.51,.14-1.07,.12-1.58-.03-1.27-.39-2.09-1.43-2.72-2.35l-.9-1.32,1.15,1.11c.66,.64,.8,1.58,.62,2.36-.18,.79-.73,1.45-1.39,1.76-1.34,.64-2.76,.24-3.55-.43-.82-.67-1.17-1.47-1.34-2-.09-.27-.13-.49-.15-.63-.02-.15-.02-.22-.01-.22,.03,0,.07,.3,.27,.82,.2,.51,.57,1.27,1.37,1.88,.76,.61,2.1,.94,3.3,.35,.59-.29,1.06-.87,1.22-1.58,.16-.7,.01-1.53-.54-2.06l.25-.21c.62,.9,1.41,1.86,2.54,2.21,.91,.28,2.01,.04,2.48-.71,.45-.74,.18-1.88-.58-2.13l.13-.28c1.15,.68,2.38,1.1,3.46,.89,1.07-.18,1.88-.93,2.03-1.7,.16-.78-.15-1.41-.44-1.71-.3-.32-.55-.36-.54-.39Z"/><path class="cls-9" d="M173.64,38.03s-.02,.05-.08,.12c-.06,.08-.16,.18-.29,.31-.27,.25-.72,.6-1.39,.83-.66,.23-1.57,.35-2.52,.04-.94-.3-1.93-1.02-2.48-2.14l.26-.04c-.22,1.45-1.41,2.91-3.13,3.31-1.7,.39-3.75-.51-4.54-2.29-.7-1.6-.24-3.49,.88-4.56l.22,.24c-.76,.64-1.72,.94-2.63,.95-.91,.02-1.77-.24-2.47-.67-.69-.44-1.21-1.07-1.48-1.73-.27-.66-.35-1.34-.31-1.93,.08-1.2,.6-2.06,1.03-2.54,.43-.48,.76-.63,.76-.63,.02,.03-.28,.21-.68,.7-.39,.48-.85,1.33-.91,2.48-.02,.57,.06,1.2,.33,1.82,.26,.62,.75,1.19,1.4,1.59,.65,.4,1.47,.63,2.31,.6,.85-.01,1.73-.3,2.42-.89l.22,.24c-1.02,.98-1.44,2.74-.79,4.2,.72,1.62,2.62,2.47,4.17,2.12,1.58-.35,2.7-1.71,2.92-3.04l.07-.44,.19,.4c.5,1.05,1.41,1.75,2.3,2.05,.9,.31,1.76,.22,2.4,.02,.65-.2,1.1-.51,1.39-.74,.28-.23,.41-.38,.43-.37Z"/><path class="cls-9" d="M161.26,49.14s-.16,.16-.54,.32c-.37,.16-.97,.33-1.73,.27-.74-.06-1.68-.38-2.38-1.16-.7-.76-1.15-1.95-.94-3.2l.29,.13c-.58,.76-1.37,1.46-2.34,1.91-.73,.34-1.51,.51-2.28,.48-.76-.03-1.48-.23-2.09-.57-1.25-.66-1.94-1.9-1.99-2.95-.08-1.06,.3-1.88,.64-2.34,.18-.23,.34-.39,.47-.48,.12-.09,.19-.13,.2-.12,.02,.03-.24,.21-.56,.67-.3,.46-.62,1.25-.51,2.25,.08,.98,.73,2.1,1.9,2.71,1.14,.63,2.71,.72,4.08,.06,.91-.43,1.67-1.09,2.23-1.81l.4-.52-.12,.65c-.21,1.13,.2,2.24,.83,2.96,.63,.74,1.49,1.06,2.2,1.14,.72,.09,1.29-.05,1.67-.17,.38-.13,.57-.24,.58-.22Z"/><path class="cls-9" d="M196.61,35.61s.19,.42,.14,1.15c-.04,.72-.36,1.74-1.14,2.56-.79,.82-1.79,1.18-2.51,1.25-.73,.08-1.17-.05-1.16-.09,0-.06,.44,0,1.12-.15,.67-.13,1.59-.5,2.31-1.25,.72-.75,1.04-1.69,1.15-2.36,.11-.68,.04-1.12,.1-1.13Z"/><path class="cls-9" d="M200.43,42.15s.1,.15,.16,.47c.05,.32,.08,.81-.13,1.37-.19,.54-.68,1.21-1.51,1.39-.4,.09-.85,.06-1.26-.11-.42-.16-.81-.5-.99-.96l.31-.11c.05,.19,.09,.4,.08,.61-.03,1.04-.73,1.92-1.56,2.22-.42,.15-.86,.15-1.24,.05-.38-.11-.69-.3-.94-.52-.5-.44-.7-.96-.76-1.31-.06-.36,0-.56,.02-.55,.03,0,.02,.2,.11,.52,.09,.32,.31,.78,.78,1.16,.45,.38,1.2,.64,1.92,.36,.71-.27,1.32-1.06,1.34-1.94,0-.18-.03-.35-.06-.52l.31-.11c.3,.75,1.22,1.04,1.89,.9,.7-.13,1.16-.69,1.36-1.18,.21-.5,.23-.97,.22-1.27-.02-.31-.06-.48-.03-.49Z"/><path class="cls-10" d="M181.39,51.43s.07,.14,.01,.35c-.05,.21-.21,.48-.47,.7-.26,.21-.56,.31-.77,.33-.22,.01-.35-.04-.34-.08,0-.09,.48-.14,.91-.5,.44-.35,.57-.81,.66-.8Z"/></g></g><g><path class="cls-1" d="M330.19,230.48c-1.56,2.23-4.59,1.49-5.99,.13-1.4-1.36-2-3.33-2.54-5.21-1.23-4.29-2.48-8.79-1.56-13.16,.27-1.31,.76-2.61,1.68-3.58,.92-.97,2.33-1.55,3.62-1.2,1.53,.4,2.48,1.9,3.16,3.32,2.02,4.18,3.08,8.82,3.1,13.46,0,2.17-.25,4.44-1.47,6.23"/><g class="cls-11"><path d="M330.19,230.48c-1.56,2.23-4.59,1.49-5.99,.13-1.4-1.36-2-3.33-2.54-5.21-1.23-4.29-2.48-8.79-1.56-13.16,.27-1.31,.76-2.61,1.68-3.58,.92-.97,2.33-1.55,3.62-1.2,1.53,.4,2.48,1.9,3.16,3.32,2.02,4.18,3.08,8.82,3.1,13.46,0,2.17-.25,4.44-1.47,6.23"/></g><path class="cls-1" d="M324.35,241.75c-2.55-1.32-5.55-1.49-8.38-1.02-1.52,.25-3.11,.71-4.14,1.85-1.03,1.14-1.23,3.15-.04,4.13,.71,.58,1.69,.67,2.61,.66,2.22-.03,4.67-.42,6.44,.92,1.01,.76,1.68,2.02,2.89,2.4,1.18,.37,2.51-.33,3.14-1.4,.63-1.07,.65-2.4,.36-3.6,0,0-.31-2.62-2.87-3.94Z"/><path class="cls-1" d="M334.47,233.67c-1.69-2.01-2.01-4.94-1.26-7.45,.75-2.52,2.45-4.66,4.41-6.4,2.3-2.05,5-3.64,7.91-4.66,1.14-.4,2.35-.72,3.56-.6,1.21,.12,2.42,.73,2.98,1.81,.83,1.59,.03,3.51-.83,5.08-1.52,2.77-3.26,5.41-5.19,7.91-1.56,2.01-3.34,3.99-5.71,4.89-2.37,.91-4.84,.8-6.09-.84"/><path class="cls-10" d="M330.3,264.06s-.08-.36-.14-1.01c-.07-.74-.16-1.66-.27-2.76-.13-1.16-.3-2.54-.62-4.05-.32-1.5-.83-3.13-1.47-4.78-.67-1.64-1.49-3.13-2.44-4.32-.95-1.2-2.05-2.06-3.09-2.56-1.03-.51-1.96-.72-2.6-.81-.65-.07-1.01-.12-1.01-.15,0-.03,.36-.03,1.02-.02,.66,.04,1.62,.21,2.71,.71,1.09,.48,2.26,1.36,3.25,2.59,1,1.22,1.85,2.74,2.53,4.41,.66,1.68,1.15,3.32,1.46,4.86,.31,1.53,.45,2.93,.54,4.1,.09,1.17,.12,2.12,.14,2.78,.01,.66,0,1.02-.02,1.02Z"/><path class="cls-10" d="M330.11,261.93s-.02-.16-.03-.47c0-.35,0-.8,0-1.34,0-1.16,0-2.85-.06-4.93-.1-4.16-.46-9.91-1.15-16.23-.7-6.32-1.62-12-2.46-16.08-.2-1.02-.4-1.94-.59-2.75-.18-.81-.33-1.5-.48-2.07-.13-.53-.23-.96-.31-1.3-.07-.3-.1-.46-.08-.46,.01,0,.07,.15,.16,.44,.1,.34,.23,.76,.39,1.29,.17,.56,.35,1.25,.55,2.05,.21,.8,.43,1.72,.65,2.74,.92,4.07,1.89,9.76,2.59,16.09,.69,6.33,1.01,12.09,1.03,16.27,.02,2.09-.02,3.78-.07,4.94-.03,.55-.06,.99-.08,1.34-.02,.31-.04,.47-.06,.47Z"/><path class="cls-10" d="M330.08,250.82s-.02-.5,0-1.4c.05-.9,.18-2.2,.43-3.8,.27-1.59,.64-3.48,1.24-5.53,.56-2.06,1.33-4.29,2.31-6.55,1.92-4.55,4.53-8.28,6.8-10.58,.53-.61,1.12-1.05,1.6-1.49,.25-.21,.46-.41,.68-.58,.22-.15,.43-.3,.62-.43,.75-.51,1.16-.78,1.18-.76,.07,.09-1.67,1.11-3.87,3.45-2.19,2.33-4.72,6.03-6.63,10.54-.97,2.24-1.75,4.45-2.33,6.49-.61,2.03-1.01,3.9-1.31,5.48-.29,1.58-.46,2.87-.56,3.76-.08,.89-.14,1.39-.17,1.39Z"/></g><g><path class="cls-10" d="M110.81,0s-.15,.03-.43,.05c-.31,.03-.73,.06-1.27,.11-.56,.02-1.24,.15-2.05,.3-.4,.09-.84,.12-1.29,.26-.45,.13-.94,.27-1.44,.42-2.01,.66-4.43,1.7-6.86,3.5-2.42,1.79-4.83,4.33-6.7,7.63-.98,1.62-1.69,3.49-2.32,5.46-.51,2-.95,4.12-.96,6.35-.09,1.11,.04,2.24,.1,3.39,.04,.57,.17,1.14,.25,1.72,.09,.58,.18,1.16,.35,1.73,.5,2.32,1.47,4.59,2.7,6.76,2.44,4.36,6.51,8.09,11.51,10.22,2.5,1.07,5.26,1.63,8.05,1.71,2.8,.15,5.66-.34,8.37-1.3l.82-.31,.11-.04,.1,.05c4.05,2,8.02,3.96,11.86,5.85l-.35,.3c-1.3-3.89-2.57-7.67-3.78-11.29l-.05-.14,.1-.11c2.94-3.01,4.97-6.65,6.08-10.37,1.11-3.73,1.26-7.51,.77-10.97-.49-3.47-1.66-6.61-3.2-9.25-1.54-2.65-3.45-4.79-5.4-6.46-1.97-1.66-4.01-2.77-5.84-3.62-1.87-.76-3.53-1.24-4.91-1.49-.69-.11-1.3-.21-1.84-.29-.53-.03-.98-.06-1.35-.08-.35-.02-.62-.04-.83-.05-.19-.01-.28-.03-.28-.03,0,0,.09,0,.28,0,.21,0,.48,0,.83,.01,.38,.01,.83,.02,1.36,.04,.54,.07,1.16,.16,1.85,.25,1.39,.23,3.08,.69,4.97,1.43,1.85,.84,3.93,1.94,5.94,3.61,1.99,1.67,3.94,3.83,5.52,6.51,1.58,2.67,2.79,5.86,3.3,9.38,.51,3.51,.37,7.36-.75,11.16-1.11,3.78-3.17,7.5-6.16,10.58l.06-.25c1.22,3.62,2.49,7.39,3.8,11.29l.19,.57-.54-.27c-3.85-1.9-7.82-3.85-11.87-5.85h.21s-.84,.33-.84,.33c-2.77,.99-5.69,1.48-8.56,1.33-2.86-.09-5.68-.66-8.23-1.76-5.1-2.18-9.24-6-11.72-10.45-1.24-2.21-2.22-4.53-2.72-6.89-.17-.58-.26-1.17-.35-1.76-.08-.59-.21-1.17-.24-1.75-.06-1.17-.18-2.31-.09-3.44,.02-2.27,.48-4.42,1.01-6.45,.65-1.99,1.38-3.89,2.38-5.53,1.91-3.34,4.38-5.9,6.84-7.68,2.47-1.8,4.93-2.82,6.97-3.46,.52-.14,1-.27,1.46-.4,.46-.13,.9-.16,1.31-.24,.81-.14,1.5-.25,2.07-.25,.54-.02,.97-.04,1.28-.06,.29-.01,.44-.01,.44,0Z"/><g><path class="cls-1" d="M116.39,21.78l-1.73,.02-3.83-5.21-.04-3.45s-2.67-.13-2.31,4.38c.37,4.51,.01,3.37,.01,3.37,0,0-5.67,.09-6.14,.58-.34,.36-.43,6-.45,9.05-.01,1.54,.95,2.96,2.38,3.31,.2,.05,.41,.08,.61,.08,1.41-.02,8.63-1.25,8.63-1.25l2.99-.03-.12-10.84Z"/><polygon class="cls-1" points="121.33 20.78 120.4 32.61 117.44 32.65 117.31 21.06 121.33 20.78"/></g></g></svg>