<?xml version="1.0" encoding="UTF-8"?><svg xmlns="http://www.w3.org/2000/svg" xmlns:xlink="http://www.w3.org/1999/xlink" viewBox="0 0 436.21 252.1"><defs><style>.cls-1{clip-path:url(#clippath);}.cls-2{fill:#fab093;}.cls-3{fill:#ffde82;}.cls-4{fill:#fff;}.cls-5{fill:#ffb304;}.cls-6{fill:#e67b64;}.cls-7{fill:#f16c3f;}.cls-8{fill:#fbc802;}.cls-9{fill:#658436;}.cls-10{fill:#30323c;}.cls-11{fill:#84b9ff;}.cls-12{fill:#cf4920;}.cls-13{fill:#aabc30;}.cls-14,.cls-15{fill:#bbdfff;}.cls-16{fill:#ccd78c;}.cls-17{fill:#e08162;}.cls-18{fill:#0c60dc;}.cls-19{fill:#2d353c;}.cls-20{fill:#3983fd;}.cls-21{clip-path:url(#clippath-1);}.cls-22,.cls-15{opacity:.5;}</style><clipPath id="clippath"><path class="cls-20" d="M347.52,95.68l-1.45,3.03,1.52,26.85-4.14,3.63-2.49-4.43,4.03-26.15-.52-3.28s1.24-.65,3.04,.35Z"/></clipPath><clipPath id="clippath-1"><polygon class="cls-13" points="84.67 98.67 86.38 100.7 86.78 127.77 90.66 130.96 92.61 126.73 87.3 100.68 87.58 98.21 86.48 97.92 84.67 98.67"/></clipPath></defs><g id="_1"><rect class="cls-4" width="436.21" height="252.1"/></g><g id="_2"><g><g><path class="cls-14" d="M142.73,168.71h39V87.05H52.58v81.67h39v10.29h6.41l-12.47,47.22-.03,.11v.12c0,1.27,1.03,2.3,2.3,2.3s2.23-.96,2.3-2.17l12.57-47.58h12.2v47.45c0,1.27,1.03,2.3,2.3,2.3s2.3-1.03,2.3-2.3v-47.45h12.2l12.57,47.58c.07,1.21,1.07,2.17,2.3,2.17s2.3-1.03,2.3-2.3v-.12l-12.5-47.34h6.41v-10.29Zm-88.36-1.78V88.83h125.58v78.1H54.36Zm33.98,59.3l-.03,.11v.12c0,.29-.23,.52-.52,.52-.26,0-.47-.19-.51-.43l12.55-47.54h.97l-12.47,47.22Zm29.33,.23c0,.29-.23,.52-.52,.52s-.52-.23-.52-.52v-47.45h1.04v47.45Zm29.36,.09c-.04,.24-.25,.43-.51,.43-.29,0-.52-.23-.52-.52v-.12l-12.5-47.34h.97l12.55,47.54Zm-6.08-49.32h-47.59v-8.51h47.59v8.51Z"/><g class="cls-22"><path class="cls-14" d="M166.77,151.69H72.46v-50.33c0-.49-.4-.89-.89-.89s-.89,.4-.89,.89v52.11h96.09c.49,0,.89-.4,.89-.89s-.4-.89-.89-.89Z"/><path class="cls-14" d="M79.73,146.05c.24,0,.49-.1,.66-.3l7.05-7.87,18.19,5.39,8.6-20.83,20.74-5.79,8.85-8.87-.4,1.05c-.17,.46,.06,.97,.52,1.15,.1,.04,.21,.06,.32,.06,.36,0,.7-.22,.83-.58l1.75-4.62c.15-.39,.05-.84-.25-1.13-.3-.29-.74-.39-1.13-.24l-4.69,1.81c-.46,.18-.69,.69-.51,1.15,.18,.46,.69,.69,1.15,.51l1.16-.45-8.53,8.55-21.12,5.89-8.32,20.14-17.73-5.26-7.8,8.71c-.33,.37-.3,.93,.07,1.26,.17,.15,.38,.23,.59,.23Z"/></g></g><path class="cls-14" d="M246.27,72.59v65.55h44.36V72.59h-44.36Zm42.58,63.77h-40.79v-61.99h40.79v61.99Z"/><g><path class="cls-14" d="M380.84,51.27h-80.87c-1.25,0-2.26,1.01-2.26,2.26V226.23c0,1.25,1.01,2.26,2.26,2.26h80.87c1.25,0,2.26-1.01,2.26-2.26V53.53c0-1.25-1.01-2.26-2.26-2.26Zm.48,174.96c0,.26-.22,.48-.48,.48h-80.87c-.26,0-.48-.22-.48-.48V53.53c0-.26,.22-.48,.48-.48h80.87c.26,0,.48,.22,.48,.48V226.23Z"/><path class="cls-14" d="M303.45,85.8h73.91v-28.96h-73.91v28.96Zm1.78-27.18h70.35v25.4h-70.35v-25.4Z"/><path class="cls-14" d="M303.45,117.81h73.91v-28.96h-73.91v28.96Zm1.78-27.18h70.35v25.4h-70.35v-25.4Z"/><path class="cls-14" d="M303.45,149.83h73.91v-28.96h-73.91v28.96Zm1.78-27.18h70.35v25.4h-70.35v-25.4Z"/><path class="cls-14" d="M303.45,181.84h73.91v-28.96h-73.91v28.96Zm1.78-27.18h70.35v25.4h-70.35v-25.4Z"/><path class="cls-14" d="M303.45,213.86h73.91v-28.96h-73.91v28.96Zm1.78-27.18h70.35v25.4h-70.35v-25.4Z"/><path class="cls-15" d="M344.36,68.7h-7.92c-.94,0-1.71,.77-1.71,1.71v1.81c0,.94,.77,1.71,1.71,1.71h7.92c.94,0,1.71-.77,1.71-1.71v-1.81c0-.94-.77-1.71-1.71-1.71Zm-.07,3.45h-7.78v-1.67h7.78v1.67Z"/><path class="cls-15" d="M344.36,101.71h-7.92c-.94,0-1.71,.77-1.71,1.71v1.81c0,.94,.77,1.71,1.71,1.71h7.92c.94,0,1.71-.77,1.71-1.71v-1.81c0-.94-.77-1.71-1.71-1.71Zm-.07,3.45h-7.78v-1.67h7.78v1.67Z"/><path class="cls-15" d="M344.36,132.73h-7.92c-.94,0-1.71,.77-1.71,1.71v1.81c0,.94,.77,1.71,1.71,1.71h7.92c.94,0,1.71-.77,1.71-1.71v-1.81c0-.94-.77-1.71-1.71-1.71Zm-.07,3.45h-7.78v-1.67h7.78v1.67Z"/><path class="cls-15" d="M344.36,164.75h-7.92c-.94,0-1.71,.77-1.71,1.71v1.81c0,.94,.77,1.71,1.71,1.71h7.92c.94,0,1.71-.77,1.71-1.71v-1.81c0-.94-.77-1.71-1.71-1.71Zm-.07,3.45h-7.78v-1.67h7.78v1.67Z"/><path class="cls-15" d="M344.36,196.76h-7.92c-.94,0-1.71,.77-1.71,1.71v1.81c0,.94,.77,1.71,1.71,1.71h7.92c.94,0,1.71-.77,1.71-1.71v-1.81c0-.94-.77-1.71-1.71-1.71Zm-.07,3.45h-7.78v-1.67h7.78v1.67Z"/></g><path class="cls-14" d="M392.15,226.34H44.06c-.49,0-.89,.56-.89,1.26s.4,1.26,.89,1.26H392.15c.49,0,.89-.56,.89-1.26s-.4-1.26-.89-1.26Z"/><g><path class="cls-14" d="M219.14,44.5c-8.66,0-15.71,7.05-15.71,15.71s7.05,15.71,15.71,15.71,15.71-7.05,15.71-15.71-7.05-15.71-15.71-15.71Zm0,29.63c-7.68,0-13.93-6.25-13.93-13.93s6.25-13.93,13.93-13.93,13.93,6.25,13.93,13.93-6.25,13.93-13.93,13.93Z"/><path class="cls-14" d="M224.18,57.55l-3.77,1.28,2.04-7.93c.12-.48-.16-.96-.64-1.08-.48-.12-.96,.16-1.08,.64l-2.31,8.95c-.11,.43,.02,.89,.35,1.19,.23,.21,.52,.32,.82,.32,.13,0,.26-.02,.39-.06l4.77-1.62c.47-.16,.72-.66,.56-1.13-.16-.47-.66-.71-1.13-.56Z"/><path class="cls-15" d="M219.14,47.29c-7.12,0-12.91,5.79-12.91,12.91s5.79,12.91,12.91,12.91,12.91-5.79,12.91-12.91-5.79-12.91-12.91-12.91Zm0,24.04c-6.14,0-11.13-4.99-11.13-11.13s4.99-11.13,11.13-11.13,11.13,4.99,11.13,11.13-4.99,11.13-11.13,11.13Z"/></g></g><g><g><path class="cls-5" d="M242.85,147.16h-11.04c-1.98,0-1.98,3.07,0,3.07h9.28c-.72,4.99-1.45,16.77-2.17,21.76-.28,1.93,2.68,2.77,2.96,.82,.82-5.64,1.64-18.07,2.45-23.7,.14-.97-.38-1.94-1.48-1.94Z"/><path class="cls-8" d="M246.27,143.82h-6.37c-.93,0-1.69,.76-1.69,1.69l-.47,6.37c0,.93,.76,1.69,1.69,1.69h5.74c.93,0,1.69-.76,1.69-1.69l1.09-6.37c0-.93-.76-1.69-1.69-1.69Z"/><path class="cls-5" d="M194.95,147.16h11.04c1.98,0,1.98,3.07,0,3.07h-9.28c.72,4.99,1.45,16.77,2.17,21.76,.28,1.93-2.68,2.77-2.96,.82-.82-5.64-1.64-18.07-2.45-23.7-.14-.97,.38-1.94,1.48-1.94Z"/><path class="cls-8" d="M191.53,143.82h6.37c.93,0,1.69,.76,1.69,1.69l.47,6.37c0,.93-.76,1.69-1.69,1.69h-5.74c-.93,0-1.69-.76-1.69-1.69l-1.09-6.37c0-.93,.76-1.69,1.69-1.69Z"/><path class="cls-8" d="M235.92,116.95h0c-12.58-1.83-21.57-1.83-34.14,0h0c-1.93,.28-3.3,2.02-3.11,3.96l3.22,48.67c.05,.86,.77,1.53,1.63,1.53h30.67c.86,0,1.57-.67,1.63-1.53l3.22-48.67c.19-1.94-1.18-3.68-3.11-3.96Z"/><rect class="cls-3" x="216.7" y="195.05" width="4.4" height="17.06"/><path class="cls-8" d="M218.88,187.46c-1.78,0-3.49-.18-5.05-.51l.18,11.28c0,.46,.34,.84,.8,.92,1.28,.21,2.65,.32,4.07,.32s2.81-.12,4.1-.33c.45-.07,.79-.46,.8-.92l.18-11.28c-1.57,.33-3.28,.51-5.08,.51Z"/><path class="cls-5" d="M228.3,184.07c-.01-.26-.24-.46-.5-.44-2.59,.22-5.65,.35-8.92,.35s-6.3-.13-8.88-.35c-.26-.02-.49,.18-.5,.44-.01,.27,0,2.6,.04,3.06,.02,.22,.2,.4,.42,.41,2.59,.22,5.65,.35,8.92,.35s6.37-.13,8.97-.36c.22-.02,.4-.19,.42-.41,.04-.46,.05-2.78,.04-3.06Z"/><path class="cls-5" d="M239.21,176.08c-.03-.57-.52-1-1.08-.95-5.6,.48-12.2,.76-19.28,.76s-13.61-.28-19.19-.75c-.57-.05-1.05,.38-1.08,.95-.03,.59,0,5.61,.09,6.6,.04,.48,.42,.85,.9,.9,5.6,.48,12.2,.76,19.28,.76s13.76-.28,19.37-.77c.48-.04,.86-.42,.9-.9,.09-.98,.11-6.01,.08-6.6Z"/><path class="cls-8" d="M244.22,171.32c-.03-.62-.56-1.08-1.17-1.03-6.07,.52-16.53,.82-24.2,.82s-18.06-.3-24.1-.81c-.61-.05-1.14,.42-1.17,1.03-.03,.64,0,6.09,.09,7.15,.05,.52,.46,.93,.98,.97,6.07,.52,16.53,.82,24.2,.82s18.22-.31,24.31-.84c.52-.05,.93-.45,.98-.97,.09-1.07,.12-6.51,.09-7.15Z"/><polygon class="cls-8" points="222.16 210.24 215.63 210.24 215.63 210.24 198.5 216.01 198.5 223.02 200 223.02 200.86 219.48 208.89 218.26 208.89 223.02 210.3 223.02 211.01 219.32 215.61 217.02 215.63 217.02 222.16 217.02 226.77 219.32 227.48 223.02 228.9 223.02 228.9 218.26 236.93 219.48 237.8 223.02 239.3 223.02 239.3 216.01 222.16 210.24"/><g><rect class="cls-5" x="237.28" y="221.42" width="1.83" height="5.38"/><path class="cls-8" d="M237.21,220.88c-.73,0-1.32,.59-1.32,1.32v3.82c0,.73,.59,1.32,1.32,1.32h.66v-6.46h-.66Z"/><path class="cls-8" d="M239.18,227.33c.73,0,1.32-.59,1.32-1.32v-3.82c0-.73-.59-1.32-1.32-1.32h-.66v6.46h.66Z"/></g><g><rect class="cls-5" x="227.12" y="221.42" width="1.83" height="5.38"/><path class="cls-8" d="M227.05,220.88c-.73,0-1.32,.59-1.32,1.32v3.82c0,.73,.59,1.32,1.32,1.32h.66v-6.46h-.66Z"/><path class="cls-8" d="M229.02,227.33c.73,0,1.32-.59,1.32-1.32v-3.82c0-.73-.59-1.32-1.32-1.32h-.66v6.46h.66Z"/></g><g><rect class="cls-5" x="208.83" y="221.42" width="1.83" height="5.38"/><path class="cls-8" d="M208.76,220.88c-.73,0-1.32,.59-1.32,1.32v3.82c0,.73,.59,1.32,1.32,1.32h.66v-6.46h-.66Z"/><path class="cls-8" d="M210.73,227.33c.73,0,1.32-.59,1.32-1.32v-3.82c0-.73-.59-1.32-1.32-1.32h-.66v6.46h.66Z"/></g><g><rect class="cls-5" x="198.67" y="221.42" width="1.83" height="5.38"/><path class="cls-8" d="M198.6,220.88c-.73,0-1.32,.59-1.32,1.32v3.82c0,.73,.59,1.32,1.32,1.32h.66v-6.46h-.66Z"/><path class="cls-8" d="M200.57,227.33c.73,0,1.32-.59,1.32-1.32v-3.82c0-.73-.59-1.32-1.32-1.32h-.66v6.46h.66Z"/></g></g><g><polygon class="cls-9" points="215.08 120.13 223.45 120.13 219.26 125.39 215.08 120.13"/><g><path class="cls-2" d="M223.21,124.03c-1.38,.13-2.75,.25-4.13,.38-1.38-.08-2.74-.16-4.13-.23,.59-1.62,.89-3.31,.87-4.99,0-.11,0-.22,0-.33,0-.12,0-.25-.01-.37-.03-.57-.09-1.13-.19-1.69,1.24,.14,2.2,.28,3.4,.28,1.2-.04,2.17-.21,3.39-.39-.14,.9-.19,1.82-.16,2.73,0,.09,.01,.19,.02,.28,.01,.22,.03,.44,.06,.66,0,.1,.02,.2,.04,.3,.14,1.15,.42,2.29,.85,3.38Z"/><path class="cls-6" d="M222.32,120.35c0,.1,.02,.2,.04,.3-3.27,0-5.58-.98-6.54-1.47,0-.11,0-.22,0-.33,0-.12,0-.25-.01-.37-.03-.57-.09-1.13-.19-1.69,1.24,.14,2.2,.28,3.4,.28,1.2-.04,2.17-.21,3.39-.39-.14,.9-.19,1.82-.16,2.73,0,.09,.01,.19,.02,.28,.01,.22,.03,.44,.06,.66Z"/><path class="cls-2" d="M223.57,115.02c-.13,1.08-.35,2.2-1.06,3.08-.09,.12-.23,.24-.39,.36-1.66,1.27-4.14,1.3-5.84,.08-.16-.12-.3-.23-.4-.35-.73-.86-.98-1.97-1.14-3.05-.32-2.16-.68-7.6-.4-9.77,1.31-.71,3.22-1.22,4.76-1.36,1.54,.1,3.47,.57,4.8,1.24,.34,2.16-.08,7.6-.34,9.77Z"/><path class="cls-10" d="M217.95,111.37c0,.33-.19,.6-.43,.6-.24,0-.43-.27-.43-.6,0-.33,.19-.6,.43-.6,.24,0,.43,.27,.43,.6Z"/><path class="cls-10" d="M222.02,111.38c0,.33-.19,.6-.43,.6-.24,0-.43-.27-.43-.6,0-.33,.19-.6,.43-.6,.24,0,.43,.27,.43,.6Z"/><path class="cls-12" d="M222.19,109.63c-.7-.03-1.36,.09-2.01,.32-.42,.15-.05,.66,.37,.51,.52-.19,1.08-.26,1.64-.24,.46,.02,.45-.57,0-.59Z"/><path class="cls-12" d="M216.28,109.63c.7-.03,1.36,.09,2.01,.32,.42,.15,.05,.66-.37,.51-.52-.19-1.08-.26-1.64-.24-.46,.02-.45-.57,0-.59Z"/><path class="cls-2" d="M214.81,112.21c-.04-.17-.08-.34-.18-.5-.1-.15-.29-.29-.5-.31-.19-.02-.37,.05-.49,.17-.12,.11-.18,.26-.22,.41-.14,.55,.03,1.13,.21,1.69,.09,.28,.2,.58,.42,.82,.23,.24,.61,.41,.95,.34-.15-.87,0-1.74-.19-2.61Z"/><path class="cls-12" d="M224.24,111.4l-.49,.31c-.15-.92-.22-2.11-.25-2.78h0l-.51-.97c-.2-.4-.14-1.39,.18-1.71l.47-.48c-1.97,.38-4.45,.4-4.45,.4,0,0-2.48-.02-4.45-.4l.46,.48c.32,.32,.39,1.31,.17,1.71l-.5,.97c-.03,.67-.1,1.86-.25,2.78l-.49-.31s-.51-4.15,0-5.95c0,0,.1-.15,.31-.38,.1-.1,.2-.2,.3-.3,.01-.01,.02-.02,.04-.03,.1-.1,.21-.19,.32-.28,0,0,1.34-1.53,3.36-1.69,.13-.01,.22,.12,.18,.24,.87-.05,2.01-.02,3.29,.27,.6,.24,1.17,.58,1.67,1.01,.13,.11,.26,.27,.21,.43-.01,.05-.06,.1-.11,.13,.38,.35,.55,.61,.55,.61,.52,1.8,0,5.95,0,5.95Z"/><path class="cls-2" d="M223.54,112.2c.04-.17,.08-.34,.18-.5,.1-.15,.29-.29,.5-.31,.19-.02,.37,.05,.49,.17,.12,.11,.18,.26,.22,.41,.14,.55-.03,1.13-.21,1.69-.09,.28-.2,.58-.42,.82-.23,.24-.61,.41-.95,.34,.15-.87,0-1.74,.19-2.61Z"/><path class="cls-6" d="M219.88,113.53s-.01,.11-.12,.2c-.11,.09-.31,.18-.54,.18-.49,0-.73-.34-.66-.38,.06-.06,.33,.09,.66,.08,.33,0,.61-.16,.67-.08Z"/><path class="cls-10" d="M220.37,116.6s-.03,.02-.05,.02c-.23,.09-.5,.01-.75-.05-.11-.03-.24-.05-.36-.05s-.25,.02-.36,.05c-.23,.05-.48,.12-.7,.06-.03,0-.07-.02-.1-.04-.25-.12-.36-.45-.3-.72,.06-.26,.25-.47,.47-.61,.01,0,.02-.02,.04-.03,0,0,0,0,0,0,.57-.35,1.3-.35,1.88,0h0s.03,.02,.04,.03c.22,.15,.41,.35,.47,.61,.06,.27-.05,.6-.3,.72Z"/><path class="cls-4" d="M220.2,115.27c-.26,.13-.6,.21-.98,.21s-.72-.08-.98-.21c.01,0,.02-.02,.04-.03,0,0,0,0,0,0,.57-.35,1.3-.35,1.88,0h0s.03,.02,.04,.03Z"/><path class="cls-4" d="M220.32,116.62c-.23,.09-.5,.01-.75-.05-.11-.03-.24-.05-.36-.05s-.25,.02-.36,.05c-.23,.05-.48,.12-.7,.06,.16-.27,.59-.47,1.09-.47s.92,.19,1.08,.45Z"/></g><g><path class="cls-10" d="M230.44,212.85c-1.34,4.62-.42,9.77,2.03,13.93,.32,.54-.05,1.22-.67,1.26-1.22,.09-2.51,.18-3.64,.27-1,.08-2.72-.18-3.53-.77-.85-.61-1.13-1.73-1.27-2.77-.53-3.94,.81-7.71,2.62-11.24,1.39-.05,3.08-.63,4.47-.68Z"/><path class="cls-10" d="M208.88,212.85c1.34,4.62,.42,9.77-2.03,13.93-.32,.54,.05,1.22,.67,1.26,1.22,.09,2.51,.18,3.64,.27,1,.08,2.72-.18,3.53-.77,.85-.61,1.13-1.73,1.27-2.77,.53-3.94-.81-7.71-2.62-11.24-1.39-.05-3.08-.63-4.47-.68Z"/><path class="cls-18" d="M227.05,173.93l-7.79,.11-7.79-.11c-3.58-.05-6.29-3.26-5.74-6.8l.11-5.51,13.42-1.36,13.42,1.36,.11,5.51c.54,3.54-2.17,6.74-5.74,6.8Z"/><path class="cls-20" d="M232.12,162.5h0c-3.04,0-6.54,2.44-6.91,5.7l-2.41,45.71c3.78,2.88,8.75,0,8.75,0l7.41-43.71c.71-3.99-3.07-7.7-6.85-7.7Z"/><path class="cls-20" d="M206.61,162.5h0c3.04,0,6.54,2.44,6.91,5.7l2.41,45.71c-3.78,2.88-8.75,0-8.75,0l-7.41-43.71c-.71-3.99,3.07-7.7,6.85-7.7Z"/></g><path class="cls-13" d="M246.14,150.71c-.29,1.53-1.1,2.85-2.23,3.79-1.13,.94-2.57,1.49-4.13,1.5l-7.09,.03s0,0,0,0c.25,3.48,0,5.6,0,5.6l-1.44,.24c-7.54,1.28-16.42,1.28-23.96,0l-1.43-.24s-.25-2.16,0-5.71c-.04,.25-.07,.39-.07,.39l-7.09-.03c-1.56,0-3-.56-4.13-1.5s-1.94-2.26-2.23-3.79c-.26-1.37-.07-2.78,.53-4.03,0,0,5.61-10.37,9.02-17.47,1.64-3.42,4.82-5.84,8.55-6.53l8.84-1.79,8.91,1.8c3.72,.68,6.89,3.1,8.53,6.5l8.9,17.22c.61,1.25,.79,2.66,.53,4.03Z"/><path class="cls-2" d="M215.52,121.84l3.75,3.55,3.34-3.62s-3.07-2.38-7.09,.07Z"/><g><path class="cls-9" d="M238.17,146.55c-1.52-.11-2.97,.18-4.34,.85-.26,.12-.03,.51,.22,.38,1.3-.63,2.68-.88,4.12-.78,.29,.02,.28-.43,0-.45Z"/><path class="cls-9" d="M204.7,147.4c-1.37-.66-2.82-.95-4.34-.85-.28,.02-.29,.47,0,.45,1.44-.1,2.82,.16,4.12,.78,.26,.12,.48-.26,.22-.38Z"/></g><polygon class="cls-12" points="221.53 134.97 217 134.97 218.6 128.53 217.38 125.77 219.27 125.39 221.15 125.77 219.93 128.53 221.53 134.97"/><polygon class="cls-16" points="215.08 120.13 213.88 122.14 217.44 127.93 219.26 125.39 215.08 120.13"/><polygon class="cls-16" points="223.45 120.13 224.65 122.14 221.09 127.93 219.26 125.39 223.45 120.13"/><g><path class="cls-7" d="M220.28,84.65h-1.9c-.15,.01-.27,.14-.27,.29l.32,10.28c0,.15,.12,.26,.27,.26h1.4c.15-.01,.26-.13,.27-.27l.18-10.29c0-.15-.12-.27-.27-.27Z"/><path class="cls-7" d="M219.41,96.15c-.58,0-1.04,.48-1.04,1.05,0,.58,.48,1.04,1.05,1.04,.58,0,1.04-.48,1.04-1.05s-.48-1.04-1.05-1.04Z"/><path class="cls-7" d="M226.73,88.99l-1.86-.37c-.15-.03-.29,.07-.32,.22l-1.23,7.4c-.03,.14,.07,.28,.21,.31l1.37,.28c.14,.03,.28-.06,.31-.2l1.73-7.3c.03-.15-.06-.29-.21-.32Z"/><path class="cls-7" d="M224.08,97.33c-.57-.11-1.12,.25-1.23,.82-.11,.57,.25,1.12,.82,1.23,.57,.11,1.12-.25,1.23-.82,.11-.57-.25-1.12-.82-1.23Z"/><path class="cls-7" d="M215.47,96.4l-1.73-8.2c-.03-.15-.18-.24-.32-.2l-1.85,.45c-.15,.04-.23,.18-.19,.33l2.22,8.08c.04,.14,.18,.22,.32,.19l1.36-.33c.14-.03,.23-.18,.2-.32Z"/><path class="cls-7" d="M214.76,97.54c-.56,.14-.9,.7-.76,1.26,.14,.56,.7,.9,1.26,.76,.56-.14,.9-.7,.76-1.26s-.7-.9-1.26-.76Z"/></g></g></g><g><path class="cls-10" d="M159.94,86.42c-.2-1.71-.49-3.41-2.07-3.69,0,0-.68-2.08-3.82-2.81-.1-.02-.18,.09-.13,.17l.21,.35c-1.02-.21-2.07-.22-3,0-2.31,.54-4.28,2.51-5.02,4.91-.69,2.25-.07,5.14,1.16,7.16-.33,0-.65,.05-.96,.17-.36,.14-.69,.36-.97,.64-.1,.1,0,.26,.13,.22,.27-.08,.55-.11,.83-.1-1.36,.86-2.43,2.58-2.39,4.15,.06,2.03,1.45,3.85,3.22,4.54,1.39,.54,3.03,.42,4.27-.47,1.24-.89,2-2.56,1.72-4.12,2.5-1.25,4.17-3,5.57-5.55,.82-1.49,1.44-3.88,1.23-5.59Z"/><polygon class="cls-12" points="155.9 98.03 148.98 97.32 155.87 103.32 155.9 98.03"/><g><path class="cls-2" d="M156.43,101.52c-1.2,.61-2.61,.81-3.93,.56-1.33-.26-2.38-1-3.26-2.01,.27-.92,.5-1.85,.68-2.79,.04-.22,.08-.43,.12-.65v-.02c.04-.25,.08-.5,.12-.76,.15-1.13,.16-1.73,.19-2.87,0-.07,0-.14,0-.2,0-.3,0-.6,0-.9l4.39,.05h.54c-.04,.51-.07,1.01-.08,1.48-.03,1.47,.07,2.8,.23,3.94,.27,1.92,.69,3.3,.89,3.88,0,0,0,.02,0,.03,.02,.07,.05,.12,.06,.17,.02,.07,.04,.11,.04,.11Z"/><path class="cls-17" d="M155.49,97.78c-4.08-1.63-4.53-4.6-4.73-4.99l4.43,.62c-.03,1.47,.14,3.24,.3,4.38Z"/><path class="cls-2" d="M157.3,95.5c-1.13,.89-3.26,.5-4.48-.28-1.21-.77-1.83-1.73-2.32-3.09-.03-.08-.06-.16-.08-.24,.03-.17,.06-.33,.07-.51,.04-.46,.04-.93,.05-1.39,0-.77,.05-1.56,.4-2.25,.42-.84,1.23-1.42,2.12-1.76,1.61-.42,3.49-.64,4.29-.72,.26,.33,.38,1.13,.44,1.66v.31s0,0,0,0c0,.06,0,.11,0,.17,0,.2,0,.41,.02,.61,.11,1.32,.49,2.62,.55,3.95,.06,1.32-.02,2.71-1.06,3.53Z"/><path class="cls-2" d="M150.65,89.62c0-.28-.06-.61-.31-.74-.24-.13-.55,0-.76,.18-.54,.47-.75,1.28-.49,1.95,.25,.67,.95,1.14,1.66,1.12,0-.82-.1-1.69-.11-2.51Z"/><path class="cls-17" d="M157.04,90.34c-.15,.17-.32,.3-.53,.37-.16,.06-.09,.31,.07,.25,.25-.09,.47-.24,.65-.44,.11-.13-.07-.32-.19-.19Z"/><path class="cls-10" d="M155.29,88.82c.02,.29-.09,.54-.26,.55-.17,.01-.32-.21-.34-.51-.02-.29,.09-.54,.26-.55,.17-.01,.32,.21,.34,.51Z"/><path class="cls-10" d="M157.77,88.65c0,.29-.12,.54-.29,.54-.17,0-.31-.23-.32-.53,0-.29,.12-.54,.29-.54,.17,0,.31,.23,.32,.53Z"/><path class="cls-4" d="M149.31,92.17c-.1,.38,.13,.77,.51,.87,.38,.1,.77-.13,.87-.51,.1-.38-.13-.77-.51-.87-.38-.1-.77,.13-.87,.51Z"/><path class="cls-10" d="M158.01,87.73c-.44-.03-.84,.14-1.11,.48-.15,.18-.42-.07-.27-.25,.33-.4,.84-.63,1.36-.6,.23,.01,.25,.38,.02,.36h0Z"/><path class="cls-10" d="M155.56,88.01c-.45-.31-1.04-.41-1.58-.26-.24,.07-.17,.43,.07,.36,.45-.13,.91-.06,1.29,.2,.2,.14,.42-.16,.22-.3Z"/><path class="cls-10" d="M157.43,93.02c-.06,.02-.12,.02-.18,.01-.11-.02-.23-.07-.34-.07-.32-.03-.64,.24-.94,.13-.17-.07-.27-.24-.27-.42,0-.07,.01-.13,.03-.18,.05-.12,.14-.22,.26-.29,.11-.08,.25-.14,.37-.19,.26-.12,.59-.14,.86,0,.07,.04,.13,.08,.18,.14,.11,.11,.2,.26,.23,.42,.03,.18-.02,.41-.2,.48Z"/><path class="cls-17" d="M157.24,93.04c-.11-.02-.23-.07-.34-.07-.32-.03-.64,.24-.94,.13-.17-.07-.27-.24-.27-.42,0-.07,.01-.13,.03-.18,.55,0,1.1,.19,1.51,.55Z"/><path class="cls-4" d="M157.4,92.13c-.44,.2-.96,.23-1.41,.06,.11-.08,.25-.14,.37-.19,.26-.12,.59-.14,.86,0,.07,.04,.13,.08,.18,.14Z"/><path class="cls-10" d="M150.58,89.17l.25,1.46s-.28-2.36,.96-3.92c0,0-2.22-1.37-1.21,2.46Z"/></g><g><path class="cls-2" d="M168.66,216.44l.88,7.17,.34,2.76c.06,.52,.5,.91,1.02,.93l12.49,.41c.75,.03,1.09-.92,.51-1.4-.44-.36-.95-.64-1.49-.88-1.12-.49-2.32-.77-3.45-1.24-.35-.15-.69-.32-1.03-.51-2.99-1.7-5.07-4.97-5.28-8.41-1.24,.72-2.55,1.12-3.99,1.18Z"/><path class="cls-19" d="M169.54,223.61l.34,2.76c.06,.52,.5,.91,1.02,.93l12.49,.41c.75,.03,1.09-.92,.51-1.4-.44-.36-.95-.64-1.49-.88-1.12-.49-2.32-.77-3.45-1.24-.35-.15-.69-.32-1.03-.51-.25,.27-.56,.49-.9,.66-.76,.36-1.62,.45-2.47,.44-1.73-.02-3.46-.43-5.02-1.17Z"/><path class="cls-2" d="M140.62,227.32c-.35,.39-.92,.47-1.44,.51-1.08,.07-2.17,.06-3.24-.05-.8-.08-1.66-.24-2.2-.82-.87-.92-.57-2.39-.22-3.61,.15-.52,.31-1.05,.45-1.57,.9-3.11,1.81-6.23,2.71-9.35,.91,.52,2.32,1.35,3.23,1.87-1.23,2.66-1.37,5.79-.44,8.56,.21,.62,.47,1.22,.78,1.8,.46,.84,1.01,1.95,.37,2.66Z"/><path class="cls-19" d="M140.62,227.32c-.35,.39-.92,.47-1.44,.51-1.08,.07-2.17,.06-3.24-.05-.8-.08-1.66-.24-2.2-.82-.87-.92-.57-2.39-.22-3.61,.15-.52,.31-1.05,.45-1.57,.26,.65,.72,1.22,1.3,1.59,.96,.61,2.24,.68,3.26,.19,.35-.17,.67-.41,.93-.69,.21,.62,.47,1.22,.78,1.8,.46,.84,1.01,1.95,.37,2.66Z"/><path class="cls-8" d="M174.79,217.41c-.18,.11-.37,.2-.56,.28-3.01,1.3-7.12,.05-7.12,.05l-11.89-63.79-13.72,63.84s-5.58,1.08-7.22-1.91l6.05-62.89h0c.22-2.09,.82-6.74,2.19-11.31,.37-1.23,.8-2.45,1.28-3.62,.84-2.01,2.24-3.46,3.49-4.88,.08-.09,.17-.19,.26-.28,.12-.14,.26-.27,.39-.39,.57-.55,1.18-1,1.84-1.35,0,0,8.68,1.3,13.47-.41,0,.01,0,.02,.01,.03,.44,1.44,.87,2.94,1.29,4.47,.04,.16,.09,.32,.13,.47,0,.02,.01,.05,.02,.07,5.99,24.53,10.1,81.62,10.1,81.62Z"/><g><path class="cls-5" d="M157.66,142.99c-.15-.03-.3,.06-.34,.21l-2.39,10.68c-.03,.15,.06,.3,.21,.34,.02,0,.04,0,.06,0,.13,0,.25-.09,.28-.22l2.39-10.68c.03-.15-.06-.3-.21-.34Z"/><path class="cls-5" d="M150.91,138.29c-.15-.05-.31,.03-.36,.17-1.75,5.1-5.12,6.35-6.3,6.64,1.06-3.28,2.27-5.97,3.61-8.01,.09-.13,.05-.31-.08-.39-.13-.09-.3-.05-.39,.08-1.43,2.17-2.72,5.07-3.82,8.6l-.03,.1c-.85,2.73-1.44,5.6-1.74,8.52l-6.21,59.02c-.02,.15,.1,.29,.25,.31,.01,0,.02,0,.03,0,.14,0,.26-.11,.28-.25l6.21-59.02c.3-2.86,.87-5.66,1.7-8.34,1-.17,5.01-1.19,7.03-7.07,.05-.15-.03-.31-.18-.36Z"/></g><path class="cls-19" d="M164.54,135.25c-8,4.73-16.99-2.34-16.99-2.34,.12-.14,.26-.27,.39-.39,.57-.55,1.18-1,1.84-1.35,0,0,8.68,1.3,13.47-.41,0,.01,0,.02,.01,.03,.44,1.44,.87,2.94,1.29,4.47Z"/></g><g><path class="cls-2" d="M190.15,107.76c-1.4-.03-3.7,.23-5.1,.19l1.17-.85c.13-.12,.15-.32,.04-.47-.1-.14-.29-.2-.45-.12-.5,.22-1.84,.74-2.36,1.29,0,0-.01,0-.02,.02,0,0-.01,.01-.02,.02-.25,.22-.46,.5-.62,.81-.27,.52-.68,.94-1.19,1.23l-11.94,6.87-4.46-9.42-5.15,6.89,5.05,8.59c1.25,1.68,3.65,1.97,5.26,.64l13.44-11.85c.51,.2,1.1,.26,1.59,.18,.19-.03,.38-.08,.56-.12,1.71-.34,2.69-1.06,2.67-1.17,0-.02,0-.03,0-.03,.89,.05,.77-.8,.77-.8,.77-.14,.47-.81,.47-.81,.7-.41,.27-1.06,.27-1.06Z"/><path class="cls-7" d="M160.46,100.62l1.06,.41c.98,.38,2,1.23,2.22,2.26l3.67,8.19s-3.25,4.1-7.72,3.16l.77-14.01Z"/><path class="cls-2" d="M145.3,133.3c-.29,.67-.6,1.32-.96,1.95-.06-.01-.12-.03-.19-.04-.34-.08-3.42-3.41-6.63-6.78h0s-7.5-7.24-7.5-7.24l-.17-.16c-1.28-1.31-1.19-3.88-.1-5.53,1.31-1.98,6.84-8.2,8.54-10.2,.56,1.42,3.54,4.28,5.58,5.79-2.52,2.4-7.66,7.13-7.66,7.13,1.67,1.36,6.87,13.33,9.08,15.08Z"/><path class="cls-7" d="M164.1,112.42c-.6,2.99-.82,6.04-.67,9.09l.35,11.01c-3.47,6.9-16.22,.39-16.22,.39,.13-5.99-1.74-16.29-2.95-21.94l-4.96,4.55c-3.76-.8-5.37-5.83-5.37-5.83l6.2-7.07h0c.18-.16,.35-.3,.52-.44,1.19-.99,2.56-1.74,4.03-2.22l4.41-1.44,5.96,.44,5.06,1.67,3.33,8.38c.28,.71,.42,1.46,.42,2.22,0,.4-.04,.8-.12,1.19Z"/><path class="cls-2" d="M149.44,98.51l6.43,4.81,.03-4.21s-3.04-1.92-6.46-.6Z"/><path class="cls-2" d="M150.9,136.01c-.02,.1-.09,.18-.18,.21-.09,.03-.2,0-.26-.08-.06,.11-.18,.26-.27,.34-.09,.09-.2,.14-.32,.14-.15-.01-.27-.13-.37-.23-.39-.39-.78-.79-1.17-1.18-1.93,2.94-4.96-.57-4.96-.57,.09-.16,.67-.56,.66-.71,.79-.85,1.83-1.45,2.96-1.71,.67-.15,1.39-.17,2.03,.08,.99,.39,1.63,1.35,2.1,2.3,.07,.14,.13,.33,.02,.44-.14,.14-.37-.02-.5-.16-.32-.35-.64-.69-.96-1.03,.41,.59,.76,1.21,1.12,1.83,.06,.1,.12,.22,.1,.33Z"/><polygon class="cls-12" points="155.87 103.32 154.45 105.96 148.02 98.98 148.98 97.32 155.87 103.32"/><polygon class="cls-12" points="155.87 103.32 155.9 98.03 156.71 99.38 157.59 105.44 155.87 103.32"/><path class="cls-12" d="M163.83,114.18s-.03,0-.04,0c-.15-.02-.26-.16-.24-.32l.25-1.73c.08-.56,0-1.14-.22-1.66l-2.34-5.49c-.06-.14,0-.31,.15-.37,.14-.06,.31,0,.37,.15l2.34,5.49c.26,.62,.35,1.29,.26,1.96l-.25,1.73c-.02,.14-.14,.24-.28,.24Z"/></g><g><path class="cls-7" d="M164.47,73.31c-1.37,1.49-2.74,2.98-4.11,4.47-.6,.65,.34,1.66,.93,1.01,1.37-1.49,2.74-2.98,4.11-4.47,.6-.65-.34-1.66-.93-1.01Z"/><path class="cls-7" d="M168.32,77.87c-1.83,.86-3.67,1.71-5.5,2.57-.8,.37-.32,1.66,.48,1.29,1.83-.86,3.67-1.71,5.5-2.57,.8-.37,.32-1.66-.48-1.29Z"/><path class="cls-7" d="M144.5,78.47c-1.61-1.23-3.22-2.45-4.83-3.68-.7-.53-1.44,.62-.74,1.16,1.61,1.23,3.22,2.45,4.83,3.68,.7,.53,1.44-.62,.74-1.16Z"/><path class="cls-7" d="M142.55,81.52c-1.96-.52-3.91-1.04-5.87-1.56-.85-.23-1.1,1.13-.25,1.35,1.96,.52,3.91,1.04,5.87,1.56,.85,.23,1.1-1.13,.25-1.35Z"/></g></g><g><path class="cls-10" d="M266.66,106.86c.44,1.33,1.57,2.28,2.36,3.44,2.19,3.22,1.5,7.71,3.46,11.09,1.13,1.94,3.05,3.32,5.12,4.2,.22,.1,2.44,.08,3.31-.12,3.14-.73,6.11-2.2,8.59-4.26,.39-.33,.78-.67,1.14-1.03,.67-.97,1.11-2.14,1.26-3.28,.24-1.8-.54-3.78-1.7-5.18,1.5,1.59,2.38,3.74,2.49,5.92,.47-.76,.85-1.57,1.11-2.43,.72-2.39,.35-5.2-1.36-7.03-1.65-1.78-4.21-2.37-6.14-3.86-.56-.43-1.05-.92-1.51-1.46,.42,.25,.8,.41,1.09,.5,.45,.12,.7,.12,.74,.03,.04-.1-.14-.28-.47-.53-.32-.28-.77-.64-1.28-1.18-.51-.53-1.07-1.21-1.71-1.99-.65-.78-1.39-1.66-2.38-2.45-.26-.19-.5-.38-.78-.54-.14-.08-.27-.17-.41-.23-.14-.07-.28-.13-.42-.2-.57-.25-1.17-.38-1.73-.44-.56-.05-1.1-.02-1.59,.06-.49,.09-.93,.23-1.31,.4-.57,.25-1,.56-1.31,.84,0,0,0,0-.01,.01-.01,0-.03,.02-.04,.03-1.08,.81-1.94,1.83-2.66,2.98-1.18,.71-2.4,1.63-3.16,2.77-.76,1.14-1.12,2.62-.69,3.93Z"/><polygon class="cls-8" points="274.39 113.4 279.64 110.82 275.91 117.65 274.39 113.4"/><g><path class="cls-2" d="M275.11,108.27c0,.68-.02,1.35-.07,1.99-.07,1.08-.19,2.06-.31,2.84-.16,1.07-.32,1.77-.34,1.86,0,0,0,.01,0,.01-.1,.84-.22,1.59-.35,1.97,1.15,.58,2.05,.53,3.28,.3,1.24-.23,2.22-.9,3.01-1.83-.29-.85-1.3-6.01-1.35-7.06,0-.07,0-.13,0-.19-.02-.3-.08-.59-.02-.9h0c-.07-.38-.08-.76-.06-1.15-1.19,.83-2.46,1.56-3.79,2.17Z"/><path class="cls-6" d="M275.05,110.26c-.07,1.08-.19,2.06-.31,2.84,2.66-1.25,3.7-4.55,3.7-4.55l-3.39,1.71Z"/><path class="cls-2" d="M272,111.44c1.15,.85,3.26,.4,4.44-.4,1.18-.8,1.77-1.77,2.22-3.13,.02-.08,.05-.16,.07-.24-.04-.17-.07-.33-.09-.5-.06-.45-.07-.92-.08-1.38-.03-.76-.1-1.55-.45-2.23-.44-.83-1.26-1.38-2.16-1.69-1.75-.41-3.8-.57-4.46-.61-.11,0-.21,.08-.21,.2v1.79s0,0,0,0c.01,.26,.01,.52,0,.77-.07,1.32-.41,2.62-.44,3.94-.02,1.32,.09,2.69,1.15,3.48Z"/><path class="cls-2" d="M278.44,105.41c0-.28,.04-.61,.28-.74,.24-.14,.55-.01,.76,.16,.55,.45,.78,1.25,.54,1.92-.23,.67-.91,1.16-1.62,1.16-.03-.81,.06-1.69,.04-2.5Z"/><path class="cls-17" d="M272.28,106.4c.12,.2,.29,.35,.48,.46,.18,.11,0,.38-.17,.27-.25-.15-.45-.34-.6-.59-.11-.18,.18-.33,.29-.15Z"/><path class="cls-10" d="M271.2,105.19c0,.3,.13,.54,.28,.54,.16,0,.28-.24,.28-.54,0-.3-.13-.54-.28-.54-.16,0-.28,.24-.28,.54Z"/><path class="cls-10" d="M273.65,105.24c0,.3,.13,.54,.28,.54,.16,0,.28-.24,.28-.54,0-.3-.13-.54-.28-.54-.16,0-.28,.24-.28,.54Z"/><path class="cls-19" d="M273.28,104.24c.24-.17,.5-.34,.8-.42,.29-.07,.58-.05,.88-.02,.26,.02,.17,.42-.09,.4-.25-.02-.5-.04-.74,.03-.23,.07-.43,.22-.63,.35-.22,.15-.43-.2-.22-.35Z"/><path class="cls-19" d="M272.15,104.2c-.24-.18-.5-.35-.79-.43-.29-.08-.58-.06-.88-.04-.26,.02-.18,.42,.08,.4,.25-.02,.5-.03,.74,.05,.23,.08,.43,.22,.63,.36,.21,.16,.43-.19,.22-.34Z"/><path class="cls-4" d="M279.24,108.57c.07,.31,.29,.53,.51,.49,.22-.05,.34-.34,.27-.65-.07-.31-.44-1.21-.65-1.17-.22,.05-.2,1.02-.13,1.33Z"/><g><path class="cls-10" d="M273.41,109.36c-.26,.08-.54-.11-.82-.08-.16,.01-.31,.1-.46,.12-.04,0-.07,0-.11,0-.6-.08-.37-.77-.03-1.13,.09-.1,.19-.17,.28-.2,.24-.09,.58-.05,.87,.08,0,0,0,0,0,0,.28,.13,.51,.34,.57,.58h0c.06,.25-.07,.55-.31,.63Z"/><path class="cls-4" d="M273.15,108.15c-.19,.11-.41,.18-.62,.19-.18,0-.36-.02-.52-.07,.09-.1,.19-.17,.28-.2,.24-.09,.58-.05,.87,.08Z"/><path class="cls-6" d="M273.41,109.36c-.26,.08-.54-.11-.82-.08-.16,.01-.31,.1-.46,.12,.2-.26,.48-.47,.8-.58,.25-.09,.53-.11,.79-.08,.06,.25-.07,.55-.31,.62Z"/></g></g><g><path class="cls-10" d="M301.98,226.73c.07,.61,.84,.82,1.45,.89,.5,.05,1,.1,1.51,.13,.04,0,.07,0,.1,0,.04,0,.07,0,.11,0,1.71,.09,2.9-.1,3.72-.41,1.55-.58,1.79-1.62,1.81-2.14,0-.03,0-.07,0-.11,0-.05,0-.09,0-.13-.02-.99-.17-2.19-.31-2.76-.91-3.6-1.82-7.2-2.74-10.81-1.06,.39-2.53,.98-3.66,.9,2.08,4.27,1.47,9.71-1.52,13.41-.24,.29-.51,.63-.47,1.01Z"/><path class="cls-10" d="M273.12,217.17c-1.02-.07-2.23,.36-3.15-.09-.84,3.67-7.41,8.05-11.08,8.87-.49,.11-1.08,.27-1.17,.77-.05,.27,.07,.54,.28,.72,.35,.3,.82,.34,1.26,.37,3.65,.21,9.41-.26,13.04-.69,.54-.06,.96-.51,1.01-1.05,.23-2.65,.44-6.53-.18-8.9Z"/><path class="cls-7" d="M266.67,218.95c3.44,2.94,8.48,0,8.48,0l20.68-64.5,5.28,48.61,1.66,13.89c1.27,.29,2.65,.45,4.08,.45s2.89-.17,4.2-.47l-.36-14.39-1.19-51.94c-.05-4.46-1.23-8.84-3.43-12.72l-4.52-5.91c-.29-.46-.21-.27-.26,.27-.22,2.4-.97,4.37-2.03,5.98-4.54,6.92-14.89,7.3-14.89,7.3l-1.05,4.11-16.64,69.32Z"/><path class="cls-19" d="M283.31,149.63c16.89,.11,18.48-12.15,18.48-12.15l-2.54,.75c-4.54,6.92-14.89,7.3-14.89,7.3l-1.05,4.11Z"/><path class="cls-12" d="M308.3,149.26c-.04-1.37-.3-2.72-.76-4.01-.84-2.32-2.23-5.4-4.11-6.87-.13-.1-.32-.08-.42,.05-.1,.13-.08,.32,.05,.42,1.87,1.45,3.26,4.76,3.92,6.6,.17,.46,.3,.93,.41,1.4-4.34-1.42-4.73-4.5-4.74-4.64-.02-.16-.16-.28-.33-.26-.16,.02-.28,.16-.27,.33,.02,.15,.44,3.75,5.46,5.24,.1,.58,.17,1.17,.18,1.77l2.02,66.38c0,.16,.14,.29,.3,.29h0c.16,0,.29-.14,.29-.31l-2.02-66.38Z"/></g><g><path class="cls-2" d="M275.52,122.73s-2.36,5.66-5.62,10.66c-1.3,2-2.2,3.3-3.83,4.68-.34,.19-.61,.32-.78,.4-.04,.02-.09,.04-.13,.06-.01,0-.03,.01-.04,.01-.37,.13-.83,.08-1.3-.04h0c-.85-.32-1.68-.72-2.49-1.19t0,0h0c-1.48-.86-2.92-1.97-4.25-3.17t0,0s0,0,0,0c-2.68-2.16-8.76-8.19-8.76-8.19l1.14-2.31c2.74,2.68,13.5,8.1,13.51,8.14l6.63-12.55,5.96,3.52Z"/><path class="cls-11" d="M283.81,147.18c-.41-4.47-1.14-7.97-2.43-10.71,0-.01-.01-.03-.02-.04-.53-1.1-1.26-2.1-2.15-2.92-.48-.45-1.05-.8-1.65-1.09-.01,0-.03-.01-.04-.02-1.65-.82-2.95-2.21-3.72-3.89l-1.74,2.64c-4.06-.59-6.84-3.97-6.84-3.97l4.36-8.69,.14-.27c.8-1.54,1.94-2.84,3.59-3.42l1.07-.26c1.37-1.51,4.65-2.47,5.83-2.62,.32-.04,.64-.06,.97-.06,.54,0,1.09,.05,1.63,.16,.15,.03,.28,.07,.43,.1,.91,.24,1.74,.64,2.47,1.19,0,0,0,0,0,0,1.81,1.06,3.07,3.09,3.73,4.95,.21,.61,.51,1.18,.87,1.72,1.03,1.57,2.09,2.86,2.72,3.48,.22,.21,.37,.35,.41,.39h0c.18,.16,.37,.32,.55,.49,.77,.69,1.56,1.41,2.31,2.13,.31,.29,.61,.57,.9,.85,.14,.13,.28,.26,.41,.39,.34,.32,.66,.64,.97,.95,2.16,2.12,3.74,3.78,3.74,3.78,1.05,17.08-18.51,14.75-18.51,14.75Z"/><path class="cls-2" d="M283.75,126.36c1.75,7.57,10.89,23.01,12.86,27.6,.21,.48,.38,.89,.52,1.19,.12,.27,.32,.49,.58,.64,.26,.15,.56,.23,.87,.23h6.34c.12,0,.23-.05,.31-.13,.08-.08,.13-.19,.13-.31,0-.2-.13-.37-.32-.42l-4.42-1.4c-.85-.27-1.5-.96-1.72-1.82-2.3-8.85-7.56-23.13-8.26-27.25-1.29,.68-3.2,1.84-4.94,1.84-.67,0-1.32-.06-1.94-.18Z"/><path class="cls-2" d="M274.51,114.38l1.4,3.27,3.67-5.63s-3.9,.11-5.07,2.36Z"/><polygon class="cls-4" points="275.91 117.65 277.19 119.51 280.64 111.85 279.64 110.82 275.91 117.65"/><polygon class="cls-4" points="275.91 117.65 274.92 119.51 273.73 114.68 274.39 113.4 275.91 117.65"/><path class="cls-20" d="M273.8,128.8c-.13,0-.25-.08-.29-.22-.03-.11-.79-2.78-.64-4.65,.01-.16,.16-.28,.32-.27,.16,.01,.29,.16,.27,.32-.14,1.75,.61,4.41,.62,4.44,.05,.16-.05,.32-.2,.37-.03,0-.05,.01-.08,.01Z"/><path class="cls-2" d="M250.15,125.33c.3-.91-.16-1.89-1.04-2.26-1.12-.47-2.65-.91-3.47-1.1h0l-2.66-.56c-.25-.04-.48,0-.54,.25h0c-.06,.24,.09,.44,.31,.54l2.55,.93-.25,2.92c.1,.41,.45,.7,.87,.72h3.78s.45-1.44,.45-1.44Z"/></g><g><path class="cls-7" d="M264.77,88.68c-.04-.15-.25-.17-.31-.03l-1.9,4.13c-.05,.11-.21,.13-.29,.03l-3.25-4.24c-.05-.07-.15-.09-.23-.04l-.38,.25c-.07,.05-.1,.15-.05,.22l4.2,7.25c.07,.12,.24,.11,.3-.02l1.41-3.21c.06-.14,.25-.13,.31,0l1.75,4.31c.03,.08,.13,.12,.21,.1l.43-.15c.08-.03,.13-.12,.11-.2l-2.31-8.42Z"/><path class="cls-7" d="M256.93,97.73c-.14-.08-.3,.06-.24,.2l1.55,4.28c.04,.12-.06,.24-.18,.22l-5.3-.73c-.09-.01-.17,.05-.19,.13l-.09,.44c-.02,.09,.04,.17,.12,.2l8.09,2.2c.13,.04,.25-.09,.2-.22l-1.26-3.27c-.05-.14,.09-.27,.22-.21l4.28,1.84c.08,.04,.18,0,.22-.08l.2-.4c.04-.08,.01-.18-.07-.22l-7.56-4.37Z"/></g></g><g><path class="cls-20" d="M302.64,227.85c-.17,.02-.33,.04-.49,.04-1.33,0-2.52-.83-2.76-2l-10.55-65.78c-.27-1.32,.75-2.57,2.27-2.8,1.52-.23,2.97,.65,3.24,1.96l10.55,65.78c.27,1.32-.75,2.57-2.27,2.81Z"/><g><path class="cls-11" d="M316.51,227.86c-.17,.02-.33,.04-.49,.04-1.33,0-2.51-.83-2.75-2l-9.58-59.72-.97-6.06c-.26-1.32,.75-2.57,2.28-2.8,1.52-.23,2.97,.65,3.25,1.96l1.11,6.9,9.44,58.88c.27,1.32-.75,2.58-2.27,2.81Z"/><path class="cls-20" d="M309.34,166.17h-5.66l-.97-6.06c-.26-1.32,.75-2.57,2.28-2.8,1.52-.23,2.97,.65,3.25,1.96l1.11,6.9Z"/></g><path class="cls-20" d="M135.35,227.85c.17,.02,.33,.04,.49,.04,1.33,0,2.52-.83,2.76-2l10.55-65.78c.27-1.32-.75-2.57-2.27-2.8-1.52-.23-2.97,.65-3.24,1.96l-10.55,65.78c-.27,1.32,.75,2.57,2.27,2.81Z"/><g><path class="cls-11" d="M121.49,227.86c.17,.02,.33,.04,.49,.04,1.33,0,2.51-.83,2.75-2l9.58-59.72,.97-6.06c.26-1.32-.75-2.57-2.28-2.8-1.52-.23-2.97,.65-3.25,1.96l-1.11,6.9-9.44,58.88c-.27,1.32,.75,2.58,2.27,2.81Z"/><path class="cls-20" d="M128.66,166.17h5.66l.97-6.06c.26-1.32-.75-2.57-2.28-2.8-1.52-.23-2.97,.65-3.25,1.96l-1.11,6.9Z"/></g><rect class="cls-11" x="113.32" y="155.98" width="204.45" height="6.16" rx="2.14" ry="2.14"/><g><path class="cls-20" d="M236.96,130.51h-35.45c-.41,0-.75,.34-.75,.75l.72,21.59c0,.41,.34,.75,.75,.75h34c.41,0,.75-.34,.75-.75l.72-21.59c0-.41-.34-.75-.75-.75Z"/><path class="cls-11" d="M237.71,130.51l-.02,.75c-.08-.32-.38-.56-.72-.56h-35.45c-.35,0-.64,.24-.72,.56l-.02-.75c0-.41,.33-.75,.75-.75h35.45c.41,0,.75,.33,.75,.75Z"/><rect class="cls-18" x="201.49" y="153.6" width="35.5" height="2.38" rx=".75" ry=".75"/><rect class="cls-4" x="215.4" y="140.93" width="7.67" height="2.24" rx=".33" ry=".33"/></g><g><g><path class="cls-11" d="M249.33,147.14v2.02c0,.8,.64,1.44,1.44,1.44h26.49v-.68h-.91v-3.54h.91v-.68h-26.49c-.46,0-.87,.22-1.14,.55-.19,.24-.3,.55-.3,.88Z"/><path class="cls-20" d="M264.42,150.6h12.84v-.68h-.91v-3.54h.91v-.68h-12.84s-1.48,2.22,0,4.9Z"/><path class="cls-4" d="M276.55,146.34v3.55h-11.68c-.6-1.04-.6-2.4,0-3.55h11.68Z"/><g class="cls-22"><path class="cls-14" d="M276.55,147.23v.31h-5.01c-.21,0-.21-.31,0-.31h5.01Z"/></g><g class="cls-22"><path class="cls-14" d="M276.55,148.69v.31h-6.57c-.21,0-.21-.31,0-.31h6.57Z"/></g></g><g><path class="cls-13" d="M251.72,151.8v2.86c0,.73,.59,1.32,1.32,1.32h26.28v-.63h-.84v-4.25h.84v-.62h-26.28c-.73,0-1.32,.59-1.32,1.32Z"/><path class="cls-9" d="M269.98,155.98h9.35v-.63h-.84v-4.25h.84v-.62h-9.35s-1.65,2.75,0,5.5Z"/><path class="cls-4" d="M278.72,151.09v4.28h-8.17c-.77-1.36-.77-2.92,0-4.28h8.17Z"/><g class="cls-22"><path class="cls-14" d="M278.72,152.35v.31h-1.98c-.1,0-.1-.31,0-.31h1.98Z"/></g><g class="cls-22"><path class="cls-14" d="M278.72,153.81v.31h-5.01c-.21,0-.21-.31,0-.31h5.01Z"/></g></g></g><g><path class="cls-7" d="M188.17,149.36c-.49-1.31-2.05-2.04-3.1-1.48v-1.51c0-.38-.31-.69-.69-.69h-6.68c-.38,0-.69,.31-.69,.69v9.06c0,.38,.31,.69,.69,.69h6.68c.38,0,.69-.31,.69-.69v-1.48c.24,.23,.48,.46,.72,.69,.36,.35,.92-.2,.55-.55-.09-.09-.18-.18-.28-.27,1.8-.55,2.8-2.59,2.1-4.46Zm-2.92,3.82c-.06,0-.12,.02-.18,.05v-4.29c.57-1.18,1.93-.22,2.27,.44,.24,.48,.29,1.04,.22,1.57-.17,1.24-1.02,2.17-2.31,2.23Z"/><path class="cls-2" d="M178.12,147.51c-.22,0-.39,.17-.39,.39v6.28c0,.22,.17,.39,.39,.39s.39-.17,.39-.39v-6.28c0-.22-.17-.39-.39-.39Z"/></g></g><g><polygon class="cls-11" points="344.28 91.72 351.57 90.71 345.86 94.99 344.28 91.72"/><g><path class="cls-12" d="M350.96,88.41c.45-.03,.7-.52,.87-.94,1.03-2.58,2.08-5.2,2.32-7.97,.07-.77,.05-1.61-.41-2.22-.51-.67-1.41-.89-2.24-1.07,.14,2.02,.19,4.04,.03,6.06-.17,2.13-.72,4.01-.57,6.14Z"/><path class="cls-12" d="M344.75,76.53c-.75,.55-1.62,1.8-1.17,3.61,.21,.83,.67,1.59,1.33,2.14,.05-1.41,.14-2.81,.19-4.22-.45-.07,.05-1.3-.34-1.52Z"/><path class="cls-2" d="M344.19,89.06c1.14,1.09,3.42,.96,4.76,.3,1.34-.66,2.07-1.6,2.68-2.98,.03-.08,.07-.16,.1-.25-.02-.18-.04-.37-.04-.55-.02-.49,.02-.99,.05-1.48,.05-.82,.05-1.67-.26-2.45-.38-.95,.49-2.72-.43-3.21-1.82-.72-5.68-.17-6.37-.32-.12-.03-.23,.05-.25,.18l-.18,1.91h0c-.01,.28-.04,.56-.08,.83-.21,1.39-.71,2.72-.86,4.12-.15,1.4-.17,2.89,.87,3.9Z"/><path class="cls-2" d="M351.38,92.34v.02c-.05,.06-.1,.12-.15,.17-7.48,8.71-6.9,2.17-6.64,.36,.02-.14,.04-.25,.06-.33h0s.02-.07,.03-.11c.35-1.6,1.09-4.41,1.1-5.29,.78-.24,1.58-.43,2.36-.64,1.08-.27,2.16-.53,3.24-.86-.4,1.15-.15,4.6,0,6.67Z"/><path class="cls-12" d="M351.77,83.2c-.06,1.02-.24,2.08-.46,3.09-.21,1-.59,1.99-1.22,2.8-.63,.81-1.51,1.43-2.48,1.74-.98,.32-2.05,.33-3.03,.04-.32-.09-.63-.22-.91-.39h0c-2.14-1.57-.73-5.05-.41-5.67,.02-.03,.06-.07,.09-.1,.08-.05,.16-.11,.24-.17,.94-.65,3.08-.28,4.1,.23,.11,.05,.19,.1,.24,.15,.22,.22,.4,.47,.63,.66,.72,.6,.93,.54,1.68,0,.76-.55,1.15-1.5,1.2-2.43,.1,.02,.24,.04,.34,.05Z"/><path class="cls-2" d="M353.27,85.3c-.35,.64-1.16,1.06-1.96,1.02,0-.02,0-.03,.01-.05,.2-.94,.38-1.94,.44-2.91,.16-.23,.42-.46,.62-.53,.3-.11,.64,.05,.87,.26,.58,.54,.39,1.53,.02,2.2Z"/><path class="cls-6" d="M345.98,84.05c-.33-.08-.6-.3-.75-.61-.08-.17-.36-.07-.28,.11,.19,.41,.54,.7,.98,.8,.19,.05,.24-.25,.05-.3Z"/><path class="cls-10" d="M344.81,81.78c-.02,.3-.19,.54-.38,.53-.19,0-.34-.26-.33-.57,.02-.3,.19-.54,.38-.53,.19,0,.34,.26,.33,.57Z"/><path class="cls-10" d="M347.95,81.94c-.02,.3-.19,.54-.38,.53s-.34-.26-.33-.57c.02-.3,.19-.54,.38-.53,.19,0,.34,.26,.33,.57Z"/><path class="cls-7" d="M348.76,80.3c-.59-.09-1.19,.04-1.69,.36-.33,.21-.05,.74,.28,.53,.43-.27,.89-.37,1.39-.29,.38,.06,.4-.55,.02-.6Z"/><path class="cls-7" d="M345.45,80.41c-.44-.29-.95-.36-1.46-.26-.38,.08-.21,.65,.17,.58,.36-.07,.7,.01,1,.21,.33,.21,.62-.32,.29-.53Z"/><path class="cls-12" d="M342.9,76.94c.05,.36,.13,.74,.39,1.01,.35,.37,.9,.41,1.41,.42,1.59,.03,4.56,.43,6.14,.21-.38,1.59-.13,3.79,.69,5.21,.89-.89,1.5-2.54,1.59-3.79,.1-1.25-.2-2.59-.94-3.61-.38-.87-1.1-1.48-1.95-1.89-.18-.09-.35-.17-.54-.23-.97-.37-2.01-.48-3.05-.53-.12,0-.2,.14-.13,.23,.04,.05,.08,.1,.12,.15-.75-.11-1.44-.21-1.97-.26-.51-.06-1.09-.11-1.46,.25-.28,.26-.34,.68-.37,1.06-.04,.59-.02,1.19,.06,1.77Z"/><path class="cls-10" d="M346.94,85.95s0,.02,0,.03c-.04,.32-.35,.59-.66,.54-.28-.04-.5-.32-.79-.34-.1,0-.2,.02-.3,.05-.13,.04-.26,.08-.39,.05-.23-.04-.39-.29-.37-.53,.02-.31,.18-.53,.41-.66,.48-.29,1.26-.23,1.73,.1,.25,.18,.41,.43,.38,.75Z"/><path class="cls-4" d="M346.56,85.2c-.55,.22-1.21,.17-1.73-.1,.48-.29,1.26-.23,1.73,.1Z"/><path class="cls-7" d="M346.94,85.95s0,.02,0,.03c-.04,.32-.35,.59-.66,.54-.28-.04-.5-.32-.79-.34-.1,0-.2,.02-.3,.05,.28-.2,.62-.33,.96-.37,.27-.03,.54,0,.79,.09Z"/></g><g><path class="cls-18" d="M360.48,216.04c.87,3.39-.13,7.3-2.45,9.63-.27,.27-.56,.53-.75,.87-.19,.35-.27,.81-.08,1.16,.25,.47,.81,.52,1.29,.51,.94,0,1.88,0,2.81-.01,1.01,0,3.62-.06,4.39-.81,.72-.7,.95-1.84,1.09-2.91,.4-3.01-1.09-6.08-1.48-9.1-.67-.71-1.65-.77-2.54-.53-.89,.24-1.52,.63-2.29,1.18Z"/><path class="cls-18" d="M339.92,225.03c-.2-1.97-.41-4.97-.61-6.94-1.78-.4-3.74-.88-5.53-1.27,.2,.85-.16,2.79-.76,3.47-.59,.68-1.39,1.17-2.19,1.63-2.32,1.35-5.85,2.55-8.34,3.61-.49,.21-.62,.81-.23,1.15,.29,.26,.65,.46,1.03,.59,.72,.24,1.49,.27,2.25,.29,3.6,.09,8.32,.04,11.92-.17,.85-.05,1.83-.18,2.26-.86,.28-.44,.24-1,.19-1.51Z"/><path class="cls-13" d="M367,217c-.77,.19-1.49,.35-2.22,.47-1.23,.2-2.48,.31-3.94,.31-.33,0-.66,0-.98-.02-.67-.02-1.32-.07-1.96-.13l-11.1-72.41-5.64,72.73c-.84,.45-1.65,.77-2.41,.98-2.17,.6-3.96,.31-5.18-.09-1.14-.39-1.78-.88-1.78-.88l2.74-77.91,.07-1.95,.15-3.8,.18-4.59c.23-.05,.47-.09,.7-.13,7.25-1.21,17.3,.01,21.06,1.05l2.29,.3c.74,1.22,1.33,2.68,1.81,4.26,.28,.94,.45,1.93,.56,2.92,.17,1.47,.23,2.97,.4,4.4,.86,7.58,4.74,71.4,5.26,74.51Z"/><path class="cls-9" d="M353.25,136.55c2.45,1.72,4.9,3.44,7.35,5.16,.33,.23,.01,.79-.32,.55-.31-.22-.62-.44-.94-.66,1.87,18.87,3.74,45.71,5.61,64.58,.26,2.67,.53,5.34,.79,8.01,.04,.41-.6,.4-.64,0-1.89-19.09-3.78-46.15-5.68-65.24-.26-2.61-.52-5.23-.78-7.84-1.91-1.34-3.82-2.68-5.73-4.02-.33-.23-.01-.79,.32-.55Z"/><path class="cls-9" d="M346.8,145.51s.04,0,.05,0c.16-.03,.26-.18,.23-.34l-.71-3.74c-.03-.16-.18-.26-.34-.23-.16,.03-.26,.18-.23,.34l.71,3.74c.03,.14,.15,.24,.29,.24Z"/><path class="cls-19" d="M361.34,138.1c-16.04,5.41-26.75,0-26.75,0h0s.15-3.8,.15-3.8l.18-4.59c.23-.05,.47-.09,.7-.13,7.25-1.21,17.3,.01,21.06,1.05l2.29,.3c.74,1.22,1.33,2.68,1.81,4.26,.28,.94,.45,1.93,.56,2.92Z"/></g><g><path class="cls-2" d="M335.45,97.3l-7.99,12.4-9.05-11.64c.24-.47,.23-.92,.29-1.44,.1-.78-.6-1.75-1-2.43-.75-1.28-2.06-2.61-2.81-3.89-.07-.12-.15-.25-.28-.3-.25-.09-.51,.18-.52,.44-.02,.26,.13,.51,.24,.75,.06,.13,1.19,2.34,1.19,2.34l-2.15,1.94c-.66,.42-.83,1.3-.38,1.94l2.6,2.52c1.91,5.46,6,13.55,8.09,17.51,.76,1.44,2.28,2.29,3.9,2.2,1.16-.07,2.24-.63,2.97-1.54l12.1-13.58-1.72-9.01c-4.15-.01-5.5,1.78-5.5,1.78Z"/><path class="cls-8" d="M371.26,102.03c-1.6,4.54-4.86,7.97-5.88,8.97l-5.79-4.11s-.41,18.06,1.33,27.36c0,0-.02,.01-.03,.02-11.78,8.86-26.62,3.73-27.08,3.6,0,0-.01,0-.01,0l.42-4.96,1.46-20-1.02,1.14c-4.4-1.76-5.55-7.42-5.55-7.42l5.54-8.4h0c1.1-1.77,2.74-3.16,4.73-3.88,.15-.05,.29-.1,.45-.15l4.04-1.1,2.46-.44c1.87-.56,3.84-.61,5.71-.16,.13,.03,.27,.06,.4,.1h0l8.06,1.51c2.16,.4,4.15,1.44,5.72,2.98l5.01,4.93Z"/><path class="cls-2" d="M350.93,92.19l-5.07,2.8-1.33-2.01s4.59-3.49,6.4-.79Z"/><g><path class="cls-20" d="M347.52,95.68l-1.45,3.03,1.52,26.85-4.14,3.63-2.49-4.43,4.03-26.15-.52-3.28s1.24-.65,3.04,.35Z"/><g class="cls-1"><g><path class="cls-11" d="M351,102.47c-3.7-2.58-7.4-5.16-11.1-7.74-.63-.44-.03-1.47,.6-1.03,3.7,2.58,7.4,5.16,11.1,7.74,.63,.44,.03,1.47-.6,1.03Z"/><path class="cls-11" d="M340.5,97.24c3.7,2.58,7.4,5.16,11.1,7.74,.63,.44,.03,1.47-.6,1.03-3.7-2.58-7.4-5.16-11.1-7.74-.63-.44-.03-1.47,.6-1.03Z"/><path class="cls-11" d="M340.5,100.79c3.7,2.58,7.4,5.16,11.1,7.74,.63,.44,.03,1.47-.6,1.03-3.7-2.58-7.4-5.16-11.1-7.74-.63-.44-.03-1.47,.6-1.03Z"/><path class="cls-11" d="M340.5,104.33c3.7,2.58,7.4,5.16,11.1,7.74,.63,.44,.03,1.47-.6,1.03-3.7-2.58-7.4-5.16-11.1-7.74-.63-.44-.03-1.47,.6-1.03Z"/><path class="cls-11" d="M340.5,107.87c3.7,2.58,7.4,5.16,11.1,7.74,.63,.44,.03,1.47-.6,1.03-3.7-2.58-7.4-5.16-11.1-7.74-.63-.44-.03-1.47,.6-1.03Z"/><path class="cls-11" d="M340.5,111.41c3.7,2.58,7.4,5.16,11.1,7.74,.63,.44,.03,1.47-.6,1.03-3.7-2.58-7.4-5.16-11.1-7.74-.63-.44-.03-1.47,.6-1.03Z"/><path class="cls-11" d="M340.5,114.96c3.7,2.58,7.4,5.16,11.1,7.74,.63,.44,.03,1.47-.6,1.03-3.7-2.58-7.4-5.16-11.1-7.74-.63-.44-.03-1.47,.6-1.03Z"/><path class="cls-11" d="M340.5,118.5c3.7,2.58,7.4,5.16,11.1,7.74,.63,.44,.03,1.47-.6,1.03-3.7-2.58-7.4-5.16-11.1-7.74-.63-.44-.03-1.47,.6-1.03Z"/><path class="cls-11" d="M340.5,122.04c3.7,2.58,7.4,5.16,11.1,7.74,.63,.44,.03,1.47-.6,1.03-3.7-2.58-7.4-5.16-11.1-7.74-.63-.44-.03-1.47,.6-1.03Z"/><path class="cls-11" d="M340.5,125.59c3.7,2.58,7.4,5.16,11.1,7.74,.63,.44,.03,1.47-.6,1.03-3.7-2.58-7.4-5.16-11.1-7.74-.63-.44-.03-1.47,.6-1.03Z"/></g></g></g><polygon class="cls-3" points="351.57 90.71 352.46 92.6 347.51 98 345.86 94.99 351.57 90.71"/><polygon class="cls-3" points="345.86 94.99 343.98 97.75 343.08 93.23 344.28 91.72 345.86 94.99"/><path class="cls-2" d="M376.96,115.86c-.96,.59-3.28,2.41-5.82,4.42-2.54,2.01-5.31,4.21-7.17,5.56-1,2.3-2.34,4.02-3.15,4.93-.08,.09-.17,.16-.28,.21-.36,.19-.82,.11-1.11-.21l-2.74-3.02c-.36-.4-.31-1.03,.12-1.36l1.6-1.24-.27-.95c-.06-.23,.08-.46,.31-.51l1.42-.3,1.92-.4c2.85-3.27,6.83-9.41,8.33-10.62,0,0-1.76-1-3.76-2.38,1.42-1.57,3.67-4.43,4.92-7.96,2.53,2.68,5.89,6.18,6.9,7.72,1.34,2.02,.77,4.91-1.21,6.11Z"/><path class="cls-5" d="M335.68,113.19s-.02,0-.03,0c-.16-.01-.29-.16-.27-.32l.65-7.49c.01-.16,.16-.29,.32-.27,.16,.01,.29,.16,.27,.32l-.65,7.49c-.01,.16-.14,.27-.3,.27Z"/></g><g><path class="cls-7" d="M358.01,65.59c-1.02,1.75-2.05,3.5-3.07,5.24-.44,.76,.68,1.55,1.13,.79,1.02-1.75,2.05-3.5,3.07-5.24,.44-.76-.68-1.55-1.13-.79Z"/><path class="cls-7" d="M362.74,69.23c-1.61,1.23-3.22,2.45-4.83,3.68-.7,.53,.04,1.69,.74,1.16,1.61-1.23,3.22-2.45,4.83-3.68,.7-.53-.04-1.69-.74-1.16Z"/><path class="cls-7" d="M338.8,65.59c-.45-.76-1.57,.03-1.13,.79,1.02,1.75,2.05,3.5,3.07,5.24,.45,.76,1.57-.03,1.13-.79-1.02-1.75-2.05-3.5-3.07-5.24Z"/><path class="cls-7" d="M338.9,72.91c-1.61-1.23-3.22-2.45-4.83-3.68-.7-.53-1.44,.62-.74,1.16,1.61,1.23,3.22,2.45,4.83,3.68,.7,.53,1.44-.62,.74-1.16Z"/></g></g><g><g><path class="cls-10" d="M97.44,216.41c.02,2.7-.34,5.4-1.05,8-.33,1.19,.5,2.37,1.72,2.47,4.99,.39,8.76,.73,13.78,.78,.25,0,.52,0,.69-.18,.22-.21,.17-.6-.02-.84-.19-.24-.49-.37-.77-.49-2.38-1.02-3.64-2.02-5.7-3.58-2.07-1.56-3.77-3.79-4.11-6.36-1.39,.02-3.16,.03-4.54,.2Z"/><path class="cls-10" d="M74.97,215.02c-1.14,3.82,.09,8.25,3.05,10.92,.35,.32,.73,.62,.97,1.03,.24,.41,.29,.97,0,1.33-.23,.28-.6,.39-.95,.47-2.06,.47-4.24,.41-6.28-.16-1.01-.28-2.06-.75-2.57-1.67-.35-.63-.39-1.38-.41-2.1-.08-3.52,.29-7.05,1.11-10.48,1.83,0,3.31,.19,5.08,.65Z"/><path class="cls-20" d="M108.04,176.31l-3.33,41.33c-3.03,.8-5.7,.77-7.28,.55-1.45-.2-1.93-.55-1.93-.55l.15-42.81-7.24-25.16c-.06-.98-.1-1.51-.1-1.51-.03,.24-.07,.52-.11,.86h0c-1.04,8.2-6.66,46.13-11.22,67.73-5,2.96-9.05-.9-9.05-.9h0c4.31-23.46,4.87-53.78,5.36-70.3,.12-4.1,.18-7.44,.21-9.75,.03-2.29,.03-3.57,.03-3.57,2,.39,3.97,.67,5.87,.86,12.22,1.26,21.74-.97,21.74-.97,.07,.3,.15,.64,.22,1,.14,.76,.27,1.66,.38,2.68l.98,5.64,5.04,28.99c.34,1.94,.43,3.92,.28,5.89Z"/><path class="cls-18" d="M88.32,148.45s-.03,0-.04,0c-.16-.02-.28-.17-.26-.33l.8-6.03c.02-.16,.17-.28,.33-.26,.16,.02,.28,.17,.26,.33l-.8,6.03c-.02,.15-.15,.26-.29,.26Z"/><path class="cls-18" d="M82.27,136.89s-.04,4.53-.61,8.24c0,0-3.29,1.05-8.36,.4,.12-4.1,.18-7.44,.21-9.75,.03-2.29,.03-3.57,.03-3.57,2,.39,3.97,.67,5.87,.86,1.02,.94,2,2.19,2.87,3.82Z"/><path class="cls-18" d="M69.82,212.68s-.03,0-.05,0c-.16-.03-.27-.18-.24-.34,.08-.45,7.61-45.54,6.38-74.44,0-.16,.12-.3,.28-.31,.16-.01,.3,.12,.31,.28,1.24,28.96-6.31,74.11-6.39,74.56-.02,.14-.15,.25-.29,.25Z"/><path class="cls-18" d="M76.34,144.99c-.13,0-.24-.08-.28-.21-.05-.16,.04-.32,.19-.37,.03-.01,2.48-.89,1.83-6.21-.02-.16,.1-.31,.26-.33,.16-.02,.31,.1,.33,.26,.71,5.87-2.13,6.81-2.25,6.85-.03,0-.06,.01-.09,.01Z"/><path class="cls-18" d="M102.72,141.43c-2.81,1.29-6.7,.69-6.7,.69l.48-5.54,4.86-3.48c.14,.76,.27,1.66,.38,2.68l.98,5.64Z"/></g><polygon class="cls-14" points="80.44 92.64 87.17 92.48 86.48 97.92 80.44 92.64"/><g><path class="cls-10" d="M87.71,84.64c1.22-1.94,1.46-4.47,.61-6.61-.66,.2-1.33,.45-1.91,.83,.4,1.94,.9,3.83,1.3,5.78Z"/><path class="cls-10" d="M78.8,78.03c-1.8,1.68-2.64,4.33-2.12,6.74,.52,2.41,2.37,4.49,4.7,5.28-.86-3.97-1.72-8.05-2.58-12.02Z"/><path class="cls-2" d="M87.3,94.61c-2.69,1.38-6.65,.21-6.65,.21,.04-.36,.07-.74,.08-.77,.05-2.14-.22-5.66-.75-7.24,1.27,.42,2.55,.75,3.83,1.09,.93,.25,1.86,.51,2.79,.81,0,.58,.1,1.51,.23,2.5,.08,.61,.17,1.24,.25,1.83,.07,.51,.13,.98,.18,1.38h0s0,0,0,.01c0,.02,.02,.09,.04,.17Z"/><path class="cls-17" d="M87.08,93.04c-3.95,.6-5.75-3.44-5.75-3.44l5.5,1.61c.08,.61,.17,1.24,.25,1.83Z"/><path class="cls-2" d="M87.79,90.58c-1.19,1.1-3.53,.92-4.89,.22-1.36-.7-2.09-1.68-2.69-3.1-.03-.08-.07-.17-.1-.26,.03-.19,.04-.37,.05-.56,.02-.51,0-1.02-.02-1.52-.03-.84-.02-1.71,.31-2.51,.41-.97-.45-2.8,.5-3.28,1.88-.7,5.83-.07,6.54-.21,.12-.03,.24,.06,.25,.19l.15,1.96h0c0,.29,.03,.57,.07,.85,.19,1.43,.67,2.8,.81,4.25,.13,1.44,.12,2.97-.97,3.99Z"/><path class="cls-10" d="M89.05,77.7c-.14,.89-.61,1.77-1.38,2.25-.57,.36-1.27,.47-1.94,.54-1.55,.16-3.11,.17-4.65,0,.46,1.65,.08,3.54-.99,4.88-.56-1.06-1.04-2.17-1.59-3.23-.17-.32-.23-.31-.35-.64l-.06-.34s-.45-1.87,.72-3.01c-.5,.29-.83,.62-1,.54-.11-.05-.12-.32,.08-.67,.19-.35,.6-.77,1.21-.98,.38-.13,.76-.15,1.08-.11,.09-.38,.27-.8,.58-1.19,.38-.47,.96-.89,1.66-1.05,.69-.17,1.32-.12,1.86-.07,.54,.06,.99,.13,1.37,.15,.76,.07,1.22-.06,1.28,.06,.03,.05-.06,.16-.28,.29-.21,.13-.56,.24-.98,.3-.15,.02-.32,.04-.49,.04,.59,.06,1.19,.08,1.78,.03,.59-.05,1.85-.43,1.9-.44,.21,.88,.34,1.78,.2,2.67Z"/><path class="cls-2" d="M78.55,86.57c.35,.67,1.17,1.11,1.99,1.09,0-.02,0-.03,0-.05-.19-.97-.17-1.95-.22-2.94-.16-.24-.6-.52-.81-.6-.31-.12-.66,.04-.9,.25-.6,.54-.43,1.56-.06,2.26Z"/><path class="cls-10" d="M84.58,83.45c.03,.36-.11,.67-.31,.69-.21,.02-.4-.26-.43-.62-.03-.36,.11-.67,.31-.69,.21-.02,.4,.26,.43,.62Z"/><path class="cls-10" d="M87.99,83.18c.01,.36-.14,.66-.35,.67-.21,0-.38-.28-.4-.64-.01-.36,.14-.66,.35-.67,.21,0,.38,.28,.4,.64Z"/><path class="cls-17" d="M86.88,84.96c-.18,.25-.4,.45-.68,.58-.21,.1-.08,.44,.13,.34,.34-.16,.62-.38,.83-.68,.14-.19-.14-.42-.28-.23Z"/><path class="cls-10" d="M88.02,81.23h-.03c-.58,.13-1.05,.45-1.37,.92-.06,.09-.07,.21,0,.3,.06,.1,.16,.15,.27,.14,.07,0,.14-.05,.18-.12,.25-.37,.6-.61,1.01-.7,.17-.04,.24-.2,.22-.33-.02-.14-.14-.23-.28-.22Z"/><path class="cls-10" d="M83.25,81.95h.03c.56-.2,1.13-.16,1.64,.09,.1,.05,.16,.15,.16,.26,0,.11-.06,.21-.16,.26-.07,.03-.15,.03-.22,0-.4-.19-.82-.23-1.22-.1-.17,.06-.31-.05-.36-.18-.05-.13,0-.27,.13-.33Z"/><path class="cls-10" d="M87.87,87.96c-.01,.12-.05,.24-.11,.34-.09,.15-.23,.27-.38,.3-.03,0-.05,.01-.08,.01-.29,.01-.55-.24-.83-.17-.2,.05-.36,.24-.54,.31-.05,.02-.1,.03-.16,.02-.24-.03-.36-.36-.36-.64,0-.09,.01-.18,.03-.27,.04-.16,.1-.31,.18-.45h0c.04-.08,.1-.15,.15-.22,.01-.01,.02-.03,.04-.04,.46-.47,1.15-.54,1.64-.15,.04,.03,.07,.06,.1,.09,.08,.08,.15,.18,.2,.29,.1,.18,.14,.39,.12,.59Z"/><path class="cls-17" d="M87.38,88.6s-.05,.01-.08,.01c-.29,.01-.55-.24-.83-.17-.2,.05-.36,.24-.54,.31-.05,.02-.1,.03-.16,.02-.24-.03-.36-.36-.36-.64,0-.09,.01-.18,.03-.27,.25-.06,.51-.06,.76-.02,.47,.09,.9,.37,1.18,.76Z"/><path class="cls-4" d="M87.45,87c-.2,.13-.43,.23-.67,.27-.33,.07-.68,.04-1-.08,.01-.01,.02-.03,.04-.04,.46-.47,1.15-.54,1.64-.15Z"/></g><polygon class="cls-4" points="86.48 97.92 88.23 99.79 87.93 93.44 87.17 92.48 86.48 97.92"/><g><path class="cls-2" d="M55.53,65.21l-.46,1.27-.63,1.72c.11,.34,.22,.7,.35,1.07l-3.27,.91c-.06-.64-.11-1.23-.15-1.75-1.33-1.93-2.28-3.74-2.6-4.82-.03-.11-.04-.22-.03-.32,.03-.38,.31-.71,.71-.78l3.74-.68c.5-.09,.97,.26,1.02,.77l.2,1.87,.89,.25c.21,.06,.32,.29,.25,.5Z"/><path class="cls-2" d="M106.88,62.39l.56,1.64,.76,1.66c-.08,.35-.17,.72-.27,1.1l3.33,.65c.01-.64,.02-1.23,.01-1.76,1.17-2.03,1.98-3.9,2.22-5.01,.02-.11,.03-.22,0-.32-.06-.37-.37-.68-.77-.72l-3.78-.39c-.5-.05-.94,.34-.95,.84l-.05,1.47-.87,.32c-.2,.08-.3,.31-.21,.51Z"/><path class="cls-14" d="M96.39,102.83c1.42,11.44,3.86,30.66,3.86,30.66l-25.48,.51,.2-29.45-8.01-4.26c-.69-6.3,3.06-8.89,3.06-8.89l8.91,2.54,1.51,.42h0c1.28-.22,2.6-.39,3.96-.5,1-.08,1.98-.12,2.96-.14h0s.79-.39,.79-.39l7.98-3.9s4.33,3.48,4.62,9.68l-4.36,3.66s0,0,0,.01c0,.01,0,.03,0,.04Z"/><path class="cls-10" d="M100.55,135.78c-10.74,3.26-25.86,0-25.86,0,.03-2.29,.03-3.57,.03-3.57,14.9,2.86,25.23-.12,25.23-.12,.23,.92,.43,2.16,.59,3.68Z"/><path class="cls-3" d="M92.82,134.9c-.18-.04-.38-.07-.58-.08v-.96c0-.53-.42-.98-.95-1.01-.91-.06-2.64-.13-4.05,.07-.49,.07-.87,.5-.87,1.01v2.78c0,.5,.36,.92,.85,1,.49,.08,1.27,.17,2.19,.17,.62,0,1.3-.04,1.98-.17,.49-.09,.84-.51,.84-1v-1c.13,.01,.25,.03,.36,.05,.04,0,.07,.01,.11,.01,.2,0,.38-.14,.43-.34,.06-.24-.09-.48-.33-.54Zm-1.58,1.94c-1.57,.28-3.1,.11-3.87-.01-.06,0-.1-.06-.1-.12v-2.78c0-.06,.04-.12,.1-.12,.66-.1,1.4-.13,2.08-.13s1.34,.03,1.78,.06c.07,0,.12,.06,.12,.12v.97c-.3,.02-.52,.06-.54,.06-.24,.04-.41,.27-.37,.51,.04,.24,.27,.41,.51,.37,.09-.01,.23-.03,.4-.05v.99c0,.06-.05,.11-.11,.13Z"/><path class="cls-20" d="M80.44,94.37s2.67,26.27,.11,49.5c0,0-2.71,.64-9.54-.46,0,0,1.48-25.58,.89-38.43l-12.75-7.65c-1.42-.76-2.44-2.11-2.78-3.69l-6-23.62s1.93-2.23,5.34-1.34l7.87,20.75s10.59,3.08,16.85,4.93Z"/><path class="cls-2" d="M80.44,94.37l6.05,3.55,.69-4.19s-4.14-.77-6.73,.64Z"/><path class="cls-20" d="M87.93,93.44s8.12,17.51,8.71,47.4c0,0,5.44-.79,6.43-1.58,0,0-3.36-29.2-5.25-37.66l11.14-9.71c1.04-.91,1.67-2.21,1.75-3.59l1.06-21.78s-2.57-1.09-4.75,0l-2.97,19.06s-10.51,4.23-16.13,7.87Z"/><g><polygon class="cls-13" points="84.67 98.67 86.38 100.7 86.78 127.77 90.66 130.96 92.61 126.73 87.3 100.68 87.58 98.21 86.48 97.92 84.67 98.67"/><g class="cls-21"><g class="cls-22"><circle class="cls-16" cx="87.35" cy="125.25" r="2.41"/><circle class="cls-16" cx="92.61" cy="128.81" r="2.41" transform="translate(-53.98 189.47) rotate(-76.77)"/><circle class="cls-16" cx="91.53" cy="119.61" r="2.41" transform="translate(-45.85 181.32) rotate(-76.77)"/><circle class="cls-16" cx="87.08" cy="114.79" r="2.41"/><circle class="cls-16" cx="90.34" cy="108.88" r="2.41" transform="translate(-37.36 169.78) rotate(-75.81)"/><circle class="cls-16" cx="89.12" cy="98.9" r="2.41"/><circle class="cls-16" cx="85.17" cy="104.06" r="2.41" transform="translate(-35.63 163.15) rotate(-76.77)"/></g></g></g><polygon class="cls-4" points="80.44 92.64 79.56 94.12 84.97 100.28 86.48 97.92 80.44 92.64"/><path class="cls-17" d="M111.55,63.75s-.01,0-.02,0l-2.92-.41c-.36-.05-.64-.33-.7-.68l-.11-1.09c0-.08,.05-.15,.13-.16,.08,0,.15,.05,.16,.13l.1,1.08c.04,.22,.21,.4,.44,.43l2.92,.41c.08,.01,.14,.09,.13,.17-.01,.07-.07,.13-.15,.13Z"/><path class="cls-17" d="M51.07,66.18s.01,0,.02,0l2.86-.73c.35-.09,.6-.39,.62-.76v-1.09c-.01-.08-.08-.15-.16-.15-.08,0-.15,.07-.15,.15v1.08c0,.22-.16,.42-.38,.47l-2.86,.73c-.08,.02-.13,.1-.11,.18,.02,.07,.09,.12,.16,.11Z"/><path class="cls-18" d="M80.11,136.44h0c-.16,0-.3-.14-.29-.3,.11-13.89-3.53-27.34-3.57-27.47l-.03-.12,2.81-5.07-4.17-4.53,3.89-4.42c.11-.12,.3-.14,.42-.03,.12,.11,.14,.3,.03,.42l-3.53,4.02,4.1,4.45-2.9,5.24c.36,1.36,3.66,14.24,3.56,27.52,0,.16-.13,.29-.3,.29Z"/><path class="cls-18" d="M97.2,136.88h0c-.16,0-.29-.14-.29-.3,.36-14.96-1.32-29.04-1.46-30.19l-3.16-4.39,1.51-4.96-4.84-3.11c-.14-.09-.18-.27-.09-.41,.09-.14,.27-.18,.41-.09l5.21,3.35-1.56,5.11,3.08,4.27v.07c.03,.15,1.86,14.78,1.48,30.35,0,.16-.14,.29-.3,.29Z"/><path class="cls-18" d="M97.75,101.9c-.14,0-.25-.1-.28-.24l-.54-2.99c-.03-.16,.08-.32,.24-.34,.16-.03,.32,.08,.34,.24l.54,2.99c.03,.16-.08,.32-.24,.34-.02,0-.04,0-.07,0Z"/></g><g><path class="cls-7" d="M97.77,64.35l-.35-.29c-.07-.06-.17-.05-.23,.02l-3.65,3.91c-.09,.09-.24,.06-.28-.06l-1.5-4.3c-.05-.15-.26-.15-.32,0l-3.1,8.17c-.03,.08,0,.18,.09,.21l.41,.19c.08,.04,.18,0,.22-.08l2.16-4.13c.07-.13,.26-.12,.31,.03l1.09,3.33c.04,.13,.22,.16,.3,.05l4.88-6.81c.05-.07,.04-.17-.03-.23Z"/><path class="cls-7" d="M72.88,66.45c-.1-.12-.29-.06-.3,.1l-.15,4.55c0,.13-.14,.2-.25,.14l-4.64-2.65c-.08-.04-.17-.02-.22,.05l-.25,.38c-.05,.07-.03,.17,.04,.23l6.68,5.06c.11,.08,.27,0,.27-.13l.06-3.51c0-.15,.18-.22,.29-.12l3.28,3.3c.06,.06,.16,.07,.23,0l.34-.3c.07-.06,.08-.16,.02-.23l-5.38-6.88Z"/></g></g></g></svg>