<?xml version="1.0" encoding="UTF-8"?><svg id="Stars" xmlns="http://www.w3.org/2000/svg" viewBox="0 0 416 366"><defs><style>.cls-1{fill:#ebebeb;}.cls-2{fill:#eb996e;}.cls-3{fill:#f5f5f5;}.cls-4,.cls-5{fill:#fff;}.cls-6{fill:#ffbe9d;}.cls-7{fill:#e8505b;}.cls-8{fill:#e0e0e0;}.cls-9{fill:#455a64;}.cls-10{fill:#263238;}.cls-11{opacity:.4;}.cls-12{opacity:.6;}.cls-13{opacity:.5;}.cls-5{fill-rule:evenodd;}</style></defs><g><path class="cls-1" d="M115.41,84.59h0c-15.44,0-27.96-12.52-27.96-27.96h0c0-15.44,12.52-27.96,27.96-27.96h0c15.44,0,27.96,12.52,27.96,27.96h0c0,15.44-12.52,27.96-27.96,27.96Z"/><g><g><rect class="cls-4" x="102.73" y="50.4" width="5.79" height="18.69"/><path class="cls-4" d="M105.6,47.96c1.89,0,3.42-1.55,3.42-3.45s-1.53-3.45-3.42-3.45-3.42,1.54-3.42,3.45,1.53,3.45,3.42,3.45Z"/></g><path class="cls-4" d="M117.77,59.28c0-2.63,1.21-4.19,3.53-4.19,2.13,0,3.15,1.5,3.15,4.19v9.81h5.76v-11.83c0-5.01-2.84-7.43-6.8-7.43s-5.63,3.09-5.63,3.09v-2.52h-5.55v18.69h5.55v-9.81Z"/></g></g><polygon class="cls-3" points="152.88 .96 156.7 7.96 163.7 11.79 156.7 15.62 152.88 22.62 149.05 15.62 142.05 11.79 149.05 7.96 152.88 .96"/><polygon class="cls-1" points="312.53 190.59 315.4 195.84 320.65 198.71 315.4 201.59 312.53 206.84 309.66 201.59 304.41 198.71 309.66 195.84 312.53 190.59"/><polygon class="cls-8" points="320.65 164.67 321.94 167.04 324.31 168.34 321.94 169.63 320.65 172 319.35 169.63 316.99 168.34 319.35 167.04 320.65 164.67"/><polygon class="cls-8" points="125.53 3.6 126.83 5.96 129.2 7.26 126.83 8.55 125.53 10.92 124.24 8.55 121.87 7.26 124.24 5.96 125.53 3.6"/><path class="cls-8" d="M60.59,223.63c2.92-1.27,4.97-4.33,4.94-7.89-.04-4.67-3.63-8.44-8.01-8.4-4.38,.04-7.9,3.86-7.86,8.53,.03,3.6,2.17,6.64,5.16,7.84-12.19,2-11.46,15.26-11.46,15.26l28.88-.24s.48-13.43-11.65-15.1Z"/><path class="cls-1" d="M337.63,311.09c-.41-2.08-2.46-3.7-4.57-3.63-2.1,.08-4.01,1.81-4.29,3.89-.3-2.07-2.23-3.8-4.33-3.85-2.12-.06-4.15,1.59-4.54,3.67-.28,1.52,.24,3.09,1.09,4.38,.85,1.28,2.02,2.33,3.17,3.35,1.61,1.44,3.11,2.79,4.72,4.22,1.6-1.45,2.96-2.81,4.56-4.26,1.14-1.04,2.3-2.09,3.14-3.38,.84-1.29,1.35-2.87,1.05-4.39Z"/><g><path class="cls-8" d="M356.44,139.09l3.09-.61,4.89-10.75-1.23-6.18s4.73-1.24,5.77,6.96c1.04,8.2,1.24,6.02,1.24,6.02,0,0,10.17-1.98,11.18-1.26,.74,.52,3.02,10.55,4.21,16,.6,2.74-.58,5.64-3.01,6.8-.35,.17-.7,.29-1.06,.36-2.53,.5-15.89,1.01-15.89,1.01l-5.35,1.06-3.85-19.41Z"/><polygon class="cls-8" points="347.25 139.15 353.35 159.94 358.65 158.89 354.54 138.14 347.25 139.15"/></g><path class="cls-10" d="M388.09,364.45c0,.12-80.92,.21-180.73,.21s-180.74-.1-180.74-.21,80.91-.21,180.74-.21,180.73,.1,180.73,.21Z"/><g><path class="cls-7" d="M325.23,130.92h0c-16.47,8.01-36.31,1.15-44.32-15.31h0c-8.01-16.47-1.15-36.31,15.31-44.32h0c16.47-8.01,36.31-1.15,44.32,15.31h0c8.01,16.47,1.15,36.31-15.31,44.32Z"/><path class="cls-4" d="M302.53,108.52c.56-.04,.89-.42,.77-1-.08-.4-.3-1.41-.38-1.83-.11-.58-.25-.73-.84-.99-1.29-.57-2.42-1.57-3.28-3.34-2.5-5.14-.89-11.61,5.28-14.61,5.46-2.66,10.09-.78,12.25,3.68,2.85,5.86,2.66,12.08-1.19,13.95-2.13,1.04-4.58,.05-5.12-2.36-.64-2.88-.81-6.23-1.71-8.09-.81-1.66-2.38-2.62-4.23-1.72-2.18,1.06-2.83,4.16-1.36,7.17,.93,1.92,2.22,2.9,2.22,2.9,0,0,2.36,10.52,2.77,12.36,.82,3.67,3.44,7.38,3.7,7.76,.15,.23,.49,.13,.54-.12,.07-.36,1.11-4.82,.43-8.44-.19-1.03-1.29-6.29-1.29-6.29,1.36,1,4,1.19,6.2,.12,6.54-3.18,8.08-11.3,4.2-19.28-2.93-6.03-10.78-9.17-18.54-5.39-9.66,4.7-11.17,14-8.36,19.78,1.7,3.5,4.54,5.97,7.94,5.74Z"/></g><g><path class="cls-7" d="M358.34,224.44h0c-11.8-4.51-17.71-17.73-13.2-29.52h0c4.51-11.8,17.73-17.71,29.52-13.2h0c11.8,4.51,17.71,17.73,13.2,29.52h0c-4.51,11.8-17.73,17.71-29.52,13.2Z"/><g><path class="cls-5" d="M378.44,206.97c2.2-6.23-.99-13.13-7.25-15.52-6.18-2.36-13.07,.55-15.66,6.53-.07,.16-.14,.33-.2,.5-.83,2.16-.99,4.4-.61,6.53l-4.41,5.33,7.14,.41c1.3,1.53,3,2.78,5.01,3.55,6.36,2.43,13.46-.72,15.87-7.02,.04-.1,.07-.19,.11-.29Zm-15.28,5.49c-1.97-.75-3.57-2.03-4.71-3.62l-4.17-.24,2.57-3.1c-.55-2.03-.49-4.23,.31-6.33,.12-.31,.26-.62,.4-.91,2.33-4.68,7.92-6.9,12.94-4.99,5.08,1.94,7.76,7.44,6.26,12.53-.07,.26-.16,.51-.25,.76-2.02,5.29-8.01,7.94-13.34,5.9Z"/><path class="cls-5" d="M371.22,207.18c-.23-.25-1.36-1.46-1.58-1.65-.22-.2-.39-.31-.69-.1-.3,.21-1.08,.63-1.31,.75-.24,.12-.41,.08-.64-.16-.23-.25-1.03-.89-1.74-2.26-.55-1.06-.77-2.19-.83-2.53-.05-.34,.15-.44,.34-.52,.18-.08,.41-.22,.61-.33,.06-.03,.11-.06,.15-.1,.1-.08,.19-.16,.31-.27,.17-.15,.18-.33,.17-.5-.02-.17-.06-1.76-.08-2.41-.02-.65-.29-.64-.46-.71-.16-.06-.34-.16-.53-.23-.19-.07-.52-.12-.89,.06-.37,.18-1.35,.58-1.88,1.96-.12,.32-.19,.67-.22,1.01-.09,1.09,.21,2.14,.27,2.32,.07,.24,.76,3.85,3.2,6.07,2.44,2.21,2.59,1.84,3.12,1.99,.53,.15,1.93-.04,2.41-.6,.49-.56,.7-1.12,.68-1.27-.03-.14-.19-.28-.41-.53Z"/></g></g><g><path class="cls-7" d="M61,118.76h0c-9.63,0-17.44-7.81-17.44-17.44h0c0-9.63,7.81-17.44,17.44-17.44h0c9.63,0,17.44,7.81,17.44,17.44h0c0,9.63-7.81,17.44-17.44,17.44Z"/><path class="cls-4" d="M51.71,107.16c1.69,1.08,3.69,1.71,5.84,1.71,7.08,0,11.08-5.98,10.84-11.34,.74-.54,1.39-1.21,1.9-1.97-.68,.3-1.42,.51-2.19,.6,.79-.47,1.39-1.22,1.68-2.11-.74,.44-1.55,.75-2.42,.93-.7-.74-1.69-1.2-2.78-1.2-2.46,0-4.27,2.3-3.71,4.68-3.17-.16-5.98-1.68-7.86-3.98-1,1.71-.52,3.96,1.18,5.09-.63-.02-1.21-.19-1.73-.48-.04,1.77,1.22,3.42,3.06,3.79-.54,.15-1.12,.18-1.72,.06,.48,1.52,1.89,2.62,3.56,2.65-1.6,1.26-3.62,1.82-5.64,1.58Z"/></g><g><path class="cls-9" d="M92.34,314.09h0c-16.13,3.84-32.33-6.12-36.17-22.26h0c-3.84-16.13,6.12-32.33,22.25-36.17h0c16.13-3.84,32.33,6.12,36.17,22.25h0c3.84,16.13-6.12,32.33-22.25,36.17Z"/><g><path class="cls-4" d="M82.25,271.74c4.28-1.02,4.79-1.12,6.49-1.45,1.58-.3,2.49-.24,3.11-.16,.82,.11,1.43,.33,2.13,.76,.69,.43,1.17,.88,1.64,1.56,.35,.51,.82,1.3,1.26,2.84,.48,1.67,.62,2.17,1.64,6.45,1.02,4.28,1.12,4.79,1.45,6.49,.3,1.58,.24,2.49,.16,3.11-.11,.82-.33,1.43-.76,2.13-.43,.69-.88,1.17-1.56,1.64-.51,.35-1.3,.82-2.84,1.26-1.67,.48-2.17,.62-6.45,1.63-4.28,1.02-4.79,1.12-6.49,1.45-1.58,.3-2.49,.24-3.11,.16-.82-.11-1.43-.33-2.13-.76-.69-.43-1.17-.88-1.64-1.56-.35-.51-.82-1.3-1.26-2.84-.48-1.67-.62-2.17-1.64-6.45-1.02-4.28-1.12-4.79-1.45-6.49-.3-1.58-.24-2.49-.16-3.11,.11-.82,.33-1.43,.76-2.13,.43-.69,.88-1.17,1.56-1.64,.51-.35,1.3-.82,2.84-1.26,1.67-.48,2.17-.62,6.45-1.64m-.69-2.89c-4.35,1.04-4.89,1.19-6.58,1.67-1.69,.48-2.79,1.03-3.71,1.67-.96,.66-1.72,1.42-2.4,2.52-.68,1.1-1.01,2.13-1.17,3.28-.15,1.11-.15,2.34,.18,4.07,.33,1.73,.44,2.28,1.48,6.63,1.04,4.35,1.18,4.89,1.67,6.58,.48,1.69,1.03,2.79,1.67,3.71,.66,.96,1.42,1.72,2.52,2.4,1.1,.68,2.13,1.01,3.28,1.17,1.11,.15,2.34,.15,4.07-.18,1.73-.33,2.28-.44,6.63-1.48,4.35-1.04,4.89-1.18,6.58-1.67,1.69-.48,2.79-1.03,3.71-1.67,.96-.66,1.72-1.42,2.4-2.52,.68-1.1,1.01-2.13,1.17-3.28,.15-1.11,.15-2.34-.18-4.07-.33-1.73-.44-2.28-1.48-6.63-1.04-4.35-1.18-4.89-1.67-6.58-.48-1.69-1.03-2.79-1.67-3.71-.66-.96-1.42-1.72-2.52-2.4-1.1-.68-2.13-1.01-3.28-1.17-1.11-.15-2.34-.15-4.07,.18-1.73,.33-2.28,.44-6.63,1.48"/><path class="cls-4" d="M83.42,276.65c-4.54,1.08-7.35,5.64-6.27,10.19,1.08,4.54,5.64,7.35,10.19,6.27,4.54-1.08,7.35-5.64,6.27-10.19-1.08-4.54-5.64-7.35-10.19-6.27m3.23,13.57c-2.95,.7-5.91-1.12-6.61-4.07-.7-2.95,1.12-5.91,4.07-6.61,2.95-.7,5.91,1.12,6.61,4.07,.7,2.95-1.12,5.91-4.07,6.61"/><path class="cls-4" d="M93.81,273.83c.25,1.06-.4,2.13-1.46,2.38-1.06,.25-2.13-.4-2.38-1.46-.25-1.06,.4-2.13,1.46-2.38,1.06-.25,2.13,.4,2.38,1.46"/></g></g><g><path class="cls-9" d="M319.82,287.66h0c-7.74,0-14.01-6.27-14.01-14.01h0c0-7.73,6.27-14.01,14.01-14.01h0c7.73,0,14.01,6.27,14.01,14.01h0c0,7.74-6.27,14.01-14.01,14.01Z"/><path class="cls-4" d="M317.69,282.12h3.41v-8.54h2.38l.25-2.86h-2.63v-1.63c0-.67,.14-.94,.79-.94h1.85v-2.97h-2.36c-2.54,0-3.68,1.12-3.68,3.26v2.28h-1.77v2.89h1.77v8.5Z"/></g><g><g><g><path class="cls-10" d="M272.05,365.04l-112.52-.07c-13.53,0-24.5-10.98-24.5-24.51l.06-282.08c0-13.54,10.98-24.51,24.52-24.51l112.52,.07c13.53,0,24.5,10.98,24.5,24.51l-.06,282.09c0,13.54-10.98,24.51-24.52,24.5Z"/><path class="cls-4" d="M272.02,43.91h-21.82c-2.93-.01-5.3,2.46-5.3,5.52v3.96c0,3.06-2.37,5.54-5.3,5.53l-42.52-.03c-2.93,0-5.3-2.48-5.3-5.54v-3.96c0-3.06-2.37-5.54-5.3-5.54h-7.67s-19.09-.02-19.09-.02c-9.48,0-17.17,7.68-17.18,17.16l-.05,275.34c0,9.48,7.68,17.16,17.16,17.17l112.29,.07c9.48,0,17.17-7.68,17.18-17.16l.05-275.34c0-9.48-7.68-17.16-17.16-17.17Z"/></g><g><path class="cls-10" d="M273.66,66.28c0,.07-2.84,.16-6.34,.19-3.5,.03-6.34,0-6.34-.08,0-.07,2.84-.16,6.34-.19,3.5-.03,6.34,0,6.34,.08Z"/><path class="cls-10" d="M273.69,69.52c0,.07-2.84,.16-6.34,.19-3.5,.03-6.34,0-6.34-.08,0-.07,2.84-.16,6.34-.19,3.5-.03,6.34,0,6.34,.08Z"/><path class="cls-10" d="M273.72,72.76c0,.07-2.84,.16-6.34,.19-3.5,.03-6.34,0-6.34-.08,0-.07,2.84-.16,6.34-.19,3.5-.03,6.34,0,6.34,.08Z"/></g><path class="cls-10" d="M154.34,75.93s.12-.01,.33-.02c.26,0,.57-.02,.92-.03,.87-.02,2.01-.05,3.41-.08l-.09,.1c-.01-.76-.03-1.58-.04-2.47,0-.46-.04-.89,0-1.42,.09-.53,.56-1,1.14-1.05,.55-.01,1.03-.04,1.63,0,.61,.07,1.14,.67,1.12,1.32,.01,1.15,.03,2.36,.04,3.61l-.16-.16c1.38-.01,2.82-.03,4.3-.04l-.16,.17c-.02-1.73-.03-3.52-.05-5.36,0-.46,0-.91-.01-1.37,0-.42-.26-.7-.6-1.02-.64-.63-1.26-1.25-1.88-1.85-.62-.61-1.22-1.2-1.81-1.79-.3-.29-.59-.58-.88-.87-.3-.29-.54-.59-.89-.66-.34-.09-.71-.02-.99,.19-.26,.22-.54,.53-.8,.79-.53,.53-1.04,1.05-1.54,1.56-.97,1.01-1.98,1.93-2.72,2.8-.31,.48-.19,1.07-.22,1.61,0,.53,0,1.04,0,1.52,0,.93-.01,1.74-.02,2.44,0,.62-.01,1.14-.02,1.56,0,.36-.01,.55-.02,.56,0,0-.02-.17-.03-.52-.01-.42-.03-.92-.04-1.54-.02-.7-.03-1.52-.06-2.46,0-.49-.02-1-.03-1.55,0-.28,0-.56-.01-.85,0-.31,.08-.62,.24-.9,.8-.98,1.75-1.84,2.72-2.88,.5-.51,1.01-1.03,1.53-1.57,.28-.27,.5-.54,.83-.82,.34-.26,.82-.36,1.25-.25,.46,.1,.76,.48,1.03,.74,.29,.29,.59,.57,.88,.86,.6,.58,1.2,1.18,1.82,1.78,.62,.61,1.25,1.22,1.88,1.85,.15,.16,.33,.3,.48,.52,.14,.21,.22,.47,.23,.73,0,.45,0,.91,.01,1.37,.01,1.84,.03,3.63,.04,5.36v.17s-.16,0-.16,0c-1.48,0-2.92,.02-4.3,.03h-.16s0-.16,0-.16c0-1.25-.01-2.45-.02-3.61,.02-.52-.39-.98-.87-1.04-.49-.03-1.08,0-1.56,0-.46,.04-.85,.41-.93,.84-.04,.43,0,.94-.02,1.37,0,.89,0,1.72,0,2.47v.1s-.09,0-.09,0c-1.42-.01-2.58-.02-3.47-.02-.35,0-.65-.01-.9-.02-.2,0-.3-.01-.3-.02Z"/><g><g><path class="cls-9" d="M228.57,291.07s-.42,.06-1.18,.08c-.84,.02-1.92,.04-3.22,.07-2.71,.04-6.46,.06-10.61,.06s-7.89-.02-10.61-.06c-1.3-.03-2.38-.05-3.21-.07-.76-.03-1.18-.05-1.18-.08s.42-.06,1.18-.08c.84-.02,1.92-.04,3.21-.07,2.71-.04,6.47-.06,10.61-.06s7.89,.02,10.61,.06c1.3,.03,2.38,.05,3.22,.07,.76,.03,1.18,.05,1.18,.08Z"/><path class="cls-9" d="M275.73,298.45c0,.12-17.27,.21-38.58,.21s-38.58-.1-38.58-.21,17.27-.21,38.58-.21,38.58,.1,38.58,.21Z"/><path class="cls-9" d="M251.61,305.4c0,.12-11.88,.21-26.52,.21s-26.53-.1-26.53-.21,11.87-.21,26.53-.21,26.52,.1,26.52,.21Z"/></g><path class="cls-10" d="M277.25,318.92l-2.4-2.4-2.28,2.28v-6.88s4.69,0,4.69,0v7Zm-2.41-2.7l.08,.07,2.11,2.12v-6.28s-4.25,0-4.25,0v6.16s2.06-2.07,2.06-2.07Z"/><path class="cls-10" d="M213.41,318.02l-.85-.38c-.41,.22-.77,.33-1.1,.33-1.3,.01-2.36-1.04-2.37-2.33-.01-1.3,1.04-2.36,2.33-2.37,1.3-.01,2.36,1.04,2.37,2.33,0,.58-.2,1.13-.58,1.57l.2,.85Zm-1.98-4.58c-1.21,0-2.18,1-2.17,2.21,0,1.21,1,2.18,2.21,2.17,.31,0,.65-.11,1.05-.33l.04-.02,.62,.28-.14-.61,.03-.03c.37-.41,.58-.94,.57-1.49,0-1.21-1-2.18-2.21-2.17Z"/><path class="cls-10" d="M218.85,317.66l-.97-2.37-1.82-1.66,4.41-.04-1.62,4.06Zm-2.38-3.87l1.55,1.42,.83,2.02,1.39-3.47-3.76,.03Z"/><rect class="cls-10" x="217.79" y="314.37" width="2.87" height=".16" transform="translate(-136.03 170.47) rotate(-33.05)"/><path class="cls-7" d="M206.47,314.13c-.13-.63-.75-1.12-1.39-1.1-.64,.03-1.21,.55-1.3,1.19-.09-.63-.68-1.15-1.32-1.16-.64-.02-1.26,.49-1.37,1.12-.08,.46,.07,.94,.34,1.33,.26,.39,.62,.7,.97,1.01,.49,.43,.95,.84,1.44,1.28,.48-.44,.9-.86,1.38-1.3,.35-.32,.7-.64,.95-1.03,.25-.39,.41-.87,.31-1.33Z"/><path class="cls-10" d="M282.17,325s0-.26-.01-.77c0-.51,0-1.26-.01-2.23,0-1.97-.02-4.86-.03-8.62-.02-7.5-.04-18.41-.08-32.1l.14,.14c-31.4,.02-78.26,.04-130.49,.07h0l.21-.21c0,15.19,0,29.93,0,43.71l-.21-.21c37.57,.04,70.16,.07,93.38,.1,11.62,.02,20.89,.04,27.26,.06,3.18,.01,5.64,.02,7.31,.03,.83,0,1.46,.01,1.9,.01,.43,0,.65,.01,.65,.01,0,0-.21,0-.63,.01-.43,0-1.05,0-1.87,.01-1.66,0-4.11,.01-7.27,.03-6.36,.01-15.62,.03-27.21,.06-23.25,.02-55.9,.06-93.52,.1h-.21s0-.21,0-.21c0-13.79,0-28.52,0-43.71v-.21h.22c52.23,.03,99.1,.05,130.49,.07h.14v.14c-.03,13.72-.06,24.66-.08,32.18-.02,3.74-.03,6.62-.03,8.58,0,.97-.01,1.7-.01,2.21,0,.49-.01,.74-.01,.74Z"/><g><g><rect class="cls-1" x="160.63" y="285.07" width="28.9" height="36.15" transform="translate(-129.05 476.5) rotate(-89.67)"/><path class="cls-10" d="M193.24,288.8s-.06,0-.18,0c-.13,0-.3,0-.51,0-.47,0-1.13,0-1.97,.01-1.74,0-4.24,0-7.41,0-6.36-.01-15.37-.03-26.07-.05l.19-.19c-.04,8.6-.09,18.46-.14,28.9,.04,.05-.4-.4-.2-.21h0s.02,0,.02,0h.04s.08,0,.08,0h.16s.31,0,.31,0h.63s1.25,.01,1.25,.01c.83,0,1.65,0,2.47,.01,1.64,0,3.27,.02,4.87,.03,3.21,.02,6.34,.04,9.38,.06,6.07,.04,11.76,.09,16.93,.12l-.18,.18c.09-8.68,.16-15.88,.21-20.93,.03-2.51,.06-4.49,.08-5.87,.01-.66,.02-1.18,.03-1.55,0-.35,.02-.55,.02-.55,0,0,.01,.17,.02,.51,0,.37,0,.87,.01,1.52,0,1.37,0,3.33,.01,5.83,0,5.08-.02,12.32-.03,21.04v.18s-.18,0-.18,0c-5.17-.02-10.86-.04-16.93-.07-3.04-.01-6.17-.03-9.38-.05-1.6,0-3.23-.02-4.87-.03-.82,0-1.65,0-2.47-.01h-1.25s-.63-.01-.63-.01h-.31s-.16,0-.16,0h-.08s-.04,0-.04,0h-.02s0,0,0,0c.19,.19-.27-.26-.22-.22,.07-10.43,.13-20.29,.19-28.9v-.19s.19,0,.19,0c10.75,.1,19.81,.18,26.19,.24,3.15,.04,5.64,.07,7.37,.09,.83,.01,1.48,.03,1.94,.03,.2,0,.36,.01,.49,.01,.11,0,.16,0,.16,.01Z"/></g><rect class="cls-8" x="162.43" y="286.34" width="25.26" height="33.61" transform="translate(-129.08 476.48) rotate(-89.67)"/><polygon class="cls-3" points="158.18 315.68 170.01 300.05 177.23 309.91 182.19 304.69 191.79 315.87 158.18 315.68"/><path class="cls-3" d="M180.38,298.18c0,1.46-1.2,2.64-2.66,2.63s-2.64-1.2-2.63-2.66c0-1.46,1.2-2.64,2.66-2.63s2.64,1.2,2.63,2.66Z"/></g></g><g><g><path class="cls-10" d="M218.05,101.32s-.13,.03-.39,.04c-.3,.01-.67,.02-1.11,.04-1.03,.02-2.4,.04-4.07,.07-3.44,.04-8.19,.06-13.43,.06s-10-.02-13.43-.06c-1.67-.03-3.04-.05-4.07-.07-.44-.02-.8-.03-1.11-.04-.25-.01-.39-.03-.39-.04s.13-.03,.39-.04c.3-.01,.67-.02,1.11-.04,1.03-.02,2.4-.04,4.07-.07,3.44-.04,8.19-.06,13.43-.06s9.99,.02,13.43,.06c1.67,.03,3.04,.05,4.07,.07,.44,.02,.8,.03,1.11,.04,.25,.01,.39,.03,.39,.04Z"/><g><path class="cls-10" d="M271.45,261.08l-3.56-3.57-3.39,3.38,.02-10.23h6.95s-.02,10.42-.02,10.42Zm-3.56-4.02l.11,.11,3.14,3.15v-9.33s-6.31,0-6.31,0v9.15s3.06-3.07,3.06-3.07Z"/><path class="cls-10" d="M180.99,260.01l-1.67-.74c-.8,.44-1.51,.65-2.16,.66-2.55,.02-4.64-2.04-4.66-4.59-.02-2.55,2.04-4.64,4.59-4.66,2.55-.02,4.64,2.04,4.66,4.59,0,1.14-.4,2.23-1.15,3.08l.38,1.66Zm-3.89-9.02c-2.38,.02-4.29,1.97-4.27,4.34,.02,2.38,1.97,4.29,4.34,4.27,.61,0,1.29-.22,2.07-.65l.07-.04,1.23,.55-.28-1.21,.06-.06c.73-.81,1.13-1.85,1.12-2.93-.02-2.38-1.97-4.29-4.34-4.27Z"/><path class="cls-10" d="M191.7,259.29l-1.91-4.66-3.58-3.26,8.68-.07-3.19,7.99Zm-4.68-7.61l3.05,2.8,1.63,3.97,2.73-6.83-7.4,.06Z"/><rect class="cls-10" x="189.61" y="252.82" width="5.65" height=".32" transform="translate(-106.82 145.87) rotate(-33.05)"/><path class="cls-7" d="M167.33,252.34c-.25-1.24-1.48-2.21-2.74-2.16-1.25,.05-2.39,1.09-2.56,2.33-.19-1.24-1.34-2.26-2.59-2.29-1.26-.03-2.48,.96-2.71,2.2-.17,.91,.15,1.85,.66,2.61,.51,.77,1.21,1.38,1.9,1.99,.97,.85,1.86,1.66,2.83,2.51,.95-.87,1.76-1.69,2.72-2.56,.68-.62,1.37-1.25,1.87-2.02,.5-.77,.8-1.72,.62-2.62Z"/></g><circle class="cls-1" cx="166.54" cy="101.32" r="5.89"/></g><g><path class="cls-9" d="M269.23,227.3c0,.12-24.69,.21-55.15,.21s-55.15-.1-55.15-.21,24.69-.21,55.15-.21,55.15,.1,55.15,.21Z"/><path class="cls-9" d="M269.23,218.12c0,.12-24.69,.21-55.15,.21s-55.15-.1-55.15-.21,24.69-.21,55.15-.21,55.15,.1,55.15,.21Z"/><path class="cls-9" d="M218.97,236.61c0,.12-13.44,.21-30.02,.21s-30.02-.1-30.02-.21,13.44-.21,30.02-.21,30.02,.1,30.02,.21Z"/></g></g><g><path class="cls-10" d="M211.56,336.68c0,1.31-1.06,2.37-2.35,2.37-1.29,0-2.34-1.08-2.33-2.39,0-1.31,1.06-2.37,2.35-2.37,1.29,0,2.34,1.07,2.33,2.39Z"/><path class="cls-10" d="M218.82,336.71c0,1.31-1.06,2.37-2.35,2.37-1.29,0-2.34-1.07-2.33-2.39,0-1.31,1.06-2.37,2.35-2.37,1.29,0,2.34,1.07,2.33,2.39Z"/><path class="cls-10" d="M226.08,336.74c0,1.31-1.06,2.37-2.35,2.37-1.29,0-2.34-1.07-2.33-2.39,0-1.31,1.06-2.37,2.35-2.37,1.29,0,2.34,1.07,2.33,2.39Z"/></g></g><g><rect class="cls-8" x="152.45" y="112.98" width="130.5" height="79.81"/><polygon class="cls-3" points="164.49 192.8 201.89 142.75 225.07 174.05 240.79 157.31 271.6 192.77 164.49 192.8"/><path class="cls-3" d="M234.9,136.61c0,4.66-3.77,8.43-8.43,8.44-4.66,0-8.43-3.77-8.44-8.43,0-4.66,3.77-8.43,8.43-8.44,4.66,0,8.43,3.77,8.44,8.43Z"/></g><path class="cls-10" d="M282.6,266.96c0-1.71-.08-73.8-.19-180.54l.19,.19c-39.35,0-83.72,.01-130.49,.02h-.01l.21-.21c-.01,67.52-.03,130-.04,180.54l-.17-.17c79.14,.1,129.08,.17,130.5,.17-1.42,0-51.36,.07-130.5,.17h-.17s0-.17,0-.17c-.01-50.54-.02-113.02-.04-180.54v-.21s.21,0,.21,0h.01c46.77,0,91.13,.01,130.49,.02h.19s0,.19,0,.19c-.04,53.42-.07,98.57-.1,130.38-.02,15.88-.04,28.43-.05,37.01-.01,4.28-.02,7.57-.02,9.79,0,1.1,0,1.94-.01,2.51,0,.56-.01,.84-.01,.84Z"/></g><g><g><g><path class="cls-6" d="M221.28,289.35l2.89-9.7c.5-2.1,1.17-4.59,2.07-7.42,.81-2.55,2.88-5.22,4.78-7.15,2.95-3,4.35-3.02,6.33-4.61,.18-.12,.38-.28,.55-.37,.41-.22,.71-.52,.96-.83,1.71-1.85,.07-4.7-3.4-4.43-2.61,.2-6.87,.95-13.79,8.09-.09,.11-.18,.2-.26,.31-3.63,4.72-7.04-8.76-7.66-13.77-.4-3.26-3.92-5.26-7.11-4.08l-16.86,7.89c-1.39-.49-3.05-.41-4.92,.17-2.48,.92-3.86,3.47-3.21,5.95l6.84,27.3-20.08,66.83h43.29l9.58-64.16Z"/><g><g><path class="cls-7" d="M254.53,227.98l-13.38,26.22-6.69-1.86-33.63,27.36c-2.86,2.33-7.06,1.96-9.46-.84l-12.81-14.88s25.82-11.12,30.6-20.33c4.78-9.21-.74-11.3-.74-11.3l12.15-13.81,33.97,9.44Z"/><path class="cls-7" d="M237.17,174.41s-19.59-4.33-47.15-30.84c-27.56-26.51-40.52-61.71-43.89-61.53-3.37,.17-18.11-6.67-46.12,54.28-28.02,60.95-16.98,75.1-11.41,74.99,5.58-.11,43.43-10.66,67.08-7.98,23.65,2.69,54.04,15.01,54.04,15.01l27.45-43.93Z"/><path class="cls-7" d="M278.79,207.63l-6.68,12.71-2.99,5.69c-4.11,7.81-13.6,11.03-21.61,7.34l-41.98-14.63,24.45-55.82,41.95,22.35c8.05,4.29,11.13,14.28,6.88,22.35Z"/><g class="cls-11"><path d="M278.79,207.63l-6.68,12.71-2.99,5.69c-4.11,7.81-13.6,11.03-21.61,7.34l-41.98-14.63,24.45-55.82,41.95,22.35c8.05,4.29,11.13,14.28,6.88,22.35Z"/></g><path class="cls-7" d="M102.27,137.43c-14.91,33.02-21.12,62.44-13.86,65.71,7.25,3.28,25.22-20.83,40.14-53.85,14.91-33.02,21.12-62.44,13.86-65.71-7.25-3.28-25.22,20.83-40.14,53.85Z"/><g class="cls-13"><path d="M102.27,137.43c-14.91,33.02-21.12,62.44-13.86,65.71,7.25,3.28,25.22-20.83,40.14-53.85,14.91-33.02,21.12-62.44,13.86-65.71-7.25-3.28-25.22,20.83-40.14,53.85Z"/></g></g><polygon class="cls-7" points="282.39 225.99 271.01 222.42 278.05 209.03 286.59 214.33 282.39 225.99"/><g class="cls-12"><polygon points="278.05 209.03 271.01 222.42 273.35 223.15 279.07 209.66 278.05 209.03"/></g><path class="cls-7" d="M270.21,212.12c-.17,.37-5.85-1.84-12.68-4.93-6.84-3.09-12.25-5.9-12.08-6.26,.17-.37,5.84,1.84,12.68,4.93,6.84,3.09,12.25,5.9,12.08,6.26Z"/><path class="cls-7" d="M273.71,204.14c-.18,.36-5.32-1.8-11.48-4.84-6.16-3.04-11.01-5.79-10.83-6.15,.18-.36,5.32,1.8,11.48,4.84,6.16,3.03,11.01,5.79,10.83,6.15Z"/><path class="cls-7" d="M265.8,220.48c-.06,.19-1.41-.12-3.57-.78-1.08-.33-2.35-.75-3.77-1.24-1.4-.51-2.86-1.24-4.42-1.95-6.23-2.89-10.98-5.72-10.82-6.05,.18-.4,5.27,1.86,11.43,4.73,1.55,.7,2.98,1.47,4.33,2.04,1.36,.55,2.58,1.06,3.59,1.51,2.04,.9,3.28,1.56,3.22,1.76Z"/><path class="cls-7" d="M132.67,130.09s-17.02-10.56-26.34,12.44c-9.31,23,8.6,26.78,8.6,26.78,7.33-11.37,13.28-24.39,17.74-39.23Z"/><g class="cls-13"><path d="M150.78,102.68c.1,.02-.14,1.58-.67,4.39-.54,2.81-1.3,6.89-2.39,11.9-.72,2.47-1.51,5.16-2.35,8.05-.43,1.45-.87,2.94-1.32,4.48-.23,.77-.46,1.55-.7,2.34-.25,.79-.59,1.56-.88,2.35-1.23,3.16-2.51,6.48-3.85,9.92-.33,.86-.67,1.73-1.01,2.6-.33,.88-.8,1.71-1.2,2.57-.83,1.72-1.68,3.46-2.53,5.22-.86,1.76-1.7,3.5-2.54,5.22-.43,.85-.8,1.73-1.28,2.53-.48,.81-.95,1.61-1.42,2.41-1.88,3.18-3.7,6.24-5.42,9.16-.44,.72-.84,1.46-1.3,2.15-.48,.68-.95,1.34-1.42,2-.93,1.31-1.84,2.59-2.71,3.82-1.75,2.45-3.38,4.74-4.88,6.83-3.26,3.94-5.99,7.06-7.86,9.22-1.89,2.15-2.97,3.31-3.04,3.24-.08-.06,.85-1.34,2.61-3.61,1.82-2.3,4.37-5.54,7.5-9.51,1.44-2.11,3.01-4.41,4.7-6.88,.85-1.23,1.72-2.51,2.63-3.82,.45-.66,.91-1.32,1.38-2,.45-.69,.84-1.42,1.27-2.15,1.69-2.92,3.47-5.97,5.32-9.14,.46-.79,.93-1.59,1.4-2.4,.48-.8,.83-1.67,1.26-2.52,.83-1.7,1.66-3.43,2.51-5.18,.85-1.75,1.69-3.48,2.52-5.18,.4-.86,.87-1.68,1.2-2.55,.34-.87,.68-1.73,1.02-2.58,1.35-3.41,2.66-6.69,3.9-9.83,.3-.79,.64-1.55,.9-2.32,.24-.78,.48-1.56,.72-2.32,.48-1.52,.94-3,1.38-4.43,.9-2.85,1.74-5.52,2.51-7.96,1.18-4.91,2.15-8.9,2.83-11.75,.69-2.77,1.13-4.3,1.23-4.28Z"/></g></g><g class="cls-11"><path d="M182.64,262.15c1.55,2.82,3.14,5.68,5.44,7.94,2.3,2.25,5.45,3.85,8.66,3.53,3.2-.32,6.24-2.98,6.27-6.2,1.54,1.16,3.89,.53,5.17-.91s1.69-3.44,1.84-5.36c2.09,1.23,4.99,.25,6.38-1.73,1.39-1.98,1.48-4.65,.8-6.98-.68-2.33-2.02-4.39-3.35-6.42,1.61,.13,3.31,.24,4.75-.49,1.44-.73,2.41-2.63,1.57-4.01-.49-.81-1.44-1.21-2.34-1.49-2.52-.79-4.29-1.42-6.91-1.12-.61,0,1.05,6.92-15.41,16.37-9.72,5.58-12.87,6.87-12.87,6.87Z"/></g></g><path class="cls-2" d="M219.7,272.13c-.01,.08-1.11-.13-2.88-.09-1.77,.04-4.23,.43-6.67,1.6-2.44,1.17-4.29,2.85-5.42,4.2-1.15,1.35-1.67,2.34-1.74,2.3-.02-.01,.08-.27,.32-.71,.24-.44,.63-1.06,1.18-1.78,1.1-1.43,2.96-3.19,5.47-4.4,2.51-1.2,5.05-1.55,6.85-1.51,.9,.01,1.63,.1,2.13,.19,.5,.09,.76,.17,.76,.2Z"/><path class="cls-6" d="M183.71,257.77c2.65,2.55,4.46,5.36,7.25,7.92,1.26,1.17,3.23,3.37,4.92,3.67,1.69,.29,2.78,.07,3.45-1.51,.54-1.28-.43-3.03-1.11-4.09-1.77-2.78-3.47-4.95-4.79-7.11-.62-1.01,.18-1.22,.48-.75,1.28,1.32,3.18,2.47,4.32,3.91,1.57,1.97,1.85,4.58,5.94,3.76,.54-.11,1.08-.3,1.52-.63,1.54-1.18,1.61-3.23,.96-4.87-.51-1.29-1.4-2.38-2.28-3.45,1.74,1.97,3.65,4.04,6.42,4.26,1.61,.13,3.23-.62,3.88-2.1,.82-1.86-.36-3.66-1.54-5.12-2.09-2.58-4.43-4.96-6.96-7.11-.94-.8-2.15-1.25-3.38-1.25-1.43,0-3.23,.26-4.11,1.51-1.61,2.26-1.11,4.27-1.11,4.27,0,0-3.6-1.82-6.48,.08-2.89,1.91-3.6,5.18-3.6,5.18l-3.76,3.45Z"/><path class="cls-6" d="M202.84,242.49c-1.11-1.12-1.37-3.17-.51-4.86,.61-1.2,1.38-2.36,2.16-2.63,3.42-1.15,18.36,1.43,18.23,4.75-.14,3.41-1.23,4.9-9.34,3.73-1.43-.21-3.67-.49-3.67-.49l-1.96,2.94-4.92-3.44Z"/></g><path class="cls-2" d="M205.52,256.38c-.12,.07-1.26-2.25-3.58-4.33-2.3-2.11-4.72-3.01-4.66-3.14,.02-.05,.64,.11,1.58,.56,.94,.44,2.18,1.2,3.36,2.27,1.18,1.07,2.05,2.23,2.58,3.12,.53,.89,.75,1.5,.71,1.52Z"/><path class="cls-2" d="M208.03,246.19c-.07,.07-1.06-.74-2.41-1.56-.67-.41-1.29-.76-1.75-.97-.46-.22-.77-.28-.77-.34,0-.05,.35-.1,.87,.06,.52,.15,1.19,.46,1.87,.89,1.38,.84,2.28,1.83,2.18,1.92Z"/><path class="cls-2" d="M210.54,243.1c0,.09-1.31,.13-2.88-.32-.78-.24-1.44-.61-1.84-.96-.41-.35-.58-.64-.54-.68,.08-.07,1.01,.81,2.51,1.23,1.48,.43,2.77,.59,2.75,.73Z"/><path class="cls-2" d="M196.02,260.48s-.58-.64-1.36-1.77c-.8-1.1-1.82-2.75-3.49-3.96-1.67-1.21-3.63-1.5-4.94-1.31-1.34,.19-2.04,.74-2.08,.66-.01-.02,.14-.17,.48-.38,.33-.21,.86-.44,1.56-.58,1.37-.28,3.47-.03,5.24,1.26,1.76,1.29,2.75,3,3.49,4.14,.72,1.17,1.16,1.9,1.11,1.94Z"/><path class="cls-2" d="M207.45,293.53c.01,.12-2.72,.51-6.11,.88-3.39,.37-6.14,.57-6.15,.46-.01-.12,2.72-.51,6.11-.88,3.39-.37,6.14-.57,6.15-.46Z"/></g><g><polygon class="cls-7" points="336 22.14 336.92 23.83 338.6 24.75 336.92 25.67 336 27.36 335.08 25.67 333.39 24.75 335.08 23.83 336 22.14"/><polygon class="cls-7" points="355.26 63.9 356.18 65.58 357.87 66.51 356.18 67.43 355.26 69.11 354.34 67.43 352.65 66.51 354.34 65.58 355.26 63.9"/><polygon class="cls-7" points="46.53 175.3 47.46 176.99 49.14 177.91 47.46 178.83 46.53 180.51 45.61 178.83 43.93 177.91 45.61 176.99 46.53 175.3"/><polygon class="cls-7" points="310.73 32.52 312.85 36.41 316.74 38.54 312.85 40.67 310.73 44.56 308.6 40.67 304.71 38.54 308.6 36.41 310.73 32.52"/><polygon class="cls-7" points="63.8 148.83 65.92 152.71 69.8 154.84 65.92 156.96 63.8 160.84 61.68 156.96 57.8 154.84 61.68 152.71 63.8 148.83"/><polygon class="cls-7" points="360.5 241.43 362.62 245.31 366.5 247.43 362.62 249.55 360.5 253.43 358.38 249.55 354.5 247.43 358.38 245.31 360.5 241.43"/></g></svg>