<?xml version="1.0" encoding="UTF-8"?><svg id="Camada_1" xmlns="http://www.w3.org/2000/svg" viewBox="0 0 118.51 112.42"><defs><style>.cls-1{fill:#ebebeb;}.cls-2{fill:#eb996e;}.cls-3{fill:#f5f5f5;}.cls-4{fill:#fff;}.cls-5{fill:#ffbe9d;}.cls-6{fill:#e8505b;}.cls-7{fill:#e1e1e1;}.cls-8{fill:#375a64;}.cls-9{fill:#1a2e35;}.cls-10{opacity:.4;}.cls-11{opacity:.6;}.cls-12{opacity:.5;}</style></defs><polygon class="cls-1" points="93.73 55.23 94.67 56.95 96.4 57.89 94.67 58.83 93.73 60.55 92.79 58.83 91.07 57.89 92.79 56.95 93.73 55.23"/><polygon class="cls-7" points="96.4 46.73 96.82 47.5 97.6 47.93 96.82 48.35 96.4 49.13 95.97 48.35 95.19 47.93 95.97 47.5 96.4 46.73"/><path class="cls-9" d="M118.51,112.22s-26.53,.07-59.25,.07-59.26-.03-59.26-.07,26.52-.07,59.26-.07,59.25,.03,59.25,.07Z"/><g><g><g><path class="cls-9" d="M80.46,112.42l-36.89-.02c-4.44,0-8.03-3.6-8.03-8.04l.02-92.48c0-4.44,3.6-8.04,8.04-8.03l36.89,.02c4.44,0,8.03,3.6,8.03,8.04l-.02,92.48c0,4.44-3.6,8.04-8.04,8.03Z"/><path class="cls-4" d="M80.45,7.14h-7.15c-.96,0-1.74,.81-1.74,1.81v1.3c0,1-.78,1.82-1.74,1.81h-13.94c-.96,0-1.74-.82-1.74-1.82v-1.3c0-1-.78-1.82-1.74-1.82h-2.52s-6.26,0-6.26,0c-3.11,0-5.63,2.52-5.63,5.63l-.02,90.27c0,3.11,2.52,5.63,5.62,5.63l36.82,.02c3.11,0,5.63-2.52,5.63-5.63l.02-90.27c0-3.11-2.52-5.63-5.62-5.63Z"/></g><g><path class="cls-9" d="M80.99,14.47s-.93,.05-2.08,.06c-1.15,0-2.08,0-2.08-.03,0-.02,.93-.05,2.08-.06,1.15,0,2.08,0,2.08,.03Z"/><path class="cls-9" d="M81,15.53s-.93,.05-2.08,.06c-1.15,0-2.08,0-2.08-.03,0-.02,.93-.05,2.08-.06,1.15,0,2.08,0,2.08,.03Z"/><path class="cls-9" d="M81.01,16.6s-.93,.05-2.08,.06c-1.15,0-2.08,0-2.08-.03,0-.02,.93-.05,2.08-.06,1.15,0,2.08,0,2.08,.03Z"/></g><path class="cls-9" d="M41.87,17.63s.04,0,.11,0c.09,0,.19,0,.3-.01,.29,0,.66-.02,1.12-.03l-.03,.03c0-.25,0-.52-.01-.81,0-.15-.01-.29,0-.47,.03-.17,.18-.33,.38-.34,.18,0,.34-.01,.53,0,.2,.02,.37,.22,.37,.43,0,.38,0,.77,.01,1.18l-.05-.05c.45,0,.92,0,1.41-.01l-.05,.05c0-.57-.01-1.16-.02-1.76,0-.15,0-.3,0-.45,0-.14-.08-.23-.2-.33-.21-.21-.41-.41-.62-.61-.2-.2-.4-.4-.59-.59-.1-.1-.19-.19-.29-.28-.1-.1-.18-.19-.29-.22-.11-.03-.23,0-.32,.06-.09,.07-.18,.17-.26,.26-.17,.18-.34,.35-.51,.51-.32,.33-.65,.63-.89,.92-.1,.16-.06,.35-.07,.53,0,.17,0,.34,0,.5,0,.3,0,.57,0,.8,0,.2,0,.37,0,.51,0,.12,0,.18,0,.18,0,0,0-.06,0-.17,0-.14,0-.3-.01-.5,0-.23-.01-.5-.02-.81,0-.16,0-.33,0-.51,0-.09,0-.18,0-.28,0-.1,.03-.2,.08-.3,.26-.32,.57-.6,.89-.94,.16-.17,.33-.34,.5-.51,.09-.09,.16-.18,.27-.27,.11-.09,.27-.12,.41-.08,.15,.03,.25,.16,.34,.24,.1,.09,.19,.19,.29,.28,.2,.19,.39,.39,.6,.58,.2,.2,.41,.4,.62,.61,.05,.05,.11,.1,.16,.17,.05,.07,.07,.15,.07,.24,0,.15,0,.3,0,.45,0,.6,0,1.19,.01,1.76v.05s-.05,0-.05,0c-.49,0-.96,0-1.41,0h-.05s0-.05,0-.05c0-.41,0-.8,0-1.18,0-.17-.13-.32-.29-.34-.16,0-.35,0-.51,0-.15,.01-.28,.13-.3,.27-.01,.14,0,.31,0,.45,0,.29,0,.56,0,.81v.03s-.03,0-.03,0c-.47,0-.85,0-1.14,0-.12,0-.21,0-.3,0-.07,0-.1,0-.1,0Z"/><g><g><path class="cls-8" d="M66.21,88.17s-.14,.02-.39,.03c-.28,0-.63,.01-1.05,.02-.89,.01-2.12,.02-3.48,.02s-2.59,0-3.48-.02c-.42,0-.78-.02-1.05-.02-.25,0-.39-.02-.39-.03s.14-.02,.39-.03c.28,0,.63-.01,1.05-.02,.89-.01,2.12-.02,3.48-.02s2.59,0,3.48,.02c.42,0,.78,.02,1.05,.02,.25,0,.39,.02,.39,.03Z"/><path class="cls-8" d="M81.67,90.59s-5.66,.07-12.65,.07-12.65-.03-12.65-.07,5.66-.07,12.65-.07,12.65,.03,12.65,.07Z"/><path class="cls-8" d="M73.76,92.86s-3.89,.07-8.7,.07-8.7-.03-8.7-.07,3.89-.07,8.7-.07,8.7,.03,8.7,.07Z"/></g><path class="cls-9" d="M82.17,97.3l-.79-.79-.75,.75v-2.26s1.54,0,1.54,0v2.3Zm-.79-.89l.02,.02,.69,.69v-2.06s-1.39,0-1.39,0v2.02s.68-.68,.68-.68Z"/><path class="cls-9" d="M61.24,97l-.28-.12c-.13,.07-.25,.11-.36,.11-.42,0-.77-.34-.78-.76,0-.42,.34-.77,.76-.78,.42,0,.77,.34,.78,.76,0,.19-.07,.37-.19,.51l.06,.28Zm-.65-1.5c-.4,0-.72,.33-.71,.72,0,.4,.33,.71,.72,.71,.1,0,.21-.04,.35-.11h.01s.2,.08,.2,.08l-.05-.2h0c.12-.14,.19-.32,.19-.5,0-.4-.33-.72-.72-.71Z"/><path class="cls-9" d="M63.02,96.88l-.32-.78-.6-.54h1.45s-.53,1.32-.53,1.32Zm-.78-1.27l.51,.47,.27,.66,.45-1.14h-1.23Z"/><rect class="cls-9" x="62.67" y="95.8" width=".94" height=".05" transform="translate(-42.04 49.92) rotate(-33.04)"/><path class="cls-6" d="M58.96,95.73c-.04-.21-.25-.37-.46-.36-.21,0-.4,.18-.43,.39-.03-.21-.22-.38-.43-.38-.21,0-.41,.16-.45,.37-.03,.15,.02,.31,.11,.44s.2,.23,.32,.33c.16,.14,.31,.28,.47,.42,.16-.14,.29-.28,.45-.43,.11-.1,.23-.21,.31-.34,.08-.13,.13-.29,.1-.44Z"/><path class="cls-9" d="M83.78,99.29s0-.09,0-.25c0-.17,0-.41,0-.73,0-.65,0-1.59-.01-2.82,0-2.46-.01-6.04-.03-10.52l.05,.05c-10.29,0-25.66,.01-42.78,.02h0l.07-.07c0,4.98,0,9.81,0,14.33l-.07-.07c12.32,.01,23,.02,30.61,.03,3.81,0,6.85,.01,8.94,.02,1.04,0,1.85,0,2.4,0,.27,0,.48,0,.62,0,.14,0,.21,0,.21,0,0,0-.07,0-.21,0-.14,0-.35,0-.61,0-.55,0-1.35,0-2.38,0-2.09,0-5.12,.01-8.92,.02-7.62,0-18.33,.02-30.66,.03h-.07s0-.07,0-.07c0-4.52,0-9.35,0-14.33v-.07h.07c17.12,0,32.49,.02,42.78,.02h.05v.05c-.01,4.5-.02,8.09-.03,10.55,0,1.23,0,2.17-.01,2.81,0,.32,0,.56,0,.72,0,.16,0,.24,0,.24Z"/><g><g><rect class="cls-1" x="43.93" y="86.2" width="9.47" height="11.85" transform="translate(-43.73 140.27) rotate(-89.67)"/><path class="cls-9" d="M54.62,87.42s-.02,0-.06,0c-.04,0-.1,0-.17,0-.15,0-.37,0-.65,0-.57,0-1.39,0-2.43,0-2.08,0-5.04-.01-8.55-.02l.06-.06c-.01,2.82-.03,6.05-.05,9.47,.01,.02-.13-.13-.07-.07h0s0,0,0,0h.01s.03,0,.03,0h.05s.1,0,.1,0h.21s.41,0,.41,0c.27,0,.54,0,.81,0,.54,0,1.07,0,1.6,0,1.05,0,2.08,.01,3.07,.02,1.99,.01,3.86,.03,5.55,.04l-.06,.06c.03-2.85,.05-5.21,.07-6.86,.01-.82,.02-1.47,.03-1.92,0-.22,0-.39,0-.51,0-.12,0-.18,0-.18,0,0,0,.05,0,.17,0,.12,0,.29,0,.5,0,.45,0,1.09,0,1.91,0,1.67,0,4.04,0,6.9v.06s-.06,0-.06,0c-1.69,0-3.56-.01-5.55-.02-1,0-2.02,0-3.07-.02-.53,0-1.06,0-1.6,0-.27,0-.54,0-.81,0h-.41s-.21,0-.21,0h-.1s-.05,0-.05,0h-.03s-.01,0-.01,0h0s0,0,0,0c.06,.06-.09-.08-.07-.07,.02-3.42,.04-6.65,.06-9.47v-.06s.06,0,.06,0c3.53,.03,6.49,.06,8.59,.08,1.03,.01,1.85,.02,2.42,.03,.27,0,.48,0,.63,.01,.07,0,.12,0,.16,0,.04,0,.05,0,.05,0Z"/></g><rect class="cls-7" x="44.52" y="86.62" width="8.28" height="11.02" transform="translate(-43.74 140.27) rotate(-89.67)"/><polygon class="cls-3" points="43.13 96.24 47.01 91.11 49.37 94.34 51 92.63 54.15 96.3 43.13 96.24"/><path class="cls-3" d="M50.41,90.5c0,.48-.39,.87-.87,.86-.48,0-.87-.39-.86-.87,0-.48,.39-.87,.87-.86,.48,0,.87,.39,.86,.87Z"/></g></g><g><g><path class="cls-9" d="M62.76,25.96s-.04,0-.13,.01c-.1,0-.22,0-.36,.01-.34,0-.79,.01-1.33,.02-1.13,.01-2.68,.02-4.4,.02s-3.28,0-4.4-.02c-.55,0-1-.02-1.33-.02-.14,0-.26,0-.36-.01-.08,0-.13,0-.13-.01s.04,0,.13-.01c.1,0,.22,0,.36-.01,.34,0,.79-.01,1.33-.02,1.13-.01,2.68-.02,4.4-.02s3.28,0,4.4,.02c.55,0,1,.02,1.33,.02,.14,0,.26,0,.36,.01,.08,0,.13,0,.13,.01Z"/><g><path class="cls-9" d="M80.27,78.34l-1.17-1.17-1.11,1.11v-3.35s2.29,0,2.29,0v3.41Zm-1.17-1.32l.04,.04,1.03,1.03v-3.06s-2.07,0-2.07,0v3s1-1.01,1-1.01Z"/><path class="cls-9" d="M50.61,77.98l-.55-.24c-.26,.14-.5,.21-.71,.22-.84,0-1.52-.67-1.53-1.5,0-.84,.67-1.52,1.5-1.53,.84,0,1.52,.67,1.53,1.5,0,.37-.13,.73-.38,1.01l.13,.55Zm-1.28-2.96c-.78,0-1.41,.65-1.4,1.42,0,.78,.64,1.41,1.42,1.4,.2,0,.42-.07,.68-.21h.02s.4,.17,.4,.17l-.09-.4,.02-.02c.24-.26,.37-.61,.37-.96,0-.78-.64-1.41-1.42-1.4Z"/><path class="cls-9" d="M54.12,77.75l-.63-1.53-1.17-1.07,2.85-.02-1.05,2.62Zm-1.53-2.49l1,.92,.53,1.3,.89-2.24-2.43,.02Z"/><rect class="cls-9" x="53.44" y="75.62" width="1.85" height=".1" transform="translate(-32.49 41.92) rotate(-33.07)"/><path class="cls-6" d="M46.13,75.47c-.08-.41-.48-.72-.9-.71-.41,.02-.78,.36-.84,.76-.06-.41-.44-.74-.85-.75-.41,0-.81,.31-.89,.72-.05,.3,.05,.61,.22,.86,.17,.25,.4,.45,.62,.65,.32,.28,.61,.54,.93,.82,.31-.29,.58-.55,.89-.84,.22-.2,.45-.41,.61-.66,.16-.25,.26-.56,.2-.86Z"/></g><circle class="cls-1" cx="45.87" cy="25.96" r="1.93"/></g><g><path class="cls-8" d="M79.54,67.26s-8.1,.07-18.08,.07-18.08-.03-18.08-.07,8.09-.07,18.08-.07,18.08,.03,18.08,.07Z"/><path class="cls-8" d="M79.54,64.25s-8.1,.07-18.08,.07-18.08-.03-18.08-.07,8.09-.07,18.08-.07,18.08,.03,18.08,.07Z"/><path class="cls-8" d="M63.06,70.31s-4.41,.07-9.84,.07-9.84-.03-9.84-.07,4.41-.07,9.84-.07,9.84,.03,9.84,.07Z"/></g></g><g><path class="cls-9" d="M60.63,103.12c0,.43-.35,.78-.77,.78-.42,0-.77-.35-.76-.78,0-.43,.35-.78,.77-.78,.42,0,.77,.35,.77,.78Z"/><path class="cls-9" d="M63.01,103.13c0,.43-.35,.78-.77,.78-.42,0-.77-.35-.76-.78,0-.43,.35-.78,.77-.78,.42,0,.77,.35,.76,.78Z"/><path class="cls-9" d="M65.39,103.14c0,.43-.35,.78-.77,.78-.42,0-.77-.35-.76-.78,0-.43,.35-.78,.77-.78,.42,0,.77,.35,.76,.78Z"/></g></g><g><rect class="cls-7" x="41.25" y="29.78" width="42.79" height="26.17"/><polygon class="cls-3" points="45.2 55.95 57.46 39.54 65.06 49.8 70.21 44.31 80.32 55.94 45.2 55.95"/><path class="cls-3" d="M68.28,37.53c0,1.53-1.24,2.77-2.76,2.77-1.53,0-2.77-1.24-2.77-2.76,0-1.53,1.24-2.77,2.76-2.77,1.53,0,2.77,1.24,2.77,2.76Z"/></g><path class="cls-9" d="M83.92,80.26c0-.56-.03-24.2-.06-59.19l.06,.06c-12.9,0-27.45,0-42.78,0h0l.07-.07c0,22.13,0,42.62-.01,59.19l-.06-.06c25.95,.03,42.32,.06,42.78,.06-.47,0-16.84,.02-42.78,.06h-.06s0-.06,0-.06c0-16.57,0-37.05-.01-59.19v-.07s.07,0,.07,0h0c15.33,0,29.88,0,42.78,0h.06v.06c-.01,17.51-.02,32.32-.03,42.74,0,5.21-.01,9.32-.02,12.13,0,1.4,0,2.48,0,3.21,0,.36,0,.64,0,.82,0,.18,0,.28,0,.28Z"/></g><g><g><g><path class="cls-5" d="M63.82,87.6l.95-3.18c.17-.69,.38-1.5,.68-2.43,.27-.83,.95-1.71,1.57-2.34,.97-.98,1.43-.99,2.07-1.51,.06-.04,.13-.09,.18-.12,.13-.07,.23-.17,.32-.27,.56-.61,.02-1.54-1.11-1.45-.86,.07-2.25,.31-4.52,2.65-.03,.04-.06,.07-.09,.1-1.19,1.55-2.31-2.87-2.51-4.52-.13-1.07-1.29-1.72-2.33-1.34l-5.53,2.59c-.46-.16-1-.13-1.61,.05-.81,.3-1.27,1.14-1.05,1.95l2.24,8.95-6.58,21.91h14.19l3.14-21.04Z"/><g><g><path class="cls-6" d="M74.72,67.48l-4.39,8.6-2.19-.61-11.03,8.97c-.94,.76-2.31,.64-3.1-.28l-4.2-4.88s8.47-3.65,10.03-6.66c1.57-3.02-.24-3.7-.24-3.7l3.98-4.53,11.14,3.09Z"/><path class="cls-6" d="M69.03,49.92s-6.42-1.42-15.46-10.11c-9.04-8.69-13.28-20.23-14.39-20.17-1.11,.06-5.94-2.19-15.12,17.8-9.19,19.98-5.57,24.62-3.74,24.58,1.83-.04,14.24-3.5,21.99-2.62,7.75,.88,17.72,4.92,17.72,4.92l9-14.4Z"/><path class="cls-6" d="M82.67,60.81l-2.19,4.17-.98,1.87c-1.35,2.56-4.46,3.62-7.09,2.41l-13.76-4.8,8.02-18.3,13.75,7.33c2.64,1.41,3.65,4.68,2.26,7.33Z"/><g class="cls-10"><path d="M82.67,60.81l-2.19,4.17-.98,1.87c-1.35,2.56-4.46,3.62-7.09,2.41l-13.76-4.8,8.02-18.3,13.75,7.33c2.64,1.41,3.65,4.68,2.26,7.33Z"/></g><path class="cls-6" d="M24.8,37.8c-4.89,10.82-6.92,20.47-4.55,21.54,2.38,1.07,8.27-6.83,13.16-17.65,4.89-10.82,6.92-20.47,4.55-21.54-2.38-1.07-8.27,6.83-13.16,17.65Z"/><g class="cls-12"><path d="M24.8,37.8c-4.89,10.82-6.92,20.47-4.55,21.54,2.38,1.07,8.27-6.83,13.16-17.65,4.89-10.82,6.92-20.47,4.55-21.54-2.38-1.07-8.27,6.83-13.16,17.65Z"/></g></g><polygon class="cls-6" points="83.85 66.83 80.12 65.66 82.43 61.27 85.23 63.01 83.85 66.83"/><g class="cls-11"><polygon points="82.43 61.27 80.12 65.66 80.89 65.9 82.77 61.48 82.43 61.27"/></g><path class="cls-6" d="M79.86,62.28c-.05,.12-1.92-.6-4.16-1.62-2.24-1.01-4.02-1.93-3.96-2.05,.05-.12,1.92,.6,4.16,1.62,2.24,1.01,4.02,1.93,3.96,2.05Z"/><path class="cls-6" d="M81.01,59.67c-.06,.12-1.74-.59-3.76-1.59-2.02-1-3.61-1.9-3.55-2.02,.06-.12,1.74,.59,3.76,1.59,2.02,.99,3.61,1.9,3.55,2.02Z"/><path class="cls-6" d="M78.41,65.02c-.02,.06-.46-.04-1.17-.26-.35-.11-.77-.25-1.23-.41-.46-.17-.94-.41-1.45-.64-2.04-.95-3.6-1.87-3.55-1.98,.06-.13,1.73,.61,3.75,1.55,.51,.23,.98,.48,1.42,.67,.45,.18,.84,.35,1.18,.5,.67,.3,1.07,.51,1.05,.58Z"/><path class="cls-6" d="M34.77,35.39s-5.58-3.46-8.64,4.08c-3.05,7.54,2.82,8.78,2.82,8.78,2.4-3.73,4.36-8,5.82-12.86Z"/><g class="cls-12"><path d="M40.7,26.4s-.05,.52-.22,1.44c-.18,.92-.43,2.26-.78,3.9-.24,.81-.49,1.69-.77,2.64-.14,.47-.28,.96-.43,1.47-.07,.25-.15,.51-.23,.77-.08,.26-.19,.51-.29,.77-.4,1.04-.82,2.13-1.26,3.25-.11,.28-.22,.57-.33,.85-.11,.29-.26,.56-.39,.84-.27,.56-.55,1.13-.83,1.71-.28,.58-.56,1.15-.83,1.71-.14,.28-.26,.57-.42,.83-.16,.27-.31,.53-.47,.79-.62,1.04-1.21,2.05-1.78,3-.14,.24-.28,.48-.43,.7-.16,.22-.31,.44-.46,.66-.31,.43-.6,.85-.89,1.25-.57,.8-1.11,1.55-1.6,2.24-1.07,1.29-1.96,2.31-2.58,3.02-.62,.7-.97,1.08-1,1.06-.03-.02,.28-.44,.85-1.18,.6-.76,1.43-1.82,2.46-3.12,.47-.69,.99-1.45,1.54-2.26,.28-.4,.57-.82,.86-1.25,.15-.22,.3-.43,.45-.65,.15-.22,.27-.47,.42-.7,.56-.96,1.14-1.96,1.74-3,.15-.26,.3-.52,.46-.79,.16-.26,.27-.55,.41-.83,.27-.56,.55-1.13,.82-1.7,.28-.57,.55-1.14,.83-1.7,.13-.28,.28-.55,.39-.84,.11-.28,.22-.57,.33-.85,.44-1.12,.87-2.19,1.28-3.22,.1-.26,.21-.51,.3-.76,.08-.26,.16-.51,.24-.76,.16-.5,.31-.98,.45-1.45,.3-.94,.57-1.81,.82-2.61,.39-1.61,.7-2.92,.93-3.85,.23-.91,.37-1.41,.4-1.4Z"/></g></g><g class="cls-10"><path d="M51.15,78.68c.51,.92,1.03,1.86,1.78,2.6,.75,.74,1.79,1.26,2.84,1.16,1.05-.11,2.04-.98,2.06-2.03,.5,.38,1.28,.17,1.69-.3s.55-1.13,.6-1.76c.68,.4,1.64,.08,2.09-.57,.46-.65,.49-1.53,.26-2.29-.22-.76-.66-1.44-1.1-2.1,.53,.04,1.09,.08,1.56-.16,.47-.24,.79-.86,.51-1.31-.16-.26-.47-.4-.77-.49-.83-.26-1.41-.47-2.27-.37-.2,0,.34,2.27-5.05,5.37-3.19,1.83-4.22,2.25-4.22,2.25Z"/></g></g><path class="cls-2" d="M63.3,81.96s-.36-.04-.95-.03c-.58,.01-1.39,.14-2.19,.52-.8,.38-1.41,.93-1.78,1.38-.38,.44-.55,.77-.57,.75,0,0,.03-.09,.11-.23,.08-.15,.21-.35,.39-.58,.36-.47,.97-1.05,1.79-1.44,.82-.39,1.66-.51,2.25-.5,.3,0,.53,.03,.7,.06,.16,.03,.25,.06,.25,.06Z"/><path class="cls-5" d="M51.5,77.25c.87,.83,1.46,1.76,2.38,2.6,.41,.38,1.06,1.11,1.61,1.2,.56,.1,.91,.02,1.13-.5,.18-.42-.14-.99-.36-1.34-.58-.91-1.14-1.62-1.57-2.33-.2-.33,.06-.4,.16-.25,.42,.43,1.04,.81,1.42,1.28,.51,.65,.61,1.5,1.95,1.23,.18-.04,.35-.1,.5-.21,.51-.39,.53-1.06,.31-1.6-.17-.42-.46-.78-.75-1.13,.57,.65,1.2,1.32,2.1,1.4,.53,.04,1.06-.2,1.27-.69,.27-.61-.12-1.2-.5-1.68-.69-.85-1.45-1.63-2.28-2.33-.31-.26-.7-.41-1.11-.41-.47,0-1.06,.09-1.35,.49-.53,.74-.36,1.4-.36,1.4,0,0-1.18-.6-2.13,.03-.95,.63-1.18,1.7-1.18,1.7l-1.23,1.13Z"/><path class="cls-5" d="M57.77,72.24c-.36-.37-.45-1.04-.17-1.59,.2-.39,.45-.77,.71-.86,1.12-.38,6.02,.47,5.98,1.56-.05,1.12-.4,1.61-3.06,1.22-.47-.07-1.2-.16-1.2-.16l-.64,.96-1.61-1.13Z"/></g><path class="cls-2" d="M58.65,76.79s-.41-.74-1.17-1.42c-.75-.69-1.55-.99-1.53-1.03,0-.02,.21,.04,.52,.18,.31,.14,.71,.39,1.1,.74,.39,.35,.67,.73,.85,1.02,.17,.29,.25,.49,.23,.5Z"/><path class="cls-2" d="M59.47,73.45s-.35-.24-.79-.51c-.22-.14-.42-.25-.57-.32-.15-.07-.25-.09-.25-.11,0-.02,.12-.03,.29,.02,.17,.05,.39,.15,.61,.29,.45,.28,.75,.6,.72,.63Z"/><path class="cls-2" d="M60.3,72.44s-.43,.04-.94-.11c-.26-.08-.47-.2-.6-.32-.13-.11-.19-.21-.18-.22,.03-.02,.33,.27,.82,.4,.49,.14,.91,.19,.9,.24Z"/><path class="cls-2" d="M55.54,78.14s-.19-.21-.45-.58c-.26-.36-.6-.9-1.14-1.3-.55-.4-1.19-.49-1.62-.43-.44,.06-.67,.24-.68,.22,0,0,.05-.06,.16-.12,.11-.07,.28-.15,.51-.19,.45-.09,1.14,0,1.72,.41,.58,.42,.9,.98,1.14,1.36,.24,.38,.38,.62,.36,.64Z"/><path class="cls-2" d="M59.28,88.97s-.89,.17-2,.29c-1.11,.12-2.01,.19-2.02,.15,0-.04,.89-.17,2-.29,1.11-.12,2.01-.19,2.02-.15Z"/></g><g><polygon class="cls-6" points="101.43 0 101.73 .55 102.28 .85 101.73 1.16 101.43 1.71 101.13 1.16 100.57 .85 101.13 .55 101.43 0"/><polygon class="cls-6" points="107.74 13.69 108.04 14.24 108.6 14.54 108.04 14.85 107.74 15.4 107.44 14.85 106.89 14.54 107.44 14.24 107.74 13.69"/><polygon class="cls-6" points="6.53 50.21 6.83 50.76 7.38 51.07 6.83 51.37 6.53 51.92 6.23 51.37 5.67 51.07 6.23 50.76 6.53 50.21"/><polygon class="cls-6" points="93.14 3.4 93.84 4.68 95.12 5.38 93.84 6.07 93.14 7.35 92.45 6.07 91.17 5.38 92.45 4.68 93.14 3.4"/><polygon class="cls-6" points="12.19 41.53 12.88 42.81 14.16 43.5 12.88 44.2 12.19 45.47 11.49 44.2 10.22 43.5 11.49 42.81 12.19 41.53"/><polygon class="cls-6" points="109.46 71.89 110.16 73.16 111.43 73.86 110.16 74.56 109.46 75.83 108.76 74.56 107.49 73.86 108.76 73.16 109.46 71.89"/></g></svg>