<?xml version="1.0" encoding="UTF-8"?><svg id="Camada_1" xmlns="http://www.w3.org/2000/svg" viewBox="0 0 117.83 112.41"><defs><style>.cls-1{opacity:.05;}.cls-2{opacity:.1;}.cls-3{fill:#ebebeb;}.cls-4{fill:#f0f0f0;}.cls-5{fill:#f5f5f5;}.cls-6{fill:#e7e7e7;}.cls-7,.cls-8,.cls-9{fill:#fff;}.cls-10{fill:#fafafa;}.cls-11{fill:#ffaaa8;}.cls-12{fill:#ff9090;}.cls-13{fill:#b0494c;}.cls-14{fill:#d268cc;}.cls-15,.cls-16{fill:#c76668;}.cls-17{fill:#e1e1e1;}.cls-18{fill:#375a64;}.cls-19{fill:#1a2e35;}.cls-20{fill:#2b454e;}.cls-21{opacity:.15;}.cls-8{opacity:.6;}.cls-16{opacity:.5;}.cls-9{opacity:.3;}</style></defs><ellipse id="Floor" class="cls-10" cx="59.31" cy="78.63" rx="58.52" ry="33.79"/><g id="Window"><g id="Window-2"><g id="Frame"><polygon class="cls-10" points="111.97 49.31 111.41 49.65 92.28 38.6 92.85 38.27 111.97 49.31"/><polygon class="cls-7" points="92.85 38.27 111.41 48.99 111.41 13.21 92.85 2.49 92.85 38.27"/><path class="cls-4" d="M91.22,39.22l21.25,12.27V12.6S91.22,.33,91.22,.33V39.22Zm1.06-37.05l19.13,11.04V49.65s-19.13-11.04-19.13-11.04V2.16Z"/><polygon class="cls-17" points="92.28 38.6 92.85 38.27 92.85 2.49 92.28 2.16 92.28 38.6"/><polygon class="cls-10" points="111.41 38.03 111.41 38.69 92.28 27.65 92.85 27.32 111.41 38.03"/><polygon class="cls-10" points="111.41 22.28 111.41 22.94 92.28 11.9 92.85 11.56 111.41 22.28"/><polygon class="cls-10" points="91.22 .33 91.79 0 113.04 12.27 112.47 12.6 91.22 .33"/><polygon class="cls-17" points="113.04 12.27 112.47 12.6 112.47 51.48 113.04 51.16 113.04 12.27"/><polygon class="cls-17" points="103.23 8.48 102.66 8.16 102.66 44.6 103.23 44.27 103.23 8.48"/></g><polygon class="cls-4" points="101.6 7.55 102.66 8.16 102.66 44.6 101.6 43.98 101.6 7.55"/><g><polygon class="cls-4" points="91.22 11.28 91.22 12.51 112.47 24.78 112.47 23.55 91.22 11.28"/><polygon class="cls-4" points="91.22 27.04 91.22 28.26 112.47 40.53 112.47 39.3 91.22 27.04"/></g><polygon class="cls-10" points="102.66 17.89 103.23 17.56 111.41 22.28 111.41 22.94 102.66 17.89"/><polygon class="cls-10" points="102.66 33.63 103.23 33.3 111.41 38.03 111.41 38.69 102.66 33.63"/></g></g><g id="Shelf"><g id="Shelf-2"><polygon class="cls-2" points="4.03 42.11 4.03 46.74 25.72 34.23 25.72 29.18 4.03 42.11"/><g><polygon class="cls-18" points="25.72 28.34 4.03 40.84 10.66 44.65 32.35 32.15 25.72 28.34"/><g><polygon class="cls-10" points="25.72 28.34 4.03 40.84 10.66 44.65 32.35 32.15 25.72 28.34"/><path class="cls-17" d="M25.72,28.65l6.08,3.5-21.14,12.19-6.08-3.5,21.14-12.19m0-.31L4.03,40.84l6.63,3.81,21.68-12.51-6.63-3.81h0Z"/></g><polygon class="cls-4" points="32.35 32.15 32.35 33.41 10.66 45.92 10.66 44.65 32.35 32.15"/><polygon class="cls-17" points="4.03 40.84 10.66 44.65 10.66 45.92 4.03 42.11 4.03 40.84"/></g></g><g id="Pot"><path id="Shadow" class="cls-17" d="M27.61,31.21c1.34,.77,1.34,2.02,0,2.8-1.34,.77-3.51,.77-4.84,0-1.34-.77-1.34-2.02,0-2.8,1.34-.77,3.51-.77,4.84,0Z"/><g><path class="cls-5" d="M23.01,33.16c-1.17-1.19-1.85-4.16-.71-5.1h5.78c1.14,.94,.45,3.91-.71,5.1,0,.01-.02,.02-.03,.03-.01,.01-.03,.03-.04,.04-.03,.03-.07,.06-.11,.09,0,0-.02,.01-.03,.02-.03,.02-.06,.04-.09,.07-.05,.04-.1,.07-.15,.1-.96,.55-2.51,.55-3.47,0h0c-.05-.03-.1-.06-.15-.1-.03-.02-.06-.04-.08-.06-.01,0-.02-.02-.03-.03-.04-.03-.07-.06-.1-.09-.02-.01-.03-.03-.05-.05,0,0-.02-.02-.03-.03Z"/><path class="cls-7" d="M27.58,27.61c1.32,.76,1.32,2,0,2.76-1.32,.76-3.46,.76-4.78,0-1.32-.76-1.32-2,0-2.76,1.32-.76,3.46-.76,4.78,0Z"/><path class="cls-3" d="M26.65,28.15c.8,.46,.8,1.21,0,1.68-.8,.46-2.1,.46-2.91,0-.8-.46-.8-1.21,0-1.68,.8-.46,2.1-.46,2.91,0Z"/><path class="cls-17" d="M23.74,28.95c.8-.46,2.1-.46,2.91,0,.22,.13,.38,.28,.48,.44-.1,.16-.26,.31-.48,.44-.8,.46-2.1,.46-2.91,0-.22-.13-.38-.28-.48-.44,.1-.16,.26-.31,.48-.44Z"/></g><path class="cls-3" d="M26.47,29.39s.57-.54,1.05-1.4c.49-.86,.58-2.01,.32-2.15-.25-.14-1.27,1.01-1.27,1.01,0,0,.15-.7,.11-1.47-.04-.76-.23-1.46-.45-1.6-.22-.14-.71,.82-.92,1.52-.21,.7-.34,1.27-.34,1.27,0,0-.14-.94-.38-1.61-.25-.73-.49-.89-.67-.82-.18,.07-.3,.41-.35,1.38-.04,.68,.04,1.38,.04,1.38,0,0-.36-.4-.76-.78-.44-.42-.63-.48-.75-.4-.13,.08-.16,.74,.52,1.97,.6,1.09,1.28,1.69,1.28,1.69,0,0,.94,.61,2.55,0Z"/></g><g id="Plate"><path class="cls-17" d="M19.81,30.03c0,3.85-2.7,8.52-6.03,10.44h0l.3,.17c-1.74,1.01-3.31,1.06-4.41,.33-1.18-.59-1.92-1.97-1.92-3.98,0-3.85,2.7-8.52,6.03-10.44,3.33-1.92,6.03-.36,6.03,3.48Z"/><g><path class="cls-10" d="M20.11,30.2c0-3.85-2.7-5.4-6.03-3.48-3.33,1.92-6.03,6.6-6.03,10.44,0,3.85,2.7,5.4,6.03,3.48,3.33-1.92,6.03-6.6,6.03-10.44Z"/><path class="cls-17" d="M16.78,26.1c1.93,0,3.13,1.57,3.13,4.1,0,3.77-2.66,8.38-5.93,10.26-.91,.53-1.79,.8-2.59,.8-.92,0-1.7-.36-2.25-1.05-.58-.72-.88-1.78-.88-3.05,0-3.77,2.66-8.38,5.93-10.26,.91-.53,1.79-.8,2.59-.8m0-.21c-.81,0-1.72,.26-2.69,.82-3.33,1.92-6.03,6.6-6.03,10.44,0,2.73,1.36,4.3,3.34,4.3,.81,0,1.72-.26,2.69-.82,3.33-1.92,6.03-6.6,6.03-10.44,0-2.73-1.36-4.3-3.34-4.3h0Z"/></g><path class="cls-17" d="M13.91,38.31c-2.29,1.32-4.14,.25-4.14-2.39,0-2.64,1.86-5.86,4.14-7.18,2.29-1.32,4.14-.25,4.14,2.39,0,2.64-1.86,5.86-4.14,7.18Z"/><path class="cls-10" d="M13.91,37.98c-2.13,1.23-3.86,.23-3.86-2.23,0-2.46,1.73-5.46,3.86-6.69,2.13-1.23,3.86-.23,3.86,2.23,0,2.46-1.73,5.46-3.86,6.69Z"/></g></g><g id="Shelf-3"><g id="Shelf-4"><polygon class="cls-2" points="4.03 21.05 4.03 25.69 25.72 13.18 25.72 8.12 4.03 21.05"/><g><polygon class="cls-18" points="25.72 7.28 4.03 19.79 10.66 23.6 32.35 11.09 25.72 7.28"/><g><polygon class="cls-10" points="25.72 7.28 4.03 19.79 10.66 23.6 32.35 11.09 25.72 7.28"/><path class="cls-17" d="M25.72,7.6l6.08,3.5L10.66,23.28l-6.08-3.5L25.72,7.6m0-.31L4.03,19.79l6.63,3.81,21.68-12.51-6.63-3.81h0Z"/></g><polygon class="cls-4" points="32.35 11.09 32.35 12.36 10.66 24.86 10.66 23.6 32.35 11.09"/><polygon class="cls-17" points="4.03 19.79 10.66 23.6 10.66 24.86 4.03 21.05 4.03 19.79"/></g></g><path id="Shadow-2" class="cls-17" d="M27.38,10.13c1,.58,1,1.51,0,2.09-1,.58-2.61,.58-3.61,0-1-.58-1-1.51,0-2.09,1-.58,2.61-.58,3.61,0Z"/><path id="Shadow-3" class="cls-17" d="M12.01,18.82c1,.58,1,1.51,0,2.09s-2.61,.58-3.61,0-1-1.51,0-2.09c1-.58,2.61-.58,3.61,0Z"/><g id="Vase"><path class="cls-4" d="M28.17,8.62c.36-1.28,.67-2.32,.37-3.13-.3-.81-1.53-1.52-1.42-1.79h-3.09c.11,.27-1.12,.98-1.42,1.79s0,1.85,.37,3.13c.23,.81,.69,1.97,.81,2.27,0,0,0,.02,0,.02,.01,.03,.02,.05,.02,.05h0c.08,.17,.24,.34,.47,.47,.71,.41,1.87,.41,2.58,0,.23-.14,.39-.3,.47-.47h0s0-.02,.02-.05c0,0,0-.02,0-.02,.12-.3,.58-1.46,.81-2.27Z"/><path class="cls-10" d="M22.61,5.49c-.05,.13-.08,.27-.1,.42,.16,.26,.41,.5,.77,.71,1.27,.73,3.33,.73,4.6,0,.36-.21,.61-.45,.77-.71-.02-.15-.05-.28-.1-.42-.3-.81-1.53-1.52-1.42-1.79h-3.09c.11,.27-1.12,.98-1.42,1.79Z"/><path class="cls-4" d="M27.18,3.57s0,0,0,0l.61-1.68h-4.44l.62,1.71h0c.07,.17,.21,.33,.44,.46,.64,.37,1.68,.37,2.32,0,.23-.13,.37-.29,.44-.46h0v-.03Z"/><path class="cls-2" d="M26.21,11.67c-.53,.02-1.8-.36-2.08-1.14-.28-.77-1.25-4.07-1.03-4.62,.23-.55,1.41-1.8,1.41-1.8,0,0-.53-1.03-.44-1.2,.08-.17,.53,.01,1.21,0l.04-1.89-1.48,.06h-.36c-.19,.24-.24,.53-.14,.8h0l.62,1.71h0s.03,.07,.05,.1h0c.11,.27-1.12,.98-1.42,1.79-.02,.06-.04,.13-.06,.19,0,0,0,.02,0,.03-.18,.77,.1,1.74,.43,2.91,.23,.81,.69,1.97,.81,2.27,0,0,0,.02,0,.02,.01,.03,.02,.05,.02,.05,.08,.17,.24,.34,.47,.47,.52,.3,1.28,.38,1.93,.24Z"/><g><path class="cls-10" d="M27.18,.68c.89,.51,.89,1.34,0,1.86-.89,.51-2.33,.51-3.21,0-.89-.51-.89-1.34,0-1.86,.89-.51,2.33-.51,3.21,0Z"/><path class="cls-17" d="M25.57,.37c.6,0,1.15,.13,1.57,.38,.41,.24,.63,.54,.63,.87s-.22,.63-.63,.87c-.42,.24-.98,.38-1.57,.38s-1.15-.13-1.57-.38c-.41-.24-.63-.54-.63-.87,0-.32,.22-.63,.63-.87,.42-.24,.98-.38,1.57-.38m0-.07c-.58,0-1.16,.13-1.61,.38-.89,.51-.89,1.34,0,1.86,.44,.26,1.03,.38,1.61,.38s1.16-.13,1.61-.38c.89-.51,.89-1.34,0-1.86-.44-.26-1.03-.38-1.61-.38h0Z"/></g><path class="cls-3" d="M26.67,.97c.61,.35,.61,.92,0,1.27s-1.59,.35-2.2,0c-.61-.35-.61-.92,0-1.27,.61-.35,1.59-.35,2.2,0Z"/><path class="cls-17" d="M26.67,1.93c-.61-.35-1.59-.35-2.2,0-.08,.05-.15,.1-.22,.16,.06,.06,.13,.11,.22,.16,.61,.35,1.59,.35,2.2,0,.08-.05,.15-.1,.22-.16-.06-.06-.13-.11-.22-.16Z"/></g><g id="Vase-2"><path class="cls-10" d="M13.23,17.02c.44-1.48,.83-4.32,.66-5.27-.17-.95-1.28-1.3-1.36-1.54H7.88c-.08,.23-1.19,.58-1.36,1.54-.17,.95,.22,3.79,.66,5.27,.36,1.23,1.09,2.42,1.32,2.79,.09,.16,.23,.31,.42,.43,.71,.45,1.85,.45,2.55,0,.15-.09,.26-.2,.35-.31h0s0,0,0,0c.03-.04,.06-.08,.08-.12,.24-.37,.96-1.56,1.32-2.79Z"/><path class="cls-4" d="M13.23,17.02c-.36,1.23-1.09,2.42-1.32,2.79-.02,.04-.05,.08-.08,.12-.09,.11-.2,.22-.35,.31-.71,.45-1.85,.45-2.55,0-.2-.13-.34-.27-.42-.43-.24-.37-.96-1.56-1.32-2.79-.44-1.48-.83-4.32-.66-5.27,.03-.14,.07-.27,.13-.39-.19,.71,.14,1.47,1,2.02,1.41,.9,3.69,.9,5.1,0,.86-.55,1.19-1.3,1-2.01,.06,.11,.1,.24,.13,.38,.17,.95-.22,3.79-.66,5.27Z"/><path class="cls-2" d="M8.54,11.54l.16-1.33h-.82c-.08,.23-1.19,.58-1.36,1.54-.17,.95,.22,3.79,.66,5.27,.36,1.23,1.09,2.42,1.32,2.79,.09,.16,.23,.31,.42,.43,.61,.39,1.56,.44,2.26,.15-.78,.14-1.81-.13-2.5-1.35-.74-1.3-1.33-4.99-1.33-6.02,0-1.03,.7-1.15,1.18-1.47Z"/><g><path class="cls-10" d="M11.88,9.41c.92,.59,.92,1.54,0,2.13-.92,.59-2.42,.59-3.34,0-.92-.59-.92-1.54,0-2.13,.92-.59,2.42-.59,3.34,0Z"/><path class="cls-17" d="M10.21,8.97v.07c.62,0,1.2,.15,1.63,.43,.43,.27,.66,.63,.66,1.01,0,.38-.23,.74-.66,1.01-.44,.28-1.02,.43-1.63,.43s-1.2-.15-1.63-.43c-.43-.27-.66-.63-.66-1.01s.23-.74,.66-1.01c.44-.28,1.02-.43,1.63-.43v-.07m0,0c-.6,0-1.21,.15-1.67,.44-.92,.59-.92,1.54,0,2.13,.46,.29,1.07,.44,1.67,.44s1.21-.15,1.67-.44c.92-.59,.92-1.54,0-2.13-.46-.29-1.07-.44-1.67-.44h0Z"/></g><path class="cls-3" d="M11.33,9.75c.62,.36,.62,.94,0,1.3-.62,.36-1.62,.36-2.24,0s-.62-.94,0-1.3c.62-.36,1.62-.36,2.24,0Z"/><path class="cls-17" d="M11.33,10.45c-.62-.36-1.62-.36-2.24,0-.15,.09-.26,.19-.34,.29,.08,.11,.19,.21,.34,.29,.62,.36,1.62,.36,2.24,0,.15-.09,.26-.19,.34-.29-.08-.11-.19-.21-.34-.29Z"/></g><g id="Pot-2"><path id="Shadow-4" class="cls-17" d="M20.95,13.14c1.34,.77,1.34,2.02,0,2.8-1.34,.77-3.51,.77-4.84,0-1.34-.77-1.34-2.02,0-2.8,1.34-.77,3.51-.77,4.84,0Z"/><g><path class="cls-5" d="M16.35,15.09c-1.17-1.19-1.85-4.16-.71-5.1h5.78c1.14,.94,.45,3.91-.71,5.1,0,.01-.02,.02-.03,.03-.01,.01-.03,.03-.04,.04-.03,.03-.07,.06-.11,.09,0,0-.02,.01-.03,.02-.03,.02-.06,.04-.09,.07-.05,.04-.1,.07-.15,.1-.96,.55-2.51,.55-3.47,0h0c-.05-.03-.1-.06-.15-.1-.03-.02-.06-.04-.08-.06-.01,0-.02-.02-.03-.03-.04-.03-.07-.06-.1-.09-.02-.01-.03-.03-.05-.05,0,0-.02-.02-.03-.03Z"/><path class="cls-7" d="M20.92,9.53c1.32,.76,1.32,2,0,2.76-1.32,.76-3.46,.76-4.78,0-1.32-.76-1.32-2,0-2.76,1.32-.76,3.46-.76,4.78,0Z"/><path class="cls-3" d="M19.99,10.07c.8,.46,.8,1.21,0,1.68-.8,.46-2.1,.46-2.91,0-.8-.46-.8-1.21,0-1.68,.8-.46,2.1-.46,2.91,0Z"/><path class="cls-17" d="M17.08,10.87c.8-.46,2.1-.46,2.91,0,.22,.13,.38,.28,.48,.44-.1,.16-.26,.31-.48,.44-.8,.46-2.1,.46-2.91,0-.22-.13-.38-.28-.48-.44,.1-.16,.26-.31,.48-.44Z"/></g><path class="cls-3" d="M19.81,11.31s.57-.54,1.05-1.4c.49-.86,.58-2.01,.32-2.15-.25-.14-1.27,1.01-1.27,1.01,0,0,.15-.7,.11-1.47-.04-.76-.23-1.46-.45-1.6-.22-.14-.71,.82-.92,1.52-.21,.7-.34,1.27-.34,1.27,0,0-.14-.94-.38-1.61-.25-.73-.49-.89-.67-.82-.18,.07-.3,.41-.35,1.38-.04,.68,.04,1.38,.04,1.38,0,0-.36-.4-.76-.78-.44-.42-.63-.48-.75-.4-.13,.08-.16,.74,.52,1.97,.6,1.09,1.28,1.69,1.28,1.69,0,0,.94,.61,2.55,0Z"/></g></g><g id="Picture"><g id="Frame-2"><polygon class="cls-10" points="85.43 29.05 85.04 29.28 76.98 24.63 77.38 24.4 85.43 29.05"/><polygon class="cls-7" points="77.38 24.4 85.04 28.82 85.04 20.79 77.38 16.37 77.38 24.4"/><path class="cls-4" d="M76.24,25.06l9.54,5.51v-10.2l-9.54-5.51v10.2Zm.74-8.91l8.06,4.65v8.49s-8.06-4.65-8.06-4.65v-8.49Z"/><polygon class="cls-17" points="76.98 24.63 77.38 24.4 77.38 16.37 76.98 16.14 76.98 24.63"/><polygon class="cls-10" points="76.24 14.86 76.64 14.63 86.18 20.14 85.78 20.37 76.24 14.86"/><polygon class="cls-17" points="86.18 20.14 85.78 20.37 85.78 30.56 86.18 30.34 86.18 20.14"/></g><g id="Land"><polygon class="cls-4" points="77.67 24.16 84.74 28.24 84.74 26.2 82.97 22.12 81.87 23.14 82.27 24.85 79.83 19.63 77.67 22.12 77.67 24.16"/><path class="cls-4" d="M81.94,20.15c.29,.17,.52,.57,.52,.91,0,.33-.23,.47-.52,.3-.29-.17-.52-.57-.52-.91s.23-.47,.52-.3Z"/></g></g><g id="Picture-2"><g id="Frame-3"><polygon class="cls-10" points="85.43 15.6 85.04 15.84 76.98 11.19 77.38 10.95 85.43 15.6"/><polygon class="cls-7" points="77.38 10.95 85.04 15.38 85.04 7.35 77.38 2.93 77.38 10.95"/><path class="cls-4" d="M76.24,11.61l9.54,5.51V6.92s-9.54-5.51-9.54-5.51V11.61Zm.74-8.91l8.06,4.65V15.84s-8.06-4.65-8.06-4.65V2.7Z"/><polygon class="cls-17" points="76.98 11.19 77.38 10.95 77.38 2.93 76.98 2.7 76.98 11.19"/><polygon class="cls-10" points="76.24 1.42 76.64 1.19 86.18 6.7 85.78 6.92 76.24 1.42"/><polygon class="cls-17" points="86.18 6.7 85.78 6.92 85.78 17.12 86.18 16.89 86.18 6.7"/></g><g id="Land-2"><polygon class="cls-4" points="77.67 10.71 84.74 14.79 84.74 12.75 82.97 8.67 81.87 9.69 82.27 11.4 79.83 6.19 77.67 8.67 77.67 10.71"/><path class="cls-4" d="M81.94,6.7c.29,.17,.52,.57,.52,.91,0,.33-.23,.47-.52,.3-.29-.17-.52-.57-.52-.91s.23-.47,.52-.3Z"/></g></g><polygon id="Shadow-5" class="cls-17" points="114.24 86.91 101.15 94.47 79.75 82.12 92.84 74.56 114.24 86.91"/><ellipse id="Shadow-6" class="cls-17" cx="29.42" cy="92.19" rx="18.23" ry="10.53"/><path id="Shadow-7" class="cls-17" d="M50.25,103.75c6.54,3.78,17.15,3.78,23.69,0,6.54-3.78,6.54-9.9,0-13.68-6.54-3.78-17.15-3.78-23.69,0-6.54,3.78-6.54,9.9,0,13.68Z"/><path id="Shadow-8" class="cls-17" d="M75.72,104.69c1.58,.91,4.15,.91,5.74,0,1.58-.91,1.58-2.4,0-3.31-1.58-.91-4.15-.91-5.74,0-1.58,.91-1.58,2.4,0,3.31Z"/><path id="Shadow-9" class="cls-17" d="M84.48,98.22c2.6,1.5,6.82,1.5,9.43,0,2.6-1.5,2.6-3.94,0-5.44-2.6-1.5-6.82-1.5-9.43,0-2.6,1.5-2.6,3.94,0,5.44Z"/><path id="Shadow-10" class="cls-17" d="M14.24,73.53c2.29,1.34,2.29,3.51,0,4.85-2.29,1.34-6.01,1.34-8.31,0-2.29-1.34-2.29-3.51,0-4.85,2.29-1.34,6.01-1.34,8.31,0Z"/><g id="Plant"><g id="Pot-3"><path class="cls-3" d="M6.56,76.75c-1.89-1.95-2.99-6.86-1.15-8.41H14.77c1.84,1.54,.73,6.46-1.15,8.4-.02,.02-.03,.04-.05,.05-.02,.02-.04,.04-.06,.06-.05,.05-.11,.1-.17,.15-.01,.01-.03,.02-.05,.04-.05,.04-.09,.07-.14,.11-.08,.06-.16,.11-.24,.16-1.55,.91-4.07,.91-5.62,0h0s0,0,0,0c-.08-.05-.16-.1-.25-.16-.05-.03-.09-.07-.13-.1-.02-.01-.04-.03-.06-.04-.06-.05-.11-.1-.16-.15-.03-.02-.05-.05-.07-.07-.01-.02-.03-.03-.04-.05Z"/><path class="cls-10" d="M13.96,67.73c2.14,1.25,2.14,3.27,0,4.51-2.14,1.25-5.6,1.25-7.73,0-2.14-1.25-2.14-3.27,0-4.51,2.14-1.25,5.6-1.25,7.73,0Z"/><path class="cls-3" d="M12.93,68.33c1.57,.92,1.57,2.4,0,3.32-1.57,.92-4.11,.92-5.68,0-1.57-.92-1.57-2.4,0-3.32,1.57-.92,4.11-.92,5.68,0Z"/><path class="cls-7" d="M7.25,69.9c1.57-.92,4.11-.92,5.68,0,.44,.25,.75,.55,.94,.87-.19,.32-.5,.62-.94,.87-1.57,.92-4.11,.92-5.68,0-.44-.25-.75-.55-.94-.87,.19-.32,.5-.62,.94-.87Z"/></g><g><path class="cls-4" d="M8.81,58.28c-.63,.8-2.53,1.15-3.47-.81-.89-1.83-1.83-3.56-2.11-4.24-.28-.68,.39-.96,.39-.96,0,0-.02-1.04,1.79-.47,1.8,.56,3.14,1.54,4.04,3.21,.89,1.65,.53,2.94-.63,3.27Z"/><g><path class="cls-17" d="M9.77,60.88c-.06-.35-.13-.7-.23-1.04-.2-.68-.45-1.34-.74-1.98-.6-1.31-1.38-2.52-2.33-3.61-.53-.61-1.1-1.19-1.74-1.7-.02-.02-.03,.03-.02,.04,1.06,.98,2.01,2.05,2.78,3.28,.75,1.19,1.34,2.48,1.75,3.82,.12,.38,.23,.75,.33,1.14,.1,.39,.17,.78,.27,1.17,0,.04,.07,.06,.07,0,0-.37-.08-.75-.14-1.12Z"/><path class="cls-2" d="M9.77,60.88c-.06-.35-.13-.7-.23-1.04-.2-.68-.45-1.34-.74-1.98-.6-1.31-1.38-2.52-2.33-3.61-.53-.61-1.1-1.19-1.74-1.7-.02-.02-.03,.03-.02,.04,1.06,.98,2.01,2.05,2.78,3.28,.75,1.19,1.34,2.48,1.75,3.82,.12,.38,.23,.75,.33,1.14,.1,.39,.17,.78,.27,1.17,0,.04,.07,.06,.07,0,0-.37-.08-.75-.14-1.12Z"/></g><path class="cls-17" d="M10.87,56.87c-1.65,.51-2.87-.78-2.45-2.79,.42-2.02,2.54-4.25,3.34-3.65,.5-.5,1.6-.32,2.12,1.32,.52,1.64,.05,5.84-3.01,5.13Z"/><g><path class="cls-17" d="M11.83,51.66c-.49,1.16-.81,2.4-1.09,3.62-.29,1.25-.48,2.52-.64,3.79-.3,2.46-.35,4.95-.33,7.43,0,.69,.01,1.37,.03,2.06,.01,.71,0,1.42,.06,2.12,.02,.27,.41,.2,.41-.05,.02-1.23-.04-2.47-.06-3.71-.01-1.22,0-2.44,.02-3.66,.06-2.48,.24-4.97,.67-7.42,.12-.68,.25-1.37,.41-2.04,.17-.71,.37-1.41,.56-2.11,0-.03-.02-.06-.04-.03Z"/><path class="cls-2" d="M11.83,51.66c-.49,1.16-.81,2.4-1.09,3.62-.29,1.25-.48,2.52-.64,3.79-.3,2.46-.35,4.95-.33,7.43,0,.69,.01,1.37,.03,2.06,.01,.71,0,1.42,.06,2.12,.02,.27,.41,.2,.41-.05,.02-1.23-.04-2.47-.06-3.71-.01-1.22,0-2.44,.02-3.66,.06-2.48,.24-4.97,.67-7.42,.12-.68,.25-1.37,.41-2.04,.17-.71,.37-1.41,.56-2.11,0-.03-.02-.06-.04-.03Z"/></g><path class="cls-17" d="M7.8,62.39c-.48,.98-2.08,1.35-3.54,.24-1.45-1.1-3.56-6.19-1.96-6.27,.12-.79,4.73-.25,6.22,3.03,1.08,2.39-.72,2.99-.72,2.99Z"/><g><path class="cls-17" d="M9.73,64.54c-.13-.31-.3-.61-.47-.9-.35-.6-.74-1.17-1.15-1.73-.84-1.14-1.81-2.17-2.86-3.12-.58-.53-1.18-1.04-1.83-1.49-.02-.01-.02,.03,0,.04,.52,.44,1.04,.87,1.53,1.34,.51,.49,.98,1.01,1.44,1.54,.88,1.03,1.68,2.13,2.38,3.29,.2,.33,.38,.67,.59,.99,.21,.34,.45,.66,.65,1.01,.03,.05,.1,.05,.08-.02-.12-.31-.22-.63-.35-.94Z"/><path class="cls-2" d="M9.73,64.54c-.13-.31-.3-.61-.47-.9-.35-.6-.74-1.17-1.15-1.73-.84-1.14-1.81-2.17-2.86-3.12-.58-.53-1.18-1.04-1.83-1.49-.02-.01-.02,.03,0,.04,.52,.44,1.04,.87,1.53,1.34,.51,.49,.98,1.01,1.44,1.54,.88,1.03,1.68,2.13,2.38,3.29,.2,.33,.38,.67,.59,.99,.21,.34,.45,.66,.65,1.01,.03,.05,.1,.05,.08-.02-.12-.31-.22-.63-.35-.94Z"/></g><path class="cls-17" d="M10.82,61.98c-.94-.21-.99-1.35,.19-2.73,1.18-1.39,4.14-1.99,4.28-1.41,.66,0,.66,2.06-.8,3.96-1.46,1.9-3.58,1.45-3.67,.18Z"/><g><path class="cls-17" d="M12.66,59.96c-.62,.44-1.16,.94-1.63,1.55-.46,.6-.83,1.26-1.1,1.97-.03,.08,.11,.2,.14,.11,.52-1.39,1.44-2.67,2.59-3.61,0,0,0-.03,0-.02Z"/><path class="cls-2" d="M12.66,59.96c-.62,.44-1.16,.94-1.63,1.55-.46,.6-.83,1.26-1.1,1.97-.03,.08,.11,.2,.14,.11,.52-1.39,1.44-2.67,2.59-3.61,0,0,0-.03,0-.02Z"/></g><path class="cls-4" d="M11.89,68.86c-1.3,.53-.75,2.08,.53,3.26,1.27,1.18,3.09,1.49,3.97,1.43,.88-.06,1.1-.18,1.1-.18,0,0,.14-1.34,0-2.16-.21-1.15-1.05-2.76-3.07-3.31-2.03-.55-2.51,.19-2.51,.96Z"/><g><path class="cls-17" d="M15.5,71.16c-.6-.68-1.24-1.35-2-1.85-.74-.49-1.73-.91-2.62-.6-.34,.12-.88,.46-.82,.89,0,.04,.08,.15,.13,.09,.16-.18,.27-.4,.47-.55,.2-.16,.45-.24,.7-.27,.62-.07,1.28,.13,1.83,.42,.88,.47,1.59,1.19,2.29,1.89,0,0,.02-.01,.01-.02Z"/><path class="cls-2" d="M15.5,71.16c-.6-.68-1.24-1.35-2-1.85-.74-.49-1.73-.91-2.62-.6-.34,.12-.88,.46-.82,.89,0,.04,.08,.15,.13,.09,.16-.18,.27-.4,.47-.55,.2-.16,.45-.24,.7-.27,.62-.07,1.28,.13,1.83,.42,.88,.47,1.59,1.19,2.29,1.89,0,0,.02-.01,.01-.02Z"/></g><path class="cls-4" d="M6.94,63.77c.01-.55-.99-1.69-3.43-1.49-1.12,.09-2.14,.39-2.96,1.18-.27,.26-.49,.6-.54,.98-.02,.15,0,.3,.06,.43,.05,.1,.13,.17,.21,.24,.58,.47,1.35,.35,2.03,.52,1.07,.27,3.31,1.24,4.6,.6,1.29-.65,.8-2.05,.02-2.46Z"/><g><path class="cls-17" d="M9.1,65.29c-1.39-1.9-4.12-2.06-6.25-1.66-.71,.13-1.38,.35-2.03,.65,0,0,0,.03,0,.02,1.11-.39,2.29-.65,3.47-.67,1.16-.02,2.34,.12,3.4,.64,.52,.25,.99,.63,1.37,1.06,.04,.05,.07,0,.04-.05Z"/><path class="cls-2" d="M9.1,65.29c-1.39-1.9-4.12-2.06-6.25-1.66-.71,.13-1.38,.35-2.03,.65,0,0,0,.03,0,.02,1.11-.39,2.29-.65,3.47-.67,1.16-.02,2.34,.12,3.4,.64,.52,.25,.99,.63,1.37,1.06,.04,.05,.07,0,.04-.05Z"/></g><path class="cls-4" d="M13.16,59.07c-.03,.94,1.28,1.48,2.55,.67,1.27-.81,2.61-1.6,3.79-1.9,1.18-.3,1.74-1.27,1.37-1.73-.37-.47-.96-1.64-4.07-1.26-3.1,.38-4.2,1.78-4.63,2.77-.43,.99,.52,1.72,.98,1.45Z"/><g><path class="cls-17" d="M18.21,56.1c-.44-.07-.91,.03-1.33,.14-.39,.1-.77,.24-1.14,.41-.73,.34-1.39,.82-1.94,1.4-.16,.17-.3,.34-.44,.53-.12,.17-.26,.35-.33,.54-.02,.06,.07,.16,.12,.1,.15-.18,.27-.39,.41-.58,.15-.2,.32-.39,.5-.57,.36-.36,.76-.68,1.2-.94,.42-.26,.86-.48,1.32-.64,.25-.09,.51-.17,.77-.23,.28-.07,.55-.14,.84-.12,.01,0,.02-.03,0-.03Z"/><path class="cls-2" d="M18.21,56.1c-.44-.07-.91,.03-1.33,.14-.39,.1-.77,.24-1.14,.41-.73,.34-1.39,.82-1.94,1.4-.16,.17-.3,.34-.44,.53-.12,.17-.26,.35-.33,.54-.02,.06,.07,.16,.12,.1,.15-.18,.27-.39,.41-.58,.15-.2,.32-.39,.5-.57,.36-.36,.76-.68,1.2-.94,.42-.26,.86-.48,1.32-.64,.25-.09,.51-.17,.77-.23,.28-.07,.55-.14,.84-.12,.01,0,.02-.03,0-.03Z"/></g><path class="cls-4" d="M10.93,64.11c-.43-.43-1.61-.33-2.17,.95-.56,1.28,.61,2.69,.75,3.08,.54-.31,.96-.13,1.91-.31,.95-.19,1.88-1.19,1.82-2.36-.06-1.18-.56-1.95-2.3-1.36Z"/><g><path class="cls-17" d="M10.92,63.99c-.23,.11-.43,.39-.58,.6-.15,.22-.28,.47-.37,.72-.19,.52-.27,1.09-.16,1.64,0,.02,.02,0,.02-.01-.04-.56,.04-1.11,.27-1.62,.1-.23,.24-.45,.39-.65,.08-.11,.17-.21,.26-.3,.08-.08,.19-.15,.25-.25,.03-.05-.02-.15-.09-.12Z"/><path class="cls-2" d="M10.92,63.99c-.23,.11-.43,.39-.58,.6-.15,.22-.28,.47-.37,.72-.19,.52-.27,1.09-.16,1.64,0,.02,.02,0,.02-.01-.04-.56,.04-1.11,.27-1.62,.1-.23,.24-.45,.39-.65,.08-.11,.17-.21,.26-.3,.08-.08,.19-.15,.25-.25,.03-.05-.02-.15-.09-.12Z"/></g><path class="cls-17" d="M9.14,67.57c-.24-.93-1.42-1.45-2.95-1.56-1.53-.11-3.01,.59-3.81,1.96-.8,1.37-1.14,2.46-.65,2.64,.49,.18,2.55,.46,3.88,.58,1.33,.12,2.99-.12,4.08-1.13,1.08-1.01,.73-2.28-.54-2.49Z"/><g><path class="cls-17" d="M9.2,67.44c-.52-.17-1.12-.14-1.66-.08-.53,.06-1.06,.19-1.56,.36-.54,.18-1.05,.42-1.55,.7-.26,.14-.51,.29-.76,.45-.23,.15-.48,.29-.69,.47,0,0,0,.04,0,.03,.25-.11,.49-.27,.73-.41,.26-.15,.52-.29,.79-.42,.5-.25,1.01-.48,1.53-.65,.53-.17,1.07-.3,1.63-.35,.52-.05,1.03,0,1.55,.04,.11,0,.05-.13-.02-.15Z"/><path class="cls-2" d="M9.2,67.44c-.52-.17-1.12-.14-1.66-.08-.53,.06-1.06,.19-1.56,.36-.54,.18-1.05,.42-1.55,.7-.26,.14-.51,.29-.76,.45-.23,.15-.48,.29-.69,.47,0,0,0,.04,0,.03,.25-.11,.49-.27,.73-.41,.26-.15,.52-.29,.79-.42,.5-.25,1.01-.48,1.53-.65,.53-.17,1.07-.3,1.63-.35,.52-.05,1.03,0,1.55,.04,.11,0,.05-.13-.02-.15Z"/></g><path class="cls-17" d="M11.93,65.29c-1.05-.84-.7-2.84,2.99-2.95,3.69-.11,6.32,.85,6.2,2.04,.59,.59,.29,2.26-2.69,2.78-2.99,.52-7.26,.26-6.5-1.86Z"/><g><path class="cls-17" d="M19.38,64.39c-1.08-.2-2.2-.22-3.29-.19-1.01,.03-2.06,.08-3.04,.35-.25,.07-.5,.16-.74,.28-.11,.05-.22,.11-.32,.17-.08,.05-.18,.09-.21,.19-.02,.06,.05,.13,.11,.12,.22-.05,.43-.23,.64-.32,.21-.09,.42-.17,.64-.23,.42-.12,.85-.2,1.28-.25,1.03-.13,2.08-.19,3.11-.17,.61,0,1.21,.05,1.81,.1,.02,0,.03-.04,0-.04Z"/><path class="cls-2" d="M19.38,64.39c-1.08-.2-2.2-.22-3.29-.19-1.01,.03-2.06,.08-3.04,.35-.25,.07-.5,.16-.74,.28-.11,.05-.22,.11-.32,.17-.08,.05-.18,.09-.21,.19-.02,.06,.05,.13,.11,.12,.22-.05,.43-.23,.64-.32,.21-.09,.42-.17,.64-.23,.42-.12,.85-.2,1.28-.25,1.03-.13,2.08-.19,3.11-.17,.61,0,1.21,.05,1.81,.1,.02,0,.03-.04,0-.04Z"/></g></g></g><g id="Rack"><g><g><polygon class="cls-5" points="113.12 82.02 101.12 88.95 81.12 77.4 93.12 70.48 113.12 82.02"/><polygon class="cls-4" points="101.12 88.95 101.12 89.87 81.12 78.33 81.12 77.4 101.12 88.95"/><polygon class="cls-17" points="113.12 82.02 101.12 88.95 101.12 89.87 113.12 82.95 113.12 82.02"/></g><g><path class="cls-17" d="M103.77,83.57c1.09-.62,1.09-1.63,0-2.25-1.09-.62-2.85-.62-3.93,0-1.09,.62-1.09,1.63,0,2.25,1.09,.62,2.85,.62,3.93,0Z"/><path class="cls-4" d="M100.06,74.51c.11-.06,.22-.11,.34-.16,.22-.09,.37-.29,.37-.53v-.95h2.11v.95c0,.24,.15,.44,.37,.53,.12,.05,.23,.1,.34,.16,.49,.28,.73,.83,.73,1.2v6.42c0,.37-.24,.73-.73,1.01-.97,.56-2.54,.56-3.51,0-.49-.28-.73-.65-.73-1.01v-6.42c0-.37,.24-.92,.73-1.2Z"/><path class="cls-17" d="M100.06,77.03c.97,.55,2.54,.55,3.51,0,.48-.28,.73-.64,.73-1v4.55c0,.36-.24,.73-.73,1-.97,.55-2.54,.55-3.51,0-.48-.28-.73-.64-.73-1v-4.55c0,.36,.24,.73,.73,1Z"/><path class="cls-1" d="M103.5,82.14v-6.28c0-.3-.06-.72-.43-.9-.73-.37-.82-.67-.82-1.04v-1.05h.62v.95c0,.24,.15,.44,.37,.53,.12,.05,.23,.1,.34,.16,.49,.28,.73,.83,.73,1.2v6.42c0,.37-.24,.73-.73,1.01-.7,.4-1.71,.51-2.58,.34,2.02,.14,2.51-.72,2.51-1.34Z"/><path class="cls-6" d="M100.7,72.58v.28c0,.17,.11,.34,.33,.47,.44,.26,1.16,.26,1.61,0,.11-.06,.19-.14,.25-.22,.06-.08,.08-.16,.08-.25v-.29s0-.05,0-.08c-.03-.14-.14-.28-.32-.39,0,0-.01,0-.02,0-.45-.25-1.15-.24-1.59,0-.19,.11-.3,.25-.32,.39,0,.03,0,.05,0,.08Z"/><path class="cls-17" d="M102.64,73.05c.44-.26,.44-.67,0-.93-.44-.26-1.16-.26-1.61,0-.44,.26-.44,.67,0,.93,.44,.26,1.16,.26,1.61,0Z"/><path class="cls-6" d="M100.7,71.71v.71s0,.05,0,.08c.03,.14,.14,.28,.32,.39,.2,.11,.45,.18,.71,.19,.32,.02,.65-.05,.9-.19,.11-.06,.19-.14,.25-.22,.04-.05,.06-.11,.07-.17,0-.03,0-.05,0-.08v-.72c0-.17-.11-.34-.33-.46-.02-.01-.04-.02-.06-.03-.45-.22-1.12-.21-1.55,.03-.22,.13-.33,.3-.33,.47Z"/><ellipse class="cls-5" cx="101.84" cy="71.71" rx="1.14" ry=".65"/></g><g><path class="cls-17" d="M109.26,83.6c1.01-.58,1.01-1.52,0-2.09-1.01-.58-2.65-.58-3.66,0-1.01,.58-1.01,1.52,0,2.09,1.01,.58,2.65,.58,3.66,0Z"/><path class="cls-4" d="M105.86,72.44c.1-.06,.2-.11,.31-.15,.2-.08,.34-.27,.34-.49v-.88h1.94v.88c0,.22,.14,.41,.34,.49,.11,.04,.21,.09,.31,.15,.45,.26,.67,.76,.67,1.1v8.71c0,.34-.22,.68-.67,.93-.89,.52-2.34,.52-3.23,0-.45-.26-.67-.6-.67-.93v-8.71c0-.34,.22-.84,.67-1.1Z"/><path class="cls-17" d="M105.86,74.75c.89,.51,2.34,.51,3.23,0,.45-.25,.67-.59,.67-.92v7c0,.33-.22,.67-.67,.92-.89,.51-2.34,.51-3.23,0-.45-.25-.67-.59-.67-.92v-7c0,.33,.22,.67,.67,.92Z"/><path class="cls-1" d="M109.02,82.27v-8.59c0-.28-.06-.66-.39-.83-.67-.34-.76-.61-.76-.96v-.96h.57v.88c0,.22,.14,.41,.34,.49,.11,.04,.21,.09,.31,.15,.45,.26,.67,.76,.67,1.1v8.71c0,.34-.22,.68-.67,.93-.64,.37-1.57,.47-2.37,.31,1.86,.13,2.31-.66,2.31-1.23Z"/><path class="cls-6" d="M106.45,70.67v.26c0,.15,.1,.31,.31,.43,.41,.24,1.07,.24,1.48,0,.1-.06,.18-.13,.23-.2,.05-.07,.08-.15,.08-.23v-.26s0-.05,0-.07c-.03-.13-.12-.26-.3-.36,0,0-.01,0-.02,0-.41-.23-1.06-.22-1.46,0-.17,.1-.27,.23-.3,.36,0,.02,0,.05,0,.07Z"/><path class="cls-17" d="M108.23,71.09c.41-.24,.41-.62,0-.85-.41-.24-1.07-.24-1.48,0-.41,.24-.41,.62,0,.85,.41,.24,1.07,.24,1.48,0Z"/><path class="cls-6" d="M106.45,69.87v.65s0,.05,0,.07c.03,.13,.13,.26,.3,.36,.18,.11,.42,.16,.65,.17,.3,.01,.6-.04,.83-.17,.1-.06,.18-.13,.23-.2,.04-.05,.06-.1,.07-.16,0-.02,0-.05,0-.07v-.66c0-.16-.1-.31-.31-.43-.02-.01-.04-.02-.06-.03-.41-.21-1.03-.2-1.42,.03-.21,.12-.31,.27-.31,.43Z"/><path class="cls-5" d="M106.45,69.86c0,.33,.47,.6,1.05,.6s1.05-.27,1.05-.6-.47-.6-1.05-.6-1.05,.27-1.05,.6Z"/></g><g><polygon class="cls-4" points="100.12 73.21 101.12 73.78 101.12 89.87 100.12 89.3 100.12 73.21"/><polygon class="cls-17" points="102.11 73.21 101.12 73.78 101.12 89.87 102.11 89.3 102.11 73.21"/></g><g><polygon class="cls-4" points="92.13 54.97 93.12 55.54 93.12 71.63 92.13 71.06 92.13 54.97"/><polygon class="cls-17" points="94.12 54.97 93.12 55.54 93.12 71.63 94.12 71.06 94.12 54.97"/></g><g><polygon class="cls-17" points="113.12 66.86 112.12 67.43 112.12 83.52 113.12 82.95 113.12 66.86"/><polygon class="cls-4" points="111.12 68 112.12 67.43 112.12 82.6 111.12 82.02 111.12 68"/></g><g><polygon class="cls-4" points="81.12 62.24 82.11 62.81 82.11 78.9 81.12 78.33 81.12 62.24"/><polygon class="cls-17" points="83.11 63.38 82.11 62.81 82.11 77.98 83.11 77.4 83.11 63.38"/></g><g id="Bowl"><path class="cls-17" d="M92.57,79.33c-1.35,0-2.62-.3-3.57-.85-.9-.52-1.39-1.19-1.39-1.89s.49-1.37,1.39-1.89c.95-.55,2.22-.85,3.57-.85s2.62,.3,3.57,.85c.9,.52,1.39,1.19,1.39,1.89,0,.7-.49,1.37-1.39,1.89-.95,.55-2.22,.85-3.57,.85Z"/><g><path class="cls-3" d="M97.36,73.29c0,2.64-2.14,4.78-4.78,4.78s-4.78-2.14-4.78-4.78,9.56-2.64,9.56,0Z"/><path class="cls-10" d="M89.21,71.34c1.86-1.07,4.88-1.07,6.74,0,1.86,1.07,1.86,2.82,0,3.89-1.86,1.07-4.88,1.07-6.74,0-1.86-1.07-1.86-2.82,0-3.89Z"/><path class="cls-3" d="M92.57,75.76c-1.22,0-2.37-.27-3.23-.77-.81-.47-1.26-1.07-1.26-1.71s.45-1.24,1.26-1.71c.86-.5,2.01-.77,3.23-.77s2.37,.27,3.23,.77c.81,.47,1.26,1.07,1.26,1.71,0,.63-.45,1.24-1.26,1.71-.86,.5-2.01,.77-3.23,.77Z"/><path class="cls-17" d="M92.57,75.76c1,0,1.94-.18,2.72-.52-.13-.12-.27-.23-.45-.33-.6-.35-1.41-.54-2.26-.54s-1.66,.19-2.26,.54c-.18,.1-.33,.21-.45,.33,.78,.33,1.72,.52,2.72,.52Z"/></g></g></g><g><polygon class="cls-5" points="113.12 65.93 101.12 72.86 81.12 61.31 93.12 54.39 113.12 65.93"/><polygon class="cls-4" points="101.12 72.86 101.12 73.78 81.12 62.24 81.12 61.31 101.12 72.86"/><polygon class="cls-17" points="113.12 65.93 101.12 72.86 101.12 73.78 113.12 66.86 113.12 65.93"/></g><g id="Bowl-2"><path class="cls-17" d="M90.35,64.52c-1.35,0-2.62-.3-3.57-.85-.9-.52-1.39-1.19-1.39-1.89s.49-1.37,1.39-1.89c.95-.55,2.22-.85,3.57-.85s2.62,.3,3.57,.85c.9,.52,1.39,1.19,1.39,1.89,0,.7-.49,1.37-1.39,1.89-.95,.55-2.22,.85-3.57,.85Z"/><g><path class="cls-3" d="M95.13,58.48c0,2.64-2.14,4.78-4.78,4.78s-4.78-2.14-4.78-4.78,9.56-2.64,9.56,0Z"/><path class="cls-10" d="M86.98,56.54c1.86-1.07,4.88-1.07,6.74,0,1.86,1.07,1.86,2.82,0,3.89-1.86,1.07-4.88,1.07-6.74,0-1.86-1.07-1.86-2.82,0-3.89Z"/><path class="cls-3" d="M90.35,60.96c-1.22,0-2.37-.27-3.23-.77-.81-.47-1.26-1.07-1.26-1.71s.45-1.24,1.26-1.71c.86-.5,2.01-.77,3.23-.77s2.37,.27,3.23,.77c.81,.47,1.26,1.07,1.26,1.71,0,.63-.45,1.24-1.26,1.71-.86,.5-2.01,.77-3.23,.77Z"/><path class="cls-17" d="M90.35,60.96c1,0,1.94-.18,2.72-.52-.13-.12-.27-.23-.45-.33-.6-.35-1.41-.54-2.26-.54s-1.66,.19-2.26,.54c-.18,.1-.33,.21-.45,.33,.78,.33,1.72,.52,2.72,.52Z"/></g></g><g id="Bowl-3"><path class="cls-17" d="M101.27,69.26c-1.72,0-3.34-.38-4.54-1.08-1.14-.66-1.77-1.51-1.77-2.4s.63-1.74,1.77-2.4c1.21-.7,2.82-1.08,4.54-1.08s3.34,.38,4.54,1.08c1.14,.66,1.77,1.51,1.77,2.4,0,.89-.63,1.74-1.77,2.4-1.21,.7-2.82,1.08-4.54,1.08Z"/><g><path class="cls-3" d="M107.35,61.58c0,3.36-2.72,6.08-6.08,6.08s-6.08-2.72-6.08-6.08,12.16-3.36,12.16,0Z"/><path class="cls-10" d="M96.99,59.1c2.37-1.37,6.2-1.37,8.57,0,2.37,1.37,2.37,3.58,0,4.95-2.37,1.37-6.2,1.37-8.57,0-2.37-1.37-2.37-3.58,0-4.95Z"/><path class="cls-3" d="M101.27,64.72c-1.56,0-3.02-.35-4.11-.98-1.03-.6-1.6-1.37-1.6-2.17s.57-1.57,1.6-2.17c1.09-.63,2.55-.98,4.11-.98s3.02,.35,4.11,.98c1.03,.6,1.6,1.37,1.6,2.17,0,.8-.57,1.57-1.6,2.17-1.09,.63-2.55,.98-4.11,.98Z"/><path class="cls-17" d="M101.27,64.72c1.27,0,2.46-.23,3.46-.66-.16-.15-.35-.29-.57-.42-.77-.44-1.79-.68-2.88-.68s-2.11,.24-2.88,.68c-.23,.13-.41,.27-.57,.42,.99,.42,2.19,.66,3.45,.66Z"/></g></g><g><g><polygon class="cls-10" points="113.12 56.74 101.12 63.67 81.12 52.12 93.12 45.19 113.12 56.74"/><path class="cls-17" d="M93.12,45.48l19.51,11.26-11.51,6.64-19.51-11.26,11.51-6.64m0-.28l-12,6.93,20,11.55,12-6.93-20-11.55h0Z"/></g><polygon class="cls-4" points="101.12 63.67 101.12 64.59 81.12 53.04 81.12 52.12 101.12 63.67"/><polygon class="cls-17" points="113.12 56.74 101.12 63.67 101.12 64.59 113.12 57.66 113.12 56.74"/></g><g><polygon class="cls-4" points="100.12 64.01 101.12 64.59 101.12 73.78 100.12 73.21 100.12 64.01"/><polygon class="cls-17" points="102.11 64.01 101.12 64.59 101.12 73.78 102.11 73.21 102.11 64.01"/></g><g><polygon class="cls-17" points="113.12 57.66 112.12 58.24 112.12 67.43 113.12 66.86 113.12 57.66"/><polygon class="cls-4" points="111.12 58.81 112.12 58.24 112.12 66.51 111.12 65.93 111.12 58.81"/></g><g><polygon class="cls-4" points="81.12 53.04 82.11 53.62 82.11 62.81 81.12 62.24 81.12 53.04"/><polygon class="cls-17" points="83.11 54.19 82.11 53.62 82.11 61.89 83.11 61.31 83.11 54.19"/></g><g id="Bowl-4"><path class="cls-17" d="M101.27,59.99c-1.59,0-3.07-.35-4.19-1-1.05-.61-1.63-1.39-1.63-2.21s.58-1.6,1.63-2.21c1.11-.64,2.6-1,4.19-1s3.07,.35,4.19,1c1.05,.61,1.63,1.39,1.63,2.21,0,.82-.58,1.6-1.63,2.21-1.11,.64-2.6,1-4.19,1Z"/><g><path class="cls-14" d="M106.88,52.91c0,3.1-2.51,5.61-5.61,5.61s-5.61-2.51-5.61-5.61,11.21-3.1,11.21,0Z"/><path class="cls-9" d="M106.88,52.91c0,3.1-2.51,5.61-5.61,5.61s-5.61-2.51-5.61-5.61,11.21-3.1,11.21,0Z"/><path class="cls-14" d="M97.32,50.63c2.18-1.26,5.72-1.26,7.9,0,2.18,1.26,2.18,3.3,0,4.56-2.18,1.26-5.72,1.26-7.9,0-2.18-1.26-2.18-3.3,0-4.56Z"/><path class="cls-8" d="M97.32,50.63c2.18-1.26,5.72-1.26,7.9,0,2.18,1.26,2.18,3.3,0,4.56-2.18,1.26-5.72,1.26-7.9,0-2.18-1.26-2.18-3.3,0-4.56Z"/><path class="cls-14" d="M101.27,55.81c-1.44,0-2.78-.32-3.79-.9-.95-.55-1.47-1.26-1.47-2s.52-1.45,1.47-2c1.01-.58,2.35-.9,3.79-.9s2.78,.32,3.79,.9c.95,.55,1.47,1.26,1.47,2,0,.74-.52,1.45-1.47,2-1.01,.58-2.35,.9-3.79,.9Z"/><path class="cls-9" d="M101.27,55.81c-1.44,0-2.78-.32-3.79-.9-.95-.55-1.47-1.26-1.47-2s.52-1.45,1.47-2c1.01-.58,2.35-.9,3.79-.9s2.78,.32,3.79,.9c.95,.55,1.47,1.26,1.47,2,0,.74-.52,1.45-1.47,2-1.01,.58-2.35,.9-3.79,.9Z"/><path class="cls-9" d="M101.27,55.81c1.17,0,2.27-.21,3.18-.61-.15-.14-.32-.27-.53-.39-.71-.41-1.65-.63-2.65-.63s-1.95,.22-2.65,.63c-.21,.12-.38,.25-.53,.39,.91,.39,2.02,.61,3.18,.61Z"/></g></g><g><g><polygon class="cls-4" points="100.12 89.31 101.12 89.88 101.12 93.75 100.12 93.17 100.12 89.31"/><polygon class="cls-17" points="102.11 89.31 101.12 89.88 101.12 93.75 102.11 93.17 102.11 89.31"/></g><g><polygon class="cls-17" points="113.12 82.95 112.12 83.53 112.12 87.4 113.12 86.82 113.12 82.95"/><polygon class="cls-4" points="111.12 84.1 112.12 83.53 112.12 87.4 111.12 86.82 111.12 84.1"/></g><g><polygon class="cls-4" points="81.12 78.34 82.11 78.91 82.11 82.78 81.12 82.2 81.12 78.34"/><polygon class="cls-17" points="83.11 79.48 82.11 78.91 82.11 82.78 83.11 82.2 83.11 79.48"/></g></g></g><g id="Character"><g id="Bottom"><g><path class="cls-20" d="M27.87,91.37c-.24,.23-1.2-.17-1.79-.62-.58-.45-2.17-1.18-2.79-1.52-.62-.33-2.09-.84-2.65-.97-1.45-.34-2.08-.39-2.79-1.12-.54-.56-.45-1.21-.45-1.21,0,0,.56,.68,2.73,.34,2.18-.34,3.33-.95,4.12-.84s2.85,.71,4.2-.36c.42-.33,.25-.84,.06-.9,.34,.19,.44,.47,.54,.76,.06,.19,.14,.44,.19,.62,.14,.44,.37,1.27,.96,1.68,.32,.22,.44,.29,.32,.55l-2.67,3.59Z"/><path class="cls-19" d="M17.88,84.99c-.65,.54-.57,.83-.49,1.25,.08,.42,.26,.54,.68,.7,.54,.19,1.5,.19,2.45,0,.95-.19,2.92-.95,3.51-.9,.6,.06,1.59,.46,2.8,.34,1.2-.12,1.7-.45,2-.75,.33-.33,.25-.69,.25-.69,0,0-.01-.75-.98-.98-.83-.2-10.22,1.03-10.22,1.03Z"/><path class="cls-11" d="M30.41,87.73c-.92-.36-1.39,.9-1.85,1.43-.47,.54-.74,.57-1.71,.29-.81-.23-1.53-.21-1.53-.21,0,0,.81,.29,1.12,.64s-.1,.59,.35,.86c.7,.42,1.42,.85,1.87,1.12l1.1,.73,2.74,1.73,1.29-5.24-3.39-1.33Z"/><path class="cls-17" d="M17.41,85.93c-.21-.74,1.78-2.27,4.1-2.34s2.11,.43,3.75,.31c1.64-.12,2.39-.25,3.27,.27,.43,.25,.56,1.14-1.02,1.51-1.58,.38-2.71-.15-3.45-.2-.74-.04-2.06,.62-4.19,.96-1.72,.27-2.29,.1-2.47-.52Z"/></g><g><path class="cls-18" d="M18.37,93.41c-.24,.23-1.2-.17-1.79-.62-.58-.45-2.17-1.18-2.79-1.52-.62-.33-2.09-.84-2.65-.97-1.45-.34-2.08-.39-2.79-1.12-.54-.56-.45-1.21-.45-1.21,0,0,.56,.68,2.73,.34,2.18-.34,3.33-.95,4.12-.84,.79,.12,2.85,.71,4.2-.36,.42-.33,.25-.84,.06-.9,.34,.19,.44,.47,.54,.76,.06,.19,.14,.44,.19,.62,.14,.44,.37,1.27,.96,1.68,.32,.22,.44,.29,.32,.55l-2.67,3.59Z"/><path class="cls-19" d="M8.39,87.03c-.65,.54-.57,.83-.49,1.25,.08,.42,.26,.54,.68,.7,.54,.19,1.5,.19,2.45,0,.95-.19,2.92-.95,3.51-.9s1.59,.46,2.8,.34c1.2-.12,1.7-.45,2-.75,.33-.33,.25-.69,.25-.69,0,0-.01-.75-.98-.98-.83-.2-10.22,1.03-10.22,1.03Z"/><path class="cls-11" d="M20.92,89.77c-.92-.36-1.39,.9-1.85,1.43-.47,.54-.74,.57-1.71,.29-.81-.23-1.53-.21-1.53-.21,0,0,.81,.29,1.12,.64,.32,.35-.1,.59,.35,.86,.7,.42,1.42,.85,1.87,1.12l1.1,.73,2.74,1.73,1.29-5.24-3.39-1.33Z"/><path class="cls-17" d="M7.91,87.96c-.21-.74,1.78-2.27,4.1-2.34s2.11,.43,3.75,.31c1.64-.12,2.39-.25,3.27,.27,.43,.25,.56,1.14-1.02,1.51-1.58,.38-2.71-.15-3.45-.2-.74-.04-2.06,.62-4.19,.96-1.72,.27-2.29,.1-2.47-.52Z"/></g><g id="Leg"><g><path class="cls-18" d="M25.85,87.87c.4-1.45,1.38-1.59,1.38-1.59l5.2,1.26s-12.42-6.93-12.42-8.35l13.78-3.97s9.12,10.41,10.8,14.24c1,2.26,1.15,3.96,.25,5.12-1.53,1.96-3.86,1.83-7.82,.57-4-1.27-10.28-3.21-10.28-3.21,0,0-1.54-1.78-.9-4.07Z"/><path class="cls-20" d="M25.75,88.29c.02-.14,.06-.28,.09-.42,.03-.09,.05-.18,.08-.26,0-.02,.02-.04,.03-.06,.02-.06,.04-.11,.07-.17,0-.02,.02-.03,.03-.05,.02-.05,.05-.1,.08-.15,0-.01,.02-.03,.03-.04,.03-.05,.05-.09,.08-.13,0-.01,.01-.02,.02-.03,.03-.04,.06-.08,.09-.12,0,0,.01-.01,.02-.02,.03-.04,.06-.07,.1-.11,0,0,.01-.01,.02-.02,.03-.03,.07-.06,.1-.09,0,0,0,0,.01-.01,.03-.03,.07-.06,.1-.08,0,0,0,0,.01,0,.03-.02,.07-.05,.1-.07,0,0,0,0,0,0,.03-.02,.06-.04,.09-.05,0,0,0,0,0,0,.03-.02,.06-.03,.09-.04,0,0,0,0,0,0,.03-.01,.05-.02,.07-.03,0,0,0,0,0,0,.02,0,.04-.01,.06-.02,0,0,0,0,0,0,.02,0,.03,0,.04-.01,0,0,0,0,0,0,0,0,.02,0,.02,0,0,0,0,0,0,0,0,0,0,0,0,0h0s0,0,0,0h0s.75,.18,.75,.18l4.45,1.07h0s0,0,0,0c0,0-1.22-1.34-2.34-2.79,0,0,0,0,0,0,0,0,0,0,0,0-.05-.06-.09-.12-.14-.18,0,0,0,0,0,0,0,0,0,0,0,0-.04-.06-.09-.11-.13-.17,0,0,0,0,0,0-.2-.27-.4-.54-.57-.81,0,0,0-.01-.01-.02-.06-.09-.11-.17-.17-.26l4.98-4.68c.54,2.84-1.44,5.41-1.44,5.41,0,0,4.82,6,6.68,8.71,1.46,2.13,3.38,2.4,4.79,1.68,1.25-.64,1.36-1.74,1.37-1.89,.03,.81-.15,1.5-.59,2.06-1.53,1.96-3.86,1.83-7.82,.57-4-1.27-10.28-3.21-10.28-3.21h0s-1.27-1.46-1.03-3.44c0-.07,.02-.14,.03-.21Z"/><path class="cls-21" d="M31.33,89.56c-1.66-1.59-5.87-3.48-6.81-3.91,.51-.65,1.08-.69,1.09-.69h0s0,0,0,0h0s2.53,.86,2.53,.86l2.53,.86s3,4.6,4.96,5.09c0,0-2.4-.37-4.32-2.21Z"/></g></g><g id="Le"><g><path class="cls-18" d="M21.2,92.46c.32-1.29,1.27-2.1,1.27-2.1l.83,.32s-1.98-2.59-3.35-4.51c-2.28-3.2-2.88-7.36-.97-11.22l9.47,2.5,5.35-2.24c1.52,5.46-2.91,8.93-2.91,8.93,0,0,4.42,7,5.45,9.58,.97,2.43,.82,4.38-.19,5.45-1.7,1.81-4.36,2.23-8.04,.33-3.49-1.8-7.05-4.36-7.05-4.36,0,0-.33-.79,.13-2.67Z"/><path class="cls-20" d="M22.46,90.36l.83,.31h0s4.12,4.96,6.09,5.45c0,0-2.47-.31-4.32-2.21-1.21-1.24-2.6-3.55-2.6-3.55Z"/></g></g><path class="cls-20" d="M21.28,78.78c-.04,.1-.07,.2-.1,.3-.03,.1-.05,.2-.08,.31-.1,.41-.14,.83-.17,1.25-.02,.42,0,.84,.05,1.26,.06,.42,.15,.84,.35,1.21-.05-.42-.06-.82-.06-1.23,0-.1,0-.2,0-.31,0-.1,0-.2,0-.31,0-.2,0-.41,.02-.61,0-.2,.02-.41,.03-.61l.02-.31c.01-.1,.02-.2,.03-.31,.04-.41,.07-.81,.2-1.21-.14,.16-.22,.36-.31,.56Zm1.17,2.36c.03,.3,.07,.59,.11,.89,.05,.29,.11,.59,.18,.87,.14,.58,.32,1.15,.58,1.68-.11-.58-.21-1.16-.29-1.74-.02-.14-.04-.29-.06-.43-.02-.14-.04-.29-.05-.43-.04-.29-.07-.58-.09-.87-.06-.58-.08-1.16-.08-1.74,0-.58,.04-1.16,.16-1.74-.27,.53-.39,1.13-.45,1.73-.06,.6-.05,1.2,0,1.79Zm12.61,14.85c-.36-1.04-.83-2.04-1.34-3.01-.52-.97-1.08-1.91-1.69-2.82-.61-.91-1.25-1.8-1.93-2.65l1.69,2.8c.55,.94,1.1,1.88,1.61,2.84,.26,.48,.5,.96,.74,1.45,.11,.25,.23,.49,.34,.74l.16,.37c.05,.12,.11,.25,.16,.37,.4,1.01,.73,2.04,.85,3.13v-.41c0-.07,0-.14,0-.21l-.02-.2-.04-.41-.07-.41c-.1-.54-.26-1.07-.44-1.59Zm8.1-3.79c-.16-.53-.38-1.03-.62-1.53-.48-.99-1.06-1.93-1.68-2.83-.63-.9-1.3-1.77-2.01-2.6-.71-.84-1.45-1.64-2.23-2.41l2,2.59c.66,.87,1.31,1.74,1.92,2.63,.31,.44,.61,.9,.9,1.36,.14,.23,.29,.46,.42,.69l.2,.35c.07,.12,.14,.23,.2,.35,.51,.95,.97,1.94,1.2,3.01l-.04-.41c0-.07-.02-.14-.03-.2l-.04-.2-.09-.4-.12-.4Z"/></g><g id="Top"><g id="Arm"><path class="cls-11" d="M32.23,57.03c2.01-.12,2.88,.82,5.92,4,2.81,2.94,4.15,3.48,4.15,3.48,0,0,5.54-3.12,6.02-3.58,.48-.46,.58-1.68,1.12-2.47,.54-.79,1.07-1.37,1.48-1.92,.41-.56,1.12,.11,.65,1.06s-.67,1.47-.5,1.5c.17,.03,2.01-1.28,2.34-2.43s.63-.86,.93-.91c0,0,.21-.72,.79-.53,.16,.05,.23,.15,.23,.88,0,0,.55,.03,.65,.68s-.12,1.45-.12,1.45c0,0,.34,.45-.16,1.56-.5,1.12-1.88,2.24-3.62,3.16-1.74,.91-2.19,1.45-4.21,3.07-2.02,1.62-3.57,2.79-4.65,3.45-1.75,1.07-2.54,.48-3.83-.54-1.6-1.27-5.17-3.51-5.17-3.51l-2.04-8.38Z"/><path class="cls-15" d="M52.13,62.95s.07-.04,.11-.06c-.09-.13-.21-.23-.36-.26-.31-.07-.61,.18-.93,.18-.41,0-.71-.43-1.11-.53-.34-.08-.71,.09-.92,.37-.22,.28-.3,.64-.31,.99-.01,.32,.02,.66-.12,.95-.13,.26-.39,.44-.6,.64-.21,.2-.4,.5-.31,.78,.02,.07,.06,.14,.1,.2,.08-.07,.17-.13,.25-.2,2.02-1.62,2.47-2.15,4.21-3.07Z"/><path class="cls-20" d="M32.57,56.7c1.57,.2,2.89,1.05,4.27,2.53,1.52,1.62,5.43,5.14,5.43,5.14l2.33-1.18s-.38,.86,.22,2.13c.78,1.63,1.88,1.66,1.88,1.66,0,0-1.88,1.61-3.12,2.42-1.23,.81-2.1,1.1-3.39,.24-1.29-.86-6.03-4.1-6.03-4.1l-1.6-8.83Z"/></g><g id="Chest"><path class="cls-19" d="M36.61,64.48c-.63-2.82-1.93-5-4.04-7.78l-5.03-.88c-1.14,.1-3.4,1.19-6.15,2.5-.8,.38-2.11,1.07-2.64,3.88-.42,2.29,.68,2.8,1.24,8.45,.27,2.68-1.84,4.4-2.18,7.56,1.79,2.93,13.12,4.38,17.16-1.46-.57-2.55-.5-4.41,.28-7.74,1.21-1.46,1.69-3.05,1.36-4.54Z"/><g id="Head"><path class="cls-19" d="M26.35,55.12c-.32-1.2-1.77-2.22-2.41-3.24-.62-.97-1.06-1.86-1.09-2.82-.02-.57,.33-1.34,.74-1.54-.24-2.08,1.42-3.8,4.14-4.41,.91-.2,1.85-.19,2.77-.1,.84,.08,1.7,.28,2.38,.79,.44,.33,.78,.77,1.06,1.24,.12,.2,.4,.61,.7,.46,.09-.05,.14-.16,.15-.26,0-.11-.03-.21-.06-.31,.23,.16,.42,.39,.45,.66,.03,.27-.14,.58-.4,.63,.41,.2,.6,.76,.41,1.18-.06-.29-.4-.56-.65-.45,.14,.33,.07,.81,.04,.88-.11,.27-.23,.5-.45,.69-.25,.21-.54,.35-.83,.48-.83,.36-1.71,.62-2.55,.95-.69,.27-1.37,.59-1.96,1.04-.41,.31-.59,.85-.84,1.3-.48,.87-.96,1.73-1.44,2.6l-.13,.23Z"/><g><path class="cls-11" d="M24.51,53.2c.87,.49,1.44-.08,1.44-.08l-.22,3.67c.35,1.72,1.48,4.3,4.29,4,2.22-.24,1.37-2.4,.84-3.77l.11-1.23s.84-.02,1.39-.2c1.22-.4,1.67-1.46,1.91-2.51,.26-1.09,.16-2.91-.08-3.52-.15-.4-.11-.72-.09-1.06,.07-.89-.15-1.7-.66-2.09-.44-.34-.91-.56-1.43-.67-.74,3.39-3.98,4.11-5.05,4.06,.06,.36,.13,1.28-.47,1.28-.43,0-.48-.54-.93-1.01-.47-.47-1.49-.56-1.88,.15-.53,1-.12,2.44,.84,2.97Z"/><polygon class="cls-12" points="31.37 48.91 33.43 51.23 31.81 52.12 31.37 48.91"/><path class="cls-19" d="M29.73,48.63l-.94,.46c-.12-.27-.01-.59,.25-.72,.26-.13,.57-.01,.69,.26Z"/><path class="cls-19" d="M33.76,48.55l-1.04-.12c.02-.29,.27-.5,.56-.47,.29,.03,.51,.29,.48,.59Z"/><path class="cls-12" d="M30.95,55.78c-1.52-.14-2.72-.28-3.54-1.36-.51-.68-.96-1.77-.96-1.77,0,0,.19,1.34,.71,2.23,.4,.69,1.37,1.3,3.75,1.44l.05-.55Z"/></g><g><path class="cls-19" d="M30.27,50c.02,.24-.16,.46-.39,.47-.24,.02-.44-.17-.46-.41-.02-.24,.16-.46,.39-.47,.24-.02,.44,.17,.46,.41Z"/><path class="cls-15" d="M29.95,52.58l1.7,.45c-.14,.48-.64,.76-1.11,.64-.47-.13-.73-.61-.59-1.09Z"/><path class="cls-12" d="M31.02,53.66c-.11-.51-.58-.88-1.11-.83,0,.39,.24,.74,.63,.84,.16,.04,.33,.03,.49-.01Z"/><path class="cls-19" d="M33.66,49.65c0,.24-.2,.44-.43,.44-.24,0-.42-.2-.42-.45,0-.24,.2-.44,.43-.44,.24,0,.42,.2,.42,.45Z"/></g></g></g><g><path class="cls-4" d="M30.63,94.23c-.51-.6-1.1-1.26-1.73-1.96-2.3-2.57-5.16-5.76-6.25-8.54-1.2-3.08-1.07-5.65-.99-7.34,.01-.29,.03-.55,.03-.78,.02-1.39-1.24-2.68-1.66-3.07,.07-.21,.17-.59,.19-1,.36,.26,.92,.67,1.64,1.22,.25,.19,.57,.3,.92,.3,.69,0,1.45-.39,2.09-1.06,1-1.05,1.53-2.57,1.45-4.17-.11-2.32-.43-5.49-.69-7.43-.3-2.27-.27-3.35-.25-3.66l.18-.15c.12,.78,.38,2.4,.72,3.69,.54,2.04,1.29,4.26,1.29,4.28l.08,.23,7.11-1.67-.14-.29c-.08-.18-2.05-4.36-3.53-5.89h0c.43,.45,1.18,1.3,2.1,2.62,1.7,2.44,2.1,3.33,2.4,4.53,.17,.7,.39,2.4-.14,5.86-.46,2.96-.45,6.32-.13,6.89,.07,.12,.35,.47,1.02,1.31,1.76,2.19,5.36,6.68,7.57,10.36-3.21,.39-9.9,3.56-13.29,5.74Z"/><path class="cls-17" d="M25.76,59.15c.08,.4,.18,.8,.28,1.18,.54,2.04,1.29,4.28,1.3,4.3l.15,.45,.47-.11,6.57-1.54,.58-.14c.1,.28,.18,.55,.25,.83,.17,.69,.38,2.35-.15,5.76-.44,2.87-.49,6.36-.1,7.06,.08,.14,.33,.46,1.05,1.35,1.7,2.12,5.13,6.39,7.34,9.99-3.48,.59-9.79,3.7-12.81,5.6-.47-.55-1.02-1.16-1.59-1.79-2.29-2.55-5.13-5.73-6.2-8.46-1.18-3.02-1.05-5.56-.97-7.23,.01-.29,.03-.56,.03-.79,.02-1.37-1.1-2.64-1.62-3.16,.04-.13,.07-.28,.1-.45,.33,.25,.76,.57,1.27,.95,.3,.23,.67,.35,1.08,.35,.76,0,1.59-.42,2.28-1.14,1.05-1.1,1.6-2.69,1.52-4.36-.11-2.33-.43-5.51-.69-7.45-.06-.44-.11-.84-.14-1.2m0-3.08l-.62,.51s-.14,.99,.24,3.83c.24,1.8,.57,5,.68,7.41,.14,2.97-1.85,4.96-3.28,4.96-.28,0-.54-.08-.76-.24-1.3-.99-2.09-1.54-2.09-1.54,.14,.72-.21,1.61-.21,1.61,0,0,1.73,1.46,1.7,2.99-.03,1.53-.46,4.55,.98,8.22,1.43,3.67,5.85,7.98,8.17,10.76,3.31-2.18,10.71-5.74,13.78-5.86-2.87-4.94-8.54-11.57-8.8-12.03-.26-.46-.32-3.63,.16-6.72,.48-3.09,.39-4.97,.14-5.96-.3-1.21-.7-2.13-2.44-4.62-1.48-2.13-2.52-3.06-2.52-3.06l-.06,.69c1.46,1.44,3.56,5.9,3.56,5.9l-6.57,1.54s-.75-2.22-1.29-4.27c-.47-1.77-.78-4.12-.78-4.12h0Z"/></g><path class="cls-17" d="M28,66.85l6.9-1.58s.06,2.25-.22,4.11c-.28,1.87-6.93,3.24-6.83,1.61,.13-2.06,.16-4.14,.16-4.14Z"/><g><path class="cls-15" d="M30.58,94.57c1.53-1.01,3.92-2.3,6.35-3.42-.11-.15-.22-.3-.34-.44-.3-.35-.63-.69-1.06-.84-.52-.18-1.1-.04-1.56,.25s-.82,.72-1.15,1.15c-.09,.12-.19,.25-.31,.33-.28,.19-.71,.11-.9-.17-.27-.38-.13-1.02-.52-1.27-.42-.26-.97,.22-1.45,.09-.26-.07-.45-.3-.56-.55s-.16-.52-.27-.77c-.27-.61-.86-1.04-1.51-1.22-.64-.18-1.33-.14-1.99,0-.16,.03-.33,.07-.49,.1,1.88,2.5,4.27,4.95,5.78,6.75Z"/><path class="cls-15" d="M32.04,89.74c.16,.04,.35,.04,.5,.03,1.15-.08,.34-1.2-.42-.93-.25,.09-.48,.33-.41,.62,.04,.16,.17,.24,.33,.28Z"/></g><g><path class="cls-15" d="M33.32,77.99c.18,.25,.22,.59,.11,.88-.07,.19-.21,.36-.27,.56-.14,.48,.22,1,.68,1.2s.99,.17,1.49,.12c.5-.05,1.02-.1,1.49,.08,.8,.3,1.41,1.21,2.25,1.1,.12-.02,.25-.06,.33-.15,.03-.04,.06-.08,.08-.12-2.03-2.65-3.78-4.73-3.92-4.98-.13-.23-.21-1.13-.2-2.36-.25,.16-.52,.27-.8,.36-.62,.19-1.3,.3-1.83,.67-.54,.37-.88,1.15-.52,1.69,.27,.41,.82,.55,1.1,.95Z"/><path class="cls-15" d="M37.02,82.32c-.05,.39,.15,.8,.49,.98,.33,.18,.84,.07,1.08-.21,.36-.41-.05-.65-.43-.77-.19-.06-.31-.16-.48-.25-.3-.17-.62-.13-.67,.25Z"/></g><g id="Arm-2"><g><path class="cls-11" d="M37.54,72.03c.61,.02,1.22-.32,1.8-.43,.51-.1,1.05-.08,1.56-.09,.54,0,1.09,0,1.63,0,.14,0,.18,.13,.18,.25,0,.23-.14,.44-.33,.57-.18,.14-.4,.21-.62,.27-.2,.05-.4,.09-.6,.11-.21,.03-.71,.08-.63,.4l-3-1.09Z"/><path class="cls-12" d="M37.54,72.03c.43,.05,.85-.09,1.25-.2,.2-.06,.4-.12,.6-.15,.2-.03,.41-.05,.62-.06,.42-.02,.84-.02,1.26-.03,.42-.02,.84-.03,1.26-.07-.42-.04-.84-.05-1.27-.06-.42-.01-.84-.02-1.27,0-.21,.01-.43,.03-.64,.07-.21,.04-.42,.11-.62,.18-.2,.07-.39,.15-.59,.21-.2,.07-.4,.11-.61,.12Z"/><g><path class="cls-11" d="M44.24,74.36c-.67-.14-2.07,.07-3.07-.66-.18-.13-.58-.35-.64-.58l-3-1.09c-1.16,.12-1.48,.15-3.7-.31-1.92-.4-6.58-2.08-6.58-2.08l-2.99-5.74c-.78-2.4-2.46-4.93-3.91-4.82-1.84,1.3-2.38,3.63-.71,7.52,1.25,2.92,2.31,4.08,3.12,5.77,.81,1.68,.95,2.2,3,2.35,3.84,.27,7.11,.95,10.34,1.11,.42,.02,.93,.09,1.81,.73,.34,.25,.97,.72,1.2,.87,.28,.18,.67,.29,.99,.41,.67,.25,1.1,.41,2.3,.45,.15,0,.41,.02,.47-.12,.05-.11,.03-.25-.06-.34-.16-.16-.39-.16-.73-.3,.44,.05,1.07,.12,1.58-.08,.08-.03,.23-.11,.28-.18,.05-.06,.1-.24,.03-.35,0,0,.39-.08,.52-.13,.19-.08,.56-.27,.33-.5-.39-.4-1.16-.16-1.93-.26-.77-.1-1.61-.8-1.61-.8,0,0,.85,.15,1.46,.16,.61,0,1.83-.14,2.03-.39,.2-.25,.14-.51-.54-.64Z"/><path class="cls-12" d="M43.98,76.93c-.64,0-1.28,.04-1.9-.08-.31-.05-.59-.18-.89-.32l-.87-.39c.27,.18,.54,.34,.83,.49,.28,.14,.58,.29,.91,.34,.64,.11,1.29,.05,1.92-.04Z"/><path class="cls-12" d="M42.09,77.54c-.33-.09-.64-.18-.95-.31-.31-.12-.61-.28-.92-.4,.27,.21,.56,.38,.88,.51,.32,.12,.65,.21,1,.2Z"/></g></g><path class="cls-20" d="M20.95,58.55c-1.63,.84-2.8,2.22-2.64,4.35,.15,2.03,.55,2.5,1.92,5.43,1.73,3.68,2.21,4.48,2.73,5.34,.52,.86,1.07,1.06,2.62,1.2s5.46,.43,5.46,.43c0,0-.39-.8,.08-2.47,.33-1.17,1.1-1.55,1.1-1.55l-4.87-1.7s-2.05-4.51-2.93-6.62c-.87-2.12-1.62-3.81-3.46-4.41Z"/><path class="cls-15" d="M41.25,74.07c0,.16,.18,.25,.34,.29,.15,.04,.33,.07,.42,.2,.05,.08,.06,.19,.13,.26,.13,.13,.37,.03,.52,.12,.1,.06,.15,.19,.14,.31,0,.05-.01,.09-.03,.14,.62,0,1.81-.15,2-.39,.2-.25,.14-.51-.54-.64-.63-.13-1.88,.04-2.86-.52-.08,.06-.13,.14-.13,.23Zm3.58,2.23c-.36-.37-1.05-.19-1.75-.24,.03,.01,.06,.03,.09,.05,.09,.06,.14,.2,.06,.28-.04,.05-.11,.06-.14,.12-.04,.08,.04,.17,.11,.24,.07,.06,.13,.18,.05,.24-.02,.02-.06,.02-.09,.02-.21,.02-.42,.02-.63,.01-.12,0-.26,0-.31,.11-.02,.04-.01,.09-.03,.13-.03,.09-.12,.13-.21,.14-.09,0-.18-.02-.27-.04-.12-.03-.24-.04-.35,0-.11,.04-.2,.16-.18,.27,.01,.07,.06,.15,.02,.21-.04,.07-.15,.04-.22,.05-.09,.02-.15,.1-.17,.19,.39,.11,.84,.18,1.58,.21,.15,0,.41,.02,.47-.12,.05-.11,.03-.25-.06-.34-.16-.16-.39-.16-.73-.3,.44,.05,1.07,.12,1.58-.08,.08-.03,.23-.11,.28-.18,.05-.06,.1-.24,.03-.35,0,0,.39-.08,.52-.13,.19-.08,.56-.27,.33-.5Zm-3.81-3.65c.11,.02,.22,.02,.32,.05,.14-.02,.28-.05,.42-.09,.22-.06,.44-.13,.62-.27,.18-.14,.32-.35,.33-.57,0-.12-.04-.25-.18-.25-.42-.04-.84-.05-1.27-.06-.18,0-.37,0-.55-.01-.2,.02-.41,.03-.61,.05-.13,.01-.29,.03-.37,.14-.12,.17,.03,.41,.22,.49,.19,.07,.41,.04,.61,.07,.07,0,.14,.03,.17,.09,.02,.05,0,.1,.02,.15,.02,.12,.14,.19,.26,.22Z"/></g></g></g><g id="Clay_Man"><g><g id="Arm-3"><path class="cls-13" d="M89.67,53.69c-.28,.03-.57-.03-.81-.17-.1-.06-.19-.13-.28-.2-.02-.01-.03-.03-.05-.03-.02,0-.05,0-.07,.02-.35,.15-.7,.1-1.05-.02-.43-.16-.86-.32-1.29-.47-.24-.09-.48-.18-.7-.32-.21-.14-.4-.34-.47-.59-.04-.14-.04-.3,.03-.43,.05-.08,.12-.15,.19-.2,.24-.16,.54-.2,.83-.22,.83-.04,1.66,.17,2.38,.59,.27,.16,.53,.33,.78,.5,.23,.15,.33,.46,.45,.69,.07,.14,.15,.28,.25,.41,.06,.08,.2,.15,.19,.26-.01,.08-.09,.12-.17,.14-.07,.02-.14,.04-.22,.04Z"/><path class="cls-15" d="M85.76,53.27c-.49-.23-1.01-.27-1.54-.27-.4,0-.75-.09-1.14-.18-.23-.05-.48-.06-.71-.08-.3-.02-.64-.07-.91-.2-.76-.38-1.15-.96-1.59-1.65-.18-.28-.31-.55-.55-.77-.14-.13-.27-.26-.41-.39-1.08-1.03-2.13-2.09-3.17-3.17-2.47-2.54-2.67-2.75-3.13-3.79-.47-1.04-2.83-6.34-2.83-6.34l-1.34-9.73c3.45,.66,4.78,1.67,5.55,5.53,1.02,2.61,3.57,8.31,3.47,8.16,3.28,4.86,5.71,8.57,6.04,8.81,.53,.38,1.54,.54,2.7,.88,.61,.18,1.21,.34,1.83,.46,.21,.04,.42,.08,.6,.19,.14,.08,.25,.2,.37,.31,.33,.33,.66,.67,.99,1,.28,.28,.63,.48,.93,.75,.04,.03,.08,.07,.1,.12,.19,.48-.77,.43-.98,.37-.27-.07-.52-.21-.77-.35-.37-.21-.68-.44-1.01-.71-.34-.28-.72-.46-1.17-.47-.31,0-.63,0-.94-.01-.06,0-.13,.02-.12,.08,0,.02,.02,.03,.04,.04,.49,.38,1.01,.72,1.55,1.02,.09,.05,.18,.1,.22,.18,.09,.17-.05,.38-.21,.49-.61,.39-1.3-.02-1.87-.29Z"/><path class="cls-13" d="M70.57,30.28h-1.63l.84,6.15s.71,1.59,1.43,3.21c.04-1.09,.23-1.81,.52-3.64,.34-2.16-.04-3.95-1.17-5.72Z"/></g><g><g id="Arm-4"><g><path class="cls-15" d="M55.75,26.26c-1.62-.46-2.47-.65-3.59-1.05-1.1-.39-1.9-.83-3.53-1.6-2.04-.97-3.8-1.68-5.2-2.6-.58-1.43-1.82-5.88-2.16-7.19-.35-1.35-.37-2.03-.33-2.98,.06-1.21,.08-1.7-.38-2.82-.47-1.12-.89-2.22-1-2.78-.07-.35-.12-.44-.22-.5-.25-.17-.62,.13-.84,.64-.31,.7,.13,1.69-.09,1.84-.22,.14-2.46-.68-2.97-.51-.51,.17-.18,1.4-.05,2.65,.04,.43-.44,.78-.23,1.2,.35,.69,.91,1.31,1.5,2.2,.31,.46,.57,1.56,.79,3.36,.17,1.41,.22,4.52,.5,6.94,.37,3.22,1.35,2.9,4.32,4.63,2.37,1.38,8.31,4.31,10.08,6.44,2.39-.56,3.21-5.91,3.4-7.87Z"/><path class="cls-13" d="M43.43,21.01c.11,.68-.12,2.33-.81,2.97,.74-.3,1.41-1.38,1.31-2.65l-.5-.31Z"/></g></g><g><g><path class="cls-15" d="M34.76,7.76c-.03-.39,.04-1.11,.28-1.73,.24-.62,.4-.88,.81-1.16,.95-.66,1.26-.83,1.37-.77,.18,.11,.18,.63-.13,1.08-.26,.38-.74,.63-.82,.84-.04,.1,0,1.11,0,1.11l-1.5,.62Z"/><path class="cls-13" d="M36.26,7.13s-.04-1,0-1.11c.06-.14,.28-.29,.49-.49-.31,.2-.86,.29-.96,.3-.1,0,.14,.16,.14,.33,0,.16-.88,.66-1.18,1.45,0,.05,0,.09,0,.13l1.5-.62Z"/></g><g><path class="cls-15" d="M34.81,8.66c-.2-.5-.29-.78,.24-1.33,.52-.55,1.42-1.05,1.88-.91,.46,.14,1.81,.68,2.07,.85,.16,.11,.18,.22,.15,.36-.03,.14-.18,.29-.51,.38-.65,.17-1.85-.47-1.85-.47l-1.98,1.12Z"/><path class="cls-13" d="M39.06,7.79c-.14,.11-.69-.14-1.49-.42-.8-.28-1.05-.17-1.53,.11-.49,.28-1.02,.69-1,.93,0,.03,.04,.04,.11,.06l1.64-.92s1.19,.64,1.85,.47c.21-.05,.35-.14,.43-.23Z"/></g><g><path class="cls-15" d="M35.56,9.79c-.11-.34,.66-.64,1.08-.83,.42-.19,1.08,.01,1.6,.05,1.05,.08,1.31-.39,1.26-.71-.02-.11-.83-.38-1.43-.55-.61-.17-1.33-.43-1.97-.07-.64,.36-1.11,.71-1.3,1.02-.23,.4-.06,1.09,.4,1.37l.37-.28Z"/><path class="cls-13" d="M36.64,8.96c.42-.19,1.08,.01,1.6,.05,.61,.04,.95-.09,1.12-.28-.26,.22-.81,.11-1.65-.08-.81-.18-.95-.12-1.46,.11-.51,.24-.94,.46-.7,1.02-.02-.06-.01-.13,.02-.19,.01-.02,.02-.04,.04-.06,.03-.04,.07-.08,.12-.12,.07-.06,.16-.11,.25-.16,.06-.03,.13-.07,.19-.1,.06-.03,.13-.06,.19-.09,.1-.04,.19-.08,.27-.12,0,0,0,0,0,0Z"/></g><g><path class="cls-15" d="M35.9,11.18c-.14-.33,.59-.7,.99-.93,.4-.23,1.09,0,1.6-.1,.51-.1,.79-.42,.83-.74,.04-.32-.51-.38-1.13-.49-.62-.11-1.36-.3-1.97,.12-.61,.42-.96,.59-1.12,.92-.22,.47,.38,1.22,.79,1.23Z"/><path class="cls-13" d="M36.9,10.25c.4-.23,1.09,0,1.6-.1,.34-.07,.58-.24,.71-.44-.24,.25-.44,.34-1.25,.18-.81-.15-.91-.05-1.39,.23-.48,.29-.96,.53-.67,1.06-.14-.33,.59-.7,.99-.93Z"/><path class="cls-13" d="M38.48,10.03c-.11-.12-.37,0-.24,.14,.58,.6,.78,1.53,.54,2.33,0,.02,.01,.05,.03,.03,.48-.79,.3-1.85-.33-2.5Z"/></g></g></g><path class="cls-15" d="M71.66,50.6c-.56-2.76-.79-5.33-.8-6.67-.01-1.85-.2-6.13-.2-6.13,.29-.41,1.17-2.1,.5-5.5-.67-3.4-2.7-5.59-2.7-5.59,0,0-1.05-.26-2.09-.58-1.03-.32-1.66-.46-1.98-1-.15-.26-.11-1.14,0-2.62,0,0-.31,1.97-1.54,2.59-1.23,.63-4.28,.15-4.28,.15-.11,1.25-1.49,1.33-2.83,1.02-1.31-.31-4.25,7.03-4.25,7.03,0,0,.94,.63,1.38,3.38,.43,2.75,.77,5.86,.55,9.04-.22,3.18-.84,3.58-1.37,8.68-.39,3.73,.71,15,.71,16.32s-.88,2.87-.5,8.56,.88,7.84,.55,10.31c-.33,2.48-1.79,2.92-2.08,4.46-1.12,.65-2.02,1.1-2.15,2.42-.12,1.32,2.46,6.8,13.3,6.8s14.14-4.27,14.14-5.86-1.21-1.93-1.21-1.93c0,0,.55-1.45-1.6-2.29-2.15-.84-3.04-3.64-1.54-9.59,1.08-4.29,1.89-8.25,2.51-10.95,.24-1.04,.47-1.57,.66-2.33,.84-3.48,2.11-2.56,.09-8.66-1.81-5.49-2.81-8.71-3.29-11.05Z"/><path class="cls-15" d="M74.33,72.21c.14-.56,.3-.87,.64-.56,.34,.3,.06,.68,.14,1.05,.08,.36,.3,.52,.62,.46,.33-.06,.42-.68,.24-1.47-.18-.79-.19-1.83,.05-2.58,.25-.75,.95-1.77,.04-4.33s-1.46-3.94-1.46-3.94l-.28,11.37Z"/><g><g id="Chest-2"><g id="Head-2"><path class="cls-13" d="M64.17,24.1c.09-1.18,1.66-2.48,2.36-3.48,.68-.97,1.1-1.73,1.18-2.72,.04-.58-.22-1.42-.62-1.64,.79-2.08-.69-3.3-1.52-3.62-.32-.12-.84-.32-1.14-.49-.44-.26-.49-.65-.83-1.02-.57-.64-1.66-.8-2.19-.02-.36-.62-.94-.68-1.64-.6-.67,.08-1.05,.58-1.06,1.18-.83-.63-1.75-.1-1.9,.42-.11,.38-.08,.72-.38,1.04-.34,.36-.89,.28-1.01-.07-.17,.54,0,1,.6,1.05-.25,.27-.36,.66-.3,1.04,.08,.51,.53,.87,.93,.94,.02,.31,0,.6,.15,.88,.15,.28,.36,.56,.62,.74,.85,.56,1.84,.84,2.8,1.17,.38,.13,.76,.27,1.13,.4,.07,.02,.42,.09,.45,.16,0,0,2.36,4.64,2.36,4.64Z"/><path class="cls-15" d="M65.51,22.06c-.74,.2-1.04-.59-1.04-.59l-.35,4.14c.14,1.04-.46,3.07-1,3.91-.23-.58-3.57-1.61-4.56-3.93l.09-1.25s-.84-.25-1.54-.64c-.87-.48-1.35-1.06-1.39-2.16-.04-1.3,.25-3,.67-4.28,.11-.33,.26-.64,.27-.98,.01-.4-.08-.73,.03-1.08,.14-.46,.51-.91,.87-1.37,1.18-.72,3.87-.78,5.98,.93-.45,1.33-.81,3.42,.11,4.07-.1,.36-.1,.97,.33,1.02,.33,.03,.46-.44,1.15-1.01,.41-.34,1.44-.33,1.75,.44,.43,1.08-.29,2.5-1.37,2.79Z"/><g><polygon class="cls-13" points="57.26 18.62 58.85 19.36 59.38 16.36 57.26 18.62"/><path class="cls-13" d="M58.02,16.88s.04-.01,.03-.04c0-.04-.08-.09-.11-.11-.24-.17-.6-.32-.88-.19-.25,.11-.34,.45-.26,.69,0,0-.02,0-.02-.01-.02,0-.03,.01-.03,.03,0,.02,.01,.03,.01,.05,0,.03,.08,.07,.1,.08,.03,.02,.06,.04,.1,.05,.07,.03,.14,.05,.21,.07,.07,.02,.14,.03,.22,.04,.04,0,.08,0,.11,0,.02,0,.05,0,.08,0,.02,0,.04-.01,.06-.01,.02,0,.02-.05,0-.05-.04,0-.09-.02-.13-.02-.04,0-.08,0-.12-.01-.07,0-.15-.02-.22-.04-.11-.03-.24-.07-.27-.2,0-.05,0-.1,0-.15,.02-.1,.05-.2,.12-.26,.06-.05,.13-.08,.21-.09,.26-.04,.52,.07,.75,.18,.01,0,.02,0,.03,0Z"/></g></g></g><path class="cls-13" d="M58.64,24.35c.58-.39,1.42-.13,2.27-.02,1.37,.17,2.41-1.07,2.77-2.34-.63,1.42-1.63,2.02-3.01,1.71s-2.19-.71-3.23-.84c-1.04-.13-1.12,.28-.8,.57,.33,.29,1.28,.73,1.99,.92Z"/><g><path class="cls-13" d="M60.99,16.52c.09,.03,.19,.06,.27,.11,.08,.04,.16,.09,.23,.14,.07,.05,.13,.11,.2,.16,0,0,.01-.01,.01-.02-.08-.17-.26-.3-.43-.38-.08-.04-.17-.07-.27-.09-.1-.01-.2-.01-.3,0,0,0-.01,.02,0,.02,.1,0,.19,.03,.28,.06Z"/><path class="cls-13" d="M57.78,16.2c-.1-.02-.19-.04-.29-.05-.09,0-.18,0-.27,0-.08,.01-.17,.03-.26,.03-.01,0,0-.02,0-.02,.16-.11,.38-.13,.57-.11,.09,0,.19,.03,.27,.06,.09,.04,.18,.09,.26,.15,0,0,0,.02,0,.02-.09-.04-.18-.07-.27-.09Z"/><path class="cls-13" d="M61.13,16.88c-.35-.11-.87-.05-1.08,.28-.01,.02,0,.09,.04,.07,.28-.22,.65-.27,.99-.17,.28,.08,.47,.27,.64,.49,0,0,0,0,0,0-.3,.22-.68,.28-1.04,.22-.04,0-.04,.06,0,.08,.1,.05,.2,.08,.32,.09,.1,.01,.21,.01,.31,0,.2-.03,.39-.11,.55-.23,0,0,0,0,0,0,0,0,0,0,0,.01,.02,.03,.05-.01,.05-.04-.03-.4-.4-.69-.76-.8Z"/></g><path class="cls-13" d="M62.21,16.33c-.02-.05-.03-.11-.05-.16-.16-.5-.82-.74-1.3-.79-.09,0-.18-.01-.26,.02-.08,.03-.16,.09-.18,.17-.07,.23,.22,.28,.37,.31,.18,.03,.36,.05,.54,.11,.22,.07,.44,.18,.61,.34,.09,.08,.17,.18,.26,.27,.01,.01,.03,.02,.04,.02,0,0,.01-.01,.02-.02,.02-.06,0-.12-.01-.17,0-.03-.02-.06-.03-.09Z"/><path class="cls-13" d="M56.61,15.53l.11-.13c.34-.4,1.04-.37,1.5-.23,.08,.03,.17,.06,.23,.11,.07,.06,.11,.14,.11,.23-.02,.24-.31,.18-.46,.14-.18-.04-.35-.09-.54-.1-.23-.02-.47,0-.7,.08-.12,.04-.23,.1-.34,.15-.01,0-.03,.01-.05,0,0,0,0-.02,0-.02,0-.06,.04-.11,.08-.16l.06-.07Z"/><path class="cls-13" d="M59.57,20.36c-.21-.13-.47-.2-.71-.28-.23-.08-.47-.15-.71-.18-.29-.04-.88-.09-1.02,.25,0,.02,0,.06,.02,.05,.08-.03,.16-.08,.24-.11,.09-.03,.2-.05,.3-.06,.22-.02,.45,.01,.66,.06,.21,.05,.42,.12,.63,.19,.19,.07,.39,.15,.59,.19,.07,.01,.03-.09,0-.11Z"/><path class="cls-13" d="M59.03,20.84c-.17-.05-.33-.05-.5-.06-.14,0-.29-.01-.43-.02-.14,0-.29-.03-.43-.06-.08-.02-.16-.04-.24-.06-.05-.02-.1-.05-.15-.07-.02,0-.02,.03-.01,.03,.08,.1,.2,.19,.31,.26,.13,.08,.29,.1,.44,.12,.17,.02,.34,0,.51-.01,.17-.02,.34-.04,.5-.09,.01,0,.01-.03,0-.04Z"/></g><g><path class="cls-13" d="M53.96,32.34c-.14-.44-.31-.86-.54-1.26-.23-.4-.53-.82-.87-1.13-.04-.04-.07,.02-.05,.06,.11,.2,.24,.39,.35,.59,.12,.22,.23,.45,.33,.69,.18,.42,.36,.83,.48,1.27,.12,.42,.2,.85,.25,1.29,.02,.2,.04,.4,.05,.6,.01,.27,0,.55,.05,.81,0,.04,.09,.11,.12,.05,.1-.24,.12-.54,.13-.8,0-.25,0-.5-.02-.75-.04-.48-.14-.95-.29-1.41Z"/><path class="cls-13" d="M62.91,39.74c-.29-.04-.59-.02-.88-.02-.27,0-.55,0-.82,0-.59-.02-1.17-.07-1.74-.17-.55-.1-1.11-.22-1.62-.46-.49-.22-.84-.6-1.14-1.04-.38-.57-.7-1.18-.92-1.83-.02-.05-.09-.05-.07,.01,.15,.56,.34,1.1,.61,1.61,.26,.5,.58,.98,1.05,1.3,.48,.32,1.08,.48,1.65,.6,.63,.13,1.27,.17,1.9,.18,.35,0,.69,0,1.04-.01,.32-.01,.67,0,.97-.08,.04-.01,.02-.09-.02-.09Z"/><path class="cls-13" d="M65.65,35.38c-.03-.46-.08-.91-.18-1.37-.18-.9-.47-1.81-.95-2.59-.03-.05-.12-.05-.09,.03,.3,.85,.61,1.69,.8,2.58,.18,.89,.26,1.8,.3,2.7,0,.03,.04,.07,.05,.02,.04-.23,.07-.45,.08-.69,0-.23,0-.45-.01-.68Z"/><path class="cls-13" d="M62.6,28.9c-.12-.31-.49-.5-.78-.63-.36-.17-.74-.31-1.12-.45-.4-.16-.8-.31-1.2-.46-.4-.15-.8-.32-1.22-.45-.03,0-.03,.06,0,.07,.4,.2,.82,.35,1.23,.52,.39,.16,.77,.32,1.16,.47,.34,.14,.68,.26,1.01,.41,.16,.07,.32,.15,.46,.25,.14,.1,.26,.22,.39,.33,.04,.04,.09-.01,.07-.06Z"/><path class="cls-13" d="M65.97,26.83s0-.02,0-.03c0-.02-.03-.05-.06-.06-.12-.01-.23,.1-.33,.16-.1,.07-.2,.14-.31,.22-.2,.14-.4,.29-.59,.45-.34,.28-.64,.64-.66,1.1,0,.02,.03,.06,.04,.03,.09-.2,.18-.4,.32-.57,.14-.16,.3-.31,.47-.44,.17-.14,.35-.27,.53-.4,.09-.07,.19-.13,.28-.2,.1-.07,.21-.13,.3-.21,.01-.01,.02-.04,.01-.06Z"/><path class="cls-13" d="M63.61,23.83c-.07,.49-.17,.99-.32,1.46-.16,.53-.37,1.05-.51,1.59,0,.01,.01,.06,.03,.03,.24-.48,.45-.98,.61-1.5,.16-.52,.24-1.03,.24-1.57,0-.03-.04-.07-.05-.02Z"/><path class="cls-13" d="M67.42,46.87c-.02-.29-.06-.58-.13-.87-.07-.29-.19-.57-.25-.86-.05-.29-.03-.58-.02-.88,.02-.3,.03-.59,.01-.89-.03-.59-.15-1.2-.35-1.75-.01-.03-.04,0-.03,.02,.13,.58,.21,1.17,.21,1.77,0,.57-.14,1.16-.03,1.72,.05,.26,.15,.51,.22,.77,.08,.3,.13,.62,.16,.93,.04,.6,0,1.19,.04,1.79,0,.03,.05,.08,.07,.03,.12-.58,.15-1.2,.11-1.79Z"/><path class="cls-13" d="M62.41,54.3c-.87-.61-1.7-1.25-2.42-2.03-.73-.79-1.35-1.67-1.85-2.62-.28-.53-.52-1.09-.74-1.65-.02-.05-.08-.04-.06,.02,.27,1.05,.74,2.04,1.35,2.93,.6,.88,1.31,1.7,2.15,2.37,.49,.4,1.01,.77,1.58,1.05,.05,.02,.04-.06,.01-.08Z"/><path class="cls-13" d="M70.73,48.75c-.17,.67-.26,1.37-.42,2.05-.17,.71-.37,1.42-.56,2.12,0,.02,.02,.06,.03,.03,.3-.65,.52-1.35,.68-2.04,.17-.7,.32-1.42,.32-2.13,0-.03-.05-.08-.06-.03Z"/><path class="cls-13" d="M67.21,51.28s-.08,0-.1,.02c-.07,.09-.15,.19-.12,.31,.02,.06,.09,.13,.16,.16,0,.01,0,.03,0,.04,0,.08,0,.15,0,.23,0,.04,0,.07,0,.11,0,.04,0,.08,.01,.12,.02,.05,.11,.11,.14,.04,0-.01,.01-.03,.01-.04,0-.02,0-.05,.01-.08,.02-.06,.02-.12,.03-.18,0-.09,0-.18,0-.27,0-.16,.03-.43-.17-.47Z"/></g><g><path class="cls-13" d="M57.83,63.94c-.07-.28-.14-.55-.21-.83-.06-.25-.08-.63,.27-.66,.08,0,.05-.13-.02-.14-.37-.07-.55,.32-.53,.63,0,.17,.05,.33,.09,.5,.05,.23,.1,.46,.15,.7,.08,.39,.16,.83-.07,1.18-.22,.33-.58,.35-.85,.08-.29-.3-.32-.74-.35-1.14-.02-.28-.02-.72-.36-.82-.19-.05-.35,.03-.52,.09-.15,.05-.32,.08-.49,.06-.38-.04-.53-.37-.46-.72,.08-.4,.37-.73,.44-1.13,.07-.38-.07-.74-.43-.9-.08-.03-.07,.08-.02,.11,.15,.1,.2,.33,.2,.5,0,.21-.09,.41-.18,.6-.16,.32-.34,.62-.36,.98-.01,.34,.17,.64,.48,.77,.28,.12,.61,.09,.89,0,.09-.03,.17-.08,.26-.1,.1-.02,.14,.06,.16,.14,.05,.2,.05,.42,.07,.63,.04,.36,.11,.73,.35,1.01,.22,.25,.54,.42,.88,.35,.3-.06,.54-.3,.66-.58,.18-.43,.06-.91-.04-1.34Z"/><g><path class="cls-13" d="M59.15,62.49c-.05-.08-.14-.12-.23-.14-.04,0-.09,0-.13,0-.09-.04-.19,0-.25,.07-.02,.03-.05,.06-.06,.1-.01,.05-.01,.09,0,.13,.03,.17,.2,.32,.37,.32,.09,0,.17-.02,.24-.08,.05-.05,.09-.11,.1-.18,.01-.08,0-.16-.04-.23Zm-.37,.25s-.01,0,0,0c0,0,0,0,0,0,.03-.02,.06-.04,.06-.09h0s0,0,0-.01c0,0,0-.01,.01-.02,0,0,.01-.01,.02-.01,0,0,0,0,0,0,0,0,.01,0,.02,0,0,0,.01,0,.02,0,0,0,0,0,.01,0,0,0,0,0,0,0,0,0,0,0,0,0,0,0,0,0,0,.01,0,0,0,0,0,0,0,0,0,0,0,0,0,.02,0,.03,0,.05,0,.02,0,.03-.01,.05,0,.01-.02,.03-.03,.04,0,0-.01,.01-.02,.02,0,0,0,0,0,0,0,0,0,0,0,0,0,0,0,0-.01,0,0,0,0,0,0,0,0,0,0,0,0,0,0,0,0,0-.01,0,0,0,0,0,0,0,0,0-.01,0-.02,0,0,0,0,0,0,0,0,0,0,0-.01,0,0,0,0,0,0,0,0,0,0,0,0,0,0,0,0,0,0,0Z"/><path class="cls-13" d="M58.77,62.73s0,0,0,0c0,0,0,0,0,0,0,0,0,0,0,0Z"/></g><path class="cls-13" d="M76.42,68.38c.16-.47,.26-.95,.25-1.45-.02-.54-.15-1.07-.31-1.58-.2-.62-.45-1.23-.68-1.83-.24-.62-.45-1.27-.73-1.87-.02-.04-.06-.02-.05,.02,.14,.55,.36,1.07,.54,1.61,.19,.55,.37,1.1,.56,1.65,.18,.53,.34,1.08,.39,1.64,.05,.53,0,1.05-.17,1.56-.15,.47-.35,.93-.47,1.41-.13,.5-.13,.99-.05,1.5,.08,.51,.26,1.04,.26,1.56,0,.24-.16,.54-.45,.47-.28-.07-.29-.39-.27-.62,.03-.26,.08-.53-.06-.76-.11-.18-.31-.3-.52-.27-.47,.08-.49,.82-.5,1.18,0,.02,.03,.07,.05,.04,.15-.24,.22-.5,.33-.76,.03-.08,.08-.18,.16-.22,.16-.08,.28,.11,.3,.24,.05,.26-.06,.53-.04,.79,.02,.21,.11,.39,.29,.51,.34,.22,.82,.08,.94-.32,.07-.23,.02-.5-.02-.74-.04-.26-.1-.52-.15-.78-.1-.52-.16-1.04-.05-1.56,.1-.49,.3-.95,.46-1.42Z"/><path class="cls-13" d="M72.81,72.23c-.12-.35-.58-.33-.77-.06-.2,.27-.31,.6-.33,.94-.02,.29,.02,.58,.08,.86,.09,.39,.22,.99-.28,1.17-.23,.08-.47-.01-.59-.22-.13-.22-.06-.47-.03-.7,.02-.2,0-.41-.15-.56-.15-.14-.37-.18-.56-.14-.46,.1-.67,.63-.71,1.05-.06,.53,.04,1.08,.19,1.59,.14,.47,.37,1.14-.03,1.55-.16,.16-.5,.29-.66,.07-.19-.25,.03-.69,.08-.95,.06-.26,.08-.55-.08-.79-.07-.1-.17-.19-.28-.23-.08-.03-.18-.06-.27-.05-.12,.02-.04,.07,.03,.09,.11,.04,.21,.07,.29,.16,.16,.17,.11,.35,.09,.56-.03,.27-.15,.51-.18,.78-.03,.22-.01,.45,.16,.61,.14,.13,.35,.19,.54,.16,.44-.05,.72-.44,.77-.85,.06-.53-.17-1.02-.28-1.52-.11-.5-.19-1.1,.03-1.59,.09-.2,.26-.43,.5-.43,.28,0,.28,.3,.25,.51-.03,.21-.07,.42,0,.62,.07,.19,.21,.34,.38,.44,.35,.19,.83,.08,1.05-.26,.21-.34,.14-.78,.04-1.14-.11-.39-.16-.8-.05-1.2,.04-.13,.08-.25,.17-.35,.1-.12,.45-.32,.55-.09,.03,.06,.09,.04,.07-.03Z"/><circle class="cls-13" cx="67.45" cy="74.81" r=".32"/><path class="cls-13" d="M66.63,74.24c0,.11-.09,.2-.2,.2s-.2-.09-.2-.2,.09-.2,.2-.2,.2,.09,.2,.2Z"/><path class="cls-13" d="M69.19,94.06c.9-.39,1.79-.86,2.76-1.05,.26-.05,.52-.08,.78-.09-1.62-.98-2.29-3.41-1.35-7.97-.08,.25-.17,.5-.26,.74-.76,2.05-1.87,3.99-3.44,5.51-2.71,2.62-6.21,3.16-9.82,3.31-.14,0-.34,.08-.3,.22,.21,.7,1.82,.7,2.35,.75,1.05,.11,2.11,.13,3.16,.06,2.11-.14,4.19-.64,6.13-1.47Z"/><path class="cls-13" d="M55.88,94.08s0,.01,.01,.02c.19,.29,.02,.59-.33,.53-.24-.04-.46-.14-.66-.28-.21-.16-.26-.44,.02-.58,.2-.1,.52,.04,.7,.13,.1,.05,.19,.1,.25,.19Z"/><path class="cls-13" d="M55.18,98.45c3.72,.96,8.85,1.12,12.6-.49-4.56,1.12-9.56,.58-12.24-.18-2.68-.76-4.33-1.88-4.8-3.74-.32,.18-.62,.35-.89,.53,.66,2,3.1,3.3,5.33,3.88Z"/><path class="cls-13" d="M58.08,84.13c-.36-.13-.54,.33-.51,.62,.05,.36,.33,.71,.23,1.09-.05,.18-.2,.29-.39,.24-.2-.06-.31-.25-.36-.43-.11-.42,0-.86,.09-1.27,.08-.38,.15-.79,.04-1.18-.09-.32-.37-.6-.72-.48-.12,.04-.23,.13-.27,.26-.05,.19,.06,.41,.04,.61-.01,.17-.09,.39-.28,.44-.17,.05-.34-.08-.43-.22-.31-.49,.1-1.12,.15-1.63,.04-.37-.14-.83-.5-.99-.05-.02-.04,.07,0,.09,.47,.28,.25,.91,.11,1.33-.13,.39-.27,.83-.09,1.23,.13,.29,.45,.51,.78,.47,.41-.05,.6-.48,.58-.85,0-.12-.14-.41,.02-.48,.2-.08,.31,.23,.33,.37,.08,.43-.04,.87-.12,1.28-.08,.4-.14,.85,.03,1.24,.14,.33,.49,.57,.85,.47,.38-.1,.47-.49,.4-.83-.05-.23-.16-.43-.22-.65-.06-.23-.06-.58,.24-.63,.04,0,.02-.08,0-.09Z"/><path class="cls-13" d="M59.53,84.95c0,.2-.16,.36-.36,.36s-.36-.16-.36-.36,.16-.36,.36-.36,.36,.16,.36,.36Z"/><circle class="cls-13" cx="60.21" cy="84.33" r=".19"/></g></g><g><path class="cls-15" d="M75.34,101.75c-.37,.32-.61,.87-.43,1.35,.21,.54,.63,.74,1.17,.87,1.35,.32,2.77,.38,4.14,.16,.41-.06,.83-.16,1.2-.33,.32-.15,.46-.32,.62-.63,.32-.65-.2-1.26-.85-1.34-.17-.02-.36-.01-.5-.11-.1-.07-.15-.17-.23-.26-.24-.29-.67-.41-1.03-.28-.12,.04-.23,.11-.35,.11-.17,0-.31-.13-.4-.27-.09-.14-.14-.3-.23-.45-.21-.35-.65-.56-1.06-.49-.59,.1-.95,.64-1.32,1.05-.19,.2-.48,.4-.74,.62Z"/><path class="cls-13" d="M81.37,103.33c-1.25,.51-2.67,.42-4,.19-.37-.06-.75-.14-1.07-.34-.32-.2-.57-.56-.54-.93,.04-.6,.71-.95,.96-1.5,.06-.14,.1-.3,.15-.44-.3,.22-.54,.55-.79,.82-.19,.2-.48,.4-.74,.62-.37,.32-.61,.87-.43,1.35,.21,.54,.63,.74,1.17,.87,1.35,.32,2.77,.38,4.14,.16,.41-.06,.83-.16,1.2-.33,.32-.15,.46-.32,.62-.63,.08-.16,.11-.33,.09-.48-.02,.03-.04,.07-.06,.1-.15,.26-.43,.42-.71,.54Z"/></g></g><g id="Bucket"><g id="Paint_Pot"><path class="cls-20" d="M95.93,85.31l-1.06,9.61v.08s0,0,0,.01c-.09,.81-.67,1.6-1.75,2.21-2.33,1.31-5.61,1.27-7.9-.09-1.06-.63-1.63-1.43-1.7-2.24h0s-1.07-9.77-1.07-9.77l13.49,.18Z"/><path class="cls-18" d="M84.45,82.39c-2.65,1.49-2.68,3.96-.06,5.51,2.62,1.55,6.89,1.6,9.54,.1,2.65-1.49,2.68-3.96,.06-5.51-2.62-1.55-6.89-1.6-9.54-.1Z"/><path class="cls-19" d="M95.35,85.26c0,.18-.04,.35-.1,.53-.21,.63-.76,1.22-1.61,1.7-1.2,.67-2.79,1.03-4.49,1.01-1.69-.02-3.28-.41-4.46-1.11-.83-.49-1.37-1.09-1.56-1.7-.07-.18-.1-.37-.1-.57,.01-.82,.62-1.61,1.71-2.22,1.19-.68,2.79-1.03,4.48-1.01,1.7,.01,3.29,.41,4.47,1.11,1.08,.64,1.67,1.44,1.66,2.26Z"/><path class="cls-15" d="M95.25,85.79c-.21,.63-.76,1.22-1.61,1.7-1.2,.67-2.79,1.03-4.49,1.01-1.69-.02-3.28-.41-4.46-1.11-.83-.49-1.37-1.09-1.56-1.7,.21-.63,.76-1.22,1.61-1.7,1.19-.68,2.79-1.03,4.48-1.02,1.7,.02,3.29,.42,4.47,1.12,.83,.49,1.36,1.08,1.56,1.69Z"/><path class="cls-13" d="M93.64,87.49c.23-.13,.43-.26,.61-.4-2.46,1.32-6.7,.77-8.02-.27-1.32-1.04-1.5-2.81,.65-3.6-.8,.17-1.53,.44-2.15,.79-.86,.48-1.41,1.06-1.61,1.7,.19,.62,.73,1.21,1.56,1.7,1.18,.7,2.77,1.09,4.46,1.11,1.7,.01,3.29-.34,4.49-1.01Z"/><path class="cls-19" d="M92.06,89.43c.3-.17,.53-.03,.53,.31,0,.34-.25,.75-.54,.92-.3,.17-.53,.03-.53-.31,0-.34,.25-.75,.54-.92Z"/></g><g><path class="cls-4" d="M82.59,86.78c-.74,1.46-2.38,5.32-.47,6.74,.08,.06,.15,.11,.23,.16v.7c-.2-.12-.4-.25-.59-.39-2.86-2.12,.37-7.57,.51-7.79,.04-.07,.17-.24,.24-.26l.07,.84Z"/><path class="cls-4" d="M92.31,90.29c-.08,.17-2.16,4.15-5.59,4.95-.4,.1-.79,.14-1.18,.14-1.06,0-2.13-.33-3.19-1v-.7c1.42,.98,2.85,1.32,4.24,1,3.16-.74,5.19-4.62,5.2-4.66,.07-.15,.26-.2,.4-.12,.15,.07,.21,.25,.12,.4Z"/></g><path class="cls-16" d="M88.45,89.48c-.19,.18-.42,.32-.56,.53-.2,.3-.19,.69-.12,1.04,.07,.35,.18,.7,.16,1.06-.02,.36-.21,.74-.56,.84-.3,.09-.63-.07-.82-.32-.19-.24-.28-.55-.33-.86-.06-.35-.08-.71-.07-1.07,0-.22,.03-.44-.03-.65-.06-.21-.22-.41-.43-.45-.38-.06-.74,.42-1.1,.28-.26-.1-.32-.44-.33-.72-.02-.44-.16-1.06,0-1.49,.06-.18,.19-.29,.35-.34,.03,.02,.06,.03,.08,.05,.98,.58,2.24,.94,3.6,1.06,0,0,.01,0,.02,0,.14,.08,.29,.17,.36,.32,.11,.23-.03,.51-.22,.69Z"/><path class="cls-16" d="M84.96,90.96c0-.13-.08-.25-.17-.33-.07-.06-.21-.18-.31-.13-.09,.04-.11,.19-.12,.28,0,.18,.05,.39,.21,.45,.17,.07,.38-.09,.39-.27Z"/></g><g id="Speech_Bubble"><g id="Speech_Bubble-2"><path class="cls-7" d="M41.04,36.81c-2.48,1.67-3.13,5.04-1.47,7.52,1.67,2.48,5.04,3.13,7.52,1.47,2.48-1.67,3.13-5.04,1.46-7.52-1.67-2.48-5.04-3.13-7.52-1.46Z"/><path class="cls-18" d="M49,37.97c-1.83-2.72-5.54-3.44-8.26-1.61-2.44,1.64-3.27,4.8-2.09,7.39l-1.06,1.52c-.18,.26,.05,.6,.36,.53l1.8-.41c1.96,2.07,5.2,2.48,7.64,.84,2.72-1.83,3.44-5.54,1.61-8.26Zm-1.91,7.82c-2.48,1.67-5.85,1.01-7.52-1.47-1.67-2.48-1.01-5.85,1.47-7.52,2.48-1.67,5.85-1.01,7.52,1.46,1.67,2.48,1.01,5.85-1.46,7.52Z"/></g><path id="Heart" class="cls-14" d="M44.07,44.26h0s0,0,0,0h0Zm.17-4.2l-.16,.32-.17-.32c-.24-.47-.77-.95-1.4-.95-.41,0-.8,.16-1.09,.46-.29,.29-.45,.68-.45,1.09,0,1.63,1.65,2.67,2.27,3.06l.83,.53,.83-.53c.62-.4,2.26-1.45,2.25-3.08,0-.41-.16-.8-.46-1.09-.29-.29-.68-.45-1.09-.45-.17,0-.33,.03-.47,.09-.42,.17-.73,.54-.9,.86Z"/></g></svg>