<?xml version="1.0" encoding="UTF-8"?><svg id="Camada_1" xmlns="http://www.w3.org/2000/svg" viewBox="0 0 71.26 113.19"><defs><style>.cls-1{fill:#fdd9ae;}.cls-2{fill:#fffde2;}.cls-3{fill:#8d6941;}.cls-4{fill:#a4b31d;}.cls-5{fill:#b36838;}.cls-6{fill:#bc8954;}.cls-7{fill:#d6af80;}</style></defs><g><g><path class="cls-3" d="M56.87,54.78c-2.58,0-4.98,1.06-7.05,2.94v-6.34H.06v58.12s-.04,.02-.06,.02c.02,0,.04,.02,.06,.03v.05h.12c1.16,.5,3.28,1.15,6.17,1.75,0,0,.02,0,.03,0,4.58,.97,11.05,1.83,18.53,1.83s13.7-.87,18.33-1.84h0c2.91-.61,5.09-1.25,6.31-1.75h.28v-10.48c2.07,1.87,4.47,2.93,7.05,2.93,8.07,0,14.39-10.38,14.39-23.63s-6.32-23.63-14.39-23.63Zm0,41.58c-2.58,0-5.34-2.89-7.05-7.65v-20.59c1.71-4.76,4.47-7.65,7.05-7.65,4.12,0,8.71,7.37,8.71,17.95s-4.59,17.95-8.71,17.95Z"/><path class="cls-7" d="M49.72,51.32c-1.18,.51-3.44,1.19-6.49,1.83h0c-4.63,.97-11.07,1.84-18.33,1.84s-13.94-.86-18.53-1.83c0,0-.02,0-.03,0-3.03-.63-5.22-1.31-6.34-1.83,2.81-1.29,12.45-3.67,24.9-3.67s21.85,2.38,24.83,3.67Z"/><path class="cls-6" d="M47.6,51.32c-1.22,.37-2.76,.76-4.44,1.12h-.09c-.97,.22-2.26,.47-3.81,.71-3.59,.57-8.59,1.12-14.37,1.12s-11.02-.55-14.61-1.12c-1.5-.23-2.74-.48-3.7-.67l-.11-.02c-1.68-.35-3.23-.75-4.45-1.13,3.92-1.25,12.23-2.96,22.86-2.96s18.66,1.71,22.7,2.96Z"/><path class="cls-5" d="M39.26,53.15c-3.59,.57-8.59,1.12-14.37,1.12s-11.02-.55-14.61-1.12c4.02-.65,8.99-1.12,14.61-1.12s10.35,.48,14.37,1.12Z"/></g><path class="cls-2" d="M28.84,35.09c-4.03-1.02-6.4-7.19-6.26-10.59,.21-5.06,2.71-7.36,5.43-11.19,3.16-4.45-1.46-13.31-1.46-13.31,0,0,11.12,5.53,11.15,10.99,.04,5.89-6.2,9.06-8.96,13.43-1.94,3.07,.1,10.68,.1,10.68Z"/><path class="cls-2" d="M17.49,45.65c3.28-.82,5.2-5.76,5.08-8.48-.17-4.05-2.2-5.9-4.41-8.97-2.57-3.57,1.18-10.66,1.18-10.66,0,0-9.03,4.43-9.05,8.8-.03,4.72,5.04,7.26,7.28,10.75,1.58,2.46-.08,8.55-.08,8.55Z"/></g><path class="cls-1" d="M13.79,54.36v29.73h-1.24v-29.89c.41,.06,.82,.11,1.24,.16Z"/><rect class="cls-4" x="8.26" y="84.09" width="9.83" height="11.55"/></svg>