<?xml version="1.0" encoding="UTF-8"?><svg xmlns="http://www.w3.org/2000/svg" viewBox="0 0 750 500"><defs><style>.cls-1,.cls-2,.cls-3,.cls-4,.cls-5,.cls-6,.cls-7{stroke-miterlimit:10;}.cls-1,.cls-2,.cls-4,.cls-5,.cls-6,.cls-7{stroke:#263238;}.cls-1,.cls-8{fill:#fff;}.cls-2{fill:#263238;}.cls-3{stroke:#fff;}.cls-3,.cls-7{fill:none;}.cls-4,.cls-9{fill:#92e3a9;}.cls-8{opacity:.7;}.cls-5{fill:#e0e0e0;}.cls-6{fill:#b8b8b8;}</style></defs><g id="Background_Simple"><g><path class="cls-9" d="M700.43,122.26c-18.45-25.76-42.27-45.96-69.06-59.57-36.86-18.73-95.14-44.17-138.45-43.39-68.31,1.22-222.05,85.12-302.37,101.08C110.24,136.34-7.87,195.93,16.7,317.23c24.57,121.3,89.76,157.48,214.49,141.52,124.73-15.96,169.14-31.92,270.24-11.7,101.1,20.22,217.33,6.38,229.61-138.32,8.99-105.95-4.3-149.72-30.61-186.45Z"/><path class="cls-8" d="M700.43,122.26c-18.45-25.76-42.27-45.96-69.06-59.57-36.86-18.73-95.14-44.17-138.45-43.39-68.31,1.22-222.05,85.12-302.37,101.08C110.24,136.34-7.87,195.93,16.7,317.23c24.57,121.3,89.76,157.48,214.49,141.52,124.73-15.96,169.14-31.92,270.24-11.7,101.1,20.22,217.33,6.38,229.61-138.32,8.99-105.95-4.3-149.72-30.61-186.45Z"/></g></g><g id="Mug"><g><path class="cls-2" d="M91.09,126.84l2.69,32.86s-23.42-3.84-29.64,8.6c-6.22,12.44-6.22,44.91,8.29,62.19,10.45,12.45,21.62,7.32,27.05,3.48l2.81,35.91c0,13.41,25.76,38.11,57.54,38.11s57.54-24.69,57.54-38.11l11.21-143.04H91.09Zm-10.36,89.14c-8.98-7.6-4.15-40.77,0-44.91,3.08-3.08,10.33-.83,13.87,.54l3.71,47.3c-4.63,1.17-11.93,1.86-17.58-2.92Z"/><ellipse class="cls-1" cx="159.85" cy="126.84" rx="68.75" ry="29.02"/><ellipse class="cls-1" cx="159.85" cy="126.84" rx="61.17" ry="25.82"/><path class="cls-4" d="M116.86,145.21c11.05,4.61,26.23,7.45,42.98,7.45s31.93-2.85,42.98-7.45c-11.05-4.61-26.23-7.45-42.98-7.45s-31.93,2.85-42.98,7.45Z"/></g></g><g id="Books_2"><g><path class="cls-2" d="M403.01,203.25s32.7,77.66,40.57,81.77c7.87,4.11,238.58-15.92,238.58-15.92l-6.55-7.29-.31-50.26,8.62-.38-88.13-116.08-199.16,14.54s-10.68,7.41-12.11,13.8c-1.43,6.4-1.11,16.07-1.11,16.07l19.59,63.73Z"/><path class="cls-5" d="M675.3,211.55l-226.35,18.23s-10.65,6.12-12.31,20.24c-1.66,14.12,4.05,28.47,8.3,30.53,4.24,2.06,9.78,2.23,9.78,2.23l220.89-20.97-.31-50.26Z"/></g><g><path class="cls-4" d="M445,36.14l-91.29,126.05s-4.97,4.9-4.74,16.91c.24,12.01,.85,31.6,4.42,32.98,3.58,1.37,267.72,21.42,267.72,21.42l60.99-140.87-4.76-2.04,1.66-34.68,3.96-11.25-231.26-10.84-6.7,2.32Z"/><path class="cls-1" d="M361.92,165.78s-8.26-2.56-10.61,5.38c-2.34,7.94,3.42,36.72,3.42,36.72,0,0,4.93,2.05,7.2,2.12,2.27,.07,256.48,16.85,256.48,16.85l58.93-136.26,1.66-34.68-56.38,122.1-260.7-12.23Z"/><path class="cls-5" d="M616.79,177.73l-254.87-11.95s-8.26-2.56-10.61,5.38,3.42,36.72,3.42,36.72c0,0,4.93,2.05,7.2,2.12,2.27,.07,256.48,16.85,256.48,16.85l-.35-48.03-1.27-1.09Z"/></g></g><g id="Book_1"><g><path class="cls-4" d="M396.16,424.03s9.34,13.47,19.1,13.25c65.06-1.45,177.26,29.69,190.28,29.69s22.7-1.15,22.7-3.92-45.79-183.97-45.79-183.97l-9.08-2.76,31.19,176.86s-38.69-5.53-116.86-18.55c-78.17-13.03-74.96-24.03-84.43-22.06-9.47,1.97-7.11,11.45-7.11,11.45Z"/><path class="cls-2" d="M614.82,462.27c-13.42-.79-39.53-7.59-103.94-20.81-64.41-13.22-112.75-21.24-112.75-21.24l-1.36,4.65c2.23,2.93,10.2,12.6,18.49,12.42,65.06-1.45,177.26,29.69,190.28,29.69s22.7-1.16,22.7-3.92c0-.23-6.73-.4-13.42-.79Z"/><path class="cls-4" d="M185.34,272.04s-4.74,1.58-5.53,5.13c-.79,3.55-46.19,185.55-41.85,185.94s243.58,1.97,246.35-.79,11.84-38.29,11.84-38.29l-20.13,27.24-207.66-5.13,24.87-169.76-7.9-4.34Z"/><path class="cls-2" d="M384.31,462.33c2.76-2.76,11.84-38.29,11.84-38.29l-1.33,1.8-12.48,32.15-241.96,3.12-2.41,2.02c4.34,.39,243.58,1.97,246.35-.79Z"/><polygon class="cls-1" points="190.87 269.67 185.34 272.04 147.05 457.19 382.34 457.98 398.13 417.32 177.05 427.98 197.58 269.28 190.87 269.67"/><polygon class="cls-5" points="162.84 433.9 152.11 451.75 147.05 457.19 382.34 457.98 398.13 417.32 177.05 427.98 162.84 433.9"/><polygon class="cls-6" points="398.13 417.32 398.13 381 208.24 401.92 194.03 426.8 398.13 417.32"/><path class="cls-5" d="M199.55,249.54l-5.53,.79-31.19,183.57s25.66-1.97,60.4-10.26c34.74-8.29,105.41-20.92,129.09-17.37,23.69,3.55,43.82,17.77,43.82,17.77,0,0,29.56,5.87,62.72,12.58,33.16,6.71,82.51,16.98,115.28,22.5,32.77,5.53,40.66,3.16,40.66,3.16l-40.66-189.1-3.95-1.18,21.71,171.34s-136.94-37.85-155.1-37.85-28.03-19.34-64.35-26.45c-36.32-7.11-76.98,7.11-111.33,13.03-34.35,5.92-63.56,15.79-63.56,15.79l9.08-158.31h-7.11Z"/><polygon class="cls-1" points="177.05 427.98 162.84 433.9 194.03 250.33 206.66 249.54 177.05 427.98"/><g><path class="cls-1" d="M393.39,225.06s3.55-6.32,35.93,1.97c32.37,8.29,66.27,29.16,93.91,33.11,27.63,3.95,45.79,7.9,45.79,7.9l37.5,190.29s-61.19-8.29-118.83-23.69c-57.64-15.4-82.07-25.61-89.57-17.32l-4.74-192.26Z"/><g><g><path class="cls-7" d="M491.19,277.05s1.99,0,67.76,14.45"/><path class="cls-7" d="M491.84,285.05s1.84,.09,24.53,4.95c10.44,2.24,25.55,5.67,43.98,9.72"/><path class="cls-7" d="M492.49,293.05s2.7,.18,24.83,4.92c10.98,2.36,27.24,6.19,44.43,9.97"/><path class="cls-7" d="M493.15,301.06s3.57,.27,25.12,4.89c11.51,2.47,28.92,6.71,44.89,10.21"/><path class="cls-7" d="M493.8,309.06s4.43,.36,25.41,4.86c12.04,2.59,30.61,7.23,45.34,10.46"/><path class="cls-7" d="M494.46,317.06s5.29,.45,25.7,4.83c12.58,2.7,32.29,7.74,45.8,10.71"/><path class="cls-7" d="M495.11,325.07s6.15,.54,25.99,4.8c13.11,2.82,33.98,8.26,46.26,10.96"/><path class="cls-7" d="M495.76,333.07s7.01,.63,26.28,4.76c13.64,2.94,35.66,8.78,46.71,11.21"/><path class="cls-7" d="M496.42,341.07s7.87,.71,26.57,4.73c14.17,3.05,37.35,9.3,47.17,11.46"/><path class="cls-7" d="M497.07,349.07s8.74,.8,26.86,4.7c14.71,3.17,39.03,9.82,47.63,11.71"/><path class="cls-7" d="M497.73,357.08s9.6,.89,27.15,4.67c15.24,3.29,40.71,10.34,48.08,11.96"/><path class="cls-7" d="M498.38,365.08s10.46,.98,27.44,4.64c15.77,3.4,42.4,10.86,48.54,12.21"/><path class="cls-7" d="M499.03,373.08s11.32,1.07,27.73,4.61c16.3,3.52,44.08,11.38,49,12.46"/><path class="cls-7" d="M499.69,381.09s12.18,1.16,28.03,4.58c16.84,3.64,45.77,11.9,49.45,12.71"/><path class="cls-7" d="M500.34,389.09s13.04,1.25,28.32,4.55c17.37,3.75,47.45,12.41,49.91,12.95"/><path class="cls-7" d="M501,397.09s13.91,1.34,28.61,4.52c17.9,3.87,49.14,12.93,50.36,13.2"/><path class="cls-7" d="M501.65,405.1s14.77,1.43,28.9,4.48c18.44,3.99,50.82,13.45,50.82,13.45"/></g><g><path class="cls-7" d="M405.77,245.24s14.28,.46,27.85,4.84c12.51,4.04,22.2,12.51,47.63,24.22"/><path class="cls-7" d="M481.88,282.43c-23.84-10.97-33.43-19.17-46.88-23.54-14.44-4.69-28.63-5.25-29.19-5.07"/><path class="cls-7" d="M482.51,290.55c-22.25-10.24-31.74-18.16-46.12-22.86-15.31-4.99-29.42-5.65-30.53-5.3"/><path class="cls-7" d="M483.14,298.68c-20.66-9.51-30.05-17.16-45.36-22.18-16.18-5.3-30.2-6.05-31.86-5.53"/><path class="cls-7" d="M483.78,306.8c-19.07-8.78-28.36-16.15-44.6-21.49-17.04-5.61-30.98-6.46-33.2-5.75"/><path class="cls-7" d="M484.41,314.92c-17.48-8.05-26.67-15.14-43.85-20.81-17.91-5.91-31.76-6.86-34.54-5.98"/><path class="cls-7" d="M485.04,323.05c-15.89-7.32-24.98-14.13-43.09-20.13-18.78-6.22-32.55-7.27-35.88-6.21"/><path class="cls-7" d="M485.67,331.17c-14.3-6.58-23.29-13.12-42.33-19.45-19.65-6.53-33.33-7.67-37.21-6.43"/><path class="cls-7" d="M486.3,339.3c-12.72-5.85-21.6-12.11-41.58-18.77-20.51-6.83-34.11-8.07-38.55-6.66"/><path class="cls-7" d="M486.93,347.42c-11.13-5.12-19.91-11.1-40.82-18.09-21.38-7.14-34.89-8.48-39.89-6.89"/><path class="cls-7" d="M487.56,355.54c-9.54-4.39-18.22-10.09-40.06-17.41-22.25-7.44-35.67-8.88-41.22-7.11"/><path class="cls-7" d="M488.19,363.67c-7.95-3.66-16.52-9.08-39.31-16.73-23.11-7.75-36.46-9.28-42.56-7.34"/><path class="cls-7" d="M488.82,371.79c-6.36-2.93-14.83-8.07-38.55-16.05-23.98-8.06-37.24-9.69-43.9-7.57"/><path class="cls-7" d="M489.45,379.91c-4.77-2.19-13.14-7.06-37.79-15.36-24.85-8.36-38.02-10.09-45.24-7.8"/><path class="cls-7" d="M490.08,388.04c-3.18-1.46-11.45-6.05-37.04-14.68-25.71-8.67-38.8-10.5-46.57-8.02"/><path class="cls-7" d="M490.71,396.16c-1.59-.73-9.76-5.05-36.28-14-26.58-8.98-39.58-10.9-47.91-8.25"/><path class="cls-7" d="M491.34,404.29s-8.07-4.04-35.52-13.32c-27.45-9.28-40.37-11.3-49.25-8.48"/></g></g></g><g><path class="cls-1" d="M393.39,225.06l4.74,192.26s-14.21-29.21-52.11-28.03c-37.9,1.18-121.59,30.4-135.02,33.16-13.42,2.76-33.95,5.53-33.95,5.53l22.5-183.57s99.49-18.16,120.41-24.48c20.92-6.32,39.08-13.03,52.51-9.87,13.42,3.16,20.92,5.53,20.92,15Z"/><g><g><line class="cls-7" x1="221.21" y1="266.54" x2="294.95" y2="250.1"/><path class="cls-7" d="M220.4,274.76s46.82-10.56,47.91-10.9c1-.32,26.46-5.98,26.46-5.98"/><path class="cls-7" d="M219.59,282.99s46.12-10.52,48.3-11.2c2-.63,26.68-6.11,26.68-6.11"/><path class="cls-7" d="M218.78,291.21s45.43-10.48,48.7-11.5c3.01-.94,26.91-6.25,26.91-6.25"/><path class="cls-7" d="M217.97,299.43s44.73-10.44,49.09-11.81c4.01-1.26,27.14-6.38,27.14-6.38"/><path class="cls-7" d="M217.16,307.65s44.03-10.4,49.48-12.11c5.01-1.57,27.37-6.51,27.37-6.51"/><path class="cls-7" d="M216.35,315.87s43.34-10.36,49.88-12.41c6.01-1.89,27.6-6.64,27.6-6.64"/><path class="cls-7" d="M215.54,324.09s42.64-10.32,50.27-12.72c7.02-2.2,27.83-6.78,27.83-6.78"/><path class="cls-7" d="M214.73,332.31s41.94-10.28,50.66-13.02c8.02-2.52,28.06-6.91,28.06-6.91"/><path class="cls-7" d="M213.93,340.53s41.25-10.24,51.06-13.32c9.02-2.83,28.29-7.04,28.29-7.04"/><path class="cls-7" d="M213.12,348.75s40.55-10.2,51.45-13.63c10.02-3.15,28.52-7.18,28.52-7.18"/><path class="cls-7" d="M212.31,356.98s39.85-10.16,51.84-13.93c11.02-3.46,28.75-7.31,28.75-7.31"/><path class="cls-7" d="M211.5,365.2s39.16-10.12,52.24-14.23c12.03-3.78,28.98-7.44,28.98-7.44"/><path class="cls-7" d="M210.69,373.42s38.46-10.08,52.63-14.54c13.03-4.09,29.21-7.57,29.21-7.57"/><path class="cls-7" d="M209.88,381.64s37.77-10.04,53.02-14.84c14.03-4.41,29.44-7.71,29.44-7.71"/><path class="cls-7" d="M209.07,389.86s37.07-10,53.42-15.14c15.03-4.72,29.67-7.84,29.67-7.84"/><path class="cls-7" d="M208.26,398.08s36.37-9.96,53.81-15.45c16.03-5.04,29.89-7.97,29.89-7.97"/></g><g><path class="cls-7" d="M305.42,247.11s68.76-21.92,78.72-10.96"/><path class="cls-7" d="M305.2,255.08s23.33-7.52,44.33-11.47c16.02-2.98,30.69-3.62,34.64,.73"/><path class="cls-7" d="M304.98,263.06s23.76-7.73,44.47-11.57c16.44-2.98,31.07-3.01,34.75,1.05"/><path class="cls-7" d="M304.76,271.03s24.17-8,44.6-11.67c16.86-3.03,31.45-2.4,34.87,1.36"/><path class="cls-7" d="M304.54,279s24.59-8.23,44.73-11.77c17.29-3.04,31.83-1.8,34.99,1.68"/><path class="cls-7" d="M304.33,286.97s25.01-8.45,44.87-11.87c17.71-3.05,32.2-1.19,35.1,2"/><path class="cls-7" d="M304.11,294.94s25.43-8.67,45-11.97c18.14-3.06,32.58-.58,35.22,2.31"/><path class="cls-7" d="M303.89,302.92s25.86-8.89,45.13-12.06c18.57-3.06,32.96,.02,35.33,2.63"/><path class="cls-7" d="M303.67,310.89s26.28-9.1,45.27-12.16c18.99-3.07,33.34,.63,35.45,2.95"/><path class="cls-7" d="M303.45,318.86s26.7-9.31,45.4-12.26c19.42-3.07,33.72,1.24,35.56,3.26"/><path class="cls-7" d="M303.24,326.83s27.13-9.52,45.54-12.36c19.85-3.06,34.1,1.84,35.68,3.58"/><path class="cls-7" d="M303.02,334.8s27.55-9.73,45.67-12.46c20.28-3.06,34.48,2.45,35.79,3.9"/><path class="cls-7" d="M302.8,342.78s27.98-9.93,45.8-12.56c20.7-3.05,34.86,3.05,35.91,4.21"/><path class="cls-7" d="M302.58,350.75s28.4-10.13,45.94-12.66c21.13-3.04,35.24,3.66,36.03,4.53"/><path class="cls-7" d="M302.36,358.72s28.83-10.3,46.07-12.76c21.57-2.99,35.61,4.27,36.14,4.85"/><path class="cls-7" d="M302.15,366.69s29.25-10.52,46.2-12.86c21.99-2.99,35.99,4.87,36.26,5.16"/><path class="cls-7" d="M301.93,374.66s29.68-10.73,46.34-12.95c22.42-2.99,36.37,5.48,36.37,5.48"/></g></g></g><path class="cls-7" d="M466.98,433.66c4.89,1.02,7.94,1.79,7.94,1.79"/><path class="cls-7" d="M391.05,417.3c3.33,3.87,5.1,6.73,5.1,6.73,0,0,17.83-7.2,39.39-6.56,12.38,.36,18.47,13.61,27.84,15.46"/><path class="cls-7" d="M380.39,407.22c3.12,2.36,5.81,4.87,8.04,7.2"/><path class="cls-7" d="M320.77,398.45c6.98-1.9,27.9-5.71,46.29,1.27,5.04,1.91,9.5,4.6,13.33,7.5"/><path class="cls-7" d="M369.46,405.49c-6.06-2.21-15.11-4.49-27.09-4.78-23.95-.57-79.84,11.98-79.84,11.98"/><path class="cls-7" d="M378.58,409.84s-1.57-1.1-4.69-2.53"/><g><line class="cls-7" x1="375.07" y1="426.03" x2="223.96" y2="433.29"/><line class="cls-7" x1="389.29" y1="425.35" x2="381.04" y2="425.74"/><line class="cls-7" x1="262.31" y1="440.41" x2="271.12" y2="440.18"/><line class="cls-7" x1="187.4" y1="442.3" x2="257.26" y2="440.53"/><line class="cls-7" x1="360.86" y1="444.68" x2="368.62" y2="444.42"/><line class="cls-7" x1="256.28" y1="448.13" x2="354.64" y2="444.88"/><line class="cls-7" x1="326.7" y1="437.36" x2="306.09" y2="438.06"/><line class="cls-7" x1="383.46" y1="435.41" x2="332.35" y2="437.16"/><line class="cls-7" x1="231.14" y1="448.85" x2="238.27" y2="448.66"/><line class="cls-7" x1="160.37" y1="450.78" x2="226.69" y2="448.98"/></g></g></g><g id="Glasses"><g><path class="cls-2" d="M279.12,230.29s14.7-19.33,23.96-27.39c9.26-8.05,25.17-20.74,31.61-20.74s8.05,4.03,8.46,5.44c.4,1.41,5.84,21.75,5.84,22.75s-5.64,2.62-6.04,1.41c-.4-1.21-2.82-18.53-3.83-21.75-1.01-3.22-.81-5.03-8.46-1.81-7.65,3.22-30.2,27.39-34.84,33.02-4.63,5.64-9.06,11.48-9.06,11.48,0,0-5.44-2.42-7.65-2.42Z"/><path class="cls-1" d="M527.94,250c-.47-.68-1.1-1.47-1.55-1.58-.71-.18-5.43,7.84-6.59,9.83,1.34-1.46,2.16-2.31,2.16-2.17,0,.6-2.42,12.48-4.63,18.12-2.22,5.64-1.61,8.26,.6,8.05s5.24-10.27,7.05-15.91c1.34-4.16,2.67-11.38,2.96-16.34Z"/><path class="cls-2" d="M527.81,245.8c-.81-3.62-6.04,1.01-8.26,4.23-2.21,3.22-12.28,14.1-17.92,19.53-5.64,5.44-26.78,23.56-29,25.17-2.21,1.61-4.83,4.43-6.44,4.63-1.61,.2-5.84,0-7.85-1.21-2.01-1.21-3.02-3.42-12.69-8.66-9.67-5.24-51.55-17.32-54.57-17.52-3.02-.2-5.44,2.82-9.67,4.63-4.23,1.81-11.28,2.22-14.3-.4-3.02-2.62-6.65-9.26-8.66-14.1-2.01-4.83-5.24-6.04-8.05-7.65-2.82-1.61-36.65-16.51-42.89-18.53-6.24-2.01-12.48-3.42-15.3-3.62-2.82-.2-5.44,.4-5.44,.4,0,0-.4,.6-2.01-.6-1.61-1.21-6.85-3.42-8.46-.2-1.61,3.22-4.03,10.67-2.62,13.49l1.41,2.82s-1.41,18.12-.81,24.37c.6,6.24,5.44,14.3,9.46,19.13,4.03,4.83,20.14,13.89,32.02,16.71,11.88,2.82,19.13,1.21,22.35-1.01,3.22-2.22,13.09-13.29,15.51-15.91,2.42-2.62,2.21-4.23,10.07-1.81,7.85,2.42,10.67,8.05,12.08,12.28,1.41,4.23,6.64,21.14,10.87,26.58,4.23,5.44,10.27,11.88,20.54,16.31,10.27,4.43,17.12,7.85,26.78,6.65,9.67-1.21,14.9-5.64,17.92-10.87,3.02-5.24,5.03-15.71,6.04-18.93s4.23-5.24,4.23-5.24c0,0,4.03-1.81,5.24-4.63,1.21-2.82,10.67-11.48,10.67-11.48,0,0,15.3-12.08,21.14-18.73,5.84-6.64,22.75-26.18,22.75-25.57s-2.42,12.48-4.63,18.12c-2.22,5.64-1.61,8.26,.6,8.05s5.24-10.27,7.05-15.91c1.81-5.64,3.62-16.91,2.82-20.54Zm-171.16,33.23s-.4,1.61-1.61,3.42c-1.21,1.81-9.26,14.7-14.3,18.73-5.03,4.03-10.87,7.45-16.91,6.85-6.04-.6-21.55-6.44-33.02-15.51-11.48-9.06-13.09-20.94-11.88-32.42,1.21-11.48,5.24-19.33,11.28-20.54,6.04-1.21,25.98,3.83,39.67,11.07,13.69,7.25,25.37,16.11,26.18,19.13,.81,3.02,.6,9.26,.6,9.26Zm96.45,41.28c-1.21,10.47-3.62,16.51-7.25,21.34s-7.85,7.05-19.13,6.04-19.73-5.24-27.59-10.87c-7.85-5.64-10.47-13.09-13.49-20.14-3.02-7.05-8.26-21.14-5.24-30s11.88-6.65,11.88-6.65c0,0,7.45,1.61,8.05,1.81,.6,.2,45.11,13.29,47.12,16.31,2.01,3.02,6.85,11.68,5.64,22.15Z"/><path class="cls-3" d="M353.83,260.9s1.81,1.21,3.62,6.24,4.43,13.29,11.68,14.9c7.25,1.61,14.5-4.63,14.5-4.63"/><path class="cls-3" d="M392.29,276.61s32.42,8.05,46.72,14.5c14.3,6.44,15.71,12.08,16.31,12.48,.6,.4,6.65,3.02,9.67,.81"/><path class="cls-3" d="M277.31,233.92s3.62,3.22,6.44,2.42c2.82-.81,6.85-1.61,11.07-.4,4.23,1.21,19.73,4.63,36.65,12.28,16.91,7.65,20.74,10.87,20.74,10.87"/><path class="cls-3" d="M277.31,269.16s-.81,13.29,8.26,21.14"/></g></g></svg>