<?xml version="1.0" encoding="UTF-8"?><svg id="Camada_1" xmlns="http://www.w3.org/2000/svg" viewBox="0 0 123.19 113.99"><defs><style>.cls-1{opacity:.05;}.cls-2{opacity:.1;}.cls-3{fill:#00dfbf;}.cls-4{fill:#ebebeb;}.cls-5{fill:#f0f0f0;}.cls-6{fill:#f5f5f5;}.cls-7{fill:#e7e7e7;}.cls-8,.cls-9,.cls-10{fill:#fff;}.cls-11{fill:#fafafa;}.cls-12{fill:#ffaaa8;}.cls-13{fill:#ff9090;}.cls-14{fill:#b0494c;}.cls-15{fill:#c76668;}.cls-16{fill:#e1e1e1;}.cls-17{fill:#375a64;}.cls-18{fill:#1a2e35;}.cls-19,.cls-20{fill:#2b454e;}.cls-21{opacity:.15;}.cls-22{opacity:.2;}.cls-23{opacity:.3;}.cls-24{opacity:.25;}.cls-25,.cls-9{opacity:.6;}.cls-26,.cls-20,.cls-10{opacity:.5;}.cls-27{opacity:.8;}.cls-28{opacity:.7;}</style></defs><ellipse id="Floor" class="cls-6" cx="61.59" cy="79.99" rx="61.59" ry="33.99"/><ellipse id="Shadow" class="cls-7" cx="90.58" cy="91.75" rx="18.88" ry="10.9"/><ellipse id="Shadow-2" class="cls-7" cx="30.55" cy="91.75" rx="18.88" ry="10.9"/><path id="Shadow-3" class="cls-7" d="M19.84,76.01l39.24,22.66c.3,.17,.79,.17,1.09,0l43.92-25.36c.3-.17,.3-.46,0-.63l-39.24-22.66c-.3-.17-.79-.17-1.09,0l-43.92,25.36c-.3,.17-.3,.46,0,.63Z"/><g id="Character_4"><g id="Boy"><g><g><path class="cls-17" d="M85.99,59.83c.17,0,.31-.14,.31-.31v-20.19c0-.17-.14-.31-.31-.31s-.31,.14-.31,.31v20.19c0,.17,.14,.31,.31,.31Z"/><path class="cls-17" d="M73.5,52.48c.13,0,.24-.08,.29-.2l6.19-15.67c.06-.16-.02-.34-.18-.41-.16-.06-.34,.01-.41,.18l-6.19,15.67c-.06,.16,.02,.34,.18,.41,.04,.02,.08,.02,.12,.02Z"/><path class="cls-17" d="M74.24,50.6c.08,0,.17-.03,.23-.1l11.52-12.19,11.5,12.14c.12,.13,.32,.13,.44,.01,.13-.12,.13-.32,.01-.44l-11.73-12.38c-.06-.06-.14-.1-.23-.1h0c-.09,0-.17,.04-.23,.1l-11.75,12.43c-.12,.13-.11,.32,.01,.44,.06,.06,.14,.09,.22,.09Z"/><path class="cls-17" d="M98.49,52.48s.08,0,.12-.02c.16-.06,.24-.25,.18-.41l-6.19-15.67c-.06-.16-.25-.24-.41-.18-.16,.06-.24,.25-.18,.41l6.19,15.67c.05,.12,.17,.2,.29,.2Z"/><path class="cls-3" d="M73.93,50.11l-.82,2.16s0,.04,0,.06c0,.01,0,.03,0,.04,0,.04,.06,.1,.12,.14,.14,.08,.36,.08,.5,0,.05-.03,.08-.07,.1-.1,0,0,0,0,0,0v-.03s.77-2.03,.77-2.03l-.66-.23Z"/><path class="cls-3" d="M98.06,50.11l.82,2.16s0,.04,0,.06c0,.01,0,.03,0,.04,0,.04-.06,.1-.12,.14-.14,.08-.36,.08-.5,0-.05-.03-.08-.07-.1-.1,0,0,0,0,0,0v-.03s-.77-2.03-.77-2.03l.66-.23Z"/><path class="cls-3" d="M85.63,57.95v1.79c0,.05,.04,.11,.11,.15,.14,.08,.37,.08,.51,0,.07-.04,.11-.09,.11-.15v-1.79c-.24-.12-.48-.12-.72,0Z"/></g><g><path class="cls-3" d="M71.95,34.35c0-.56,.49-1.16,1.54-1.84,1.93-1.25,7.53-4.38,10.22-5.87,0-.02,.02-.02,.02-.02,2.07-1.26,2.7-6.63,4.14-11.18,.49-1.55,1.09-2.43,1.8-2.84,.17-.1,.79-.44,.93-.52,1.41-.84,3.25,.17,5.56,1.43,2.12,1.16,3.78,2.65,4.11,6.59,.2,2.4,0,6.99-.48,10.46,0,0,0,0,0,0-.71,5.81-1.57,5.82-2.83,6.79-2.16,1.67-7.04,4.02-9.09,4.83-3.73,1.47-6.77-.79-9.04-1.91-2.27-1.12-5.06-2.87-6.01-3.56-.57-.41-.86-.83-.86-1.27,0-.17,0-.89,0-1.07Z"/><path class="cls-26" d="M71.95,34.35c0-.56,.49-1.16,1.54-1.84,1.93-1.25,7.53-4.38,10.22-5.87,0-.02,.02-.02,.02-.02,2.07-1.26,2.7-6.63,4.14-11.18,.49-1.55,1.09-2.43,1.8-2.84,.17-.1,.79-.44,.93-.52,1.41-.84,3.25,.17,5.56,1.43,2.12,1.16,3.78,2.65,4.11,6.59,.2,2.4,0,6.99-.48,10.46,0,0,0,0,0,0-.71,5.81-1.57,5.82-2.83,6.79-2.16,1.67-7.04,4.02-9.09,4.83-3.73,1.47-6.77-.79-9.04-1.91-2.27-1.12-5.06-2.87-6.01-3.56-.57-.41-.86-.83-.86-1.27,0-.17,0-.89,0-1.07Z"/><path class="cls-3" d="M78.82,39.17c-2.27-1.12-5.06-2.87-6.01-3.56-1.29-.94-1.17-1.9,.68-3.1,2.57-1.67,11.7-6.69,11.7-6.69,0,0,13.25,7.82,12.68,9.26-.57,1.44-7.42,4.98-10,6-3.73,1.47-6.77-.79-9.04-1.91Z"/><g class="cls-23"><path d="M78.82,39.17c-2.27-1.12-5.06-2.87-6.01-3.56-1.29-.94-1.17-1.9,.68-3.1,2.57-1.67,11.7-6.69,11.7-6.69,0,0,13.25,7.82,12.68,9.26-.57,1.44-7.42,4.98-10,6-3.73,1.47-6.77-.79-9.04-1.91Z"/></g><path class="cls-3" d="M89.75,12.55c1.39-.73,3.21,.26,5.45,1.49,1.44,.79,2.66,1.72,3.4,3.47l.95-.55c-.74-1.74-1.96-2.67-3.4-3.46-2.3-1.26-4.15-2.27-5.56-1.43-.12,.07-.61,.34-.85,.48Z"/><path class="cls-23" d="M89.75,12.55c1.39-.73,3.21,.26,5.45,1.49,1.44,.79,2.66,1.72,3.4,3.47l.95-.55c-.74-1.74-1.96-2.67-3.4-3.46-2.3-1.26-4.15-2.27-5.56-1.43-.12,.07-.61,.34-.85,.48Z"/><path class="cls-3" d="M95.2,14.04c-3.44-1.89-5.87-3.22-7.33,1.4-1.43,4.55-2.06,9.92-4.14,11.18,0,0-.63,.05,4.52,3.95,1.64,1.24,3.63,2.25,4.94,3.03,2.56,1.53,4.11,2.14,4.36,1.93,1.35-1.12,2.09-10.97,1.75-14.91-.33-3.94-1.99-5.43-4.11-6.59Z"/></g></g><g><rect class="cls-12" x="77.82" y="54.63" width="2.46" height="4.22"/><polygon class="cls-12" points="73.5 55.82 71.03 55.91 70.91 51.44 73.37 51.36 73.5 55.82"/><path class="cls-18" d="M71.01,55.15c-.13,0-.23,.18-.51,.49-.34,.37-1.1,.76-1.65,1.03-.92,.46-3.34,1.08-4.15,1.45-.51,.23-.38,1.02,.34,1.46,.54,.33,2.24,.65,3.76,.31,.83-.19,2.09-.76,2.7-.86,.68-.11,1.92-.24,2.42-.58s.3-1.09,.16-1.73c-.16-.7-.38-1.76-.61-1.71v.22c-.29,.45-1.8,.63-2.45,.3v-.38Z"/><path class="cls-18" d="M77.82,57.66c-.13,0-.23,.18-.51,.49-.34,.37-1.1,.76-1.65,1.03-.92,.46-3.34,1.08-4.15,1.45-.51,.23-.38,1.02,.34,1.46,.54,.33,2.24,.65,3.76,.31,.83-.19,2.09-.76,2.7-.86,.68-.11,1.92-.24,2.42-.58,.5-.35,.3-1.09,.16-1.73-.16-.7-.38-1.76-.61-1.71v.22c-.29,.45-1.8,.63-2.45,.3v-.38Z"/><path class="cls-17" d="M93.96,33.29c.14,2.97-.21,3.88-5.14,6.42-2.46,1.26-6.74,3.5-6.74,3.5,0,0,.19,.95,.22,3.68,.02,2.4-1.88,9.85-1.88,9.85,0,0-2.01,1.04-2.81,0,0,0-.03-5.49,0-8.53,.04-4.84-.21-6.15,0-7.04,.15-.63,4.99-4.87,4.99-4.87l1.29-.82-8.07,5.13s-.16,2.35-.39,3.82c-.54,3.44-1.93,9.1-1.93,9.1,0,0-1.79,.8-2.68,.11,0,0-.19-13.91-.19-15.08,0-1.78,2.85-3.78,9.38-7.63,1.39-.82,3.25-1.73,3.25-1.73l10.71,4.1Z"/><path class="cls-19" d="M83.9,35.47s-1.18-.59-2.23-2.81c0,0,.1,1.3,.72,2.28,.47,.74-6.56,5.66-6.56,5.66l8.07-5.13Z"/></g></g><g><g><path class="cls-12" d="M81.63,16.48c-.66,1.4-3,7.32-3,7.32l1.9,3.22c.71-.59,2.67-5.42,2.91-5.79,.64-1,1.79-7.44,1.79-7.44-2.41,.08-2.92,1.28-3.59,2.7Z"/><path class="cls-3" d="M87.47,14.11s-.42-.26-1.42-.39c-2.09-.27-3.32,.4-4.06,1.58-.98,1.58-2.95,6.89-2.95,6.89,0,0,1.19,1.84,3.45,2.08l3.49-6.02,1.49-4.15Z"/><g class="cls-26"><path d="M87.47,14.11s-.42-.26-1.42-.39c-2.09-.27-3.32,.4-4.06,1.58-.98,1.58-2.95,6.89-2.95,6.89,0,0,1.19,1.84,3.45,2.08l3.49-6.02,1.49-4.15Z"/></g></g><path class="cls-6" d="M89.89,13.83c.29,.07,2.69,.63,3.75,.99v8.11l.32,10.36c-1.75,1.9-10.96,.7-12.04-3.34,0,0,.06-9.85,.06-11.79s1.08-4.27,4.06-4.45l3.85,.11Z"/><g><g><g><path class="cls-3" d="M91.83,4.28c-.23-.23-.48-.33-.69-.37l.9-.48c-.19-.38-.63-.52-.99-.33-.35,.19-.49,.62-.33,.99l-.31,3.48-.29-.03-.12,2.02-.04,1.68c.81-.02,1.42-.82,1.88-3.54,.37-2.05,.47-2.95,0-3.43Z"/><path class="cls-26" d="M91.83,4.28c-.23-.23-.48-.33-.69-.37l.9-.48c-.19-.38-.63-.52-.99-.33-.35,.19-.49,.62-.33,.99l-.31,3.48-.29-.03-.12,2.02-.04,1.68c.81-.02,1.42-.82,1.88-3.54,.37-2.05,.47-2.95,0-3.43Z"/><path class="cls-3" d="M81.32,3.12c-.45-.26-.56,.25-.32,.69,.25,.44,.7,1.02,1.69,1.13,.01-.06,.42-1.14,.42-1.14l-.88-.5s-.59,0-.91-.19Z"/><path class="cls-26" d="M81.32,3.12c-.45-.26-.56,.25-.32,.69,.25,.44,.7,1.02,1.69,1.13,.01-.06,.42-1.14,.42-1.14l-.88-.5s-.59,0-.91-.19Z"/></g><path class="cls-12" d="M90.05,7.88c.22,.13,.53-.29,.79-.57,.27-.28,1.14-.66,1.57,.26,.44,.93-.38,2.17-1.07,2.38-1.18,.37-1.36-.39-1.36-.39l-.09,4.27s-.77,1.89-2.87,2.18c-2.1,.28-1.67-1.44-.98-2.29v-1.3s-1.07,.16-1.59,.08c-.87-.13-1.42-.82-1.68-1.76-.42-1.51-.58-2.73-.23-5.71,.39-3.26,4.19-3.29,6.23-2.01,2.05,1.29,1.27,4.85,1.27,4.85Z"/><path class="cls-3" d="M90.05,8.24c.11,0,.52-.69,.79-.93,.37-.34-.11-3.42-.11-3.42,0,0,.38-1.17-.36-1.94-.74-.77-2.17-.64-3.21-.68-1.09-.04-2.25-.1-3.74-.75-1.49-.65-1.6-.72-1.78-.07-.18,.65-.25,2.15,.63,3.15l.74,.27s.4,.35,1.78,.52c1.39,.17,3.54-.03,3.84-.07,.4-.05,.49,.33,.7,1.4,.19,.93,.35,2.52,.71,2.52Z"/><path class="cls-26" d="M90.05,8.24c.11,0,.52-.69,.79-.93,.37-.34-.11-3.42-.11-3.42,0,0,.38-1.17-.36-1.94-.74-.77-2.17-.64-3.21-.68-1.09-.04-2.25-.1-3.74-.75-1.49-.65-1.6-.72-1.78-.07-.18,.65-.25,2.15,.63,3.15l.74,.27s.4,.35,1.78,.52c1.39,.17,3.54-.03,3.84-.07,.4-.05,.49,.33,.7,1.4,.19,.93,.35,2.52,.71,2.52Z"/><path class="cls-13" d="M86.05,12.42s1.94-.39,2.62-.75c.45-.24,.83-.66,.94-.93,0,0-.13,.58-.53,1.1-.5,.63-3.03,1.1-3.03,1.1v-.52Z"/></g><g><path class="cls-18" d="M85.76,7.38c0,.22,.17,.4,.39,.4,.21,0,.39-.18,.39-.41s-.17-.4-.39-.4c-.21,0-.39,.18-.39,.41Z"/><path class="cls-17" d="M86.17,5.91l.83,.46c.12-.24,.04-.54-.19-.66-.23-.13-.52-.04-.64,.2Z"/><path class="cls-13" d="M85.7,10.06l-.89,.33c.09,.25,.36,.39,.6,.29,.25-.09,.37-.37,.28-.63Z"/><path class="cls-17" d="M82.63,6.23l.76-.58c-.15-.22-.45-.26-.66-.1-.21,.16-.25,.47-.1,.69Z"/><path class="cls-18" d="M82.72,7.14c0,.22,.17,.4,.39,.4,.21,0,.39-.18,.39-.41s-.17-.4-.39-.4c-.21,0-.39,.18-.39,.41Z"/><polygon class="cls-13" points="84.63 6.9 84.5 9.24 83.28 8.82 84.63 6.9"/></g></g><g><path class="cls-12" d="M92.77,14.65s1.55,.27,2.26,1.67c.43,.84,1.83,3.04,2.7,4.52,.47,.8,.81,1.38,.81,1.38,0,0,5.3-2.81,5.6-3.18,.3-.37,.28-1.11,.32-1.52,.07-.67-.17-1.25-.21-1.49-.07-.51,.67-.4,.9-.19,.17,.15,.26,.36,.38,.55,.12,.19,.33,.82,.55,.86,.17,.03,.52-.21,.65-.32,.58-.44,.94-1.05,1.39-1.61,.09-.11,.19-.23,.32-.28,.22-.08,.46,.04,.65,.17,.18,.12,.36,.24,.48,.43,.08,.13,.13,.28,.16,.43,.23,1.01-.28,1.87-.9,2.64-.61,.76-1.36,1.39-2.17,1.92-.48,.32-1.12,.6-1.67,.89s-6.85,5.67-7.68,5.11c-.34-.23-1.38-1.53-2.39-2.76-1.18-1.43-1.81-2.61-1.81-2.61-2.29-2.03-.36-6.61-.36-6.61Z"/><path class="cls-3" d="M92.4,20.65c-1.24-2.44-.65-5.3,.23-6.13,2.24,.38,2.51,1.53,3.64,3.53,1.65,2.91,2.29,3.79,2.29,3.79-.56,.74-2.17,2.65-3.26,2.71l-2.9-3.9Z"/><g class="cls-26"><path d="M92.4,20.65c-1.24-2.44-.65-5.3,.23-6.13,2.24,.38,2.51,1.53,3.64,3.53,1.65,2.91,2.29,3.79,2.29,3.79-.56,.74-2.17,2.65-3.26,2.71l-2.9-3.9Z"/></g></g></g></g><g id="Character_3"><g id="Girl"><g><g><path class="cls-17" d="M42.9,59.95c-.17,0-.31-.14-.31-.31v-20.19c0-.17,.14-.31,.31-.31s.31,.14,.31,.31v20.19c0,.17-.14,.31-.31,.31Z"/><path class="cls-17" d="M55.39,52.6c-.13,0-.24-.08-.29-.2l-6.19-15.67c-.06-.16,.02-.34,.18-.41,.16-.06,.34,.01,.41,.18l6.19,15.67c.06,.16-.02,.34-.18,.41-.04,.02-.08,.02-.12,.02Z"/><path class="cls-17" d="M54.65,50.72c-.08,0-.17-.03-.23-.1l-11.52-12.19-11.5,12.14c-.12,.13-.32,.13-.44,.01-.13-.12-.13-.32-.01-.44l11.73-12.38c.06-.06,.14-.1,.23-.1h0c.09,0,.17,.04,.23,.1l11.75,12.43c.12,.13,.11,.32-.01,.44-.06,.06-.14,.09-.22,.09Z"/><path class="cls-17" d="M30.41,52.6s-.08,0-.12-.02c-.16-.06-.24-.25-.18-.41l6.19-15.67c.06-.16,.25-.24,.41-.18,.16,.06,.24,.25,.18,.41l-6.19,15.67c-.05,.12-.17,.2-.29,.2Z"/><path class="cls-3" d="M54.96,50.23l.82,2.16s0,.04,0,.06c0,.01,0,.03,0,.04,0,.04-.06,.1-.12,.14-.14,.08-.36,.08-.5,0-.05-.03-.08-.07-.1-.1,0,0,0,0,0,0v-.03s-.77-2.03-.77-2.03l.66-.23Z"/><path class="cls-3" d="M30.83,50.23l-.82,2.16s0,.04,0,.06c0,.01,0,.03,0,.04,0,.04,.06,.1,.12,.14,.14,.08,.36,.08,.5,0,.05-.03,.08-.07,.1-.1,0,0,0,0,0,0v-.03s.77-2.03,.77-2.03l-.66-.23Z"/><path class="cls-3" d="M43.26,58.07v1.79c0,.05-.04,.11-.11,.15-.14,.08-.37,.08-.51,0-.07-.04-.11-.09-.11-.15v-1.79c.24-.12,.48-.12,.72,0Z"/></g><g><path class="cls-18" d="M56.94,36.52c0-.56-.49-1.16-1.54-1.84-1.93-1.25-7.53-4.38-10.22-5.87,0-.02-.02-.02-.02-.02-2.07-1.26-2.7-6.63-4.14-11.18-.49-1.55-1.09-2.43-1.8-2.84-.17-.1-.79-.44-.93-.52-1.41-.84-3.25,.17-5.56,1.43-2.12,1.16-3.78,2.65-4.11,6.59-.2,2.4,0,6.99,.48,10.46,0,0,0,0,0,0,.71,5.81,1.57,5.82,2.83,6.79,2.16,1.67,7.04,4.02,9.09,4.83,3.73,1.47,6.77-.79,9.04-1.91,2.27-1.12,5.06-2.87,6.01-3.56,.57-.41,.86-.83,.86-1.27,0-.17,0-.89,0-1.07Z"/><path class="cls-19" d="M50.07,41.34c2.27-1.12,5.06-2.87,6.01-3.56,1.29-.94,1.17-1.9-.68-3.1-2.57-1.67-11.7-6.69-11.7-6.69,0,0-13.25,7.82-12.68,9.26,.57,1.44,7.42,4.98,10,6,3.73,1.47,6.77-.79,9.04-1.91Z"/><path class="cls-17" d="M39.14,14.72c-1.39-.73-3.21,.26-5.45,1.49-1.44,.79-2.66,1.72-3.4,3.47l-.95-.55c.74-1.74,1.96-2.67,3.4-3.46,2.3-1.26,4.15-2.27,5.56-1.43,.12,.07,.61,.34,.85,.48Z"/><path class="cls-19" d="M33.69,16.21c3.44-1.89,5.87-3.22,7.33,1.4,1.43,4.55,2.06,9.92,4.14,11.18,0,0,.63,.05-4.52,3.95-1.64,1.24-3.63,2.25-4.94,3.03-2.56,1.53-4.11,2.14-4.36,1.93-1.35-1.12-2.09-10.97-1.75-14.91,.33-3.94,1.99-5.43,4.11-6.59Z"/></g></g><g><g><path class="cls-18" d="M46.88,48.62c-.2,.17-.44,.38-.44,.62,0,.25,.06,.84,.52,1.45,.45,.6,.68,1.69,.7,2.42,.02,.72-.1,2.55,.73,3.36,.83,.81,2.99,1.39,3.13,.07,.14-1.33-1.96-6.71-1.96-6.71l-2.68-1.21Z"/><path class="cls-14" d="M48.01,49.6c.19,.7,.48,1.86,.59,2.95,.12,1.09,.35,1.87,.87,2.22,.51,.34,1.33,.37,1.1-.38-.23-.76-1.01-4.55-1.01-4.55l-1.55-.23Z"/></g><path class="cls-3" d="M43.88,29.44s4.89,1.85,6.88,3.19,3.02,2.28,3.34,3.23c.34,1.01,.15,2.38-1.06,5.95-.27,.79-1.79,5.71-1.79,5.71l-3.56-8.34-5.95-4.46,2.13-5.28Z"/><path class="cls-10" d="M43.88,29.44s4.89,1.85,6.88,3.19,3.02,2.28,3.34,3.23c.34,1.01,.15,2.38-1.06,5.95-.27,.79-1.79,5.71-1.79,5.71l-3.56-8.34-5.95-4.46,2.13-5.28Z"/><g><path class="cls-18" d="M51.15,56.59c-.19,.1-.21,.54-.23,.87s-.29,.72,.13,1.27,1.2,.67,1.77,1.42c.57,.74,.93,1.8,2.68,2.07,1.75,.27,3.03-.37,3.33-.9s-.02-1-1.16-1.57c-1.21-.61-1.55-.78-1.55-.78l-4.96-2.36Z"/><path class="cls-15" d="M52.81,52.94s.96,2.26,1.53,3.29c.57,1.03,.93,1.7,1.87,2.58,.2,.19,.66,.54,.83,.7,.15,.14,.19,.31,.02,.51-.34,.4-1.92,.64-2.87,.07-.96-.58-1.47-1.46-2.06-1.94-.29-.24-.57-.47-.77-.64-.19-.16-.29-.42-.25-.67,.01-.07,.02-.15,.04-.25,.07-.52-.82-2.56-.82-2.56l2.48-1.09Z"/><path class="cls-3" d="M31.94,30.38c-.69,2-.8,4.57,1.03,6.26,1.22,1.12,3.91,2.89,6.03,3.86,2.11,.97,5.32,2.58,5.95,2.79,.63,.2,.72,.56,.76,1.71,.03,1.15,.62,2.98,2.12,5.18,1.59,2.33,2.51,3.86,2.51,3.86,0,0,1.51,.4,2.61-.92,0,0-2.93-12.14-3.59-13.58-.66-1.44-6.56-5.53-6.56-5.53,0,0,.81-2.8,1.08-4.56l-11.94,.93Z"/><path class="cls-10" d="M31.94,30.38c-.69,2-.8,4.57,1.03,6.26,1.22,1.12,3.91,2.89,6.03,3.86,2.11,.97,5.32,2.58,5.95,2.79,.63,.2,.72,.56,.76,1.71,.03,1.15,.62,2.98,2.12,5.18,1.59,2.33,2.51,3.86,2.51,3.86,0,0,1.51,.4,2.61-.92,0,0-2.93-12.14-3.59-13.58-.66-1.44-6.56-5.53-6.56-5.53,0,0,.81-2.8,1.08-4.56l-11.94,.93Z"/><path class="cls-22" d="M50.38,40.25c-.46-1.47-1.69-2.55-2.85-3.44-.95-.73-3.38-2.5-4.22-3.11,.14-.44,.32-1.1,.39-1.69,0,0-.57,1.36-.89,2h0s5.92,4.14,6.56,5.53c.37,.8,1.32,5.15,2.3,8.34-.1-.48-.84-6.22-1.27-7.62Z"/></g></g></g><g><path class="cls-15" d="M27.51,25.94s-6.03-1.09-6.44-1.35c-.4-.26-.62-1-.79-1.37-.28-.63-.22-1.27-.26-1.51-.09-.52-.77-.18-.94,.09-.12,.2-.14,.43-.2,.66-.05,.22-.07,.9-.27,1-.16,.08-.57-.05-.74-.11-.7-.25-1.24-.73-1.85-1.13-.12-.08-.25-.16-.4-.17-.24,0-.43,.18-.58,.37-.14,.17-.27,.35-.33,.56-.04,.15-.04,.31-.03,.46,.09,1.06,.86,1.73,1.69,2.29,.82,.55,1.75,.93,2.71,1.19,.57,.16,1.28,.23,1.9,.35,.62,.12,8.09,3.14,8.88,2.47,.48-.41,.97-2.07,1.49-3.61,.75-2.23,1.26-4.85,1.26-4.85,.1-2.91-1.3-4.74-1.3-4.74,0,0-1.43,.29-1.98,2.41-.24,.93-1.09,3.68-1.47,5.39-.21,.93-.36,1.6-.36,1.6"/><path class="cls-16" d="M33.18,20.61c.79-1.82,.29-4.85-.59-5.68-2.24,.38-2.8,1.44-3.42,3.52-.95,3.2-1.42,5.28-1.42,5.28,.56,.74,3.1,1.67,4.14,1.36l1.29-4.48Z"/><path class="cls-16" d="M39.44,14.51s.92-.63,1.93-.56c1.01,.06,2.16,.42,2.89,1.61,.98,1.58,3.28,5.06,3.28,5.06,0,0-.54,2.33-3.09,3.08l-3.52-5.04-1.49-4.15Z"/><g><path class="cls-6" d="M43.2,22.54c.17,1.53,.67,6.9,.67,6.9-1.02,2.62-3.78,2.76-6.01,2.79-2.68,.03-5.2-.67-5.93-1.84,.99-2.3,1.46-4.61,1.46-4.61l-.98-4.29s2.35-2.14,0-6.51l3.1-.93,3.7-.3,2.16,.19c1.21,.89,2.02,2.7,2.41,3.7,.4,1.02,1.18,2.82-.58,4.9Z"/><path class="cls-4" d="M32.94,27.56c.03-.12,.07-.23,.1-.34,.24-.87,.36-1.44,.36-1.44l-.98-4.29h0s0,0,0-.01c0,0,0,0,0,0,.02-.02,.05-.05,.1-.11,0,0,0,0,0,0,.31-.36,1.11-1.49,.88-3.42,0,0,0,0,0,0h0s.68,2.47-.2,3.75l.83,3.72,1.2,1.74-1.45-.57s-.53,2.05-.57,2.73c-.03,.52,1.2,2.25,3.84,2.92-2.36-.1-4.46-.78-5.12-1.83,0,0,0,0,0,0,.43-1.01,.77-2.02,1-2.83Z"/><g><g><path class="cls-18" d="M37.62,.37h0c3.39,0,6.15,2.76,6.15,6.15v6.62h-7.53c-2.63,0-4.77-2.14-4.77-4.77v-1.85c0-3.39,2.76-6.15,6.15-6.15Z"/><path class="cls-3" d="M35.44,8.1c5.41,.06,5.89-5.08,5.89-5.08-1.38,1.74-3.09,3.45-5.89,5.08Z"/><path class="cls-19" d="M33.01,2.26c-.13-.43-.59-.66-1.02-.51l.36,1.17c-.1-.13-.23-.23-.39-.29-.42-.15-.88,.09-1.01,.52l1.53,.54c.04-.14,.05-.28,.02-.41,.41-.16,.64-.61,.51-1.02Z"/></g><g><path class="cls-15" d="M41.33,3.02c.66,.37,1.51,1.98,1.52,5.41,.01,2.91-.91,3.65-1.38,3.87-.47,.22-1.38,.12-2.27,0l.02,1.46s1.6,1.49,1.54,2.29c-.06,.8-2.04,1.22-3.21,.47-1.17-.75-2.18-2.22-2.18-2.22l-.09-4.03s-.51,.52-1.41-.23c-.75-.62-1.02-1.69-.47-2.28,.55-.59,1.61-.46,2.03,.35,0,0,1.41,.01,3.27-1.07,1.85-1.08,2.53-2.87,2.62-4Z"/><path class="cls-18" d="M39.95,7.63c.02,.21-.13,.39-.33,.41-.2,.02-.38-.14-.39-.35-.02-.21,.13-.39,.33-.41,.2-.02,.38,.14,.39,.35Z"/><path class="cls-14" d="M39.75,10.24l.86,.25c-.06,.24-.31,.39-.54,.32-.24-.07-.38-.32-.31-.57Z"/><path class="cls-18" d="M42.55,6.41l-.75-.49c.13-.21,.4-.28,.61-.14,.21,.14,.27,.42,.14,.63Z"/><path class="cls-18" d="M42.57,7.25c.02,.21-.13,.39-.33,.41-.2,.02-.38-.14-.39-.35-.02-.21,.13-.39,.33-.41,.2-.02,.38,.14,.39,.35Z"/><polygon class="cls-14" points="40.89 7.21 40.94 9.59 42.08 9.2 40.89 7.21"/><path class="cls-14" d="M39.2,12.29c-.94-.1-2.87-.6-3.19-1.35,0,0,.11,.47,.7,.95,.59,.48,2.5,.98,2.5,.98v-.58Z"/></g></g></g></g></g><g><g id="Table"><g><path class="cls-17" d="M62.74,94.34c0,.1,.05,.19,.18,.26,.24,.14,.64,.14,.88,0,.12-.07,.19-.17,.19-.26h0s.02-25.44,.02-25.44l-1.25,.02-.02,25.42Z"/><path class="cls-19" d="M63.43,94.7c.14,0,.27-.04,.37-.1,.12-.07,.19-.17,.19-.26h0s.02-25.44,.02-25.44h-.56s-.02,25.8-.02,25.8Z"/><path class="cls-18" d="M62.94,69.16c.24,.14,.64,.14,.88,0,.25-.14,.25-.37,0-.51-.24-.14-.64-.14-.88,0-.25,.14-.25,.37,0,.51Z"/></g><g><path class="cls-17" d="M98.72,73.47c0,.1,.05,.19,.18,.26,.24,.14,.64,.14,.88,0,.12-.07,.19-.17,.19-.26h0l.02-25.44-1.25,.02-.02,25.42Z"/><path class="cls-19" d="M99.41,73.83c.14,0,.27-.04,.37-.1,.12-.07,.19-.17,.19-.26h0l.02-25.44h-.56s-.02,25.8-.02,25.8Z"/><path class="cls-18" d="M98.92,48.3c.24,.14,.64,.14,.88,0,.25-.14,.25-.37,0-.51-.24-.14-.64-.14-.88,0-.25,.14-.25,.37,0,.51Z"/></g><g><path class="cls-17" d="M25.81,72.9c0,.1,.05,.19,.18,.26,.24,.14,.64,.14,.88,0,.12-.07,.19-.17,.19-.26h0s.02-25.44,.02-25.44l-1.25,.02-.02,25.42Z"/><path class="cls-19" d="M26.5,73.26c.14,0,.27-.04,.37-.1,.12-.07,.19-.17,.19-.26h0s.02-25.44,.02-25.44h-.56s-.02,25.8-.02,25.8Z"/><path class="cls-18" d="M26.01,47.73c.24,.14,.64,.14,.88,0,.25-.14,.25-.37,0-.51-.24-.14-.64-.14-.88,0s-.25,.37,0,.51Z"/></g><g id="Desk"><g><path class="cls-3" d="M19.29,51.4v-.22c0-.35,.24-.77,.55-.95L63.76,24.88c.3-.17,.79-.17,1.09,0l39.24,22.66c.3,.17,.55,.6,.55,.95v.22c0,.35-.24,.77-.55,.95l-43.92,25.36c-.3,.17-.79,.17-1.09,0L19.84,52.35c-.3-.17-.55-.6-.55-.95Z"/><g class="cls-28"><path class="cls-8" d="M19.29,51.4v-.22c0-.35,.24-.77,.55-.95L63.76,24.88c.3-.17,.79-.17,1.09,0l39.24,22.66c.3,.17,.55,.6,.55,.95v.22c0,.35-.24,.77-.55,.95l-43.92,25.36c-.3,.17-.79,.17-1.09,0L19.84,52.35c-.3-.17-.55-.6-.55-.95Z"/></g><path class="cls-3" d="M59.62,73.66v1.48c-.2,0-.39-.05-.55-.13L19.84,52.35c-.3-.18-.55-.6-.55-.95v-.22c0-.31,.19-.68,.45-.87-.2,.17-.16,.4,.1,.56l39.24,22.66c.15,.09,.35,.13,.55,.13Z"/><g class="cls-25"><path class="cls-8" d="M59.62,73.66v1.48c-.2,0-.39-.05-.55-.13L19.84,52.35c-.3-.18-.55-.6-.55-.95v-.22c0-.31,.19-.68,.45-.87-.2,.17-.16,.4,.1,.56l39.24,22.66c.15,.09,.35,.13,.55,.13Z"/></g><path class="cls-3" d="M19.84,50.87l39.24,22.66c.3,.17,.79,.17,1.09,0l43.92-25.36c.3-.17,.3-.46,0-.63l-39.24-22.66c-.3-.17-.79-.17-1.09,0L19.84,50.24c-.3,.17-.3,.46,0,.63Z"/><g class="cls-27"><path class="cls-8" d="M19.84,50.87l39.24,22.66c.3,.17,.79,.17,1.09,0l43.92-25.36c.3-.17,.3-.46,0-.63l-39.24-22.66c-.3-.17-.79-.17-1.09,0L19.84,50.24c-.3,.17-.3,.46,0,.63Z"/></g></g></g></g><g><path class="cls-2" d="M50.46,59.59c-.14,0-.35-.02-.54-.14l-11.91-6.87c-.23-.13-.36-.34-.36-.58,0-.24,.13-.45,.36-.58l6.76-3.9c.2-.11,.4-.14,.54-.14s.35,.02,.54,.14l11.91,6.87c.23,.13,.36,.34,.36,.58,0,.24-.13,.45-.36,.58l-6.76,3.9c-.2,.11-.4,.14-.54,.14Z"/><g id="Black_Laptop"><g id="Laptop"><path class="cls-19" d="M57.84,54.66c0,.19-.14,.42-.31,.52l-6.76,3.9c-.17,.1-.45,.1-.62,0l-11.91-6.87c-.17-.1-.31-.33-.31-.52,0-.19,.14-.42,.31-.52l6.76-3.9c.17-.1,.45-.1,.62,0l11.91,6.87c.17,.1,.31,.33,.31,.52Z"/><path class="cls-18" d="M50.46,58.48v.67c.11,0,.23-.02,.31-.07l6.76-3.91c.17-.1,.31-.33,.31-.52,0-.17-.12-.39-.28-.5,.14,.1,.13,.25-.03,.34l-6.76,3.91c-.09,.05-.2,.07-.31,.07Z"/><path class="cls-17" d="M58.14,54.15c.16-.09,.15-.25,.15-.45v-9.34c0-.2-.14-.44-.31-.54l-11.91-6.87c-.17-.1-.44-.1-.6-.01-.16,.09-.15,.25-.15,.45v9.34c0,.2,.14,.44,.31,.54l11.91,6.87c.17,.1,.44,.1,.6,.01Z"/><path class="cls-18" d="M57.57,54.16c.17,.08,.42,.08,.57,0,.16-.09,.15-.25,.15-.45v-9.34c0-.1-.03-.21-.09-.31l-.44,.26h0c.06,.1,.09,.21,.09,.31v9.34c0,.18-.12,.27-.27,.2Z"/><path class="cls-19" d="M57.84,44.62v9.34c0,.2-.14,.28-.31,.18l-11.91-6.87c-.17-.1-.31-.34-.31-.54v-9.34c0-.2,.14-.28,.31-.18l11.91,6.87c.17,.1,.31,.34,.31,.54Z"/><path class="cls-17" d="M57.53,54.5l-6.76,3.9c-.17,.1-.45,.1-.62,0l-11.91-6.87c-.17-.1-.17-.26,0-.36l6.76-3.9c.17-.1,.45-.1,.62,0l11.91,6.87c.17,.1,.17,.26,0,.36Z"/><path class="cls-3" d="M57.37,44.44l-11.48-6.63c-.1-.06-.19-.01-.19,.11v8.6c0,.12,.08,.26,.19,.32l11.48,6.63c.1,.06,.19,.01,.19-.11v-8.6c0-.12-.08-.26-.19-.32Z"/><path class="cls-9" d="M57.37,44.44l-11.48-6.63c-.1-.06-.19-.01-.19,.11v8.6c0,.12,.08,.26,.19,.32l11.48,6.63c.1,.06,.19,.01,.19-.11v-8.6c0-.12-.08-.26-.19-.32Z"/><path class="cls-18" d="M56.67,54.16l-11.05-6.38c-.09-.05-.22-.05-.31,0l-.18,.1c-.09,.05-.09,.13,0,.18l11.05,6.38c.09,.05,.22,.05,.31,0l.18-.1c.09-.05,.09-.13,0-.18Z"/><g><path class="cls-18" d="M55.81,54.67l-11.05-6.38c-.09-.05-.21-.06-.28-.02l-2.88,1.66c-.07,.04-.06,.11,.03,.16l11.04,6.37c.09,.05,.21,.06,.28,.02l2.89-1.65c.07-.04,.06-.11-.03-.16Z"/><path class="cls-3" d="M46.28,50.97l.33-.19s.01-.02,0-.03l-.35-.2s-.04,0-.05,0l-.33,.19s-.01,.02,0,.03l.35,.2s.04,0,.05,0Zm.4-.69l-.33,.19s-.01,.02,0,.03l.35,.2s.04,0,.05,0l.33-.19s.01-.02,0-.03l-.35-.2s-.04,0-.05,0Zm1.12,.65l-.33,.19s-.01,.02,0,.03l.59,.34s.04,0,.05,0l.33-.19s.01-.02,0-.03l-.59-.34s-.04,0-.05,0Zm-.61-.35l-.33,.19s-.01,.02,0,.03l.35,.2s.04,0,.05,0l.33-.19s.01-.02,0-.03l-.35-.2s-.04,0-.05,0Zm1.36,.78l-.33,.19s-.01,.02,0,.03l.35,.2s.04,0,.05,0l.33-.19s.01-.02,0-.03l-.35-.2s-.04,0-.05,0Zm.51,.29l-.33,.19s-.01,.02,0,.03l.35,.2s.04,0,.05,0l.33-.19s.01-.02,0-.03l-.35-.2s-.04,0-.05,0Zm-1.2,.78l.33-.19s.01-.02,0-.03l-.35-.2s-.04,0-.05,0l-.33,.19s-.01,.02,0,.03l.35,.2s.04,0,.05,0Zm.51,.29l.33-.19s.01-.02,0-.03l-.35-.2s-.04,0-.05,0l-.33,.19s-.01,.02,0,.03l.35,.2s.04,0,.05,0Zm.51,.29l.33-.19s.01-.02,0-.03l-.35-.2s-.04,0-.05,0l-.33,.19s-.01,.02,0,.03l.35,.2s.04,0,.05,0Zm.51,.29l.33-.19s.01-.02,0-.03l-.35-.2s-.04,0-.05,0l-.33,.19s-.01,.02,0,.03l.35,.2s.04,0,.05,0Zm-2.59-2.04l.33-.19s.01-.02,0-.03l-.35-.2s-.04,0-.05,0l-.33,.19s-.01,.02,0,.03l.35,.2s.04,0,.05,0Zm.57,.87l.33-.19s.01-.02,0-.03l-.32-.18s-.02-.02,0-.03l.43-.25s.01-.02,0-.03l-.4-.23s-.04,0-.05,0l-.8,.46s-.01,.02,0,.03l.77,.45s.04,0,.05,0Zm2.21-.2l-.33,.19s-.01,.02,0,.03l.35,.2s.04,0,.05,0l.33-.19s.01-.02,0-.03l-.35-.2s-.04,0-.05,0Zm.51,.29l-.33,.19s-.01,.02,0,.03l.35,.2s.04,0,.05,0l.33-.19s.01-.02,0-.03l-.35-.2s-.04,0-.05,0Zm3.18,2.93s.01-.02,0-.03l-.35-.2s-.04,0-.05,0l-.33,.19s-.01,.02,0,.03l.35,.2s.04,0,.05,0l.33-.19Zm.87-.59l-.33,.19s-.01,.02,0,.03l.35,.2s.04,0,.05,0l.33-.19s.01-.02,0-.03l-.35-.2s-.04,0-.05,0Zm-.26,.4s.01-.02,0-.03l-.35-.2s-.04,0-.05,0l-.33,.19s-.01,.02,0,.03l.35,.2s.04,0,.05,0l.33-.19Zm-1.68,.51l.33-.19s.01-.02,0-.03l-.35-.2s-.04,0-.05,0l-.33,.19s-.01,.02,0,.03l.35,.2s.04,0,.05,0Zm.84,.1s.01-.02,0-.03l-.35-.2s-.04,0-.05,0l-.33,.19s-.01,.02,0,.03l.35,.2s.04,0,.05,0l.33-.19Zm.59-1.3l-.33,.19s-.01,.02,0,.03l.35,.2s.04,0,.05,0l.33-.19s.01-.02,0-.03l-.35-.2s-.04,0-.05,0Zm-2.53-1.46l-.33,.19s-.01,.02,0,.03l.35,.2s.04,0,.05,0l.33-.19s.01-.02,0-.03l-.35-.2s-.04,0-.05,0Zm2.02,1.17l-.33,.19s-.01,.02,0,.03l.35,.2s.04,0,.05,0l.33-.19s.01-.02,0-.03l-.35-.2s-.04,0-.05,0Zm-2.53-1.46l-.33,.19s-.01,.02,0,.03l.35,.2s.04,0,.05,0l.33-.19s.01-.02,0-.03l-.35-.2s-.04,0-.05,0Zm1.01,.58l-.33,.19s-.01,.02,0,.03l.35,.2s.04,0,.05,0l.33-.19s.01-.02,0-.03l-.35-.2s-.04,0-.05,0Zm.51,.29l-.33,.19s-.01,.02,0,.03l.35,.2s.04,0,.05,0l.33-.19s.01-.02,0-.03l-.35-.2s-.04,0-.05,0Zm.51,.29l-.33,.19s-.01,.02,0,.03l.35,.2s.04,0,.05,0l.33-.19s.01-.02,0-.03l-.35-.2s-.04,0-.05,0Zm-2.21,.2l.33-.19s.01-.02,0-.03l-.35-.2s-.04,0-.05,0l-.33,.19s-.01,.02,0,.03l.35,.2s.04,0,.05,0Zm-4.82-4.26l-.33,.19s-.01,.02,0,.03l.35,.2s.04,0,.05,0l.33-.19s.01-.02,0-.03l-.35-.2s-.04,0-.05,0Zm.61,.35l-.33,.19s-.01,.02,0,.03l.35,.2s.04,0,.05,0l.33-.19s.01-.02,0-.03l-.35-.2s-.04,0-.05,0Zm-1.12-.65l-.33,.19s-.01,.02,0,.03l.35,.2s.04,0,.05,0l.33-.19s.01-.02,0-.03l-.35-.2s-.04,0-.05,0Zm2.9,2.6l.33-.19s.01-.02,0-.03l-.35-.2s-.04,0-.05,0l-.33,.19s-.01,.02,0,.03l.35,.2s.04,0,.05,0Zm-3.73-2.7s-.01,.02,0,.03l.35,.2s.04,0,.05,0l.33-.19s.01-.02,0-.03l-.35-.2s-.04,0-.05,0l-.33,.19Zm5.66,4.36l.33-.19s.01-.02,0-.03l-.35-.2s-.04,0-.05,0l-.33,.19s-.01,.02,0,.03l.35,.2s.04,0,.05,0Zm-6.2-3.58l.33-.19s.01-.02,0-.03l-.35-.2s-.04,0-.05,0l-.33,.19s-.01,.02,0,.03l.35,.2s.04,0,.05,0Zm.98,.02l.33-.19s.01-.02,0-.03l-.35-.2s-.04,0-.05,0l-.33,.19s-.01,.02,0,.03l.35,.2s.04,0,.05,0Zm-.91-.52s-.01,.02,0,.03l.35,.2s.04,0,.05,0l.33-.19s.01-.02,0-.03l-.35-.2s-.04,0-.05,0l-.33,.19Zm.22-.28l-.35-.2s-.04,0-.05,0l-.8,.46s-.01,.02,0,.03l.35,.2s.04,0,.05,0l.8-.46s.01-.02,0-.03Zm1.12,.67l-.33,.19s-.01,.02,0,.03l.35,.2s.04,0,.05,0l.33-.19s.01-.02,0-.03l-.35-.2s-.04,0-.05,0Zm3.81,2.2l-.33,.19s-.01,.02,0,.03l.35,.2s.04,0,.05,0l.33-.19s.01-.02,0-.03l-.35-.2s-.04,0-.05,0Zm-4.39-1.99s.01-.02,0-.03l-.35-.2s-.04,0-.05,0l-.33,.19s-.01,.02,0,.03l.35,.2s.04,0,.05,0l.33-.19Zm3.88,1.69l-.33,.19s-.01,.02,0,.03l.35,.2s.04,0,.05,0l.33-.19s.01-.02,0-.03l-.35-.2s-.04,0-.05,0Zm4.35,3.05s.01-.02,0-.03l-.35-.2s-.04,0-.05,0l-.33,.19s-.01,.02,0,.03l.35,.2s.04,0,.05,0l.33-.19Zm.21-.43l-.33,.19s-.01,.02,0,.03l.35,.2s.04,0,.05,0l.33-.19s.01-.02,0-.03l-.35-.2s-.04,0-.05,0Zm-1.04,.33l.33-.19s.01-.02,0-.03l-.35-.2s-.04,0-.05,0l-.33,.19s-.01,.02,0,.03l.35,.2s.04,0,.05,0Zm-.51-.29l.33-.19s.01-.02,0-.03l-.35-.2s-.04,0-.05,0l-.33,.19s-.01,.02,0,.03l.35,.2s.04,0,.05,0Zm-.51-.29l.33-.19s.01-.02,0-.03l-.35-.2s-.04,0-.05,0l-.33,.19s-.01,.02,0,.03l.35,.2s.04,0,.05,0Zm1.55-.03l-.33,.19s-.01,.02,0,.03l.35,.2s.04,0,.05,0l.33-.19s.01-.02,0-.03l-.35-.2s-.04,0-.05,0Zm-.51-.29l-.33,.19s-.01,.02,0,.03l.35,.2s.04,0,.05,0l.33-.19s.01-.02,0-.03l-.35-.2s-.04,0-.05,0Zm-2.02-1.17l-.33,.19s-.01,.02,0,.03l.35,.2s.04,0,.05,0l.33-.19s.01-.02,0-.03l-.35-.2s-.04,0-.05,0Zm.51,.29l-.33,.19s-.01,.02,0,.03l.35,.2s.04,0,.05,0l.33-.19s.01-.02,0-.03l-.35-.2s-.04,0-.05,0Zm-1.01-.58l-.33,.19s-.01,.02,0,.03l.35,.2s.04,0,.05,0l.33-.19s.01-.02,0-.03l-.35-.2s-.04,0-.05,0Zm2.02,1.17l-.33,.19s-.01,.02,0,.03l.35,.2s.04,0,.05,0l.33-.19s.01-.02,0-.03l-.35-.2s-.04,0-.05,0Zm-.51-.29l-.33,.19s-.01,.02,0,.03l.35,.2s.04,0,.05,0l.33-.19s.01-.02,0-.03l-.35-.2s-.04,0-.05,0Zm.75,1.91l.33-.19s.01-.02,0-.03l-.35-.2s-.04,0-.05,0l-.33,.19s-.01,.02,0,.03l.35,.2s.04,0,.05,0Zm2.62-.1l.35,.2s.04,0,.05,0l.33-.19s.01-.02,0-.03l-.35-.2s-.04,0-.05,0l-.33,.19s-.01,.02,0,.03Zm-.66,.17l.53,.31s.04,0,.05,0l.33-.19s.01-.02,0-.03l-.53-.31s-.04,0-.05,0l-.33,.19s-.01,.02,0,.03Zm1.15-.54l.43,.25s.04,0,.05,0l.33-.19s.01-.02,0-.03l-.43-.25s-.04,0-.05,0l-.33,.19s-.01,.02,0,.03Zm0-.41s.01-.02,0-.03l-.35-.2s-.04,0-.05,0l-.33,.19s-.01,.02,0,.03l.35,.2s.04,0,.05,0l.33-.19Zm-1.76,1.15l.67,.38s.04,0,.05,0l.33-.19s.01-.02,0-.03l-.67-.38s-.04,0-.05,0l-.33,.19s-.01,.02,0,.03Zm-.23,.41l.43,.25s.04,0,.05,0l.33-.19s.01-.02,0-.03l-.43-.25s-.04,0-.05,0l-.33,.19s-.01,.02,0,.03Zm-1.77-3.73s.01-.02,0-.03l-.35-.2s-.04,0-.05,0l-.33,.19s-.01,.02,0,.03l.35,.2s.04,0,.05,0l.33-.19Zm1.01,.58s.01-.02,0-.03l-.35-.2s-.04,0-.05,0l-.33,.19s-.01,.02,0,.03l.35,.2s.04,0,.05,0l.33-.19Zm2.24,1.3s.01-.02,0-.03l-.35-.2s-.04,0-.05,0l-.33,.19s-.01,.02,0,.03l.35,.2s.04,0,.05,0l.33-.19Zm-2.75-1.59s.01-.02,0-.03l-.35-.2s-.04,0-.05,0l-.33,.19s-.01,.02,0,.03l.35,.2s.04,0,.05,0l.33-.19Zm1.01,.58s.01-.02,0-.03l-.35-.2s-.04,0-.05,0l-.33,.19s-.01,.02,0,.03l.35,.2s.04,0,.05,0l.33-.19Zm-.33,3.04s-.01,.02,0,.03l.53,.31s.04,0,.05,0l.33-.19s.01-.02,0-.03l-.53-.31s-.04,0-.05,0l-.33,.19Zm1.06-2.62s.01-.02,0-.03l-.35-.2s-.04,0-.05,0l-.33,.19s-.01,.02,0,.03l.35,.2s.04,0,.05,0l.33-.19Zm.51,.29s.01-.02,0-.03l-.35-.2s-.04,0-.05,0l-.33,.19s-.01,.02,0,.03l.35,.2s.04,0,.05,0l.33-.19Zm-10.94-3.08s-.01,.02,0,.03l.85,.49s.04,0,.05,0l.33-.19s.01-.02,0-.03l-.85-.49s-.04,0-.05,0l-.33,.19Zm1.12,.65s-.01,.02,0,.03l.35,.2s.04,0,.05,0l.33-.19s.01-.02,0-.03l-.35-.2s-.04,0-.05,0l-.33,.19Zm7.21,3.62l.33-.19s.01-.02,0-.03l-.35-.2s-.04,0-.05,0l-.33,.19s-.01,.02,0,.03l.35,.2s.04,0,.05,0Zm-6.2-3.03s-.01,.02,0,.03l.35,.2s.04,0,.05,0l.33-.19s.01-.02,0-.03l-.35-.2s-.04,0-.05,0l-.33,.19Zm-2.64-1.52s-.01,.02,0,.03l.35,.2s.04,0,.05,0l.33-.19s.01-.02,0-.03l-.35-.2s-.04,0-.05,0l-.33,.19Zm-.5-.26l.35,.2s.04,0,.05,0l.8-.46s.01-.02,0-.03l-.35-.2s-.04,0-.05,0l-.8,.46s-.01,.02,0,.03Zm5.03,2.88s-.01,.02,0,.03l.43,.25s.04,0,.05,0l.33-.19s.01-.02,0-.03l-.43-.25s-.04,0-.05,0l-.33,.19Zm-1.28-.74s-.01,.02,0,.03l.53,.31s.04,0,.05,0l.33-.19s.01-.02,0-.03l-.53-.31s-.04,0-.05,0l-.33,.19Zm2.45,1.41s-.01,.02,0,.03l2.85,1.64s.04,0,.05,0l.33-.19s.01-.02,0-.03l-2.85-1.64s-.04,0-.05,0l-.33,.19Zm3.01,1.74s-.01,.02,0,.03l.43,.25s.04,0,.05,0l.33-.19s.01-.02,0-.03l-.43-.25s-.04,0-.05,0l-.33,.19Zm-3.59-2.07s-.01,.02,0,.03l.43,.25s.04,0,.05,0l.33-.19s.01-.02,0-.03l-.43-.25s-.04,0-.05,0l-.33,.19Zm4.18,2.41s-.01,.02,0,.03l.43,.25s.04,0,.05,0l.33-.19s.01-.02,0-.03l-.43-.25s-.04,0-.05,0l-.33,.19Zm-5.35-3.09s-.01,.02,0,.03l.43,.25s.04,0,.05,0l.33-.19s.01-.02,0-.03l-.43-.25s-.04,0-.05,0l-.33,.19Zm-1.81-1.05s-.01,.02,0,.03l.35,.2s.04,0,.05,0l.33-.19s.01-.02,0-.03l-.35-.2s-.04,0-.05,0l-.33,.19Zm-.75-.98l.33-.19s.01-.02,0-.03l-.35-.2s-.04,0-.05,0l-.33,.19s-.01,.02,0,.03l.35,.2s.04,0,.05,0Zm2.06,.1l.33-.19s.01-.02,0-.03l-.35-.2s-.04,0-.05,0l-.33,.19s-.01,.02,0,.03l.35,.2s.04,0,.05,0Zm1.34,1.87l.33-.19s.01-.02,0-.03l-1.01-.58s-.04,0-.05,0l-.33,.19s-.01,.02,0,.03l1.01,.58s.04,0,.05,0Zm-2.57-1.87s.01-.02,0-.03l-.35-.2s-.04,0-.05,0l-.33,.19s-.01,.02,0,.03l.35,.2s.04,0,.05,0l.33-.19Zm.14-.08l.33-.19s.01-.02,0-.03l-.35-.2s-.04,0-.05,0l-.33,.19s-.01,.02,0,.03l.35,.2s.04,0,.05,0Zm2.93,2.24l.33-.19s.01-.02,0-.03l-.35-.2s-.04,0-.05,0l-.33,.19s-.01,.02,0,.03l.35,.2s.04,0,.05,0Zm-1.96-1.51s.01-.02,0-.03l-.35-.2s-.04,0-.05,0l-.33,.19s-.01,.02,0,.03l.35,.2s.04,0,.05,0l.33-.19Zm4.49,2.97l.33-.19s.01-.02,0-.03l-.35-.2s-.04,0-.05,0l-.33,.19s-.01,.02,0,.03l.35,.2s.04,0,.05,0Zm-.51-.29l.33-.19s.01-.02,0-.03l-.35-.2s-.04,0-.05,0l-.33,.19s-.01,.02,0,.03l.35,.2s.04,0,.05,0Zm1.01,.58l.33-.19s.01-.02,0-.03l-.35-.2s-.04,0-.05,0l-.33,.19s-.01,.02,0,.03l.35,.2s.04,0,.05,0Zm-2.02-1.17l.33-.19s.01-.02,0-.03l-.35-.2s-.04,0-.05,0l-.33,.19s-.01,.02,0,.03l.35,.2s.04,0,.05,0Zm.51,.29l.33-.19s.01-.02,0-.03l-.35-.2s-.04,0-.05,0l-.33,.19s-.01,.02,0,.03l.35,.2s.04,0,.05,0Zm-1.01-.58l.33-.19s.01-.02,0-.03l-.35-.2s-.04,0-.05,0l-.33,.19s-.01,.02,0,.03l.35,.2s.04,0,.05,0Zm-2.72-4.11s.01-.02,0-.03l-.35-.2s-.04,0-.05,0l-.09,.05s-.01,.02,0,.03l.35,.2s.04,0,.05,0l.09-.05Zm2.76,1.45s.01-.02,0-.03l-.35-.2s-.04,0-.05,0l-.33,.19s-.01,.02,0,.03l.35,.2s.04,0,.05,0l.33-.19Zm-1.01-.58s.01-.02,0-.03l-.35-.2s-.04,0-.05,0l-.33,.19s-.01,.02,0,.03l.35,.2s.04,0,.05,0l.33-.19Zm1.63,.94s.01-.02,0-.03l-.35-.2s-.04,0-.05,0l-.33,.19s-.01,.02,0,.03l.35,.2s.04,0,.05,0l.33-.19Zm-1.12-.65s.01-.02,0-.03l-.35-.2s-.04,0-.05,0l-.33,.19s-.01,.02,0,.03l.35,.2s.04,0,.05,0l.33-.19Zm2.13,1.23s.01-.02,0-.03l-.35-.2s-.04,0-.05,0l-.33,.19s-.01,.02,0,.03l.35,.2s.04,0,.05,0l.33-.19Zm-.51-.29s.01-.02,0-.03l-.35-.2s-.04,0-.05,0l-.33,.19s-.01,.02,0,.03l.35,.2s.04,0,.05,0l.33-.19Zm-2.87-1.52s.01-.02,0-.03l-.35-.2s-.04,0-.05,0l-.09,.05s-.01,.02,0,.03l.35,.2s.04,0,.05,0l.09-.05Zm-1.52-.88s.01-.02,0-.03l-.35-.2s-.04,0-.05,0l-.09,.05s-.01,.02,0,.03l.35,.2s.04,0,.05,0l.09-.05Zm-.45,.26s.01-.02,0-.03l-.35-.2s-.04,0-.05,0l-.33,.19s-.01,.02,0,.03l.35,.2s.04,0,.05,0l.33-.19Zm-1.24,1.3l.33-.19s.01-.02,0-.03l-.35-.2s-.04,0-.05,0l-.33,.19s-.01,.02,0,.03l.35,.2s.04,0,.05,0Zm2.71-.98s.01-.02,0-.03l-.35-.2s-.04,0-.05,0l-.09,.05s-.01,.02,0,.03l.35,.2s.04,0,.05,0l.09-.05Zm4.39,2.39s.01-.02,0-.03l-.35-.2s-.04,0-.05,0l-.33,.19s-.01,.02,0,.03l.35,.2s.04,0,.05,0l.33-.19Z"/><path class="cls-17" d="M46.28,50.97l.33-.19s.01-.02,0-.03l-.35-.2s-.04,0-.05,0l-.33,.19s-.01,.02,0,.03l.35,.2s.04,0,.05,0Zm.4-.69l-.33,.19s-.01,.02,0,.03l.35,.2s.04,0,.05,0l.33-.19s.01-.02,0-.03l-.35-.2s-.04,0-.05,0Zm1.12,.65l-.33,.19s-.01,.02,0,.03l.59,.34s.04,0,.05,0l.33-.19s.01-.02,0-.03l-.59-.34s-.04,0-.05,0Zm-.61-.35l-.33,.19s-.01,.02,0,.03l.35,.2s.04,0,.05,0l.33-.19s.01-.02,0-.03l-.35-.2s-.04,0-.05,0Zm1.36,.78l-.33,.19s-.01,.02,0,.03l.35,.2s.04,0,.05,0l.33-.19s.01-.02,0-.03l-.35-.2s-.04,0-.05,0Zm.51,.29l-.33,.19s-.01,.02,0,.03l.35,.2s.04,0,.05,0l.33-.19s.01-.02,0-.03l-.35-.2s-.04,0-.05,0Zm-1.2,.78l.33-.19s.01-.02,0-.03l-.35-.2s-.04,0-.05,0l-.33,.19s-.01,.02,0,.03l.35,.2s.04,0,.05,0Zm.51,.29l.33-.19s.01-.02,0-.03l-.35-.2s-.04,0-.05,0l-.33,.19s-.01,.02,0,.03l.35,.2s.04,0,.05,0Zm.51,.29l.33-.19s.01-.02,0-.03l-.35-.2s-.04,0-.05,0l-.33,.19s-.01,.02,0,.03l.35,.2s.04,0,.05,0Zm.51,.29l.33-.19s.01-.02,0-.03l-.35-.2s-.04,0-.05,0l-.33,.19s-.01,.02,0,.03l.35,.2s.04,0,.05,0Zm-2.59-2.04l.33-.19s.01-.02,0-.03l-.35-.2s-.04,0-.05,0l-.33,.19s-.01,.02,0,.03l.35,.2s.04,0,.05,0Zm.57,.87l.33-.19s.01-.02,0-.03l-.32-.18s-.02-.02,0-.03l.43-.25s.01-.02,0-.03l-.4-.23s-.04,0-.05,0l-.8,.46s-.01,.02,0,.03l.77,.45s.04,0,.05,0Zm2.21-.2l-.33,.19s-.01,.02,0,.03l.35,.2s.04,0,.05,0l.33-.19s.01-.02,0-.03l-.35-.2s-.04,0-.05,0Zm.51,.29l-.33,.19s-.01,.02,0,.03l.35,.2s.04,0,.05,0l.33-.19s.01-.02,0-.03l-.35-.2s-.04,0-.05,0Zm3.18,2.93s.01-.02,0-.03l-.35-.2s-.04,0-.05,0l-.33,.19s-.01,.02,0,.03l.35,.2s.04,0,.05,0l.33-.19Zm.87-.59l-.33,.19s-.01,.02,0,.03l.35,.2s.04,0,.05,0l.33-.19s.01-.02,0-.03l-.35-.2s-.04,0-.05,0Zm-.26,.4s.01-.02,0-.03l-.35-.2s-.04,0-.05,0l-.33,.19s-.01,.02,0,.03l.35,.2s.04,0,.05,0l.33-.19Zm-1.68,.51l.33-.19s.01-.02,0-.03l-.35-.2s-.04,0-.05,0l-.33,.19s-.01,.02,0,.03l.35,.2s.04,0,.05,0Zm.84,.1s.01-.02,0-.03l-.35-.2s-.04,0-.05,0l-.33,.19s-.01,.02,0,.03l.35,.2s.04,0,.05,0l.33-.19Zm.59-1.3l-.33,.19s-.01,.02,0,.03l.35,.2s.04,0,.05,0l.33-.19s.01-.02,0-.03l-.35-.2s-.04,0-.05,0Zm-2.53-1.46l-.33,.19s-.01,.02,0,.03l.35,.2s.04,0,.05,0l.33-.19s.01-.02,0-.03l-.35-.2s-.04,0-.05,0Zm2.02,1.17l-.33,.19s-.01,.02,0,.03l.35,.2s.04,0,.05,0l.33-.19s.01-.02,0-.03l-.35-.2s-.04,0-.05,0Zm-2.53-1.46l-.33,.19s-.01,.02,0,.03l.35,.2s.04,0,.05,0l.33-.19s.01-.02,0-.03l-.35-.2s-.04,0-.05,0Zm1.01,.58l-.33,.19s-.01,.02,0,.03l.35,.2s.04,0,.05,0l.33-.19s.01-.02,0-.03l-.35-.2s-.04,0-.05,0Zm.51,.29l-.33,.19s-.01,.02,0,.03l.35,.2s.04,0,.05,0l.33-.19s.01-.02,0-.03l-.35-.2s-.04,0-.05,0Zm.51,.29l-.33,.19s-.01,.02,0,.03l.35,.2s.04,0,.05,0l.33-.19s.01-.02,0-.03l-.35-.2s-.04,0-.05,0Zm-2.21,.2l.33-.19s.01-.02,0-.03l-.35-.2s-.04,0-.05,0l-.33,.19s-.01,.02,0,.03l.35,.2s.04,0,.05,0Zm-4.82-4.26l-.33,.19s-.01,.02,0,.03l.35,.2s.04,0,.05,0l.33-.19s.01-.02,0-.03l-.35-.2s-.04,0-.05,0Zm.61,.35l-.33,.19s-.01,.02,0,.03l.35,.2s.04,0,.05,0l.33-.19s.01-.02,0-.03l-.35-.2s-.04,0-.05,0Zm-1.12-.65l-.33,.19s-.01,.02,0,.03l.35,.2s.04,0,.05,0l.33-.19s.01-.02,0-.03l-.35-.2s-.04,0-.05,0Zm2.9,2.6l.33-.19s.01-.02,0-.03l-.35-.2s-.04,0-.05,0l-.33,.19s-.01,.02,0,.03l.35,.2s.04,0,.05,0Zm-3.73-2.7s-.01,.02,0,.03l.35,.2s.04,0,.05,0l.33-.19s.01-.02,0-.03l-.35-.2s-.04,0-.05,0l-.33,.19Zm5.66,4.36l.33-.19s.01-.02,0-.03l-.35-.2s-.04,0-.05,0l-.33,.19s-.01,.02,0,.03l.35,.2s.04,0,.05,0Zm-6.2-3.58l.33-.19s.01-.02,0-.03l-.35-.2s-.04,0-.05,0l-.33,.19s-.01,.02,0,.03l.35,.2s.04,0,.05,0Zm.98,.02l.33-.19s.01-.02,0-.03l-.35-.2s-.04,0-.05,0l-.33,.19s-.01,.02,0,.03l.35,.2s.04,0,.05,0Zm-.91-.52s-.01,.02,0,.03l.35,.2s.04,0,.05,0l.33-.19s.01-.02,0-.03l-.35-.2s-.04,0-.05,0l-.33,.19Zm.22-.28l-.35-.2s-.04,0-.05,0l-.8,.46s-.01,.02,0,.03l.35,.2s.04,0,.05,0l.8-.46s.01-.02,0-.03Zm1.12,.67l-.33,.19s-.01,.02,0,.03l.35,.2s.04,0,.05,0l.33-.19s.01-.02,0-.03l-.35-.2s-.04,0-.05,0Zm3.81,2.2l-.33,.19s-.01,.02,0,.03l.35,.2s.04,0,.05,0l.33-.19s.01-.02,0-.03l-.35-.2s-.04,0-.05,0Zm-4.39-1.99s.01-.02,0-.03l-.35-.2s-.04,0-.05,0l-.33,.19s-.01,.02,0,.03l.35,.2s.04,0,.05,0l.33-.19Zm3.88,1.69l-.33,.19s-.01,.02,0,.03l.35,.2s.04,0,.05,0l.33-.19s.01-.02,0-.03l-.35-.2s-.04,0-.05,0Zm4.35,3.05s.01-.02,0-.03l-.35-.2s-.04,0-.05,0l-.33,.19s-.01,.02,0,.03l.35,.2s.04,0,.05,0l.33-.19Zm.21-.43l-.33,.19s-.01,.02,0,.03l.35,.2s.04,0,.05,0l.33-.19s.01-.02,0-.03l-.35-.2s-.04,0-.05,0Zm-1.04,.33l.33-.19s.01-.02,0-.03l-.35-.2s-.04,0-.05,0l-.33,.19s-.01,.02,0,.03l.35,.2s.04,0,.05,0Zm-.51-.29l.33-.19s.01-.02,0-.03l-.35-.2s-.04,0-.05,0l-.33,.19s-.01,.02,0,.03l.35,.2s.04,0,.05,0Zm-.51-.29l.33-.19s.01-.02,0-.03l-.35-.2s-.04,0-.05,0l-.33,.19s-.01,.02,0,.03l.35,.2s.04,0,.05,0Zm1.55-.03l-.33,.19s-.01,.02,0,.03l.35,.2s.04,0,.05,0l.33-.19s.01-.02,0-.03l-.35-.2s-.04,0-.05,0Zm-.51-.29l-.33,.19s-.01,.02,0,.03l.35,.2s.04,0,.05,0l.33-.19s.01-.02,0-.03l-.35-.2s-.04,0-.05,0Zm-2.02-1.17l-.33,.19s-.01,.02,0,.03l.35,.2s.04,0,.05,0l.33-.19s.01-.02,0-.03l-.35-.2s-.04,0-.05,0Zm.51,.29l-.33,.19s-.01,.02,0,.03l.35,.2s.04,0,.05,0l.33-.19s.01-.02,0-.03l-.35-.2s-.04,0-.05,0Zm-1.01-.58l-.33,.19s-.01,.02,0,.03l.35,.2s.04,0,.05,0l.33-.19s.01-.02,0-.03l-.35-.2s-.04,0-.05,0Zm2.02,1.17l-.33,.19s-.01,.02,0,.03l.35,.2s.04,0,.05,0l.33-.19s.01-.02,0-.03l-.35-.2s-.04,0-.05,0Zm-.51-.29l-.33,.19s-.01,.02,0,.03l.35,.2s.04,0,.05,0l.33-.19s.01-.02,0-.03l-.35-.2s-.04,0-.05,0Zm.75,1.91l.33-.19s.01-.02,0-.03l-.35-.2s-.04,0-.05,0l-.33,.19s-.01,.02,0,.03l.35,.2s.04,0,.05,0Zm2.62-.1l.35,.2s.04,0,.05,0l.33-.19s.01-.02,0-.03l-.35-.2s-.04,0-.05,0l-.33,.19s-.01,.02,0,.03Zm-.66,.17l.53,.31s.04,0,.05,0l.33-.19s.01-.02,0-.03l-.53-.31s-.04,0-.05,0l-.33,.19s-.01,.02,0,.03Zm1.15-.54l.43,.25s.04,0,.05,0l.33-.19s.01-.02,0-.03l-.43-.25s-.04,0-.05,0l-.33,.19s-.01,.02,0,.03Zm0-.41s.01-.02,0-.03l-.35-.2s-.04,0-.05,0l-.33,.19s-.01,.02,0,.03l.35,.2s.04,0,.05,0l.33-.19Zm-1.76,1.15l.67,.38s.04,0,.05,0l.33-.19s.01-.02,0-.03l-.67-.38s-.04,0-.05,0l-.33,.19s-.01,.02,0,.03Zm-.23,.41l.43,.25s.04,0,.05,0l.33-.19s.01-.02,0-.03l-.43-.25s-.04,0-.05,0l-.33,.19s-.01,.02,0,.03Zm-1.77-3.73s.01-.02,0-.03l-.35-.2s-.04,0-.05,0l-.33,.19s-.01,.02,0,.03l.35,.2s.04,0,.05,0l.33-.19Zm1.01,.58s.01-.02,0-.03l-.35-.2s-.04,0-.05,0l-.33,.19s-.01,.02,0,.03l.35,.2s.04,0,.05,0l.33-.19Zm2.24,1.3s.01-.02,0-.03l-.35-.2s-.04,0-.05,0l-.33,.19s-.01,.02,0,.03l.35,.2s.04,0,.05,0l.33-.19Zm-2.75-1.59s.01-.02,0-.03l-.35-.2s-.04,0-.05,0l-.33,.19s-.01,.02,0,.03l.35,.2s.04,0,.05,0l.33-.19Zm1.01,.58s.01-.02,0-.03l-.35-.2s-.04,0-.05,0l-.33,.19s-.01,.02,0,.03l.35,.2s.04,0,.05,0l.33-.19Zm-.33,3.04s-.01,.02,0,.03l.53,.31s.04,0,.05,0l.33-.19s.01-.02,0-.03l-.53-.31s-.04,0-.05,0l-.33,.19Zm1.06-2.62s.01-.02,0-.03l-.35-.2s-.04,0-.05,0l-.33,.19s-.01,.02,0,.03l.35,.2s.04,0,.05,0l.33-.19Zm.51,.29s.01-.02,0-.03l-.35-.2s-.04,0-.05,0l-.33,.19s-.01,.02,0,.03l.35,.2s.04,0,.05,0l.33-.19Zm-10.94-3.08s-.01,.02,0,.03l.85,.49s.04,0,.05,0l.33-.19s.01-.02,0-.03l-.85-.49s-.04,0-.05,0l-.33,.19Zm1.12,.65s-.01,.02,0,.03l.35,.2s.04,0,.05,0l.33-.19s.01-.02,0-.03l-.35-.2s-.04,0-.05,0l-.33,.19Zm7.21,3.62l.33-.19s.01-.02,0-.03l-.35-.2s-.04,0-.05,0l-.33,.19s-.01,.02,0,.03l.35,.2s.04,0,.05,0Zm-6.2-3.03s-.01,.02,0,.03l.35,.2s.04,0,.05,0l.33-.19s.01-.02,0-.03l-.35-.2s-.04,0-.05,0l-.33,.19Zm-2.64-1.52s-.01,.02,0,.03l.35,.2s.04,0,.05,0l.33-.19s.01-.02,0-.03l-.35-.2s-.04,0-.05,0l-.33,.19Zm-.5-.26l.35,.2s.04,0,.05,0l.8-.46s.01-.02,0-.03l-.35-.2s-.04,0-.05,0l-.8,.46s-.01,.02,0,.03Zm5.03,2.88s-.01,.02,0,.03l.43,.25s.04,0,.05,0l.33-.19s.01-.02,0-.03l-.43-.25s-.04,0-.05,0l-.33,.19Zm-1.28-.74s-.01,.02,0,.03l.53,.31s.04,0,.05,0l.33-.19s.01-.02,0-.03l-.53-.31s-.04,0-.05,0l-.33,.19Zm2.45,1.41s-.01,.02,0,.03l2.85,1.64s.04,0,.05,0l.33-.19s.01-.02,0-.03l-2.85-1.64s-.04,0-.05,0l-.33,.19Zm3.01,1.74s-.01,.02,0,.03l.43,.25s.04,0,.05,0l.33-.19s.01-.02,0-.03l-.43-.25s-.04,0-.05,0l-.33,.19Zm-3.59-2.07s-.01,.02,0,.03l.43,.25s.04,0,.05,0l.33-.19s.01-.02,0-.03l-.43-.25s-.04,0-.05,0l-.33,.19Zm4.18,2.41s-.01,.02,0,.03l.43,.25s.04,0,.05,0l.33-.19s.01-.02,0-.03l-.43-.25s-.04,0-.05,0l-.33,.19Zm-5.35-3.09s-.01,.02,0,.03l.43,.25s.04,0,.05,0l.33-.19s.01-.02,0-.03l-.43-.25s-.04,0-.05,0l-.33,.19Zm-1.81-1.05s-.01,.02,0,.03l.35,.2s.04,0,.05,0l.33-.19s.01-.02,0-.03l-.35-.2s-.04,0-.05,0l-.33,.19Zm-.75-.98l.33-.19s.01-.02,0-.03l-.35-.2s-.04,0-.05,0l-.33,.19s-.01,.02,0,.03l.35,.2s.04,0,.05,0Zm2.06,.1l.33-.19s.01-.02,0-.03l-.35-.2s-.04,0-.05,0l-.33,.19s-.01,.02,0,.03l.35,.2s.04,0,.05,0Zm1.34,1.87l.33-.19s.01-.02,0-.03l-1.01-.58s-.04,0-.05,0l-.33,.19s-.01,.02,0,.03l1.01,.58s.04,0,.05,0Zm-2.57-1.87s.01-.02,0-.03l-.35-.2s-.04,0-.05,0l-.33,.19s-.01,.02,0,.03l.35,.2s.04,0,.05,0l.33-.19Zm.14-.08l.33-.19s.01-.02,0-.03l-.35-.2s-.04,0-.05,0l-.33,.19s-.01,.02,0,.03l.35,.2s.04,0,.05,0Zm2.93,2.24l.33-.19s.01-.02,0-.03l-.35-.2s-.04,0-.05,0l-.33,.19s-.01,.02,0,.03l.35,.2s.04,0,.05,0Zm-1.96-1.51s.01-.02,0-.03l-.35-.2s-.04,0-.05,0l-.33,.19s-.01,.02,0,.03l.35,.2s.04,0,.05,0l.33-.19Zm4.49,2.97l.33-.19s.01-.02,0-.03l-.35-.2s-.04,0-.05,0l-.33,.19s-.01,.02,0,.03l.35,.2s.04,0,.05,0Zm-.51-.29l.33-.19s.01-.02,0-.03l-.35-.2s-.04,0-.05,0l-.33,.19s-.01,.02,0,.03l.35,.2s.04,0,.05,0Zm1.01,.58l.33-.19s.01-.02,0-.03l-.35-.2s-.04,0-.05,0l-.33,.19s-.01,.02,0,.03l.35,.2s.04,0,.05,0Zm-2.02-1.17l.33-.19s.01-.02,0-.03l-.35-.2s-.04,0-.05,0l-.33,.19s-.01,.02,0,.03l.35,.2s.04,0,.05,0Zm.51,.29l.33-.19s.01-.02,0-.03l-.35-.2s-.04,0-.05,0l-.33,.19s-.01,.02,0,.03l.35,.2s.04,0,.05,0Zm-1.01-.58l.33-.19s.01-.02,0-.03l-.35-.2s-.04,0-.05,0l-.33,.19s-.01,.02,0,.03l.35,.2s.04,0,.05,0Zm-2.72-4.11s.01-.02,0-.03l-.35-.2s-.04,0-.05,0l-.09,.05s-.01,.02,0,.03l.35,.2s.04,0,.05,0l.09-.05Zm2.76,1.45s.01-.02,0-.03l-.35-.2s-.04,0-.05,0l-.33,.19s-.01,.02,0,.03l.35,.2s.04,0,.05,0l.33-.19Zm-1.01-.58s.01-.02,0-.03l-.35-.2s-.04,0-.05,0l-.33,.19s-.01,.02,0,.03l.35,.2s.04,0,.05,0l.33-.19Zm1.63,.94s.01-.02,0-.03l-.35-.2s-.04,0-.05,0l-.33,.19s-.01,.02,0,.03l.35,.2s.04,0,.05,0l.33-.19Zm-1.12-.65s.01-.02,0-.03l-.35-.2s-.04,0-.05,0l-.33,.19s-.01,.02,0,.03l.35,.2s.04,0,.05,0l.33-.19Zm2.13,1.23s.01-.02,0-.03l-.35-.2s-.04,0-.05,0l-.33,.19s-.01,.02,0,.03l.35,.2s.04,0,.05,0l.33-.19Zm-.51-.29s.01-.02,0-.03l-.35-.2s-.04,0-.05,0l-.33,.19s-.01,.02,0,.03l.35,.2s.04,0,.05,0l.33-.19Zm-2.87-1.52s.01-.02,0-.03l-.35-.2s-.04,0-.05,0l-.09,.05s-.01,.02,0,.03l.35,.2s.04,0,.05,0l.09-.05Zm-1.52-.88s.01-.02,0-.03l-.35-.2s-.04,0-.05,0l-.09,.05s-.01,.02,0,.03l.35,.2s.04,0,.05,0l.09-.05Zm-.45,.26s.01-.02,0-.03l-.35-.2s-.04,0-.05,0l-.33,.19s-.01,.02,0,.03l.35,.2s.04,0,.05,0l.33-.19Zm-1.24,1.3l.33-.19s.01-.02,0-.03l-.35-.2s-.04,0-.05,0l-.33,.19s-.01,.02,0,.03l.35,.2s.04,0,.05,0Zm2.71-.98s.01-.02,0-.03l-.35-.2s-.04,0-.05,0l-.09,.05s-.01,.02,0,.03l.35,.2s.04,0,.05,0l.09-.05Zm4.39,2.39s.01-.02,0-.03l-.35-.2s-.04,0-.05,0l-.33,.19s-.01,.02,0,.03l.35,.2s.04,0,.05,0l.33-.19Z"/></g><g><polygon class="cls-18" points="48.47 54.5 48.4 54.54 46.52 55.63 43.16 53.7 43.09 53.66 45.05 52.53 48.47 54.5"/><polygon class="cls-19" points="48.4 54.54 46.52 55.63 43.16 53.7 45.05 52.61 48.4 54.54"/><g class="cls-26"><polygon class="cls-18" points="48.4 54.54 46.52 55.63 43.16 53.7 45.05 52.61 48.4 54.54"/></g></g><path class="cls-3" d="M58.14,54.15s-.06,.03-.1,.04c.03-.01,.07-.02,.1-.04,.01,0,.02-.01,.03-.02,0,0-.02,.01-.03,.02Z"/><polygon class="cls-3" points="57.59 54.18 57.59 54.18 57.59 54.18 57.59 54.18"/></g></g></g><g><path class="cls-2" d="M68.49,41.49c-.16,0-.31-.04-.44-.11l-6.68-3.86,9.55-5.51,6.09,3.52c.22,.13,.36,.35,.36,.6s-.13,.47-.36,.6l-8.07,4.66c-.13,.07-.28,.11-.44,.11Z"/><g><g><path class="cls-18" d="M70.65,32.69l6.13,3.23,.13,.2v.16c0,.08-.05,.15-.13,.2l-8.07,4.66c-.06,.03-.13,.05-.21,.05s-.15-.02-.21-.05l-5.99-3.46v-.16l8.36-4.83Z"/><path class="cls-17" d="M68.49,41.03c.08,0,.15-.02,.21-.05l8.07-4.66c.08-.05,.13-.12,.13-.2s-.05-.15-.13-.2l-5.86-3.38-8.63,4.98,5.99,3.46c.06,.03,.13,.05,.21,.05Z"/></g><g><path class="cls-4" d="M70.92,32.07l5.79,3.34,.06,.08v.62h0s-.02,.06-.06,.08l-8.07,4.66c-.08,.05-.21,.05-.29,0l-5.79-3.34v-.62l8.36-4.83Z"/><path class="cls-5" d="M62.55,36.9l.07,.04,.94,.54,.18,.1,4.6,2.66c.08,.05,.21,.05,.29,0l8.08-4.66c.08-.05,.08-.12,0-.17l-.08-.04-5.71-3.3-8.29,4.79h-.02s-.05,.04-.05,.04Z"/><path class="cls-16" d="M68.49,40.28v.62c.05,0,.1-.01,.14-.03l8.08-4.66s.06-.05,.06-.08v-.62s-.02,.06-.06,.08l-8.08,4.66s-.09,.03-.14,.03Z"/></g><path class="cls-11" d="M62.55,36.81l1.04,.6,.16,.09,4.59,2.65c.08,.05,.21,.05,.29,0l7.23-4.17c.07-.04,.13-.07,.18-.1,.29-.18,.47-.34,.59-.51,0,0,0-.01,.01-.02,0-.01,.02-.03,.02-.04,.01-.06-.03-.12-.1-.15-.14-.04-.35-.12-.55-.23,0,0,0,0,0,0l-5.09-2.94-8.36,4.83Z"/><g><g><path class="cls-2" d="M63.63,36.74c.07,.04,.07,.11,0,.16-.07,.04-.19,.04-.27,0-.07-.04-.07-.11,0-.16,.07-.04,.19-.04,.27,0Z"/><path class="cls-18" d="M62.58,36.66s0,.09,0,.13l.09-.05s0-.05,0-.08c0-.16,.05-.28,.14-.33,.03-.02,.06-.03,.1-.03,.05,0,.11,.02,.16,.05,.18,.1,.33,.33,.41,.58,.03,0,.07,0,.1-.01-.08-.27-.25-.54-.45-.65-.13-.08-.26-.08-.36-.03-.12,.07-.19,.22-.19,.42Z"/><path class="cls-18" d="M62.6,36.84s0,.02,0,.02h.02s-.02-.02-.02-.02Z"/></g><g><path class="cls-2" d="M64.44,36.27c.07,.04,.07,.11,0,.16-.07,.04-.19,.04-.27,0-.07-.04-.07-.11,0-.16,.07-.04,.19-.04,.27,0Z"/><path class="cls-18" d="M63.39,36.19s0,.09,0,.13l.09-.05s0-.05,0-.08c0-.16,.05-.28,.14-.33,.03-.02,.06-.03,.1-.03,.05,0,.11,.02,.16,.05,.18,.1,.33,.33,.41,.58,.03,0,.07,0,.1-.01-.08-.27-.25-.54-.45-.65-.13-.08-.26-.08-.36-.03-.12,.07-.19,.22-.19,.42Z"/></g><g><path class="cls-2" d="M65.25,35.81c.07,.04,.07,.11,0,.16-.07,.04-.19,.04-.27,0-.07-.04-.07-.11,0-.16,.07-.04,.19-.04,.27,0Z"/><path class="cls-18" d="M64.2,35.72s0,.09,0,.13l.09-.05s0-.05,0-.08c0-.16,.05-.28,.14-.33,.03-.02,.06-.03,.1-.03,.05,0,.11,.02,.16,.05,.18,.1,.33,.33,.41,.58,.03,0,.07,0,.1-.01-.08-.27-.25-.54-.45-.65-.13-.08-.26-.08-.36-.03-.12,.07-.19,.22-.19,.42Z"/></g><g><path class="cls-2" d="M66.06,35.34c.07,.04,.07,.11,0,.16-.07,.04-.19,.04-.27,0-.07-.04-.07-.11,0-.16,.07-.04,.19-.04,.27,0Z"/><path class="cls-18" d="M65.01,35.26s0,.09,0,.13l.09-.05s0-.05,0-.08c0-.16,.05-.28,.14-.33,.03-.02,.06-.03,.1-.03,.05,0,.11,.02,.16,.05,.18,.1,.33,.33,.41,.58,.03,0,.07,0,.1-.01-.08-.27-.25-.54-.45-.65-.13-.08-.26-.08-.36-.03-.12,.07-.19,.22-.19,.42Z"/></g><g><path class="cls-2" d="M66.87,34.87c.07,.04,.07,.11,0,.16-.07,.04-.19,.04-.27,0-.07-.04-.07-.11,0-.16,.07-.04,.19-.04,.27,0Z"/><path class="cls-18" d="M65.82,34.79s0,.09,0,.13l.09-.05s0-.05,0-.08c0-.16,.05-.28,.14-.33,.03-.02,.06-.03,.1-.03,.05,0,.11,.02,.16,.05,.18,.1,.33,.33,.41,.58,.03,0,.07,0,.1-.01-.08-.27-.25-.54-.45-.65-.13-.08-.26-.08-.36-.03-.12,.07-.19,.22-.19,.42Z"/></g><g><path class="cls-2" d="M67.68,34.41c.07,.04,.07,.11,0,.16-.07,.04-.19,.04-.27,0-.07-.04-.07-.11,0-.16,.07-.04,.19-.04,.27,0Z"/><path class="cls-18" d="M66.63,34.32s0,.09,0,.13l.09-.05s0-.05,0-.08c0-.16,.05-.28,.14-.33,.03-.02,.06-.03,.1-.03,.05,0,.11,.02,.16,.05,.18,.1,.33,.33,.41,.58,.03,0,.07,0,.1-.01-.08-.27-.25-.54-.45-.65-.13-.08-.26-.08-.36-.03-.12,.07-.19,.22-.19,.42Z"/></g><g><path class="cls-2" d="M68.49,33.94c.07,.04,.07,.11,0,.16-.07,.04-.19,.04-.27,0-.07-.04-.07-.11,0-.16,.07-.04,.19-.04,.27,0Z"/><path class="cls-18" d="M67.44,33.85s0,.09,0,.13l.09-.05s0-.05,0-.08c0-.16,.05-.28,.14-.33,.03-.02,.06-.03,.1-.03,.05,0,.11,.02,.16,.05,.18,.1,.33,.33,.41,.58,.03,0,.07,0,.1-.01-.08-.27-.25-.54-.45-.65-.13-.08-.26-.08-.36-.03-.12,.07-.19,.22-.19,.42Z"/></g><g><path class="cls-2" d="M69.3,33.47c.07,.04,.07,.11,0,.16-.07,.04-.19,.04-.27,0-.07-.04-.07-.11,0-.16,.07-.04,.19-.04,.27,0Z"/><path class="cls-18" d="M68.25,33.39s0,.09,0,.13l.09-.05s0-.05,0-.08c0-.16,.05-.28,.14-.33,.03-.02,.06-.03,.1-.03,.05,0,.11,.02,.16,.05,.18,.1,.33,.33,.41,.58,.03,0,.07,0,.1-.01-.08-.27-.25-.54-.45-.65-.13-.08-.26-.08-.36-.03-.12,.07-.19,.22-.19,.42Z"/></g><g><path class="cls-2" d="M70.11,33c.07,.04,.07,.11,0,.16-.07,.04-.19,.04-.27,0-.07-.04-.07-.11,0-.16,.07-.04,.19-.04,.27,0Z"/><path class="cls-18" d="M69.06,32.92s0,.09,0,.13l.09-.05s0-.05,0-.08c0-.16,.05-.28,.14-.33,.03-.02,.06-.03,.1-.03,.05,0,.11,.02,.16,.05,.18,.1,.33,.33,.41,.58,.03,0,.07,0,.1-.01-.08-.27-.25-.54-.45-.65-.13-.08-.26-.08-.36-.03-.12,.07-.19,.22-.19,.42Z"/></g><g><path class="cls-2" d="M70.92,32.54c.07,.04,.07,.11,0,.16-.07,.04-.19,.04-.27,0-.07-.04-.07-.11,0-.16,.07-.04,.19-.04,.27,0Z"/><path class="cls-18" d="M69.87,32.45s0,.09,0,.13l.09-.05s0-.05,0-.08c0-.16,.05-.28,.14-.33,.03-.02,.06-.03,.1-.03,.05,0,.11,.02,.16,.05,.18,.1,.33,.33,.41,.58,.03,0,.07,0,.1-.01-.08-.27-.25-.54-.45-.65-.13-.08-.26-.08-.36-.03-.12,.07-.19,.22-.19,.42Z"/></g></g><g><path class="cls-4" d="M69.3,39.31s-.03,0-.04,0l-4.46-2.57s-.05-.07-.03-.1c.02-.04,.07-.05,.1-.03l4.46,2.57s.05,.07,.03,.1c-.01,.02-.04,.04-.06,.04Z"/><path class="cls-4" d="M69.84,39s-.03,0-.04,0l-4.46-2.57s-.05-.07-.03-.1c.02-.04,.07-.05,.1-.03l4.46,2.57s.05,.07,.03,.1c-.01,.02-.04,.04-.06,.04Z"/><path class="cls-4" d="M70.38,38.68s-.03,0-.04,0l-4.46-2.57s-.05-.07-.03-.1c.02-.04,.07-.05,.1-.03l4.46,2.57s.05,.07,.03,.1c-.01,.02-.04,.04-.06,.04Z"/><path class="cls-4" d="M70.92,38.37s-.03,0-.04,0l-4.46-2.57s-.05-.07-.03-.1c.02-.04,.07-.05,.1-.03l4.46,2.57s.05,.07,.03,.1c-.01,.02-.04,.04-.06,.04Z"/><path class="cls-4" d="M71.46,38.06s-.03,0-.04,0l-4.46-2.57s-.05-.07-.03-.1c.02-.04,.07-.05,.1-.03l4.46,2.57s.05,.07,.03,.1c-.01,.02-.04,.04-.06,.04Z"/><path class="cls-4" d="M72,37.75s-.03,0-.04,0l-4.46-2.57s-.05-.07-.03-.1c.02-.04,.07-.05,.1-.03l4.46,2.57s.05,.07,.03,.1c-.01,.02-.04,.04-.06,.04Z"/><path class="cls-4" d="M72.54,37.44s-.03,0-.04,0l-4.46-2.57s-.05-.07-.03-.1c.02-.04,.07-.05,.1-.03l4.46,2.57s.05,.07,.03,.1c-.01,.02-.04,.04-.06,.04Z"/><path class="cls-4" d="M73.08,37.13s-.03,0-.04,0l-4.46-2.57s-.05-.07-.03-.1c.02-.04,.07-.05,.1-.03l4.46,2.57s.05,.07,.03,.1c-.01,.02-.04,.04-.06,.04Z"/><path class="cls-4" d="M73.61,36.82s-.03,0-.04,0l-4.46-2.57s-.05-.07-.03-.1c.02-.04,.07-.05,.1-.03l4.46,2.57s.05,.07,.03,.1c-.01,.02-.04,.04-.06,.04Z"/><path class="cls-4" d="M74.15,36.5s-.03,0-.04,0l-4.46-2.57s-.05-.07-.03-.1c.02-.04,.07-.05,.1-.03l4.46,2.57s.05,.07,.03,.1c-.01,.02-.04,.04-.06,.04Z"/><path class="cls-4" d="M74.69,36.19s-.03,0-.04,0l-4.46-2.57s-.05-.07-.03-.1c.02-.04,.07-.05,.1-.03l4.46,2.57s.05,.07,.03,.1c-.01,.02-.04,.04-.06,.04Z"/><path class="cls-4" d="M75.23,35.88s-.03,0-.04,0l-4.46-2.57s-.05-.07-.03-.1c.02-.04,.07-.05,.1-.03l4.46,2.57s.05,.07,.03,.1c-.01,.02-.04,.04-.06,.04Z"/><path class="cls-4" d="M75.77,35.57s-.03,0-.04,0l-4.46-2.57s-.05-.07-.03-.1c.02-.04,.07-.05,.1-.03l4.46,2.57s.05,.07,.03,.1c-.01,.02-.04,.04-.06,.04Z"/></g><path class="cls-3" d="M68.75,39.62s-.03,0-.04,0l-4.71-2.73s-.05-.07-.03-.1c.02-.04,.07-.05,.1-.03l4.71,2.73s.05,.07,.03,.1c-.01,.02-.04,.04-.06,.04Z"/><g class="cls-24"><g><path class="cls-17" d="M66.5,36.34c.07-.04,.17-.13,.23-.23,.04-.02,.07-.03,.1-.02,.13,.02,.02,.07,0,.12,0,.02,0,.03,.03,.03,.09-.01,.31-.07,.25,.08,0,0,0,.02,.01,.03,.03,0,.15,.03,.14,.06,0,.01,0,.03,.02,.03,.1,0,.19,0,.29,0,.02,0,.12,0,.13,.02,.03,.03-.02,.11-.03,.13,0,.01,0,.03,0,.03,.05,.02,.09,.05,.05,.1,0,.01,0,.03,0,.03,.12,.03,.34-.07,.38,.08,.02,.09,0,.11,.12,.1,.02,0,.04-.04,0-.04-.12,0-.03-.14-.1-.18-.08-.05-.23,.04-.3,0-.05-.03,.01-.05-.03-.1-.01-.01-.04-.01-.05-.02-.01-.02-.02-.02-.02-.02,0,0,0-.01,0-.03,0-.02,.01-.02,.02-.04,.03-.14-.19-.1-.28-.11-.03,0-.15,0-.16,0,0,0,0-.03,0-.04-.02-.01-.13-.05-.13-.05,0-.01,.03-.05,.01-.08-.04-.07-.19-.03-.25-.03-.03,0-.04,0-.04,0,0,0,.04-.01,.04-.04,0-.02,.01-.03,0-.05-.01-.04-.05-.04-.08-.05-.04,0-.08,0-.12,.02,.02-.04,.03-.09,.02-.12-.03-.14-.18-.04-.26,0-.02,0-.02,.05,0,.04,.05-.01,.13-.06,.17-.05,.07,.01,.02,.12-.02,.19-.03,.02-.06,.03-.09,.04-.06,.03-.14,.05-.18,.12-.07,.1,.02,.13,.11,.09Zm.05-.14s.04-.02,.07-.04c-.03,.04-.06,.1-.11,.12-.01,0-.1,.03-.07,0,.03-.04,.07-.06,.12-.08Z"/><path class="cls-17" d="M68.42,37.41s0,.02,.01,.02c.11,.03,.2-.09,.24-.21,.04-.01,.12-.02,.14,.04,0,0-.02,.05-.02,.06,0,.01,0,.02,.02,.02,.06,.01,.24-.07,.21,.03,0,0,0,.02,0,.02,.05,.03,.15-.02,.17,.05,0,.03-.06,.07-.03,.11,.03,.04,.08,.01,.12,0,.02,0,.04-.03,.07-.02,.03,.01,0,.02,.01,.03,0,0,.01,.03,.03,.03,.02,0,.04,0,.05,0,.01,0,.02-.02,.04-.02,.02,0,.06,.01,.07,.02,.01,0,.1,.05,.09,.03,.02,.03-.05,.08-.02,.12,.04,.06,.19,0,.23,0,.02,0,.04-.05,.01-.04,0,0-.11,.01-.11,.01-.09-.04-.07-.07-.05-.11,0-.01,0-.03-.02-.03-.06,0-.11-.06-.15-.06-.02,0-.07,.03-.08,.03-.07,0-.04-.02-.04-.07,0-.01-.01-.02-.03-.02-.04,.02-.15,.1-.15,0,0-.01,.05-.04,.05-.06,0-.05-.02-.06-.06-.07-.03,0-.06,0-.09,.01-.12,.02-.02,0-.06-.03-.04-.03-.04-.04-.11-.03-.02,0-.06,.01-.07,0-.06-.02-.02,0-.02-.04,0-.03,.02-.05,.01-.08-.02-.05-.05-.05-.1-.04-.03,0-.06,.02-.1,.03,.01-.08-.01-.15-.1-.15-.02,0-.04,.04-.01,.04,.06,0,.06,.08,.04,.14-.1,.06-.19,.14-.2,.22Zm.1-.08s.04-.05,.07-.07c0,.01-.01,.02-.01,.03,0,.02-.08,.11-.06,.04Z"/></g><g><path class="cls-17" d="M67.11,37.93c.07-.04,.17-.13,.23-.23,.04-.02,.07-.03,.1-.02,.13,.02,.02,.07,0,.12,0,.02,0,.03,.03,.03,.09-.01,.31-.07,.25,.08,0,0,0,.02,.01,.03,.03,0,.15,.03,.14,.06,0,.01,0,.03,.02,.03,.1,0,.19,0,.29,0,.02,0,.12,0,.13,.02,.03,.03-.02,.11-.03,.13,0,.01,0,.03,0,.03,.05,.02,.09,.05,.05,.1,0,.01,0,.03,0,.03,.12,.03,.34-.07,.38,.08,.02,.09,0,.11,.12,.1,.02,0,.04-.04,0-.04-.12,0-.03-.14-.1-.18-.08-.05-.23,.04-.3,0-.05-.03,.01-.05-.03-.1-.01-.01-.04-.01-.05-.02-.01-.02-.02-.02-.02-.02,0,0,0-.01,0-.03,0-.02,.01-.02,.02-.04,.03-.14-.19-.1-.28-.11-.03,0-.15,0-.16,0,0,0,0-.03,0-.04-.02-.01-.13-.05-.13-.05,0-.01,.03-.05,.01-.08-.04-.07-.19-.03-.25-.03-.03,0-.04,0-.04,0,0,0,.04-.01,.04-.04,0-.02,.01-.03,0-.05-.01-.04-.05-.04-.08-.05-.04,0-.08,0-.12,.02,.02-.04,.03-.09,.02-.12-.03-.14-.18-.04-.26,0-.02,0-.02,.05,0,.04,.05-.01,.13-.06,.17-.05,.07,.01,.02,.12-.02,.19-.03,.02-.06,.03-.09,.04-.06,.03-.14,.05-.18,.12-.07,.1,.02,.13,.11,.09Zm.05-.14s.04-.02,.07-.04c-.03,.04-.06,.1-.11,.12-.01,0-.1,.03-.07,0,.03-.04,.07-.06,.12-.08Z"/><path class="cls-17" d="M65.43,36.94s0,.02,.01,.02c.11,.03,.2-.09,.24-.21,.04-.01,.12-.02,.14,.04,0,0-.02,.05-.02,.06,0,.01,0,.02,.02,.02,.06,.01,.24-.07,.21,.03,0,0,0,.02,0,.02,.05,.03,.15-.02,.17,.05,0,.03-.06,.07-.03,.11,.03,.04,.08,.01,.12,0,.02,0,.04-.03,.07-.02,.03,.01,0,.02,.01,.03,0,0,.01,.03,.03,.03,.02,0,.04,0,.05,0,.01,0,.02-.02,.04-.02,.02,0,.06,.01,.07,.02,.01,0,.1,.05,.09,.03,.02,.03-.05,.08-.02,.12,.04,.06,.19,0,.23,0,.02,0,.04-.05,.01-.04,0,0-.11,.01-.11,.01-.09-.04-.07-.07-.05-.11,0-.01,0-.03-.02-.03-.06,0-.11-.06-.15-.06-.02,0-.07,.03-.08,.03-.07,0-.04-.02-.04-.07,0-.01-.01-.02-.03-.02-.04,.02-.15,.1-.15,0,0-.01,.05-.04,.05-.06,0-.05-.02-.06-.06-.07-.03,0-.06,0-.09,.01-.12,.02-.02,0-.06-.03-.04-.03-.04-.04-.11-.03-.02,0-.06,.01-.07,0-.06-.02-.02,0-.02-.04,0-.03,.02-.05,.01-.08-.02-.05-.05-.05-.1-.04-.03,0-.06,.02-.1,.03,.01-.08-.01-.15-.1-.15-.02,0-.04,.04-.01,.04,.06,0,.06,.08,.04,.14-.1,.06-.19,.14-.2,.22Zm.1-.08s.04-.05,.07-.07c0,.01-.01,.02-.01,.03-.01,.02-.08,.11-.06,.04Z"/></g><g><path class="cls-17" d="M69.79,34.52c.07-.04,.17-.13,.23-.23,.04-.02,.07-.03,.1-.02,.13,.02,.02,.07,0,.12,0,.02,0,.03,.03,.03,.09-.01,.31-.07,.25,.08,0,0,0,.02,.01,.03,.03,0,.15,.03,.14,.06,0,.01,0,.03,.02,.03,.1,0,.19,0,.29,0,.02,0,.12,0,.13,.02,.03,.03-.02,.11-.03,.13,0,.01,0,.03,0,.03,.05,.02,.09,.05,.05,.1,0,.01,0,.03,0,.03,.12,.03,.34-.07,.38,.08,.02,.09,0,.11,.12,.1,.02,0,.04-.04,0-.04-.12,0-.03-.14-.1-.18-.08-.05-.23,.04-.3,0-.05-.03,.01-.05-.03-.1-.01-.01-.04-.01-.05-.02-.01-.02-.02-.02-.02-.02,0,0,0-.01,0-.03,0-.02,.01-.02,.02-.04,.03-.14-.19-.1-.28-.11-.03,0-.15,0-.16,0,0,0,0-.03,0-.04-.02-.01-.13-.05-.13-.05,0-.01,.03-.05,.01-.08-.04-.07-.19-.03-.25-.03-.03,0-.04,0-.04,0,0,0,.04-.01,.04-.04,0-.02,.01-.03,0-.05-.01-.04-.05-.04-.08-.05-.04,0-.08,0-.12,.02,.02-.04,.03-.09,.02-.12-.03-.14-.18-.04-.26,0-.02,0-.02,.05,0,.04,.05-.01,.13-.06,.17-.05,.07,.01,.02,.12-.02,.19-.03,.02-.06,.03-.09,.04-.06,.03-.14,.05-.18,.12-.07,.1,.02,.13,.11,.09Zm.05-.14s.04-.02,.07-.04c-.03,.04-.06,.1-.11,.12-.01,0-.1,.03-.07,0,.03-.04,.07-.06,.12-.08Z"/><path class="cls-17" d="M71.71,35.59s0,.02,.01,.02c.11,.03,.2-.09,.24-.21,.04-.01,.12-.02,.14,.04,0,0-.02,.05-.02,.06,0,.01,0,.02,.02,.02,.06,.01,.24-.07,.21,.03,0,0,0,.02,0,.02,.05,.03,.15-.02,.17,.05,0,.03-.06,.07-.03,.11,.03,.04,.08,.01,.12,0,.02,0,.04-.03,.07-.02,.03,.01,0,.02,.01,.03,0,0,.01,.03,.03,.03,.02,0,.04,0,.05,0,.01,0,.02-.02,.04-.02,.02,0,.06,.01,.07,.02,.01,0,.1,.05,.09,.03,.02,.03-.05,.08-.02,.12,.04,.06,.19,0,.23,0,.02,0,.04-.05,.01-.04,0,0-.11,.01-.11,.01-.09-.04-.07-.07-.05-.11,0-.01,0-.03-.02-.03-.06,0-.11-.06-.15-.06-.02,0-.07,.03-.08,.03-.07,0-.04-.02-.04-.07,0-.01-.01-.02-.03-.02-.04,.02-.15,.1-.15,0,0-.01,.05-.04,.05-.06,0-.05-.02-.06-.06-.07-.03,0-.06,0-.09,.01-.12,.02-.02,0-.06-.03-.04-.03-.04-.04-.11-.03-.02,0-.06,.01-.07,0-.06-.02-.02,0-.02-.04,0-.03,.02-.05,.01-.08-.02-.05-.05-.05-.1-.04-.03,0-.06,.02-.1,.03,.01-.08-.01-.15-.1-.15-.02,0-.04,.04-.01,.04,.06,0,.06,.08,.04,.14-.1,.06-.19,.14-.2,.22Zm.1-.08s.04-.05,.07-.07c0,.01-.01,.02-.01,.03-.01,.02-.08,.11-.06,.04Z"/></g><g><path class="cls-17" d="M70.4,36.11c.07-.04,.17-.13,.23-.23,.04-.02,.07-.03,.1-.02,.13,.02,.02,.07,0,.12,0,.02,0,.03,.03,.03,.09-.01,.31-.07,.25,.08,0,0,0,.02,.01,.03,.03,0,.15,.03,.14,.06,0,.01,0,.03,.02,.03,.1,0,.19,0,.29,0,.02,0,.12,0,.13,.02,.03,.03-.02,.11-.03,.13,0,.01,0,.03,0,.03,.05,.02,.09,.05,.05,.1,0,.01,0,.03,0,.03,.12,.03,.34-.07,.38,.08,.02,.09,0,.11,.12,.1,.02,0,.04-.04,0-.04-.12,0-.03-.14-.1-.18-.08-.05-.23,.04-.3,0-.05-.03,.01-.05-.03-.1-.01-.01-.04-.01-.05-.02-.01-.02-.02-.02-.02-.02,0,0,0-.01,0-.03,0-.02,.01-.02,.02-.04,.03-.14-.19-.1-.28-.11-.03,0-.15,0-.16,0,0,0,0-.03,0-.04-.02-.01-.13-.05-.13-.05,0-.01,.03-.05,.01-.08-.04-.07-.19-.03-.25-.03-.03,0-.04,0-.04,0,0,0,.04-.01,.04-.04,0-.02,.01-.03,0-.05-.01-.04-.05-.04-.08-.05-.04,0-.08,0-.12,.02,.02-.04,.03-.09,.02-.12-.03-.14-.18-.04-.26,0-.02,0-.02,.05,0,.04,.05-.01,.13-.06,.17-.05,.07,.01,.02,.12-.02,.19-.03,.02-.06,.03-.09,.04-.06,.03-.14,.05-.18,.12-.07,.1,.02,.13,.11,.09Zm.05-.14s.04-.02,.07-.04c-.03,.04-.06,.1-.11,.12-.01,0-.1,.03-.07,0,.03-.04,.07-.06,.12-.08Z"/><path class="cls-17" d="M68.73,35.12s0,.02,.01,.02c.11,.03,.2-.09,.24-.21,.04-.01,.12-.02,.14,.04,0,0-.02,.05-.02,.06,0,.01,0,.02,.02,.02,.06,.01,.24-.07,.21,.03,0,0,0,.02,0,.02,.05,.03,.15-.02,.17,.05,0,.03-.06,.07-.03,.11,.03,.04,.08,.01,.12,0,.02,0,.04-.03,.07-.02,.03,.01,0,.02,.01,.03,0,0,.01,.03,.03,.03,.02,0,.04,0,.05,0,.01,0,.02-.02,.04-.02,.02,0,.06,.01,.07,.02,.01,0,.1,.05,.09,.03,.02,.03-.05,.08-.02,.12,.04,.06,.19,0,.23,0,.02,0,.04-.05,.01-.04,0,0-.11,.01-.11,.01-.09-.04-.07-.07-.05-.11,0-.01,0-.03-.02-.03-.06,0-.11-.06-.15-.06-.02,0-.07,.03-.08,.03-.07,0-.04-.02-.04-.07,0-.01-.01-.02-.03-.02-.04,.02-.15,.1-.15,0,0-.01,.05-.04,.05-.06,0-.05-.02-.06-.06-.07-.03,0-.06,0-.09,.01-.12,.02-.02,0-.06-.03-.04-.03-.04-.04-.11-.03-.02,0-.06,.01-.07,0-.06-.02-.02,0-.02-.04,0-.03,.02-.05,.01-.08-.02-.05-.05-.05-.1-.04-.03,0-.06,.02-.1,.03,.01-.08-.01-.15-.1-.15-.02,0-.04,.04-.01,.04,.06,0,.06,.08,.04,.14-.1,.06-.19,.14-.2,.22Zm.1-.08s.04-.05,.07-.07c0,.01-.01,.02-.01,.03,0,.02-.08,.11-.06,.04Z"/></g><g><path class="cls-17" d="M70.06,37.21c.07-.04,.17-.13,.23-.23,.04-.02,.07-.03,.1-.02,.13,.02,.02,.07,0,.12,0,.02,0,.03,.03,.03,.09-.01,.31-.07,.25,.08,0,0,0,.02,.01,.03,.03,0,.15,.03,.14,.06,0,.01,0,.03,.02,.03,.1,0,.19,0,.29,0,.02,0,.12,0,.13,.02,.03,.03-.02,.11-.03,.13,0,.01,0,.03,0,.03,.05,.02,.09,.05,.05,.1,0,.01,0,.03,0,.03,.12,.03,.34-.07,.38,.08,.02,.09,0,.11,.12,.1,.02,0,.04-.04,0-.04-.12,0-.03-.14-.1-.18-.08-.05-.23,.04-.3,0-.05-.03,.01-.05-.03-.1-.01-.01-.04-.01-.05-.02-.01-.02-.02-.02-.02-.02,0,0,0-.01,0-.03,0-.02,.01-.02,.02-.04,.03-.14-.19-.1-.28-.11-.03,0-.15,0-.16,0,0,0,0-.03,0-.04-.02-.01-.13-.05-.13-.05,0-.01,.03-.05,.01-.08-.04-.07-.19-.03-.25-.03-.03,0-.04,0-.04,0,0,0,.04-.01,.04-.04,0-.02,.01-.03,0-.05-.01-.04-.05-.04-.08-.05-.04,0-.08,0-.12,.02,.02-.04,.03-.09,.02-.12-.03-.14-.18-.04-.26,0-.02,0-.02,.05,0,.04,.05-.01,.13-.06,.17-.05,.07,.01,.02,.12-.02,.19-.03,.02-.06,.03-.09,.04-.06,.03-.14,.05-.18,.12-.07,.1,.02,.13,.11,.09Zm.05-.14s.04-.02,.07-.04c-.03,.04-.06,.1-.11,.12-.01,0-.1,.03-.07,0,.03-.04,.07-.06,.12-.08Z"/><path class="cls-17" d="M68.67,36.32s0,.02,.01,.02c.11,.03,.2-.09,.24-.21,.04-.01,.12-.02,.14,.04,0,0-.02,.05-.02,.06,0,.01,0,.02,.02,.02,.06,.01,.24-.07,.21,.03,0,0,0,.02,0,.02,.05,.03,.15-.02,.17,.05,0,.03-.06,.07-.03,.11,.03,.04,.08,.01,.12,0,.02,0,.04-.03,.07-.02,.03,.01,0,.02,.01,.03,0,0,.01,.03,.03,.03,.02,0,.04,0,.05,0,.01,0,.02-.02,.04-.02,.02,0,.06,.01,.07,.02,.01,0,.1,.05,.09,.03,.02,.03-.05,.08-.02,.12,.04,.06,.19,0,.23,0,.02,0,.04-.05,.01-.04,0,0-.11,.01-.11,.01-.09-.04-.07-.07-.05-.11,0-.01,0-.03-.02-.03-.06,0-.11-.06-.15-.06-.02,0-.07,.03-.08,.03-.07,0-.04-.02-.04-.07,0-.01-.01-.02-.03-.02-.04,.02-.15,.1-.15,0,0-.01,.05-.04,.05-.06,0-.05-.02-.06-.06-.07-.03,0-.06,0-.09,.01-.12,.02-.02,0-.06-.03-.04-.03-.04-.04-.11-.03-.02,0-.06,.01-.07,0-.06-.02-.02,0-.02-.04,0-.03,.02-.05,.01-.08-.02-.05-.05-.05-.1-.04-.03,0-.06,.02-.1,.03,.01-.08-.01-.15-.1-.15-.02,0-.04,.04-.01,.04,.06,0,.06,.08,.04,.14-.1,.06-.19,.14-.2,.22Zm.1-.08s.04-.05,.07-.07c0,.01-.01,.02-.01,.03,0,.02-.08,.11-.06,.04Z"/><path class="cls-17" d="M67.64,35.29c.01,.05,0,.08,0,.13,0,.01,0,.02,.02,.02,.06,.01,.24-.07,.21,.03,0,0,0,.02,0,.02,.05,.03,.15-.02,.17,.05,0,.03-.06,.07-.03,.11,.03,.04,.08,.01,.12,0,.02,0,.04-.03,.07-.02,.03,.01,0,.02,.01,.03,0,0,.01,.03,.03,.03,.02,0,.04,0,.05,0,.01,0,.02-.02,.04-.02,.02,0,.06,.01,.07,.02,.01,0,.1,.05,.09,.03,.02,.03-.05,.08-.02,.12,.04,.06,.19,0,.23,0,.02,0,.04-.05,.01-.04,0,0-.11,.01-.11,.01-.09-.04-.07-.07-.05-.11,0-.01,0-.03-.02-.03-.06,0-.11-.06-.15-.06-.02,0-.07,.03-.08,.03-.07,0-.04-.02-.04-.07,0-.01-.01-.02-.03-.02-.04,.02-.15,.1-.15,0,0-.01,.05-.04,.05-.06,0-.05-.02-.06-.06-.07-.03,0-.06,0-.09,.01-.12,.02-.02,0-.06-.03-.04-.03-.04-.04-.11-.03-.02,0-.06,.01-.07,0-.06-.02-.02,0-.02-.04,0-.03,.02-.05,.01-.08-.01-.04-.09-.09-.1-.02,0,0,0,.02,0,.02,0,0,0,.02,0,.03Z"/></g></g></g></g><g id="Papers"><path id="Shadow-4" class="cls-1" d="M61.71,66.76c-.13,0-.26-.03-.36-.09l-5.97-3.44c-.12-.07-.18-.17-.18-.27s.07-.21,.18-.27l1.06-.61-.51-.29c-.12-.07-.18-.17-.18-.27s.07-.21,.18-.27l8.78-5.07c.1-.06,.22-.09,.36-.09s.26,.03,.36,.09l5.97,3.44c.12,.07,.18,.17,.18,.27s-.07,.21-.18,.27l-1.06,.61,.51,.29c.12,.07,.18,.17,.18,.27,0,.11-.07,.21-.18,.27l-8.78,5.07c-.1,.06-.22,.09-.36,.09Z"/><g><path class="cls-4" d="M70.91,60.87c0-.06-.04-.13-.12-.17l-5.96-3.44c-.17-.1-.43-.1-.6,0l-8.78,5.07c-.08,.05-.12,.11-.12,.17v.27c0,.06,.04,.12,.12,.17l5.97,3.44c.17,.1,.43,.1,.6,0l8.78-5.07c.08-.05,.12-.11,.12-.17v-.27Z"/><path class="cls-8" d="M55.44,62.32l8.78-5.07c.17-.1,.43-.1,.6,0l5.96,3.44c.17,.1,.17,.25,0,.35l-8.78,5.07c-.17,.1-.43,.1-.6,0l-5.97-3.44c-.17-.1-.17-.25,0-.35Z"/><path class="cls-16" d="M61.71,66.18v.27c-.11,0-.22-.02-.3-.07l-5.96-3.44c-.08-.05-.12-.11-.12-.17v-.27c0,.06,.04,.12,.12,.17l5.96,3.44c.08,.05,.19,.07,.3,.07Z"/></g><g><path class="cls-4" d="M71.47,59.41c0-.06-.04-.13-.12-.17l-5.96-3.44c-.17-.1-.43-.1-.6,0l-8.78,5.07c-.08,.05-.12,.11-.12,.17v.27c0,.06,.04,.12,.12,.17l5.97,3.44c.17,.1,.43,.1,.6,0l8.78-5.07c.08-.05,.12-.11,.12-.17v-.27Z"/><path class="cls-8" d="M56,60.86l8.78-5.07c.17-.1,.43-.1,.6,0l5.96,3.44c.17,.1,.17,.25,0,.35l-8.78,5.07c-.17,.1-.43,.1-.6,0l-5.97-3.44c-.17-.1-.17-.25,0-.35Z"/><path class="cls-16" d="M62.26,64.72v.27c-.11,0-.22-.02-.3-.07l-5.96-3.44c-.08-.05-.12-.11-.12-.17v-.27c0,.06,.04,.12,.12,.17l5.96,3.44c.08,.05,.19,.07,.3,.07Z"/></g></g><g id="Folder"><g class="cls-2"><path d="M82.19,55.3c-.13,0-.25-.03-.34-.09l-9.6-5.54c-.13-.08-.21-.2-.21-.33,0-.13,.07-.26,.2-.34l7.93-5.04c.1-.07,.24-.1,.37-.1,.13,0,.25,.03,.34,.09l2.86,1.65c.24,.14,.33,.44,.2,.69l-.12,.23s0,.1,.04,.12l5.75,3.35c.13,.08,.21,.2,.21,.33,0,.13-.07,.26-.2,.34l-7.06,4.55c-.1,.07-.24,.1-.38,.1Z"/></g><path class="cls-3" d="M82.33,54.73l7.19-4.16c.14-.08,.14-.21,0-.29l-9.86-5.61c-.14-.08-.37-.08-.51,0l-7.12,4.11c-.14,.08-.14,.21,0,.3l9.8,5.66c.14,.08,.37,.08,.51,0Z"/><g class="cls-22"><path class="cls-17" d="M82.33,54.73l7.19-4.16c.14-.08,.14-.21,0-.29l-9.86-5.61c-.14-.08-.37-.08-.51,0l-7.12,4.11c-.14,.08-.14,.21,0,.3l9.8,5.66c.14,.08,.37,.08,.51,0Z"/></g><path class="cls-3" d="M72.01,48.77l8.09-5.14c.14-.09,.36-.09,.51-.01l2.91,1.68c.14,.08,.2,.27,.12,.41l-.12,.23c-.07,.15-.02,.33,.12,.41l5.87,3.42c.14,.08,.14,.22,0,.31l-7.21,4.64c-.14,.09-.36,.09-.51,.01l-9.8-5.66c-.14-.08-.14-.22,0-.31Z"/></g><g id="Black_pencil"><polyline id="Shadow-5" class="cls-2" points="74.6 43.09 65.5 48.33 66.59 48.96 75.63 43.68"/><g id="Pencil"><g><path class="cls-13" d="M75.48,43.35l1.08-1.29s0-.09-.05-.08l-1.65,.36,.62,1Z"/><polygon class="cls-12" points="76.52 41.98 76.51 41.98 74.86 42.34 75.19 42.87 75.37 42.77 76.52 42.04 76.52 41.98"/><path class="cls-18" d="M76.51,41.98s.08,.05,.05,.08l-.21,.25h0c0-.11-.07-.2-.17-.24h-.03s.35-.09,.35-.09Z"/><path class="cls-19" d="M67.4,46.85l.13-.08,.16-.1,7.18-4.33c.19,.03,.34,.15,.46,.31,.17,.23,.24,.53,.16,.7l-7.17,4.33-.31,.19c.19-.13-.41-1.14-.61-1.01Z"/><path class="cls-17" d="M67.4,46.85l.13-.08,.16-.1,7.17-4.33c.24,.06,.41,.2,.53,.41l-7.49,4.57s0,.03,0,.03c-.15-.29-.39-.57-.5-.5Z"/><path class="cls-4" d="M67.9,46.54l.3-.18c.08-.05,.25,.1,.4,.3,.2,.27,.32,.64,.21,.72l-.22,.13-.08,.05c.11-.07-.01-.45-.21-.72-.14-.19-.3-.34-.39-.3h0s0,0,0,0Z"/><path class="cls-19" d="M67.98,46.5c.2-.13,.8,.88,.6,1.01l-.3,.18c.2-.13-.41-1.14-.6-1.01l.3-.18Z"/><path class="cls-4" d="M67.4,46.85l.29-.18c.19-.13,.78,.85,.62,1,0,0,0,0-.01,0l-.3,.18c.19-.13-.41-1.14-.61-1.01Z"/><path class="cls-12" d="M76.57,42s-.02-.02-.04-.02c.02,0,.03,0,.04,.02Z"/><path class="cls-13" d="M66.15,47.6l1.25-.75c.08-.06,.25,.09,.4,.29,.2,.27,.32,.64,.21,.72t0,0l-1.25,.76c-.25,.15-.62-.32-.69-.68-.03-.14,0-.26,.09-.33Z"/></g><path class="cls-2" d="M66.53,47.73c.21,.2,.35,.54,.3,.75-.02,.08-.06,.13-.11,.15-.25,.08-.58-.36-.65-.7-.03-.13,0-.25,.09-.33,.09-.06,.24-.02,.38,.12Z"/></g></g></g><g id="Character_2"><g><g><path class="cls-15" d="M86.6,82.45s.25-2.55,.25-2.55c0,0-.18,.26-1.63,.13-.74-.07-1.62-.37-1.62-.37l-.1,1.82c-.25,.74-1.53,.64-2.9,.71-.23,.01-.47,.01-.71,.01h-.01c-.73,.09-1.38,.64-.53,1.13s2.14,.51,3.32,.52c1.42,.01,3.91,0,3.92-1.41Z"/><g><path class="cls-18" d="M76.93,83.88s-.1,.3,.03,.75c.07,.26,.89,1.06,2.15,1.41s2.71,.14,3.42,.22c.71,.08,1.39,.36,2.22,.42,.86,.06,1.64,.03,2.34-.64,.11-.25,.18-.8,.13-.85-.15-.12-10.29-1.32-10.29-1.32Z"/><path class="cls-19" d="M83.34,81.74c-.45,.44-1.56,.38-2.73,.44-1.1,.06-2.39-.11-3.08,.27-.69,.38-.81,1.24,.37,2.18,.34,.27,.73,.63,1.1,.78,1.24,.49,2.55,.23,3.37,.29,1.08,.08,1.72,.44,2.7,.39,1.26-.07,1.99-.52,2.15-.89,.16-.37-.1-3.07-.62-2.92,0,0-.08,.9-2.24,.41-.95-.21-1.02-.76-1.02-.96Z"/><path class="cls-11" d="M79,85.42s-.42-2.81,1.17-3.22h.21s-.03-.2-.66-.25c-1.21-.09-1.97,.06-2.47,.58-.22,.22-.46,.82-.32,1.33,.15,.54,.78,1.17,2.08,1.56Z"/><path class="cls-11" d="M80.15,83.76s-.08-1.15,.7-1.59c0,0,.25-.17,.47-.02,0,0-.75,.24-.78,1.61,0,0-.02,.09-.2,.09-.06,0-.19,0-.2-.1Z"/><path class="cls-11" d="M82.05,82.12s0-.04-.21-.04c-.15,0-.22,.06-.22,.06,0,0-.58,.38-.49,1.57,0,0,.03,.14,.22,.15,.19,0,.2-.15,.2-.15,0,0-.08-1.26,.5-1.59Z"/><path class="cls-11" d="M82.72,82.03s-.05-.07-.19-.04c-.18,.03-.21,.11-.21,.11,0,0-.36,.53-.2,1.51,0,0,.01,.17,.25,.15s.17-.21,.17-.21c0,0-.13-1.27,.19-1.53Z"/></g></g><path class="cls-19" d="M83.38,66.21c-.1,2.51-.02,14.2-.02,14.2,0,0,1.54,1.3,3.49,.63l1.21-13.42-4.68-1.41Z"/></g><g><g><path class="cls-15" d="M79.69,86.75s.46-2.44,.46-2.44c0,0-.46,.31-1.91,.22-.74-.04-1.43-.27-1.43-.27l-.23,1.77c-.23,.75-1.51,.68-2.88,.8-.23,.02-.47,.03-.71,.04h-.01c-.73,.11-1.36,.69-.49,1.15,.87,.46,2.16,.44,3.34,.42,1.42-.03,3.9-.28,3.87-1.69Z"/><g><path class="cls-18" d="M70.07,88.64s-.09,.31,.05,.75c.08,.26,.92,1.03,2.19,1.35,1.27,.32,2.72,.06,3.43,.12,.71,.06,1.41,.32,2.24,.35,.86,.03,1.64-.02,2.32-.71,.1-.26,.16-.81,.1-.85-.15-.11-10.33-1.01-10.33-1.01Z"/><path class="cls-19" d="M76.41,86.31c-.44,.46-1.55,.43-2.71,.53-1.1,.1-2.39-.04-3.07,.36-.68,.4-.77,1.27,.44,2.17,.35,.26,.75,.61,1.12,.74,1.25,.45,2.55,.16,3.38,.19,1.08,.05,1.74,.39,2.71,.3,1.26-.11,1.98-.58,2.12-.95,.15-.37-.19-3.06-.71-2.9,0,0-.05,.9-2.23,.48-.95-.19-1.05-.72-1.05-.92Z"/><path class="cls-11" d="M72.18,90.11s-.51-2.79,1.07-3.25h.21s-.04-.2-.67-.24c-1.21-.06-1.96,.12-2.45,.65-.21,.23-.44,.83-.28,1.34,.17,.54,.81,1.15,2.12,1.5Z"/><path class="cls-11" d="M73.28,88.42s-.11-1.14,.66-1.61c0,0,.24-.18,.47-.03,0,0-.75,.27-.73,1.63,0,0-.02,.09-.2,.1-.06,0-.19,0-.2-.09Z"/><path class="cls-11" d="M75.13,86.73s0-.04-.21-.03c-.15,0-.22,.07-.22,.07,0,0-.56,.39-.44,1.59,0,0,.03,.14,.23,.14,.19,0,.2-.16,.2-.16,0,0-.12-1.26,.45-1.61Z"/><path class="cls-11" d="M75.79,86.62s-.05-.06-.19-.03c-.18,.04-.21,.12-.21,.12,0,0-.35,.54-.16,1.52,0,0,.02,.17,.25,.14,.23-.03,.16-.21,.16-.21,0,0-.17-1.26,.15-1.53Z"/></g></g><path class="cls-17" d="M77.25,71.1c-.29,2.6-.57,10.14-.76,13.9,0,0,1.64,.99,3.76,.42l2.68-13.52-5.68-.8Z"/></g><g><path class="cls-17" d="M94.13,101.94c-.17,0-.31-.14-.31-.31v-20.19c0-.17,.14-.31,.31-.31s.31,.14,.31,.31v20.19c0,.17-.14,.31-.31,.31Z"/><path class="cls-17" d="M106.62,94.59c-.13,0-.24-.08-.29-.2l-6.19-15.67c-.06-.16,.02-.34,.18-.41,.16-.06,.34,.01,.41,.18l6.19,15.67c.06,.16-.02,.34-.18,.41-.04,.02-.08,.02-.12,.02Z"/><path class="cls-17" d="M105.87,92.71c-.08,0-.17-.03-.23-.1l-11.52-12.19-11.5,12.14c-.12,.13-.32,.13-.44,.01-.13-.12-.13-.32-.01-.44l11.73-12.38c.06-.06,.14-.1,.23-.1h0c.09,0,.17,.04,.23,.1l11.75,12.43c.12,.13,.11,.32-.01,.44-.06,.06-.14,.09-.22,.09Z"/><path class="cls-17" d="M81.63,94.59s-.08,0-.12-.02c-.16-.06-.24-.25-.18-.41l6.19-15.67c.06-.16,.25-.24,.41-.18,.16,.06,.24,.25,.18,.41l-6.19,15.67c-.05,.12-.17,.2-.29,.2Z"/><path class="cls-3" d="M81.48,74.51c-.23-1.27,.81-2.25,2.75-3.56,1.94-1.31,4.42-2.61,5.62-3.16,1.62-.75,3.29-.68,5.36,.39,2.89,1.48,11.58,6.76,11.58,6.76,0,0-13,7.34-15.5,7.01-2.5-.33-8.75-4.39-9.25-5.82-.5-1.43-.58-1.61-.58-1.61Z"/><path class="cls-3" d="M92.56,80.4c-1.87,1.69-3.82,.24-6.9-1.77-3.49-2.27-4.18-4.12-4.18-4.12,0,0,0,1.39,.26,2.04,.26,.65,.82,1.39,3.34,3.13,2.52,1.74,4.34,2.6,6.03,2.93l1.34-.18"/><path class="cls-26" d="M85.66,78.63c-3.49-2.27-4.18-4.12-4.18-4.12,0,0,0,1.39,.26,2.04,.26,.65,.82,1.39,3.34,3.13,2.52,1.74,4.34,2.6,6.03,2.93l1.34-.18,.1-2.02c-1.87,1.69-3.82,.24-6.9-1.77Z"/><path class="cls-3" d="M106.19,92.22l.82,2.16s0,.04,0,.06c0,.01,0,.03,0,.04,0,.04-.06,.1-.12,.14-.14,.08-.36,.08-.5,0-.05-.03-.08-.07-.1-.1,0,0,0,0,0,0v-.03s-.77-2.03-.77-2.03l.66-.23Z"/><path class="cls-3" d="M82.06,92.22l-.82,2.16s0,.04,0,.06c0,.01,0,.03,0,.04,0,.04,.06,.1,.12,.14,.14,.08,.36,.08,.5,0,.05-.03,.08-.07,.1-.1,0,0,0,0,0,0v-.03s.77-2.03,.77-2.03l-.66-.23Z"/><path class="cls-3" d="M94.49,100.06v1.79c0,.05-.04,.11-.11,.15-.14,.08-.37,.08-.51,0-.07-.04-.11-.09-.11-.15v-1.79c.24-.12,.48-.12,.72,0Z"/></g><g><path class="cls-19" d="M102.72,69.49s-10.43-3.15-12.24-3.64c-1.81-.5-5.29-1.33-6.31-.88-1.02,.46-1.53,.98-1.63,2.45-.02,.28,0,1.62,0,1.62,0,0,5.28,2.15,9.41,2.15s10.76-1.69,10.76-1.69Z"/><path class="cls-17" d="M102.76,68.18c.65,2.23,.86,4.42-.7,6.03-1.14,1.17-5.85,5.35-9.98,4.08-4.62-1.42-10.13-5.42-10.13-5.42,0,0-3.56,.11-3.58-.94,0-.26-1.13-.57-1.11-.85,.14-3.07,2.21-4.35,5.29-3.79,3.23,.59,10.46,2.65,10.46,2.65l9.75-1.75Z"/><path class="cls-20" d="M97.6,77.47c.78-2.84,1.71-6.44,1.71-6.44l-4.26,1.34c-.88,2.79-1.33,4.3-3.53,3.94-2.2-.36-9.57-3.45-9.57-3.45,0,0,5.51,4.01,10.13,5.42,1.85,.57,3.82,.04,5.53-.82Z"/></g><g id="Character"><path class="cls-15" d="M101.82,51.76c1.41-.31,2.94,.7,3.81,2.92,.88,2.22,2.96,7.69,3.31,9.17,.16,.66-5.27,6.61-5.09,6.52,.06-.03-1.59-2.87-1.59-2.87l2.76-3.68-1.75-4.11-1.45-7.95Z"/><path class="cls-17" d="M101.42,51.54c1.26-.03,2.79,.21,3.79,2.09,1,1.88,1.89,3.74,2.96,7.25,0,0-3.83,2.69-6.29,1.79l-.45-11.13Z"/><g><polygon class="cls-15" points="95.94 50.01 96.61 54.25 100.43 54.06 99.99 49.1 95.94 50.01"/><path class="cls-6" d="M104.47,53.84c-.35-1.16-1.61-2.33-3.1-2.3-.5,.01-1.16,.02-1.16,.02-.18,.72-1.98,1.51-3.86,1.07-.56,.15-1.08,.3-1.55,.46-1.35,.45-2.59,1.57-2.8,5.96,0,0-.53,10.08-.58,12.06,1.91,2.43,6.56,2.1,8.49,1.72,4.03-.79,4.66-2.95,4.66-2.95,0,0,.22-7.36,.17-10.55-.04-2.7-.03-4.7-.27-5.5Z"/><g><path class="cls-14" d="M93.11,44.81s-1,1.52-.89,1.67c.11,.15,.85,.28,.85,.28l.04-1.96Z"/><path class="cls-15" d="M95.89,40.6c-2.03,.43-2.61,1.32-2.81,4.54-.2,3.37,.14,4.43,.59,4.88,.3,.31,1.96,.36,2.8,.13,1.05-.29,3.42-1.13,4.53-2.82,1.3-1.99,1.65-4.69,.25-5.8-1.97-1.56-4.53-1.1-5.35-.93Z"/></g><g><path class="cls-18" d="M92.64,41.99s0,0,0,0c.58,.38,1.28,.53,1.96,.62-.04,.55,.14,1.08,.32,1.6,.13,.36,.58,1.48,1.02,.85,.32-.46,.62-.87,1.26-.78,1.06,.16,1.2,1.5,.53,2.32-.67,.82-1.29,.5-1.29,.5,0,0,.03,1.78,.82,2.79,0,0,.9,.29,2.55-.06,1.01-.22,2.45-1.48,3.05-2.83,1.28-2.84,1.36-5.4-.45-6.16-.2-1.31-1.23-1.9-2.4-2.17-1.63-.37-3.29,.68-4.87,.05-.33-.13-.64-.33-.98-.44-.19-.06-.42-.1-.58,.02-.14,.1-.2,.28-.24,.45-.07,.31-.09,.66,.08,.93-.24-.11-.48-.22-.74-.25s-.54,.01-.74,.18c-.18,.16-.27,.41-.28,.65-.05,.69,.39,1.34,.96,1.72Z"/><path class="cls-18" d="M102.46,41.28l1.21-.72c-.2-.34-.63-.45-.96-.25s-.45,.63-.25,.96Z"/></g></g><path class="cls-15" d="M77.63,60.7c.65,.31,8.54,6.57,9.77,5.93,1.23-.64,7.45-7.99,7.45-7.99,1.87-2.95,.02-5.56,.02-5.56,0,0-2,.32-3.08,1.88-1.08,1.55-5.71,7.1-5.71,7.1-1.1-.58-2.2-1.17-3.29-1.77-.9-.49-1.8-.98-2.68-1.51-.22-.13-.51-.26-.69-.45-.43-.44-.33-1.49-.31-2.06,0-.27,.02-.53,.06-.8,.05-.33,.13-1.12-.47-.88-.11,.05-.21,.13-.29,.23-.1,.12-.17,.25-.22,.4-.12,.34-.09,.72-.2,1.07-.02,.05-.04,.1-.08,.14-.05,.04-.12,.06-.19,.05-.86-.05-1.64-1.26-2.02-1.91-.17-.29-.33-.61-.63-.75-.46-.23-1.03,.07-1.34,.48-.4,.53-.53,1.22-.47,1.88,.08,.91,.41,1.76,1.06,2.39,.98,.96,2.06,1.57,3.29,2.15Z"/><path class="cls-17" d="M95.51,52.87c-.82,.08-2.17,.11-3.54,1.58-1.59,1.72-3.7,4.55-3.7,4.55,0,0,.49,2.8,3.5,3.45,0,0,2.86-2.8,3.68-4.36,.81-1.56,1-4.12,.06-5.21Z"/></g><g><path class="cls-3" d="M92.46,82.42c1.06-.05,1.89-.83,4.42-1.89,4.66-1.94,8.16-3.5,9.49-5.94,1.33-2.44,2.28-9.49,1.94-12.55-.04-.41-.12-.74-.23-1.01l.33-.05-.85-.72h0c-.87-.71-2.29-.08-3.36,.51-3.05,1.66-5.44,3.28-7.33,9.11-1.42,4.39-2.36,8.39-4.32,10.52"/><path class="cls-23" d="M108.09,61.03l.33-.05-.85-.72h0c-.87-.71-2.29-.08-3.36,.51-3.05,1.66-5.44,3.28-7.33,9.11-1.42,4.39-2.36,8.39-4.32,10.52l-.1,2.02c1.06-.05,1.89-.83,4.42-1.89,4.66-1.94,8.16-3.5,9.49-5.94,1.33-2.44,2.28-9.49,1.94-12.55-.04-.41-.12-.74-.23-1.01Z"/><path class="cls-3" d="M105.09,61.52c-3.05,1.66-5.44,3.28-7.33,9.11-1.89,5.83-2.92,10.98-6.64,11.98,0,0,1.68,.67,6.84-1.51,1.64-.69,3.63-1.96,4.94-2.69,2.56-1.44,4.12-2.62,4.36-3.06,1.35-2.43,2.28-9.49,1.94-12.55-.33-3.05-2.58-2.11-4.11-1.28Z"/></g></g><g id="Character_1"><g id="Legs"><g><path class="cls-18" d="M36.81,81.32c.26,.71,1.5,.58,2.82,.62,1.07,.03,2.31-.16,2.99,.19,.68,.35,.81,1.18-.31,2.12-1.4,1.17-3.26,1.04-4.3,1.14-1.04,.1-1.66,.47-2.6,.44-1.22-.04-1.94-.46-2.1-.81-.16-.35,.02-2.97,.53-2.84,0,0-.05-.08,1.74-.14,1.25-.04,1.23-.72,1.23-.72Z"/><path class="cls-12" d="M33.84,82.34s-.3-2.46-.3-2.46c0,0,.05-.21,1.5-.26,.72-.02,1.55-.62,1.63-.05,.08,.57,.14,1.76,.14,1.76,.26,.71,1.5,.58,2.82,.62,.22,0,.45,0,.68,0h.01c.71,.06,1.35,.59,.53,1.08-.82,.49-2.06,.54-3.2,.58-1.37,.05-3.78,.1-3.82-1.27Z"/></g><path class="cls-3" d="M37.17,65.82c.11,2.64-.25,15.11-.25,15.11,0,0-1.26,.61-3.3-.1l-1.36-13.53,4.92-1.48Z"/><g class="cls-21"><path d="M37.17,65.82c.11,2.64-.25,15.11-.25,15.11,0,0-1.26,.61-3.3-.1l-1.36-13.53,4.92-1.48Z"/></g><g><g><path class="cls-18" d="M43.57,86.89c.24,.72,1.48,.63,2.8,.72,1.07,.07,2.31-.08,2.98,.29,.67,.37,.77,1.21-.38,2.11-1.44,1.12-3.29,.93-4.34,1-1.04,.07-1.67,.41-2.61,.35-1.22-.08-1.92-.52-2.07-.88-.15-.36,.12-2.97,.63-2.82,0,0-.05-.08,1.75-.08,1.25,0,1.25-.68,1.25-.68Z"/><path class="cls-12" d="M40.56,87.81s-.22-2.47-.22-2.47c0,0,.06-.21,1.51-.21,.72,0,1.57-.57,1.63,0,.06,.58,.08,1.76,.08,1.76,.24,.72,1.48,.63,2.8,.72,.22,.01,.45,.02,.68,.02h.01c.71,.09,1.33,.64,.5,1.1-.84,.47-2.08,.47-3.22,.47-1.37,0-3.78-.03-3.78-1.39Z"/></g><path class="cls-3" d="M43.37,70.5c.31,2.74,.23,12.3,.27,15.22,0,0-1.63,.54-3.35,.02,0,0-2.37-10.26-2.19-13.19,.08-1.39,5.27-2.05,5.27-2.05Z"/></g></g><g><path class="cls-17" d="M26.41,101.39c.17,0,.31-.14,.31-.31v-20.19c0-.17-.14-.31-.31-.31s-.31,.14-.31,.31v20.19c0,.17,.14,.31,.31,.31Z"/><path class="cls-17" d="M13.92,94.04c.13,0,.24-.08,.29-.2l6.19-15.67c.06-.16-.02-.34-.18-.41-.16-.06-.34,.02-.41,.18l-6.19,15.67c-.06,.16,.02,.34,.18,.41,.04,.02,.08,.02,.12,.02Z"/><path class="cls-17" d="M14.67,92.16c.08,0,.17-.03,.23-.1l11.52-12.19,11.5,12.14c.12,.13,.32,.13,.44,.01,.13-.12,.13-.32,.01-.44l-11.73-12.38c-.06-.06-.14-.1-.23-.1h0c-.09,0-.17,.04-.23,.1l-11.75,12.43c-.12,.13-.11,.32,.01,.44,.06,.06,.14,.09,.22,.09Z"/><path class="cls-17" d="M38.91,94.04s.08,0,.12-.02c.16-.06,.24-.25,.18-.41l-6.19-15.67c-.06-.16-.25-.24-.41-.18-.16,.06-.24,.25-.18,.41l6.19,15.67c.05,.12,.17,.2,.29,.2Z"/><path class="cls-17" d="M39.06,73.96c.23-1.27-.81-2.25-2.75-3.56-1.94-1.31-4.42-2.61-5.62-3.16-1.62-.75-3.29-.68-5.36,.39-2.89,1.48-11.58,6.76-11.58,6.76,0,0,13,7.34,15.5,7.01,2.5-.33,8.75-4.39,9.25-5.82,.5-1.43,.58-1.61,.58-1.61Z"/><path class="cls-18" d="M27.98,79.85c1.87,1.69,3.82,.24,6.9-1.77,3.49-2.27,4.18-4.12,4.18-4.12,0,0,0,1.39-.26,2.04-.26,.65-.82,1.39-3.34,3.13-2.52,1.74-4.34,2.6-6.03,2.93l-1.34-.18"/><path class="cls-3" d="M14.35,91.68l-.82,2.16s0,.04,0,.06c0,.01,0,.03,0,.04,0,.04,.06,.1,.12,.14,.14,.08,.36,.08,.5,0,.05-.03,.08-.07,.1-.1,0,0,0,0,0,0v-.03s.77-2.03,.77-2.03l-.66-.23Z"/><path class="cls-3" d="M38.48,91.68l.82,2.16s0,.04,0,.06c0,.01,0,.03,0,.04,0,.04-.06,.1-.12,.14-.14,.08-.36,.08-.5,0-.05-.03-.08-.07-.1-.1,0,0,0,0,0,0v-.03s-.77-2.03-.77-2.03l.66-.23Z"/><path class="cls-3" d="M26.05,99.52v1.79c0,.05,.04,.11,.11,.15,.14,.08,.37,.08,.51,0,.07-.04,.11-.09,.11-.15v-1.79c-.24-.12-.48-.12-.72,0Z"/></g><g id="Character-2"><g><path class="cls-3" d="M17.19,69.15s10.96-3.31,12.86-3.83c1.9-.52,5.56-1.4,6.63-.92,1.07,.48,1.61,1.03,1.71,2.57,.02,.29,0,1.7,0,1.7,0,0-5.3,1.64-9.64,1.64s-11.56-1.16-11.56-1.16Z"/><g class="cls-21"><path d="M17.19,69.15s10.96-3.31,12.86-3.83c1.9-.52,5.56-1.4,6.63-.92,1.07,.48,1.61,1.03,1.71,2.57,.02,.29,0,1.7,0,1.7,0,0-5.3,1.64-9.64,1.64s-11.56-1.16-11.56-1.16Z"/></g><path class="cls-3" d="M17.15,67.77c-.69,2.35-.9,4.64,.74,6.33,1.19,1.23,3.35,4.92,9.9,4.64,2.96-.13,11.27-5.92,11.27-5.92,0,0,4.04-.6,4.06-1.7,0-.27,.31-.33,.25-.62-.45-2.41-1.96-3.76-4.07-3.89-3.34-.2-12.5,2.18-12.5,2.18l-9.66-1.03Z"/><polygon class="cls-12" points="25.65 48.84 24.56 53.68 20.8 53.1 21.83 47.76 25.65 48.84"/><path class="cls-12" d="M20.31,50.29c-1.75-.06-2.96,.76-3.89,3.13-.94,2.37-3.82,8.09-3.89,9.71-.08,1.69,5.27,6.89,5.08,6.8-.06-.03,1.71-3.07,1.71-3.07l-2.65-3.97,1.57-4.37,2.09-8.23Z"/><path class="cls-17" d="M20.35,50.3c-.48-.08-1.85-.15-2.93,1.12-1.08,1.27-2.91,5.94-2.91,5.94,0,0,.87,2.28,3.75,2.28l2.61-5.58-.52-3.76Z"/><path class="cls-5" d="M16.67,67.01c.45-.97,.86-2.14,2.05-4.03-1.18-5.16-1.7-7.24-1.29-9.66,.27-1.58,1.34-3.29,2.93-3.02,.41,.07,.58,.07,.96,.14-.22,.81,2.57,1.46,3.83,.64,.57,.13,2.28,.38,2.28,.38,.73,.27,3.33,4.23,3.77,6.65,.45,2.5-1.77,4.04-1.77,4.04,.11,2.09,.03,4.32-.02,8.12,0,0-1.36,2.6-7.39,1.92-5.37-.6-6.06-2.9-6.06-2.9,0,0,.39-1.62,.7-2.3Z"/><path class="cls-12" d="M46.34,53.34c-.55,.27-.85,.51-1.37,.98-.04,.03-.41,.41-.58,.36-.06-.02-.09-.07-.11-.12-.06-.2,.24-.8,.27-1.01,.02-.21-.11-.48-.31-.44-.07,.01-.14,.07-.19,.12-.53,.51-.83,1.21-1.04,1.91-.12,.43-.21,.87-.4,1.27-.31,.67-6.01,4.7-6.1,4.77,0,0-3.43-4.08-5.36-6.64-2.09-2.78-2.88-2.62-4.51-3.07-1.28,4.53,2.43,7.94,2.43,7.94,0,0,3.09,3.17,5.01,4.59,1.24,.91,1.96,1.51,2.61,1.51s1.19-.33,1.72-.73c1.25-.93,5.03-4.73,5.44-5.15,.71-.72,1.47-1.38,2.17-2.11l2.3-2.41c.19-.2,.39-.41,.53-.65,.14-.24,.21-.54,.15-.81-.11-.46-.6-.75-1.07-.77-.47-.03-.93,.16-1.35,.36-.08,.03-.15,.07-.22,.11Z"/><path class="cls-17" d="M26.18,51.27s1.81-.02,2.76,.72c.72,.56,5.61,6.51,5.61,6.51,0,0,.23,2.21-3.06,3.65l-4.09-4.27s-2.08-3.08-1.21-6.61Z"/><g><path class="cls-3" d="M28.89,44.56s1.37-2.37,.36-4.23c-1.19-2.2-3.72-2.97-6.84-2.37-1.54,.3-4.03,1.74-4.43,4.63-.31,2.23,5.82,4.34,5.57,5.87l5.34-3.89Z"/><g class="cls-26"><path d="M28.89,44.56s1.37-2.37,.36-4.23c-1.19-2.2-3.72-2.97-6.84-2.37-1.54,.3-4.03,1.74-4.43,4.63-.31,2.23,5.82,4.34,5.57,5.87l5.34-3.89Z"/></g><path class="cls-13" d="M29.14,44.34s.89,1.55,.76,1.68c-.13,.13-.85,.21-.85,.21l.09-1.89Z"/><path class="cls-12" d="M26.87,39.85c.81,.53,2.21,1.5,2.28,4.69,.07,3.28-.47,4.38-.95,4.76-.33,.26-2.48,.22-3.06,0-.99-.37-2.94-1.87-3.79-3.64-1-2.09-.99-4.74,.5-5.63,2.1-1.25,4.34-.63,5.03-.18Z"/><path class="cls-3" d="M27.74,40.57c-.03-.11-.07-.37-.16-.46,0,0-2.53-2.31-6.18-1.48-1.03,.23-1.84,.77-2.41,1.47l.04-1c-.38,0-.7,.3-.71,.67,0,.23,.1,.43,.27,.55h-.31c-2.06,0-3.74,1.67-3.74,3.74v6.67h0c2.06,0,3.74-1.67,3.74-3.74l.13-1.41c.18,.44,.42,.85,.71,1.24,2.36,3.09,5.43,1.98,5.43,1.98,1.46-.51,1.65-2.14,1.65-2.14,0,0-.8,.28-1.52-.48-.72-.76-.68-2.1,.36-2.34,.73-.17,1.21,.42,1.47,1.01,.04,.1,.09,.2,.19,.23,.15,.04,.28-.13,.35-.27,.42-.91,.72-1.95,.81-2.95,.03-.43-.02-.87-.12-1.29Z"/><path class="cls-26" d="M27.74,40.57c-.03-.11-.07-.37-.16-.46,0,0-2.53-2.31-6.18-1.48-1.03,.23-1.84,.77-2.41,1.47l.04-1c-.38,0-.7,.3-.71,.67,0,.23,.1,.43,.27,.55h-.31c-2.06,0-3.74,1.67-3.74,3.74v6.67h0c2.06,0,3.74-1.67,3.74-3.74l.13-1.41c.18,.44,.42,.85,.71,1.24,2.36,3.09,5.43,1.98,5.43,1.98,1.46-.51,1.65-2.14,1.65-2.14,0,0-.8,.28-1.52-.48-.72-.76-.68-2.1,.36-2.34,.73-.17,1.21,.42,1.47,1.01,.04,.1,.09,.2,.19,.23,.15,.04,.28-.13,.35-.27,.42-.91,.72-1.95,.81-2.95,.03-.43-.02-.87-.12-1.29Z"/></g></g></g><g><path class="cls-19" d="M28.08,81.87c-1.06-.05-1.89-.83-4.42-1.89-4.66-1.94-8.16-3.5-9.49-5.94-1.33-2.44-2.28-9.49-1.94-12.55,.04-.41,.12-.74,.23-1.01l-.33-.05,.85-.72h0c.87-.71,2.29-.08,3.36,.51,3.05,1.66,5.44,3.28,7.33,9.11,1.42,4.39,2.36,8.39,4.32,10.52"/><path class="cls-17" d="M15.45,60.97c3.05,1.66,5.44,3.28,7.33,9.11,1.89,5.83,2.92,10.98,6.64,11.98,0,0-1.68,.67-6.84-1.51-1.64-.69-3.63-1.96-4.94-2.69-2.56-1.44-4.12-2.62-4.36-3.06-1.35-2.43-2.28-9.49-1.94-12.55,.33-3.05,2.58-2.11,4.11-1.28Z"/></g></g><path class="cls-15" d="M60.56,29.81c-.75,1.06-2.01,1.43-4.9,.54-.83-.26-2-.68-3.02-1.11-2.4-1.02-3.6-1.42-5.13-2.24-.33-.18-1.45-1.7-2.68-3.44,1.83-.7,2.48-2.24,2.66-2.77l2.28,3.35c.39,.29,3.15,2.01,4.86,2.62,.3,.11,.64,.09,.94-.03,.8-.32,1.35-.29,2.14-.4,.62-.08,.93-.32,1.01-.18,.11,.17,.17,.59-.27,.93-.22,.17-.59,.32-1.06,.51,0,0,.91,.28,2.1,.21,1.62-.09,2.27,.32,1.07,2.01Z"/><g><path class="cls-12" d="M78.63,23.8c-1.09,.56-2.17,1.12-3.26,1.68-1.08,.56-2.17,1.12-3.25,1.68-.94,.49-2.04,.87-2.76,1.65-.43,.47-.87,.95-1.09,1.55-.2,.57-.17,1.21,.05,1.77,.23,.56,.64,1.04,1.16,1.36,.18,.11,.4,.21,.61,.15,.04-.01,.08-.03,.11-.07,.03-.04,.04-.09,.04-.15,.03-.41,0-.83,0-1.24,0-.36,.04-1.32,.56-1.24l1.21-.51c.02-.56,.28-.49,.73-.64,.28-.09,.57-.18,.85-.28,.78-.25,1.56-.51,2.33-.77,.99-.33,1.99-.67,2.97-1.04,.51-.19,1.21-.34,1.63-.7l-1.9-3.22Z"/><g id="Pencil-2"><g><path class="cls-12" d="M70.44,34.31l1.06,1.51s.1,.02,.1-.03l.08-1.86-1.24,.38Z"/><polygon class="cls-13" points="71.6 35.8 71.6 35.79 71.68 33.94 71.02 34.14 71.09 34.35 71.54 35.79 71.6 35.8"/><path class="cls-18" d="M71.6,35.79c0,.05-.07,.07-.1,.03l-.21-.3h0c.11,.02,.23-.02,.31-.11l.02-.02-.02,.4Z"/><path class="cls-17" d="M69.49,26.45l.05,.16,.06,.2,2.09,7.12c-.09,.19-.26,.32-.45,.4-.29,.12-.63,.11-.79-.02l-2.09-7.12-.11-.38c.09,.24,1.33-.12,1.24-.36Z"/><path class="cls-19" d="M69.49,26.45l.05,.16,.06,.2,2.09,7.12c-.13,.24-.33,.38-.58,.44l-2.25-7.52s-.03,0-.03-.02c.35-.08,.72-.26,.67-.39Z"/><path class="cls-4" d="M69.67,27.08l.11,.37c.03,.11-.17,.24-.43,.34-.34,.13-.77,.16-.82,.02l-.08-.27-.03-.1c.05,.14,.48,.12,.82-.02,.24-.1,.44-.22,.43-.33h0s0,0,0-.01Z"/><path class="cls-19" d="M69.7,27.17c.08,.24-1.17,.6-1.25,.36l-.11-.37c.08,.24,1.33-.11,1.25-.36l.11,.37Z"/><path class="cls-4" d="M69.49,26.45l.11,.36c.08,.24-1.12,.59-1.24,.38,0,0,0,0,0-.01l-.1-.37c.09,.24,1.33-.12,1.24-.36Z"/><path class="cls-12" d="M71.57,35.84s.03-.02,.03-.04c0,.02-.02,.03-.03,.04Z"/><path class="cls-13" d="M69.03,24.92l.45,1.54c.04,.1-.17,.24-.42,.34-.34,.13-.77,.16-.82,.02t0,0l-.45-1.54c-.09-.31,.51-.56,.92-.54,.15,0,.28,.06,.33,.19Z"/></g><path class="cls-2" d="M68.8,25.29c-.27,.17-.67,.22-.88,.1-.08-.04-.12-.1-.13-.16-.02-.28,.54-.51,.93-.5,.15,0,.27,.06,.32,.18,.03,.12-.05,.26-.24,.38Z"/></g><path class="cls-12" d="M70.8,30.94c-.01,.29-.09,.75-.08,1.04,.01,.29,.09,.59,.29,.79,.12,.13,.32,.21,.48,.13,.13-.07,.19-.23,.22-.37,.17-.67,.28-1.36,.29-2.05,0-.01,0-.03,0-.04l-1.21,.51Z"/></g></svg>