<?xml version="1.0" encoding="UTF-8"?><svg id="Camada_1" xmlns="http://www.w3.org/2000/svg" viewBox="0 0 155.01 128.11"><defs><style>.cls-1,.cls-2{fill:#fff;}.cls-3{fill:#fafafa;}.cls-4{fill:#ffaaa8;}.cls-5{fill:#ff9090;}.cls-6{fill:#d268cc;}.cls-7{fill:#c76668;}.cls-8{fill:#1f6d4c;}.cls-9{fill:#1a2e35;}.cls-10{fill:#2b454e;}.cls-2{opacity:.85;}</style></defs><g id="Character"><g><circle class="cls-1" cx="55.35" cy="72.76" r="53.94" transform="translate(-35.24 60.45) rotate(-45)"/><path class="cls-8" d="M55.34,20.23c29.01,0,52.54,23.52,52.54,52.54s-23.52,52.54-52.54,52.54S2.81,101.78,2.81,72.77,26.33,20.23,55.34,20.23m0-2.81C24.83,17.42,0,42.25,0,72.77s24.83,55.35,55.34,55.35,55.35-24.83,55.35-55.35S85.86,17.42,55.34,17.42h0Z"/></g><g id="Character-2"><path class="cls-10" d="M89.78,78.11c-2.17,5.99-6.59,11.13-11.6,15.4-3.31,2.84-6.93,5.33-10.94,6.98-3.37,1.36-6.95,2.1-10.48,2.69-14.22,2.37-36.57,2.2-44.17-12.85-1.85-3.66-2.22-8.19-.38-11.85,1.14-2.26,3.1-4.25,3.3-6.77,.27-3.38-2.68-6.1-3.69-9.34-1.59-5.12,2.3-9.46,6.08-12.36,4.64-3.55,5.28-5.51,5.47-9.68,.05-1.92-.55-3.8-.66-5.68-.23-3.71,.88-8.3,2.68-11.69,1.12-2.16,3.67-5.12,8.64-6.97,.11-.04,39.81-1.01,39.81-1.01,.49,2.28,1.09,4.56,1.42,6.82,.5,3.59,2.7,5.84,4.9,8.7,2.37,3.18,4.84,6.57,4.75,10.56-.04,4.09-2.86,8.24-1.88,12.18,.76,2.81,3.23,4.79,4.95,7.09,3.66,4.93,3.95,11.79,1.79,17.77Z"/><g><path class="cls-4" d="M73.02,68.89c16.26-1.52,18.25,1.38,32.23,10.76,9.44,6.34,21.82,14.67,21.82,14.67,0,0,8.35-26.95,8.09-30.88-.31-4.72-2.7-7.28-3.94-12.19-1.24-4.94-1.31-8.32-2.71-10.29-1.4-1.97,2.71-2.87,4.64-.43,1.93,2.44,2.46,6.09,3.57,5.32,1.1-.77,1.19-8.71-.32-14.28-1.51-5.57,1.52-7.35,2.85-5.65,1.34,1.69,1.89,2.9,1.89,2.9-.03-.06,1.41-.41,1.51-.43,.82-.18,1.47-.2,2.19,.33,.63,.46,1.12,1.1,1.78,1.5,.68,.41,1.49,.53,2.23,.81,5.42,2.02,5.86,10.94,6.12,15.65,.53,9.84-3.47,15.18-4.43,18.91-.35,1.37-.4,5.85-1.09,15.22-.78,10.69-1.14,21.62-4.96,32.64-3.19,9.23-9.63,8.85-16.46,6.07-9.74-3.97-38.19-19.54-38.19-19.54-11.51-11.73-16.82-31.1-16.82-31.1Z"/><path class="cls-5" d="M139.63,48.11s6.42,3.19,5.41,12.57c0,0,2.8-5.1,.28-8.96-2.48-3.8-5.69-3.61-5.69-3.61Z"/><path class="cls-5" d="M127.07,94.32s-2.59,5.67-.82,15.46c0,0-4.62-7.28-1.39-16.94l2.21,1.48Z"/></g><g id="Chest"><path class="cls-6" d="M97.68,103.86c-9.55,13.01-24.96,21.45-42.34,21.45-8.19,0-15.96-1.88-22.87-5.23-3.88-1.88-7.49-4.21-10.76-6.97-.46-5.73-.42-11.52-.2-17.28,.13-3.1,.31-6.22,1.07-9.24,.62-2.44,1.62-4.8,2.95-6.97,2.05-3.31,5.75-4.87,9.71-5.84,3.17-.79,6.53-1.21,9.34-1.85l4.02-.94,17.7-1.52,6.36-.55c8.05,3.83,18.49,15.25,23.33,26.35,1.19,2.7,1.85,5.46,1.69,8.58Z"/><path class="cls-2" d="M97.68,103.86c-9.55,13.01-24.96,21.45-42.34,21.45-8.19,0-15.96-1.88-22.87-5.23-3.88-1.88-7.49-4.21-10.76-6.97-.46-5.73-.42-11.52-.2-17.28,.13-3.1,.31-6.22,1.07-9.24,.62-2.44,1.62-4.8,2.95-6.97,2.05-3.31,5.75-4.87,9.71-5.84,3.17-.79,6.53-1.21,9.34-1.85l4.02-.94,17.7-1.52,6.36-.55c8.05,3.83,18.49,15.25,23.33,26.35,1.19,2.7,1.85,5.46,1.69,8.58Z"/></g><path class="cls-4" d="M41.37,95.49c-.7,5.66-3.16,11.18-5.41,16.42l-3.48,8.18c-3.88-1.88-7.49-4.21-10.76-6.97-3.53-2.92-6.67-6.32-9.33-10.1,1.47-4.21,3.51-9.68,5.72-14.5,4.33-9.45,6.15-13.05,17.14-14.73,6.12,3.75,7.16,13.23,6.12,21.7Z"/><g id="Head"><path class="cls-10" d="M44.13,60.74c.36-1.54-2.76-7.1-4.57-9.35-5.39-6.69-8.11-8.45-10.21-17.07-1.4-5.75-.42-12.15,4.67-18.36C37.91,6.42,44.22,1.98,55.47,.32c4.08-.6,10.86-.33,14.79,.55,2.1,.47,4.14,1.13,6.27,1.45,2.13,.33,4.42,.31,6.46-.54,1.09-.45,2.38-1.12,3.3-.5,.54,.36,.7,1.05,.74,1.69,.14,2.53-1.28,5.17-3.56,6.64,6.02-1.09,7.74,4.4,7.47,6.6-.28,2.28-1.8,3.98-3.29,4.69,1.64,1.54,1.98,4.2,.79,6.21-1.1,1.86-3.18,2.99-5.16,4.01-6.14,3.19-11.34,7.87-16.75,12.1-5.16,4.04-10.32,8.07-15.48,12.11-1.68,1.31-3.36,2.63-5.04,3.94-.21,.16-1.87,1.2-1.87,1.46Z"/><g><path class="cls-4" d="M75.34,11.37c5.97,2.48,11.27,6.24,10.96,26.77-.24,15.83-5.15,20.18-7.84,21.54-2.68,1.36-7.03,2.05-12.16,1.69l.02,9.64s15.34,12.56,10.22,22.22c-25.28-5.9-31.93-20.54-31.93-20.54l-.94-23.09s-2.81,2.57-6.77,.61c-5.84-2.9-5.94-9.98-2.77-13.4,3.17-3.42,8.18-2.87,10.16,.7,0,0-2.48-14.92,6.39-21.7,10.42-7.96,17.64-7.34,24.65-4.43Z"/><path class="cls-5" d="M41.71,38.51c0-.08-.02-.16-.04-.24-.17-.81-.73-1.49-1.34-2.04-.49-.44-1.04-.84-1.68-1.01-1.75-.46-3.28,.34-4.43,1.62-.98,1.09-1.59,2.44-2.02,4.02-.22-.83-.13-1.93,.15-2.74,.61-1.79,1.79-3.41,3.41-4.37,1.62-.97,3.69-1.23,5.44-.51,1.65,.67,2.83,2.25,3.09,4,.33,2.21-.9,3.53-2.37,4.97-.19,.19-.39,.38-.64,.48-.25,.1-.57,.09-.76-.11-.22-.23-.18-.6-.05-.89,.24-.49,.57-.96,.85-1.44,.3-.53,.46-1.15,.4-1.75Z"/><path class="cls-3" d="M42.4,44.88c.04,.35-.01,.75-.17,1.03-.51,.91-1.97,.88-2.82,.62-1.07-.34-2.04-.99-2.74-1.87-1.26-1.58-1.98-4.34-.05-5.69,1.34-.94,3.11-.68,3.96,.56,.55,.81,.42,1.79,.49,2.71,.03,.44,.09,.81,.37,1.15,.29,.35,.7,.62,.86,1.07,.05,.12,.08,.27,.09,.42Z"/><g><g><path class="cls-7" d="M65.12,48.1c-.4,2.18,1.13,4.15,3.42,4.39,2.29,.24,4.46-1.33,4.86-3.51l-8.28-.88Z"/><path class="cls-5" d="M69.83,52.42c-.04-1.84-1.63-3.22-3.58-3.1-.39,.02-.75,.12-1.1,.25,.33,1.54,1.63,2.74,3.39,2.93,.44,.05,.87,0,1.29-.07Z"/></g><path class="cls-9" d="M64.84,34.67c0,1.17-1,2.18-2.24,2.26-1.24,.08-2.25-.81-2.25-1.98,0-1.17,1-2.18,2.24-2.26,1.24-.08,2.25,.81,2.25,1.98Z"/><path class="cls-9" d="M81.49,32.62c0,1.17-1,2.18-2.24,2.26-1.24,.08-2.25-.81-2.25-1.98s1-2.18,2.24-2.26c1.24-.08,2.25,.81,2.25,1.98Z"/><polygon class="cls-5" points="70.83 31.15 72.15 43.41 79.95 41.21 70.83 31.15"/><path class="cls-5" d="M66.3,61.36c-4.65-.47-14.99-2.2-19.44-9.48,0,0,.77,4.57,3.79,7.36,4.48,4.14,15.66,5.83,15.66,5.83l-.02-3.72Z"/><path class="cls-9" d="M62.47,27.42l-4.88,3.9c-1.04-1.27-.79-3.18,.56-4.26,1.35-1.08,3.28-.92,4.32,.36Z"/><path class="cls-9" d="M82.69,27.37l-5.81-1.85c.58-1.58,2.35-2.45,3.96-1.94,1.6,.51,2.43,2.21,1.85,3.79Z"/></g></g><path class="cls-10" d="M69.76,17.66c-2.62,.59-5.73-3.33-10.95-1.26-5.62,2.23-3.81,8.09-7.83,11.62-3.04,2.67,.05,9.36-3.26,10.95-1.47,.7-3.43-1.47-3.43-1.47,0,0-2.84-3.83-2.19-13.06,.65-9.23,13.55-16.15,22.88-17.08,9.34-.93,19.04,4.3,19.07,12.56,0,0-2.33-4.95-6.74-5.32-4.41-.37-5.2,2.54-7.56,3.07Z"/></g></g></g></svg>