<?xml version="1.0" encoding="UTF-8"?><svg id="Camada_1" xmlns="http://www.w3.org/2000/svg" xmlns:xlink="http://www.w3.org/1999/xlink" viewBox="0 0 157.12 108.79"><defs><style>.cls-1{fill:none;}.cls-2{clip-path:url(#clippath);}.cls-3{fill:#007cff;}.cls-4{fill:#f5f5f5;}.cls-5{opacity:.2;}</style><clipPath id="clippath"><circle class="cls-1" cx="78.09" cy="44.81" r="44.81"/></clipPath></defs><ellipse id="_Path_" class="cls-4" cx="78.56" cy="104.69" rx="70.13" ry="4.1"/><g><g><path class="cls-3" d="M78.09,97.49s0,0,0,0c-14.07,0-27.3-5.48-37.25-15.43-20.54-20.54-20.54-53.96,0-74.5,.18-.18,.49-.18,.66,0l5.57,5.57c.18,.18,.18,.48,0,.66-.18,.18-.48,.18-.66,0l-5.24-5.24c-19.84,20.2-19.73,52.77,.33,72.84,9.77,9.77,22.77,15.15,36.59,15.15s26.52-5.26,36.25-14.82l-5.25-5.25c-.18-.18-.18-.48,0-.66s.48-.18,.66,0l5.58,5.58c.18,.18,.18,.48,0,.66-9.95,9.95-23.18,15.43-37.25,15.43Z"/><circle class="cls-3" cx="78.09" cy="44.81" r="44.81"/><g class="cls-2"><g class="cls-5"><g><g><path d="M112.54,8.07c1.34,.26,2.68,.51,4.02,.77-.35,.27-.6,.68-.97,.93,2.88,.03,5.91-.3,8.68,.47,2.59,.72,4.81-.21,7.45,.08,1.55,.17,18.65,1.32,18.16,3.64-1.21-.19-2.78-.79-3.92-.13,.68,.29,1.36,.58,2.04,.87-1.08,.6-3.99,1.11-3.98,2.13,.01,.74,1.01,1.07,1.29,1.73,.27,.65,.15,1.7,.21,2.39-.84-.76-3.13-2.12-3.45-3.14-.31-1,1.54-2.91-1.2-2.51-1,.15-.9,1.04-1.15,1.14-.64,.25-1.82,.06-2.52,.09-2.3,.08-2.15,.52-3.17,2.51,1.39,.25,3.2,.23,4.1,1.14,.85,.85,1.6,3.92,.59,4.85-.5,.46-1.21,.11-1.53,.35-.35,.28-.87,1.57-.77,1.93,.29,1.02,3.49,2.16,.63,2.91-.36-.6-1.16-2.71-1.79-2.95-.89-.35-1.94,1.04-1.97-.8-.43,.37-.85,.74-1.28,1.11,.63,.72,1.56,1.09,2.56,.85-1.81,.44-.57,1.88-.03,2.52,.84,.99,.88,1.01,.94,2.12,.1,2.02-1.29,3.65-3.38,4.11-1.04,.23-1.81-.12-2.49,.62-1.03,1.11-.03,1.2,.55,2.13,.41,.65,1.22,1.96,1.09,2.75-.12,.67-1.4,1.5-1.96,2.02-.71-1.03-1.24-2.41-2.61-2.75-.12,1.71-.28,2.37,.94,3.7,.37,.41,.84,.61,1.1,1.06,.29,.5,.19,1.38,.47,1.95-3.59-1.92-3.03-5.6-4.26-9-.82,2.09-1.61-.77-1.97-1.39-.81-1.42-1.65-1.86-3.24-.93-.77,.45-2.84,2.42-3.15,3.23-.71,1.85,.58,2.6-.94,4.24-1.14-.8-1.39-2.56-1.83-3.74-.48-1.31-1.3-2.75-1.18-4.18-.83,1.79-2.02-.42-2.79-1.08-1.13-.96-1.86-.53-3.39-.67-.65-.06-1.28-.38-1.73-.5,.3,.08-.67-.57-.54-.52-.2-.09-.52,.3-.8,.19-.88-.35-2.54-2.14-3.33-1.69,.34,.67,1.01,2.57,1.7,2.95,1.07,.59,1.9-.61,2.7-.46,.2,.04,1.59,1.32,1.64,1.58,.14,.62-.01,.4-.45,1.2-.68,1.23-1.31,1.74-2.47,2.37-.83,.45-2.76,1.69-3.74,1.71-1.3,.03-1.27-.53-1.83-1.57-.57-1.08-3.11-7.35-4.36-6.63,.98,2.11,1.81,4.39,3.02,6.39,.43,.72,1.66,3.06,2.44,3.38,.93,.38,2.73-.46,3.55-.72-.4,3.74-3.48,5.18-5.29,8.06-1.63,2.6,1.34,5.61-.63,7.92-.52,.61-1.99,.9-2.35,1.6-.3,.58,.27,1.46,.09,2.11-.23,.84-.74,.53-1.26,1.28-.42,.6-.28,1.47-.77,2.15-.99,1.4-1.92,2.09-3.55,2.46-2.25,.51-2.44,.43-3.18-1.53-.77-2.04-1.53-4.09-2.3-6.13-.57-1.53-.33-2.13,.13-3.76,.44-1.55,.63-2-.05-3.47-.43-.92-1.03-1.89-1.33-2.85-.25-.83,0-1.45-.11-2.32-.09-.68-.07-1.06-.7-1.62-.17-.15-.77,.17-.99,.05-.25-.13-.41-.79-.68-.85-1.12-.21-2.66,.54-3.96,.59-1.98,.08-3.27,.04-4.58-1.17-1.34-1.23-2.43-2.59-2.53-4.41-.23-3.98,2.73-5.43,4.38-8.65,.54-1.06,.02-1.46,1.38-2.27,.7-.42,.89-.38,1.77-.54,2.08-.39,4.28-.48,6.38-.72-.18,1.59-.32,1.35,.98,2.13,1.03,.62,2.22,1.07,3.31,1.6,.36-2.26,3.39-.61,5.05-.46,2.54,.23,2.1-.99,2.52-3.11-1,.05-2.3,.35-3.26,.03-1.39-.46-1.19-1.06-1.42-2.37-.52,.09-1.04,.19-1.57,.28,.34,.64,.37,1.39,.1,2.06-.47-.51-1.11-1.01-1.47-1.59-.21-.34-.23-.99-.41-1.24-.68-.9-1.97-1.63-2.85-2.37-1.05,1.5,1.41,2.66,2.48,3.24-1.02,1.2-1.31,2.4-2.77,1.11,1.65,.1,1.83-.32,1.02-1.45-.86-1.21-2-1.87-3.21-1.81-.19,0-.33,.51-.52,.53-.2,.02-.76-.38-.93-.29-.11,.06-.5-.12-.66-.04-.1,.04,.08,.64,0,.72-.72,.64-1.24,1.61-1.87,2.27-.84,.88-1.74,1.67-3.03,.92-.95-.55-1.29-2.42-.67-3.4,.76-1.19,2.42,.3,3.51-.51,1.05-.78-.37-2.05-.92-2.67,.84-.32,1.83-.55,2.59-.99,.92-.54,.67-.96,1.44-1.53,.59-.44,.99-.17,1.38-.67,.57-.74-.68-1.52,.99-1.59-.91,2.34,3.19,2.06,4.38,1.22,.25-.18,.03-.78,.21-1.03,.16-.23,.56-.45,.73-.61v-.63h.8c.54-.39,.9,.33,1.16-.64-1.15,.2-1.81,.62-2.55-.13-1.04-1.06-.15-1.31,.78-2.06-1.69-1.21-4.19,2.22-2.12,2.52-.39,.48-1.43,2.37-2.01,2.49-1.15,.25-.95-1.35-1.1-2.13-.77,.31-1.29,.69-1.81,.36-.6-.38-.58-1.38-.41-1.69,.36-.63,1.99-.85,2.61-1.34,.65-.51,.96-1.51,1.65-1.97,2.38-1.56,7.09-.99,9.26,.68-.99,.6-2.23,.21-3.32,.08,.64,.84,1.53,1.89,2.69,1.52,.14-.05,.42-.79,.69-.96,.63-.41,1.7-.6,2.41-.85,2.39-.84,4.25-.86,6.74-.4-1.22-3.29,.76-1.42,3.03-1.82,1.09-.19,2.09-1.05,3.14-1.38,1.13-.36,2.42-.46,3.59-.68Z"/><path d="M77.59,20.88c-.91,.21-1.83,.41-2.74,.62,.3-.44,1.12-1.23,1.16-1.71,.1-1.04-.45-.5-.64-.88-.78-1.61-.36-1.66,1.1-2.47,.2,.8,.25,1.91,.65,2.65,.39,.73,1.6,1.07,.47,1.8Z"/><path d="M75.11,18.96c-.8,1.37-.15,1.36-2.01,1.66,.48-1.11,.21-2.37,2.01-1.66Z"/><path d="M98.82,10.9c-3.24-.98,1.85-2.41,2.48-2.57-1.32,0-3.17-.27-4.22,.77-1.17,1.15,.21,2.44,1.74,1.8Z"/><path d="M83.88,8.33c.39-.31,.78-.62,1.18-.93-1.27-.49-1.93-.49-3.29-.36,.71,.43,1.41,.86,2.12,1.29Z"/><path d="M84.54,6.69c.86,.96,2.04,.48,3.19,.32-1.07-.15-2.11-.25-3.19-.32Z"/><path d="M138.86,30.57c.18,.52,.68,1.05,1.02,1.49,.49-2.04,1.75-1,3.08-2.24,.72-.67,.67-2.07-.29-3.03-1.35-1.35-.28,.73-.81,1.68-.58,1.03-2.21,1.08-3,2.1Z"/><path d="M141.6,26.15c.14-.05,.28-.1,.42-.15-.07-.15-.14-.31-.21-.46,.77,.28,1.54,.28,1.78-.57-.85-.35-1.71-.7-2.56-1.05,.71,1-.39,1.52,.57,2.24Z"/><path d="M140.85,23.55h.65c-.97-1.58-2.02-2.89-3.24-4.32-.42,.96,1.96,3.35,2.59,4.32Z"/><path d="M136.49,35.3c-.75,.33-.71,1.08-.19,1.71,.06-.57,.13-1.14,.19-1.71Z"/><path d="M130.83,38.28h.8c-.25,.74-.14,.65-.91,.74,.03-.25,.07-.49,.1-.74Z"/><path d="M124.45,46.12c2.76,1.16,5.45,3.62,5.45,6.53-1.43-.11-2.47-1.94-3.05-3.02-.6-1.09-2.11-2.5-2.4-3.52Z"/><path d="M132.59,48.57c-.27-.06-.54-.12-.81-.18-.78,2.17,1.76,4.23,3.42,2.62,.77-.74,.61-2.11,.77-2.99,.22-1.23,.69-1.65-.51-2.58-.96,1.05-1.92,2.09-2.87,3.14Z"/><path d="M135.39,45.07c.59-.71,1.39-1.36,1.41-2.31-.47,.77-.94,1.54-1.41,2.31Z"/><path d="M137.4,42.35c-.95-1.31-.88-1.73-.76-3.33,1.14,.13,.56,1.73,1.25,2.54,1,1.17,2.21,1.16,2.29,3.03,.05,1.13-.57,2.12-1.83,.9-.83-.8-.27-2.14-.95-3.14Z"/><path d="M139.65,48.59c-1.1,.58-2.16-.32-2.85,.98,.92-.68,1.68-.38,2.72-.19,.04-.24,.15-.55,.13-.79Z"/><path d="M138.6,49.73c-1.07,.77-1.64-.26-2.07,1.16-.17,.57,.11,1.78,.74,1.76-.02-.68-.27-1.42,.27-1.84-.14,.81,.15,1.33,1.06,1-.25-.47-.5-.94-.76-1.41,.35,.04,.72-.14,1.07-.1l-.31-.57Z"/><path d="M134.27,53.81c-1.04-.27-3.51-1.46-4.36-.69,1.07,.47,3.48,1.67,4.36,.69Z"/><path d="M141.27,47.98c-.61,.56-.59,1.33-.26,2.03,.31-.63,.5-1.35,.26-2.03Z"/><path d="M141.07,51.06c.13,.62,.8,.46,1.5,.54-.14-.68-.78-.7-1.5-.54Z"/><path d="M140.35,51.06c.1,.09,.19,.18,.29,.27-.25,.07-.3,.07-.55,0,.09-.09,.17-.18,.26-.27Z"/><path d="M142.68,50.01c0,1.4,1.36,1.84,2.32,2.28,.94,.43,2.13,.89,.57,1.91,.75-.11,1.38,.38,1.97,.33,.3-.03,.66,.07,.95,0,.24-.06,.37-.88,.62-.88,.72,0,.62,.27,1.26,.72,.79,.57,.92,.73,2.01,1.03-.87-1.05-1.83-2.74-2.88-3.55-.47-.36-2.46-1.27-3.1-1.28-.76-.02-.99,.29-1.72,.84-.28-.94-.71-2.27-2.01-1.41Z"/><path d="M151.01,52.32c.83,.61,3.28,.42,2.51-.9-.71,1-1.34,.9-2.51,.9Z"/><path d="M143.02,55.67c-.35,.44-1.19,1.97-1.7,2.13-.79,.25-1.09-.51-1.71-.4-1.35,.25-2.78,2.63-3.95,3.32-2.03,1.18-3.1,.86-3.39,3.48-.11,.96,.39,2.08,.17,3.02-.21,.87-1.41,1.26,.14,1.74,1.47,.46,4.44-1.22,5.99-1.51,.84-.16,1.21-.46,2.04,.02,.67,.39,.69,1.11,1.14,1.77,2.77,4.06,7.5,.03,9.13-2.94,1.09-1.99,.55-3.61-.67-5.39-.52-.76-.83-.93-1.18-1.8-.43-1.07-.58-2.33-.86-3.45-.62,1.25-1.23,2.49-1.85,3.74-1.74-1.29-2.34-1.18-1.32-3.05-.66-.23-1.32-.46-1.98-.69Z"/><path d="M143.68,72.02c.73,.05,1.46,.09,2.19,.14-.64,.84-1.06,2.01-2.37,1.65l.17-1.78Z"/><path d="M151.86,74.9c1.68,.89,1.7,.57,3.28-.46,.86-.56,3.06-1.28,1.88-2.42-1.72,.96-3.44,1.92-5.15,2.88Z"/><path d="M134.9,54.02c.3,1.09,4.07,.25,5.19,0h-5.19Z"/><path d="M136.8,54.84c.23,.53,1.49,1.09,1.83,.41-.61-.14-1.22-.27-1.83-.41Z"/><path d="M101.38,56.28c-1.07,.97-2.42,1.77-2.74,3.14-.17,.72-.69,3.7-.06,4.16,1.46,1.07,1.95-2.24,2.23-3.02,.63-1.77,.96-2.48,.57-4.28Z"/></g><g><path d="M72,12.87c1.08,.29,1.6-.05,2.57-.48-.53-.46-3.97-.67-2.57,.48Z"/><path d="M43.92,46.41c-.91,1.5-1.76,2.71-2.07,4.41-.41,2.25,.18,2.81,1.38,4.85,.37,.63,.69,1.44,1.21,1.96,.7,.71,1.9,.97,2.61,1.67,1.1,1.1,.85,2.09,.95,3.77,.22,3.54,.08,7.09,1.24,10.46,.59,1.7,.91,3.12,2.08,4.47,1.68,1.93,2.3,1.99,4.83,1.99-2.06-1.63-2.92-1.86-2.97-4.36-.05-2.28-.24-2.94,1.17-4.68,2.65-3.28,6.32-6.56,7.73-10.5,.46-1.29,.92-2.57,1.38-3.86,.27-.74,1.48-2.79,1.28-3.57-.27-1.1-4-1.92-5.32-2.42-.56-.21-1.75-.43-2.15-.86-.75-.8-.5-2.41-1.2-3.25-.95-1.13-4.75-2.44-6.23-2.87-1.06-.31-1.45-.27-2.67-.09-1.08,.15-2.26,.72-3.19,.84-.39,.05-2.04-.15-2.37-.32-1.33-.69-.71-2.08-.52-3.17-.87-.1-1.74-.21-2.61-.31l1.39-3.29c-1.1,.32-1.36,.76-2.16,1.17-.51,.26-1.61,.89-2.24,.56-1.42-.73-1.17-3.75-.33-4.86,.7-.93,3.32-1.6,4.66-1.74,2.67-.27,2.57,.93,3.31,3.02,1.01-1.28-.13-2.61,.49-3.81,.5-.97,2.54-1.6,3.35-2.43,2.3-2.32,3.19-4.18,6.43-5.32v.69c.93-.37,1.86-.73,2.79-1.1h-1.98c.07-.54,.26-1.06,.59-1.51-.7,.1-1.39,.21-2.09,.31,1.76-.92,4.46-.59,5.95-1.54,1.59-1.01-.39-3.51-.97-4.77-.64,.38-1.28,.75-1.92,1.13-.72-1.03,.61-1.3-1.06-1.93-1.39-.52-1.62,0-2.38,.86-.8,.92-2.84,4.95-4.08,4.94,.37-1.56,.83-1.75-.4-2.43-.81-.45-3.5-.25-3.11-1.89,.27-1.11,4.97-2.96,6.16-3.63-.21,.39-.26,.87-.45,1.27l2.26-.03c-.48-.41-.95-.82-1.43-1.23,1.77-.22,2.09-.09,2.96-1.58-1.15-.23-1.94,.49-2.86,1.03,.25-1.27-1.17-.84-2.1-.85-2.13-.03-4.26-.06-6.4-.1-1.65-.02-3.35-.16-5.01-.07-1.24,.07-2.49,.53-3.72,.52-3.1-.02-5.22-1.34-8.32-.62-3.27,.76-5.18,2.27-7.92,4.17,.34,.39,.67,.78,1.01,1.17-.79,.55-1.58,1.1-2.37,1.65,2.44-.82,5.83-2.7,8.37-2.57,1.48,.07,3.06,.53,3.43,1.61,.35,1.04,.12,3.02-.19,4.07-.72,2.4-4.27,6.02-2.59,8.74,.22,.35,.93,.39,1.17,.77,.4,.64,.05,2.02,.23,2.76,.22,.92,.92,2.91,2.16,2.85-.8-1.79-1.33-3.05-1.5-4.97,1.4,.39,2.78,3.74,3.04,4.91,.11,.51-.12,1.22,.08,1.62,.27,.54,2.22,1.62,2.75,1.84,.73,.31,1.69,.02,2.38,.32,.52,.23,1.36,1.19,1.89,1.55,.39,.27,.87,.21,1.21,.51,.38,.34,.45,.98,.8,1.36,.6,.64,1.61,1.03,2.4,1.48,.48-1.97,1.53,.65,1.76,1.2Z"/><path d="M41.01,36.98c1.91-.74,3.04,1.49,4.95,1.13-2.05-1.07-2.79-1.96-4.95-1.13Z"/><path d="M46.4,38.35c.93,.1,2.23-.14,2.51,.86-1.13,.2-2.09,.53-3.13-.1,.35,.02,.73-.14,1.08-.15-.15-.2-.3-.4-.45-.6Z"/><path d="M43.86,38.95c.33,.03,.68,.15,1.01,.22-.25,.16-.72,.31-1.01,.38v-.6Z"/><path d="M49.4,38.95c.25,.24,.39,.47,1.08,.3-.36-.1-.72-.22-1.08-.3Z"/><path d="M58.49,20.93c-.58,.56-1.17,1.11-1.75,1.67,1.01,.25,2.02,.5,3.03,.75-.04-.44,.06-1.3-.16-1.7-.26-.49-1.22,.46-1.12-.72Z"/><path d="M56.74,12.4c-1,.45-1.99,.89-2.99,1.34,.87,.31,2.8,1.44,3.69,1.3,.89-.13,2.3-1.72,3.03-2.26-.96-.88-2.26-2.66-3.47-3.09-1.58-.56-3.73-.1-4.85,.93,.33,.28,.81,.9,1.22,1.03,.29,.09,.79-.43,1.09-.38,.87,.16,2,.26,2.28,1.13Z"/><path d="M55.74,11.99c-1.34,.38-.53,.8,.38,.29-.13-.1-.26-.19-.38-.29Z"/><path d="M49.78,11.99c-2.04-1.41,2.14-2.95,3.34-2.95-.62,.36-1.99,.85-2.3,1.42-.41,.74,.59,1.99-1.04,1.53Z"/><path d="M41.08,11.99c0-.56,.8-1.51,1.08-2.02-.81,.22-2.01,.97-2.33,0,1.48-.5,2.28-.9,3.73-.62,1.7,.32,2.19,.64,3.93,.35-.32,.8-.71,1.44-.45,2.3h-5.95Z"/><path d="M43.44,8.46c2.12,1,3.26,.69,5.64,.43-.79-.18-1.88-.78-2.61-.87-.89-.11-2.13,.31-3.03,.45Z"/><path d="M49.5,9.32c-.44,.04-.93,.26-1.36,.38,.07,.21,.39,.67,.56,.82,.65-.4,1.3-.8,1.95-1.2-.37,0-.78-.04-1.15,0Z"/><path d="M50.24,8.53c.91,.6,3.57,.31,4.67,.4,1.5,.11,1.8,.01,3.15-.67,2.48-1.25,5-1.66,7.75-2.26-2.85,0-5.93-.34-8.75,0-1.53,.18-6.72,.73-6.82,2.54Z"/><path d="M61.32,8.26c2.45-.76,4.47-1.35,7.02-1.52,2.69-.18,4.83-.07,7.49,.3-1.16,1.18-2.45,3.11-3.95,3.82-1.08,.52-2.56,.29-3.64,.81-.84,.4-1.6,1.35-2.29,1.95-1.77,1.53-2.61-.18-2.3-2,.12-.75,1.06-2.05,.23-2.81-.56-.5-1.89,0-2.56-.56Z"/></g></g></g></g></g><path class="cls-3" d="M78.09,103.79c-.26,0-.47-.21-.47-.47v-6.3c0-.26,.21-.47,.47-.47s.47,.21,.47,.47v6.3c0,.26-.21,.47-.47,.47Z"/><path class="cls-3" d="M91.55,103.32c0,.76-6.03,1.38-13.46,1.38s-13.46-.62-13.46-1.38,6.03-2.65,13.46-2.65,13.46,1.9,13.46,2.65Z"/></g></svg>