<?xml version="1.0" encoding="UTF-8"?><svg id="Camada_1" xmlns="http://www.w3.org/2000/svg" viewBox="0 0 103.12 100.64"><defs><style>.cls-1{fill:#0468b6;}.cls-2{fill:#006837;}.cls-3{fill:#ebebeb;}.cls-4{fill:#eb996e;}.cls-5{fill:#f5f5f5;}.cls-6{fill:#fff;}.cls-7{fill:#f2c6dd;}.cls-8{fill:#fafafa;}.cls-9{fill:#ffbe9d;}.cls-10{fill:#e8505b;}.cls-11{fill:#bf654e;}.cls-12{fill:#c78976;}.cls-13{fill:#e1e1e1;}.cls-14{fill:#067881;}.cls-15{fill:#375a64;}.cls-16{fill:#1a2e35;}.cls-17{fill:#47439d;}.cls-18{opacity:.3;}.cls-19{opacity:.6;}</style></defs><g><g><path class="cls-3" d="M93.25,51.59s-1.78-.13-1.62,3.88c.16,4,.57,6.14,.57,6.14,0,0-.05,.89-.74,.71-.69-.17-1.98-1.04-2.62-.39-.66,.67-.43,1.7,.45,2.91,.88,1.21,2.71,3.93,2.87,4.18,.16,.24,.23,.7-.26,.65-.49-.04-3.78-1.16-4.21,.43-.44,1.59,2.57,4.56,2.89,4.89,.32,.33,.34,.54,.21,.74-.13,.2-1.2-.28-2.15-.56-.95-.28-2.1-.44-2.27,.5-.17,.94,1.15,3.69,6.1,6.58l2.38,1.19,2.25-1.44c4.64-3.37,5.68-6.24,5.41-7.16-.27-.92-1.39-.65-2.31-.27-.92,.37-1.93,.96-2.08,.77-.15-.19-.15-.4,.13-.76,.29-.36,2.98-3.62,2.38-5.16-.59-1.54-3.75-.1-4.23-.01-.48,.09-.46-.37-.33-.62,.14-.26,1.69-3.15,2.44-4.44,.75-1.29,.88-2.34,.16-2.94-.7-.58-1.9,.41-2.57,.65s-.81-.64-.81-.64c0,0,.19-2.16-.04-6.16-.24-4-2.04-3.68-2.04-3.68"/><path class="cls-13" d="M93.39,55.17s0,.03,0,.08c0,.06,.01,.14,.02,.25,.01,.22,.04,.54,.06,.95,.05,.82,.12,2.01,.21,3.48,.16,2.94,.35,7,.55,11.48,.2,4.49,.38,8.55,.52,11.49,.07,1.47,.13,2.65,.18,3.48,.02,.41,.04,.73,.05,.95,0,.11,0,.19,0,.25,0,.06,0,.08,0,.08,0,0,0-.03,0-.08,0-.06-.01-.14-.02-.25-.01-.22-.04-.54-.06-.95-.05-.82-.12-2.01-.21-3.48-.16-2.94-.35-7-.55-11.49-.2-4.49-.38-8.55-.52-11.48-.07-1.47-.14-2.65-.18-3.48-.02-.41-.04-.73-.05-.95,0-.11,0-.19,0-.25,0-.06,0-.08,0-.08Z"/><path class="cls-13" d="M90.6,63.2s.06,.04,.15,.12c.09,.08,.22,.21,.38,.36,.31,.31,.74,.75,1.19,1.25,.45,.49,.85,.93,1.17,1.27,.14,.15,.26,.28,.35,.38,.08,.09,.13,.14,.12,.15,0,0-.06-.04-.15-.12-.09-.08-.22-.21-.38-.37-.31-.31-.73-.76-1.19-1.26-.45-.49-.86-.93-1.17-1.27-.14-.15-.26-.28-.36-.38-.08-.09-.13-.14-.12-.15Z"/><path class="cls-13" d="M94.2,66.66s.85-.93,1.95-2.04c1.09-1.11,1.99-1.99,2.01-1.97,.02,.02-.85,.93-1.95,2.04-1.09,1.11-1.99,1.99-2.01,1.97Z"/><path class="cls-13" d="M94.19,73.57s.06-.04,.17-.11c.13-.07,.28-.16,.47-.26,.39-.22,.94-.53,1.52-.89,.59-.36,1.11-.7,1.48-.95,.17-.12,.32-.22,.44-.3,.11-.07,.17-.11,.17-.1s-.05,.05-.15,.13c-.1,.08-.25,.19-.43,.32-.37,.26-.88,.62-1.47,.98-.59,.36-1.14,.66-1.54,.87-.2,.1-.37,.18-.48,.24-.11,.05-.18,.08-.18,.07Z"/><path class="cls-13" d="M90.25,71.15s.06,.02,.16,.08c.1,.05,.25,.14,.43,.24,.36,.21,.86,.5,1.41,.82,.55,.33,1.04,.62,1.39,.84,.18,.11,.32,.2,.42,.26,.1,.06,.15,.1,.15,.11,0,0-.06-.02-.16-.08-.1-.05-.25-.14-.43-.24-.36-.21-.86-.5-1.41-.82-.55-.33-1.04-.62-1.39-.84-.18-.11-.32-.2-.42-.26-.1-.06-.15-.1-.15-.11Z"/><path class="cls-13" d="M89.46,77.24s.08,.03,.21,.1c.15,.08,.33,.18,.55,.31,.47,.26,1.11,.63,1.81,1.04,.71,.41,1.34,.79,1.8,1.06,.22,.13,.4,.24,.54,.33,.13,.08,.19,.13,.19,.13,0,0-.08-.03-.21-.1-.15-.08-.33-.18-.55-.31-.47-.26-1.11-.63-1.81-1.04-.7-.41-1.34-.79-1.8-1.06-.22-.13-.4-.24-.54-.33-.13-.08-.19-.13-.19-.13Z"/><path class="cls-13" d="M94.47,80.11s.07-.05,.21-.14c.15-.09,.35-.21,.58-.35,.49-.3,1.16-.71,1.89-1.19,.73-.48,1.38-.92,1.85-1.25,.22-.16,.41-.29,.56-.39,.13-.09,.21-.14,.21-.13,0,0-.06,.06-.19,.16-.13,.1-.31,.24-.54,.41-.46,.34-1.11,.8-1.84,1.27-.73,.48-1.41,.88-1.91,1.17-.25,.14-.45,.25-.59,.33-.14,.07-.22,.11-.22,.11Z"/></g><g><polygon class="cls-13" points="98.05 84.22 91.46 84.22 93.61 100.5 95.9 100.5 98.05 84.22"/><path class="cls-5" d="M91.8,86.22s0,.02,.04,.06c.03,.03,.08,.08,.16,.11,.16,.07,.43,.07,.7-.09,.27-.15,.5-.44,.85-.56,.35-.14,.79-.11,1.21,.02,.42,.13,.79,.35,1.13,.55,.34,.2,.64,.38,.92,.49,.27,.12,.51,.17,.68,.2,.08,.01,.15,.01,.19,.01,.04,0,.07,0,.07,0,0-.02-.37-.02-.9-.27-.27-.12-.56-.3-.9-.51-.33-.2-.71-.43-1.15-.56-.43-.14-.9-.16-1.28-.01-.19,.07-.35,.19-.48,.3-.13,.11-.26,.22-.38,.29-.24,.16-.49,.16-.64,.11-.15-.05-.2-.14-.21-.13Z"/><path class="cls-5" d="M92.04,89.22s.05-.07,.16-.17c.1-.1,.28-.24,.53-.33,.25-.09,.56-.15,.92-.14,.35,.01,.74,.09,1.15,.16,.41,.07,.81,.1,1.17,.05,.36-.05,.67-.15,.92-.26,.25-.11,.43-.24,.56-.33,.12-.09,.18-.15,.18-.16-.01-.02-.27,.21-.76,.42-.25,.1-.55,.2-.91,.24-.35,.04-.74,.01-1.15-.06-.41-.07-.8-.14-1.16-.15-.36,0-.69,.06-.95,.17-.26,.11-.43,.26-.53,.38-.05,.06-.08,.11-.1,.15-.02,.04-.03,.05-.02,.06Z"/><path class="cls-5" d="M97.3,90.83s-.06-.05-.18-.09c-.12-.05-.31-.1-.55-.12-.24-.02-.52,0-.83,.05-.31,.05-.64,.13-.98,.21-.35,.07-.68,.12-.98,.11-.3-.01-.57-.08-.78-.17-.42-.19-.58-.46-.59-.44,0,0,.03,.07,.11,.17,.08,.1,.23,.23,.45,.34,.21,.11,.49,.18,.81,.2,.32,.02,.66-.03,1.01-.1,.35-.07,.68-.16,.98-.22,.3-.06,.57-.08,.8-.07,.46,.02,.73,.16,.73,.14Z"/><path class="cls-5" d="M92.62,93.08s.24-.15,.64-.06c.2,.04,.42,.14,.67,.25,.25,.12,.55,.21,.87,.24,.65,.06,1.22-.15,1.58-.37,.18-.11,.31-.22,.39-.3,.08-.09,.12-.13,.12-.14-.01-.02-.19,.18-.55,.38-.35,.2-.91,.38-1.53,.32-.62-.04-1.1-.41-1.54-.46-.21-.03-.39,0-.5,.04-.11,.04-.16,.09-.16,.1Z"/><path class="cls-5" d="M92.99,96.21s.22,.01,.55-.11c.33-.11,.74-.36,1.22-.55,.24-.09,.48-.15,.7-.15,.22,0,.41,.05,.56,.13,.3,.15,.39,.36,.41,.35,0,0,0-.06-.06-.14-.05-.08-.15-.19-.31-.28-.15-.09-.36-.15-.6-.16-.24,0-.49,.05-.74,.15-.5,.2-.89,.46-1.21,.58-.31,.13-.52,.16-.52,.18Z"/><path class="cls-5" d="M93.31,97.66s.15,.07,.42,.14c.26,.07,.63,.14,1.04,.18,.41,.04,.79,.04,1.06,.03,.27-.01,.44-.04,.44-.05,0-.03-.67,0-1.48-.09-.81-.08-1.46-.24-1.47-.2Z"/></g></g><g><rect class="cls-8" x="75.74" width="20.47" height="26.35"/><g><path class="cls-3" d="M90.97,3.87s-.01,.02-.04,.05c-.03,.04-.07,.09-.12,.15-.05,.06-.12,.14-.18,.24-.07,.1-.15,.21-.23,.35-.17,.26-.33,.61-.48,1.03-.15,.42-.28,.91-.38,1.46-.1,.55-.15,1.16-.19,1.82-.04,.66-.04,1.36-.08,2.1-.03,.74-.1,1.52-.25,2.32-.08,.4-.19,.8-.33,1.19-.14,.4-.33,.78-.56,1.15-.46,.74-1.11,1.31-1.81,1.73-.7,.42-1.44,.7-2.15,.91-.71,.22-1.4,.37-2.05,.52-.64,.15-1.24,.29-1.78,.45-.54,.16-1.01,.33-1.42,.51-.41,.18-.74,.37-1,.54-.13,.09-.25,.16-.34,.24-.1,.07-.18,.13-.24,.19-.06,.05-.11,.09-.14,.12-.03,.03-.05,.04-.05,.04,0,0,.01-.02,.04-.05,.04-.03,.08-.08,.14-.13,.06-.06,.14-.12,.23-.2,.09-.08,.21-.16,.34-.25,.26-.18,.59-.38,1-.56,.41-.19,.88-.37,1.42-.53,.54-.16,1.14-.31,1.78-.46,.64-.15,1.33-.31,2.04-.52,.71-.22,1.43-.5,2.12-.91,.68-.41,1.32-.98,1.77-1.7,.22-.36,.41-.74,.55-1.13,.14-.39,.24-.78,.32-1.18,.15-.79,.22-1.56,.26-2.3,.04-.74,.04-1.45,.09-2.11,.04-.66,.1-1.27,.21-1.83,.1-.55,.24-1.05,.4-1.47,.16-.42,.33-.77,.5-1.03,.08-.14,.17-.25,.24-.35,.07-.1,.14-.18,.19-.24,.05-.06,.09-.1,.13-.14,.03-.03,.04-.05,.05-.04Z"/><path class="cls-3" d="M93.88,6.98s0,.02-.02,.06c-.02,.04-.05,.1-.08,.17-.08,.14-.21,.36-.41,.6-.2,.24-.48,.52-.85,.78-.36,.26-.81,.51-1.34,.73-.52,.21-1.12,.38-1.77,.53-.65,.15-1.34,.28-2.07,.44-.72,.17-1.47,.38-2.19,.75-.72,.35-1.41,.86-1.88,1.56-.48,.7-.69,1.53-.77,2.33-.08,.8-.02,1.58,.06,2.32,.08,.74,.18,1.44,.24,2.1,.05,.66,.06,1.28-.01,1.85-.07,.56-.21,1.06-.38,1.47-.17,.42-.38,.75-.58,.99-.2,.25-.39,.41-.51,.51-.06,.05-.11,.08-.15,.11-.04,.02-.05,.04-.05,.03,0,0,.02-.02,.05-.04,.04-.03,.09-.07,.15-.12,.12-.11,.31-.27,.49-.52,.19-.25,.39-.58,.56-.99,.17-.41,.3-.9,.36-1.46,.06-.56,.06-1.17,0-1.83-.06-.66-.16-1.36-.25-2.1-.09-.74-.15-1.53-.07-2.34,.07-.81,.29-1.66,.78-2.38,.49-.73,1.2-1.24,1.93-1.6,.73-.36,1.49-.58,2.22-.75,.73-.17,1.42-.29,2.07-.43,.64-.14,1.24-.31,1.76-.51,.52-.21,.97-.45,1.33-.71,.37-.25,.65-.52,.85-.75,.21-.23,.34-.44,.43-.58,.04-.07,.07-.12,.09-.16,.02-.04,.03-.05,.04-.05Z"/><path class="cls-3" d="M86.49,17.23s-.23-.14-.58-.39c-.35-.26-.83-.61-1.36-1.02-.53-.4-1-.77-1.34-1.04-.34-.27-.54-.45-.53-.46,0-.01,.23,.14,.58,.39s.83,.61,1.36,1.02c.53,.4,1,.77,1.34,1.04s.54,.45,.53,.46Z"/><path class="cls-3" d="M88.11,15.74s-.07-.04-.19-.12c-.12-.08-.29-.21-.5-.36-.42-.31-.99-.74-1.62-1.22-.63-.48-1.2-.92-1.6-1.25-.2-.16-.37-.29-.48-.39-.11-.09-.17-.15-.17-.16,0,0,.07,.04,.19,.12,.12,.08,.29,.21,.5,.36,.42,.31,.99,.74,1.62,1.22,.63,.48,1.2,.92,1.6,1.25,.2,.16,.37,.29,.48,.39,.11,.09,.17,.15,.17,.16Z"/><path class="cls-3" d="M88.74,13.91s-.22-.13-.56-.38c-.34-.25-.8-.59-1.31-.98-.51-.39-.96-.74-1.29-1-.33-.26-.52-.43-.51-.44,0-.01,.22,.13,.56,.38,.34,.25,.8,.59,1.31,.98,.51,.39,.96,.74,1.29,1,.33,.26,.52,.43,.51,.44Z"/><path class="cls-3" d="M89.2,11.83s-.47-.29-1.01-.7c-.54-.41-.96-.76-.94-.79,.02-.03,.47,.29,1.01,.7,.54,.41,.96,.76,.94,.79Z"/><path class="cls-3" d="M91.65,9.08s-.52-.32-1.12-.78c-.6-.46-1.07-.85-1.05-.88,.02-.03,.52,.32,1.12,.78,.6,.46,1.07,.85,1.05,.88Z"/><path class="cls-3" d="M93.72,7.94s-.22-.13-.56-.38c-.34-.25-.8-.59-1.31-.98-.51-.39-.96-.74-1.29-1s-.52-.43-.51-.44c0-.01,.22,.13,.56,.38,.34,.25,.8,.59,1.31,.98,.51,.39,.96,.74,1.29,1,.33,.26,.52,.43,.51,.44Z"/><path class="cls-3" d="M84.57,17.89s-.52-.32-1.12-.78c-.6-.46-1.07-.85-1.05-.88,.02-.03,.52,.32,1.12,.78,.6,.46,1.07,.85,1.05,.88Z"/><path class="cls-3" d="M82.15,20.9s-.49-.3-1.05-.73c-.56-.43-.99-.79-.97-.82,.02-.03,.49,.3,1.05,.73,.56,.43,.99,.79,.97,.82Z"/><path class="cls-3" d="M82.06,23.26s-.23-.14-.57-.39c-.34-.25-.82-.6-1.33-1-.52-.39-.98-.76-1.31-1.02-.33-.27-.53-.44-.52-.45,0-.01,.23,.14,.57,.39,.34,.25,.82,.6,1.33,1,.52,.39,.98,.76,1.31,1.02,.33,.27,.53,.44,.52,.45Z"/></g><path class="cls-13" d="M78,1.56c0,.23-.18,.41-.41,.41s-.41-.18-.41-.41,.18-.41,.41-.41,.41,.18,.41,.41Z"/><path class="cls-13" d="M94.76,1.56c0,.23-.18,.41-.41,.41s-.41-.18-.41-.41,.18-.41,.41-.41,.41,.18,.41,.41Z"/></g><g><g><rect class="cls-13" x="5.63" y="1.44" width="15.99" height="23.18"/><rect class="cls-5" x="4.83" y="1.44" width="15.99" height="23.18"/><g><rect class="cls-6" x="6.81" y="3.95" width="12.02" height="18.16"/><path class="cls-13" d="M18.83,22.11s0-.03,0-.09c0-.06,0-.15,0-.26,0-.23,0-.56,0-1,0-.87,0-2.14-.01-3.74,0-3.2-.01-7.74-.02-13.08l.04,.04c-3.67,0-7.74,0-12.02,0h0l.04-.04c0,6.85,0,13.17,0,18.16l-.03-.03c3.66,0,6.66,.01,8.75,.02,1.04,0,1.86,0,2.42,0,.28,0,.49,0,.63,0,.14,0,.22,0,.22,0,0,0-.07,0-.21,0-.14,0-.35,0-.63,0-.56,0-1.37,0-2.41,0-2.09,0-5.1,.01-8.77,.02h-.03s0-.03,0-.03c0-4.99,0-11.31,0-18.16v-.04s.04,0,.04,0h0c4.28,0,8.34,0,12.02,0h.04v.04c0,5.35-.01,9.89-.02,13.1,0,1.6,0,2.86-.01,3.73,0,.43,0,.76,0,.99,0,.11,0,.19,0,.25,0,.06,0,.08,0,.08Z"/></g><path class="cls-13" d="M20.86,1.44s-.1,.17-.29,.41c-.19,.25-.45,.59-.75,.95-.3,.37-.58,.69-.79,.92-.21,.23-.34,.37-.35,.36,0,0,.11-.16,.31-.4,.21-.26,.48-.58,.77-.93,.29-.35,.55-.67,.77-.93,.2-.24,.32-.38,.33-.38Z"/><g><path class="cls-6" d="M18.89,22.05c.6,.95,1.3,1.83,2.1,2.62"/><path class="cls-13" d="M20.99,24.67s-.15-.12-.37-.33c-.21-.22-.5-.53-.79-.89-.29-.36-.53-.71-.7-.97-.16-.26-.25-.42-.24-.43,.01,0,.12,.15,.29,.4,.18,.25,.42,.59,.71,.95,.29,.36,.56,.68,.77,.9,.2,.23,.33,.37,.32,.37Z"/></g><g><path class="cls-6" d="M4.82,24.6c.7-.86,1.4-1.72,2.09-2.58"/><path class="cls-13" d="M6.92,22.01s-.44,.61-1.01,1.32c-.58,.71-1.06,1.28-1.08,1.26-.02-.02,.44-.61,1.01-1.32,.58-.71,1.06-1.28,1.08-1.26Z"/></g><path class="cls-13" d="M4.83,1.44s.47,.53,1.02,1.22c.54,.69,.97,1.25,.95,1.27-.02,.01-.47-.53-1.02-1.22-.54-.69-.97-1.25-.95-1.27Z"/></g><g><circle class="cls-13" cx="14.18" cy="13.32" r="1.29"/><path class="cls-13" d="M16.16,8.79c0,.53-.43,.96-.96,.96s-.96-.43-.96-.96,.43-.96,.96-.96,.96,.43,.96,.96Z"/><path class="cls-13" d="M12.41,10.27c0,.38-.31,.7-.7,.7s-.7-.31-.7-.7,.31-.7,.7-.7,.7,.31,.7,.7Z"/><path class="cls-13" d="M16.25,17.57c-.17,.17-.44,.17-.61,0-.17-.17-.17-.44,0-.61,.17-.17,.44-.17,.61,0s.17,.44,0,.61Z"/><path class="cls-13" d="M10.39,14.14c0,.38-.31,.7-.7,.7s-.7-.31-.7-.7,.31-.7,.7-.7,.7,.31,.7,.7Z"/><path class="cls-13" d="M14.18,13.32s.47,.81,.96,1.85c.49,1.04,.85,1.91,.8,1.93-.04,.02-.47-.81-.96-1.85-.49-1.04-.85-1.91-.8-1.93Z"/><path class="cls-13" d="M14.08,13.45s-.93,.23-2.1,.4c-1.17,.17-2.12,.27-2.12,.23,0-.05,.93-.23,2.1-.4,1.17-.17,2.12-.27,2.12-.23Z"/><path class="cls-13" d="M13.99,12.84s-.63-.45-1.23-1.19c-.6-.73-.97-1.41-.93-1.44,.04-.03,.47,.6,1.06,1.33,.59,.72,1.13,1.26,1.09,1.3Z"/><path class="cls-13" d="M15.2,8.79h0s0,0,0,0h0s0,.04,0,.04l-.02,.12c-.03,.15-.06,.3-.1,.45-.09,.38-.22,.91-.36,1.49-.3,1.16-.55,2.1-.59,2.09-.05-.01,.12-.97,.42-2.13,.15-.58,.3-1.1,.41-1.48,.06-.19,.11-.34,.15-.44,.02-.05,.04-.09,.05-.12,0-.01,.01-.02,.02-.03h0s.02,0,.01,0c0,0,0,0,0,0Z"/></g></g><path class="cls-16" d="M103.12,100.47s-23.09,.06-51.56,.06-51.56-.03-51.56-.06,23.08-.06,51.56-.06,51.56,.03,51.56,.06Z"/><g><g><path class="cls-15" d="M76.27,93.18l.13,4.67s-4.7,1.7-4.76,2.57l9.06,.06,.09-7.28-4.52-.02Z"/><path class="cls-16" d="M75.31,98.19s.18,.12,.33,.31c.15,.18,.19,.39,.23,.38,.04,0,.07-.25-.12-.48-.19-.23-.45-.25-.45-.21Z"/><path class="cls-16" d="M74.76,99.32s.1-.21,0-.45c-.11-.24-.32-.34-.34-.3-.03,.04,.11,.17,.2,.37,.09,.2,.1,.39,.15,.39Z"/></g><g><path class="cls-15" d="M92.12,93.18l.95,4.66s4.7,1.7,4.76,2.57l-9.06,.06-1.1-7.27,4.45-.02Z"/><path class="cls-16" d="M94.17,98.18s-.18,.12-.33,.31c-.15,.18-.19,.39-.23,.38-.04,0-.07-.25,.12-.48,.19-.23,.45-.25,.45-.21Z"/><path class="cls-16" d="M94.72,99.32s-.1-.21,0-.45c.11-.24,.32-.34,.34-.3,.03,.04-.11,.17-.2,.37-.09,.2-.1,.39-.15,.39Z"/></g><g><polygon class="cls-1" points="87.54 48.7 94.39 97.83 87.75 97.7 80.29 55.89 82.02 97.89 74.74 97.45 72.19 48.41 87.54 48.7"/><g class="cls-18"><polygon points="72.38 52.26 72.35 51.55 88.01 52.04 88.17 53.4 72.38 52.26"/></g><path class="cls-16" d="M77.41,97.64s-.52-9.77-1.08-21.83c-.56-12.06-.99-21.84-.96-21.84,.03,0,.52,9.77,1.08,21.83,.56,12.06,.99,21.84,.96,21.84Z"/><path class="cls-16" d="M91.21,97.25s0-.04-.02-.11c-.01-.08-.03-.19-.05-.33-.04-.29-.11-.71-.19-1.25-.16-1.09-.39-2.67-.68-4.61-.58-3.89-1.41-9.26-2.38-15.18-.98-5.92-1.92-11.27-2.63-15.14-.35-1.93-.64-3.49-.84-4.58-.1-.54-.17-.96-.23-1.25-.02-.14-.04-.25-.06-.32-.01-.07-.02-.11-.02-.11,0,0,.01,.04,.03,.11,.02,.08,.04,.18,.07,.32,.06,.29,.14,.71,.25,1.24,.21,1.08,.51,2.64,.87,4.57,.72,3.87,1.68,9.21,2.66,15.13,.98,5.92,1.79,11.29,2.35,15.18,.28,1.95,.5,3.52,.65,4.61,.07,.54,.13,.96,.17,1.26,.02,.14,.03,.25,.04,.33,0,.07,0,.11,0,.11Z"/></g><g><g><path class="cls-1" d="M71.87,36.18s-3.43-.82-3.54-.96l2.82-7.26c.39-1.02,1.06-1.91,1.95-2.53,.41-.28,.86-.51,1.33-.67,1.83-.62,3.33-.51,3.33-.51l4.76-.25c1.48,.09,2.74,.52,3.76,1.04,1.61,.82,2.84,2.22,3.53,3.89l2.13,5.33-5.39,1.13-.2,5.73,2.46,10.98-17.19-.56,.77-15.05h0l-.53-.29Z"/><g class="cls-18"><path class="cls-6" d="M68.92,34.27s.88,.31,1.99,.65c1.1,.34,2,.61,2.01,.59s-.88-.31-1.99-.65c-1.1-.34-2-.61-2.01-.59Z"/></g><path class="cls-16" d="M84.48,29.16s.04-.04,.09-.12c.05-.08,.14-.2,.25-.34,.11-.14,.24-.3,.4-.47,.16-.17,.35-.35,.56-.52,.21-.17,.42-.31,.62-.44,.2-.12,.39-.22,.55-.3,.16-.08,.29-.13,.38-.17,.09-.04,.14-.06,.14-.06,0,0-.05,.01-.15,.04-.1,.03-.23,.08-.39,.15-.16,.07-.35,.17-.56,.29-.2,.12-.42,.27-.63,.44-.21,.17-.4,.35-.56,.52-.16,.17-.29,.34-.4,.49-.1,.15-.18,.27-.23,.35-.05,.09-.08,.14-.07,.14Z"/><path class="cls-16" d="M85.18,30.9s.15,1.75,.37,3.91c.22,2.16,.41,3.9,.43,3.9,.02,0-.15-1.75-.37-3.91-.22-2.16-.41-3.9-.43-3.9Z"/><path class="cls-16" d="M73.47,27.65s.03-.14,.08-.36c.05-.22,.12-.52,.24-.84,.12-.32,.25-.6,.35-.8,.1-.2,.17-.32,.17-.32,0,0-.03,.03-.06,.08-.04,.05-.09,.13-.14,.23-.11,.19-.25,.47-.37,.8-.12,.32-.19,.63-.22,.85-.02,.11-.03,.2-.03,.26,0,.06,0,.1,0,.1Z"/><path class="cls-16" d="M73.17,33.77s.01-.06,.03-.17c.01-.11,.03-.27,.05-.47,.04-.4,.08-.95,.1-1.56,.02-.61,.02-1.17,0-1.57,0-.2-.01-.36-.02-.47,0-.11-.01-.17-.02-.17,0,0,0,.06,0,.17,0,.12,0,.28,0,.47,0,.4,0,.95-.03,1.56-.02,.61-.06,1.16-.08,1.56-.01,.19-.02,.35-.03,.47,0,.11,0,.17,0,.17Z"/><path class="cls-6" d="M80.37,32.75c1.25,.07,2.51,.05,3.75-.07v.49h-3.75v-.42Z"/><g class="cls-18"><path class="cls-6" d="M76.64,24.65s0,.02-.01,.07c0,.05-.02,.12-.03,.22-.02,.19-.06,.47-.08,.82-.06,.7-.11,1.71-.12,2.89v.05s.04-.02,.04-.02c.75-.36,1.59-.76,2.46-1.2,1.66-.83,3.17-1.59,4.26-2.13,.54-.27,.98-.5,1.29-.65,.15-.08,.27-.14,.35-.18,.04-.02,.07-.04,.09-.05,.02-.01,.03-.02,.03-.02s-.01,0-.03,.01c-.02,.01-.05,.03-.09,.04-.08,.04-.2,.1-.35,.17-.31,.15-.75,.37-1.3,.64-1.1,.54-2.6,1.29-4.27,2.12-.87,.44-1.71,.83-2.46,1.2l.04,.03c.01-1.18,.05-2.18,.1-2.89,.02-.35,.05-.63,.07-.82,.01-.09,.02-.16,.02-.22,0-.05,0-.07,0-.08Z"/></g><g class="cls-18"><path class="cls-6" d="M85.6,34.77s.02,0,.06-.01c.05-.01,.1-.03,.17-.04,.16-.04,.38-.1,.64-.16,.54-.14,1.29-.33,2.12-.53,.83-.2,1.58-.37,2.12-.5,.27-.06,.48-.11,.64-.15,.07-.02,.13-.03,.17-.04,.04-.01,.06-.02,.06-.02,0,0-.02,0-.06,0-.05,0-.11,.02-.18,.03-.15,.03-.38,.07-.65,.13-.55,.11-1.3,.28-2.13,.48-.83,.2-1.58,.4-2.11,.55-.27,.07-.49,.14-.64,.18-.07,.02-.13,.04-.17,.05-.04,.01-.06,.02-.06,.02Z"/></g><g><path class="cls-16" d="M77.3,23.76s-.32,.15-.63,.61c-.31,.46-.59,1.17-.75,1.99-.08,.41-.12,.81-.14,1.17,0,.18,0,.35,0,.51,0,.16,.01,.31,.02,.45,.01,.13,.03,.26,.04,.37,.01,.11,.03,.2,.05,.27,.03,.15,.05,.23,.06,.23,0,0,0-.09,0-.24,0-.08-.02-.17-.03-.27,0-.11-.01-.23-.02-.36,0-.13,0-.28,0-.44,0-.16,0-.33,.01-.51,.02-.36,.07-.74,.14-1.15,.16-.8,.43-1.51,.71-1.97,.14-.23,.29-.39,.39-.5,.11-.11,.18-.15,.17-.16Z"/><path class="cls-16" d="M82.62,23.79s.09,.13,.25,.36c.16,.23,.37,.57,.55,1.03,.19,.46,.32,1.03,.41,1.68,.09,.65,.12,1.38,.17,2.14,.04,.76,.04,1.49,.04,2.15,0,.66,0,1.26,0,1.76,0,.5,.01,.91,.03,1.19,.01,.28,.03,.43,.04,.43,.01,0,.02-.16,.03-.43,0-.28,.02-.69,.03-1.18,.01-.5,.03-1.09,.04-1.76,0-.66,.01-1.39-.03-2.16-.05-.76-.09-1.49-.19-2.15-.1-.66-.25-1.25-.46-1.71-.2-.46-.43-.81-.61-1.02-.18-.22-.3-.32-.3-.31Z"/><path class="cls-16" d="M74.75,33.59s.02-.14,.02-.39c0-.25,.01-.61,.02-1.06,0-.22,0-.47,0-.73,0-.26,0-.54,.02-.83,.02-.29,.1-.59,.3-.82,.2-.23,.5-.39,.83-.39,.32,0,.63,.13,.86,.33,.23,.2,.36,.48,.44,.76,.07,.28,.1,.56,.15,.82,.04,.26,.08,.5,.11,.72,.07,.44,.13,.8,.17,1.04,.04,.25,.07,.38,.08,.38,0,0,0-.14-.03-.39-.03-.25-.08-.61-.14-1.05-.03-.22-.06-.46-.1-.72-.04-.26-.07-.54-.14-.83-.07-.29-.21-.6-.47-.82-.25-.22-.58-.37-.95-.37-.36,0-.7,.18-.91,.43-.23,.26-.3,.59-.32,.89-.02,.3,0,.58,0,.84,0,.26,0,.51,0,.73,0,.45,.01,.81,.02,1.06,0,.25,.02,.39,.02,.39Z"/><path class="cls-16" d="M75.88,28.23c.04,.41,.17,.87,.45,1.17-.25-.05-.51-.05-.76,.01,.18-.36,.21-.79,.2-1.18"/><path class="cls-16" d="M74.74,30.9s.04-.2,.19-.46c.07-.13,.19-.28,.34-.41,.15-.13,.35-.23,.58-.27,.22-.04,.45,0,.63,.06,.19,.07,.34,.17,.45,.27,.23,.21,.3,.39,.32,.38,.01,0-.04-.21-.26-.44-.11-.12-.27-.24-.47-.32-.2-.08-.45-.12-.7-.08-.25,.05-.47,.17-.63,.31-.16,.14-.27,.31-.34,.45-.14,.3-.12,.51-.11,.5Z"/></g></g><g><path class="cls-9" d="M71.61,44.17c-.7,0-1.32-.5-1.65-1.12s-.41-1.33-.44-2.03c-.09-1.84,.14-3.7,.67-5.47l3.06,.53-.83,8.24-.8-.15Z"/><g><polygon class="cls-16" points="83.98 45.2 74.02 44.84 71.6 33.17 82.09 33.75 83.98 45.2"/><path class="cls-15" d="M78.85,33.55l-.15-.3-.79-.06s-.2-.52-1.34-.57c-1.02-.05-1.06,.46-1.06,.46h-.55v.25l3.89,.22Z"/></g><g><path class="cls-9" d="M73.3,41.44l-.76-.22c-.14-.04-.29-.05-.44-.02h0c-.18,.04-.34,.12-.47,.25-.25,.25-.65,.65-.71,.77-.08,.18-.08,.48,0,.6s-.19,.69-.15,.89c.03,.19,.08,.39,.15,.47,.07,.08,0,.36,.17,.57,.17,.21,.32,.34,.32,.34,0,0,2.07,.1,2.28,0,.2-.1,.56-.47,.56-.47,0,0,.19-.34-.1-.37l1.18-.45c.14-.05,.23-.21,.17-.35-.02-.05-.05-.09-.1-.11,0,0,.53-.17,.65-.22,.24-.11,.34-.68-.17-.61-.27,.04-.63,.12-.63,.12,0,0,.19-.31-.08-.5-.16-.11-.9,.02-.9,.02l-.97-.69h0Z"/><path class="cls-4" d="M73.04,44.55s.28,0,.61-.09c.33-.09,.57-.24,.57-.26,0-.01-.25,.11-.58,.2-.33,.09-.6,.13-.6,.15Z"/><path class="cls-4" d="M73.49,43.81s.44-.08,.96-.21c.53-.13,.95-.26,.95-.27,0-.02-.44,.08-.96,.21-.53,.13-.95,.26-.95,.27Z"/><path class="cls-4" d="M73.24,43.08s.47-.08,1.04-.21c.57-.13,1.03-.25,1.02-.27,0-.02-.47,.08-1.04,.21-.57,.13-1.03,.25-1.02,.27Z"/><path class="cls-4" d="M72.47,42.14s.1,.04,.27,.08c.09,.02,.19,.05,.29,.08,.06,.01,.11,.03,.17,.04,.06,.02,.13,.02,.2,.02,.07,0,.13-.02,.19-.03,.06-.01,.12-.03,.17-.04,.1-.03,.2-.05,.29-.07,.17-.04,.27-.07,.27-.08,0,0-.11,0-.28,.04-.09,.02-.19,.04-.3,.06-.11,.02-.23,.06-.36,.07-.13,.01-.24-.03-.36-.06-.11-.02-.2-.04-.3-.06-.17-.03-.27-.05-.28-.04Z"/><path class="cls-4" d="M72.34,42.53s-.03,.02-.06,.08c-.02,.05-.04,.14,0,.23,.03,.09,.09,.15,.14,.19,.05,.03,.09,.04,.09,.03,0-.01-.12-.08-.17-.23-.05-.15,.02-.28,0-.29Z"/><path class="cls-4" d="M72.38,43.33s-.06,.08-.05,.19c0,.11,.06,.19,.08,.18,.02,0-.01-.09-.01-.19,0-.1,.01-.18,0-.19Z"/><path class="cls-4" d="M72.37,44.2s-.05,.05-.03,.12c.01,.07,.07,.11,.08,.1,.01-.01,0-.06-.02-.11-.01-.06-.01-.11-.03-.11Z"/><path class="cls-4" d="M72.15,42.09s.08,0,.2-.01c.07,0,.14-.02,.21-.03,.08-.01,.16-.03,.25-.01,.08,.01,.16,.06,.23,.1,.06,.04,.12,.09,.18,.12,.11,.07,.19,.07,.19,.07,0-.01-.07-.03-.17-.1-.1-.07-.21-.21-.42-.25-.05,0-.1,0-.14,0-.05,0-.09,.01-.13,.02-.07,.01-.14,.03-.21,.04-.12,.02-.19,.04-.19,.05Z"/></g><path class="cls-4" d="M70.95,44.21s-.02-.05-.05-.15c-.03-.09-.09-.23-.08-.41,0-.09,.02-.19,.04-.29,.02-.1,.07-.21,.1-.33,.03-.13,0-.26-.03-.38-.02-.12,.01-.26,.07-.38,.06-.12,.14-.23,.22-.33,.08-.1,.16-.2,.24-.29,.16-.18,.33-.32,.49-.38,.16-.07,.31-.08,.41-.06,.1,.01,.15,.04,.15,.03,0,0-.01,0-.04-.02-.02-.01-.06-.03-.11-.04-.1-.02-.26-.02-.43,.05-.18,.07-.35,.21-.52,.39-.08,.09-.16,.19-.24,.29-.08,.1-.16,.22-.22,.35-.06,.13-.09,.27-.07,.41,.02,.13,.06,.25,.03,.36-.02,.11-.07,.22-.09,.33-.03,.11-.04,.21-.04,.3,0,.19,.06,.33,.1,.42,.04,.09,.07,.14,.07,.14Z"/><g><path class="cls-9" d="M77.92,38.44l8.18,1.3-.36-4.27,4.55-.88,.55,6.32,.1,1.45c.06,.98-.38,1.93-1.19,2.49h0c-.73,.52-1.66,.66-2.51,.38l-1.76-.57-8.57-3.05"/><g><path class="cls-9" d="M72.97,37.56c-.03-.14,.09-.27,.23-.27,.46,0,1.71,0,2.14,.13,.54,.15,2.57,1.02,2.57,1.02l-.86,3.17-3.11,.03s-1.14-.52-1.15-.75c0-.12,.03-.42,.03-.42l-.34-.18c-.51-.32-.18-.95-.18-.95,0,0-.35-.2-.37-.55-.02-.38,.27-.52,.27-.52,0,0-.14-.5,.12-.64,.26-.13,.7,.04,.7,.04-.03-.02-.05-.06-.06-.11Z"/><path class="cls-4" d="M72.79,37.61s.03,.02,.1,.03c.06,.02,.15,.04,.27,.06,.23,.04,.55,.08,.9,.11,.35,.04,.67,.08,.89,.14,.22,.05,.35,.12,.35,.11,0,0-.03-.02-.09-.06-.06-.03-.15-.07-.26-.1-.22-.07-.54-.12-.89-.15-.35-.04-.67-.07-.9-.09-.23-.03-.37-.06-.37-.05Z"/><path class="cls-4" d="M72.21,38.25s.08,.06,.22,.11c.14,.06,.34,.12,.57,.16,.23,.05,.43,.08,.58,.1,.15,.02,.24,.03,.24,.02,0-.02-.36-.08-.81-.18-.22-.05-.42-.1-.57-.15-.14-.05-.23-.08-.23-.07Z"/><path class="cls-4" d="M72.3,39.35s.29,.14,.67,.23c.38,.09,.7,.1,.7,.08,0-.02-.31-.06-.69-.14-.38-.08-.67-.18-.68-.17Z"/><path class="cls-4" d="M72.49,40.29s.22,.12,.51,.19c.29,.07,.54,.08,.54,.07,0-.02-.24-.05-.53-.13-.29-.07-.52-.15-.53-.13Z"/><path class="cls-4" d="M74.11,39.73s.03,.03,.09,.03c.06,0,.15,0,.24-.07,.08-.06,.12-.14,.14-.2,.02-.06,0-.1,0-.1-.02,0-.03,.15-.17,.25-.14,.1-.29,.06-.29,.08Z"/><path class="cls-4" d="M74.17,40.71s.12,.02,.23-.07c.11-.09,.11-.22,.1-.22-.02,0-.05,.09-.14,.17-.09,.08-.19,.1-.19,.12Z"/><path class="cls-4" d="M74.53,38.71s.08,.04,.16-.02c.08-.06,.08-.15,.06-.15-.02,0-.04,.06-.1,.1-.06,.04-.12,.05-.12,.07Z"/><path class="cls-4" d="M77.92,38.44s0,0-.02-.01c-.02,0-.04-.02-.07-.03-.07-.03-.17-.07-.29-.13-.25-.11-.62-.27-1.08-.46-.23-.09-.49-.2-.77-.3-.14-.05-.29-.11-.45-.14-.16-.03-.32-.05-.49-.06-.34-.03-.7-.04-1.08-.04-.09,0-.19,0-.29,0-.05,0-.1,0-.14,0-.05,0-.11,0-.15,.03-.1,.05-.17,.16-.13,.28,.01,.03,.02,.03,.04,.04,.01,0,.02,.02,.04,.02,.02,.01,.05,.02,.07,.03,.05,.02,.09,.04,.15,.05,.02,0,.03,0,.04-.02,0-.02,0-.03-.02-.04-.13-.04-.25-.07-.39-.09-.13-.02-.27-.03-.41-.01-.07,.01-.14,.03-.2,.09-.06,.05-.09,.13-.1,.2-.03,.14,0,.29,.03,.43l.02-.04c-.07,.04-.12,.09-.17,.15-.12,.16-.15,.37-.09,.55,.06,.18,.2,.33,.36,.42v-.04c-.09,.17-.13,.36-.11,.54,.02,.19,.14,.35,.29,.44h0c.12,.06,.23,.12,.34,.18v-.03c-.02,.08-.03,.16-.04,.24,0,.04,0,.08,0,.12,0,.02,0,.04,0,.06,0,.03,.01,.05,.03,.07,.05,.07,.11,.12,.18,.17,.06,.05,.13,.09,.19,.13,.26,.16,.52,.29,.77,.4,0,0,0,0,.01,0,.94-.01,1.72-.03,2.26-.03,.27,0,.48-.01,.63-.01,.07,0,.12,0,.16,0,.04,0,.06,0,.06,0,0,0-.02,0-.06,0-.04,0-.09,0-.16,0-.15,0-.36,0-.63,0-.55,0-1.32,0-2.26,.01h.01c-.25-.12-.51-.25-.76-.4-.06-.04-.13-.08-.19-.13-.06-.05-.12-.09-.16-.15-.01-.01-.01-.03-.02-.04,0-.02,0-.04,0-.06,0-.04,0-.08,0-.12,0-.08,.01-.16,.02-.24,0-.01,0-.02-.01-.03-.11-.06-.23-.12-.34-.18h0c-.14-.09-.25-.23-.27-.4-.02-.17,.02-.35,.09-.5,0-.01,0-.03-.01-.04-.14-.09-.27-.23-.33-.39-.05-.16-.03-.36,.08-.5,.04-.06,.1-.1,.15-.13,.01,0,.02-.02,.02-.04-.03-.13-.05-.27-.03-.4,.01-.06,.04-.12,.08-.17,.04-.04,.1-.06,.17-.07,.13-.02,.26,0,.39,.01,.13,.02,.26,.05,.38,.08l.02-.06s-.09-.03-.14-.05c-.02,0-.04-.02-.07-.03-.02,0-.04-.03-.05-.03,0-.04,0-.09,.02-.12,.02-.04,.05-.07,.09-.09,.04-.02,.08-.03,.13-.03,.05,0,.1,0,.14,0,.1,0,.19,0,.28,0,.38,0,.73,.01,1.07,.04,.17,.01,.33,.03,.49,.06,.15,.03,.3,.09,.44,.13,.28,.1,.54,.2,.77,.3,.46,.19,.83,.34,1.09,.44,.12,.05,.22,.09,.29,.12,.03,.01,.06,.02,.08,.03,.02,0,.03,0,.03,0Z"/></g><path class="cls-4" d="M86.06,39.73s.32,.18,.6,.52c.29,.34,.38,.7,.4,.69,0,0,0-.09-.06-.23-.05-.14-.15-.32-.29-.5-.15-.17-.31-.3-.44-.38-.13-.08-.21-.11-.22-.1Z"/></g></g><g><g><g><g><g><path class="cls-9" d="M75.38,14.45c.17-2.15,1.96-3.8,4.11-3.81h.21c2.31,.13,3.48,2.16,3.29,4.46l-.4,9.23c0,.15-.1,.29-.24,.36l-5.18,2.43,.16-4.84s-2.22-.34-2.25-2.56c-.02-1.07,.13-3.28,.29-5.27Z"/><path class="cls-4" d="M77.33,22.27s1.42,.08,2.9-.86c0,0-.68,1.6-2.89,1.4v-.55Z"/></g><g><g><g><path class="cls-16" d="M75.92,16.18c0,.17,.13,.31,.31,.32,.17,0,.32-.12,.33-.29,0-.17-.13-.31-.31-.32-.17,0-.32,.12-.33,.29Z"/><path class="cls-16" d="M75.86,15.53s.28-.14,.62-.14c.34,0,.59,.17,.63,.13,.02-.02-.02-.09-.13-.17-.11-.08-.29-.16-.5-.15-.21,0-.39,.08-.49,.16-.1,.08-.14,.16-.12,.17Z"/></g><g><path class="cls-16" d="M79.12,16.26c0,.17,.13,.31,.31,.32,.17,0,.32-.12,.33-.29,0-.17-.13-.31-.31-.32-.17,0-.32,.12-.33,.29Z"/><path class="cls-16" d="M79.21,15.59s.28-.14,.62-.14c.34,0,.59,.17,.63,.13,.02-.02-.02-.09-.13-.17-.11-.08-.29-.16-.5-.15-.21,0-.39,.08-.49,.16-.1,.08-.14,.16-.12,.17Z"/></g><path class="cls-16" d="M77.98,18.12s-.21-.06-.55-.1c-.09,0-.17-.03-.18-.09-.02-.06,.02-.16,.06-.26,.08-.21,.17-.43,.26-.66,.36-.94,.61-1.72,.57-1.73-.04-.01-.36,.74-.71,1.68-.09,.23-.17,.45-.25,.67-.03,.1-.09,.21-.04,.34,.02,.06,.09,.11,.14,.13,.06,.02,.1,.02,.15,.02,.35,.02,.56,.02,.56,0Z"/><path class="cls-16" d="M78.98,18.35c-.06,0-.06,.37-.37,.63-.32,.26-.71,.22-.71,.27,0,.02,.09,.07,.25,.08,.16,0,.4-.05,.59-.21,.19-.16,.28-.38,.29-.53,.01-.15-.03-.25-.05-.24Z"/></g><path class="cls-16" d="M79.12,14.25c.03,.09,.37,.05,.77,.1,.4,.04,.72,.16,.78,.07,.02-.04-.03-.13-.16-.22-.13-.09-.34-.17-.58-.2-.24-.03-.46,.01-.61,.07-.15,.06-.22,.13-.21,.18Z"/><path class="cls-16" d="M75.99,14.54c.06,.08,.29,0,.58,0,.28-.01,.52,.05,.58-.03,.02-.04-.01-.12-.12-.19-.1-.07-.28-.13-.47-.13-.19,0-.36,.08-.46,.16-.1,.08-.13,.16-.11,.2Z"/></g></g><g><path class="cls-9" d="M82.67,16.75s1.52-.45,1.48,1.06c-.05,1.52-1.56,1.16-1.56,1.11,0-.04,.08-2.18,.08-2.18Z"/><path class="cls-4" d="M82.93,18.36s.03,.02,.07,.04c.04,.02,.12,.04,.2,0,.16-.05,.3-.3,.32-.58,0-.14-.02-.27-.06-.38-.04-.11-.11-.19-.19-.21-.08-.02-.14,.03-.16,.07-.02,.04-.01,.07-.02,.07,0,0-.03-.03-.02-.09,0-.03,.03-.07,.06-.09,.04-.03,.09-.04,.15-.03,.12,.01,.22,.12,.27,.24,.06,.12,.09,.27,.08,.43-.02,.31-.18,.59-.4,.64-.11,.02-.2-.01-.24-.05-.05-.04-.05-.07-.05-.08Z"/></g><path class="cls-16" d="M81.67,12.24l-6.32,.14c.2-.44,.55-.79,.93-1.07,.82-.62,1.83-1.01,2.86-1.03,1.03-.02,3.13,1.24,3.88,1.95,.6,.57,.59,1.06,.59,1.06,.09,.82-.36,1.75-.55,2.56-.09,.41-.28,1.67-.28,1.67h0c-.35,0-.48-.28-.42-.62l.07-1.35s-1.18-.84-.62-2.38c.09-.12,.28-.69-.13-.91Z"/></g><path class="cls-4" d="M80.35,17.03s.04-.01,.04-.03c0-.02,0-.04-.03-.05-.02,0-.04,.01-.04,.03,0,.02,0,.04,.03,.05Z"/><path class="cls-4" d="M79.7,16.89s.04-.01,.05-.04c0-.03,0-.05-.03-.05-.02,0-.04,.01-.05,.04,0,.03,0,.05,.03,.05Z"/><path class="cls-4" d="M79.26,16.88s.04-.02,.04-.06c0-.03,0-.06-.03-.07-.02,0-.04,.02-.04,.06,0,.03,0,.06,.03,.07Z"/><path class="cls-4" d="M80.03,17.44s.04-.01,.04-.02c0-.01-.02-.02-.04-.02-.02,0-.04,.01-.04,.02,0,.01,.02,.02,.04,.02Z"/><path class="cls-4" d="M79.43,17.31s.04-.02,.04-.04c0-.02-.01-.04-.03-.05-.02,0-.04,.02-.04,.04,0,.02,.01,.04,.03,.05Z"/><path class="cls-4" d="M76.32,16.94s.04-.01,.05-.03c0-.02,0-.04-.03-.05-.02,0-.04,.01-.05,.03,0,.02,0,.04,.03,.05Z"/><path class="cls-4" d="M75.88,16.9s.04-.02,.04-.04c0-.03-.01-.05-.03-.05-.02,0-.04,.02-.04,.04,0,.03,.01,.05,.03,.05Z"/><path class="cls-4" d="M76.72,16.95s.04,0,.04-.03c0-.02-.01-.04-.03-.04-.02,0-.04,0-.04,.03,0,.02,.01,.04,.03,.04Z"/><path class="cls-4" d="M76.39,17.4s.04,0,.05-.02c0-.02,0-.05-.02-.05-.02,0-.04,0-.05,.02,0,.02,0,.05,.02,.05Z"/><path class="cls-4" d="M76.01,17.32s.03-.02,.03-.04c0-.02-.02-.03-.04-.02-.02,0-.03,.02-.03,.04,0,.02,.02,.03,.04,.02Z"/></g><path class="cls-16" d="M83.06,12.31c.16-.55,0-1.17-.35-1.62s-.94-.72-1.51-.7c-.3,.01-.59,.1-.88,.06-.55-.06-.97-.5-1.48-.71-.79-.33-1.8-.03-2.27,.68-.19,.29-.32,.64-.61,.82-.25,.16-.58,.14-.86,.23-.58,.17-.97,.79-.94,1.39,.03,.6,.45,1.16,1.01,1.39,.56,.24,1.22,.17,1.75-.12,.48-.27,.9-.72,1.45-.7,.57,.02,1.06,.55,1.61,.44,.29-.06,.51-.28,.73-.49,.21-.21,.46-.42,.75-.43,.3-.02,.45,.39,.34,.67l1.27-.91"/><path class="cls-15" d="M75.48,11.58s0,0,.01,.02c0,.01,.02,.04,.04,.06,.03,.05,.09,.13,.18,.21,.09,.08,.21,.16,.38,.22,.16,.06,.36,.08,.57,.03,.21-.04,.43-.15,.6-.34,.17-.19,.28-.44,.44-.67,.08-.11,.18-.21,.31-.28,.13-.06,.27-.09,.42-.09,.15,0,.3,.04,.43,.12,.13,.07,.24,.19,.32,.33,.08,.14,.13,.29,.22,.43,.09,.14,.24,.24,.4,.25,.16,0,.31-.05,.44-.13,.13-.08,.24-.18,.34-.28,.19-.2,.39-.39,.63-.45,.24-.06,.47,.03,.63,.15,.17,.12,.28,.28,.35,.43,.07,.15,.11,.29,.13,.41,.02,.12,.03,.21,.04,.27,0,.06,.01,.09,.01,.09,0,0,0,0,0-.02,0-.02,0-.04,0-.07,0-.06-.01-.15-.03-.27-.02-.12-.05-.26-.12-.42-.07-.15-.18-.32-.35-.45-.17-.13-.41-.22-.67-.16-.26,.06-.46,.26-.65,.46-.1,.1-.2,.2-.33,.27-.12,.07-.26,.13-.41,.12-.14,0-.28-.09-.36-.22-.09-.13-.14-.28-.22-.42-.08-.15-.2-.27-.34-.35-.14-.08-.3-.12-.46-.12-.16,0-.31,.03-.45,.1-.14,.07-.24,.18-.32,.3-.16,.23-.26,.48-.43,.67-.16,.18-.37,.29-.58,.34-.2,.05-.4,.03-.55-.02-.16-.05-.28-.13-.37-.2-.18-.15-.24-.28-.24-.27Z"/><path class="cls-15" d="M74.33,11.6s-.02,.04-.03,.12c0,.08,0,.2,.03,.34,.04,.14,.11,.3,.24,.45,.12,.15,.3,.27,.5,.36,.41,.18,.82,.16,1.1,.12,.14-.02,.25-.05,.33-.07,.08-.02,.12-.04,.12-.04,0-.01-.17,.03-.45,.06-.28,.03-.68,.03-1.07-.14-.19-.09-.36-.21-.48-.34-.12-.14-.2-.29-.24-.42-.08-.27-.03-.45-.05-.45Z"/></g><g><path class="cls-13" d="M85.12,36.02c-.02,.25-.13,.48-.27,.66-.14,.18-.41,.35-.63,.34,0,0-.55,.05-.85-.43-.27-.43-.34-1.32-.12-1.85,.15-.36,.48-.7,.88-.71,.52-.01,.84,.36,.95,.74"/><path class="cls-16" d="M85.07,34.76s-.01-.1-.1-.25c-.04-.08-.1-.17-.19-.25-.09-.09-.21-.17-.36-.21-.08-.02-.16-.04-.25-.04-.09,0-.18,0-.27,.04-.18,.06-.35,.18-.48,.34-.13,.16-.23,.36-.28,.59-.05,.22-.07,.46-.05,.69,.02,.37,.1,.73,.3,1.01,.1,.14,.24,.24,.39,.29,.15,.06,.3,.08,.44,.07h0c.12,0,.22-.03,.32-.08,.09-.05,.17-.1,.24-.17,.13-.13,.21-.27,.26-.39,.05-.12,.07-.22,.08-.28,0-.03,0-.06,0-.08,0-.02,0-.03,0-.03,0,0,0,.15-.11,.38-.05,.11-.13,.25-.26,.37-.06,.06-.14,.11-.23,.15-.09,.04-.19,.07-.29,.07h0s0,0,0,0c-.26,0-.59-.09-.78-.35-.19-.26-.26-.62-.28-.98-.03-.46,.05-.93,.32-1.24,.13-.16,.28-.27,.45-.33,.08-.03,.17-.04,.25-.04,.08,0,.16,.01,.23,.03,.15,.04,.27,.12,.35,.2,.09,.08,.15,.17,.2,.24,.09,.15,.11,.24,.12,.24Z"/><path class="cls-13" d="M85.39,36.04c-.02,.25-.13,.48-.27,.66-.14,.18-.41,.35-.63,.34,0,0-.55,.05-.85-.43-.27-.43-.34-1.32-.12-1.85,.15-.36,.48-.7,.88-.71,.52-.01,.84,.36,.95,.74"/><path class="cls-16" d="M85.35,34.78s-.01-.1-.1-.25c-.04-.08-.1-.17-.19-.25-.09-.09-.21-.17-.36-.21-.08-.02-.16-.04-.25-.04-.09,0-.18,0-.27,.04-.18,.06-.35,.18-.48,.34-.13,.16-.23,.36-.28,.59-.05,.22-.07,.46-.05,.69,.02,.37,.1,.73,.3,1.01,.1,.14,.24,.24,.39,.29,.15,.06,.3,.08,.44,.07h0c.12,0,.22-.03,.32-.08,.09-.05,.17-.1,.24-.17,.13-.13,.21-.27,.26-.39,.05-.12,.07-.22,.08-.28,0-.03,0-.06,0-.08,0-.02,0-.03,0-.03,0,0,0,.15-.11,.38-.05,.11-.13,.25-.26,.37-.06,.06-.14,.11-.23,.15-.09,.04-.19,.07-.29,.07h0s0,0,0,0c-.26,0-.59-.09-.78-.35-.19-.26-.26-.62-.28-.98-.03-.46,.05-.93,.32-1.24,.13-.16,.28-.27,.45-.33,.08-.03,.17-.04,.25-.04,.08,0,.16,.01,.23,.03,.15,.04,.27,.12,.35,.2,.09,.08,.15,.17,.2,.24,.09,.15,.11,.24,.12,.24Z"/><path class="cls-13" d="M84.89,34.65c.26-.05,.52,.12,.63,.36,.11,.24,.08,.52,0,.76-.04,.13-.1,.25-.2,.34-.09,.1-.22,.17-.35,.17-.2,0-.37-.13-.48-.29-.18-.26-.25-.59-.17-.9,.05-.2,.2-.41,.41-.42"/><path class="cls-16" d="M84.74,34.69s-.02,0-.05,0c-.03,0-.08,.01-.13,.04-.1,.06-.22,.2-.27,.4-.05,.2-.04,.46,.07,.72,.06,.12,.14,.25,.26,.34,.12,.1,.29,.16,.45,.11,.16-.05,.28-.17,.36-.3,.08-.13,.12-.27,.15-.4,.06-.27,.01-.54-.12-.71-.13-.17-.29-.24-.41-.26-.06,0-.1,0-.13,0-.03,0-.05,.01-.04,.01,0,0,.06-.01,.17,.01,.11,.02,.26,.1,.38,.26,.11,.16,.15,.41,.1,.67-.03,.13-.07,.26-.15,.39-.07,.12-.18,.23-.33,.27-.14,.04-.29,0-.4-.1-.11-.09-.19-.2-.25-.32-.11-.24-.12-.49-.08-.68,.04-.2,.15-.33,.24-.39,.09-.06,.16-.05,.16-.06Z"/><path class="cls-16" d="M84.3,36.58s.02-.04,.06-.08c.04-.05,.11-.1,.2-.13,.09-.03,.18-.03,.25-.04,.07,0,.11-.01,.11-.02,0,0-.04-.02-.11-.02-.07,0-.16,0-.26,.02-.1,.03-.18,.1-.22,.16-.04,.06-.03,.11-.03,.11Z"/><path class="cls-16" d="M84.21,34.49s.02,.04,.07,.09c.05,.04,.14,.09,.25,.11,.11,.02,.2,0,.27-.01,.07-.02,.1-.05,.1-.05,0-.02-.16,.05-.36,0-.19-.03-.32-.15-.33-.13Z"/></g></g><path class="cls-16" d="M88.82,52.08s-3.86-.07-8.63-.22c-4.76-.15-8.62-.3-8.62-.34,0-.03,3.86,.07,8.63,.22,4.76,.15,8.62,.3,8.62,.34Z"/></g><g><g><path class="cls-16" d="M52.41,93.26l1.96,4.49s-2.68,2.05-2.49,2.88l8.59-2.56-2.02-6.91-6.04,2.1Z"/><path class="cls-16" d="M54.71,97.47s.21,.06,.4,.2c.2,.13,.29,.31,.33,.3,.04,0,0-.26-.25-.42-.24-.17-.5-.11-.49-.07Z"/><path class="cls-16" d="M54.52,98.7s.04-.23-.14-.43c-.17-.2-.4-.23-.41-.19-.01,.04,.15,.13,.29,.29,.15,.16,.21,.33,.25,.33Z"/></g><g><path class="cls-15" d="M56.5,93.28l.17,4.61s-4.63,1.73-4.68,2.58l8.96-.02,.02-7.2-4.47,.02Z"/><path class="cls-16" d="M55.59,98.24s.18,.12,.33,.3c.15,.18,.19,.38,.24,.38,.04,0,.07-.25-.12-.48-.19-.23-.44-.25-.45-.2Z"/><path class="cls-16" d="M55.05,99.37s.1-.21-.01-.45c-.11-.24-.32-.33-.34-.3-.02,.04,.11,.16,.2,.36,.09,.2,.11,.38,.15,.38Z"/></g><g><path class="cls-3" d="M48.85,26.76s-1.63,1.09-2.06,3.07c-.34,1.55-1.26,9.75-1.26,9.75l-1.62,3.15,1.06,2.51h0c.9,.06,1.8-.19,2.54-.73l.71-.52,1.3-1.93-.67-15.31Z"/><path class="cls-7" d="M65.47,35.72l1.33-.23s-2.8-7.75-4.47-8.5c-.59-.27-.97-.44-1.21-.55v-.02s-2-.82-2-.82l-2.34-.86h0s0,0,0,0l-.18-.07,.07,.07-4.69,.3-.37,.28-2.41,1.26h0s-1.07,.36-2.04,1.62c-.97,1.27-2.39,7.72-2.39,7.72l3.14,1.29,.78,5.22-2,9.96,17.13-.33-3.7-10.35,.58-5.17,4.76-.83Z"/><g class="cls-18"><path d="M48.42,44.32c1.74,.82,3.65,1.29,5.58,1.37,.69,.03,1.41,0,1.99-.37,.24-.16,.45-.37,.72-.48,.36-.15,.77-.08,1.16-.03,.91,.1,1.83,.04,2.72-.18,.13-.03,.27-.07,.37-.17,.09-.1,.12-.27,.01-.36-.06-.05-.15-.06-.24-.06-4.07-.2-8.15-.41-12.22-.61l-.09,.9Z"/></g><path class="cls-16" d="M47.31,31.97s.28,1.6,.55,3.59c.27,1.99,.46,3.6,.43,3.61-.03,0-.28-1.6-.55-3.59-.27-1.99-.46-3.6-.43-3.61Z"/><path class="cls-16" d="M53.73,30.61s-.07-.05-.17-.17c-.11-.11-.26-.28-.44-.48-.19-.21-.41-.46-.64-.73-.24-.27-.51-.57-.76-.92-.25-.34-.46-.7-.58-1.05-.12-.35-.15-.69-.12-.97,.03-.28,.11-.5,.18-.64,.07-.14,.13-.2,.14-.2,.02,0-.2,.29-.23,.84-.02,.27,.02,.6,.14,.93,.12,.34,.32,.68,.57,1.02,.25,.34,.51,.64,.75,.91,.23,.27,.44,.52,.62,.74,.18,.21,.32,.39,.41,.51,.1,.12,.15,.19,.14,.2Z"/><path class="cls-16" d="M57.82,25.12s0,.1-.03,.27c-.04,.17-.09,.43-.21,.72-.22,.6-.74,1.33-1.41,2.02-.66,.7-1.27,1.32-1.72,1.77-.21,.21-.39,.38-.53,.53-.13,.12-.2,.19-.21,.18,0,0,.06-.08,.17-.21,.14-.15,.3-.33,.5-.55,.45-.48,1.04-1.1,1.69-1.79,.66-.69,1.18-1.4,1.42-1.97,.25-.57,.29-.97,.31-.96Z"/><path class="cls-3" d="M60.58,36.57l.54,3.03-7.23,1.06,.42,3.33s8.93,.49,9.91,.27c1.25-.28,2.2-1.77,2.17-3.95-.01-.86-.41-2.59-.92-4.6l-4.89,.85Z"/><path class="cls-16" d="M61.46,26.67s-.16,.02-.43,.1c-.26,.09-.64,.27-.99,.63-.35,.36-.65,.9-.75,1.55-.06,.33-.07,.67-.05,1.03,.02,.36,.1,.73,.18,1.1,.33,1.5,.63,2.86,.86,3.87,.11,.5,.19,.9,.23,1.18,.02,.14,.04,.25,.05,.32,0,.07,.01,.11,0,.11,0,0-.04-.15-.1-.43-.07-.29-.16-.69-.27-1.17-.23-.99-.56-2.35-.89-3.86-.08-.38-.16-.75-.18-1.12-.02-.37,0-.73,.06-1.06,.12-.67,.43-1.23,.8-1.59,.37-.37,.76-.54,1.03-.62,.14-.04,.25-.05,.32-.06,.08,0,.11,0,.11,0Z"/></g><path class="cls-16" d="M63.84,52.07s-3.84,.12-8.58,.2c-4.74,.08-8.59,.12-8.59,.08,0-.03,3.84-.12,8.58-.2,4.74-.08,8.59-.12,8.59-.08Z"/><g><g><path class="cls-7" d="M47.83,50.7l-3.82,20.15c-.43,2.29-.19,4.66,.7,6.82l8.09,19.6,6.38-4.07-6.54-19.39,4.15-17.17-1.35-7.2-7.61,1.26Z"/><path class="cls-7" d="M50.96,55.8l2.92,23.16,.5,18.79,7.26,.11s-.26-19.03-.26-20.18v-18.76s1.04-1.46,1.46-2.29c.42-.83,0-5,0-5,0,0-1.55-3.17-7.4-2.2-5.85,.97-4.48,6.37-4.48,6.37Z"/><path class="cls-16" d="M54.38,97.75s0-.04,0-.12c0-.08,0-.2-.02-.34-.01-.31-.03-.75-.05-1.31-.04-1.15-.1-2.8-.17-4.83-.07-2.04-.15-4.47-.24-7.17-.05-1.35-.1-2.76-.17-4.23-.07-1.47-.16-2.98-.34-4.53-.09-.77-.2-1.53-.33-2.28-.13-.75-.26-1.48-.39-2.21-.24-1.45-.44-2.85-.61-4.19-.34-2.68-.58-5.1-.81-7.13-.22-2.03-.42-3.67-.57-4.8-.08-.56-.13-1-.17-1.3-.02-.15-.03-.26-.04-.34,0-.08-.01-.12-.01-.12,0,0,0,.04,.02,.11,.01,.08,.03,.19,.06,.34,.05,.3,.12,.73,.2,1.3,.16,1.13,.37,2.77,.6,4.8,.24,2.03,.49,4.45,.83,7.12,.17,1.34,.37,2.74,.62,4.19,.13,.72,.26,1.46,.39,2.21,.12,.75,.24,1.51,.33,2.29,.18,1.55,.27,3.07,.34,4.54,.07,1.47,.12,2.88,.16,4.23,.08,2.7,.15,5.13,.21,7.17,.06,2.04,.1,3.69,.14,4.83,.01,.57,.02,1.01,.03,1.31,0,.15,0,.26,0,.34,0,.08,0,.12,0,.12Z"/><path class="cls-16" d="M56.66,97.75s-.57-9.62-1.2-21.49c-.63-11.88-1.11-21.5-1.08-21.5,.03,0,.57,9.62,1.2,21.5,.63,11.87,1.11,21.5,1.08,21.5Z"/><path class="cls-16" d="M59.15,53.23s-.04,.08-.15,.19c-.1,.12-.27,.27-.5,.43-.45,.32-1.21,.65-2.09,.6-.87-.04-1.6-.44-2.02-.81-.21-.18-.36-.36-.46-.48-.09-.13-.14-.2-.13-.21,.02-.02,.21,.28,.64,.62,.42,.34,1.13,.71,1.97,.75,.84,.04,1.58-.26,2.03-.55,.46-.3,.68-.58,.7-.56Z"/><path class="cls-16" d="M54.33,96.15s-.02-.04-.05-.11c-.03-.08-.08-.18-.14-.32-.12-.28-.3-.69-.53-1.22-.46-1.06-1.12-2.6-1.93-4.49-.81-1.9-1.77-4.16-2.84-6.67-1.06-2.52-2.23-5.28-3.38-8.21-.07-.18-.14-.37-.21-.55-.05-.19-.11-.39-.12-.58-.05-.39-.05-.78-.04-1.17,.03-.77,.12-1.52,.21-2.26,.21-1.47,.47-2.88,.75-4.22,.56-2.67,1.15-5.06,1.66-7.06,.51-2,.96-3.61,1.27-4.72,.16-.55,.28-.98,.37-1.28,.04-.14,.08-.25,.1-.33,.02-.07,.04-.11,.04-.11,0,0,0,.04-.03,.11-.02,.08-.05,.19-.09,.33-.08,.3-.2,.73-.35,1.28-.3,1.11-.73,2.73-1.23,4.73-.5,2-1.08,4.39-1.63,7.06-.27,1.34-.54,2.74-.74,4.21-.1,.74-.18,1.49-.21,2.25,0,.38-.01,.77,.04,1.15,.01,.19,.07,.38,.12,.56,.07,.18,.14,.37,.21,.55,1.15,2.93,2.32,5.69,3.37,8.21,1.06,2.51,2.01,4.78,2.81,6.68,.8,1.9,1.45,3.44,1.9,4.5,.22,.53,.39,.94,.51,1.23,.06,.14,.1,.24,.13,.32,.03,.07,.04,.11,.04,.11Z"/><path class="cls-16" d="M52.65,73.8s-.45-.47-.93-1.1c-.48-.64-.85-1.17-.82-1.19,.03-.02,.43,.48,.91,1.12,.24,.32,.45,.61,.6,.82,.15,.21,.24,.35,.23,.35Z"/><g class="cls-18"><polygon points="50.65 54.23 51.7 72.23 52.65 73.8 52.99 72.38 50.65 54.23"/></g></g><g class="cls-18"><polygon points="47.51 52.37 47.37 53.13 62.96 53.13 62.88 52.08 47.51 52.37"/></g></g><g><g><polygon class="cls-16" points="36.32 39.6 46.76 43.47 55.57 44.82 45.1 39.71 36.32 39.6"/><g><path class="cls-9" d="M40.79,43.77c-.08-.56-.27-1.1-.56-1.58-.06-.1-.12-.19-.14-.3s-.02-.23,.06-.31c.13-.15,.38-.08,.54,.03,.34,.23,.57,.6,.7,.98s.18,.8,.23,1.21"/><g><path class="cls-9" d="M44.86,42.78h-.52c-.1-.11-.26-.21-.46-.26-.12-.03-.24,.03-.34,.13,.23-.38,.48-.8,.53-.92,.09-.22-.11-.39-.45-.39s-1.81,2.09-1.81,2.09c0,0,.92-1.68,1.01-1.94,.22-.64-.48-.69-.74-.38-.32,.38-1.6,2.32-1.6,2.32,0,0-.24,.39-.07,.77,.17,.37,.65,.22,.65,.22,0,0,0,.33,.34,.52,.38,.21,.87-.03,.87-.03l1.91,.43s.3-.03,.69-.07c.97-.1,1.75-.84,1.89-1.8h0l-1.9-.69Z"/><path class="cls-4" d="M43.57,42.62s-.23,.41-.56,.89c-.17,.24-.32,.45-.43,.61-.11,.15-.19,.25-.19,.24,0,0,.05-.11,.16-.27,.1-.16,.25-.38,.42-.62,.16-.24,.32-.46,.43-.61,.05-.07,.09-.13,.13-.18,.03-.04,.05-.06,.05-.06Z"/><path class="cls-4" d="M43.46,44.75s.06-.13,.17-.31c.11-.19,.27-.44,.45-.73,.09-.14,.17-.28,.24-.4,.07-.12,.07-.25,.04-.35-.06-.21-.17-.3-.16-.3,0,0,.03,.02,.07,.06,.04,.05,.1,.12,.13,.23,.03,.11,.04,.26-.03,.39-.07,.13-.15,.27-.24,.41-.18,.28-.34,.54-.47,.72-.12,.18-.2,.29-.21,.29Z"/><path class="cls-4" d="M44.46,44.94s.02-.12,.1-.3c.04-.09,.09-.2,.14-.31,.05-.12,.11-.25,.14-.39,.03-.14,.01-.28-.06-.37-.03-.05-.09-.07-.14-.1-.05-.02-.1-.04-.14-.04-.09,0-.16,.05-.21,.07-.05,.02-.08,.04-.08,.03,0,0,.02-.02,.07-.05,.02-.02,.05-.03,.09-.05,.04-.02,.08-.04,.13-.04,.05,0,.11,.01,.16,.04,.05,.02,.11,.05,.16,.11,.09,.11,.11,.27,.08,.42-.04,.15-.1,.28-.15,.39-.05,.12-.11,.22-.15,.31-.09,.17-.13,.28-.14,.28Z"/><path class="cls-4" d="M44.81,43.13s.03,0,.08,.02c.05,.02,.12,.06,.2,.12,.16,.12,.34,.34,.41,.64,.07,.3,0,.58-.1,.75-.05,.09-.09,.15-.13,.19-.04,.04-.06,.06-.06,.06,0,0,.08-.09,.16-.27,.08-.17,.14-.44,.08-.72-.06-.28-.23-.5-.38-.62-.15-.12-.26-.16-.25-.17Z"/></g><path class="cls-4" d="M41.45,42.04s-.18,.32-.43,.69c-.25,.37-.47,.67-.48,.66-.01,0,.18-.32,.43-.69,.25-.37,.47-.67,.48-.66Z"/></g></g><g><path class="cls-9" d="M53.9,40.81l-1.19-.27-1.15-1.08c-.14-.13-.32-.21-.51-.22l-2.09-.12c-.21-.01-.41,.06-.57,.19l-1.49,1.26,6.51,3.17,.89,.08-.4-3.01Z"/><path class="cls-4" d="M50.3,40.25s-.15-.02-.4-.05c-.24-.03-.6-.06-.94,.1-.17,.08-.32,.18-.45,.28-.13,.1-.25,.19-.35,.26-.1,.07-.19,.12-.26,.15-.06,.03-.1,.04-.1,.04,0,0,.14-.07,.34-.22,.1-.07,.21-.17,.35-.27,.13-.1,.28-.21,.46-.29,.18-.08,.37-.11,.53-.12,.17,0,.32,.01,.44,.03,.12,.02,.22,.04,.29,.06,.07,.02,.11,.03,.1,.03Z"/><path class="cls-4" d="M50.73,41.41s-.09-.03-.23-.04c-.14-.02-.34,0-.54,.07-.2,.07-.37,.18-.49,.25-.12,.07-.2,.12-.2,.11,0,0,.06-.06,.18-.15,.12-.08,.28-.2,.49-.27,.21-.08,.42-.09,.56-.06,.15,.03,.22,.08,.22,.08Z"/><path class="cls-4" d="M53.41,41.6s-.18-.24-.4-.54c-.22-.3-.41-.53-.4-.54,.01-.01,.22,.21,.45,.51,.22,.3,.37,.56,.36,.57Z"/></g><path class="cls-10" d="M50.13,39.24l2.65-2.46c.11-.11,.11-.29-.02-.39h0c-.1-.07-.23-.07-.32,.01l-3.1,2.78"/><g class="cls-18"><path d="M50.13,39.24l2.65-2.46c.11-.11,.11-.29-.02-.39h0c-.1-.07-.23-.07-.32,.01l-3.1,2.78"/></g></g><g><path class="cls-16" d="M49.63,15.76c-.24-.97,.03-2.06,.69-2.8,.5-.56,1.2-.93,1.92-1.14,.97-.29,2.05-.33,2.98,.07s1.69,1.27,1.8,2.27c.05,.46-.04,.93,.11,1.37,.06,.19,.17,.39,.12,.58-.05,.18-.23,.29-.41,.31-.18,.02-.36-.04-.53-.11-.57-.25-1.05-.67-1.51-1.09"/><g><path class="cls-9" d="M49.62,16.25c.09-1.43,1.04-3.18,2.47-3.02l4.44,1.13c.43,.05,.76,.42,.75,.85l-.5,10.71s-.01,0,0,0l-2.91,3.45s-1.86-2.16-1.97-2.82h0c-.01-.09-.03-.15-.03-.22-.1-.76-.02-1.47-.02-1.47h0c0-.86,0-1.22,0-1.21,0,0-1.82-.31-2.2-2.69-.19-1.18-.12-3.12-.02-4.71Z"/><g><g><g><g><path class="cls-16" d="M50.32,17.97c0,.16,.13,.3,.29,.31,.17,0,.31-.11,.32-.27,0-.16-.13-.3-.29-.31-.17,0-.31,.11-.32,.27Z"/><path class="cls-16" d="M50.03,17.26s.27-.13,.6-.13c.33,0,.57,.17,.6,.13,.02-.02-.02-.09-.13-.17-.1-.08-.28-.15-.48-.15-.2,0-.38,.08-.48,.15-.1,.08-.14,.15-.12,.17Z"/></g><g><path class="cls-16" d="M53.55,17.97c0,.16,.13,.3,.29,.31,.17,0,.31-.11,.32-.27,0-.16-.13-.3-.29-.31-.17,0-.31,.11-.32,.27Z"/><path class="cls-16" d="M53.26,17.32s.27-.13,.6-.13c.33,0,.57,.17,.6,.13,.02-.02-.02-.09-.13-.17-.1-.08-.28-.15-.48-.15-.2,0-.38,.08-.48,.15-.1,.08-.14,.15-.12,.17Z"/></g><path class="cls-16" d="M52.07,19.76s-.2-.05-.53-.1c-.08,0-.16-.03-.18-.08-.02-.06,.02-.15,.06-.25,.08-.2,.16-.42,.25-.64,.35-.91,.6-1.66,.56-1.67-.04-.01-.35,.71-.69,1.62-.08,.22-.16,.44-.24,.64-.03,.1-.09,.2-.04,.33,.02,.06,.08,.11,.14,.12,.05,.02,.1,.02,.14,.02,.33,.02,.54,.02,.54,0Z"/><path class="cls-4" d="M51.83,23.64s1.6,.11,3.19-.84c0,0-.81,1.65-3.19,1.42v-.57Z"/><path class="cls-4" d="M52.2,20.55c.12-.16,.33-.24,.53-.22,.14,.02,.29,.08,.37,.2,.09,.12,.1,.28,.03,.39-.09,.12-.27,.15-.43,.11-.16-.04-.29-.15-.42-.25-.04-.03-.07-.06-.09-.1-.02-.04-.03-.09,0-.12"/><path class="cls-16" d="M53.03,19.99c-.05,0-.05,.35-.36,.61-.31,.25-.69,.21-.69,.26,0,.02,.08,.07,.24,.07,.16,0,.39-.04,.57-.2,.19-.15,.27-.36,.28-.51,.01-.15-.03-.24-.05-.24Z"/></g><path class="cls-16" d="M53.12,16.75c.03,.09,.36,.05,.75,.1,.39,.04,.7,.15,.75,.07,.02-.04-.03-.12-.16-.21-.12-.09-.32-.17-.55-.2-.23-.03-.44,.01-.58,.07-.14,.06-.21,.13-.2,.17Z"/><path class="cls-16" d="M50.16,16.31c.06,.07,.28,0,.56,0,.27-.01,.5,.05,.56-.03,.02-.04-.01-.11-.11-.18-.1-.07-.26-.13-.45-.12-.19,0-.35,.07-.44,.15-.1,.08-.13,.15-.1,.19Z"/></g><path class="cls-16" d="M59.32,20.73c-.62,.25-1.17-1.65-1.73-2-.57-.35-1.14,.85-1.18,.19-.04-.59,.16-1.23-.15-1.74-.4-.67-1.45-.69-1.86-1.36-.24-.39-.19-.9-.45-1.27-.24-.35-.69-.49-1.11-.56-.42-.07-.86-.08-1.24-.27-.38-.19-.68-.64-.54-1.04,1.78-.13,3.58-.05,5.35,.25,.41,.07,.84,.16,1.13,.46,.31,.31,.39,.78,.45,1.21,.31,2.12,1.01,4.02,1.32,6.14"/></g></g><path class="cls-17" d="M49.58,16.56c.12-1.4,.96-3.16,2.23-3.76,1.27-.6,2.77-.66,3.92,.13,1.25,.86,1.58,2.31,1.74,3.81,.16,1.51-.08,2.05-.43,3.53l-.15,3.25c.87,.99,2.01-.13,2.18-.21s.78-1.12,.87-1.28c.91-1.7-.49-1.95-.25-2.9,.24-.96,.2-1.99-.18-2.9-.18-.43-.43-.83-.58-1.27-.16-.48-.18-1-.38-1.47-.22-.52-.66-.94-1.15-1.23-.49-.29-1.05-.45-1.6-.58-1.29-.29-2.14-.78-3.38-.33-1.24,.45-2.1,1.11-2.68,2.72-.22,.62-.28,1.84-.15,2.48"/><path class="cls-16" d="M50.07,13.79s.02-.05,.08-.13c.05-.09,.14-.21,.27-.35,.25-.29,.66-.68,1.28-.99,.61-.31,1.45-.52,2.36-.39,.9,.12,1.87,.58,2.57,1.39,.7,.81,1.01,1.81,1.16,2.7,.15,.9,.16,1.72,.09,2.41-.08,.68-.25,1.22-.41,1.57-.08,.18-.15,.31-.21,.39-.05,.09-.08,.13-.09,.13-.01,0,.1-.19,.25-.54,.15-.35,.31-.88,.37-1.56,.06-.68,.04-1.49-.11-2.38-.16-.88-.46-1.85-1.14-2.64-.68-.78-1.61-1.23-2.49-1.36-.89-.14-1.7,.07-2.31,.36-.61,.29-1.03,.67-1.28,.95-.26,.28-.37,.46-.38,.46Z"/><path class="cls-16" d="M59.28,22.94s-.08,.12-.28,.23c-.2,.11-.51,.21-.87,.18-.35-.03-.64-.19-.82-.34-.17-.15-.24-.28-.23-.28,.01-.01,.1,.09,.28,.22,.18,.12,.45,.26,.78,.29,.33,.03,.62-.05,.82-.14,.2-.09,.31-.17,.32-.16Z"/><path class="cls-16" d="M58.29,21.63s-.23-.21-.52-.44c-.29-.24-.55-.39-.54-.42,.01-.03,.31,.09,.61,.33,.3,.25,.47,.51,.45,.53Z"/><path class="cls-16" d="M58.48,19.84s-.01-.3-.23-.57c-.21-.27-.51-.32-.5-.35,0-.01,.08-.03,.2,0,.12,.03,.28,.12,.4,.27,.12,.15,.17,.32,.18,.44,0,.12-.02,.2-.04,.2Z"/><path class="cls-16" d="M58.42,18.91s-.11-.1-.25-.2c-.13-.1-.27-.15-.27-.18,0-.03,.17-.04,.33,.08,.16,.12,.21,.28,.18,.29Z"/><path class="cls-16" d="M57.05,13.04s-.08,.09-.19,.17c-.11,.08-.19,.15-.22,.14-.03-.02,.03-.14,.15-.23,.12-.09,.25-.11,.26-.08Z"/><path class="cls-16" d="M56.71,12.93s-.02,.1-.1,.16c-.08,.07-.15,.1-.18,.08-.02-.02,.02-.1,.1-.16,.08-.07,.15-.1,.18-.08Z"/><g><path class="cls-9" d="M56.58,19.19c0-.18,.21-.59,.38-.62,.47-.07,1.31-.03,1.32,1.15,0,1.62-1.62,1.3-1.63,1.25,0-.04-.07-1.17-.07-1.78Z"/><path class="cls-4" d="M57.15,20.36s.03,.02,.08,.04c.05,.02,.13,.04,.21,0,.17-.06,.31-.34,.32-.63,0-.15-.03-.29-.08-.4-.05-.12-.13-.2-.21-.22-.09-.02-.15,.03-.17,.08-.02,.05-.01,.08-.02,.08,0,0-.03-.03-.02-.09,0-.03,.03-.07,.06-.1,.04-.03,.1-.05,.16-.04,.13,0,.24,.12,.3,.25,.06,.13,.1,.29,.1,.45,0,.33-.17,.63-.41,.7-.11,.03-.21,0-.26-.04-.05-.04-.06-.08-.05-.08Z"/></g></g></g><g><g><path class="cls-16" d="M25.66,11.55c.17-.78,.73-1.2,1.47-1.5s1.63-.21,2.3,.24c.44,.3,.8,.75,1.32,.9,.85,.24,1.79-.43,2.61-.1,.48,.2,.79,.76,.69,1.27-.1,.51-.59,.92-1.11,.93,.55,.17,.77,.93,.48,1.44-.29,.5-.93,.72-1.51,.64-.57-.07-1.09-.39-1.54-.76-.45-.36-.86-.78-1.34-1.11-.48-.33-1.05-.56-1.63-.5-.78,.09-1.42,.71-1.73,1.43-.31,.72-.35,1.53-.35,2.31,0,.78,.03,1.58-.16,2.34-.02,.09-.06,.19-.14,.22-.12,.05-.24-.08-.31-.2-.78-1.28-1.31-2.72-1.55-4.2-.14-.86-.16-1.68,.28-2.44,.44-.76,1.61-1.36,2.23-.93"/><g><g><path class="cls-12" d="M24.49,16.69s-1.59-.42-1.49,1.14c.09,1.56,1.64,1.15,1.64,1.1,0-.04-.15-2.24-.15-2.24Z"/><path class="cls-11" d="M24.13,18.37s-.03,.02-.07,.04c-.04,.02-.12,.04-.2,.02-.17-.05-.32-.3-.35-.59-.01-.14,0-.28,.05-.39,.04-.12,.11-.2,.19-.22,.08-.02,.14,.02,.17,.06,.02,.04,.02,.07,.02,.08,0,0,.03-.03,.02-.09,0-.03-.03-.07-.07-.09-.04-.03-.1-.04-.15-.03-.12,.02-.22,.13-.27,.26-.05,.13-.08,.28-.07,.44,.03,.31,.21,.6,.44,.65,.11,.02,.2-.02,.25-.06,.05-.04,.05-.08,.05-.08Z"/></g><g><g><path class="cls-12" d="M28.07,11.23c2.35-.16,4.38,1.63,4.51,3.98,.1,1.96,.19,4.08,.17,5.15-.05,2.29-2.34,2.63-2.34,2.63,0,0,.05,.68,.11,1.52,.11,1.7-1.2,3.15-2.9,3.22h0c-1.67,.06-3.07-1.24-3.13-2.9l-.34-9.23c-.08-2.27,1.65-4.2,3.92-4.36h0Z"/><path class="cls-11" d="M30.41,22.99s-1.41,.07-2.94-.91c0,0,.69,1.67,2.98,1.48l-.04-.57Z"/></g><g><g><g><path class="cls-16" d="M31.81,16.83c0,.17-.14,.32-.32,.33-.18,0-.33-.12-.33-.3,0-.17,.14-.32,.32-.33,.18,0,.33,.13,.34,.3Z"/><path class="cls-16" d="M32.02,16.02s-.29-.14-.64-.15c-.35,0-.61,.17-.65,.13-.02-.02,.02-.1,.14-.18,.11-.08,.3-.16,.52-.16,.22,0,.4,.09,.51,.17,.11,.08,.14,.16,.12,.18Z"/></g><g><path class="cls-16" d="M28.41,16.78c0,.17-.14,.32-.32,.33-.18,0-.33-.12-.33-.3,0-.17,.14-.32,.32-.33,.18,0,.33,.13,.34,.3Z"/><path class="cls-16" d="M28.56,16.06s-.29-.14-.64-.14c-.35,0-.61,.17-.65,.13-.02-.02,.02-.1,.14-.18,.11-.08,.3-.16,.52-.16,.22,0,.4,.09,.51,.17,.11,.08,.14,.16,.12,.18Z"/></g><path class="cls-16" d="M29.82,18.68s.22-.06,.57-.1c.09,0,.18-.03,.19-.09,.02-.06-.02-.16-.06-.27-.08-.22-.17-.45-.26-.69-.36-.98-.62-1.78-.58-1.8,.04-.01,.36,.77,.73,1.74,.09,.24,.17,.47,.25,.69,.03,.1,.09,.22,.04,.35-.02,.07-.09,.12-.15,.13-.06,.02-.11,.02-.15,.02-.36,.02-.58,.02-.58,0Z"/><path class="cls-16" d="M28.78,18.92c.06,0,.06,.38,.38,.65,.32,.27,.73,.23,.73,.29,0,.02-.09,.07-.26,.08-.17,0-.41-.05-.61-.22-.2-.17-.28-.39-.29-.55-.01-.16,.03-.25,.06-.25Z"/></g><path class="cls-16" d="M28.62,14.92c-.04,.1-.39,.05-.8,.09-.41,.04-.75,.16-.8,.07-.02-.04,.03-.13,.17-.22,.13-.09,.35-.18,.6-.2,.25-.03,.47,.02,.62,.08,.15,.06,.23,.14,.21,.18Z"/><path class="cls-16" d="M31.97,14.97c-.06,.08-.3,0-.6-.01-.29-.02-.54,.05-.6-.03-.02-.04,.01-.12,.12-.2,.11-.07,.29-.13,.49-.13,.2,0,.37,.08,.47,.16,.1,.08,.14,.17,.11,.2Z"/></g></g></g><path class="cls-16" d="M32.98,14.16c-.44,.64-2.21,.38-3.09-.28-.62-.46-1.16-.82-1.91-1-.5-.12-1.05,.02-1.49,.29-.44,.28-.78,.68-1.08,1.11,.54,1.2,.31,2.59,.06,3.88-.03,.14-.06,.3-.17,.39-.19,.16-.49,.06-.67-.11-.29-.27-.42-.67-.51-1.05-.21-.87-.29-1.79-.14-2.68,.14-.89,.52-1.75,1.13-2.41,.77-.82,1.88-1.29,3-1.34,1.12-.05,2.25,.31,3.19,.93,.43,.29,.84,.65,1.08,1.11"/></g><g><g><g><path class="cls-2" d="M23.89,93.11l.11,4.61s-4.65,1.66-4.71,2.51l8.95,.11,.13-7.19-4.47-.05Z"/><g class="cls-19"><path class="cls-6" d="M26.77,97.37c.17,.05,.29,.25,.25,.42-.04,.17-.24,.3-.41,.25-.17-.05-.32-.28-.26-.45,.06-.17,.3-.3,.46-.21"/></g><g class="cls-19"><path class="cls-6" d="M28.23,100.34l-.02-.73-8.57,.16s-.4,.17-.36,.45l8.95,.11Z"/></g><path class="cls-16" d="M23.85,97.67s.22,.07,.43,.21c.22,.14,.33,.33,.37,.31,.04,0-.02-.27-.28-.44-.26-.17-.52-.12-.52-.08Z"/><path class="cls-16" d="M22.91,98.05s.18,.12,.32,.31c.15,.18,.19,.38,.23,.38,.04,0,.07-.25-.11-.48-.18-.23-.44-.25-.44-.21Z"/><path class="cls-16" d="M22.36,99.16s.1-.21,0-.45c-.11-.24-.31-.34-.33-.3-.03,.04,.11,.17,.19,.36,.09,.2,.1,.38,.14,.39Z"/><path class="cls-16" d="M23.94,96.62s.22-.02,.47,0c.25,.01,.44,.1,.46,.06,.03-.03-.16-.2-.45-.21-.29-.02-.5,.11-.48,.15Z"/></g><path class="cls-16" d="M23.94,95.69s.17,.05,.45,0c.14-.02,.3-.06,.47-.14,.09-.04,.17-.08,.26-.13,.04-.03,.09-.05,.14-.1,.05-.04,.08-.16,.02-.23-.04-.07-.13-.1-.19-.1-.07,0-.12,0-.17,.02-.1,.02-.19,.05-.28,.09-.17,.08-.31,.17-.42,.27-.21,.19-.28,.35-.27,.36,.02,.01,.12-.12,.34-.28,.11-.08,.24-.16,.4-.22,.08-.03,.17-.06,.26-.08,.1-.02,.18-.02,.2,.02,0,.02,0,.02-.01,.05-.02,.03-.06,.05-.1,.08-.08,.05-.16,.09-.24,.13-.16,.08-.31,.13-.44,.16-.26,.07-.43,.08-.43,.1Z"/><path class="cls-16" d="M24,95.75s.1-.15,.12-.43c0-.14,0-.31-.05-.49-.03-.09-.06-.18-.11-.27-.05-.09-.11-.21-.28-.23-.09,0-.16,.06-.19,.12-.03,.06-.04,.11-.05,.16-.02,.1-.02,.21,0,.3,.03,.19,.1,.35,.19,.47,.17,.23,.35,.29,.36,.27,.01-.02-.14-.11-.27-.33-.06-.11-.12-.26-.14-.42,0-.08,0-.17,.01-.26,.02-.09,.05-.17,.09-.16,.04,0,.12,.07,.15,.15,.04,.08,.08,.16,.11,.24,.05,.16,.08,.32,.08,.45,0,.26-.04,.43-.02,.43Z"/></g><g><g><path class="cls-2" d="M40.17,93.29l-.17,4.61s4.63,1.72,4.68,2.58l-8.95-.02-.02-7.19,4.47,.02Z"/><g class="cls-19"><path class="cls-6" d="M37.23,97.51c-.17,.05-.29,.24-.25,.42s.24,.3,.41,.25c.17-.04,.33-.27,.27-.44-.06-.17-.3-.3-.46-.22"/></g><g class="cls-19"><path class="cls-6" d="M35.73,100.46l.03-.73,8.57,.29s.4,.17,.35,.45l-8.95-.02Z"/></g><path class="cls-16" d="M40.14,97.85s-.22,.06-.44,.2c-.22,.13-.33,.32-.37,.31-.04,0,.03-.27,.29-.43,.26-.17,.53-.11,.52-.07Z"/><path class="cls-16" d="M41.08,98.24s-.18,.12-.33,.3c-.15,.18-.19,.38-.24,.38-.04,0-.07-.25,.12-.48,.19-.23,.44-.25,.45-.2Z"/><path class="cls-16" d="M41.61,99.37s-.1-.21,.01-.45c.11-.24,.32-.33,.34-.3,.02,.04-.11,.16-.2,.36-.09,.2-.11,.38-.15,.38Z"/><path class="cls-16" d="M40.07,96.8s-.22-.02-.47,0c-.25,.01-.44,.09-.46,.06-.03-.03,.16-.19,.45-.21,.29-.02,.5,.12,.47,.16Z"/></g><path class="cls-16" d="M40.09,95.87s-.17,.04-.45,0c-.14-.02-.3-.07-.47-.14-.08-.04-.17-.08-.26-.14-.04-.03-.09-.05-.14-.11-.05-.05-.08-.16-.02-.23,.05-.07,.13-.1,.19-.1,.07,0,.12,.01,.17,.02,.1,.02,.19,.06,.28,.1,.17,.08,.31,.18,.41,.27,.21,.19,.28,.36,.26,.36-.02,.01-.12-.12-.33-.28-.11-.08-.24-.16-.4-.23-.08-.03-.17-.06-.26-.08-.09-.03-.18-.03-.2,.02,0,.02-.01,.02,0,.05,.02,.03,.06,.05,.1,.08,.08,.05,.16,.1,.24,.14,.16,.08,.31,.13,.43,.17,.26,.07,.43,.08,.42,.11Z"/><path class="cls-16" d="M40.03,95.93s-.1-.15-.12-.43c0-.14,0-.31,.06-.49,.03-.09,.07-.18,.11-.27,.05-.09,.12-.21,.29-.23,.09,0,.16,.07,.19,.13,.03,.06,.04,.11,.05,.16,.02,.1,.01,.21,0,.3-.03,.19-.11,.35-.19,.46-.18,.23-.36,.28-.36,.27-.01-.02,.14-.11,.27-.33,.07-.11,.13-.25,.14-.42,0-.08,0-.17,0-.26-.01-.1-.05-.17-.08-.16-.04,0-.12,.07-.16,.15-.05,.08-.08,.16-.11,.24-.06,.16-.08,.32-.09,.45-.01,.26,.03,.43,0,.43Z"/></g><polygon class="cls-16" points="34.88 48.8 41.66 97.4 35.09 97.27 27.82 56.55 29.42 97.46 22.22 97.02 19.69 48.5 34.88 48.8"/></g><g><path class="cls-14" d="M24.54,26.29l-.09-2.72s.54,2.49,3.37,2.46c2.7-.03,2.65-2.19,2.65-2.19l.1,1.1v4.43l-1.76,7.22-2.25,.29-2.49-9.87,.47-.7Z"/><path class="cls-16" d="M30.22,25.43s0,.02-.03,.06c-.02,.04-.05,.09-.11,.16-.1,.13-.26,.31-.5,.49-.24,.18-.56,.34-.94,.44-.38,.1-.82,.14-1.27,.09-.45-.06-.86-.2-1.22-.37-.35-.17-.65-.36-.89-.54-.24-.18-.42-.33-.54-.45-.06-.06-.11-.1-.14-.13-.03-.03-.05-.05-.04-.05s.02,.01,.05,.04c.04,.03,.09,.07,.14,.12,.12,.11,.31,.26,.55,.43,.24,.17,.54,.36,.89,.52,.35,.16,.76,.3,1.2,.36,.44,.05,.87,.02,1.25-.08,.37-.1,.69-.25,.93-.42,.24-.17,.41-.34,.51-.47,.1-.13,.15-.2,.16-.2Z"/></g><g><path class="cls-3" d="M28.41,62.69l.04-11.67-.05-15.23-3.83-9.36-.12-2.82-2.22,1.68s-3.23,11.12-3.28,10.74c-.05-.39,.78,9.88,.78,9.88l-1.28,17.3,9.96-.52Z"/><path class="cls-3" d="M31.46,24.81c-.65-1.14-.99-1.02-.99-1.02l.03,.41v.85s-.31,3.66-.31,3.66l-2.07,6.86,.32,15.18,.77,12.01,9.59-.78-3.34-16.54,1.2-11.42-.08-6.29-5.12-2.91Z"/><path class="cls-16" d="M26.01,49.9s-.04,.09-.14,.23c-.1,.14-.25,.34-.47,.57-.43,.45-1.15,.98-2.07,1.27-.92,.29-1.81,.27-2.42,.15-.31-.06-.55-.13-.71-.19-.16-.06-.25-.1-.25-.11,0-.02,.37,.13,.97,.22,.61,.1,1.48,.11,2.37-.18,.9-.28,1.6-.79,2.04-1.22,.44-.43,.65-.76,.67-.74Z"/><path class="cls-1" d="M24.04,52.09c-.03-.15-.06-.31-.12-.45l1.01-.59s-.82-.6-1.96-.54c-.64,.03-1.29,.38-1.73,.67-.12,.06-.24,.13-.33,.22-.03,.02-.06,.04-.09,.06-.05,.04-.09,.08-.13,.13,0,0,0,0,0,0h0c-.2,.24-.3,.57-.35,.89-.12,.68-.13,1.37-.04,2.05,.04,.26,.14,.57,.39,.62,.15,.03,.3-.06,.4-.19,0,.3,.03,.59,.09,.88,.04,.22,.15,.49,.37,.5,.24,0,.36-.28,.4-.51,.09-.49,.11-.99,.06-1.49,.12,.25,.08,.55,.12,.83s.26,.59,.53,.53c.27-.05,.36-.4,.38-.67,.07-.72,.15-1.45,.22-2.17,.15,.24,.14,.55,.25,.81,.11,.26,.46,.47,.67,.28,.13-.13,.11-.34,.08-.53-.07-.44-.15-.89-.24-1.33Z"/><path class="cls-16" d="M24.69,58.05s-.07,.09-.21,.22c-.14,.13-.36,.32-.66,.51-.3,.19-.69,.38-1.16,.46-.46,.08-1.01,.05-1.51-.19-.51-.24-.84-.69-1.02-1.13-.18-.44-.23-.87-.25-1.22-.02-.35,0-.64,.01-.84,.01-.2,.03-.31,.03-.3,.02,0,0,.44,.04,1.14,.03,.35,.09,.76,.27,1.18,.18,.42,.49,.84,.97,1.07,.47,.23,1,.26,1.44,.19,.45-.08,.83-.25,1.13-.43,.6-.36,.9-.69,.92-.67Z"/><path class="cls-16" d="M35.5,50.04s-.05,.04-.14,.11c-.1,.06-.24,.14-.43,.23-.38,.17-.94,.33-1.58,.34-.64,.01-1.2-.12-1.59-.28-.19-.08-.34-.15-.44-.21-.1-.06-.15-.09-.15-.1,.01-.02,.23,.1,.62,.23,.38,.13,.94,.25,1.56,.24,.62-.01,1.17-.15,1.55-.3,.38-.15,.6-.28,.61-.26Z"/><path class="cls-16" d="M28.45,51.72s0-.06-.01-.17c0-.12,0-.28-.01-.48,0-.43-.01-1.03-.02-1.76-.02-1.5-.06-3.54-.09-5.8-.04-2.26-.07-4.31-.1-5.8,0-.73-.02-1.33-.02-1.76,0-.2,0-.36,0-.48,0-.11,0-.17,0-.17,0,0,0,.06,.02,.17,0,.12,.01,.28,.02,.48,.01,.43,.03,1.03,.06,1.76,.04,1.48,.09,3.54,.13,5.8,.04,2.27,.06,4.32,.06,5.8,0,.74,0,1.34-.01,1.76,0,.2,0,.36-.01,.48,0,.11,0,.17-.01,.17Z"/><polygon class="cls-13" points="22.27 27.13 22.72 27.47 22.4 29.55 27.72 35.12 22.89 28.77 23.3 27.13 22.27 27.13"/><path class="cls-3" d="M28.46,42.05l-8.16-2.39-.27-6.2,2.24-8.17s-5.34,2.66-5.7,4.36c-.36,1.69-1.24,5.81-1.33,8.79-.08,2.66-.1,4.44,.51,5.29,1.02,1.43,5.4,2.35,9.76,2.14,3.07-.15,6.14-.96,8.03-2.14"/><path class="cls-16" d="M27.82,35.25s0,0-.03-.03c-.02-.02-.04-.05-.07-.09-.07-.08-.16-.2-.28-.36-.24-.31-.59-.76-1.01-1.31-.85-1.11-2.02-2.65-3.32-4.34-.08-.11-.17-.22-.25-.33h0s0-.02,0-.02c.14-.57,.28-1.12,.41-1.64l.03,.03c-.36,0-.7,0-1.03,0h-.03s0-.03,0-.03c0-.67,0-1.29,0-1.83h0s0-.02,0-.02c.67-.51,1.22-.93,1.6-1.22,.19-.14,.34-.25,.44-.33,.05-.04,.09-.06,.12-.08,.03-.02,.04-.03,.04-.03,0,0-.01,.01-.04,.03-.03,.02-.06,.05-.11,.09-.1,.08-.25,.19-.43,.34-.38,.29-.92,.72-1.59,1.23v-.02c0,.55,.01,1.16,.01,1.83l-.03-.03c.33,0,.68,0,1.03,0h.04s0,.03,0,.03c-.13,.53-.27,1.08-.41,1.64v-.02c.08,.11,.16,.22,.24,.33,1.29,1.7,2.46,3.24,3.3,4.35,.42,.56,.76,1.01,1,1.32,.12,.15,.21,.28,.27,.36,.03,.04,.05,.07,.07,.09,.02,.02,.02,.03,.02,.03Z"/><path class="cls-3" d="M36.58,27.72s1.93,1.43,2.1,3.73c.14,1.87,.45,6.98,.5,8.09,.09,1.73-1.26,5.79-4.77,4.64-2.11-.69-9.89-3.33-9.89-3.33l.52-3.3,9.24,.55,.18-7.7,2.12-2.66Z"/><path class="cls-12" d="M24.94,37.92s-2.61-.28-3.22-.14c-.58,.14-1.41,.85-1.41,.85v1.03s4.22,1.18,4.22,1.18l.41-2.92Z"/><path class="cls-16" d="M28.22,35.46s0-.01,.01-.04c0-.03,.02-.06,.04-.1,.04-.09,.09-.22,.16-.39,.14-.34,.34-.83,.58-1.43,.25-.61,.55-1.32,.87-2.12,.08-.2,.16-.41,.27-.61,.1-.2,.21-.41,.33-.61,.25-.4,.52-.8,.83-1.2,.15-.19,.3-.38,.46-.57v.03c-.12-.28-.22-.56-.33-.83v-.03s.02,0,.02,0c.48-.16,.93-.32,1.36-.46v.04c-.65-1.06-1.18-1.95-1.56-2.58-.19-.31-.35-.56-.52-.67-.08-.05-.16-.07-.21-.08-.05-.01-.08-.02-.08-.02,0,0,.03,0,.08,.01,.05,0,.13,.03,.21,.08,.09,.05,.18,.14,.26,.25,.09,.11,.18,.25,.27,.41,.38,.63,.92,1.52,1.56,2.57l.02,.03h-.03c-.43,.16-.88,.31-1.36,.48l.02-.04c.11,.27,.22,.55,.33,.83v.02s0,.01,0,.01c-.16,.18-.31,.37-.46,.56-.3,.39-.58,.79-.83,1.19-.12,.2-.24,.4-.33,.6-.1,.2-.18,.41-.27,.6-.33,.8-.63,1.51-.89,2.12-.25,.6-.46,1.09-.6,1.43-.07,.17-.13,.29-.17,.39-.02,.04-.03,.07-.04,.1-.01,.02-.02,.03-.02,.03Z"/><path class="cls-16" d="M37.64,43.54s-.01,.01-.03,.03c-.02,.02-.06,.06-.1,.1-.09,.08-.23,.2-.42,.32-.2,.12-.46,.24-.78,.33-.32,.08-.7,.11-1.11,.07-.21-.02-.42-.07-.64-.13-.22-.07-.43-.15-.66-.23-.46-.17-.95-.34-1.46-.52-1.03-.36-2.17-.75-3.36-1.14-2.4-.79-4.58-1.45-6.16-1.92-.79-.23-1.43-.42-1.88-.55-.22-.07-.39-.12-.51-.15-.06-.02-.1-.03-.13-.04-.03,0-.04-.01-.04-.02,0,0,.02,0,.05,.01,.03,0,.08,.02,.13,.04,.12,.03,.29,.08,.51,.14,.44,.12,1.09,.31,1.88,.54,1.59,.46,3.77,1.12,6.17,1.91,1.2,.39,2.33,.78,3.36,1.14,.51,.18,1,.36,1.46,.52,.23,.08,.45,.17,.66,.24,.21,.07,.42,.11,.63,.14,.41,.05,.78,.02,1.1-.06,.32-.08,.58-.2,.77-.31,.2-.12,.34-.23,.43-.31,.04-.04,.08-.07,.1-.09,.02-.02,.04-.03,.04-.03Z"/><path class="cls-16" d="M20.32,39.69s-.15-.02-.38-.01c-.12,0-.26,.02-.4,.07-.15,.04-.3,.11-.45,.21-.3,.19-.51,.45-.63,.65-.12,.2-.18,.34-.19,.33,0,0,0-.04,.03-.1,.02-.06,.06-.15,.12-.25,.12-.21,.32-.48,.64-.68,.16-.1,.32-.17,.47-.21,.15-.04,.3-.06,.42-.06,.12,0,.22,.01,.28,.03,.07,.01,.1,.02,.1,.03Z"/><path class="cls-16" d="M17.75,38.88s0-.01,.01-.03c0-.02,.02-.04,.05-.07,.05-.06,.15-.12,.29-.14,.14-.03,.3-.02,.48,0,.18,.02,.37,.07,.57,.14,.39,.14,.71,.36,.9,.55,.1,.1,.17,.18,.21,.24,.04,.06,.06,.1,.06,.1,0,0-.1-.13-.3-.32-.2-.18-.51-.39-.89-.53-.19-.07-.38-.11-.56-.14-.17-.03-.33-.04-.46-.01-.13,.02-.23,.07-.28,.12-.05,.05-.07,.09-.08,.09Z"/><path class="cls-16" d="M20.79,31.76s-.02-.06-.04-.17c-.02-.05-.04-.12-.07-.19-.04-.07-.07-.15-.12-.24-.1-.17-.24-.36-.42-.55-.18-.19-.39-.39-.64-.56-.49-.35-1.01-.56-1.39-.64-.19-.03-.35-.06-.46-.06-.11,0-.17-.01-.17-.01,0,0,.06,0,.17,0,.11,0,.27,.01,.47,.04,.39,.07,.92,.28,1.42,.63,.25,.18,.46,.38,.64,.57,.18,.2,.32,.39,.41,.57,.05,.09,.08,.17,.12,.25,.02,.08,.04,.14,.06,.2,.01,.11,.02,.17,.02,.17Z"/><path class="cls-16" d="M36.29,41.24s0-.01,0-.04c0-.03,0-.07,0-.12,0-.1,0-.25-.02-.44-.03-.38-.1-.95-.33-1.6-.06-.16-.12-.33-.22-.49-.1-.16-.25-.29-.43-.37-.37-.16-.82-.14-1.27-.16-.92-.04-1.92-.08-2.98-.13-2.46-.11-4.65-.2-6.02-.27h.02c-.08,.49-.15,.89-.19,1.17-.02,.13-.04,.24-.05,.31,0,.03-.01,.06-.02,.08,0,.02,0,.03,0,.03s0,0,0-.03c0-.02,0-.05,.01-.08,.01-.07,.03-.18,.04-.31,.04-.28,.1-.68,.18-1.19v-.02s.02,0,.02,0c1.38,.06,3.56,.15,6.02,.25,1.06,.05,2.06,.09,2.98,.13,.23,.01,.45,.02,.67,.03,.22,.02,.43,.05,.62,.14,.19,.08,.35,.22,.45,.39,.1,.16,.17,.34,.23,.5,.23,.66,.29,1.22,.31,1.61,.01,.19,.01,.34,.01,.45,0,.05,0,.09,0,.12,0,.03,0,.04,0,.04Z"/><path class="cls-16" d="M34.53,34.01s.03,.89,.03,2-.01,2-.03,2-.03-.89-.03-2,.01-2,.03-2Z"/><path class="cls-16" d="M16.63,29.45s0,.03-.02,.07c-.01,.05-.04,.12-.07,.22-.05,.19-.12,.48-.2,.85-.15,.75-.34,1.84-.56,3.21-.11,.68-.22,1.44-.33,2.25-.06,.41-.09,.83-.12,1.27-.03,.44-.05,.89-.07,1.36-.03,.93-.05,1.92-.03,2.94,0,.26,.02,.52,.04,.78,0,.13,.03,.26,.04,.39,.03,.13,.05,.26,.09,.38,.08,.25,.2,.49,.37,.7,.17,.21,.38,.39,.63,.49h0s0,0,0,0c.51,.26,1.07,.46,1.64,.63,.57,.17,1.17,.31,1.77,.43,1.35,.27,2.68,.44,3.97,.48,.64,.02,1.28,0,1.89-.05,.62-.04,1.22-.11,1.8-.19,1.17-.17,2.25-.43,3.23-.75,.98-.32,1.86-.72,2.61-1.12v.04c-1.52-.54-2.74-.97-3.58-1.27-.42-.15-.74-.27-.97-.34-.11-.04-.19-.07-.25-.09-.06-.02-.08-.03-.08-.03,0,0,.03,0,.09,.03,.06,.02,.14,.05,.25,.09,.22,.08,.55,.19,.97,.33,.84,.29,2.07,.72,3.59,1.25h.04s-.04,.04-.04,.04c-.76,.41-1.63,.8-2.62,1.13-.98,.33-2.07,.59-3.24,.76-.58,.09-1.19,.15-1.81,.2-.62,.05-1.25,.07-1.9,.05-1.29-.05-2.63-.21-3.98-.48-.6-.12-1.2-.26-1.77-.44-.57-.17-1.14-.37-1.65-.63h0c-.27-.1-.48-.29-.66-.5-.17-.22-.3-.46-.38-.72-.04-.13-.07-.26-.1-.39-.02-.13-.04-.26-.04-.39-.02-.26-.03-.52-.04-.78-.03-1.03,0-2.01,.03-2.95,.02-.47,.04-.92,.07-1.36,.03-.44,.07-.86,.12-1.27,.11-.81,.23-1.57,.34-2.25,.22-1.37,.41-2.46,.57-3.21,.08-.37,.15-.66,.21-.85,.03-.1,.06-.17,.07-.22,.02-.05,.03-.07,.03-.07Z"/><path class="cls-13" d="M20.31,38.92c1.36-1.51,1.3-4.2,.52-6.1-.07,2.07-.32,3.9-.5,5.9"/><path class="cls-16" d="M20.83,33.2s0,.02,0,.07c0,.05,0,.11-.01,.19-.01,.17-.03,.41-.05,.69-.05,.59-.11,1.4-.19,2.28-.07,.89-.13,1.69-.18,2.29-.02,.29-.04,.52-.05,.69,0,.08-.01,.14-.02,.19,0,.04,0,.07,0,.07,0,0,0-.02,0-.07,0-.05,0-.11,0-.19,0-.16,.02-.4,.03-.69,.03-.59,.09-1.39,.16-2.29,.07-.89,.15-1.7,.21-2.28,.03-.29,.05-.52,.07-.69,0-.08,.02-.14,.02-.19,0-.04,.01-.07,.01-.07Z"/><g><path class="cls-16" d="M24.2,30.47s.03,.52,.03,1.17-.01,1.17-.03,1.17-.03-.52-.03-1.17,.01-1.17,.03-1.17Z"/><g><g><path class="cls-13" d="M23.31,34.37c.02,.24,.12,.45,.25,.62,.13,.17,.39,.33,.6,.32,0,0,.52,.04,.81-.4,.26-.41,.32-1.25,.11-1.75-.14-.34-.46-.66-.83-.67-.49-.01-.79,.34-.9,.7"/><path class="cls-16" d="M23.35,33.17s.01-.09,.09-.24c.04-.07,.1-.16,.18-.24,.08-.08,.2-.16,.35-.2,.07-.02,.15-.04,.23-.04,.08,0,.17,0,.25,.03,.17,.05,.33,.17,.45,.32,.13,.15,.22,.34,.27,.55,.05,.21,.06,.43,.05,.66-.02,.35-.09,.69-.28,.96-.1,.13-.23,.22-.37,.28-.14,.06-.28,.08-.42,.07h0c-.11,0-.21-.03-.3-.07-.09-.04-.16-.1-.22-.16-.13-.12-.19-.25-.24-.36-.05-.11-.07-.21-.08-.27,0-.03,0-.06,0-.07,0-.02,0-.03,0-.03,0,0,0,.14,.11,.36,.05,.11,.12,.24,.25,.35,.06,.05,.13,.11,.22,.15,.08,.04,.18,.07,.28,.07h0s0,0,0,0c.25,0,.55-.09,.74-.33,.18-.25,.25-.59,.27-.93,.02-.44-.05-.88-.3-1.17-.12-.15-.27-.26-.43-.31-.08-.03-.16-.04-.24-.03-.08,0-.15,.01-.22,.03-.14,.04-.25,.11-.33,.19-.08,.08-.14,.16-.19,.23-.08,.14-.1,.23-.11,.23Z"/></g><g><path class="cls-13" d="M23.05,34.39c.02,.24,.12,.45,.25,.62,.13,.17,.39,.33,.6,.32,0,0,.52,.04,.81-.4,.26-.41,.32-1.25,.11-1.75-.14-.34-.46-.66-.83-.67-.49-.01-.79,.34-.9,.7"/><path class="cls-16" d="M23.09,33.2s.01-.09,.09-.24c.04-.07,.1-.16,.18-.24,.08-.08,.2-.16,.35-.2,.07-.02,.15-.04,.23-.04,.08,0,.17,0,.25,.03,.17,.05,.33,.17,.45,.32,.13,.15,.22,.34,.27,.55,.05,.21,.06,.43,.05,.66-.02,.35-.09,.69-.28,.96-.1,.13-.23,.22-.37,.28-.14,.06-.28,.08-.42,.07h0c-.11,0-.21-.03-.3-.07-.09-.04-.16-.1-.22-.16-.13-.12-.19-.25-.24-.36-.05-.11-.07-.21-.08-.27,0-.03,0-.06,0-.07,0-.02,0-.03,0-.03,0,0,0,.14,.11,.36,.05,.11,.12,.24,.25,.35,.06,.05,.13,.11,.22,.15,.08,.04,.18,.07,.28,.07h0s0,0,0,0c.25,0,.55-.09,.74-.33,.18-.25,.25-.59,.27-.93,.02-.44-.05-.88-.3-1.17-.12-.15-.27-.26-.43-.31-.08-.03-.16-.04-.24-.03-.08,0-.15,.01-.22,.03-.14,.04-.25,.11-.33,.19-.08,.08-.14,.16-.19,.23-.08,.14-.1,.23-.11,.23Z"/></g><g><path class="cls-13" d="M23.52,33.07c-.24-.05-.49,.12-.6,.34-.1,.22-.08,.49,0,.72,.04,.12,.1,.23,.18,.33s.21,.16,.33,.16c.18,0,.35-.12,.46-.27,.17-.24,.23-.56,.16-.85-.05-.19-.19-.39-.39-.39"/><path class="cls-16" d="M23.66,33.11s.02,0,.04,0c.03,0,.07,.01,.12,.04,.1,.05,.21,.19,.25,.38,.05,.19,.04,.44-.07,.68-.06,.12-.13,.24-.25,.33-.11,.09-.27,.15-.43,.1-.15-.04-.27-.16-.34-.28-.07-.12-.12-.26-.14-.38-.05-.26-.01-.51,.11-.67,.12-.16,.28-.23,.39-.25,.05,0,.1,0,.13,0,.03,0,.04,.01,.04,.01,0,0-.06-.01-.16,.01-.1,.02-.25,.09-.36,.25-.11,.15-.15,.39-.09,.64,.03,.12,.07,.25,.14,.36,.07,.11,.17,.22,.31,.25,.13,.04,.27,0,.38-.09,.11-.08,.18-.19,.24-.3,.11-.23,.12-.46,.08-.65-.04-.19-.14-.32-.23-.37-.09-.06-.15-.05-.15-.06Z"/></g><path class="cls-16" d="M24.08,34.89s-.02-.03-.06-.08c-.04-.04-.1-.09-.19-.12-.09-.03-.17-.03-.23-.04-.06,0-.1,0-.1-.02,0,0,.04-.02,.1-.02,.06,0,.15,0,.25,.02,.1,.03,.17,.09,.21,.15,.03,.06,.03,.1,.03,.1Z"/><path class="cls-16" d="M24.16,32.92s-.02,.04-.07,.08c-.05,.04-.13,.08-.23,.1-.1,.02-.19,0-.25-.01-.06-.02-.1-.04-.09-.05,0-.02,.15,.04,.34,0,.18-.03,.3-.14,.31-.13Z"/></g></g><g><path class="cls-16" d="M31.78,24.98s.01,0,.04,.01c.02,.01,.06,.03,.1,.05,.08,.05,.2,.12,.33,.24,.26,.22,.57,.62,.71,1.13,.15,.5,.24,.97,.27,1.31,.02,.17,.03,.31,.04,.41,0,.1,0,.15,0,.15,0,0-.01-.05-.03-.15-.01-.11-.03-.24-.05-.4-.05-.34-.13-.8-.29-1.3-.14-.5-.44-.89-.69-1.12-.25-.23-.45-.32-.44-.33Z"/><g><path class="cls-16" d="M30.4,37.18c.32-.01,.58-.33,.9-.32,.24,.01,.44,.25,.42,.48-.02,.24-.26,.43-.5,.41-.34-.04-.53-.43-.87-.51"/><path class="cls-16" d="M33.13,37.46c-.1,0-.2,0-.3-.02l.02-.11c.4,.06,.73,0,.99-.19,.33-.24,.54-.67,.63-1.28v-.02c.04-.24,.09-4.98,.09-5.88,0-1.41-1.23-1.6-1.29-1.61-.05,0-1.17-.2-1.77,1.34-.62,1.61-1.62,4.71-1.69,5.07,0,.04-.02,.1-.03,.16-.1,.47-.32,1.43,.33,1.99,.72,.62,1.29,.38,1.31,.37l.05,.1s-.65,.28-1.43-.39c-.7-.6-.47-1.61-.36-2.1,.01-.06,.03-.12,.03-.16,.07-.37,1.07-3.48,1.69-5.09,.63-1.63,1.88-1.41,1.89-1.41,.01,0,1.38,.21,1.38,1.72,0,.74-.05,5.64-.09,5.9v.02c-.1,.64-.32,1.1-.68,1.36-.22,.16-.48,.24-.77,.24Z"/></g><path class="cls-16" d="M34.61,30.85s-.03-.24-.23-.55c-.1-.16-.24-.33-.44-.47-.19-.15-.44-.27-.71-.34-.55-.13-1.08,.01-1.4,.18-.33,.17-.48,.36-.49,.35,0,0,0-.01,.03-.03,.02-.02,.04-.05,.08-.09,.07-.07,.2-.17,.36-.26,.16-.09,.38-.18,.62-.22,.25-.04,.53-.05,.81,.02,.28,.07,.53,.2,.73,.35,.2,.16,.34,.33,.44,.5,.1,.16,.15,.31,.17,.41,.01,.05,.02,.09,.02,.12,0,.03,0,.04,0,.04Z"/></g><path class="cls-16" d="M37.43,39.71s-.03-.19-.15-.47c-.12-.28-.36-.65-.75-.9-.19-.13-.41-.18-.61-.22-.2-.03-.38-.05-.54-.06-.14-.01-.27-.02-.37-.03-.09,0-.13-.01-.13-.02,0,0,.05,0,.13,0,.1,0,.22,0,.37,0,.15,0,.34,.01,.54,.04,.2,.03,.43,.09,.63,.22,.41,.26,.65,.65,.76,.94,.06,.15,.09,.27,.1,.35,.01,.09,.02,.13,.01,.13Z"/><g><path class="cls-12" d="M31.84,37.86s1.09-1.65,1.37-1.87,2.66-1.29,2.94-1.12c.28,.17,.11,.55,.11,.55,0,0,1.01-.35,1.11-.21s.13,.37,0,.57c0,0,.56-.09,.56,.09s-.06,.39-.32,.58c-.26,.19-1.93,1.31-2.06,1.61l-.54-.03-3.16-.16Z"/><path class="cls-11" d="M34.98,37.39s.01-.04,.05-.1c.04-.06,.1-.15,.18-.26,.17-.21,.44-.46,.79-.67,.35-.21,.69-.35,.94-.44,.12-.05,.22-.08,.29-.11s.11-.03,.11-.03c0,0-.04,.02-.1,.05-.08,.03-.18,.08-.29,.12-.24,.1-.58,.25-.92,.45-.34,.2-.62,.44-.79,.64-.17,.2-.25,.34-.26,.34Z"/><path class="cls-11" d="M33.59,37.36s.02-.05,.05-.12c.04-.08,.09-.19,.17-.32,.08-.13,.17-.29,.3-.44,.07-.08,.13-.16,.23-.23,.09-.06,.19-.12,.29-.18,.4-.23,.78-.42,1.06-.53,.14-.06,.26-.09,.34-.11,.08-.02,.13-.03,.13-.02,0,0-.18,.05-.46,.18-.28,.12-.65,.31-1.05,.54-.1,.06-.2,.12-.29,.18-.08,.06-.16,.14-.22,.21-.13,.15-.23,.3-.31,.43-.07,.12-.13,.23-.18,.31-.04,.07-.07,.11-.07,.11Z"/></g></g></g><path class="cls-16" d="M8.83,94s.01-.04,.04-.11c.04-.08,.08-.18,.15-.31,.12-.27,.28-.69,.43-1.24,.28-1.1,.38-2.79-.04-4.79-.19-1-.51-2.08-.89-3.21-.38-1.14-.81-2.35-1.17-3.66-.35-1.31-.63-2.72-.58-4.21,.05-1.49,.49-2.97,.98-4.45,.48-1.48,.98-2.93,1.13-4.39,.17-1.45-.14-2.88-.8-4.05-.64-1.18-1.45-2.19-2.05-3.24-.61-1.04-1-2.12-1.23-3.11-.46-2.01-.3-3.71-.08-4.82,.24-1.12,.5-1.7,.5-1.7,0,0,0,.04-.03,.11-.03,.08-.06,.19-.1,.33-.09,.29-.2,.72-.31,1.28-.2,1.11-.34,2.8,.13,4.79,.24,.99,.63,2.05,1.24,3.07,.6,1.03,1.41,2.04,2.07,3.24,.68,1.18,1,2.66,.83,4.13-.15,1.48-.65,2.94-1.14,4.42-.48,1.48-.92,2.95-.98,4.41-.05,1.46,.22,2.87,.56,4.17,.35,1.3,.78,2.51,1.15,3.66,.38,1.14,.69,2.23,.87,3.23,.41,2.01,.29,3.72-.01,4.82-.15,.55-.32,.97-.46,1.24-.07,.13-.12,.23-.16,.3-.04,.07-.06,.1-.06,.1Z"/><path class="cls-2" d="M6.85,61.39s-1.23-3.92,.97-6.22c.08-.08,.21-.04,.23,.07,.12,.65,.26,2.62-1.21,6.15Z"/><path class="cls-16" d="M7.59,56.47s-.01,.28-.08,.72c-.08,.5-.18,1.08-.28,1.73-.1,.65-.2,1.23-.27,1.73-.07,.44-.11,.72-.13,.72-.02,0-.02-.28,.02-.73,.04-.45,.12-1.06,.23-1.74,.11-.68,.23-1.29,.32-1.72,.1-.44,.17-.71,.19-.7Z"/><path class="cls-2" d="M8.29,70.63s.75-4.04,3.77-5.04c.11-.04,.21,.06,.17,.17-.2,.63-.99,2.44-3.94,4.87Z"/><path class="cls-16" d="M11.24,66.64s-.14,.24-.41,.6c-.3,.4-.66,.88-1.06,1.4-.39,.52-.75,1-1.05,1.4-.27,.36-.43,.58-.45,.57-.02-.01,.12-.26,.36-.63,.25-.38,.6-.89,1.02-1.43,.41-.55,.8-1.03,1.09-1.37,.29-.34,.48-.55,.5-.53Z"/><path class="cls-2" d="M7.48,80.77s-.46-4.08,2.14-5.92c.09-.06,.22,0,.22,.11,0,.66-.24,2.62-2.36,5.81Z"/><path class="cls-16" d="M9.14,76.09s-.07,.27-.22,.69c-.17,.47-.38,1.03-.6,1.64-.22,.61-.43,1.17-.6,1.65-.15,.42-.24,.68-.26,.68-.02,0,.04-.28,.16-.71,.13-.43,.32-1.02,.56-1.67,.24-.64,.47-1.22,.65-1.63,.18-.41,.3-.66,.32-.65Z"/><path class="cls-2" d="M9.75,90.96s-.31-4.1,2.35-5.84c.09-.06,.22,0,.21,.12-.03,.66-.33,2.61-2.56,5.72Z"/><path class="cls-16" d="M11.58,86.35s-.08,.27-.24,.69c-.19,.47-.42,1.02-.66,1.62-.25,.61-.47,1.16-.66,1.62-.17,.42-.27,.67-.29,.67-.02,0,.05-.28,.19-.71,.14-.43,.36-1.01,.62-1.64,.26-.63,.51-1.2,.71-1.61,.19-.41,.32-.65,.34-.64Z"/><path class="cls-2" d="M5.09,57.94s-3.64-1.9-3.71-5.08c0-.11,.12-.18,.21-.12,.54,.37,2.04,1.66,3.5,5.2Z"/><path class="cls-16" d="M2.13,53.95s.19,.21,.45,.57c.3,.41,.64,.89,1.03,1.42,.39,.53,.73,1.01,1.03,1.42,.27,.36,.43,.58,.41,.6-.02,.01-.21-.19-.5-.53-.29-.35-.67-.84-1.07-1.39-.4-.56-.75-1.07-.99-1.45-.24-.38-.38-.62-.36-.63Z"/><path class="cls-2" d="M9,66.36s-3.75-1.68-4.02-4.85c0-.11,.11-.19,.2-.13,.56,.34,2.14,1.54,3.81,4.98Z"/><path class="cls-16" d="M5.81,62.56s.2,.2,.49,.54c.32,.39,.7,.85,1.11,1.35,.42,.5,.79,.96,1.11,1.35,.29,.34,.47,.56,.45,.57-.01,.01-.22-.17-.53-.5-.31-.33-.72-.79-1.15-1.33-.43-.53-.81-1.02-1.08-1.39-.27-.36-.42-.59-.4-.61Z"/><path class="cls-2" d="M6.84,75.76s-2.58-3.2-1.37-6.14c.04-.1,.18-.12,.24-.02,.35,.56,1.2,2.34,1.13,6.17Z"/><path class="cls-16" d="M5.73,70.92s.09,.27,.19,.7c.11,.49,.23,1.07,.37,1.71,.14,.64,.27,1.22,.38,1.71,.1,.44,.16,.71,.14,.71-.02,0-.12-.25-.25-.69-.13-.43-.28-1.03-.42-1.7-.14-.67-.26-1.28-.33-1.72-.07-.44-.1-.72-.08-.72Z"/><path class="cls-2" d="M9.4,86.81s-3.72-1.74-3.93-4.91c0-.11,.11-.19,.21-.13,.56,.35,2.11,1.57,3.73,5.04Z"/><path class="cls-16" d="M6.27,82.96s.2,.2,.48,.55c.31,.4,.68,.86,1.09,1.37,.41,.51,.78,.97,1.09,1.37,.28,.35,.46,.56,.44,.58-.01,.01-.22-.18-.52-.51-.3-.33-.71-.81-1.13-1.34-.42-.54-.8-1.04-1.05-1.4-.26-.37-.41-.6-.39-.61Z"/><path class="cls-16" d="M16.81,70.66s0,.03,0,.09c0,.07,0,.16,0,.26-.01,.25-.03,.58-.04,1-.05,.88-.11,2.1-.19,3.56h0s0,0,0,0c-.27,1.49-1.02,3.13-2.04,4.73-.75,1.18-1.53,2.25-2.2,3.25-.68,.99-1.25,1.91-1.65,2.73-.4,.81-.64,1.51-.77,2-.07,.25-.11,.44-.14,.57-.03,.13-.05,.2-.05,.2,0,0,0-.07,.02-.2,.02-.13,.06-.33,.12-.58,.12-.5,.34-1.21,.73-2.04,.39-.83,.96-1.76,1.63-2.76,.67-1,1.45-2.08,2.19-3.25,1.01-1.59,1.77-3.21,2.04-4.68h0c.1-1.45,.19-2.67,.25-3.55,.03-.42,.06-.75,.08-.99,.01-.1,.02-.19,.03-.26,0-.06,.01-.09,.02-.09Z"/><path class="cls-10" d="M14.59,80s1.58-3.79-.41-6.28c-.07-.09-.21-.06-.24,.05-.18,.63-.5,2.59,.64,6.23Z"/><path class="cls-16" d="M14.31,75.04s.07,.27,.12,.72c.06,.45,.12,1.06,.17,1.75,.05,.68,.07,1.31,.07,1.75,0,.45-.02,.73-.04,.73-.02,0-.04-.28-.06-.72-.03-.5-.07-1.09-.12-1.75-.05-.65-.09-1.24-.12-1.75-.03-.45-.04-.73-.02-.73Z"/><path d="M14.59,80s1.58-3.79-.41-6.28c-.07-.09-.21-.06-.24,.05-.18,.63-.5,2.59,.64,6.23Z"/><path class="cls-10" d="M9.71,89.15s1.26-3.91-.91-6.23c-.08-.08-.21-.04-.23,.07-.12,.65-.29,2.62,1.15,6.16Z"/><path class="cls-16" d="M9.02,84.23s.09,.27,.18,.71c.09,.44,.2,1.05,.31,1.73,.1,.68,.18,1.29,.21,1.74,.04,.45,.03,.73,.02,.73-.02,0-.06-.27-.12-.72-.07-.5-.16-1.08-.26-1.73-.1-.65-.19-1.23-.26-1.73-.06-.44-.1-.72-.08-.72Z"/><path d="M9.71,89.15s1.26-3.91-.91-6.23c-.08-.08-.21-.04-.23,.07-.12,.65-.29,2.62,1.15,6.16Z"/><path class="cls-10" d="M16.6,75.36s3.37-2.36,3.03-5.52c-.01-.11-.14-.16-.23-.09-.49,.44-1.81,1.91-2.8,5.61Z"/><path d="M16.6,75.36s3.37-2.36,3.03-5.52c-.01-.11-.14-.16-.23-.09-.49,.44-1.81,1.91-2.8,5.61Z"/><path class="cls-16" d="M19.02,71.03s-.09,.27-.28,.67c-.19,.41-.47,.96-.8,1.56-.33,.6-.64,1.14-.88,1.52-.24,.38-.41,.6-.43,.59-.02-.01,.12-.25,.33-.65,.24-.44,.53-.96,.84-1.54,.31-.58,.59-1.1,.83-1.54,.22-.39,.36-.63,.38-.62Z"/><path class="cls-10" d="M11.07,85.27s4.06-.63,5.15-3.62c.04-.1-.06-.21-.16-.18-.63,.18-2.47,.92-4.98,3.8Z"/><path d="M11.07,85.27s4.06-.63,5.15-3.62c.04-.1-.06-.21-.16-.18-.63,.18-2.47,.92-4.98,3.8Z"/><path class="cls-16" d="M15.15,82.44s-.2,.2-.55,.48c-.35,.28-.85,.66-1.4,1.05-.56,.4-1.08,.74-1.46,.98-.38,.23-.63,.36-.64,.34-.01-.02,.22-.18,.58-.43,.41-.29,.9-.63,1.43-1.01,.53-.38,1.02-.72,1.43-1.02,.37-.26,.6-.41,.61-.39Z"/><polygon class="cls-15" points="6.26 92.74 7.43 100.38 12.08 100.37 13.65 92.74 6.26 92.74"/><path class="cls-16" d="M12.96,95.69s-.01,.01-.04,.03c-.03,.02-.07,.04-.12,.07-.11,.05-.28,.12-.52,.16-.23,.03-.53,.03-.86-.08-.32-.1-.67-.31-.92-.67-.12-.18-.2-.4-.22-.64-.02-.23,.07-.52,.32-.66,.24-.14,.55-.09,.78,.06,.24,.16,.38,.43,.45,.7,.07,.28,.07,.57,.06,.86-.02,.29-.07,.59-.19,.88-.11,.29-.29,.56-.54,.77-.24,.21-.56,.36-.89,.37-.34,.02-.66-.1-.93-.27-.27-.17-.5-.39-.69-.63-.19-.24-.33-.53-.35-.84-.01-.3,.09-.62,.33-.81,.24-.2,.58-.18,.82-.05,.25,.13,.43,.36,.48,.62,.09,.52-.22,1-.59,1.21-.38,.22-.79,.22-1.12,.16-.33-.06-.6-.2-.8-.31-.2-.12-.35-.23-.45-.3-.1-.08-.15-.12-.14-.12,0,0,.06,.03,.16,.1,.1,.07,.25,.17,.46,.28,.2,.11,.47,.23,.79,.29,.32,.05,.71,.04,1.06-.17,.34-.2,.62-.65,.53-1.11-.04-.23-.2-.43-.42-.54-.22-.11-.5-.12-.7,.04-.2,.16-.3,.44-.28,.71,.02,.27,.15,.54,.33,.77,.18,.23,.41,.44,.66,.6,.26,.16,.55,.26,.86,.25,.3-.01,.59-.15,.82-.34,.23-.2,.4-.45,.51-.72,.11-.27,.16-.56,.18-.84,.02-.28,.01-.57-.05-.83-.06-.26-.19-.5-.39-.64-.2-.14-.47-.18-.66-.07-.2,.11-.28,.35-.27,.56,0,.22,.08,.42,.19,.59,.23,.34,.56,.54,.87,.65,.31,.11,.6,.12,.83,.1,.46-.05,.68-.22,.69-.2Z"/><g><path class="cls-16" d="M42.35,.85s-.04,0-.11,0c-.08,0-.19,0-.32,0-.07,0-.15,0-.24,.01-.09,.01-.18,.03-.29,.04-.1,.01-.21,.03-.33,.05-.12,.03-.24,.06-.37,.09-.52,.13-1.16,.36-1.81,.79-.65,.42-1.32,1.01-1.87,1.82-.54,.81-.95,1.83-1.06,2.97-.01,.29-.05,.58-.02,.87,.01,.15,0,.3,.03,.45,.02,.15,.05,.3,.07,.45,.12,.6,.3,1.21,.61,1.78,.3,.57,.69,1.11,1.16,1.6,.48,.47,1.05,.88,1.67,1.2,.63,.32,1.32,.54,2.04,.63,.18,.04,.36,.04,.54,.05,.18,.01,.37,.02,.55,0,.37-.01,.74-.06,1.1-.14,.79-.17,1.54-.49,2.19-.92h-.07c.76,.31,1.51,.61,2.23,.9l.13,.05-.04-.14c-.23-.82-.44-1.62-.66-2.39v.06c.62-.83,1.01-1.78,1.18-2.73,.08-.47,.12-.94,.09-1.4,0-.23-.02-.45-.06-.67-.02-.11-.03-.22-.05-.33-.02-.11-.05-.21-.08-.32-.43-1.68-1.47-2.92-2.49-3.63-.51-.36-1.02-.62-1.48-.78-.12-.04-.23-.08-.33-.12-.11-.03-.22-.05-.32-.08-.1-.03-.2-.05-.29-.07-.09-.02-.18-.03-.27-.04-.17-.02-.32-.05-.45-.06-.13,0-.24,0-.33-.01-.08,0-.15,0-.2,0-.04,0-.07,0-.07,0s.02,0,.07,0c.05,0,.12,0,.2,.02,.09,0,.2,.01,.33,.02,.13,.01,.28,.04,.44,.07,.66,.12,1.64,.38,2.65,1.12,1,.71,2.01,1.94,2.43,3.59,.02,.1,.06,.21,.08,.31,.02,.11,.03,.21,.05,.32,.04,.21,.05,.44,.06,.66,.03,.45,0,.91-.09,1.37-.17,.92-.56,1.85-1.18,2.67l-.02,.03v.03c.22,.77,.44,1.57,.66,2.39l.09-.08c-.73-.29-1.47-.59-2.23-.9h-.03s-.03,0-.03,0c-.64,.42-1.37,.74-2.14,.9-.36,.08-.72,.12-1.08,.14-.18,0-.36,0-.54,0-.18-.01-.36-.01-.53-.04-.7-.08-1.38-.3-1.99-.61-.61-.31-1.17-.71-1.64-1.17-.46-.47-.84-1-1.14-1.56-.3-.56-.48-1.15-.6-1.74-.02-.15-.05-.29-.07-.44-.02-.15-.02-.29-.03-.44-.03-.29,0-.58,.01-.86,.1-1.12,.5-2.13,1.03-2.93,.53-.8,1.19-1.39,1.83-1.81,.64-.42,1.26-.66,1.78-.8,.13-.03,.25-.07,.37-.1,.12-.02,.23-.04,.33-.05,.1-.02,.2-.03,.28-.05,.09,0,.17-.01,.24-.02,.14,0,.24-.02,.32-.02,.07,0,.11-.01,.11-.01Z"/><g><path class="cls-10" d="M44.75,6.26c-.13-.59-.7-1.1-1.3-1.04-.36,.04-.68,.25-.89,.54-.1,.12-.16,.21-.21,.31-.05-.09-.11-.18-.21-.31-.22-.28-.54-.5-.89-.54-.6-.06-1.17,.45-1.3,1.04s.09,1.22,.45,1.7c.36,.48,.97,1.11,2,1.34,.68-.16,1.54-.85,1.9-1.34s.59-1.11,.45-1.7Z"/><path class="cls-8" d="M44.64,7.35s0,0-.02,0c-.02,0-.03,0-.06,0-.05,0-.13,0-.23,0-.2,0-.48,0-.83,0h.01c-.07,.26-.16,.57-.25,.91l-.02,.06-.02-.05c-.15-.42-.31-.9-.49-1.39-.05-.15-.11-.31-.16-.45h.04c-.19,.33-.38,.64-.54,.93h0s-.01,0-.01,0c-.6,0-1.1,0-1.46,0-.17,0-.31,0-.41,0-.05,0-.08,0-.11,0-.02,0-.04,0-.04,0,0,0,.01,0,.04,0,.03,0,.06,0,.11,0,.1,0,.24,0,.41,0,.36,0,.86,0,1.46,0h-.02c.17-.28,.35-.59,.54-.92l.02-.04v.04c.07,.15,.12,.3,.17,.45,.17,.5,.34,.97,.48,1.4h-.03c.1-.34,.19-.66,.26-.92h0s.01-.01,.01-.01c.35,0,.63,0,.83,0,.1,0,.17,0,.23,0,.02,0,.04,0,.06,0,.01,0,.02,0,.02,0Z"/></g></g></svg>