<?xml version="1.0" encoding="UTF-8"?><svg id="Camada_1" xmlns="http://www.w3.org/2000/svg" viewBox="0 0 103.12 100.64"><defs><style>.cls-1{fill:#e3e1d2;}.cls-2{fill:#fff;}.cls-3{fill:#ff4242;}.cls-4{fill:#ff5959;}.cls-5{fill:#ff8585;}.cls-6{fill:#e0e0e0;}.cls-7{fill:#e33b3b;}.cls-8{fill:#525252;}</style></defs><g><path class="cls-6" d="M73.81,5.7h14.08c2.7,0,4.88,2.19,4.88,4.88V85.24c0,2.7-2.19,4.88-4.88,4.88H17.82c-2.7,0-4.88-2.19-4.88-4.88V10.58c0-2.7,2.19-4.88,4.88-4.88h55.99Z"/><path class="cls-2" d="M72.22,5.7h14.08c2.7,0,4.88,2.19,4.88,4.88V85.24c0,2.7-2.19,4.88-4.88,4.88H16.23c-2.7,0-4.88-2.19-4.88-4.88V10.58c0-2.7,2.19-4.88,4.88-4.88h55.99Z"/><path class="cls-3" d="M72.22,5.7h14.08c2.7,0,4.88,2.19,4.88,4.88V27.72H11.35V10.58c0-2.7,2.19-4.88,4.88-4.88h55.99Z"/><rect class="cls-7" x="11.35" y="27.01" width="79.84" height="4.13"/><path class="cls-5" d="M66.53,21.14h-30.53c-1.69,0-3.06-1.37-3.06-3.06s1.37-3.06,3.06-3.06h30.53c1.69,0,3.06,1.37,3.06,3.06s-1.37,3.06-3.06,3.06Z"/><g><path class="cls-8" d="M74.21,12.59c-1.14,0-2.06-.92-2.06-2.06V2.91c0-1.14,.92-2.06,2.06-2.06s2.06,.92,2.06,2.06v7.61c0,1.14-.92,2.06-2.06,2.06Z"/><path class="cls-8" d="M28.32,12.59c-1.14,0-2.06-.92-2.06-2.06V2.91c0-1.14,.92-2.06,2.06-2.06s2.06,.92,2.06,2.06v7.61c0,1.14-.92,2.06-2.06,2.06Z"/></g><g><rect class="cls-1" x="37.47" y="36.71" width="9.97" height="9.97" rx="4.61" ry="4.61"/><rect class="cls-1" x="55.14" y="36.71" width="9.97" height="9.97" rx="4.61" ry="4.61"/><rect class="cls-1" x="72.81" y="36.71" width="9.97" height="9.97" rx="4.61" ry="4.61"/><rect class="cls-1" x="19.79" y="54.69" width="9.97" height="9.97" rx="4.6" ry="4.6"/><rect class="cls-1" x="37.47" y="54.69" width="9.97" height="9.97" rx="4.6" ry="4.6"/><rect class="cls-1" x="55.14" y="54.69" width="9.97" height="9.97" rx="4.6" ry="4.6"/><rect class="cls-1" x="72.81" y="54.69" width="9.97" height="9.97" rx="4.6" ry="4.6"/><rect class="cls-1" x="19.79" y="72.67" width="9.97" height="9.97" rx="4.61" ry="4.61"/><rect class="cls-1" x="37.47" y="72.67" width="9.97" height="9.97" rx="4.61" ry="4.61"/><rect class="cls-4" x="55.14" y="72.67" width="9.97" height="9.97" rx="4.61" ry="4.61"/></g></g><path class="cls-2" d="M87.11,62.71c.54,0,1.08,.02,1.63,.06,.14,.01,.28,.02,.42,.04,.78,.07,1.39,.69,1.46,1.47,0,0,0,0,0,.01,.03,.41,.04,.8,.02,1.17-.02,.37-.06,.75-.13,1.15,0,.01,0,.02,0,.03-.13,.72-.72,1.26-1.45,1.32-.15,.01-.29,.02-.43,.03-.51,.04-1.02,.05-1.52,.05s-1.01-.02-1.52-.05c-.14-.01-.29-.02-.43-.03-.73-.06-1.32-.6-1.45-1.32,0-.01,0-.02,0-.03-.07-.4-.11-.78-.13-1.15-.02-.37-.01-.76,.02-1.17,0,0,0,0,0-.01,.06-.78,.68-1.4,1.46-1.47,.14-.01,.29-.03,.42-.04,.55-.04,1.09-.06,1.63-.06Zm-4.51-20.98c-.06-.88,.6-1.63,1.47-1.71,.28-.03,.56-.04,.83-.06,.78-.03,1.52-.05,2.21-.05s1.42,.02,2.18,.05c.29,.01,.58,.03,.88,.06,.87,.08,1.51,.84,1.45,1.71l-1.09,16.52c-.05,.78-.65,1.41-1.42,1.49-.17,.02-.34,.04-.5,.05-.53,.04-1.02,.07-1.49,.07-.56,0-1.22-.04-1.99-.13-.78-.08-1.38-.72-1.43-1.5l-1.09-16.51Z"/></svg>