<?xml version="1.0" encoding="UTF-8"?><svg id="Camada_1" xmlns="http://www.w3.org/2000/svg" viewBox="0 0 110.69 126.37"><defs><style>.cls-1{fill:#f7931e;}.cls-2{fill:#fff;}.cls-3{fill:#ed1c24;}.cls-4{fill:#ffbea7;}.cls-5{fill:#ff9a79;}.cls-6{fill:#fafafa;}.cls-7{fill:#ff9090;}.cls-8{fill:#d268cc;}.cls-9{fill:#c76668;}.cls-10{fill:#1f6d4c;}.cls-11{fill:#375a64;}.cls-12{fill:#1a2e35;}.cls-13{fill:#2b454e;}.cls-14{opacity:.2;}.cls-15{opacity:.4;}</style></defs><g id="Character"><g><circle class="cls-2" cx="55.35" cy="71.02" r="53.94" transform="translate(-10.66 9.78) rotate(-9.22)"/><path class="cls-10" d="M55.34,18.49C26.33,18.49,2.81,42.01,2.81,71.02s23.52,52.54,52.54,52.54,52.54-23.52,52.54-52.54S84.36,18.49,55.34,18.49m0-2.81c30.52,0,55.34,24.83,55.34,55.35s-24.83,55.34-55.34,55.34S0,101.54,0,71.02,24.83,15.68,55.34,15.68h0Z"/></g><g id="Character-2"><g id="Ponytail"><path class="cls-13" d="M24.28,80.39c7.97,2.11,20.11,2.19,25.99-4.62,5.56-6.44,5.87-13.66,6.11-21.75,.03-1.13,.11-2.01,.45-3.07,.83-2.59,1.09-5.55,1.42-8.25,.34-2.78,.55-5.57,.65-8.36,.19-5.54-.06-11.1-.65-16.62-.32-2.98-.75-5.98-1.81-8.78-1.06-2.8-2.82-5.42-5.34-7.04C49.17,.66,46.86,.05,44.56,0c-5.22-.11-10.83,2.89-13.8,7.18-3.16,4.56-3.33,10.48-3.48,16.03-.49,18.3-1.96,36.58-4.41,54.73-.09,.66-.15,1.42,.3,1.91,.28,.3,.7,.43,1.11,.54Z"/><path class="cls-3" d="M52.02,4.1c-1.36-1.35-7.31-.56-10.78,3.03-3.48,3.59-4.62,8.99-2.53,10.66,2.08,1.68,15.63-9.68,13.32-13.69Z"/></g><g><path class="cls-8" d="M72.67,71.02l3.19,33.54s4.49,5.16,8.74,10.09c7.6-5.08,13.78-12.11,17.87-20.35-3.34-5.16-6.53-9.86-8.23-11.95-5.51-6.77-7.73-10.06-21.56-11.32Z"/><path class="cls-15" d="M72.67,71.02l3.19,33.54s4.49,5.16,8.74,10.09c7.6-5.08,13.78-12.11,17.87-20.35-3.34-5.16-6.53-9.86-8.23-11.95-5.51-6.77-7.73-10.06-21.56-11.32Z"/></g><g><path class="cls-6" d="M23.19,97.2c1.14,4.89,2.61,11.39,4.05,18.19,7.23,4.61,15.68,7.49,24.75,8.05,1.11,.07,2.23,.11,3.36,.11,10.83,0,20.9-3.29,29.26-8.91,1.64-1.1,3.22-2.29,4.72-3.58,2.32-1.94,4.44-4.09,6.38-6.41,.01-.17,.03-.32,.03-.49,.15-7.96-1.92-12.23-9.07-21.27-4.8-6.1-9.37-10.86-11.6-13.09-.13-.13-.24-.27-.37-.38-.08-.1-.17-.18-.25-.25-.07-.08-.14-.15-.21-.21-.11-.13-.24-.24-.35-.34-.07-.08-.14-.14-.21-.2-.01-.03-.04-.04-.06-.06h-.01s-21-3.31-21-3.31l-7.11,2.22-11.34,3.53c-3.17,1.08-15.13,8.39-10.96,26.39Z"/><g><g><path class="cls-8" d="M73.6,68.38s.04,.03,.06,.06c.07,.06,.14,.11,.21,.2,.11,.1,.24,.21,.35,.34,.07,.06,.14,.13,.21,.21,.08,.07,.17,.15,.25,.25,.13,.11,.24,.25,.37,.38,4.72,5.28,9.75,16.17,11.66,23.02,1.38,3.13,2.18,9.9,2.61,18.23,2.32-1.94,4.44-4.09,6.38-6.41,.52-.6,1.01-1.24,1.49-1.87-.42-3.74-1.22-7.01-2.81-10.03-3.31-6.29-15.8-21.7-20.77-24.38Z"/><g class="cls-14"><path d="M73.6,68.38s.04,.03,.06,.06c.07,.06,.14,.11,.21,.2,.11,.1,.24,.21,.35,.34,.07,.06,.14,.13,.21,.21,.08,.07,.17,.15,.25,.25,.13,.11,.24,.25,.37,.38,4.72,5.28,9.75,16.17,11.66,23.02,1.38,3.13,2.18,9.9,2.61,18.23,2.32-1.94,4.44-4.09,6.38-6.41,.52-.6,1.01-1.24,1.49-1.87-.42-3.74-1.22-7.01-2.81-10.03-3.31-6.29-15.8-21.7-20.77-24.38Z"/></g></g><path class="cls-12" d="M66.5,69.08c3.49,2.4,19.12,13.13,22.23,34.04,0-9.22-3.47-20.51-6.76-25.87-4.01-6.52-9.35-12.61-15.33-14.39l-.13,6.21Z"/></g><g><path class="cls-8" d="M23.4,112.71c.59,.46,1.18,.9,1.78,1.32,.67,.48,1.36,.93,2.05,1.36,7.23,4.61,15.68,7.49,24.75,8.05,.03-2.05,.03-4.13,.01-6.22-.1-14.2-6.29-43.81-6.46-47.74-.04-.91-.06-1.63-.06-2.19-.04-1.84,.06-1.99,.06-1.99l-9,3.76s-6.11,1.62-9.96,2.81c-4.65,1.46-4.21,7.02-4.96,13.22-.9,7.64,.46,17.99,1.78,27.63Z"/><g class="cls-14"><path d="M23.4,112.71c.59,.46,1.18,.9,1.78,1.32,.67,.48,1.36,.93,2.05,1.36,7.23,4.61,15.68,7.49,24.75,8.05,.03-2.05,.03-4.13,.01-6.22-.1-14.2-6.29-43.81-6.46-47.74-.04-.91-.06-1.63-.06-2.19-.04-1.84,.06-1.99,.06-1.99l-9,3.76s-6.11,1.62-9.96,2.81c-4.65,1.46-4.21,7.02-4.96,13.22-.9,7.64,.46,17.99,1.78,27.63Z"/></g></g></g><g><path class="cls-11" d="M81.64,11.53c9.53,.41,14.94,14.76,8.38,24.79-11.62,17.77-39.51,7.27-39.51,7.27l-5.16,15.1s-5.26-5.82-8.83-10.63c-6.44-8.67-7.13-29.3,3.34-31.35-1.55-10.63,27.74-23.65,41.77-5.18Z"/><g><path class="cls-4" d="M81.78,18.88c1.55,3.13,5.25,7.87,4.67,25.24-.45,13.57-5.17,16.54-9.63,18.27-2.18,.85-5.53,.84-10.2,.33l-.12,6.36s8.46,7.79,5.78,23.46c-26.29-10.96-26.6-24.32-26.6-24.32l-.72-21.21c-.85,1.39-5.02,3.26-8.29-.93-3.85-4.92-2.99-10.79,.43-12.95,3.55-2.24,7.61-.11,9.17,3.9,3.69,1.54,8.59-2.29,8.35-16.56,4.51-2.36,13.28,.98,16.09,.66,4.22-.48,6.71-4.57,11.06-2.25Z"/><path class="cls-1" d="M38.73,44.21c-.15,1.06,.59,2.04,1.65,2.19,1.07,.15,2.05-.58,2.2-1.64s-.59-2.04-1.65-2.19-2.05,.58-2.2,1.64Z"/><path class="cls-5" d="M66.62,62.72c-11.42-2.46-17.82-7.1-18.99-11.72,0,0,.72,6.04,3.93,8.71,4.5,3.74,15,6.16,15,6.16l.06-3.15Z"/></g><g><path class="cls-9" d="M72.67,50.78l-7.97-2.94c-.91,2.17,.14,4.59,2.34,5.4,2.2,.81,4.72-.29,5.63-2.46Z"/><path class="cls-7" d="M68.86,53.48c-.6,.04-1.22-.02-1.82-.24-1.53-.57-2.49-1.92-2.63-3.41,2.16,.14,3.93,1.64,4.45,3.66Z"/><ellipse class="cls-12" cx="64.35" cy="37.1" rx="2.31" ry="2.29"/><path class="cls-12" d="M78.23,36.32c0,1.27,1.03,2.29,2.31,2.29s2.31-1.03,2.31-2.29-1.03-2.29-2.31-2.29-2.31,1.03-2.31,2.29Z"/><polygon class="cls-5" points="70.72 32.01 71.95 47.47 79.31 44.56 70.72 32.01"/><path class="cls-12" d="M84.23,32.53l-5.3-1.83c.46-1.48,2.01-2.27,3.48-1.77,1.46,.51,2.28,2.12,1.82,3.6Z"/><path class="cls-12" d="M59.91,33.33l5.21-2.24c-.57-1.46-2.21-2.15-3.65-1.53-1.44,.62-2.14,2.31-1.57,3.77Z"/></g></g><path class="cls-12" d="M45.43,61.22c-1.75-.08-2.21,.99-4.53,3.63-2.32,2.64-4.37,4.2-4.37,4.2,2.14,13.03,12.41,29.29,15.33,44.6,.13-12.39-3.19-29.43-6.33-48.36l-.11-4.07Z"/><g><path class="cls-8" d="M6.39,90.11c3.78,9.71,10.38,18.02,18.79,23.92,2.32-4.23,4.13-7.3,4.13-7.3,0,0,7.8-21.77-2.74-34.86-8.84,2.09-13.46,4.69-16.24,10.3-1.22,2.47-2.57,5.1-3.95,7.95Z"/><path class="cls-15" d="M6.39,90.11c3.78,9.71,10.38,18.02,18.79,23.92,2.32-4.23,4.13-7.3,4.13-7.3,0,0,7.8-21.77-2.74-34.86-8.84,2.09-13.46,4.69-16.24,10.3-1.22,2.47-2.57,5.1-3.95,7.95Z"/></g></g></g></svg>