<?xml version="1.0" encoding="UTF-8"?><svg id="Designed_by_freepik" xmlns="http://www.w3.org/2000/svg" viewBox="0 0 135.22 166.11"><defs><style>.cls-1{fill:#f5f5f5;}.cls-2{fill:#ff9c6a;}.cls-3{fill:#fff;}.cls-4{fill:#ececec;}.cls-5{fill:#ffc19d;}.cls-6{fill:#ff4f5b;}.cls-7{fill:#fdd587;}.cls-8{fill:#f0ba4f;}.cls-9{fill:#e1e1e1;}.cls-10{fill:#375a64;}.cls-11{fill:#1a2e35;}.cls-12{opacity:.3;}</style></defs><g><rect class="cls-9" x="105.21" y="7.18" width="30.02" height="43.51"/><rect class="cls-1" x="103.7" y="7.18" width="30.02" height="43.51"/><g><rect class="cls-3" x="107.43" y="11.89" width="22.56" height="34.08"/><path class="cls-9" d="M129.99,45.97s0-.06,0-.17v-.48c0-.43,0-1.06-.01-1.87,0-1.63-.01-4.01-.02-7.02,0-6.01-.02-14.52-.04-24.54l.07,.07c-6.89,0-14.53,0-22.56,0h0l.08-.08c0,12.86-.01,24.71-.02,34.08l-.07-.06c6.87,.01,12.5,.03,16.42,.03,1.96,0,3.49,.01,4.54,.02,.52,0,.92,0,1.19,0,.27,0,.41,0,.41,0,0,0-.13,0-.4,0h-1.18c-1.04,.01-2.57,.02-4.52,.02-3.93,0-9.57,.02-16.46,.03h-.07v-.07c0-9.37-.01-21.23-.02-34.08v-.08h.08c8.03,0,15.66,0,22.56,0h.08v.07c-.02,10.04-.03,18.57-.04,24.59,0,3-.02,5.37-.02,7v2.33c-.01,.11-.02,.16-.02,.16Z"/></g><path class="cls-9" d="M133.8,7.18s-.19,.31-.54,.78c-.35,.47-.84,1.1-1.41,1.79-.57,.69-1.09,1.29-1.48,1.72-.39,.43-.64,.69-.66,.67-.02-.02,.2-.3,.57-.75,.4-.49,.9-1.09,1.45-1.75,.55-.66,1.04-1.27,1.44-1.75,.37-.45,.61-.72,.63-.71Z"/><g><path class="cls-3" d="M130.1,45.86c1.12,1.78,2.44,3.44,3.93,4.92"/><path class="cls-9" d="M134.04,50.78s-.28-.22-.69-.62c-.4-.41-.94-.99-1.48-1.67-.55-.68-1-1.33-1.31-1.82-.31-.48-.48-.8-.46-.81,.02-.01,.22,.28,.55,.74,.33,.46,.8,1.1,1.34,1.78,.54,.68,1.06,1.27,1.44,1.7,.38,.43,.62,.69,.6,.7Z"/></g><g><path class="cls-3" d="M103.7,50.65c1.31-1.62,2.62-3.23,3.93-4.85"/><path class="cls-9" d="M107.63,45.8s-.82,1.14-1.9,2.48c-1.09,1.34-1.99,2.4-2.03,2.37-.04-.03,.82-1.14,1.9-2.48,1.09-1.34,1.99-2.4,2.03-2.37Z"/></g><path class="cls-9" d="M103.7,7.18s.89,.99,1.91,2.28c1.02,1.29,1.82,2.35,1.78,2.38-.04,.03-.89-.99-1.91-2.28-1.02-1.29-1.82-2.35-1.78-2.38Z"/><rect class="cls-9" x="115.41" y="18.81" width="7.55" height="21.45"/></g><g><path class="cls-7" d="M115.49,107.68c0,32.65-26.3,58.29-59.61,58.29-21.91,0-41.64-11.4-55.88-32l31.56-20.38c3.73,7.45,11.83,12.49,20.6,12.49,11.18,0,20.38-8.33,20.38-18.41s-8.77-17.31-20.82-17.31c-8.99,0-16.22,3.51-18.85,9.2l-28.49-12.27L6.36,.51H107.16V37.33H45.58l.66,17.53c3.72-.66,7.67-.88,11.61-.88,28.49,0,57.64,16.44,57.64,53.69Z"/><g><path class="cls-8" d="M54.26,125.98c.67,.06,1.35,.1,2.03,.1,11.18,0,20.38-8.33,20.38-18.41s-8.77-17.31-20.82-17.31c-.72,0-1.43,.03-2.13,.08,11.01,.76,18.82,7.72,18.82,17.24s-8.07,17.34-18.28,18.31Z"/><path class="cls-8" d="M33.67,98.14l-25.17-11.1L10.48,0H6.36l-1.97,87.04,28.49,12.4c.23-.5,.51-.84,.8-1.3Z"/><path class="cls-8" d="M4.13,133.97l28.55-18.44c-.4-.63-.79-1.27-1.12-1.94L0,133.97c14.24,20.6,33.97,32,55.88,32,.8,0,1.59-.03,2.37-.06-21.21-.59-40.27-11.89-54.13-31.94Z"/></g></g><g><g><path class="cls-11" d="M108.5,155.87l3.07,7.03s-4.19,3.2-3.89,4.51l13.42-4.01-3.17-10.8-9.44,3.28Z"/><path class="cls-11" d="M112.08,162.45c0,.07,.32,.09,.63,.31,.31,.2,.46,.48,.52,.46,.06,0,0-.41-.39-.66-.38-.26-.78-.17-.76-.11Z"/><path class="cls-11" d="M111.78,164.37c.06,0,.06-.36-.22-.67-.27-.31-.62-.36-.64-.3-.02,.06,.24,.2,.46,.46,.23,.25,.33,.52,.4,.51Z"/></g><g><path class="cls-10" d="M114.88,155.9l.27,7.21s-7.24,2.7-7.32,4.04l14.01-.02,.04-11.26-7,.03Z"/><path class="cls-11" d="M113.46,163.65c-.02,.07,.28,.18,.51,.47,.24,.28,.3,.59,.37,.59,.06,.01,.11-.39-.19-.74-.29-.36-.7-.38-.7-.32Z"/><path class="cls-11" d="M112.63,165.41c.06,.01,.16-.33-.02-.7-.17-.38-.5-.52-.53-.47-.04,.06,.17,.26,.31,.57,.15,.31,.17,.59,.24,.6Z"/></g><g><path class="cls-4" d="M102.92,51.91s-2.55,1.71-3.22,4.8c-.53,2.43-1.97,15.25-1.97,15.25l-2.53,4.92,1.65,3.93h0c1.41,.1,2.82-.3,3.97-1.13l1.11-.81,2.04-3.02-1.04-23.93Z"/><path class="cls-6" d="M128.91,65.91l2.08-.36s-4.38-12.11-6.99-13.29c-.92-.42-1.51-.69-1.9-.86v-.03l-3.13-1.28-3.66-1.34h0l-.28-.1,.12,.11-7.33,.47-.57,.43-3.76,1.97h0s-1.67,.56-3.19,2.53c-1.52,1.98-3.74,12.07-3.74,12.07l4.92,2.02,1.23,8.16-3.12,15.58,26.77-.51-5.79-16.18,.9-8.08,7.44-1.3Z"/><g class="cls-12"><path d="M102.25,79.35c2.72,1.28,5.71,2.02,8.73,2.14,1.07,.04,2.21,0,3.11-.58,.38-.24,.71-.58,1.13-.74,.57-.23,1.21-.12,1.82-.05,1.42,.15,2.86,.06,4.25-.28,.21-.05,.43-.11,.57-.27,.15-.15,.18-.43,.02-.57-.1-.08-.24-.09-.37-.1-6.37-.32-12.74-.64-19.11-.95l-.15,1.4Z"/></g><path class="cls-11" d="M100.52,60.06c.05,0,.43,2.51,.85,5.61,.42,3.11,.72,5.63,.67,5.64-.05,0-.43-2.51-.85-5.61-.42-3.11-.72-5.63-.67-5.64Z"/><path class="cls-11" d="M110.55,57.92s-.11-.08-.27-.26c-.17-.18-.4-.43-.69-.75l-1.01-1.13c-.37-.43-.8-.9-1.19-1.43-.4-.53-.72-1.09-.9-1.65-.18-.55-.23-1.09-.19-1.52,.04-.44,.16-.78,.28-1,.12-.22,.21-.32,.22-.31,.04,.01-.32,.46-.37,1.32-.02,.42,.04,.93,.22,1.46,.19,.53,.5,1.07,.89,1.59,.39,.52,.8,.99,1.17,1.43l.98,1.16c.28,.33,.5,.6,.65,.79,.15,.19,.23,.3,.22,.31Z"/><path class="cls-11" d="M116.96,49.34s0,.15-.04,.43c-.06,.27-.14,.67-.33,1.13-.35,.94-1.16,2.08-2.2,3.16-1.03,1.09-1.99,2.06-2.68,2.76l-.83,.82c-.2,.19-.31,.29-.32,.28,0,0,.09-.13,.27-.33,.21-.23,.47-.52,.79-.86,.7-.75,1.62-1.72,2.64-2.8,1.04-1.08,1.84-2.18,2.22-3.09,.39-.9,.45-1.51,.49-1.51Z"/><path class="cls-4" d="M121.27,67.24l.85,4.74-11.3,1.66,.65,5.2s13.96,.76,15.5,.42c1.95-.43,3.44-2.77,3.39-6.18-.02-1.35-.65-4.05-1.44-7.18l-7.64,1.33Z"/><path class="cls-11" d="M122.63,51.76s-.25,.03-.67,.16c-.41,.13-1,.42-1.54,.99-.55,.56-1.01,1.4-1.18,2.43-.09,.51-.11,1.05-.08,1.62,.03,.56,.15,1.14,.28,1.73,.52,2.35,.99,4.47,1.34,6.05,.17,.78,.29,1.4,.37,1.84,.04,.22,.07,.39,.08,.51,.01,.12,.02,.18,.01,.18-.01,0-.06-.24-.16-.67-.11-.46-.25-1.08-.42-1.83-.36-1.54-.88-3.67-1.39-6.04-.13-.59-.25-1.18-.28-1.75-.03-.58,0-1.14,.09-1.66,.18-1.05,.68-1.93,1.25-2.49,.57-.57,1.19-.85,1.62-.96,.22-.06,.39-.08,.51-.09,.12,0,.18,0,.18,0Z"/></g><path class="cls-11" d="M126.36,91.47c0,.05-6.01,.19-13.42,.31-7.41,.12-13.42,.18-13.42,.13,0-.05,6.01-.19,13.42-.31,7.41-.12,13.42-.18,13.42-.13Z"/><g><g><path class="cls-6" d="M101.33,89.33l-5.97,31.49c-.68,3.58-.3,7.29,1.09,10.66l12.65,30.64,9.98-6.36-10.23-30.32,6.48-26.84-2.12-11.26-11.89,1.97Z"/><path class="cls-6" d="M106.22,97.31l4.56,36.21,.79,29.37,11.35,.18s-.41-29.75-.41-31.54v-29.33s1.63-2.28,2.28-3.58c.65-1.3,0-7.82,0-7.82,0,0-2.42-4.96-11.57-3.44-9.15,1.52-7.01,9.96-7.01,9.96Z"/><path class="cls-11" d="M111.57,162.9s0-.06-.02-.18l-.03-.53c-.02-.48-.05-1.17-.08-2.05-.06-1.79-.16-4.37-.27-7.56-.11-3.19-.23-6.99-.37-11.21-.08-2.11-.15-4.32-.26-6.61-.12-2.29-.25-4.67-.53-7.08-.14-1.21-.32-2.4-.51-3.57-.2-1.17-.41-2.32-.6-3.45-.38-2.27-.69-4.46-.95-6.56-.53-4.19-.91-7.97-1.26-11.14-.34-3.17-.65-5.74-.89-7.51-.12-.88-.21-1.56-.27-2.04l-.07-.53c-.01-.12-.02-.18-.02-.18,0,0,.02,.06,.04,.18l.09,.53c.07,.46,.18,1.15,.31,2.03,.26,1.77,.58,4.33,.95,7.5,.37,3.17,.76,6.95,1.3,11.14,.27,2.09,.58,4.28,.96,6.55,.2,1.13,.4,2.28,.61,3.45,.2,1.17,.38,2.36,.52,3.57,.29,2.42,.42,4.8,.53,7.09,.11,2.29,.18,4.51,.25,6.62,.13,4.22,.24,8.02,.34,11.21,.09,3.18,.16,5.77,.21,7.56,.02,.89,.04,1.58,.05,2.06v.53c0,.12,0,.18,0,.18Z"/><path class="cls-11" d="M115.13,162.9c-.05,0-.89-15.04-1.87-33.6-.98-18.57-1.74-33.61-1.69-33.62,.05,0,.89,15.04,1.87,33.61,.98,18.56,1.74,33.61,1.69,33.61Z"/><path class="cls-11" d="M119.03,93.29s-.07,.12-.23,.3c-.16,.18-.43,.43-.79,.68-.71,.51-1.9,1.01-3.26,.94-1.36-.07-2.49-.69-3.15-1.26-.33-.29-.57-.56-.71-.75-.15-.2-.21-.32-.2-.32,.03-.02,.32,.44,1,.98,.66,.54,1.76,1.11,3.08,1.18,1.31,.06,2.47-.4,3.18-.87,.73-.47,1.06-.9,1.09-.87Z"/><path class="cls-11" d="M111.49,160.39s-.03-.05-.08-.17l-.22-.49c-.19-.44-.47-1.08-.83-1.9-.72-1.66-1.75-4.06-3.02-7.02-1.26-2.97-2.77-6.51-4.44-10.43-1.65-3.94-3.49-8.25-5.28-12.84l-.32-.86c-.08-.3-.17-.61-.19-.91-.08-.61-.07-1.22-.06-1.82,.04-1.2,.18-2.38,.33-3.53,.32-2.3,.74-4.51,1.17-6.6,.87-4.18,1.79-7.91,2.59-11.04,.8-3.13,1.5-5.64,1.98-7.38,.25-.86,.44-1.53,.57-2l.16-.52c.04-.12,.06-.17,.06-.17,0,0-.01,.06-.04,.18l-.14,.52c-.13,.47-.31,1.14-.54,2.01-.47,1.74-1.14,4.27-1.93,7.39-.78,3.13-1.69,6.86-2.55,11.04-.43,2.09-.84,4.29-1.16,6.59-.15,1.15-.28,2.32-.33,3.52-.01,.6-.02,1.2,.06,1.79,.02,.3,.1,.59,.18,.87,.11,.29,.22,.57,.32,.86,1.79,4.58,3.63,8.9,5.27,12.84,1.65,3.93,3.15,7.47,4.4,10.45,1.25,2.97,2.27,5.37,2.97,7.04,.35,.83,.62,1.47,.8,1.92l.2,.5c.05,.11,.06,.17,.06,.17Z"/><path class="cls-11" d="M108.86,125.45c-.05,.06-.7-.73-1.45-1.72-.75-1-1.32-1.83-1.28-1.86,.04-.03,.68,.76,1.43,1.75,.38,.5,.71,.95,.94,1.29,.23,.33,.38,.55,.36,.55Z"/><g class="cls-12"><polygon points="105.74 94.85 107.38 122.99 108.86 125.45 109.4 123.23 105.74 94.85"/></g></g><g class="cls-12"><polygon points="100.84 91.94 100.61 93.13 124.98 93.13 124.86 91.5 100.84 91.94"/></g></g><g><g><polygon class="cls-11" points="83.33 71.98 99.66 78.03 113.42 80.13 97.06 72.16 83.33 71.98"/><g><path class="cls-5" d="M90.32,78.5c-.13-.87-.43-1.71-.87-2.47-.09-.15-.18-.3-.22-.46s-.02-.36,.09-.49c.21-.23,.59-.13,.85,.05,.53,.36,.89,.93,1.1,1.54s.29,1.25,.36,1.89"/><g><path class="cls-5" d="M96.68,76.95h-.81c-.16-.17-.41-.32-.71-.41-.19-.05-.37,.05-.54,.21,.36-.6,.75-1.26,.83-1.44,.15-.35-.18-.61-.7-.61s-2.83,3.27-2.83,3.27c0,0,1.43-2.63,1.57-3.03,.35-1.01-.75-1.08-1.15-.6-.5,.6-2.5,3.63-2.5,3.63,0,0-.38,.61-.12,1.2,.26,.58,1.02,.35,1.02,.35,0,0,0,.51,.54,.81,.59,.33,1.36-.05,1.36-.05l2.99,.67s.47-.05,1.08-.11c1.51-.15,2.73-1.31,2.95-2.81h0l-2.98-1.08Z"/><path class="cls-2" d="M94.67,76.7s-.36,.65-.88,1.4c-.26,.38-.5,.71-.67,.95-.18,.24-.29,.39-.3,.38-.01,0,.09-.17,.25-.42,.16-.25,.39-.59,.65-.97,.26-.37,.49-.71,.67-.95l.21-.29c.05-.07,.07-.1,.08-.1Z"/><path class="cls-2" d="M94.49,80.04s.09-.2,.26-.49c.18-.29,.43-.7,.7-1.14,.14-.22,.27-.43,.38-.63,.11-.19,.11-.4,.07-.55-.09-.33-.27-.46-.25-.48,0,0,.05,.02,.12,.1,.07,.07,.15,.19,.2,.36,.05,.17,.07,.4-.05,.61-.11,.2-.24,.42-.38,.64-.28,.44-.54,.84-.73,1.13-.19,.28-.31,.46-.32,.45Z"/><path class="cls-2" d="M96.06,80.33s.04-.19,.16-.47l.21-.49c.08-.18,.17-.39,.22-.6,.05-.21,.02-.44-.09-.58-.05-.07-.14-.11-.21-.15-.08-.04-.15-.06-.22-.06-.13,0-.25,.08-.32,.11-.08,.04-.12,.06-.12,.05,0,0,.03-.03,.1-.08,.04-.02,.08-.05,.13-.08,.06-.03,.12-.06,.21-.07,.08,0,.17,.02,.25,.06,.08,.04,.18,.08,.25,.17,.14,.17,.18,.42,.12,.66-.06,.23-.15,.43-.23,.62-.08,.18-.17,.34-.23,.48-.14,.27-.21,.44-.22,.44Z"/><path class="cls-2" d="M96.61,77.51s.05,0,.13,.04c.08,.03,.19,.09,.31,.18,.24,.18,.54,.53,.64,.99,.1,.47-.01,.91-.16,1.17-.07,.14-.15,.24-.2,.3-.06,.06-.09,.09-.1,.09-.01-.01,.12-.15,.24-.42,.12-.26,.22-.68,.13-1.12-.1-.44-.37-.78-.59-.96-.23-.19-.41-.26-.4-.27Z"/></g><path class="cls-2" d="M91.35,75.79s-.28,.5-.68,1.08c-.39,.58-.73,1.04-.75,1.03-.02-.01,.28-.5,.68-1.08,.39-.58,.73-1.04,.75-1.03Z"/></g></g><g><path class="cls-5" d="M110.83,73.87l-1.87-.42-1.79-1.69c-.22-.21-.5-.33-.8-.34l-3.26-.19c-.33-.02-.65,.09-.89,.3l-2.33,1.97,10.17,4.96,1.4,.12-.62-4.71Z"/><path class="cls-2" d="M105.19,72.99s-.24-.03-.63-.08c-.38-.04-.94-.1-1.48,.15-.27,.12-.5,.29-.7,.44-.21,.15-.39,.3-.55,.41-.16,.11-.3,.19-.4,.23-.1,.04-.16,.06-.16,.06,0-.01,.22-.11,.53-.35,.16-.12,.34-.26,.54-.42,.21-.16,.44-.33,.72-.46,.28-.13,.57-.18,.83-.19,.26,0,.5,.02,.69,.05,.19,.03,.35,.07,.46,.09,.11,.03,.16,.04,.16,.05Z"/><path class="cls-2" d="M105.86,74.81s-.13-.04-.35-.07c-.22-.03-.52,0-.84,.12-.31,.12-.58,.28-.77,.39-.19,.12-.31,.19-.32,.18,0-.01,.1-.1,.28-.23,.18-.13,.44-.31,.77-.43,.33-.12,.66-.14,.88-.09,.23,.04,.35,.12,.34,.13Z"/><path class="cls-2" d="M110.06,75.11s-.29-.38-.63-.84c-.35-.46-.64-.83-.62-.85,.02-.02,.35,.32,.7,.79,.35,.47,.58,.88,.56,.89Z"/></g><path class="cls-6" d="M104.92,71.41l4.14-3.85c.18-.17,.17-.45-.03-.6h0c-.15-.12-.36-.11-.5,.02l-4.85,4.35"/><g class="cls-12"><path d="M104.92,71.41l4.14-3.85c.18-.17,.17-.45-.03-.6h0c-.15-.12-.36-.11-.5,.02l-4.85,4.35"/></g></g><g><path class="cls-11" d="M104.15,34.71c-.38-1.52,.04-3.22,1.09-4.38,.79-.88,1.87-1.45,3-1.79,1.52-.45,3.2-.51,4.66,.11s2.65,1.98,2.81,3.56c.07,.72-.06,1.46,.17,2.14,.1,.3,.27,.6,.18,.9-.08,.28-.36,.46-.64,.49-.28,.03-.57-.06-.83-.17-.9-.38-1.64-1.05-2.36-1.7"/><g><path class="cls-5" d="M104.12,35.47c.15-2.23,1.63-4.97,3.85-4.73l6.94,1.77c.68,.07,1.18,.65,1.17,1.33l-.78,16.74s-.02,0,0,0l-4.54,5.39s-2.91-3.38-3.09-4.4h0c-.02-.14-.05-.23-.05-.34-.15-1.18-.03-2.3-.03-2.3h0c-.01-1.35-.01-1.91-.01-1.89,0,0-2.85-.48-3.43-4.2-.29-1.85-.19-4.88-.03-7.36Z"/><g><g><g><g><path class="cls-11" d="M105.22,38.17c0,.25,.2,.47,.46,.48,.26,.01,.48-.18,.49-.43,0-.25-.2-.47-.46-.48-.26-.01-.48,.18-.49,.43Z"/><path class="cls-11" d="M104.78,37.05c.06,.06,.42-.2,.93-.2,.51,0,.89,.26,.94,.2,.03-.03-.03-.14-.2-.26-.16-.12-.44-.24-.76-.24-.32,0-.59,.12-.74,.24-.16,.12-.21,.23-.18,.26Z"/></g><g><path class="cls-11" d="M110.27,38.17c0,.25,.2,.47,.46,.48,.26,.01,.48-.18,.49-.43,0-.25-.2-.47-.46-.48-.26-.01-.48,.18-.49,.43Z"/><path class="cls-11" d="M109.82,37.16c.06,.06,.42-.2,.93-.2,.51,0,.89,.26,.94,.2,.03-.03-.03-.14-.2-.26-.16-.12-.44-.24-.76-.24-.32,0-.59,.12-.74,.24-.16,.12-.21,.23-.18,.26Z"/></g><path class="cls-11" d="M107.95,40.96s-.32-.08-.83-.15c-.13-.01-.26-.04-.28-.13-.03-.09,.02-.24,.09-.39,.12-.32,.25-.65,.39-1,.54-1.42,.93-2.59,.88-2.61-.06-.02-.54,1.11-1.08,2.53-.13,.35-.26,.68-.37,1-.05,.15-.14,.32-.07,.51,.04,.1,.13,.17,.22,.19,.08,.03,.16,.03,.22,.03,.52,.03,.84,.03,.85,0Z"/><path class="cls-2" d="M107.58,47.04s2.5,.17,4.99-1.32c0,0-1.26,2.57-4.98,2.22v-.9Z"/><path class="cls-2" d="M108.17,42.2c.19-.24,.51-.38,.83-.34,.22,.02,.45,.13,.58,.31,.13,.18,.16,.44,.04,.61-.14,.19-.43,.24-.67,.17-.24-.07-.46-.23-.66-.39-.06-.04-.11-.09-.15-.15-.03-.06-.04-.14,0-.19"/><path class="cls-11" d="M109.46,41.32c-.08,0-.09,.55-.56,.95-.48,.4-1.07,.33-1.08,.41,0,.03,.13,.11,.38,.12,.25,0,.61-.07,.9-.31,.29-.24,.42-.57,.44-.79,.02-.23-.04-.37-.08-.37Z"/></g><path class="cls-11" d="M109.6,36.26c.05,.14,.56,.07,1.17,.15,.6,.06,1.09,.24,1.17,.11,.04-.06-.05-.19-.24-.33-.19-.14-.5-.26-.87-.31-.36-.04-.69,.02-.91,.11-.22,.09-.33,.2-.31,.26Z"/><path class="cls-11" d="M104.97,35.56c.09,.12,.44,0,.87,0,.43-.02,.79,.08,.87-.04,.04-.06-.02-.18-.18-.29-.15-.11-.41-.2-.71-.19-.29,0-.55,.11-.69,.23-.15,.12-.2,.24-.16,.3Z"/></g><path class="cls-11" d="M119.29,42.47c-.97,.4-1.82-2.58-2.71-3.13-.89-.55-1.78,1.33-1.84,.29-.06-.92,.25-1.93-.23-2.71-.63-1.04-2.27-1.08-2.9-2.12-.37-.6-.3-1.41-.7-1.99-.38-.55-1.07-.77-1.73-.88-.66-.1-1.35-.13-1.94-.43-.59-.3-1.06-1-.84-1.62,2.79-.2,5.6-.07,8.36,.39,.64,.11,1.32,.25,1.77,.71,.48,.49,.6,1.22,.7,1.89,.48,3.31,1.58,6.28,2.06,9.59"/></g></g><path class="cls-11" d="M104.84,31.63s.04-.07,.12-.21c.08-.13,.22-.32,.42-.55,.39-.45,1.04-1.07,2-1.55,.96-.48,2.27-.82,3.69-.61,1.41,.19,2.93,.91,4.01,2.17,1.09,1.26,1.58,2.83,1.81,4.22,.23,1.4,.26,2.69,.14,3.76-.12,1.07-.39,1.91-.64,2.45-.12,.27-.24,.48-.32,.61-.08,.13-.13,.2-.14,.2-.02,0,.16-.29,.39-.84,.23-.55,.48-1.38,.58-2.44,.1-1.06,.06-2.33-.18-3.72-.24-1.37-.72-2.9-1.79-4.12-1.06-1.22-2.52-1.93-3.9-2.13-1.39-.21-2.66,.1-3.61,.56-.96,.46-1.61,1.05-2.01,1.48-.4,.44-.58,.72-.59,.71Z"/><path class="cls-11" d="M117.98,41.09c-.05,0-.02-.47-.37-.89-.33-.43-.8-.49-.79-.54,0-.02,.12-.04,.31,0,.19,.05,.43,.19,.62,.42,.19,.23,.27,.5,.28,.7,.01,.19-.04,.31-.06,.31Z"/><path class="cls-11" d="M117.89,39.64s-.18-.16-.39-.31c-.21-.16-.42-.23-.41-.28,0-.05,.27-.06,.52,.13,.25,.19,.33,.44,.28,.46Z"/><path class="cls-11" d="M115.74,30.45s-.13,.14-.3,.27c-.17,.13-.3,.24-.34,.21-.04-.03,.04-.21,.23-.36,.19-.15,.4-.17,.41-.12Z"/><path class="cls-11" d="M115.21,30.29s-.04,.15-.15,.26c-.12,.1-.24,.16-.28,.12-.03-.04,.04-.15,.15-.26,.12-.1,.24-.16,.28-.12Z"/><g><path class="cls-5" d="M115.02,40.07c0-.28,.32-.93,.6-.97,.73-.11,2.05-.05,2.06,1.8,.01,2.54-2.54,2.02-2.54,1.95,0-.06-.11-1.83-.11-2.79Z"/><path class="cls-2" d="M115.9,41.9s.04,.03,.12,.06c.07,.03,.2,.06,.33,0,.27-.1,.49-.53,.5-.98,0-.23-.04-.45-.13-.63-.08-.19-.2-.31-.33-.34-.13-.03-.23,.05-.26,.12-.03,.07-.02,.12-.03,.13,0,0-.05-.04-.03-.15,.01-.05,.04-.11,.1-.16,.06-.05,.15-.08,.24-.07,.2,.01,.37,.19,.46,.39,.1,.2,.16,.45,.16,.71-.01,.51-.27,.99-.64,1.1-.18,.05-.33,0-.4-.07-.08-.06-.09-.12-.08-.12Z"/></g></g></g><g><g><g><path class="cls-11" d="M22.14,146.6s.04-.11,.13-.32l.43-.92c.37-.81,.84-2.04,1.27-3.68,.84-3.27,1.13-8.28-.11-14.22-.58-2.98-1.5-6.17-2.64-9.55-1.12-3.39-2.41-6.99-3.47-10.87-1.05-3.88-1.87-8.09-1.71-12.5,.16-4.42,1.47-8.84,2.91-13.23,1.44-4.4,2.92-8.7,3.37-13.03,.5-4.32-.42-8.56-2.39-12.03-1.91-3.51-4.3-6.51-6.1-9.62-1.82-3.1-2.96-6.29-3.66-9.25-1.36-5.98-.88-11.01-.23-14.33,.71-3.34,1.5-5.06,1.5-5.06,0,0-.02,.12-.09,.34-.07,.24-.18,.56-.3,.97-.26,.85-.61,2.13-.93,3.79-.6,3.31-1.02,8.31,.37,14.23,.72,2.93,1.86,6.08,3.68,9.13,1.79,3.07,4.2,6.06,6.14,9.62,2.01,3.51,2.97,7.89,2.46,12.28-.45,4.4-1.94,8.73-3.38,13.12-1.44,4.39-2.73,8.76-2.9,13.1-.16,4.35,.64,8.51,1.67,12.37,1.04,3.87,2.32,7.46,3.42,10.86,1.12,3.39,2.04,6.61,2.59,9.61,1.21,5.99,.86,11.04-.04,14.32-.45,1.64-.96,2.87-1.36,3.68-.2,.38-.36,.68-.47,.9-.11,.2-.17,.3-.17,.3Z"/><g><path class="cls-6" d="M16.27,49.69s-3.64-11.65,2.89-18.47c.23-.24,.63-.13,.69,.2,.35,1.92,.79,7.78-3.58,18.27Z"/><path class="cls-11" d="M18.45,35.1c.06,.01-.04,.83-.25,2.15-.24,1.48-.52,3.22-.83,5.14-.3,1.92-.58,3.66-.82,5.14-.2,1.32-.32,2.13-.39,2.13-.06,0-.05-.83,.07-2.17,.12-1.33,.36-3.16,.69-5.17,.33-2.01,.68-3.82,.96-5.12,.28-1.3,.5-2.1,.56-2.09Z"/></g><g><path class="cls-6" d="M20.55,77.17s2.23-12,11.2-14.97c.31-.1,.62,.18,.52,.5-.59,1.86-2.95,7.25-11.71,14.47Z"/><path class="cls-11" d="M29.3,65.3s-.43,.72-1.22,1.79c-.9,1.2-1.97,2.6-3.14,4.15-1.17,1.56-2.22,2.96-3.12,4.16-.79,1.07-1.28,1.73-1.34,1.7-.05-.03,.34-.76,1.07-1.88,.73-1.12,1.79-2.63,3.02-4.25,1.23-1.62,2.39-3.06,3.25-4.08,.86-1.02,1.43-1.62,1.47-1.58Z"/></g><g><path class="cls-6" d="M18.12,107.28s-1.35-12.13,6.36-17.58c.27-.19,.65,0,.64,.33-.02,1.96-.71,7.79-7,17.25Z"/><path class="cls-11" d="M23.05,93.37c.06,.02-.2,.81-.65,2.06-.52,1.41-1.12,3.06-1.8,4.89-.67,1.83-1.27,3.48-1.78,4.89-.45,1.25-.72,2.03-.78,2.01-.06-.02,.11-.83,.48-2.11,.37-1.28,.95-3.04,1.66-4.95,.71-1.91,1.4-3.62,1.92-4.85,.53-1.23,.89-1.97,.95-1.94Z"/></g><g><path class="cls-6" d="M24.88,137.56s-.92-12.17,6.99-17.34c.28-.18,.65,.02,.63,.35-.09,1.95-.99,7.76-7.62,16.99Z"/><path class="cls-11" d="M30.3,123.84c.06,.03-.23,.8-.72,2.04-.57,1.39-1.23,3.02-1.97,4.82-.73,1.8-1.39,3.43-1.95,4.82-.49,1.24-.79,2-.86,1.98-.06-.02,.14-.82,.55-2.09,.42-1.27,1.06-3,1.84-4.88,.77-1.88,1.52-3.57,2.1-4.77,.57-1.21,.96-1.94,1.02-1.91Z"/></g><g><path class="cls-6" d="M11.03,39.46S.21,33.81,0,24.36c0-.33,.36-.54,.63-.35,1.61,1.11,6.06,4.94,10.4,15.44Z"/><path class="cls-11" d="M2.25,27.61c.05-.04,.56,.62,1.35,1.69,.88,1.22,1.91,2.64,3.05,4.22,1.14,1.57,2.18,3,3.06,4.21,.79,1.07,1.28,1.73,1.23,1.78-.04,.04-.63-.55-1.49-1.58-.86-1.03-1.99-2.49-3.18-4.14-1.19-1.65-2.22-3.18-2.95-4.3-.72-1.12-1.13-1.84-1.08-1.87Z"/></g><g><path class="cls-6" d="M22.65,64.48s-11.14-4.98-11.93-14.4c-.03-.33,.32-.56,.61-.39,1.67,1.01,6.35,4.57,11.32,14.78Z"/><path class="cls-11" d="M13.16,53.18c.05-.04,.6,.58,1.45,1.61,.95,1.16,2.07,2.52,3.3,4.02,1.24,1.5,2.36,2.86,3.31,4.01,.85,1.02,1.39,1.65,1.34,1.7-.04,.04-.66-.51-1.58-1.48-.92-.97-2.14-2.36-3.42-3.94-1.29-1.58-2.41-3.04-3.2-4.12-.79-1.08-1.24-1.77-1.19-1.81Z"/></g><g><path class="cls-6" d="M16.24,92.39s-7.65-9.51-4.06-18.25c.13-.31,.54-.35,.72-.07,1.03,1.66,3.58,6.96,3.34,18.32Z"/><path class="cls-11" d="M12.94,78.01c.06-.01,.26,.79,.56,2.09,.32,1.47,.69,3.19,1.11,5.09,.42,1.9,.8,3.62,1.12,5.08,.3,1.3,.48,2.1,.42,2.12-.06,.02-.35-.76-.73-2.04-.37-1.28-.83-3.07-1.25-5.07-.43-1.99-.76-3.8-.98-5.12-.21-1.32-.3-2.14-.24-2.15Z"/></g><g><path class="cls-6" d="M23.82,125.23s-11.06-5.17-11.69-14.6c-.02-.33,.33-.55,.61-.38,1.66,1.04,6.28,4.67,11.07,14.97Z"/><path class="cls-11" d="M14.52,113.78c.05-.04,.59,.59,1.42,1.63,.93,1.18,2.02,2.56,3.23,4.08,1.21,1.52,2.31,2.9,3.24,4.07,.84,1.03,1.36,1.67,1.31,1.72-.04,.04-.65-.52-1.55-1.51-.9-.99-2.09-2.4-3.36-4-1.26-1.6-2.36-3.08-3.13-4.17-.77-1.09-1.21-1.79-1.16-1.83Z"/></g><g><path class="cls-11" d="M45.84,77.24s.01,.09,.01,.27c0,.21-.01,.47-.02,.78-.03,.73-.08,1.72-.13,2.96-.14,2.6-.34,6.23-.58,10.57h0v.03c-.79,4.42-3.04,9.31-6.06,14.07-2.22,3.5-4.54,6.68-6.54,9.65-2.02,2.95-3.72,5.69-4.91,8.11-1.19,2.42-1.89,4.5-2.3,5.95-.19,.73-.34,1.3-.42,1.69-.09,.39-.15,.59-.16,.59-.02,0,0-.21,.07-.61,.06-.4,.17-.97,.34-1.71,.36-1.47,1.01-3.59,2.18-6.05,1.16-2.46,2.85-5.23,4.85-8.2,1.99-2.98,4.3-6.17,6.51-9.65,3.01-4.73,5.24-9.55,6.06-13.9v.02c.3-4.34,.56-7.96,.74-10.56,.1-1.23,.18-2.22,.24-2.95,.03-.31,.06-.57,.08-.78,.02-.18,.04-.27,.05-.27Z"/><g><path class="cls-6" d="M39.26,105s4.68-11.27-1.21-18.66c-.21-.26-.62-.18-.71,.14-.52,1.88-1.49,7.68,1.92,18.52Z"/><path class="cls-11" d="M38.41,90.27c.06,0,.21,.81,.37,2.13,.17,1.32,.35,3.16,.5,5.19,.15,2.03,.21,3.88,.21,5.21,0,1.34-.07,2.16-.13,2.16-.07,0-.11-.82-.19-2.15-.1-1.5-.22-3.25-.35-5.19-.14-1.94-.26-3.7-.36-5.19-.08-1.33-.11-2.16-.05-2.16Z"/><g class="cls-12"><path d="M39.26,105s4.68-11.27-1.21-18.66c-.21-.26-.62-.18-.71,.14-.52,1.88-1.49,7.68,1.92,18.52Z"/></g></g><g><path class="cls-6" d="M24.75,132.16s3.75-11.62-2.72-18.5c-.23-.24-.63-.13-.69,.19-.37,1.92-.86,7.78,3.41,18.3Z"/><path class="cls-11" d="M22.71,117.55c.06-.01,.27,.79,.54,2.1,.27,1.31,.61,3.12,.92,5.13,.31,2.01,.53,3.85,.64,5.18,.11,1.33,.1,2.16,.04,2.17-.07,0-.18-.81-.37-2.13-.22-1.48-.48-3.22-.77-5.15-.29-1.92-.56-3.66-.78-5.15-.19-1.32-.29-2.14-.23-2.15Z"/><g class="cls-12"><path d="M24.75,132.16s3.75-11.62-2.72-18.5c-.23-.24-.63-.13-.69,.19-.37,1.92-.86,7.78,3.41,18.3Z"/></g></g><g><path class="cls-6" d="M45.22,91.22s10-7,8.99-16.39c-.04-.33-.42-.49-.67-.26-1.45,1.31-5.38,5.68-8.32,16.66Z"/><g class="cls-12"><path d="M45.22,91.22s10-7,8.99-16.39c-.04-.33-.42-.49-.67-.26-1.45,1.31-5.38,5.68-8.32,16.66Z"/></g><path class="cls-11" d="M52.41,78.34c.06,.03-.26,.79-.83,2-.57,1.21-1.4,2.85-2.37,4.65-.97,1.79-1.9,3.39-2.62,4.51-.72,1.13-1.22,1.79-1.27,1.75-.06-.04,.35-.76,.99-1.92,.72-1.32,1.56-2.86,2.49-4.57,.93-1.71,1.77-3.26,2.48-4.58,.64-1.17,1.06-1.88,1.12-1.85Z"/></g><g><path class="cls-6" d="M28.79,120.65s12.06-1.88,15.29-10.76c.11-.31-.17-.62-.49-.53-1.88,.54-7.33,2.74-14.81,11.29Z"/><g class="cls-12"><path d="M28.79,120.65s12.06-1.88,15.29-10.76c.11-.31-.17-.62-.49-.53-1.88,.54-7.33,2.74-14.81,11.29Z"/></g><path class="cls-11" d="M40.91,112.24c.04,.05-.58,.6-1.63,1.43-1.04,.83-2.51,1.95-4.17,3.13-1.66,1.18-3.2,2.2-4.34,2.9-1.14,.69-1.88,1.07-1.91,1.02-.03-.06,.64-.53,1.74-1.29,1.22-.86,2.66-1.88,4.25-3,1.59-1.13,3.02-2.15,4.24-3.02,1.09-.76,1.78-1.22,1.82-1.17Z"/></g></g></g><polygon class="cls-10" points="14.52 142.84 17.97 165.54 31.79 165.51 36.45 142.84 14.52 142.84"/></g><path class="cls-11" d="M34.42,151.6s-.04,.03-.12,.08c-.08,.05-.2,.13-.36,.21-.33,.16-.85,.36-1.54,.46-.7,.09-1.58,.08-2.54-.24-.95-.31-1.99-.92-2.73-1.98-.35-.54-.6-1.19-.64-1.9-.05-.7,.22-1.54,.94-1.95,.71-.41,1.64-.26,2.31,.19,.71,.46,1.13,1.27,1.32,2.08,.2,.83,.22,1.69,.17,2.56-.06,.87-.22,1.77-.56,2.62-.33,.85-.87,1.66-1.6,2.28-.72,.62-1.65,1.06-2.66,1.11-1,.04-1.96-.3-2.77-.8-.81-.51-1.49-1.15-2.06-1.86-.57-.72-.99-1.58-1.05-2.49-.04-.9,.27-1.84,.98-2.4,.72-.58,1.73-.54,2.45-.15,.74,.37,1.28,1.08,1.41,1.85,.27,1.56-.64,2.96-1.75,3.59-1.13,.65-2.36,.66-3.34,.48-.99-.19-1.77-.58-2.38-.93-.6-.35-1.04-.68-1.33-.9-.29-.22-.43-.35-.43-.36,0-.01,.17,.1,.47,.3,.3,.2,.75,.5,1.36,.83,.61,.32,1.38,.68,2.34,.85,.95,.16,2.12,.11,3.16-.5,1.01-.59,1.83-1.92,1.58-3.3-.12-.68-.6-1.29-1.26-1.61-.64-.34-1.49-.36-2.08,.13-.59,.47-.88,1.31-.84,2.11,.05,.81,.44,1.61,.98,2.28,.54,.68,1.21,1.3,1.97,1.77,.76,.47,1.64,.79,2.55,.74,.9-.04,1.76-.44,2.43-1.02,.68-.58,1.18-1.33,1.5-2.14,.33-.81,.49-1.66,.54-2.51,.05-.84,.03-1.68-.15-2.46-.18-.77-.56-1.49-1.17-1.89-.6-.41-1.39-.53-1.97-.2-.59,.33-.84,1.03-.8,1.67,.03,.65,.25,1.26,.57,1.76,.68,1,1.67,1.62,2.58,1.93,.92,.32,1.78,.36,2.46,.29,1.38-.16,2.02-.66,2.04-.61Z"/></g></svg>