<?xml version="1.0" encoding="UTF-8"?><svg id="Designed_by_freepik" xmlns="http://www.w3.org/2000/svg" viewBox="0 0 168.08 166.11"><defs><style>.cls-1{fill:#f68d6b;}.cls-2{fill:#eb673d;}.cls-3{fill:#f5f5f5;}.cls-4{fill:#ff9c6a;}.cls-5{fill:#fff;}.cls-6{fill:#ececec;}.cls-7{fill:#fafafa;}.cls-8{fill:#ffc19d;}.cls-9{fill:#ff735d;}.cls-10{fill:#e1e1e1;}.cls-11{fill:#375a64;}.cls-12{fill:#1a2e35;}.cls-13{opacity:.6;}</style></defs><g><g><rect class="cls-3" x="17.4" y="8.02" width="41.94" height="94.49"/><rect class="cls-7" x="-7.1" y="35.88" width="90.94" height="38.78" transform="translate(93.64 16.9) rotate(90)"/><rect class="cls-3" x="37.93" y="9.34" width=".89" height="92.29"/><rect class="cls-3" x="16.43" y="6.79" width="43.88" height="4.45"/><g><rect class="cls-3" x="16.43" y="11.73" width="43.88" height=".53"/><rect class="cls-3" x="16.43" y="12.93" width="43.88" height=".53"/><rect class="cls-3" x="16.43" y="14.13" width="43.88" height=".53"/><rect class="cls-3" x="16.43" y="15.32" width="43.88" height=".53"/><rect class="cls-3" x="16.43" y="16.52" width="43.88" height=".53"/><rect class="cls-3" x="16.43" y="17.71" width="43.88" height=".53"/><rect class="cls-3" x="16.43" y="18.91" width="43.88" height=".53"/><rect class="cls-3" x="16.43" y="20.11" width="43.88" height=".53"/><rect class="cls-3" x="16.43" y="21.3" width="43.88" height=".53"/><rect class="cls-3" x="16.43" y="22.5" width="43.88" height=".53"/><rect class="cls-3" x="16.43" y="23.7" width="43.88" height=".53"/><rect class="cls-3" x="16.43" y="24.89" width="43.88" height=".53"/><rect class="cls-3" x="16.43" y="26.09" width="43.88" height=".53"/><rect class="cls-3" x="16.43" y="27.28" width="43.88" height=".53"/><rect class="cls-3" x="16.43" y="28.48" width="43.88" height=".53"/><rect class="cls-3" x="16.43" y="29.68" width="43.88" height=".53"/><rect class="cls-3" x="16.43" y="30.87" width="43.88" height=".53"/><rect class="cls-3" x="16.43" y="32.07" width="43.88" height=".53"/></g></g><g><rect class="cls-3" x="67.06" y="8.02" width="41.94" height="94.49"/><rect class="cls-7" x="42.56" y="35.88" width="90.94" height="38.78" transform="translate(143.3 -32.76) rotate(90)"/><rect class="cls-3" x="87.58" y="9.34" width=".89" height="92.29"/><rect class="cls-3" x="66.09" y="6.79" width="43.88" height="4.45"/><g><rect class="cls-3" x="66.09" y="11.73" width="43.88" height=".53"/><rect class="cls-3" x="66.09" y="12.93" width="43.88" height=".53"/><rect class="cls-3" x="66.09" y="14.13" width="43.88" height=".53"/><rect class="cls-3" x="66.09" y="15.32" width="43.88" height=".53"/><rect class="cls-3" x="66.09" y="16.52" width="43.88" height=".53"/><rect class="cls-3" x="66.09" y="17.71" width="43.88" height=".53"/><rect class="cls-3" x="66.09" y="18.91" width="43.88" height=".53"/><rect class="cls-3" x="66.09" y="20.11" width="43.88" height=".53"/><rect class="cls-3" x="66.09" y="21.3" width="43.88" height=".53"/><rect class="cls-3" x="66.09" y="22.5" width="43.88" height=".53"/><rect class="cls-3" x="66.09" y="23.7" width="43.88" height=".53"/><rect class="cls-3" x="66.09" y="24.89" width="43.88" height=".53"/><rect class="cls-3" x="66.09" y="26.09" width="43.88" height=".53"/><rect class="cls-3" x="66.09" y="27.28" width="43.88" height=".53"/><rect class="cls-3" x="66.09" y="28.48" width="43.88" height=".53"/><rect class="cls-3" x="66.09" y="29.68" width="43.88" height=".53"/><rect class="cls-3" x="66.09" y="30.87" width="43.88" height=".53"/><rect class="cls-3" x="66.09" y="32.07" width="43.88" height=".53"/></g></g><g><rect class="cls-3" x="116.72" y="8.02" width="41.94" height="94.49"/><rect class="cls-7" x="92.22" y="35.88" width="90.94" height="38.78" transform="translate(192.96 -82.42) rotate(90)"/><rect class="cls-3" x="137.24" y="9.34" width=".89" height="92.29"/><rect class="cls-3" x="115.75" y="6.79" width="43.88" height="4.45"/><g><rect class="cls-3" x="115.75" y="11.73" width="43.88" height=".53"/><rect class="cls-3" x="115.75" y="12.93" width="43.88" height=".53"/><rect class="cls-3" x="115.75" y="14.13" width="43.88" height=".53"/><rect class="cls-3" x="115.75" y="15.32" width="43.88" height=".53"/><rect class="cls-3" x="115.75" y="16.52" width="43.88" height=".53"/><rect class="cls-3" x="115.75" y="17.71" width="43.88" height=".53"/><rect class="cls-3" x="115.75" y="18.91" width="43.88" height=".53"/><rect class="cls-3" x="115.75" y="20.11" width="43.88" height=".53"/><rect class="cls-3" x="115.75" y="21.3" width="43.88" height=".53"/><rect class="cls-3" x="115.75" y="22.5" width="43.88" height=".53"/><rect class="cls-3" x="115.75" y="23.7" width="43.88" height=".53"/><rect class="cls-3" x="115.75" y="24.89" width="43.88" height=".53"/><rect class="cls-3" x="115.75" y="26.09" width="43.88" height=".53"/><rect class="cls-3" x="115.75" y="27.28" width="43.88" height=".53"/><rect class="cls-3" x="115.75" y="28.48" width="43.88" height=".53"/><rect class="cls-3" x="115.75" y="29.68" width="43.88" height=".53"/><rect class="cls-3" x="115.75" y="30.87" width="43.88" height=".53"/><rect class="cls-3" x="115.75" y="32.07" width="43.88" height=".53"/></g></g></g><g><path class="cls-1" d="M122.09,127.08l-23.42-.65-.22,38.6-42.94,1.3,1.08-40.77-54.43-1.3L0,2.6,39.9,0V84.36l17.57,1.08,1.08-39.25,40.33-11.93-.22,53.56,23.42,1.3v37.95Z"/><g><polygon class="cls-2" points="60.67 85.31 61.71 45.26 58.55 46.19 57.55 85.12 60.67 85.31"/><polygon class="cls-2" points="98.49 123.57 98.45 126.51 122 127.08 122 124.14 98.49 123.57"/><polygon class="cls-2" points="58.72 163.48 59.81 122.71 5.38 121.41 3.26 2.39 0 2.6 2.17 124.26 56.6 125.56 55.51 166.33 98.45 165.03 98.47 162.27 58.72 163.48"/></g></g><g><path class="cls-6" d="M26.93,140.23c-.11-.76-2.71-18.71,2.5-24.9,1.15-1.37,2.61-2.09,4.33-2.13,10.52-.25,11.96,8.2,11.97,8.29l-1.24,.19c-.05-.3-1.3-7.45-10.7-7.22-1.36,.03-2.47,.58-3.4,1.68-4.85,5.77-2.24,23.73-2.22,23.91l-1.24,.19Z"/><path class="cls-6" d="M26.3,139.41l-1.25-.04c0-.16,.42-16.54-7.65-19.92-7.91-3.31-11.46,3.5-11.61,3.79l-1.12-.56c.04-.08,4.21-8.16,13.22-4.38,8.86,3.71,8.44,20.41,8.42,21.12Z"/><path class="cls-6" d="M26.33,140.7c0-.26-.08-26.15-5.12-33.73-4.85-7.27-12.67-3.85-13-3.7l-.52-1.14c.09-.04,9.11-4.02,14.56,4.14,5.26,7.89,5.33,33.34,5.33,34.42h-1.26Z"/><path class="cls-10" d="M35.26,113.82s-4.59,1.69-3.23,5.69c1.37,4,15.89,10.58,15.89,10.58,0,0,6.08-5.57,.5-14.64-5.59-9.07-13.03-4.49-13.16-1.62Z"/><path class="cls-10" d="M20.98,105.61s3.26-.35,3-2.34c-.26-1.99-12.68-7.1-20,1.17,0,0,4.69,8.05,11.47,8.16,6.78,.11,5.53-6.99,5.53-6.99Z"/><path class="cls-10" d="M17.64,118.88s2.25-1.82-.18-2.7c-2.43-.89-14.34-.63-14.47,11.17,0,0,13.88,2.31,15.6-2.19,1.72-4.5-.95-6.28-.95-6.28Z"/><polygon class="cls-6" points="37.73 164.28 16.19 164.28 13.87 140.7 40.05 140.7 37.73 164.28"/><rect class="cls-10" x="12.72" y="138.1" width="28.48" height="5.2"/></g><g><g><path class="cls-12" d="M137.16,32.23c.81-1.61,1.62-3.24,2.15-4.97,.53-1.73,.76-3.58,.39-5.35-.06-.27-.6-2.1-.87-2.11-.2-.01,.05,1.65-.07,1.81-1.18,1.45-1.73,3.33-1.86,5.2-.14,1.86,0,3.58,.26,5.43"/><path class="cls-8" d="M138.39,25.44c.84-4.45-1.06-8.66-5.53-9.37l-.42-.04c-4.2-.42-8.02,2.45-8.78,6.61-.7,3.86-1.43,8.14-1.62,10.24-.38,4.33,3.88,5.44,3.88,5.44,0,0-.38,6.73-.38,6.73l10.35-4.4,2.5-15.2Z"/><path class="cls-4" d="M125.92,38.35s2.71,.43,5.8-1.1c0,0-1.6,3.45-5.88,2.62l.08-1.52Z"/><path class="cls-12" d="M124.54,26.52c-.04,.33,.19,.63,.53,.68,.34,.05,.65-.17,.69-.49,.04-.33-.19-.63-.53-.68-.34-.05-.65,.17-.69,.49Z"/><path class="cls-12" d="M124.41,24.53c.07,.09,.57-.21,1.24-.14,.66,.06,1.12,.45,1.2,.38,.04-.03-.02-.19-.22-.36-.19-.17-.54-.36-.95-.4-.41-.04-.78,.08-.99,.21-.22,.14-.3,.28-.27,.32Z"/><path class="cls-12" d="M130.16,27.41c-.04,.33,.19,.63,.53,.68,.34,.05,.65-.17,.69-.49,.04-.33-.19-.63-.53-.68-.34-.05-.65,.17-.69,.49Z"/><path class="cls-12" d="M130.89,25.45c.07,.09,.57-.21,1.24-.14,.66,.06,1.12,.45,1.2,.38,.04-.03-.02-.19-.22-.36-.19-.18-.54-.36-.95-.4-.41-.04-.78,.08-.99,.21-.22,.14-.3,.28-.27,.32Z"/><path class="cls-12" d="M127.99,30.32s-.4-.15-1.06-.3c-.17-.03-.33-.08-.34-.2-.03-.13,.06-.3,.16-.49,.2-.39,.41-.81,.63-1.24,.88-1.77,1.54-3.23,1.47-3.27-.07-.03-.84,1.37-1.73,3.14-.21,.44-.42,.85-.61,1.25-.08,.19-.22,.39-.15,.66,.03,.13,.15,.24,.25,.28,.11,.04,.2,.06,.28,.07,.67,.1,1.09,.15,1.09,.11Z"/><path class="cls-12" d="M131.2,22.76c.05,.19,.72,.17,1.49,.34,.77,.16,1.38,.45,1.5,.3,.05-.07-.04-.25-.28-.45-.23-.2-.62-.41-1.08-.51-.46-.1-.9-.07-1.2,.02-.3,.09-.46,.21-.44,.3Z"/><path class="cls-12" d="M124.9,22.35c.1,.16,.58,.05,1.13,.1,.55,.03,1.01,.2,1.13,.06,.05-.07,0-.23-.19-.39-.19-.16-.51-.31-.89-.34-.38-.03-.72,.08-.93,.21-.21,.14-.29,.28-.25,.36Z"/><path class="cls-8" d="M137.72,28.61c.08-.02,3.06-.58,2.67,2.37-.39,2.95-3.27,1.95-3.27,1.86,0-.09,.59-4.23,.59-4.23Z"/><path class="cls-4" d="M138.17,31.85s.05,.04,.13,.09c.08,.05,.22,.1,.38,.06,.33-.07,.65-.53,.74-1.06,.04-.27,.02-.53-.05-.75-.06-.23-.18-.4-.33-.45-.15-.06-.27,.02-.32,.1-.05,.08-.04,.14-.06,.14,0,0-.06-.06-.02-.18,.02-.06,.06-.12,.14-.17,.08-.05,.19-.06,.29-.04,.23,.05,.4,.28,.48,.53,.09,.25,.12,.55,.07,.85-.1,.59-.48,1.11-.92,1.17-.21,.03-.38-.06-.46-.14-.08-.09-.09-.15-.08-.16Z"/><path class="cls-12" d="M126.26,18.03c-.44-.33,1.21-1.67,2.46-2.04,1.88-.55,4.66-.66,6.22,.03,1.89,.84,3.38,2.04,4.11,3.97,.73,1.93,.81,4.07,.46,6.1-.11,.62-.26,1.26-.67,1.74-.5,.59-1.35,.89-1.44,1.79-.03,.33-.17,.65-.43,.86-.62,.5-1.2-.13-1.43-.72-.48-1.25-.36-2.63-.23-3.96,.09-.95,.19-1.91,.58-2.78,.21-.47,.51-.9,.7-1.38,.19-.48,.25-1.05,0-1.5-.04-.07-.11-.17-.21-.28-.73-.85-1.87-1.23-2.97-1.01-1.74,.35-4.7,.83-5.36,.16-.95-.96-1.13-1.52-1.13-1.52l-.67,.54Z"/></g><g><path class="cls-4" d="M129.86,31.48c.06-.02,.14-.05,.2-.01,.05,.03,.08,.09,.1,.15,.15,.48,.03,1.03-.3,1.4h0c-.49,.55-1.39,.32-1.64-.36l-.18-.51c.42-.15,1.41-.5,1.83-.65Z"/><path class="cls-12" d="M128.34,32.9s.16,.32,.69,.44c.13,.03,.29,.02,.44-.03,.15-.04,.31-.12,.44-.26,.24-.27,.37-.65,.4-1.04,0-.1,.01-.19,0-.3-.01-.1-.03-.22-.15-.31-.12-.09-.26-.05-.34-.02l-.24,.09c-.29,.12-.56,.22-.81,.33-.46,.19-.74,.32-.73,.35,0,.02,.31-.06,.78-.22,.26-.09,.54-.19,.83-.29,.15-.05,.35-.15,.4-.09,.08,.06,.08,.26,.06,.44-.03,.36-.14,.71-.34,.94-.1,.11-.22,.18-.36,.22-.13,.05-.25,.06-.37,.05-.48-.07-.69-.33-.71-.3Z"/></g><g><g><g><path class="cls-12" d="M123.09,152.5l.35,8.8s-8.82,3.3-8.92,4.94l17.08-.06,.02-13.73-8.53,.05Z"/><path class="cls-10" d="M128.71,160.54c.33,.09,.56,.46,.48,.79-.08,.33-.45,.57-.78,.49-.33-.08-.62-.52-.51-.84,.11-.32,.57-.58,.87-.42"/><path class="cls-11" d="M131.59,166.18l-.05-1.38-16.36,.57s-.76,.33-.67,.87l17.08-.06Z"/><path class="cls-5" d="M123.16,161.21c0,.08,.42,.12,.83,.39,.42,.26,.63,.62,.71,.58,.08-.02-.05-.51-.55-.83-.5-.32-1-.22-.99-.14Z"/><path class="cls-5" d="M121.37,161.96c-.02,.08,.34,.22,.63,.57,.29,.34,.37,.72,.45,.72,.08,.01,.13-.48-.23-.91-.36-.43-.85-.47-.85-.39Z"/><path class="cls-5" d="M120.36,164.1c.08,.02,.19-.4-.03-.86-.21-.46-.61-.64-.64-.57-.05,.07,.21,.31,.38,.69,.18,.37,.21,.72,.29,.73Z"/><path class="cls-5" d="M123.3,159.2c.04,.08,.42-.04,.89,0,.47,.02,.84,.18,.88,.11,.05-.06-.31-.37-.87-.4-.56-.03-.95,.23-.9,.3Z"/></g><g><path class="cls-12" d="M142.58,152.19l.87,9.98-1.59,8.1c-.11,.58,.29,1.14,.88,1.22h0c.33,.04,.66-.08,.88-.32,1.43-1.56,6.67-7.33,6.57-8.06-.12-.84-.22-10.59-.22-10.59l-7.39-.32Z"/><path class="cls-11" d="M142.74,171.48l7.41-9.06,.03,.42c.02,.37-.08,.73-.3,1.02-.59,.79-2.26,2.92-6.22,7.29-.23,.25-.57,.38-.91,.32h0Z"/><g class="cls-13"><path class="cls-5" d="M147.89,159.33c-.24,.19-.3,.57-.12,.82,.18,.25,.57,.31,.81,.12,.24-.18,.33-.64,.12-.87-.21-.23-.67-.27-.86-.04"/></g><path class="cls-5" d="M144.75,166.97c-.05,.03-.31-.48-.93-.72-.61-.26-1.15-.09-1.17-.15-.01-.02,.11-.11,.34-.16,.23-.05,.57-.04,.91,.1,.34,.14,.58,.37,.71,.57,.13,.2,.15,.34,.13,.35Z"/><path class="cls-5" d="M145.96,165.16c-.04,.05-.57-.42-1.37-.67-.8-.26-1.5-.18-1.51-.25-.02-.05,.71-.24,1.57,.04,.86,.27,1.35,.85,1.3,.88Z"/><path class="cls-5" d="M145.95,162.11c-.02,.06-.59-.13-1.31-.11-.72,.01-1.28,.23-1.31,.17-.03-.05,.53-.38,1.3-.39,.77-.02,1.34,.29,1.32,.33Z"/><path class="cls-5" d="M145.77,159.17c-.03,.06-.6-.24-1.36-.15-.76,.07-1.27,.47-1.3,.42-.02-.02,.08-.15,.31-.3,.22-.15,.57-.3,.98-.34,.41-.04,.78,.04,1.02,.14,.25,.1,.37,.21,.36,.23Z"/><path class="cls-5" d="M144.39,158.46s-.04-.13-.04-.38c0-.24,.05-.6,.24-1.01,.1-.19,.19-.44,.46-.59,.13-.08,.34-.06,.47,.06,.13,.12,.17,.28,.19,.44,.03,.64-.48,1.28-1.18,1.42-.71,.12-1.39-.24-1.71-.77-.07-.14-.13-.31-.06-.48,.07-.18,.26-.26,.41-.24,.3,.03,.5,.18,.68,.3,.36,.26,.59,.53,.73,.73,.14,.2,.19,.33,.18,.34-.03,.03-.28-.48-.99-.94-.18-.11-.38-.24-.6-.25-.1,0-.19,.04-.22,.13-.03,.08,0,.21,.06,.32,.27,.43,.89,.77,1.49,.65,.6-.11,1.04-.68,1.02-1.19,0-.12-.05-.24-.12-.31-.07-.07-.17-.08-.26-.04-.19,.09-.31,.31-.4,.49-.37,.76-.29,1.33-.34,1.32Z"/></g><g><path class="cls-12" d="M116.2,82.24s-1.47,5.95-1.03,11.7c.17,2.22,6.77,64.85,6.77,64.85h10.32l-2.9-58.87,.83,.18s5.53,24.67,5.98,28.66c.41,3.59,5.07,29.67,5.07,29.67l9.27,.11-2.96-34.49-3.44-33.1-1.3-9.63-26.61,.93Z"/><path class="cls-12" d="M130.95,94.02s-.14,.1-.42,.24c-.28,.13-.69,.33-1.26,.44-.28,.05-.6,.07-.93,0-.33-.06-.69-.2-.98-.47-.29-.27-.47-.64-.59-1.03-.12-.39-.19-.8-.27-1.22-.32-1.67-.54-3.19-.67-4.3-.06-.55-.11-1-.13-1.31-.02-.31-.03-.48-.01-.48,.01,0,.05,.17,.1,.48,.05,.35,.12,.79,.2,1.3,.17,1.1,.41,2.61,.73,4.28,.16,.82,.27,1.66,.79,2.15,.51,.48,1.23,.53,1.75,.46,.54-.08,.96-.26,1.25-.37,.29-.11,.45-.18,.46-.16Z"/><path class="cls-12" d="M127.9,86.18s.07-.05,.21-.06c.14-.01,.36,.03,.57,.18,.2,.15,.42,.42,.43,.78,.02,.37-.27,.73-.65,.87-.37,.15-.83,.06-1.06-.23-.23-.28-.25-.62-.19-.87,.06-.25,.19-.43,.31-.51,.11-.09,.19-.1,.2-.09,.03,.03-.29,.17-.36,.63-.03,.22,0,.5,.19,.71,.18,.21,.53,.28,.84,.16,.31-.12,.53-.39,.53-.67,0-.28-.16-.52-.32-.66-.35-.3-.68-.2-.68-.24Z"/><path class="cls-12" d="M143.96,90.35s-.12,.03-.35,.05c-.22,.02-.55,.03-.95,.01-.8-.04-1.91-.23-3.05-.71-1.14-.48-2.05-1.14-2.64-1.69-.29-.27-.52-.51-.66-.69-.14-.17-.21-.27-.2-.28,.03-.03,.35,.35,.96,.86,.6,.51,1.51,1.14,2.62,1.61,1.11,.47,2.19,.68,2.98,.75,.79,.08,1.28,.05,1.28,.09Z"/><path class="cls-12" d="M119.32,86.36s-.13,.42-.47,1.03c-.33,.61-.87,1.41-1.57,2.18-.7,.76-1.43,1.34-1.99,1.7-.55,.36-.92,.52-.93,.5-.01-.03,.33-.24,.86-.63,.53-.39,1.23-.97,1.92-1.72,.69-.75,1.23-1.53,1.59-2.11,.36-.58,.55-.97,.58-.95Z"/></g></g><g><path class="cls-8" d="M98,41.66l-.62-1.42s-.53-2.26-.72-2.8c-.19-.55-1.21-2.26-1.43-2.39-.22-.13-2.17-1.7-2.5-2.27-.33-.57-.64-1.23-.64-1.23,0,0-.61,.13-.67,.84-.06,.71,.76,2.71,.76,2.71l-3.13,3.26s.62,2.08,1.43,2.76c.82,.68,1.77,1.1,1.96,1.35s.65,.89,.65,.89l4.9-1.69Z"/><polygon class="cls-12" points="93.96 39.17 88.91 26.2 87.81 26.61 92.8 39.5 93.96 39.17"/><g><path class="cls-8" d="M89.94,33.56s-.94-.22-1.02,.72c-.08,.94,.56,1.07,.56,1.07,0,0-.68,.59-.13,1.55,0,0-.58,.63-.3,1.44l.29,.56,.69-.36s1.85,1.06,2.6,.56l.27-.35s.46,.07,.64-.31c.18-.38,.21-.37-.29-1.05-.5-.68-1.99-1.51-1.99-1.51,0,0,.94,.24,1.2-.15,.26-.39,.13-.85-.7-1.35-.84-.51-1.82-.82-1.82-.82Z"/><path class="cls-4" d="M89.94,33.56s.11,.05,.33,.14c.22,.09,.53,.22,.92,.42,.19,.1,.41,.21,.63,.36,.22,.14,.45,.31,.61,.56,.08,.12,.12,.27,.09,.41-.03,.14-.1,.3-.23,.37-.13,.07-.31,.09-.48,.09-.17,0-.35-.03-.53-.07l-.43-.1,.38,.22c.56,.33,1.16,.7,1.7,1.21,.13,.13,.25,.26,.36,.42,.11,.15,.23,.32,.28,.47,.02,.07,0,.15-.04,.23l-.06,.13s-.04,.07-.07,.11c-.11,.13-.31,.18-.49,.16h-.05l-.03,.03-.27,.35,.02-.02-.1,.05c-.19,.08-.41,.08-.62,.06-.22-.02-.43-.09-.63-.15-.41-.14-.8-.32-1.16-.51l-.04-.02-.04,.02c-.24,.12-.47,.24-.69,.36l.1,.03c-.1-.19-.2-.38-.29-.56h0c-.18-.48-.01-1.02,.28-1.36l.03-.04-.02-.04c-.15-.26-.23-.54-.2-.81,.02-.26,.15-.51,.32-.67l.07-.07-.09-.03c-.18-.05-.34-.2-.42-.36-.09-.16-.11-.34-.12-.5,0-.17,.02-.32,.06-.45,.05-.13,.13-.23,.23-.29,.19-.13,.38-.14,.5-.14,.12,0,.19,.01,.19,0,0,0-.06-.03-.19-.04-.12,0-.32-.01-.54,.12-.1,.07-.2,.18-.26,.32-.05,.14-.08,.3-.08,.48,0,.17,.02,.37,.11,.55,.09,.18,.25,.35,.48,.42l-.02-.09c-.2,.19-.33,.44-.36,.74-.04,.3,.06,.61,.21,.88v-.08c-.16,.2-.28,.43-.35,.69-.07,.26-.05,.55,.04,.82h0c.1,.19,.19,.38,.29,.57l.03,.06,.06-.03c.23-.12,.46-.24,.69-.36h-.07c.37,.2,.76,.39,1.19,.53,.21,.07,.43,.13,.66,.16,.23,.03,.47,.03,.71-.07l.12-.06h0v-.02l.28-.35-.07,.03c.22,.02,.46-.03,.62-.21,.04-.04,.07-.09,.1-.14l.07-.14c.04-.09,.09-.22,.05-.34-.07-.22-.2-.36-.31-.52-.11-.16-.24-.31-.37-.44-.56-.52-1.17-.89-1.74-1.22l-.05,.12c.19,.04,.37,.07,.56,.07,.18,0,.37-.01,.54-.11,.34-.22,.36-.68,.17-.94-.18-.27-.42-.44-.65-.58-.23-.14-.44-.25-.64-.35-.4-.19-.72-.31-.94-.38-.11-.04-.2-.06-.26-.08-.06-.02-.09-.02-.09-.02Z"/></g><path class="cls-4" d="M89.54,37.06s.86,.13,1.81,.61c.95,.47,1.54,1.11,1.58,1.08,.01-.01-.12-.19-.37-.43-.26-.24-.65-.54-1.13-.78-.48-.24-.96-.38-1.31-.44-.35-.06-.57-.06-.57-.04Z"/><path class="cls-4" d="M89.48,35.42s.47,.06,1.01,.25c.54,.19,.95,.43,.97,.39,.02-.03-.35-.34-.92-.54-.57-.21-1.07-.15-1.06-.11Z"/></g><path class="cls-10" d="M147.92,49.2s5.01,21.56,4.48,28.15c-.53,6.59-1.53,16.25-1.53,16.25l-7.04-.39,.69-17.95-2.91-13.11,6.31-12.94Z"/><g><g><path class="cls-9" d="M137.13,41.28l4.86,3.4-5.4,21.62v19.2s-5.74,.99-9.34,.74c-2.07-.14-5.24-.87-7.57-1.47h-.01c-.85-.22-1.58-.42-2.11-.57l-1.51-.4-1.48-1.86,.3-11.19-.17-2.01v-20.46c.96-1.78,.56-4.73,2.5-5.3l8.53-3.01s1.13,2.43,4.27,2.44c3.14,.02,6.05-3.08,6.05-3.08l1.08,1.96Z"/><path class="cls-10" d="M125.63,39.51l-2.99,1.48-7.56,2.55-12.55,7.92-3.65-10.77-7.83,2.85,5.74,15.43c1.03,2.51,3.59,4.15,6.28,3.79,.44-.06,.88-.17,1.3-.32l10.16-3.87,.17,12.32-.39,45.07,8.17,.58,.14-45.13c.13-11.16,2.99-31.89,2.99-31.89Z"/><path class="cls-12" d="M114.49,49.2s-.01,.07-.02,.21c0,.15-.01,.36-.02,.61,0,.55-.02,1.31-.04,2.25-.02,1.9-.03,4.52,0,7.42,.03,2.9,.09,5.52,.15,7.42,.04,.94,.06,1.7,.08,2.25l.03,.61c0,.14,.02,.21,.02,.21,0,0,0-.07,0-.21v-.61c-.01-.55-.03-1.31-.04-2.25-.03-1.9-.08-4.52-.11-7.42-.03-2.9-.03-5.52-.04-7.42,0-.94,0-1.7,0-2.25,0-.25,0-.46,0-.61,0-.14,0-.21-.01-.21Z"/><path class="cls-10" d="M141.55,73.46l1.14-12.02,5.2-11.66c.28-.98-1.47-3.78-2.37-4.25l-6.89-3.47-1.99-2.36-1.95,7.56c-.59,2.28-.97,5.94-1.45,11.96l-.67,13.33c-.1,1.98,0,3.96,.32,5.92l3.65,37.35s12.05,1.57,12.34-.06c.28-1.63-7.33-42.3-7.33-42.3Z"/></g><path class="cls-12" d="M142,68.51c.06,0,.65-4.24,1.32-9.5,.66-5.25,1.15-9.52,1.09-9.53-.06,0-.65,4.24-1.32,9.5-.66,5.25-1.15,9.52-1.09,9.53Z"/><path class="cls-12" d="M138.75,42.02s.02,.06,.03,.18c.02,.12,.03,.29,.03,.52,0,.45-.02,1.11-.11,1.93-.09,.82-.22,1.79-.39,2.88-.08,.55-.17,1.12-.26,1.71-.02,.16-.08,.34-.21,.47-.12,.14-.3,.22-.46,.26-.34,.07-.67,.02-1-.03l.11-.19c.34,.51,.43,1.1,.47,1.7,.06,1.53-.34,2.95-.76,4.17-.44,1.23-.94,2.29-1.39,3.17l-.63,1.17c-.2,.33-.37,.61-.52,.86l-.33,.54c-.08,.12-.12,.18-.13,.18,0,0,.02-.07,.09-.2,.08-.15,.18-.34,.29-.56,.14-.25,.3-.54,.48-.88,.18-.35,.38-.75,.59-1.18,.43-.88,.91-1.94,1.33-3.16,.41-1.22,.79-2.61,.73-4.09-.03-.56-.14-1.15-.41-1.56l-.16-.24,.27,.04c.31,.05,.63,.09,.91,.03,.28-.05,.46-.26,.49-.54,.1-.6,.19-1.17,.28-1.71,.18-1.08,.34-2.05,.45-2.86,.11-.81,.16-1.46,.18-1.91,.02-.45,0-.7,.02-.7Z"/><path class="cls-12" d="M122.64,41.09s-.09,.23-.23,.66c-.14,.43-.32,1.06-.51,1.85-.19,.8-.38,1.76-.6,2.83-.11,.54-.22,1.11-.34,1.7-.07,.27,.03,.53,.27,.68,.24,.15,.55,.23,.86,.29l.48,.1-.49,.14c-.19,.05-.39,.23-.55,.42-.15,.21-.27,.44-.37,.69-.26,.68-.33,1.4-.38,2.09-.04,.69,0,1.36,.03,2,.06,.64,.11,1.24,.2,1.81,.07,.57,.15,1.09,.25,1.57,.16,.96,.33,1.73,.44,2.26,.05,.24,.09,.45,.12,.62,.02,.14,.03,.22,.03,.22,0,0-.03-.07-.07-.21l-.16-.61c-.14-.53-.34-1.29-.52-2.25-.11-.48-.19-1-.28-1.57-.1-.57-.15-1.18-.22-1.82-.04-.65-.08-1.32-.04-2.03,.04-.7,.11-1.44,.39-2.16,.21-.52,.5-1.06,1.11-1.26v.24c-.33-.07-.65-.14-.94-.33-.15-.09-.28-.23-.34-.4-.07-.17-.06-.36-.03-.52,.13-.59,.25-1.16,.36-1.7,.23-1.08,.44-2.04,.65-2.83,.21-.79,.41-1.42,.58-1.85,.09-.21,.16-.37,.21-.48,.05-.11,.09-.16,.09-.16Z"/><path class="cls-12" d="M150.87,93.6s-.18,.01-.51,0c-.37-.01-.85-.03-1.44-.05-1.27-.06-3.02-.14-5.09-.24h-.11v-.11c.06-1.63,.13-3.49,.2-5.45,.15-3.44,.28-6.55,.38-8.84,.06-1.1,.11-2.01,.14-2.68l.05-.73c.01-.17,.03-.25,.03-.25,0,0,.01,.09,.01,.25v.73c-.02,.67-.04,1.57-.07,2.68-.08,2.29-.19,5.4-.31,8.84-.08,1.96-.16,3.82-.22,5.45l-.1-.11c2.06,.13,3.81,.24,5.09,.33,.59,.05,1.07,.08,1.44,.11,.33,.03,.51,.05,.51,.06Z"/></g><g><rect class="cls-11" x="133.7" y="97.98" width="25.04" height="17.87" rx="1.18" ry="1.18"/><path class="cls-8" d="M143.41,97.99c.13-.06,.59-.01,.61,.48,.02,.5-.41,3.87-.41,3.87,0,0-1.05,3.75-.77,4.17,.28,.42,.87,.32,1.07,.05,.14-.2,1.33-3.33,1.33-3.33l.31-1.7s-.61,5.4-.27,5.82c.34,.42,.71,.26,.95,.04,.24-.22,.48-2.6,.48-2.6l.55-3.18-.08,5.17s.06,.58,.51,.6c.62,.03,.75-.64,.75-.64l.63-5.35s-.21,3.48,.02,3.66c.31,.24,.6,.16,.7-.1,.21-.54,.51-3.67,.51-3.67l.29-5.95,.22-1.64-5.71-.29v.4s-2.22,1.66-2.7,2.32c0,0-.68,1.06-.86,1.88h1.86Z"/><rect class="cls-11" x="132.35" y="101.99" width="2.7" height="7.96"/><polygon class="cls-11" points="133.08 105.43 130.9 104.76 130.88 107.41 133 106.92 133.08 105.43"/><path class="cls-12" d="M133.63,109.96s.53-.06,1.43-.08l-.08,.08c-.02-.99-.04-2.44-.04-4.05s.01-2.93,.04-3.92l.08,.08c-.96-.02-1.56-.05-1.56-.08s.59-.06,1.56-.08h.08v.08c.02,.99,.04,2.38,.04,3.92s-.02,3.06-.04,4.05v.08h-.08c-.89-.02-1.43-.05-1.43-.08Z"/></g></g></g></svg>