<svg xmlns="http://www.w3.org/2000/svg" width="48.587" height="45" viewBox="0 0 48.587 45"><path d="M45.661,29.578h0V3.525a.611.611,0,0,0-.606-.605H3.526a.611.611,0,0,0-.606.605V29.578a.611.611,0,0,0,.606.605h7.656a13.68,13.68,0,0,0,1.211,1.322,16.713,16.713,0,0,0,11.842,4.9,16.888,16.888,0,0,0,7.38-1.707l.11.11L34.7,37.784H29.743c.055.716.441,3.856,5.177,4.462H34.7A1.377,1.377,0,1,1,34.7,45H13.88a1.377,1.377,0,0,1,0-2.754h-.165c4.737-.606,5.123-3.745,5.178-4.462H3.085A3.094,3.094,0,0,1,0,34.81V3.525A3.55,3.55,0,0,1,3.526,0H45.055A3.55,3.55,0,0,1,48.58,3.525V34.81a2.65,2.65,0,0,1-.386,1.322L42.3,30.183h2.754a.611.611,0,0,0,.606-.605m2.147,13.769a2.659,2.659,0,0,1-3.745,0L33.6,32.882l.5-.5-1.543-1.542a13.984,13.984,0,0,1-18.4-20.985A13.918,13.918,0,0,1,24.07,5.783,13.971,13.971,0,0,1,35.251,28.2l1.542,1.543.5-.5L47.753,39.712a2.452,2.452,0,0,1,.055,3.635m-16.3-30.954a10.327,10.327,0,1,0,0,14.6,10.3,10.3,0,0,0,0-14.6m-5.838,1.1H22.638v4.682H17.956v3.029h4.682v4.682h3.029V21.205h4.682V18.176H25.667Z" fill="#1f6d4c"/></svg>