<svg xmlns="http://www.w3.org/2000/svg" xmlns:xlink="http://www.w3.org/1999/xlink" width="221.36" height="208.47" viewBox="0 0 221.36 208.47"><defs><clipPath id="a"><rect width="109.204" height="196.406" fill="none"/></clipPath></defs><g transform="matrix(0.629, -0.777, 0.777, 0.629, 0, 84.867)"><g transform="translate(0 0)" clip-path="url(#a)"><path d="M14.24,10.218A1.131,1.131,0,0,1,15.67,8.467a1.089,1.089,0,0,1,.276.331,1.13,1.13,0,0,1-1.706,1.42" transform="translate(22.8 13.541)" fill="#4d5254"/><path d="M20.039,15.62a1.13,1.13,0,0,1,1.64-1.555,1.1,1.1,0,0,1,.172.233,1.131,1.131,0,0,1-1.812,1.322" transform="translate(32.535 22.613)" fill="#4d5254"/><path d="M18.181,13.738a1.131,1.131,0,1,1,1.576-1.621,1.156,1.156,0,0,1,.2.268,1.131,1.131,0,0,1-1.78,1.354" transform="translate(29.417 19.454)" fill="#4d5254"/><path d="M16.251,11.934a1.13,1.13,0,1,1,1.5-1.687,1.211,1.211,0,0,1,.238.3,1.131,1.131,0,0,1-1.743,1.388" transform="translate(26.172 16.426)" fill="#4d5254"/><path d="M12.16,8.594a1.13,1.13,0,1,1,1.348-1.815,1.149,1.149,0,0,1,.318.363A1.131,1.131,0,0,1,12.16,8.594" transform="translate(19.301 10.812)" fill="#4d5254"/><path d="M3.141,3.2a1.13,1.13,0,1,1,.94-2.056,1.114,1.114,0,0,1,.519.485A1.128,1.128,0,0,1,3.141,3.2" transform="translate(4.088 1.723)" fill="#4d5254"/><path d="M5.485,4.375h0a1.123,1.123,0,0,1-.461-1.534,1.13,1.13,0,1,1,.461,1.534" transform="translate(8.06 3.688)" fill="#4d5254"/><path d="M10.008,7.071a1.131,1.131,0,1,1,1.261-1.878,1.162,1.162,0,0,1,.36.395,1.131,1.131,0,0,1-1.621,1.483" transform="translate(15.678 8.247)" fill="#4d5254"/><path d="M7.785,5.658a1.131,1.131,0,1,1,1.552-.387,1.127,1.127,0,0,1-1.552.387" transform="translate(11.932 5.867)" fill="#4d5254"/><path d="M30.845,30.616a1.112,1.112,0,0,1,.437-1.521,1.1,1.1,0,0,1,1.5.469l0,.005a1.1,1.1,0,1,1-1.936,1.046" transform="translate(50.634 47.761)" fill="#4d5254"/><path d="M29.543,28.315a1.131,1.131,0,0,1,1.95-1.147l.016.032a1.13,1.13,0,0,1-1.966,1.115" transform="translate(48.463 43.882)" fill="#4d5254"/><path d="M32.065,32.977a1.13,1.13,0,0,1,2-1.046l.024.042a1.131,1.131,0,0,1-2.027,1" transform="translate(52.685 51.689)" fill="#4d5254"/><path d="M33.154,35.4h0a1.208,1.208,0,0,1,.6-1.513,1.142,1.142,0,0,1,1.465.479c.013.026.037.05.048.077a1.148,1.148,0,0,1-.585,1.5,1.194,1.194,0,0,1-1.526-.548" transform="translate(54.56 55.712)" fill="#4d5254"/><path d="M28.161,26.055a1.129,1.129,0,1,1,1.9-1.216.338.338,0,0,1,.04.066,1.129,1.129,0,0,1-1.942,1.15" transform="translate(46.143 40.099)" fill="#4d5254"/><path d="M21.819,17.579a1.131,1.131,0,0,1,1.7-1.489,1.252,1.252,0,0,1,.14.2,1.131,1.131,0,0,1-1.844,1.287" transform="translate(35.521 25.897)" fill="#4d5254"/><path d="M23.522,19.605a1.131,1.131,0,0,1,1.759-1.423,1.332,1.332,0,0,1,.111.17,1.13,1.13,0,0,1-1.87,1.253" transform="translate(38.377 29.293)" fill="#4d5254"/><path d="M25.147,21.7a1.131,1.131,0,1,1,1.812-1.354.89.89,0,0,1,.085.135,1.13,1.13,0,0,1-1.9,1.219" transform="translate(41.099 32.797)" fill="#4d5254"/><path d="M26.693,23.847a1.13,1.13,0,1,1,1.86-1.285.8.8,0,0,1,.064.1,1.131,1.131,0,0,1-1.923,1.184" transform="translate(43.688 36.402)" fill="#4d5254"/><path d="M.138,1.673A1.131,1.131,0,0,1,.586.14a1.147,1.147,0,0,1,.861-.1A1.13,1.13,0,1,1,.138,1.673" transform="translate(0 0)" fill="#4d5254"/><path d="M41.362,136.4a.83.83,0,0,1-.575-.678l-2.1-14.922a.833.833,0,1,1,1.65-.233L41.945,132c8.57-27.037,5.833-61.308-7.616-94.488a.833.833,0,0,1,1.5-.713.889.889,0,0,1,.042.087C49.415,70.3,52.2,104.85,43.63,132.207l7.619-8.215a.836.836,0,0,1,1.179-.045.893.893,0,0,1,.164.212.837.837,0,0,1-.119.967L42.223,136.173a.836.836,0,0,1-.861.228" transform="translate(56.509 59.968)" fill="#4d5254"/></g></g></svg>